<svg xmlns="http://www.w3.org/2000/svg" xml:space="preserve" width="960.443" height="959.659" viewBox="0 0 254.117 253.91"><path d="M-75.824 179.666c-.535-1-.974-3.753-.974-6.116v-4.296h-23.408c-19.315 0-23.606-.239-24.541-1.366-.624-.751-.993-1.98-.821-2.73.172-.75 5.288-6.518 11.368-12.815 6.081-6.298 11.056-11.717 11.056-12.043 0-.326-5.08-5.732-11.29-12.014-6.21-6.281-11.292-12.072-11.292-12.868 0-3.433 1.77-3.589 37.747-3.337l35.175.247.327 2.316c.25 1.774-.631 3.145-3.764 5.853l-4.09 3.537h123.26l-4.013-3.5c-4.16-3.63-5.217-7.06-2.496-8.105.819-.314 16.824-.571 35.567-.571 35.081 0 36.337.129 36.337 3.731 0 .81-5.08 6.541-11.29 12.735-6.211 6.194-11.292 11.574-11.292 11.956 0 .382 4.975 5.828 11.056 12.102 6.08 6.275 11.197 12.023 11.369 12.774.172.751-.198 1.98-.821 2.732-.936 1.127-5.227 1.366-24.542 1.366H79.396v4.296c0 2.363-.438 5.115-.974 6.116-.95 1.777-2.8 1.82-77.123 1.82-74.323 0-76.172-.043-77.123-1.82zm146.752-26.878v-21.17H-68.33v42.341H70.928Zm-147.711-8.233c.008-9.444.328-17.666.712-18.27.384-.603 2.341-2.403 4.35-3.998l3.65-2.902h-43.85l6.429 6.822c3.535 3.752 7.13 7.465 7.988 8.251.858.786 2.322 2.593 3.254 4.015l1.694 2.585-9.528 9.683c-5.24 5.325-9.528 9.975-9.528 10.334s7.833.652 17.407.652h17.407zm190.993 16.52c0-.359-4.287-5.01-9.528-10.334-10.787-10.962-10.615-9.949-3.02-17.872 1.986-2.07 5.71-5.95 8.279-8.624l4.669-4.86H70.669l3.658 2.9c2.012 1.594 3.945 3.606 4.297 4.47.352.863.67 9.085.706 18.27l.066 16.702h17.407c9.574 0 17.407-.293 17.407-.652z" style="fill:#fff;stroke-width:.940922" transform="translate(125.75 -18.376)"/></svg>