<svg xmlns="http://www.w3.org/2000/svg" xml:space="preserve" width="58.911" height="73.829" viewBox="0 0 15.587 19.534"><path fill="#fff" d="M5.33 19.09c-1.184-.584-2.057-1.731-2.996-3.937a121.962 121.962 0 0 0-1.558-3.487c-.429-.91-.78-1.809-.78-1.998 0-.592.602-.978 1.526-.978 1.235 0 1.815.374 2.367 1.525l.473.988.073-4.297c.072-4.241.05-3.662.383-4.27.23-.418 1.247-.82 1.641-.722.555.14.658.06.73-.557C7.242.899 7.538.489 8 .232c.654-.364 1.022-.256 1.456 0 .546.322.747.636.809 1.379.076.916.126.965.832.824.971-.194 1.733.655 1.864 1.757.072.602.126.673.972.673 1.632 0 1.72.64 1.624 6.403-.081 4.953-.09 5.014-.81 6.102-1.149 1.734-2.29 2.169-5.678 2.162-2.107-.004-3.086-.12-3.739-.442zm7.383-.77c.5-.292 1.176-.929 1.504-1.415.566-.84.596-1.138.596-5.82 0-3.486-.093-5.028-.317-5.253-.419-.418-.62-.4-1.119.099-.298.298-.416.935-.416 2.249 0 1.008-.11 1.833-.246 1.833-.39 0-.497-.731-.534-3.681-.02-1.515.026-2.378-.22-2.817-.217-.35-1.021-.417-1.363-.006-.205.247-.296 1.386-.265 3.328.03 1.89-.06 3.059-.25 3.249-.22.22-.297-.825-.297-4.007 0-4.46-.172-5.327-1.058-5.327-.948 0-1.117.873-.918 4.745.185 3.576.06 4.935-.424 4.636-.135-.084-.245-1.669-.245-3.523 0-3.471-.147-4.006-1.102-4.006-.861 0-1.08.977-1.002 4.472.098 4.413.034 6.112-.232 6.112-.121 0-.498-.595-.838-1.32-.836-1.786-1.444-2.385-2.421-2.385-.668 0-.779.082-.624.463.103.255.311.806.462 1.224.152.419.657 1.55 1.123 2.514.813 2.042 1.768 4.177 3.744 4.952 1.507.56 5.277.375 6.462-.317z"/></svg>