<svg xmlns="http://www.w3.org/2000/svg" xml:space="preserve" width="446.476" height="210.849" viewBox="0 0 118.13 55.787"><path fill="#fff" stroke-width=".265" d="M74.158 55.45c-.226-.177-5.465-7.032-11.642-15.232s-15.13-20.083-19.895-26.405C37.1 6.488 33.956 2.097 33.956 1.71c0-1.287 1.573-1.907 2.587-1.02.29.255 5.943 7.666 12.56 16.47a15851.13 15851.13 0 0 0 19.73 26.194c5.544 7.333 7.703 10.385 7.71 10.895.02 1.292-1.373 1.993-2.384 1.201zm-30.261-.341c-.936-.936-.57-1.55 6.631-11.114 3.876-5.148 7.123-9.313 7.216-9.256 1.859 2.453.023-.011 1.855 2.453l-6.352 8.438c-3.494 4.642-6.655 8.766-7.023 9.167-.75.812-1.7.94-2.327.311zm17.377-22.59c-.473-.57-.86-1.169-.86-1.33s5.2-7.198 11.555-15.636C80.46 4.283 83.7.17 84.181.048c1.196-.3 2.31.77 1.755 1.891-.699 1.412-23.243 31.156-23.67 31.607-.073.004-.519-.458-.992-1.028zM1.163 27.67c.73 1.021 4.042 5.444 7.36 9.83 5.91 7.806 6.061 7.98 7.25 8.316 1.626.461 4.277.566 5.685.225 3.975-.963 6.359-3.722 9.412-10.893 2.685-6.305 3.874-8.266 6.223-10.257 1.555-1.318 4.947-2.03 7.842-1.648 1.367.181 2.047-.117 2.012-.881-.012-.276-3.28-4.81-7.26-10.077l-7.239-9.576-1.516-.429c-3.011-.85-5.674-.605-8.122.747-2.575 1.421-4.27 3.911-7.024 10.318-2.97 6.906-4.698 9.326-7.66 10.73-1.559.74-3.848 1.034-5.77.744-2.736-.413-3.027.283-1.193 2.851zm70.611-2.55c.282.05 1.058 0 1.725-.113 1.918-.324 4.212-.069 5.783.642 2.986 1.352 4.756 3.742 7.846 10.595 2.865 6.357 4.604 8.817 7.203 10.193 2.471 1.309 5.138 1.507 8.134.604l1.509-.454 7.07-9.7c5.804-7.965 7.076-9.927 7.084-10.203.02-.765-.664-1.051-2.028-.847-2.887.434-6.292-.22-7.87-1.51-2.382-1.95-3.606-3.89-6.4-10.147-3.178-7.116-5.61-9.833-9.6-10.727-1.415-.316-4.063-.165-5.682.324-14.172 18.245-7.958 10-14.29 18.398-1.324 1.923-1.462 2.769-.484 2.943z"/></svg>