<svg xmlns="http://www.w3.org/2000/svg" width="300mm" height="300mm" viewBox="0 0 300 300"><path fill="#fff" d="M240.42 282.04c-19.34-3.645-36.33-12.392-42.809-22.04-6.523-9.713-5.828-19.732 3.801-54.793 12.815-46.663 12.673-53.554-1.931-93.485C190.598 87.434 185.04 67.819 183.976 57c-.475-4.824-1.256-8.32-1.737-7.768-.481.552-2.344 5.306-4.14 10.563-4.88 14.292-12.526 29.331-23.387 46.008-12.136 18.634-22.907 40.37-26.864 54.211-4.172 14.595-6.594 34.652-6.702 55.492-.05 9.661-.475 23.865-.946 31.564-.949 15.525-2.131 17.954-10.913 22.42-14.079 7.158-55.522 7.751-69.144.99-6.88-3.415-9.89-8.535-12.722-21.645l-2.095-9.698-4.157 8.32c-2.286 4.577-5.268 9.53-6.626 11.01-3.45 3.756-8.403 3.502-11.657-.598C.638 255.036.373 253.594.96 247.413c1.649-17.347 10.346-40.942 28.412-77.078 15.296-30.597 24.088-43.899 33.715-51.013 4.05-2.992 15.16-9.15 24.69-13.685 40.1-19.08 47.503-24.487 62.784-45.84 8.54-11.934 17.281-29.572 17.281-34.868 0-4.564 3.497-8.75 7.308-8.75 1.39 0 4.225 1.853 6.3 4.118l3.771 4.118 3.794-2.402c5.422-3.434 8.157-1.606 10.534 7.04 9.363 34.062 16.447 44.916 54.379 83.325 15.752 15.95 28.191 29.56 29.638 32.429 4.374 8.672 6.308 28.129 8.691 87.453l1.408 35.036-5.85 5.986c-3.217 3.293-7.462 6.844-9.434 7.892-4.995 2.653-25.946 3.132-37.961.867zm24.629-173.9c-16.008-3.167-26.984-16.631-25.052-30.73.905-6.605 3.532-11.724 8.939-17.421 6.404-6.747 11.872-9.161 20.733-9.153 13.794.013 21.276 3.876 26.307 13.588 3.365 6.495 3.716 23.25.61 29.032-2.469 4.594-10.83 11.63-16.766 14.11-4.731 1.977-7.196 2.073-14.772.574zM76.729 91.939c-11.878-3.653-19.228-15.284-19.252-30.468-.014-7.9.452-9.901 3.583-15.444 12.63-22.356 49.998-17.334 57.226 7.69 7.381 25.553-15.204 46.326-41.557 38.222z"/></svg>