<svg xmlns="http://www.w3.org/2000/svg" width="239.521" height="167.468" viewBox="0 0 63.373 44.309"><path d="M-115.49 144.223c-4.537-1.273-7.929-5.597-7.941-10.123-.005-1.726 3.374-21.65 3.988-23.52 1.073-3.26 3.457-6.102 6.195-7.38 4.005-1.87 15.825-3.275 24.474-2.91 7.49.316 14.63 1.337 17.8 2.546 2.92 1.113 5.634 3.93 6.811 7.074.317.844 1.385 6.316 2.414 12.362 2.015 11.836 2.072 12.734.994 15.628-.817 2.195-3.684 5.07-5.926 5.943-2.157.84-5.72.873-7.731.071-3.15-1.255-5.372-3.682-6.433-7.023l-.567-1.786h-20.545l-.573 1.771c-1.476 4.57-5.023 7.378-9.66 7.646-1.174.068-2.382-.042-3.3-.3zm37.656-17.552c1.043-1.044 1.098-1.179 1.098-2.679 0-1.498-.056-1.636-1.09-2.67-.868-.868-1.334-1.119-2.278-1.225-2.485-.28-4.305 1.366-4.305 3.895 0 2.53 1.683 4.087 4.194 3.882 1.083-.089 1.453-.276 2.38-1.203zm-24.943-.277c.719-.719.774-.915.774-2.778v-2.005H-100c1.863 0 2.06-.055 2.778-.773.528-.528.774-1.039.774-1.608 0-.57-.246-1.08-.774-1.608-.718-.719-.915-.774-2.778-.774h-2.004v-2.004c0-1.863-.055-2.06-.774-2.778-1.04-1.04-2.176-1.04-3.215 0-.72.718-.774.915-.774 2.778v2.004h-2.005c-1.863 0-2.059.055-2.778.774-.528.528-.773 1.038-.773 1.608 0 .57.245 1.08.773 1.608.719.718.915.773 2.778.773h2.005v2.005c0 1.863.055 2.06.774 2.778 1.04 1.04 2.175 1.04 3.215 0zm31.293-9.248c1.043-1.044 1.098-1.179 1.098-2.679 0-1.498-.056-1.636-1.09-2.67-.868-.868-1.334-1.119-2.278-1.225-2.485-.28-4.305 1.366-4.305 3.895 0 2.53 1.683 4.087 4.194 3.882 1.083-.089 1.453-.276 2.38-1.203z" style="fill:#fff;stroke-width:.264583" transform="translate(123.431 -100.232)"/></svg>