<svg xmlns="http://www.w3.org/2000/svg" width="2134.328" height="2082.66" viewBox="0 0 564.708 551.037"><path d="M-553.417 376.845c-1.534-.226-7.567-2.285-14.54-4.962-49.67-19.07-91.192-50.713-123.832-94.373-34.537-46.198-52.849-96.788-55.784-154.12-.33-6.43-.348-22.611-.034-28.84 1.394-27.619 5.796-51.38 14.14-76.332 4.126-12.336 8.642-23.148 14.864-35.586 23.606-47.192 58.881-86.1 103.154-113.78 11.64-7.277 27.195-15.481 38.496-20.304 31.57-13.47 62.432-20.498 97.764-22.262 5.454-.272 21.979-.266 27.781.01 43.882 2.093 84.741 13.616 122.355 34.506 47.326 26.285 84.557 63.471 111.128 110.997 2.999 5.363 8.804 16.972 11.239 22.474 10.912 24.662 17.972 50.083 21.42 77.126 1.695 13.298 2.144 21.09 2.142 37.174-.003 13.345-.16 17.4-1.074 27.517-4.302 47.613-20.632 92.45-48.086 132.027-32.555 46.932-74.662 81.085-125.329 101.653-7.854 3.189-17.363 6.577-19.58 6.978-4.04.73-7.906.383-10.749-.966-1.985-.942-4.511-3.536-5.66-5.81-1.655-3.28-1.573-.895-1.582-46.425-.005-24.846-.115-43.134-.273-45.508-1.152-17.236-5.497-29.743-13.788-39.688-1.092-1.31-2.67-3.006-3.508-3.77-.924-.842-1.385-1.43-1.172-1.492.194-.057 2.615-.365 5.38-.685 9.738-1.128 23.096-3.603 31.617-5.86 12.392-3.28 26.36-9.275 38.276-16.425 12.797-7.68 23.646-17.741 31.057-28.803 11.188-16.7 18.834-40.179 21.274-65.334.957-9.855 1.267-25.095.66-32.464-1.578-19.202-7.432-36.356-17.588-51.542-2.62-3.916-6.934-9.476-9.497-12.238-1.043-1.124-1.49-1.804-1.393-2.117.08-.254.638-1.83 1.243-3.504 1.97-5.456 3.478-12.134 4.27-18.918.506-4.324.431-15.02-.137-19.711-1.158-9.57-3.537-19.223-7.121-28.899l-1.346-3.63-2.001-.458c-2.637-.602-8.2-.586-11.791.036-6.239 1.08-12.861 3.158-22.302 7.002-12.556 5.112-20.473 9.238-33.508 17.463-4.084 2.577-7.55 4.758-7.7 4.847-.152.089-2.533-.416-5.292-1.122-15.743-4.026-30.387-6.377-47.88-7.687-5.149-.386-25.766-.543-31.22-.238-18.235 1.018-34.97 3.546-51.594 7.794l-5.556 1.42-4.366-2.852c-12.057-7.876-18.14-11.16-30.473-16.451-18.492-7.934-27.64-10.61-36.202-10.593-2.908.006-6.437.517-6.872.996-.112.124-.81 1.951-1.55 4.062-3.395 9.684-5.317 17.613-6.574 27.12-.657 4.97-.653 17.714.008 22.489.902 6.517 2.53 13.145 4.556 18.554.598 1.597.881 2.707.74 2.9-.127.172-1.168 1.368-2.315 2.658-10.69 12.03-18.672 27.033-22.783 42.827-2.619 10.06-3.592 18.497-3.591 31.115.003 23.597 3.062 42.5 9.942 61.413 8.366 23 20.285 38.826 38.36 50.937 10.578 7.087 25.162 14.013 37.518 17.816 10.045 3.092 25.52 6.152 38.153 7.544 2.329.257 4.284.507 4.345.555.06.048-.781 1.01-1.872 2.138-7.964 8.23-13.009 18.898-15.32 32.396-.307 1.79-.648 3.35-.758 3.464-.11.115-1.672.806-3.47 1.536-8.856 3.596-17.644 5.275-29.756 5.687-9.407.32-15.465-.945-23.017-4.805-5.33-2.725-9.783-6.079-14.425-10.864-3.802-3.92-6.804-7.905-10.438-13.855-4.156-6.806-6.71-10.064-11.519-14.7-3.995-3.851-9.853-7.868-16.007-10.978-4.955-2.504-7.332-3.265-12.777-4.09-4.69-.712-7.125-.704-11.013.035-5.052.96-6.45 2.887-4.664 6.427 2 3.964 6.323 8.086 11.411 10.883 6.114 3.36 11.605 8.809 17.852 17.713 4.994 7.119 7.993 12.91 12.676 24.484 1.997 4.936 3.833 8.278 6.49 11.81 7.327 9.744 19.827 17.36 32.677 19.907 10.422 2.067 21.157 2.97 32.28 2.718 7.844-.179 9.476-.336 17.275-1.665 3.1-.528 5.674-.916 5.72-.862.095.108.417 33.325.453 46.666l.023 8.469-.7 2.086c-1.624 4.836-5.073 8.07-9.64 9.038-1.895.402-5.368.447-7.72.1z" style="fill:#fff;stroke-width:.264583" transform="translate(747.832 173.915)"/></svg>
