<svg xmlns="http://www.w3.org/2000/svg" width="960.443" height="959.659" viewBox="0 0 254.117 253.91"><path d="M-14.35 271.369c-42.454-5.423-79.417-31.72-98.548-70.11-4.974-9.983-8.297-19.448-10.896-31.04-2.506-11.173-2.506-39.168 0-50.34 5.83-26.002 16.713-45.915 35.19-64.392 18.477-18.477 38.39-29.36 64.392-35.19 11.173-2.506 39.167-2.506 50.34 0 26.001 5.83 45.914 16.713 64.391 35.19 18.478 18.477 29.36 38.39 35.191 64.392 2.505 11.172 2.505 39.167 0 50.34-5.802 25.873-16.804 46.005-35.19 64.391-18.405 18.405-39.265 29.791-64.178 35.032-9.922 2.087-30.901 2.977-40.691 1.727zm26.834-35.228c19.024-2.587 36.675-10.945 50.87-24.087 10.633-9.845 14.54-15.556 13.658-19.967-2.499-12.495-20.35-24.689-45.65-31.18-21.669-5.56-39.56-5.541-61.143.067-25.114 6.525-42.83 18.69-45.316 31.113-.883 4.416 3.025 10.122 13.71 20.017 9.906 9.174 21.713 16.182 33.82 20.073 15.08 4.847 25.775 5.906 40.05 3.964zm5.448-107.507c19.078-10.303 25.35-34.625 17.58-51.534-3.558-7.22-10.347-14.01-17.567-17.568-11.224-3.747-23.775-4.956-33.974 0-7.288 3.593-14.069 10.413-17.464 17.568-8.494 22.138 1.387 46.17 21.876 53.384 7.399 2.419 22.71 1.46 29.549-1.85z" style="fill:#fff;stroke-width:1.13248" transform="translate(125.75 -18.376)"/></svg>