<svg xmlns="http://www.w3.org/2000/svg" xml:space="preserve" width="960.443" height="959.659" viewBox="0 0 254.117 253.91"><path d="M-122.024 269.522c-4.847-3.813-4.54-7.892 2.103-28.024l5.597-16.957h230.84l5.596 16.957c6.644 20.132 6.95 24.211 2.103 28.024-3.475 2.734-4.104 2.748-123.12 2.748-119.015 0-119.643-.015-123.119-2.748zm0-63.638c-4.847-3.813-4.54-7.892 2.103-28.024l5.597-16.957h18.841c17.423 0 18.902.192 19.65 2.549.445 1.401 3.1 4.619 5.902 7.149 9.537 8.616 23.823 7.774 32.58-1.92 2.552-2.823 4.64-5.729 4.64-6.456 0-.863 25.898-1.322 74.613-1.322h74.614l5.596 16.957c6.644 20.132 6.95 24.211 2.103 28.024-3.475 2.734-4.104 2.748-123.12 2.748-119.015 0-119.643-.015-123.119-2.748zm0-63.638c-4.847-3.813-4.54-7.892 2.103-28.023l5.597-16.958h51.119l-.051 16.904-.051 16.904-4.241 2.668c-2.333 1.468-5.442 4.577-6.91 6.91l-2.668 4.24-20.702.052c-18.98.045-20.993-.178-24.196-2.697zm87.299-1.612c-1.472-2.342-4.903-5.7-7.624-7.463l-4.947-3.205v-32.7h163.812l5.596 16.957c6.644 20.131 6.95 24.21 2.103 28.023-3.444 2.71-4.57 2.747-79.878 2.697l-76.386-.051zm-87.299-62.026c-4.49-3.531-4.535-8.309-.2-21.05l3.291-9.68-3.292-3.913c-4.913-5.838-4.653-15.4.577-21.254l3.868-4.33h237.752l3.868 4.33c5.084 5.69 5.325 13.704.62 20.637l-3.248 4.787 3.248 9.55c4.29 12.615 4.235 17.4-.244 20.923-3.451 2.714-4.52 2.748-87.503 2.748h-84.008V49.537h-15.91v31.819h-27.663c-25.978 0-27.875-.167-31.156-2.748z" style="fill:#fff;stroke-width:1.32579" transform="translate(125.75 -18.376)"/></svg>