<svg xmlns="http://www.w3.org/2000/svg" width="960.443" height="959.659" viewBox="0 0 254.117 253.91"><path d="M-113.14 256.983c-8.373-3.5-13.977-13.077-12.298-21.015.49-2.319 9.121-19.597 19.179-38.396 13.863-25.913 19.137-34.62 21.805-36 1.935-1 22.42-4.172 45.524-7.047 49.54-6.166 47.848-5.843 47.848-9.122 0-3.28 1.692-2.957-47.848-9.123-23.333-2.903-43.584-6.043-45.556-7.063-2.703-1.398-7.993-10.1-22.178-36.48-16.338-30.382-18.64-35.41-18.72-40.883-.1-6.762 2.373-11.26 8.848-16.094 8.04-6.003 6.87-6.42 125.343 44.76 85.388 36.888 110.555 48.281 113.88 51.554 7.497 7.378 7.498 19.278.001 26.657-3.328 3.277-28.352 14.59-113.74 51.42-60.21 25.97-111.58 47.437-114.157 47.704-2.577.267-6.146-.126-7.931-.872z" style="fill:#fff;stroke-width:1.29849" transform="translate(125.75 -18.376)"/></svg>