<svg xmlns="http://www.w3.org/2000/svg" width="193.002" height="191.788" viewBox="0 0 51.065 50.744"><path fill="#fff" d="M1.763 48.92C.793 47.916 0 46.956 0 46.788c0-.313 1.43-1.944 4.44-5.064l1.684-1.746-1.364-3.016c-.75-1.66-1.37-3.295-1.375-3.636-.015-.782 2.328-3.217 3.095-3.217.3 0 1.136.519 1.856 1.153l1.31 1.153c4.971-4.596-.093.052 5.119-4.622 3.158 2.776 5.361 5.113 8.55 8.307l-4.821 5.095 1.204 1.479c.662.813 1.204 1.6 1.204 1.748 0 .498-2.716 3.15-3.227 3.15-.277 0-1.903-.633-3.613-1.406l-3.108-1.405-3.138 2.992c-2.03 1.937-3.34 2.993-3.714 2.993-.366 0-1.22-.666-2.339-1.826zm41.761-1.084c-1.596-1.6-3.082-2.909-3.303-2.906-.22.002-1.696.597-3.278 1.322-1.583.726-3.143 1.32-3.468 1.32-.627 0-3.312-2.606-3.312-3.215 0-.184 3.122-3.465 6.938-7.291 4.738-4.75 7.118-6.957 7.502-6.957.572 0 3.287 2.612 3.287 3.163 0 .156-.674 1.775-1.498 3.597l-1.498 3.314 3.086 3.123c1.696 1.718 3.085 3.273 3.085 3.456 0 .583-3.486 3.984-4.083 3.984-.356 0-1.602-1.048-3.458-2.91zM1.735 9.604C1.633 9.313 1.2 7.358.774 5.259.059 1.74.03 1.395.412.813c.227-.347.605-.704.84-.794.462-.177 7.802 1.16 8.67 1.58.291.14 6.988 6.7 14.882 14.58l14.353 14.323-4.163 4.17c-2.29 2.292-4.224 4.169-4.3 4.169C1.862 9.754 30.72 38.8 1.737 9.605zm30.211 9.192-4.164-4.17 6.416-6.386c3.529-3.512 6.654-6.5 6.945-6.641.867-.42 8.208-1.757 8.67-1.58.235.09.613.447.84.793.38.581.349.945-.407 4.71-.451 2.247-1.05 4.46-1.334 4.924-.514.841-12.29 12.52-12.626 12.52-.097 0-2.05-1.877-4.34-4.17z"/></svg>