<svg xmlns="http://www.w3.org/2000/svg" width="192.086" height="191.883" viewBox="0 0 50.823 50.769"><path d="M-83.015 142.766c-9.504-1.755-17.476-8.997-19.959-18.13-3.71-13.648 3.97-27.35 17.578-31.363 4.241-1.251 11.09-1.175 14.608.163l.701.266-1.917 1.93-1.917 1.93-1.504-.247c-1.937-.318-6.35-.064-8.374.482-6.188 1.67-11.392 6.301-13.813 12.296-2.355 5.83-1.772 12.82 1.539 18.448 1.235 2.1 4.75 5.566 6.973 6.877 3.77 2.225 8.758 3.3 12.851 2.77 4.802-.622 8.399-2.28 11.786-5.436 4.968-4.626 7.22-11.022 6.354-18.039l-.196-1.587 1.859-1.838c1.022-1.01 1.917-1.78 1.988-1.708.288.288.97 3.432 1.242 5.723.51 4.311-.463 9.687-2.482 13.698-2.506 4.98-6.456 8.93-11.492 11.489-4.675 2.375-10.641 3.234-15.825 2.276zm1.059-9.525c-7.238-1.585-12.36-8.002-12.36-15.485 0-5.42 2.524-10.156 7.015-13.16 2.858-1.911 5.16-2.574 8.96-2.579 1.698-.002 3.149.058 3.223.132.075.075.312 1.147.526 2.382.478 2.757.355 2.988-1.33 2.48-2.44-.733-5.804-.302-8.092 1.04-1.625.951-3.813 3.38-4.633 5.14-.632 1.358-.71 1.837-.713 4.433-.005 2.727.048 3.022.838 4.69 1.62 3.417 4.522 5.653 8.24 6.344 3.458.643 7.266-.67 9.842-3.394 2.389-2.525 3.417-5.95 2.86-9.528-.15-.957-.17-1.836-.048-1.953.303-.29 4.257.36 4.663.766.218.218.315 1.245.298 3.154-.022 2.412-.142 3.166-.81 5.092-.972 2.804-2.31 4.849-4.416 6.755-3.718 3.365-9.102 4.778-14.063 3.691zm2.132-13.668c-1.02-.801-1.284-1.655-.835-2.69.203-.465 2.405-2.87 4.893-5.342 3.466-3.442 4.525-4.65 4.524-5.16 0-.364-.18-1.693-.4-2.95-.299-1.704-.329-2.48-.119-3.043.155-.416 1.614-2.095 3.241-3.732 2.957-2.975 3.64-3.382 4.626-2.756.184.117.907 1.57 1.608 3.229l1.273 3.016 2.993 1.203c3.132 1.26 3.895 1.888 3.62 2.98-.224.895-5.974 6.468-6.916 6.704-.453.114-1.934.01-3.524-.245l-2.743-.441-5.115 4.895c-5.478 5.242-5.755 5.411-7.126 4.332z" style="fill:#fff;stroke-width:.264583" transform="translate(103.905 -92.382)"/></svg>