<?xml version="1.0" encoding="UTF-8" standalone="no"?>
<!-- Created with Inkscape (http://www.inkscape.org/) -->

<svg
   version="1.1"
   id="svg390"
   width="1476.2599"
   height="1476.4956"
   viewBox="0 0 1476.2599 1476.4956"
   sodipodiDocname="coin.svg"
   inkscapeVersion="1.2.2 (b0a8486541, 2022-12-01, custom)"
   xmlnsInkscape="http://www.inkscape.org/namespaces/inkscape"
   xmlnsSodipodi="http://sodipodi.sourceforge.net/DTD/sodipodi-0.dtd"
   xmlns="http://www.w3.org/2000/svg"
   xmlnsSvg="http://www.w3.org/2000/svg">
  <defs
     id="defs394" />
  <sodipodiNamedview
     id="namedview392"
     pagecolor="#505050"
     bordercolor="#eeeeee"
     borderopacity="1"
     inkscapeShowpageshadow="0"
     inkscapePageopacity="0"
     inkscapePagecheckerboard="0"
     inkscapeDeskcolor="#505050"
     showgrid="false"
     inkscapeZoom="0.16975627"
     inkscapeCx="-235.63194"
     inkscapeCy="1110.4155"
     inkscapeWindow-width="1590"
     inkscapeWindow-height="864"
     inkscapeWindow-x="1280"
     inkscapeWindow-y="0"
     inkscapeWindow-maximized="1"
     inkscapeCurrent-layer="g396" />
  <g
     inkscapeGroupmode="layer"
     inkscapeLabel="Image"
     id="g396"
     transform="translate(-264.98989,-211.76795)">
    <g
       id="g408"
       transform="translate(22.464156,7.6421176)">
      <path
         style="fill:#fef3c7;stroke-width:0.96"
         d="M 947.04,1680.3656 C 760.72267,1671.937 587.08658,1594.8994 455.83315,1462.4306 350.06181,1355.6798 280.33212,1222.2452 253.87714,1075.9678 c -8.5636,-47.3506 -11.32878,-79.92719 -11.35118,-133.7278 -0.0181,-43.46013 1.04983,-61.7219 5.69811,-97.44 C 269.17722,683.79283 342.89456,534.57329 458.49608,419.16477 564.81968,313.01869 702.21886,241.08446 848.16,215.15936 c 46.46139,-8.25345 80.10252,-11.0552 132.48,-11.0334 64.9052,0.027 108.6272,4.82412 168.7132,18.51089 148.6705,33.86514 288.5593,118.36237 389.5388,235.29362 88.5684,102.55952 146.3659,223.65011 169.3059,354.70953 8.0219,45.83041 10.558,76.75848 10.5873,129.12 0.024,43.59034 -1.0018,61.3649 -5.6386,97.6468 -24.2179,189.5035 -123.9084,364.5012 -275.5466,483.6978 -115.1023,90.4772 -248.9948,143.0474 -396,155.4813 -16.8709,1.427 -77.24064,2.5631 -94.56,1.7797 z"
         id="path420" />
      <path
         style="fill:#fdd883;stroke-width:0.96"
         d="M 948,1679.4062 C 762.59895,1671.0019 590.18439,1595.0078 459.00017,1463.8728 404.17793,1409.0712 359.65075,1348.1214 323.7359,1278.72 c -4.78165,-9.24 -10.7164,-21.336 -13.18834,-26.88 -2.47193,-5.544 -5.58127,-12.456 -6.90962,-15.36 -1.32836,-2.904 -5.55795,-13.272 -9.39909,-23.04 -26.89189,-68.386 -42.85737,-137.4582 -49.11831,-212.503 -2.26749,-27.17866 -2.27281,-90.71748 -0.01,-117.257 6.57786,-77.14012 23.08486,-147.82944 50.4986,-216.25356 C 370.52885,480.42835 521.95703,329.81671 709.44,255.82703 c 67.78192,-26.74996 136.5085,-42.62465 212.64,-49.11631 26.59167,-2.26744 90.0742,-2.25778 117.3603,0.0179 111.8668,9.32961 214.874,41.31307 309.8632,96.21169 188.9705,109.21474 320.5172,296.8905 357.9344,510.65973 7.9707,45.53739 10.5536,76.81531 10.5834,128.16 0.025,42.55939 -1.0299,60.65466 -5.6347,96.68676 -21.2146,166.0022 -100.4296,321.8426 -222.6059,437.9341 -123.7946,117.6294 -278.1829,186.8351 -448.9407,201.2412 -16.8622,1.4225 -75.64349,2.5546 -92.64,1.7841 z m 69.6,-79.6211 c 133.782,-10.7103 257.8074,-68.3872 354.4115,-164.8159 50.6459,-50.554 89.8757,-108.1391 119.8517,-175.9292 9.8395,-22.2516 13.1059,-32.16 10.6022,-32.16 -1.2246,0 -3.4314,3.3418 -11.094,16.8 -5.9285,10.4124 -9.993,16.9593 -20.5603,33.1167 -15.128,23.1306 -41.7331,56.4581 -62.3455,78.0984 -68.2782,71.6831 -148.3844,122.9042 -242.8547,155.2848 -14.1355,4.8452 -16.9219,5.6593 -40.0109,11.6916 -58.7078,15.338 -117.1128,21.1304 -181.05925,17.9567 -10.76942,-0.5344 -22.60475,-1.401 -26.30075,-1.9257 -3.696,-0.5246 -11.04,-1.387 -16.32,-1.9164 -5.28,-0.5295 -13.056,-1.5855 -17.28,-2.3466 -4.224,-0.7613 -11.568,-2.0792 -16.32,-2.9286 -24.95547,-4.4611 -52.53618,-11.7282 -80.16,-21.121 -38.78694,-13.1886 -70.98347,-27.5854 -104.64,-46.7904 -81.40085,-46.4486 -154.67628,-115.9917 -205.08586,-194.6395 -27.81131,-43.3906 -47.43274,-84.3978 -64.29744,-134.3767 -9.53678,-28.2625 -11.31399,-28.3863 -6.183,-0.4309 9.17927,50.0117 21.26192,89.2368 40.78602,132.4076 37.5713,83.0759 94.50928,156.4177 164.70028,212.1502 34.83708,27.6611 66.4645,47.5268 107.61185,67.593 65.76133,32.0698 131.08742,49.5002 205.34815,54.7915 28.45001,2.0271 61.84522,1.8405 91.2,-0.5096 z"
         id="path418" />
      <path
         style="fill:#fdcb4c;stroke-width:0.96"
         d="M 948.96,1678.447 C 806.24581,1671.9649 670.16332,1625.2698 553.92,1542.8938 499.36992,1504.2368 442.14251,1449.4698 399.75808,1395.36 310.9613,1281.9981 258.28726,1146.4758 246.08292,999.97699 243.82536,972.87763 243.82006,911.09901 246.07303,884.64 255.74968,770.99646 287.42268,669.4146 343.48927,572.20601 405.77686,464.21138 502.57246,367.41548 610.56,305.13444 c 97.3053,-56.12012 198.8251,-87.78379 312.48,-97.46141 26.51076,-2.25738 88.2335,-2.24779 115.4403,0.0179 123.4562,10.28111 237.4522,48.66581 340.5597,114.67304 96.2035,61.58751 183.1797,152.78554 239.3256,250.94273 56.2002,98.25225 86.7438,196.31506 96.8212,310.85328 2.3303,26.48664 2.3406,88.9823 0.019,115.88672 -10.7519,124.6034 -47.985,235.5737 -113.7712,339.0864 -54.971,86.4953 -136.8528,168.5152 -222.9191,223.2952 -103.6802,65.991 -216.1488,103.9068 -338.8355,114.2298 -16.8507,1.4178 -74.05508,2.5458 -90.72001,1.7889 z m 62.4,-76.2983 c 103.5188,-7.1464 205.7235,-44.1409 289.92,-104.9409 75.7605,-54.7082 137.605,-126.9991 178.4935,-208.6438 12.9947,-25.9474 25.9942,-57.0029 25.3219,-60.4937 -0.2021,-1.0493 -1.2031,-1.6703 -2.6924,-1.6703 -2.0541,0 -3.5975,2.1156 -11.5554,15.84 -29.3153,50.5573 -63.1973,93.5654 -105.3245,133.6936 -64.0711,61.0309 -135.075,103.8786 -220.8722,133.2863 -14.1355,4.8452 -16.9219,5.6593 -40.0109,11.6916 -58.4182,15.2624 -116.374,21.0718 -179.13925,17.9567 -10.76942,-0.5344 -22.60475,-1.401 -26.30075,-1.9257 -3.696,-0.5246 -11.04,-1.387 -16.32,-1.9164 -5.28,-0.5295 -13.164,-1.6069 -17.52,-2.3944 -4.356,-0.7874 -11.7,-2.1052 -16.32,-2.9285 -41.10767,-7.3251 -92.24676,-23.3392 -133.2,-41.711 -45.57739,-20.4462 -87.82419,-46.2243 -126.72196,-77.3227 -49.89645,-39.8917 -96.66682,-91.4552 -129.69787,-142.9895 -26.98912,-42.1078 -46.95279,-83.8691 -63.79006,-133.44 -6.32373,-18.6179 -7.81166,-22.1282 -9.4892,-22.3873 -1.20306,-0.1859 -2.24075,0.3474 -2.62514,1.3491 -1.35697,3.5362 8.89747,53.5872 15.91469,77.6782 20.81039,71.4446 53.95547,135.8608 100.27468,194.88 11.14492,14.2007 31.11688,36.5435 45.8337,51.2746 82.81,82.8902 189.27828,138.2756 304.70116,158.5073 22.01421,3.8587 57.97021,7.3627 82.08,7.999 14.90246,0.3933 42.65674,-0.2612 59.04,-1.3922 z m 162.72,-390.1491 c 20.0638,-3.7842 29.6064,-8.3559 51.6882,-24.7636 13.7217,-10.1956 20.3993,-16.1126 44.2232,-39.1868 l 18.6314,-18.045 -0.6621,-89.5621 c -0.9186,-124.25257 -2.4171,-231.71734 -3.4779,-249.4021 -0.491,-8.184 -1.3768,-28.488 -1.9688,-45.12 -1.0977,-30.8483 -1.3792,-34.57043 -2.6123,-34.54622 -0.386,0.008 -7.3977,6.26495 -15.5817,13.90527 -36.5997,34.16839 -52.9781,46.75778 -75.3852,57.94572 -19.5135,9.74324 -34.2696,13.58055 -52.1806,13.56957 -39.4503,-0.0242 -88.9912,-18.85099 -172.9142,-65.71187 -85.04099,-47.48511 -114.00037,-59.43956 -152.65782,-63.01718 -23.18831,-2.14601 -46.4649,0.24519 -66.32997,6.81405 -28.87234,9.54733 -51.58173,26.01437 -80.17196,58.1343 -7.852,8.82141 -14.86766,16.88309 -15.59034,17.91486 -1.1057,1.57861 -1.21966,30.05111 -0.71901,179.63372 0.63093,188.50618 1.19833,239.67778 2.65756,239.67778 1.28532,0 10.46235,-6.9705 13.29154,-10.0956 1.32,-1.4581 8.448,-7.7731 15.84,-14.0332 7.392,-6.2602 17.64045,-15.2347 22.77433,-19.9434 19.21633,-17.6247 35.21576,-27.6216 54.55258,-34.086 14.18253,-4.7413 24.81597,-6.4301 44.19541,-7.019 27.47477,-0.8351 40.30956,1.5211 64.61491,11.8617 16.13249,6.8634 69.06677,33.3363 125.86277,62.9449 24.816,12.937 51.384,26.3458 59.04,29.7974 29.638,13.3619 56.1143,21.1848 80.64,23.8263 10.2617,1.1051 32.6607,0.3132 42.24,-1.4935 z"
         id="path416" />
      <path
         style="fill:#fcb84a;stroke-width:0.96"
         d="m 940.32,1537.8251 c -8.448,-0.4233 -18.6,-1.223 -22.56,-1.7771 -3.96,-0.5541 -11.52,-1.4434 -16.8,-1.976 -5.28,-0.5327 -13.164,-1.6128 -17.52,-2.4003 -4.356,-0.7874 -11.7,-2.1052 -16.32,-2.9285 -4.62,-0.8233 -13.152,-2.559 -18.96,-3.8573 -87.28578,-19.5106 -169.98274,-59.1967 -240.00196,-115.1764 -88.10881,-70.4421 -153.54133,-163.3686 -190.58728,-270.6695 -3.09899,-8.976 -6.32863,-18.7827 -7.17697,-21.7926 -1.07205,-3.8036 -2.12818,-5.6584 -3.46311,-6.0821 -2.50958,-0.7965 -3.09943,-2.4826 -8.14971,-23.2965 -18.56167,-76.4986 -21.7948,-162.61754 -8.89115,-236.8288 1.10169,-6.336 2.37315,-13.896 2.82548,-16.8 4.13513,-26.54805 17.32111,-72.55428 30.06785,-104.90753 C 471.733,605.09 561.2056,500.68412 676.80261,432.91634 735.25293,398.65033 804.32116,372.92435 867.36,361.93907 c 6.336,-1.10413 12.168,-2.19201 12.96,-2.41752 2.93548,-0.83583 41.2343,-5.27065 53.71189,-6.21959 30.30741,-2.30491 84.57011,-0.94385 116.20811,2.91482 119.2401,14.54287 230.2516,64.25422 320.64,143.58372 38.0788,33.41988 75.8099,76.74443 103.1482,118.4395 11.8119,18.01503 13.157,20.10269 14.536,22.56 0.5925,1.056 3.345,5.808 6.1166,10.56 16.7093,28.64854 34.0446,66.90943 46.1057,101.76 4.9739,14.37214 12.4756,39.80109 13.5034,45.77321 0.4253,2.47127 1.4441,7.00727 2.264,10.08 2.6199,9.81889 5.1555,21.68261 6.3233,29.58679 0.6242,4.224 1.7084,10.272 2.4095,13.44 0.7012,3.168 1.5492,8.568 1.8845,12 0.3353,3.432 1.2231,10.776 1.9729,16.32 3.9394,29.13023 4.5813,85.15027 1.3702,119.56992 -2.755,29.53048 -5.0473,44.91868 -10.646,71.47008 -8.7103,41.3069 -19.9146,75.7956 -38.0488,117.12 -10.5891,24.1308 -17.028,36.1535 -19.7249,36.8304 -1.61,0.4041 -4.5645,4.6743 -11.1529,16.12 -53.6284,93.1657 -129.0171,168.1724 -222.3017,221.1753 -21.2494,12.0736 -56.2992,28.4843 -81.7707,38.2859 -21.2247,8.1673 -35.1573,12.5511 -62.2293,19.5795 -57.7179,14.9849 -118.1123,20.671 -184.32,17.354 z m 235.6091,-325.8274 c 28.763,-5.6033 47.4865,-18.4807 97.2834,-66.9079 l 16.0924,-15.6498 -0.01,-31.68 c -0.014,-56.0509 -1.9111,-234.95146 -2.9114,-274.56 -0.5335,-21.12 -1.3953,-43.152 -1.9151,-48.96 -0.5199,-5.808 -1.1721,-18.336 -1.4494,-27.84 -0.6968,-23.87617 -1.4533,-34.94654 -2.4292,-35.54974 -0.9288,-0.57402 -10.1557,7.40039 -27.3119,23.60471 -26.4721,25.00324 -43.886,38.05854 -64.4395,48.31069 -18.8899,9.4224 -33.4636,13.07902 -52.0863,13.06868 -40.285,-0.0224 -88.3198,-18.08422 -171.47423,-64.47713 -77.83639,-43.42589 -107.17403,-56.53389 -139.68,-62.40874 -15.10302,-2.72959 -45.03273,-2.95348 -59.04,-0.44164 -27.93397,5.00921 -55.1851,18.75607 -78.72,39.71036 -8.13071,7.23918 -34.38691,35.54987 -38.81953,41.85707 -1.18612,1.68773 -1.35619,21.82403 -1.21303,143.62434 0.19073,162.288 1.24788,275.9967 2.5783,277.3272 0.7483,0.7482 5.22875,-2.6313 14.22269,-10.7279 4.77638,-4.2999 12.91998,-11.4899 18.09692,-15.9779 5.17693,-4.488 13.58184,-11.9531 18.67756,-16.589 35.66962,-32.451 67.35867,-44.3559 113.54794,-42.6575 26.92047,0.9899 39.14994,5.3029 96.99574,34.208 18.78438,9.3864 54.45741,27.6509 79.27341,40.5879 24.81603,12.937 51.38403,26.3458 59.04003,29.7974 29.9745,13.5137 55.9141,21.2698 79.68,23.8248 10.7797,1.159 36.714,0.3168 46.009,-1.4939 z"
         id="path414" />
      <path
         style="fill:#fdaa31;stroke-width:0.96"
         d="m 940.32,1536.8651 c -8.448,-0.4233 -18.6,-1.223 -22.56,-1.7771 -3.96,-0.5541 -11.52,-1.4434 -16.8,-1.976 -5.28,-0.5327 -13.164,-1.6128 -17.52,-2.4003 -4.356,-0.7874 -11.7,-2.1052 -16.32,-2.9285 -72.21512,-12.8684 -147.91887,-43.499 -214.32,-86.7165 -100.78004,-65.5933 -181.12884,-164.8483 -225.84503,-278.9867 -5.41717,-13.8274 -14.17673,-39.1058 -16.04527,-46.3037 -0.5802,-2.235 -1.86816,-4.4989 -2.86212,-5.0309 -2.25681,-1.2077 -3.79632,-5.8656 -8.71722,-26.3738 -18.11204,-75.4834 -21.18056,-159.63035 -8.43869,-231.4116 1.12469,-6.336 2.16976,-13.896 2.32235,-16.8 0.1526,-2.904 0.69096,-7.224 1.19637,-9.6 11.31408,-53.18962 30.67458,-108.00419 53.51275,-151.5084 54.17128,-103.19039 132.36144,-185.04285 232.85367,-243.76017 55.80581,-32.60716 126.14486,-58.48566 188.50319,-69.35236 6.336,-1.10413 12.168,-2.19201 12.96,-2.41752 2.93548,-0.83583 41.2343,-5.27065 53.71189,-6.21959 29.72526,-2.26062 80.79551,-0.93587 112.36811,2.91482 174.3188,21.26043 328.9644,116.95113 425.7826,263.46322 24.4517,37.00216 40.4692,67.38078 55.6788,105.6 10.9297,27.46458 23.9406,68.09676 23.67,73.92 -0.074,1.584 0.7096,6.12 1.7405,10.08 3.1673,12.1658 5.538,23.16401 6.7253,31.2 0.6242,4.224 1.7084,10.272 2.4095,13.44 0.7012,3.168 1.5492,8.568 1.8845,12 0.3353,3.432 1.2231,10.776 1.9729,16.32 3.9224,29.00444 4.5461,81.68774 1.3702,115.72992 -2.755,29.53048 -5.0473,44.91868 -10.646,71.47008 -8.8085,41.7727 -20.5919,78.0636 -38.8073,119.52 -10.1811,23.1712 -16.1833,34.4777 -18.979,35.7515 -1.5314,0.6978 -5.1844,6.0564 -10.7523,15.7727 -7.6202,13.2976 -11.6242,19.7771 -22.4386,36.3125 -1.8981,2.9022 -6.7026,9.8142 -10.6767,15.36 -67.421,94.0851 -159.9427,165.18 -270.3851,207.7678 -21.0864,8.1311 -35.1252,12.5498 -62.2293,19.5866 -57.7179,14.9849 -118.1123,20.671 -184.32,17.354 z m 234.72,-323.9099 c 11.8821,-2.2739 17.8802,-4.1435 25.44,-7.9294 17.4819,-8.7549 34.567,-22.3576 66.1338,-52.6538 l 23.8939,-22.932 -0.6488,-89.76 c -0.9315,-128.85819 -2.3583,-230.18975 -3.5143,-249.6 -0.5504,-9.24 -1.5293,-30.624 -2.1754,-47.52 -0.6459,-16.896 -1.5139,-31.26 -1.9285,-31.92 -1.8036,-2.87059 -2.1236,-2.63513 -23.0309,16.95139 -30.7435,28.80145 -50.527,43.83801 -71.3292,54.21427 -29.2282,14.57914 -52.7106,16.6387 -89.2803,7.83046 -32.0136,-7.71085 -72.3982,-25.78534 -132.3603,-59.23891 -77.82372,-43.41882 -107.1394,-56.51805 -139.68,-62.41367 -15.16754,-2.74801 -46.85131,-2.9772 -60.96,-0.44095 -27.95893,5.02604 -55.18886,18.76366 -78.72,39.7146 -8.13757,7.24528 -34.38839,35.55189 -38.82682,41.86747 -1.19653,1.70258 -1.35488,21.47546 -1.15404,144.10434 0.12802,78.17206 0.63402,170.211 1.12443,204.531 0.4904,34.32 0.90173,64.8378 0.91404,67.8173 0.0326,7.864 1.41745,7.8129 10.985,-0.4051 4.43879,-3.8127 12.09053,-10.3882 17.00389,-14.6122 4.91335,-4.224 13.0509,-11.5376 18.08343,-16.2523 40.11027,-37.5778 69.92649,-49.7054 118.59007,-48.2358 22.36693,0.6755 31.86522,2.9538 56.55752,13.5668 14.58474,6.2687 64.48698,31.32 119.60248,60.0415 25.608,13.3447 52.176,26.845 59.04,30.0008 30.8386,14.1781 56.9928,22.0714 82.08,24.7715 10.4943,1.1295 34.7273,0.3079 44.16,-1.4973 z"
         id="path412" />
      <path
         style="fill:#f38f0b;stroke-width:0.96"
         d="m 1129.92,1249.0125 c -24.4987,-2.6367 -50.9331,-10.4437 -80.64,-23.8159 -7.656,-3.4463 -34.656,-17.069 -60,-30.2729 -57.88605,-30.1578 -108.8453,-55.6476 -124.93956,-62.4948 -22.40037,-9.5301 -34.67251,-12.1089 -57.62609,-12.1089 -44.44404,0 -73.22046,12.368 -110.72209,47.5877 -5.02026,4.7147 -11.49877,10.5163 -14.3967,12.8923 -2.89792,2.376 -10.45348,8.9826 -16.79013,14.6814 -6.33665,5.6988 -12.53069,10.6148 -13.76455,10.9245 -4.90193,1.2303 -4.75009,3.1445 -5.95266,-75.0459 -0.61716,-40.128 -1.16146,-74.04 -1.20956,-75.36 -0.0481,-1.32 -0.005,-63.22954 0.0969,-137.57666 0.12448,-91.25675 0.50132,-134.98077 1.15987,-134.57378 0.65275,0.40342 0.96492,41.63098 0.94359,124.61666 -0.0395,153.72008 1.339,261.60328 3.36867,263.63288 1.20298,1.203 1.97684,0.9627 5.96725,-1.8529 2.52176,-1.7793 7.82501,-6.2948 11.78501,-10.0344 3.96,-3.7395 10.44,-9.3756 14.4,-12.5247 3.96,-3.1491 11.304,-9.5853 16.32,-14.3028 19.21855,-18.075 37.0698,-30.7207 50.89089,-36.0506 21.64747,-8.3482 38.85851,-11.0849 64.78911,-10.3018 22.36693,0.6755 31.86522,2.9538 56.55752,13.5668 14.58474,6.2687 64.48698,31.32 119.60248,60.0415 62.43885,32.5377 79.49315,40.2574 104.91965,47.4924 20.5846,5.8573 32.4029,7.5524 53.0004,7.6018 31.2244,0.075 45.8458,-4.0064 68.64,-19.1598 14.7707,-9.8194 27.9258,-20.9362 50.88,-42.9964 11.88,-11.4172 21.924,-20.763 22.32,-20.7684 0.396,-0.01 0.72,7.0498 0.72,15.6781 v 15.6879 l -23.28,22.3624 c -24.5619,23.5937 -37.5837,34.642 -52.56,44.5938 -15.0362,9.9917 -22.3431,12.9618 -40.32,16.3891 -9.4439,1.8004 -33.6826,2.6191 -44.16,1.4914 z M 395.99874,827.04 c 0.35018,-2.64 1.01865,-6.096 1.48548,-7.68 0.46683,-1.584 1.68649,-6.768 2.71037,-11.52 4.18358,-19.41682 14.66128,-53.06567 23.54915,-75.62753 52.9436,-134.39722 151.34474,-244.28897 278.49626,-311.0171 52.13321,-27.3591 111.60827,-48.01124 165.12,-57.3363 6.336,-1.10413 12.168,-2.19201 12.96,-2.41752 2.93548,-0.83583 41.2343,-5.27065 53.71189,-6.21959 30.30741,-2.30491 84.57011,-0.94385 116.20811,2.91482 108.0369,13.17649 206.9197,54.3955 294.72,122.853 47.8396,37.30037 93.7342,87.23857 127.4601,138.69022 14.3241,21.85285 13.8445,21.08709 20.1459,32.16 14.6623,25.76505 27.4132,52.34673 37.9912,79.2 9.4982,24.11242 19.977,57.30581 18.5433,58.73947 -0.2385,0.23857 -3.555,-5.75221 -7.37,-13.31286 -19.1215,-37.89625 -41.5229,-72.91122 -68.2268,-106.64313 -63.0728,-79.67289 -142.6976,-141.72394 -236.0637,-183.9628 -13.2686,-6.00272 -14.8416,-6.67106 -24,-10.197 -5.016,-1.93114 -11.712,-4.52404 -14.88,-5.762 -7.9042,-3.08871 -30.0395,-10.37233 -39.36,-12.9514 -4.224,-1.16882 -10.272,-2.90507 -13.44,-3.85833 -3.168,-0.95326 -9.864,-2.68067 -14.88,-3.83869 -5.016,-1.15801 -11.712,-2.72942 -14.88,-3.49202 -6.5816,-1.58432 -15.2105,-3.18963 -35.04,-6.51875 -52.8948,-8.88037 -121.70751,-10.1886 -175.68,-3.33991 -38.66953,4.90687 -69.11748,11.28712 -106.56,22.32925 -18.14474,5.35105 -57.4594,19.94173 -71.52,26.54292 -27.13097,12.73749 -43.25891,21.0422 -63.42308,32.65828 -90.65696,52.22519 -174.30635,136.86788 -227.7031,230.40697 -12.05337,21.11478 -31.53137,61.56204 -37.21537,77.28 -2.48278,6.86564 -3.61671,7.62695 -2.85971,1.92 z"
         id="path410" />
    </g>
  </g>
</svg>
