<svg xmlns="http://www.w3.org/2000/svg" xmlns:xlink="http://www.w3.org/1999/xlink" width="900" height="600" viewBox="0 0 630 420"><defs><g id="c"><clipPath id="a"><path d="M-109 104a104 104 0 0 0 0-208h218a104 104 0 0 0 0 208z"/></clipPath><path id="b" d="M-54 74a54 54 0 0 1 108 0V-74a54 54 0 0 1-108 0z" clip-path="url(#a)"/><use xlink:href="#b" transform="rotate(90)"/></g></defs><path fill="#fff" d="M0 0h630v420H0z"/><path stroke="#2c5aa0" stroke-dasharray="60,60" stroke-width="630" d="M315 0v420"/><path fill="#fff" d="M0 0h270v200H0z"/><g fill="red" transform="scale(.9)"><path d="M130 0h40v200h-40zM0 80h300v40H0z"/><g id="d"><use xlink:href="#c" x="65" y="40"/><use xlink:href="#c" x="235" y="40"/></g><use xlink:href="#d" y="120"/></g></svg>