<svg xmlns="http://www.w3.org/2000/svg" viewBox="0 0 640 480"><path fill="#00993e" d="M-11.8 0h738.105v480.089H-11.8z" style="stroke-width:1.40308"/><g fill="#fff"><path d="M-11.8 68.584h738.105v68.584H-11.8zM-11.8 205.752h738.105v68.584H-11.8zM-11.8 342.921h738.105v68.584H-11.8z"/></g><path fill="#c8312a" d="M-.329 0H259.03v205.752H-.329z" style="stroke-width:1.34922"/><g fill="#fff"><path d="M106.73 114.935s-2.418 1.317-.762 26.42c1.352 20.66 7.011 27.392 7.011 27.392l2.471 12.79 23.443.124s.424-7.92 1.332-10.424c2.23-6.154 11.07-13.187 14.86-23.806 4.074-6.474 2.033-19.684 10.21-32.435 4.062-6.333-4.756-3.652-4.756-3.652-4.836 4.172-7.2 9.069-8.418 12.49-.82 6.592-4.613 12.103-4.971 7.317 0 0-1.378-8.277-5.513-24.366-.41-4.77-2.182-21.262-2.561-33.85-.27-8.19-5.78-8.683-6.24-.37l-.666 32.959-1.318-38.065c-.56-10.773-6.825-9.176-7.097-.248l-.269 39.634-1.142-38.42c-1.697-7.338-6.158-2.989-6.24 4.961l-.76 37.383s-.961-20.472-1.178-29.117c-.204-5.2-4.885-4.815-5.326 2.618-.638 10.75-1.64 19.525-2.11 30.665zM121.312 44.76l7.128-28.536 7.128 28.536-18.661-17.635h23.065zM176.74 56.145l-18.66-17.637h23.064l-18.66 17.637 7.127-28.537zM211.964 90.052l-18.66-17.637h23.064l-18.66 17.637 7.127-28.537zM232.37 137.942l-18.66-17.636h23.064l-18.66 17.636 7.128-28.536zM80.14 56.145l18.661-17.637H75.736l18.66 17.637-7.128-28.537ZM44.916 90.052l18.66-17.637H40.512l18.66 17.637-7.128-28.537ZM24.51 137.942l18.66-17.636H20.105l18.66 17.636-7.128-28.536Z"/></g></svg>