<svg xmlns="http://www.w3.org/2000/svg" xmlns:xlink="http://www.w3.org/1999/xlink" width="1500" height="1000" version="1.0"><path d="M9.26-117.284V993.827h1666.666V-117.284z" style="fill:#e4002b" transform="matrix(.9 0 0 .9 -8.333 105.556)"/><path d="M342.593-117.284h1000V993.827h-1000Z" style="fill:#fff" transform="matrix(.9 0 0 .9 -8.333 105.556)"/><g style="fill:#0032a0" transform="matrix(.9 0 0 .9 75.44 59.836)"><path id="a" stroke-miterlimit="4" d="m720 305.677 24.131 75.395 79.162-.348-64.248 46.248 24.794 75.18L720 455.34l-63.839 46.812 24.794-75.18-64.248-46.248 79.162.348z" style="opacity:1;fill-opacity:1;fill-rule:nonzero;stroke:none;stroke-width:1.25;stroke-linecap:square;stroke-linejoin:miter;stroke-miterlimit:4;stroke-dasharray:none;stroke-opacity:1" transform="translate(57.148 -196.471) scale(.9623)"/><use xlink:href="#a" id="b" width="1500" height="1000" x="0" y="0" style="fill-opacity:1;stroke:none" transform="translate(307.225 229.714)"/><use xlink:href="#b" id="c" width="1500" height="1000" x="0" y="0" style="fill-opacity:1;stroke:none" transform="translate(-114.286 364)"/><use xlink:href="#c" id="d" width="1500" height="1000" x="0" y="0" style="fill-opacity:1;stroke:none" transform="translate(-383.714)"/><use xlink:href="#d" width="1500" height="1000" transform="translate(-117.429 -364)"/></g><path d="M795.286 282.026c-30.39 1.082-48.46 38.699-15.232 87.462 15.603 22.898 11.69 56.428-11.664 75.038-75.785 60.393-112.032 89.342-101.769 115.383-.079.209-.153.418-.231.627 26.22 54.809 95.508 94.004 176.774 94.005 81.266 0 150.553-39.196 176.774-94.005-.17-.455-.355-.9-.529-1.354 6.941-26.073-28.141-56.706-99.654-114.656-23.2-18.8-27.234-52.14-11.63-75.038 49.455-72.577-14.776-120.421-64.036-59.938-16.163-19.846-33.961-28.052-48.803-27.524z" style="fill:#0032a0;fill-rule:evenodd" transform="matrix(.9 0 0 .9 -8.333 105.556)"/></svg>