<svg xmlns="http://www.w3.org/2000/svg" xmlns:xlink="http://www.w3.org/1999/xlink" width="900" height="600" viewBox="0 0 238.125 158.75"><g transform="translate(114.42 -64.802)"><path fill="#fff" d="M-114.42 223.552h238.125V64.802H-114.42z"/><path fill="#1e3061" d="M-240.252 473.735h25.801v77.404h-25.801z" style="-inkscape-stroke:none;font-variation-settings:normal;paint-order:fill markers stroke" transform="matrix(-3.69169 0 0 2.05094 -906.106 -906.798)"/><path fill="#fff" d="M-79.513 85.453v10.161l-.006 1.077c0 .284-.012.607-.046.878-.191 1.61-.93 3.01-2.027 4.1a7.074 7.074 0 0 1-4.998 2.067c-1.941 0-3.664-.82-4.952-2.1a7.061 7.061 0 0 1-2.086-4.978V85.427"/><path fill="#e83028" d="M-98.409 96.658v.013c0 3.228 1.34 6.18 3.486 8.312 2.153 2.14 5.117 3.473 8.359 3.473a11.82 11.82 0 0 0 8.359-3.453 11.705 11.705 0 0 0 3.473-8.326V80.712l-23.664-.006zm18.916-11.171v10.161l-.006 1.076c0 .284-.012.608-.046.879-.198 1.61-.937 3.01-2.027 4.1a7.074 7.074 0 0 1-4.998 2.066c-1.941 0-3.664-.818-4.952-2.1a7.061 7.061 0 0 1-2.086-4.978V85.467"/><g fill="#0c2b5c"><path d="M-89.328 94.862v-2.238h-3.116l-.006 2.238c0 .462.178.878.462 1.182a1.51 1.51 0 0 0 1.103.495c.429 0 .818-.192 1.102-.495.284-.297.456-.72.456-1.182zm-2.37-1.697a.31.31 0 1 1 0 .62.31.31 0 0 1 0-.62m.006 2.317a.31.31 0 1 1 0-.62.31.31 0 0 1 0 .62m.82-.865a.31.31 0 1 1-.001-.62.31.31 0 0 1 0 .62m.865.865a.304.304 0 0 1-.304-.31c0-.171.132-.31.304-.31a.31.31 0 1 1 0 .62m0-1.696a.309.309 0 0 1-.304-.31c0-.172.139-.311.304-.311a.31.31 0 1 1 0 .62M-80.691 94.862v-2.238h-3.117l-.006 2.238c0 .462.178.878.462 1.182a1.51 1.51 0 0 0 1.103.495c.429 0 .818-.192 1.102-.495.284-.297.456-.72.456-1.182zm-2.37-1.697a.31.31 0 1 1 0 .62.31.31 0 0 1 0-.62m.006 2.317a.31.31 0 1 1 0-.62c.165 0 .303.145.303.31 0 .172-.138.31-.303.31m.818-.865a.31.31 0 1 1 0-.62.31.31 0 0 1 0 .62m.865.865a.31.31 0 1 1 0-.62.31.31 0 0 1 0 .62m0-1.696a.304.304 0 0 1-.304-.31c0-.172.133-.311.304-.311a.31.31 0 1 1 0 .62M-85.01 94.862v-2.238h-3.116l-.006 2.238c0 .462.178.878.462 1.182a1.51 1.51 0 0 0 1.103.495c.429 0 .818-.191 1.102-.495.284-.297.456-.72.456-1.182zm-2.37-1.697a.31.31 0 1 1 0 .62.31.31 0 0 1 0-.62m.006 2.318a.31.31 0 1 1 0-.62c.166 0 .304.144.304.31 0 .171-.138.31-.304.31m.82-.865a.31.31 0 1 1-.001-.62.31.31 0 0 1 0 .62m.865.865a.31.31 0 1 1 0-.62.31.31 0 0 1 0 .62m0-1.697a.31.31 0 1 1 0-.62.31.31 0 0 1 0 .62M-85.01 100.246v-2.238h-3.116l-.006 2.232v.006c0 .455.178.878.462 1.182a1.51 1.51 0 0 0 1.103.495c.429 0 .818-.192 1.102-.495a1.72 1.72 0 0 0 .456-1.182zm-2.37-1.696c.172 0 .31.138.31.303a.31.31 0 1 1-.62 0c0-.165.139-.303.31-.303m.006 2.317a.31.31 0 1 1 0-.62c.166 0 .304.138.304.31 0 .171-.138.31-.304.31m.82-.871a.31.31 0 0 1-.311-.31c0-.166.139-.304.31-.304.172 0 .31.138.31.303a.31.31 0 0 1-.31.31m.865.866a.309.309 0 0 1-.31-.304.31.31 0 1 1 .62 0 .309.309 0 0 1-.31.304m0-1.697a.31.31 0 0 1-.31-.31c0-.166.139-.304.31-.304.172 0 .31.138.31.303a.31.31 0 0 1-.31.31M-85.01 89.478v-2.239h-3.116l-.006 2.239c0 .462.178.878.462 1.182a1.51 1.51 0 0 0 1.103.495c.429 0 .818-.192 1.102-.495.284-.298.456-.72.456-1.182zm-2.37-1.697a.31.31 0 1 1 0 .62.31.31 0 0 1 0-.62m.006 2.317a.31.31 0 1 1 0-.62c.166 0 .304.138.304.31s-.138.31-.304.31m.82-.865a.31.31 0 1 1-.001-.62.31.31 0 0 1 0 .62m.865.865a.31.31 0 1 1 0-.62.31.31 0 0 1 0 .62m0-1.697a.31.31 0 1 1 0-.62.31.31 0 0 1 0 .62"/></g><path fill="#211e1e" d="M-86.634 108.566c-3.156 0-6.14-1.242-8.405-3.493-2.264-2.252-3.506-5.223-3.506-8.365v-.013l.013-16.018h23.795v16.038c0 3.156-1.241 6.134-3.486 8.372a11.855 11.855 0 0 1-8.412 3.48m-11.779-11.872v.013c0 3.103 1.235 6.04 3.467 8.266 2.245 2.225 5.19 3.453 8.312 3.453a11.72 11.72 0 0 0 8.313-3.433c2.212-2.206 3.44-5.124 3.453-8.227V80.815h-23.525zm11.773 7.177c-1.849 0-3.632-.753-5.005-2.12a7.15 7.15 0 0 1-2.1-5.024l-.006-11.297 14.262.027v10.227l-.006 1.076c0 .297-.021.621-.053.892-.185 1.558-.891 2.984-2.047 4.133a7.103 7.103 0 0 1-5.044 2.086m-6.972-18.302v11.158c0 1.83.752 3.625 2.066 4.926 1.347 1.347 3.09 2.086 4.906 2.086a6.98 6.98 0 0 0 4.952-2.053c1.129-1.123 1.822-2.522 2-4.054a7.39 7.39 0 0 0 .053-.872l.006-1.076V85.596"/><g fill="#f8de35"><path d="M-96.947 84.915c.027-1.149.845-1.42.852-1.426 0 0 .878.29.871 1.433"/><path d="m-97.647 83.509-.145 1.32h.865c.006-1.089.825-1.267.838-1.267.021 0 .832.244.852 1.268h.865l-.152-1.328M-97.851 84.836h3.525l.139.165-.139.158h-3.525l-.132-.158.132-.165"/><path d="M-96.57 84.83c.006-.687.475-.885.475-.885s.488.204.488.885M-97.772 82.968h3.374l.132.145-.132.145h-3.374l-.132-.145.132-.145M-97.706 83.258h3.235l.119.145-.119.146h-3.235l-.119-.146.119-.145M-96.656 81.06h.25v.178h.185v-.185h.265v.185h.184v-.185h.265v.422l-.12.106h-.91l-.12-.112M-96.538 82.954l.898.007-.06-1.34-.778-.007M-95.554 81.713h.251v.185h.185v-.185h.258v.185h.178v-.185h.257v.416l-.112.106h-.898l-.119-.106M-95.395 82.235l-.02.726h.857l-.032-.726M-97.752 81.713h.25v.185h.179v-.185h.257v.185h.179v-.185h.257v.416l-.112.106h-.898l-.113-.106M-97.6 82.235l-.021.726h.858l-.026-.726"/></g><g fill="#211e1e"><path d="M-96.174 82.36h.178v-.317h-.178zM-95.072 82.75h.172v-.245h-.172zM-97.284 82.75h.172v-.245h-.172z"/><path d="m-94.326 84.783-.138-1.182.165-.198-.033-.112.112-.178-.178-.198h-.112l-.02-.627.157-.159v-.468h-.356v.184h-.086v-.184h-.357v.184h-.079v-.184h-.35v.468l.152.152-.02.634h-.126l-.053-1.28h.02l.172-.159v-.469l-.37-.006v.191h-.079v-.184l-.37-.007v.192h-.079v-.185h-.356v.462l.171.165h.007l-.053 1.281h-.132l-.02-.627.158-.158v-.469h-.357v.185h-.08v-.185h-.362v.185h-.08v-.185h-.35v.469l.159.152-.027.634h-.099l-.185.198.113.178-.033.112.165.198-.125 1.182h-.013l-.184.218.184.211h3.526l.185-.21-.185-.219m-.105 0h-.753c-.027-.521-.251-.838-.442-1.01l-.245-.172h1.3zm-1.658-.891-.191.119c-.152.125-.317.363-.337.772h-.257c.032-1.017.785-1.169.785-1.169.007 0 .746.218.8 1.17h-.271c-.021-.661-.496-.892-.529-.892m.43.885h-.852c.02-.529.337-.733.416-.773.086.046.416.244.435.773m.159-2.648v-.363h.152v.178h.284v-.185l.151.006v.178h.284v-.185h.152v.37l-.06.053-.897.006-.066-.06m.89.78h-.752l.02-.621h.707zm-1.927-1.38-.073-.06v-.363h.152v.185h.29v-.185h.159v.185h.29v-.185h.159v.37l-.067.052zm.838 1.38-.785-.007.06-1.235h.673zm-2-.78v-.363h.145v.185h.285v-.185h.151v.185h.284v-.185h.152v.363l-.06.06h-.897l-.06-.06m.878.78h-.746l.02-.621h.707zm-1.03.204.08-.1h3.373l.08.1-.08.092h-3.373l-.08-.092m.08.29.072-.092h3.229l.073.092-.073.093h-3.229l-.072-.093m.165.199h1.274l-.178.118c-.205.165-.456.482-.47 1.063l-.752-.006zm3.281 1.505h-3.526l-.079-.106.08-.112h3.525l.086.112-.086.106"/></g><g fill="#f8de35"><path d="M-87.446 84.915c.027-1.149.845-1.42.852-1.426 0 0 .878.297.871 1.44"/><path d="m-88.146 83.516-.145 1.314.865.006c.006-1.096.825-1.275.845-1.275.012 0 .825.245.852 1.275h.858l-.152-1.334"/><path d="M-88.344 84.836h3.52l.138.165-.139.165h-3.519l-.138-.165.138-.165M-87.063 84.83c0-.687.469-.879.469-.879s.489.198.489.879M-88.271 82.968h3.374l.132.145-.132.145h-3.374l-.132-.145.132-.145M-88.198 83.258h3.228l.12.145-.12.152h-3.228l-.126-.152.126-.145M-87.155 81.06h.25v.184h.186v-.185h.264v.185h.185v-.185h.264v.416l-.12.106h-.91l-.12-.106M-87.036 82.954l.898.007-.06-1.34h-.78M-86.046 81.713h.25v.185h.18v-.185h.257v.185h.185v-.185h.25v.416l-.112.106h-.898l-.112-.106M-85.914 82.961h.858l-.026-.726h-.806M-88.251 81.72h.25v.178h.179v-.185h.257v.185h.179v-.185h.257v.423l-.112.105h-.898l-.112-.112M-88.093 82.241l-.026.72h.858l-.027-.72"/></g><g fill="#211e1e"><path d="M-86.673 82.36h.178v-.317h-.178zM-85.57 82.75h.17v-.245h-.17zM-87.783 82.756h.172v-.25h-.172z"/><path d="m-84.825 84.79-.138-1.189.165-.191-.033-.112.119-.185-.185-.198h-.112l-.02-.627.158-.159v-.469h-.357v.185h-.08v-.185h-.363v.185h-.079v-.185h-.35v.47l.158.151-.026.634h-.125l-.053-1.28h.026l.166-.16v-.468h-.37v.185h-.08v-.185h-.37v.185h-.078v-.185h-.357v.468l.172.159h.006l-.053 1.28h-.132l-.02-.627.158-.158v-.469h-.357v.185h-.079v-.185h-.363v.185h-.08v-.178h-.35v.462l.16.158-.027.628h-.1l-.184.198.112.185-.033.112.165.191-.125 1.189h-.006l-.192.211.192.218h3.519l.185-.218-.185-.211m-.106-.006h-.752c-.027-.522-.251-.832-.443-1.01l-.244-.166h1.3zm-1.657-.885-.191.112c-.146.126-.317.364-.337.78h-.258c.033-1.017.786-1.176.786-1.176.006.006.746.218.799 1.175h-.264c-.027-.666-.495-.89-.535-.89m.43.884h-.853c.021-.535.337-.733.416-.78.086.047.416.245.436.78m.165-2.654v-.363h.146v.184h.284v-.184h.151v.184h.284v-.184h.152v.363l-.06.06h-.897l-.06-.06m.885.779h-.753l.02-.62h.707zm-1.928-1.38-.073-.053v-.363h.152v.179h.29v-.185h.159v.185h.29v-.185h.159v.37l-.06.052zm.845 1.38-.786-.006.053-1.235h.68zm-2.007-.78v-.356h.145v.179h.284v-.185h.152v.185h.284v-.185h.152v.363l-.06.06h-.898l-.06-.06m.879.779h-.746l.02-.62h.707zm-1.03.205.08-.093h3.373l.08.093-.08.092h-3.374l-.08-.092m.08.297.073-.1h3.228l.073.1-.073.092H-88.2l-.073-.092m.165.198h1.275l-.179.119c-.204.165-.455.475-.468 1.056h-.753zm3.282 1.505h-3.52l-.085-.112.086-.112h3.519l.086.112-.086.112"/></g><g fill="#f8de35"><path d="M-78.05 84.922c.026-1.149.845-1.42.851-1.426 0 0 .879.297.872 1.44"/><path d="m-78.75 83.522-.146 1.314.865.006c.007-1.096.826-1.274.846-1.274.012 0 .825.244.851 1.274h.865l-.158-1.333M-78.948 84.843h3.519l.139.165-.14.158h-3.518l-.139-.158.139-.165"/><path d="M-77.667 84.836c0-.687.468-.878.468-.878s.489.198.489.878M-78.876 82.974h3.374l.132.145-.132.146h-3.374l-.132-.146.132-.145M-78.803 83.265h3.229l.125.145-.125.152h-3.229l-.126-.152.126-.145M-77.76 81.066h.251v.185h.185v-.185h.264v.185h.185v-.185h.264v.416l-.112.106h-.918l-.119-.106M-77.641 82.961l.898.006-.06-1.34-.779-.006M-76.65 81.72h.25v.185h.179v-.185h.257v.185h.185v-.185h.251v.416l-.112.112h-.898l-.113-.112M-76.492 82.248l-.027.72h.859l-.027-.72M-78.856 81.726h.251v.178h.178v-.184h.258v.184h.185v-.184h.25v.416l-.105.112h-.904l-.113-.112M-78.697 82.248l-.027.72h.858l-.026-.72"/></g><g fill="#211e1e"><path d="M-77.278 82.367h.178v-.317h-.178zM-76.175 82.756h.171v-.244h-.171zM-78.387 82.763h.171v-.251h-.171z"/><path d="m-75.43 84.796-.138-1.188.165-.198-.033-.106.12-.185-.185-.198h-.106l-.027-.627.159-.158v-.469h-.357v.185h-.08v-.185h-.362v.185h-.08v-.185h-.35v.469l.159.152-.027.634h-.125l-.052-1.281h.026l.165-.158v-.47l-.37-.005v.191h-.079v-.185l-.363-.006v.191h-.086v-.185h-.356v.47l.171.158h.006l-.052 1.28h-.132l-.02-.627.157-.158v-.469h-.356v.185h-.079v-.185h-.363v.185h-.08v-.178h-.35v.462l.159.158-.02.628h-.106l-.185.198.112.184-.033.106.166.198-.126 1.189h-.006l-.192.21.192.219h3.519l.185-.218-.185-.211m-.1-.007h-.758c-.027-.521-.251-.832-.443-1.01l-.244-.171h1.307zm-1.663-.884-.191.112c-.146.125-.317.363-.33.779h-.265c.033-1.017.786-1.175.786-1.175.006.006.753.218.799 1.175h-.264c-.027-.667-.495-.891-.535-.891m.43.878h-.852c.02-.528.336-.727.416-.773.085.047.415.245.435.773m.165-2.648v-.363h.146v.185h.283v-.185h.152v.185h.284v-.185h.152v.363l-.06.06h-.898l-.06-.06m.885.78h-.752l.02-.621h.707zm-1.928-1.38-.066-.053v-.363h.145v.178h.29v-.185h.16v.185h.29v-.185h.158v.37l-.06.052zm.845 1.38-.785-.007.052-1.235.68.007zm-2.007-.78v-.356h.146v.178h.283v-.185h.152v.185h.29v-.185h.153v.363l-.066.06h-.898l-.06-.06m.885.78h-.753l.02-.621h.707zm-1.037.204.08-.093h3.373l.08.093-.08.092h-3.374l-.079-.092m.08.29.072-.092h3.229l.073.092-.073.1h-3.229l-.073-.1m.166.198h1.28l-.184.12c-.205.17-.45.488-.47 1.062l-.752-.006zm3.281 1.512h-3.52l-.085-.112.086-.112h3.52l.085.112-.086.112"/></g><g fill="#f8de35"><path d="M-78.05 94.542c.026-1.149.845-1.42.851-1.426 0 0 .879.297.872 1.432"/><path d="m-78.75 93.136-.146 1.32.865.006c.007-1.096.826-1.274.846-1.274.012 0 .825.244.851 1.274h.865l-.158-1.334M-78.948 94.463h3.519l.139.165-.14.158h-3.518l-.139-.158.139-.165"/><path d="M-77.667 94.456c0-.687.468-.885.468-.885s.489.205.489.885M-78.876 92.594h3.374l.132.145-.132.146h-3.374l-.132-.146.132-.145M-78.803 92.885h3.229l.125.145-.125.152h-3.229l-.126-.152.126-.145M-77.76 90.686h.251v.185h.185v-.192h.264v.192h.185v-.192h.264v.423l-.112.106h-.918l-.119-.113M-77.641 92.58l.898.007-.06-1.34-.779-.006M-76.65 91.34h.25v.185h.179v-.185h.257v.185l.185-.007v-.178h.251v.416l-.112.106h-.898l-.113-.106"/><path d="m-76.492 91.861-.027.727h.859l-.027-.727M-78.856 91.346h.251v.179h.178v-.185h.258v.185h.185v-.185h.25v.416l-.105.112h-.904l-.113-.112M-78.697 91.868l-.027.72h.858l-.026-.72"/></g><g fill="#211e1e"><path d="M-77.278 91.987h.178v-.317h-.178zM-76.175 92.376h.171v-.244h-.171zM-78.387 92.376h.171v-.244h-.171z"/><path d="m-75.43 94.41-.138-1.182.165-.198-.033-.112.12-.179-.185-.198h-.106l-.027-.627.159-.158v-.469h-.357v.185h-.08v-.185h-.362v.185h-.08v-.185h-.35v.469l.159.152-.027.634h-.125l-.052-1.281h.026l.165-.158v-.47l-.37-.005v.185h-.079v-.179l-.363-.006v.185h-.086v-.18h-.356v.463l.171.165h.006l-.052 1.28h-.132l-.02-.626.157-.159v-.469h-.356v.185h-.079v-.185h-.363v.185h-.08v-.178h-.35v.462l.159.159-.02.627h-.106l-.185.198.112.178-.033.112.166.198-.126 1.182h-.006l-.192.218.192.211h3.519l.185-.21-.185-.219m-.1-.006h-.758c-.027-.515-.251-.832-.443-1.003l-.244-.172h1.307zm-1.663-.878-.191.112c-.146.126-.317.363-.33.773h-.265c.033-1.01.786-1.169.786-1.169.006.006.753.218.799 1.169h-.264c-.027-.66-.495-.885-.535-.885m.43.878h-.852c.02-.528.336-.726.416-.772.085.046.415.244.435.772m.165-2.647v-.364h.146v.185h.283v-.191l.152.006v.185h.284v-.191h.152v.37l-.06.052-.898.006-.06-.06m.885.78h-.752l.02-.621h.707zm-1.928-1.38-.066-.06v-.356h.145v.178h.29v-.185h.16v.185h.29v-.185h.158v.37l-.06.052zm.845 1.38-.785-.007.052-1.234h.68zm-2.007-.78V91.4h.146v.178h.283v-.185h.152v.185h.29v-.185h.153v.364l-.066.06h-.898l-.06-.06m.885.779h-.753l.02-.62h.707zm-1.037.204.08-.099h3.373l.08.1-.08.092h-3.374l-.079-.093m.08.29.072-.092h3.229l.073.093-.073.099h-3.229l-.073-.1m.166.199h1.28l-.184.119c-.205.171-.45.482-.47 1.056h-.752zm3.281 1.512h-3.52l-.085-.112.086-.112h3.52l.085.112-.086.112"/></g><g fill="#f8de35"><path d="M-96.947 94.542c.027-1.149.845-1.42.852-1.426 0 0 .878.297.871 1.432"/><path d="m-97.647 93.136-.145 1.32.865.006c.006-1.096.825-1.274.838-1.274.021 0 .832.244.852 1.274h.865l-.152-1.334M-97.851 94.463h3.525l.139.165-.139.158h-3.525l-.132-.158.132-.165"/><path d="M-96.57 94.456c.006-.687.475-.885.475-.885s.488.205.488.885M-97.772 92.594h3.374l.132.145-.132.146h-3.374l-.132-.146.132-.145M-97.706 92.885h3.235l.119.145-.119.152h-3.235l-.119-.152.119-.145M-96.656 90.686h.25v.185h.185v-.192h.265v.192h.184v-.192h.265v.423l-.12.106h-.91l-.12-.113M-96.538 92.58l.898.007-.06-1.34-.778-.006M-95.554 91.34h.251v.185h.185v-.185h.258v.185l.178-.007v-.178h.257v.416l-.112.106h-.898l-.119-.106"/><path d="m-95.395 91.861-.02.727h.857l-.032-.727M-97.752 91.346h.25v.179h.179v-.185h.257v.185h.179v-.185h.257v.416l-.112.112h-.898l-.113-.112M-97.6 91.868l-.021.72h.858l-.026-.72"/></g><g fill="#211e1e"><path d="M-96.174 91.987h.178v-.317h-.178zM-95.072 92.376h.172v-.244h-.172zM-97.284 92.376h.172v-.244h-.172z"/><path d="m-94.326 94.41-.138-1.182.165-.198-.033-.112.112-.179-.178-.198h-.112l-.02-.627.157-.158v-.469h-.356v.185h-.086v-.185h-.357v.185h-.079v-.185h-.35v.469l.152.152-.02.634h-.126l-.053-1.281h.02l.172-.158v-.47l-.37-.005v.185h-.079v-.179l-.37-.006v.185h-.079v-.18h-.356v.463l.171.165h.007l-.053 1.28h-.132l-.02-.626.158-.159v-.469h-.357v.185h-.08v-.185h-.362v.185h-.08v-.178h-.35v.462l.159.159-.027.627h-.099l-.185.198.113.178-.033.112.165.198-.125 1.182h-.013l-.184.218.184.211h3.526l.185-.21-.185-.219m-.105-.006h-.753c-.027-.515-.251-.832-.442-1.003l-.245-.172h1.3zm-1.658-.878-.191.112c-.152.126-.317.363-.337.773h-.257c.032-1.01.785-1.169.785-1.169.007.006.746.218.8 1.169h-.271c-.021-.66-.496-.885-.529-.885m.43.878h-.852c.02-.528.337-.726.416-.772.086.046.416.244.435.772m.159-2.647v-.364h.152v.185h.284v-.191l.151.006v.185h.284v-.191h.152v.37l-.06.052-.897.006-.066-.06m.89.78h-.752l.02-.621h.707zm-1.927-1.38-.073-.06v-.356h.152v.178h.29v-.185h.159v.185h.29v-.185h.159v.37l-.067.052zm.838 1.38-.785-.007.06-1.234h.673zm-2-.78V91.4h.145v.178h.285v-.185h.151v.185h.284v-.185h.152v.364l-.06.06h-.897l-.06-.06m.878.779h-.746l.02-.62h.707zm-1.03.204.08-.099h3.373l.08.1-.08.092h-3.373l-.08-.093m.08.29.072-.092h3.229l.073.093-.073.099h-3.229l-.072-.1m.165.199h1.274l-.178.119c-.205.171-.456.482-.47 1.056h-.752zm3.281 1.512h-3.526l-.079-.112.08-.112h3.525l.086.112-.086.112"/></g><g fill="#f8de35"><path d="M-93.197 104.565c-.792-.832-.409-1.598-.409-1.605 0-.006.832-.416 1.63.39"/><path d="m-94.689 104.07.832 1.03.614-.601c-.772-.78-.317-1.486-.304-1.5.013-.012.76-.415 1.5.298l.613-.614-1.05-.826"/><path d="m-93.89 105.146 2.49-2.49.21.02.021.212-2.496 2.49-.204-.021-.02-.211M-92.992 104.234c-.482-.488-.29-.957-.29-.957s.488-.205.97.277M-95.164 103.772l2.39-2.39.191.012.013.192-2.384 2.39-.198-.012-.012-.192M-94.907 103.93l2.285-2.284.191.013.013.191-2.278 2.285-.192-.013-.02-.191M-95.725 101.633l.185-.178.125.125.132-.132-.132-.132.185-.178.132.132.132-.139-.132-.125.185-.192.297.304-.006.152-.647.647-.159.006M-95.204 101.897l.911.99.634-.627-.99-.91M-94.478 101.31l.179-.172.125.125.132-.125-.132-.132.185-.179.126.126.132-.126-.132-.132.185-.178.29.29v.159l-.634.634-.158.006"/><path d="m-93.996 101.574.496.528.607-.608-.528-.495M-96.03 102.874l.172-.178.133.132.125-.132-.132-.132.185-.179.132.133.125-.133-.132-.125.185-.185.29.297v.152l-.633.634-.159.006M-95.554 103.132l.495.528.608-.607-.528-.489"/></g><g fill="#211e1e"><path d="m-94.689 101.99.231.224.126-.125-.231-.231-.126.132M-93.58 101.534l.172.172.125-.12-.178-.17-.119.118M-95.144 103.099l.178.171.119-.118-.172-.172-.125.119"/><path d="m-91.434 102.617-.937-.74-.027-.25-.099-.06-.046-.211-.27-.006-.08.072-.455-.422v-.225l-.33-.33-.258.251.132.132-.06.053-.125-.126-.258.251.133.132-.053.053-.132-.126-.25.251.33.324h.224l.429.462-.093.092-.944-.871.02-.013v-.23l-.33-.33-.257.257.132.133-.06.059-.131-.132-.258.257.132.126-.06.06-.124-.126-.258.25.33.33.238-.005.006-.006.865.944-.092.093-.456-.43v-.224l-.33-.33-.258.25.132.133-.052.06-.132-.133-.258.25.132.133-.052.06-.132-.132-.251.25.33.33h.218l.429.456-.073.073.013.27.21.053.053.1.258.02.746.93-.006.007.02.284.284.02 2.49-2.496-.021-.284-.277-.02m-.08.073-.535.534c-.383-.35-.765-.409-1.023-.402l-.297.052.924-.918zm-1.796.548-.06.217c-.02.192.034.482.311.786l-.185.179c-.693-.74-.27-1.38-.27-1.38.006 0 .686-.377 1.393.264l-.192.185c-.482-.45-.97-.278-.997-.251m.924.317-.607.607c-.357-.39-.277-.76-.25-.845.092-.027.468-.119.857.238m-1.762-1.988-.251-.25.099-.106.132.125.198-.198-.132-.132.112-.105.125.125.205-.198-.132-.132.112-.106.258.258v.08l-.634.64h-.093m1.182-.073-.528.528-.43-.449.502-.502zm-2.344.39-.086.005-.25-.257.105-.106.126.126.204-.205-.132-.125.112-.113.132.132.205-.204-.132-.132.112-.113.258.258v.086zm1.578.376-.561.554-.839-.91.482-.483zm-1.974.871-.25-.257.098-.106.132.132.198-.204-.125-.133.106-.105.132.132.198-.205-.132-.132.112-.105.258.257-.007.086-.634.634-.085.006m1.181-.08-.534.535-.423-.455.502-.495zm-.594.879-.006-.126 2.384-2.383.125.012.012.119-2.39 2.39-.125-.012m.264.152-.013-.12 2.285-2.284.112.021.02.112v.006l-2.284 2.278v.006l-.119-.02m.258.02.905-.905-.047.218c-.026.264.027.66.423 1.077l-.535.534zm3.387-1.254-2.49 2.495-.138-.026-.02-.132 2.489-2.49.139.013.02.138"/></g><g fill="#f8de35"><path d="M-81.246 103.35c.832-.793 1.598-.41 1.604-.41.007 0 .416.832-.39 1.638"/><path d="m-80.75 101.857-1.03.839.607.607c.772-.765 1.479-.316 1.492-.297.012.013.416.753-.297 1.5l.614.607.825-1.05"/><path d="m-81.827 102.656 2.49 2.49-.021.21-.212.021-2.489-2.489.02-.211.212-.02M-80.916 103.554c.489-.482.957-.29.957-.284 0 0 .199.482-.277.971M-80.454 101.382l2.39 2.39-.012.198-.198.006-2.384-2.383.013-.198.191-.013M-80.612 101.646l2.284 2.278-.012.192-.191.02-2.285-2.284.012-.192.192-.012M-78.314 100.827l.178.179-.125.132.132.125.125-.125.185.185-.132.125.132.132.132-.132.185.192-.29.29h-.159l-.647-.653-.012-.159M-79.569 102.254l.627.633.911-.983-.548-.555M-77.998 102.075l.179.179-.126.125.126.126.132-.133.178.185-.125.133.125.125.132-.125.179.178-.298.297-.151-.006-.634-.634-.006-.158"/><path d="m-78.783 103.046.607.607.495-.528-.574-.568M-79.556 100.517l.179.179-.133.125.133.132.132-.132.178.178-.132.133.132.132.126-.132.185.178-.298.297-.158-.006-.634-.634v-.158"/><path d="m-80.341 101.494.607.601.489-.528-.568-.568"/></g><g fill="#211e1e"><path d="m-78.671 101.864-.225.225.126.125.224-.224-.125-.126M-78.215 102.967l-.172.178.119.119.171-.172-.119-.125M-79.78 101.409l-.179.171.126.125.171-.178-.119-.119"/><path d="m-79.298 105.113.74-.938.25-.02.06-.1.204-.052.013-.264-.08-.08.43-.462h.224l.33-.33-.25-.257-.133.132-.052-.053.125-.132-.25-.257-.133.132-.052-.053.125-.125-.25-.251-.324.33v.218l-.463.429-.092-.086.872-.944.012.012.231.006.33-.33-.257-.257-.133.125-.06-.06.133-.125-.258-.264-.125.139-.06-.06.126-.132-.251-.257-.33.337.006.23.006.007-.944.865-.092-.093.429-.455h.218l.336-.33-.25-.251-.133.125-.06-.053.133-.132-.25-.257-.133.132-.06-.053.132-.125-.25-.251-.33.33v.218l-.456.429-.073-.073-.27.013-.053.204-.1.053-.02.257-.93.753-.007-.006-.284.012-.02.29 2.495 2.49.278-.027.026-.277m-.073-.08-.534-.534c.35-.383.409-.766.396-1.023l-.046-.29.917.917zm-.548-1.795-.217-.06c-.192-.012-.482.033-.786.317l-.178-.185c.74-.693 1.38-.27 1.38-.277 0 .006.376.687-.264 1.393l-.185-.185c.449-.482.277-.977.25-1.003m-.316.93-.608-.607c.39-.363.76-.277.839-.25.033.092.125.462-.231.858m1.987-1.763.25-.258.106.106-.125.125.198.198.132-.125.106.106-.125.132.198.204.132-.132.105.106-.257.257h-.086l-.634-.633v-.086m.073 1.175-.535-.528.455-.423.502.495zm-.39-2.337-.006-.086.257-.258.106.106-.132.132.211.205.126-.132.112.112-.132.125.204.205.133-.125.112.112-.258.257-.085-.006zm-.376 1.571-.555-.555.911-.838.482.482zm-.872-1.967.258-.258.099.106-.126.125.205.205.132-.132.106.105-.132.132.204.205.132-.132.106.105-.264.258h-.08l-.633-.634-.006-.086m.079 1.175-.535-.528.456-.422.495.495zm-.878-.587.125-.013 2.384 2.39-.013.12-.119.012-2.39-2.39.012-.119m-.151.264.119-.02 2.284 2.284-.02.119-.113.012h-.006l-2.285-2.284.021-.112m-.02.257.897.898-.21-.04c-.265-.032-.661.021-1.077.416l-.535-.534zm1.254 3.387-2.49-2.496.013-.138.139-.013 2.489 2.49-.02.132-.133.026"/></g><g fill="none" stroke="#613a21" stroke-width=".451"><path fill="#ffca26" stroke-width=".14236717000000002" d="M-22.777 148.79c1.761-4.59 5.435-4.941 7.558-7.489.831-.998 2.86-.57 4.285-.878 1.358-.293 1.81.292 1.944 1.597 2.528-.107 2.475.985 2.235 2.05-.106-.426-1.25-.493-1.81-.44 0 .932-.665.972-1.703 1.238-.8.205-.942 1.453-.962 2.356 2.236.053 4.21-1.93 6.232-4.113 2.023-2.183 5.348-4.088 10.754-3.78 6.548.373 19.537.586 23.903-.692 4.365-1.278 5.323.532 2.13 2.555.371.799-.493 2.226-2.024 2.822.745.905-.426 2.13-2.715 3.034.106 1.437-2.183 3.087-5.11 3.354.745 1.81-3.674 3.408-8.465 3.088.48.692-1.118 1.916-2.928 1.916.638.745-1.012 1.597-2.183 1.65.692.64-2.715 1.651-4.525 1.278.053.64-1.97 1.118-3.3.799-.16.585-1.598.798-2.45.213-.212.585-1.224.692-2.129.106-.585.586-1.597.533-2.182-.16-.373.64-1.278.852-1.917.054-.533.692-1.278.48-1.863-.213-.107.639-1.987 1.704-3.052-2.13-.265 1.799-.775 2.918-1.207 3.674.354 1.093.566 3.527.482 5.696.32 2.13 1.275 5.216 1.887 7.186.612 1.97-.344 1.77-.903 1.45.07.268.078.6-.002 1.026-.213-.285-.757-.715-1.237-.715-.013.293-.126.592-.387.874-.506-.639-1.012-1.41-1.597-1.41-.586.133-1.704.692-2.023 1.624a1.871 1.871 0 0 1-.18-.807c-.427.346-1.716.399-2.01-.028a2.605 2.605 0 0 1-.1.648c-.224-.33-.723-.777-1.229-.8-.02.309-.133.621-.4.885-.475-.66-1.061-1.247-1.647-1.274-.59.107-1.733.614-2.094 1.53-.19-.442-.263-1.128.035-1.654-.34-.03-.69-.237-.573-.656-1.012 1.757-2.343 1.384-2.875.532-1.065 1.171-3.243.472-2.29-1.011 3.833-5.963 4.313-7.88 5.377-11.02.416-1.25.16-3.194.746-5.057-1.332 2.342-2.982 2.715-3.354 2.182-.426.533-1.863 1.065-2.236.213-.426.32-1.384.32-1.757-.106-.692.532-1.703.585-1.863.106-.692.426-2.13.373-2.396-.106-1.065.905-3.407.426-3.3-.905-2.49 1.165-4.738.532-4.632-.692-1.49.16-2.342-.586-2.236-1.278-1.597.106-2.555-.905-2.289-1.97-3.407.32-11.871-.692-11.286-3.354-2.395-.426-5.962-2.183-4.79-3.567-1.545-.426-3.302-1.703-3.142-2.927-2.183-.48-2.608-2.29-1.916-2.663-2.077-.692-2.394-3.31 1.224-2.395 5.058 1.278 18.633 1.065 25.98.639 7.346-.426 7.293 1.543 13.734 6.069 2.909 2.044 5.36 1.567 6.763 1.846z"/><path stroke-width=".14236717000000002" d="M-14.501 174.2c.278.264.487.681.467 1.123"/><path stroke-width=".14236717000000002" d="M-12.795 175.012c-.21-.8-.987-.951-1.706-.811-.506-.133-.932-.479-.932-1.383 0-.587.346-1.466 1.064-2.982.353-.744.533-2.046.59-3.46M-18.221 175.604c.003-.644.346-1.335 1.351-1.536.532-.106.745-.24.745-1.01 0-2.476-3.088-2.955-3.088-9.078M-15.957 162.973c.364-.91 1.228-1.474 1.695-2.294M-22.777 148.79c.492.097.856.28 1.063.71M-22 174.204c.275.286.47.75.441 1.218"/><path stroke-width=".14236717000000002" d="M-20.23 175.576c.011-1.092-.882-1.503-1.772-1.372-.5-.155-.802-.242-.761-1.146.168-3.692 3.375-4.855 2.646-11.58M-25.665 174.91c.194-.343.548-.621 1.134-.711.537-.082.755-.212.79-.983.032-.698-.432-1.015-.688-1.411-1.227-1.897-2.236-7.134-1.598-9.05M-11.23 147.224c-.006.268.003.535.003.785 0 2.61-1.677 3.727-1.65 5.909.015 1.209-.05 2.226-.176 3.088M-22.193 150.457c-5.324-.213-9.796-1.49-12.352-5.11-2.556-3.62-6.92-3.726-11.179-3.3-4.26.425-8.624.318-12.35 0"/><path stroke-width=".14236717000000002" d="M-52.259 142.325c-.32.905.732 2.596 8.717 1.744"/><path stroke-width=".14236717000000002" d="M-51.526 143.644c.213 1.809 4.312 3.087 9.583 1.97"/><path stroke-width=".14236717000000002" d="M-48.918 145.64c-1.597.053-.532 1.73 1.33 1.943 1.864.213 5.165.265 6.974-.214"/><path stroke-width=".14236717000000002" d="M-47.587 147.583c-1.065.852-.524 2.046 2.875 2.289.745.053 3.513.106 6.068-.64"/><path stroke-width=".14236717000000002" d="M-44.326 149.898c-.958.64.093 1.783 1.904 1.783 1.81 0 3.833-.319 5.216-1.011"/><path stroke-width=".14236717000000002" d="M-42.423 151.682c-.745 1.012.458 2.1 2.821 1.544.905-.213 3.034-1.064 3.674-1.597"/><path stroke-width=".14236717000000002" d="M-39.389 153.173c-1.011.64-.347 2.132 1.598 1.224.799-.373 1.863-1.011 2.608-1.757M-37.791 154.398c-.267.798.585 1.438 1.81.692 1.224-.745 1.863-1.544 2.236-2.13"/><path stroke-width=".14236717000000002" d="M-35.982 155.09c-.16.69.64 1.81 3.407-1.332"/><path stroke-width=".14236717000000002" d="M-34.651 155.621c-.213.853 1.065 1.385 3.088-1.224"/><path stroke-width=".14236717000000002" d="M-33.213 156.048c.532.852 1.33.798 3.194-1.224"/><path stroke-width=".14236717000000002" d="M-31.882 156.42c-.106.798 1.225 1.01 2.715-.64"/><path stroke-width=".14236717000000002" d="M-30.219 156.687c-.106.799 1.53.426 2.648-.958"/><path stroke-width=".14236717000000002" d="M-28.742 156.74c.426.638 1.81.69 2.715-.853"/><path stroke-width=".14236717000000002" d="M-26.292 156.26c-.852 1.118.532 1.545 1.597.427"/><path stroke-width=".14236717000000002" d="M-25.282 157.699c1.863-1.438 1.012-4.525 2.397-4.525M-70.478 142.632c3.46 1.277 12.83 2.076 19.111 1.544M-68.562 145.295c3.94 1.118 13.283 1.45 19.032 1.29M-65.421 148.222c2.769.64 12.031 2.022 17.994 1.012M-60.63 151.788c2.343.586 11.765 1.345 16.823-.359M-49.344 155.143c1.49-.054 5.177-.945 7.146-2.116M-47.055 157.112c2.183-.32 5.311-1.251 7.28-2.849M-44.818 158.39c1.544-.053 5.59-1.73 7.346-3.062M-40.188 159.082c1.544-.638 3.514-1.943 4.951-3.22M-36.887 159.986c1.438-1.011 2.662-2.502 3.78-3.779M-34.491 160.094c1.117-.638 1.956-1.877 2.86-3.154M-32.627 159.986c.904-.639 2.022-1.902 2.661-2.914M-30.871 160.094c.852-.692 1.81-1.863 2.395-3.088M-28.635 159.88c.745-.637 1.45-1.503 2.09-2.94M-29.114 174.787c1.117-1.917 2.448-4.205 3.407-6.39M-26.24 174.255c.64-.959 1.078-2.09 1.558-2.941M-20.65 174.2c-.027-1.143-.24-4.79-.159-6.574M-18.068 174.546c.028-1.357-.56-4.365-.532-6.547M-13.808 174.175c-.16-.667-.666-2.849-.772-3.833M-11.227 149.5c5.537-.107 7.027-8.944 16.078-8.731 9.05.213 14.587.852 18.845.426"/><path stroke-width=".14236717000000002" d="M6.607 142.899c5.643.426 7.985-.427 7.931-1.757"/><path stroke-width=".14236717000000002" d="M5.596 144.602c3.567.478 7.12.799 6.987-1.863"/><path stroke-width=".14236717000000002" d="M3.999 146.359c2.874.586 7.24 1.33 7.134-1.65"/><path stroke-width=".14236717000000002" d="M1.87 148.062c4.098 1.172 8.038 1.597 7.771-1.33"/><path stroke-width=".14236717000000002" d="M.272 149.979c3.566 1.384 7.453 1.53 7.026-1.026"/><path stroke-width=".14236717000000002" d="M-1.432 151.097c3.194 2.076 5.896 1.797 5.896-.12"/><path stroke-width=".14236717000000002" d="M-2.922 152.108c2.767 1.97 4.737 2.13 5.004.373"/><path stroke-width=".14236717000000002" d="M-3.88 152.8c1.81 2.023 3.406 1.97 3.779.799"/><path stroke-width=".14236717000000002" d="M-5.158 152.96c1.171 1.863 3.034 2.556 3.194 1.33"/><path stroke-width=".14236717000000002" d="M-6.142 153.44c1.17 1.862 2.874 2.607 3.034 1.384"/><path stroke-width=".14236717000000002" d="M-7.22 153.863c1.052 1.934 2.625 2.598 2.861 1.387"/><path stroke-width=".14236717000000002" d="M-8.419 154.076c.731 2.158 2.303 2.77 2.648 1.52"/><path stroke-width=".14236717000000002" d="M-9.693 153.856c.325 2.256 1.756 3.145 2.326 1.98"/><path stroke-width=".14236717000000002" d="M-10.677 154.309c.324 2.255 1.393 2.776 2.059 1.844"/><path stroke-width=".14236717000000002" d="M-11.982 154.442c.325 2.255 1.394 2.777 2.059 1.845"/><path stroke-width=".14236717000000002" d="M-11.44 156.127c-.32.452-.852.852-1.517.16M31.788 141.195c-2.876 1.97-15.386 2.449-19.272 2.289M29.765 144.016c-3.94 1.757-11.872 2.343-19.06 2.024M27.05 147.05c-3.034 1.437-13.947 1.544-17.834 1.225M21.94 150.405c-3.302.586-10.648.373-15.014-.053M13.474 153.492c-2.555-.054-6.72-.732-9.435-1.425M10.546 155.408c-1.65.213-6.521-.852-8.97-1.97M8.364 157.06c-1.438.266-6.282-.586-8.838-2.875M3.84 158.336c-2.13-.213-4.858-1.783-6.349-3.434M.538 159.135c-1.863-.372-3.353-2.076-4.578-3.78M-1.91 159.349c-.959-.692-2.742-2.21-3.62-3.62M-4.04 159.455c-1.225-.612-2.21-1.997-2.69-3.248M-6.222 159.295c-.693-.799-1.384-1.783-1.81-2.955M-8.14 159.349c-.558-.72-.984-1.358-1.544-2.85"/><path stroke-width=".14236717000000002" d="M-10.003 159.135c-.585-.639-.972-1.397-1.557-2.86M-8.565 143.63c-.586.04-1.158.014-1.424.12M-8.991 142.02c.04.32-.253.28-.293.546M-13.175 141.964c.687-.2 1.35.323 1.992.156.285-.074.763-.117 1.22.127"/><path stroke-width=".14236717000000002" d="M-12.244 142.021c-.064.333.219.664.626.686.357.018.731-.217.705-.615"/></g><path fill="#613a21" d="m-19.168 100.064-.143.44-.994 3.062-3.69-.006 2.987 2.17-1.135 3.5 2.979-2.16 2.972 2.16-1.134-3.492 2.984-2.164-3.687-.006z" color="#000" style="paint-order:stroke markers fill"/><path id="a" fill="#ffca26" stroke="#613a21" stroke-width=".567" d="m360.008 135.107-3.885 11.97-12.61-.018 10.208 7.416-3.883 11.959 10.182-7.381 10.156 7.38-3.873-11.933 10.199-7.395-12.606-.017-3.888-11.98z" style="paint-order:fill markers stroke" transform="matrix(.26458 0 0 .26458 -114.42 64.802)"/><g fill="#ffca26" stroke="#613a21" stroke-width=".955"><use xlink:href="#a" width="100%" height="100%" style="paint-order:stroke markers fill" transform="rotate(-55 -19.172 161.69)"/><use xlink:href="#a" width="100%" height="100%" style="paint-order:stroke markers fill" transform="rotate(-41.25 -19.172 161.69)"/><use xlink:href="#a" width="100%" height="100%" style="paint-order:stroke markers fill" transform="rotate(-27.5 -19.172 161.69)"/><use xlink:href="#a" width="100%" height="100%" style="paint-order:stroke markers fill" transform="rotate(-13.75 -19.172 161.69)"/><use xlink:href="#a" width="100%" height="100%" style="paint-order:stroke markers fill" transform="rotate(13.75 -19.172 161.69)"/><use xlink:href="#a" width="100%" height="100%" style="paint-order:stroke markers fill" transform="rotate(27.5 -19.172 161.69)"/><use xlink:href="#a" width="100%" height="100%" style="paint-order:stroke markers fill" transform="rotate(41.25 -19.172 161.69)"/><use xlink:href="#a" width="100%" height="100%" style="paint-order:stroke markers fill" transform="rotate(55 -19.172 161.69)"/></g></g></svg>