<svg xmlns="http://www.w3.org/2000/svg" width="1000" height="500" version="1.0"><defs><linearGradient id="a"><stop offset="0" style="stop-color:red;stop-opacity:1"/><stop offset="1" style="stop-color:#ff0;stop-opacity:1"/></linearGradient><linearGradient id="d"><stop offset="0" style="stop-color:#003994;stop-opacity:1"/><stop offset="1" style="stop-color:#00215a;stop-opacity:1"/></linearGradient><linearGradient id="e"><stop offset="0" style="stop-color:#003994;stop-opacity:1"/><stop offset="1" style="stop-color:#00215a;stop-opacity:1"/></linearGradient><linearGradient id="f"><stop offset="0" style="stop-color:#003994;stop-opacity:1"/><stop offset="1" style="stop-color:#00215a;stop-opacity:1"/></linearGradient><linearGradient id="m"><stop offset="0" style="stop-color:#de1010;stop-opacity:1"/><stop offset="1" style="stop-color:#8e1116;stop-opacity:1"/></linearGradient><linearGradient id="j"><stop offset="0" style="stop-color:#5d241b;stop-opacity:1"/><stop offset="1" style="stop-color:#ba1d1d;stop-opacity:1"/></linearGradient><linearGradient id="l"><stop offset="0" style="stop-color:#5a2118;stop-opacity:1"/><stop offset="1" style="stop-color:#bb1e1e;stop-opacity:1"/></linearGradient><linearGradient id="i"><stop offset="0" style="stop-color:#fff;stop-opacity:1"/><stop offset="1" style="stop-color:#fff231;stop-opacity:1"/></linearGradient><linearGradient id="k"><stop offset="0" style="stop-color:#fff231;stop-opacity:1"/><stop offset="1" style="stop-color:#fff;stop-opacity:1"/></linearGradient><linearGradient id="g"><stop offset="0" style="stop-color:#e5aa12;stop-opacity:1"/><stop offset="1" style="stop-color:#ffc718;stop-opacity:0"/></linearGradient><linearGradient id="h"><stop offset="0" style="stop-color:#000;stop-opacity:1"/><stop offset="1" style="stop-color:#fff;stop-opacity:1"/></linearGradient><linearGradient id="b"><stop offset="0" style="stop-color:#caa11c;stop-opacity:1"/><stop offset="1" style="stop-color:#ffce18;stop-opacity:1"/></linearGradient><linearGradient id="c"><stop offset="0" style="stop-color:#ba9117;stop-opacity:1"/><stop offset=".5" style="stop-color:#7f670c;stop-opacity:1"/><stop offset="1" style="stop-color:#ffce18;stop-opacity:1"/></linearGradient></defs><path d="M0 0h1000v500H0z" style="font-size:12px;fill:#00247d;fill-opacity:1;stroke-width:1pt;stroke:none"/><path d="M0 0h500v250H0z" style="opacity:1;fill:#00247d;fill-opacity:1;fill-rule:evenodd;stroke:none;stroke-width:.25;stroke-linecap:butt;stroke-linejoin:round;stroke-miterlimit:4;stroke-dasharray:none;stroke-dashoffset:0;stroke-opacity:1"/><g style="font-size:12px;stroke:none"><path d="M0 0v3.354L53.292 30H60v-3.354L6.708 0H0zm60 0v3.354L6.708 30H0v-3.354L53.292 0H60z" style="font-size:12px;fill:#fff;stroke-width:1pt;stroke:none" transform="matrix(8.33334 0 0 8.33334 0 0)"/><path d="M25 0v30h10V0H25zM0 10v10h60V10H0z" style="font-size:12px;fill:#fff;stroke-width:1pt;stroke:none" transform="matrix(8.33334 0 0 8.33334 0 0)"/><path d="M0 12v6h60v-6H0zM27 0v30h6V0h-6z" style="font-size:12px;fill:#cf142b;stroke-width:1pt;stroke:none;fill-opacity:1" transform="matrix(8.33334 0 0 8.33334 0 0)"/><path d="m0 30 20-10h4.472l-20 10H0zM0 0l20 10h-4.472L0 2.236V0zm35.528 10 20-10H60L40 10h-4.472zM60 30 40 20h4.472L60 27.764V30z" style="font-size:12px;fill:#cf142b;stroke-width:1pt;fill-opacity:1;stroke:none" transform="matrix(8.33334 0 0 8.33334 0 0)"/></g><path d="M351.267 461.078c-6.222-.367-49.063-17.883-48.66-60.484v-60.483h48.66 48.66v60.483c.402 42.601-42.438 60.117-48.66 60.484z" style="color:#000;fill:#fff;fill-opacity:1;fill-rule:nonzero;stroke:#000;stroke-width:.72886121;stroke-linecap:round;stroke-linejoin:round;marker:none;marker-start:none;marker-mid:none;marker-end:none;stroke-miterlimit:4;stroke-dashoffset:0;stroke-opacity:1;visibility:visible;display:block" transform="matrix(1.7269 0 0 1.67403 134.928 -407.43)"/><path d="M351.267 461.078c-6.222-.367-49.063-17.883-48.66-60.484v-60.483h48.66 48.66v60.483c.402 42.601-42.438 60.117-48.66 60.484z" style="color:#000;fill:none;fill-opacity:1;fill-rule:nonzero;stroke:#000;stroke-width:.72886121;stroke-linecap:round;stroke-linejoin:round;marker:none;marker-start:none;marker-mid:none;marker-end:none;stroke-miterlimit:4;stroke-dashoffset:0;stroke-opacity:1;visibility:visible;display:block" transform="matrix(1.7269 0 0 1.67403 134.928 -407.43)"/><path d="M286.65 390.88c.173-1.865.324-5.298.09-8.87-8.423 6.427-11.517-8.774-20.555-.226-6.066 5.737-8.04-1.708-12.098-1.146-4.059.561-3.637 9.38.422 8.818 4.058-.561 5.61 6.759 11.676 1.022 9.038-8.548 12.043 6.83 20.466.402zM189.646 380.755c-.173 1.865-.059 5.121.177 8.694 8.422-6.428 11.074 9.17 20.112.623 6.066-5.737 8.04 1.708 12.098 1.147 4.058-.562 3.636-9.38-.422-8.819-4.058.562-5.61-6.759-11.676-1.022-9.038 8.548-11.867-7.05-20.29-.623zM286.924 364.983c.172 3.073.047 3.726 0 8.529-8.423 6.427-11.1-9.01-20.285-1.06-1.775 1.275-3.79 3.756-5.693 1.358-1.904-2.399-.989 1.13-1.813-6.591-.823-7.722 1.02 2.172 7.506-3.296 9.185-7.95 11.862 7.488 20.285 1.06zM189.903 371.726c-.172-3.072-.047-3.726 0-8.528 8.423-6.428 11.1 9.01 20.285 1.06 1.775-1.276 3.789-3.757 5.693-1.358 1.904 2.399.989-1.13 1.813 6.591.823 7.721-1.02-2.173-7.506 3.296-9.185 7.95-11.862-7.488-20.285-1.06zM286.728 346.9c.246 2.058.158 6.027.044 8.389-8.423 6.427-11.1-9.011-20.285-1.061-9.186 7.95-9.23-.438-.045-8.388 9.186-7.95 11.863 7.488 20.286 1.06zM189.79 354.038c-.247-2.058-.07-5.983.044-8.344 8.423-6.428 11.32 8.966 20.506 1.016 9.186-7.95 9.23.438.045 8.388-9.186 7.95-12.172-7.488-20.595-1.06z" style="fill:#003792;fill-opacity:1;fill-rule:nonzero;stroke:none;stroke-width:.14;stroke-linecap:round;stroke-linejoin:round;stroke-miterlimit:4;stroke-opacity:1" transform="matrix(1.7269 0 0 1.67403 330.12 -395.915)"/><path d="M351.386 340.273h-32.657l32.657 114.97 32.687-114.97h-32.687z" style="fill:#de1010;fill-opacity:1;fill-rule:nonzero;stroke:none;stroke-width:.54000002;stroke-linecap:butt;stroke-linejoin:miter;stroke-miterlimit:4;stroke-dasharray:none;stroke-opacity:1" transform="matrix(1.7269 0 0 1.67403 134.928 -407.43)"/><path d="m245.57 369.318 8.634 10.206M248.11 365.206l10.818 6.722M249.263 361.28l10.942 3.052M249.66 357.11l13.498-1.869M248.768 352.936l16.927-7.906" style="fill:none;fill-opacity:1;fill-rule:nonzero;stroke:#ffe600;stroke-width:1.60000002;stroke-linecap:round;stroke-linejoin:round;stroke-miterlimit:4;stroke-dasharray:none;stroke-opacity:1" transform="matrix(1.7269 0 0 1.67403 330.12 -395.915)"/><path d="m247.67 367.885 4.619 3.295M249.523 363.337l5.192 2.24M250.352 359.101h5.129M249.863 354.868l5.873-1.62" style="fill:none;fill-opacity:1;fill-rule:nonzero;stroke:#ffb400;stroke-width:.80000001;stroke-linecap:round;stroke-linejoin:round;stroke-miterlimit:4;stroke-dasharray:none;stroke-opacity:1" transform="matrix(1.7269 0 0 1.67403 330.12 -395.915)"/><path d="m247.582 350.398 21.9-15.63M245.83 347.019l8.941-10.61" style="fill:none;fill-opacity:1;fill-rule:nonzero;stroke:#ffe600;stroke-width:1.60000002;stroke-linecap:round;stroke-linejoin:round;stroke-miterlimit:4;stroke-dasharray:none;stroke-opacity:1" transform="matrix(1.7269 0 0 1.67403 330.12 -395.915)"/><path d="m243.46 343.25 4.128-8.015" style="fill:none;fill-opacity:1;fill-rule:nonzero;stroke:#ffe600;stroke-width:1.5999999;stroke-linecap:round;stroke-linejoin:round;stroke-miterlimit:4;stroke-dasharray:none;stroke-opacity:1" transform="matrix(1.7269 0 0 1.67403 330.12 -395.915)"/><path d="m245.651 344.032 3.304-5.119M248 347.596l4.62-3.972M241.472 340.55l1.835-5.809" style="fill:none;fill-opacity:1;fill-rule:nonzero;stroke:#ffb400;stroke-width:.80000001;stroke-linecap:round;stroke-linejoin:round;stroke-miterlimit:4;stroke-dasharray:none;stroke-opacity:1" transform="matrix(1.7269 0 0 1.67403 330.12 -395.915)"/><path d="m231.499 367.856-9.321 11.581" style="fill:none;fill-opacity:1;fill-rule:nonzero;stroke:#ffe600;stroke-width:1.60000002;stroke-linecap:round;stroke-linejoin:round;stroke-miterlimit:4;stroke-dasharray:none;stroke-opacity:1" transform="matrix(1.7269 0 0 1.67403 330.12 -395.915)"/><path d="m229.584 364.494-11.63 6.972" style="fill:none;fill-opacity:1;fill-rule:nonzero;stroke:#ffe600;stroke-width:1.5999999;stroke-linecap:round;stroke-linejoin:round;stroke-miterlimit:4;stroke-dasharray:none;stroke-opacity:1" transform="matrix(1.7269 0 0 1.67403 330.12 -395.915)"/><path d="m228.307 361.132-12.13 3.113" style="fill:none;fill-opacity:1;fill-rule:nonzero;stroke:#ffe600;stroke-width:1.60000002;stroke-linecap:round;stroke-linejoin:round;stroke-miterlimit:4;stroke-dasharray:none;stroke-opacity:1" transform="matrix(1.7269 0 0 1.67403 330.12 -395.915)"/><path d="m227.285 357.023-13.936-1.868" style="fill:none;fill-opacity:1;fill-rule:nonzero;stroke:#ffe600;stroke-width:1.60000014;stroke-linecap:round;stroke-linejoin:round;stroke-miterlimit:4;stroke-dasharray:none;stroke-opacity:1" transform="matrix(1.7269 0 0 1.67403 330.12 -395.915)"/><path d="m228.051 353.162-17.364-8.218" style="fill:none;fill-opacity:1;fill-rule:nonzero;stroke:#ffe600;stroke-width:1.60000002;stroke-linecap:round;stroke-linejoin:round;stroke-miterlimit:4;stroke-dasharray:none;stroke-opacity:1" transform="matrix(1.7269 0 0 1.67403 330.12 -395.915)"/><path d="m229.722 350.421-21.837-15.566" style="fill:none;fill-opacity:1;fill-rule:nonzero;stroke:#ffe600;stroke-width:1.5999999;stroke-linecap:round;stroke-linejoin:round;stroke-miterlimit:4;stroke-dasharray:none;stroke-opacity:1" transform="matrix(1.7269 0 0 1.67403 330.12 -395.915)"/><path d="m229.711 366.736-5.618 4.358M227.796 362.875l-6.129 2.615M227.03 359.015h-6.129M226.52 354.781l-5.874-1.619" style="fill:none;fill-opacity:1;fill-rule:nonzero;stroke:#ffb400;stroke-width:.80000001;stroke-linecap:round;stroke-linejoin:round;stroke-miterlimit:4;stroke-dasharray:none;stroke-opacity:1" transform="matrix(1.7269 0 0 1.67403 330.12 -395.915)"/><path d="m231.576 347.551-9.985-9.626" style="fill:none;fill-opacity:1;fill-rule:nonzero;stroke:#ffe600;stroke-width:1.60000002;stroke-linecap:round;stroke-linejoin:round;stroke-miterlimit:4;stroke-dasharray:none;stroke-opacity:1" transform="matrix(1.7269 0 0 1.67403 330.12 -395.915)"/><path d="M232.338 384.675c-.453-3.025 8.966-9.631 2.155-18.903-1.511 3.966 1.749 6.637-2.385 12.15 3.502-8.225-.115-6.516 2.127-13.035 1.062-5.18-1.051-9.04-4.647-11.4.967 9.09-6.12 6.95-5.125 16.375-.579-2.458-.711-4.916-.625-7.375-7.84 12.82.296 11.056 1 22.125.468-.077.772.307.814-.376.165-3.858-.737-5.428-2.027-11.047 1.055 3.612 3.493 6.827 3.125 11.457.64.097.987.084 1.855-.105.262-7.265-4.306-10.836-.917-17.887-1.837 7.452 2.06 11.556 1.937 18.01l.656.001c.058-3.667.219-5.85 1.234-6.979-.41 2.804-.386 4.256-.296 6.984l1.119.005z" style="fill:#fef600;fill-opacity:1;fill-rule:nonzero;stroke:#694a02;stroke-width:.40000001;stroke-linecap:butt;stroke-linejoin:miter;stroke-miterlimit:4;stroke-dasharray:none;stroke-opacity:1" transform="matrix(1.7269 0 0 1.67403 346.525 -415.166)"/><path d="m238.37 426.61-2.614-.011c-.952-16.573-1.224-33.146-6.156-49.719l8.77.011 8.772.012c-4.932 16.572-5.204 33.145-6.156 49.718l-2.615-.01z" style="fill:#fff700;fill-opacity:1;fill-rule:nonzero;stroke:#694a02;stroke-width:.5;stroke-linecap:butt;stroke-linejoin:round;stroke-miterlimit:4;stroke-opacity:1" transform="matrix(1.7269 0 0 1.67403 330.12 -395.915)"/><path d="m238.37 376.837 9.631.083c-2.01-4.16-5.602-4.592-9.63-4.583-4.028-.048-7.62.383-9.63 4.543l9.63-.043zM238.37 437.46c2.99-3.226 3.876-7.307 2.356-7.417-.69-.05-1.624-.06-2.355-.084-.731.014-1.665.025-2.355.074-1.52.11-.634 4.201 2.355 7.426z" style="fill:#fff700;fill-opacity:1;fill-rule:nonzero;stroke:#694a02;stroke-width:.5;stroke-linecap:butt;stroke-linejoin:round;stroke-miterlimit:4;stroke-opacity:1" transform="matrix(1.7269 0 0 1.67403 330.12 -395.915)"/><path d="M238.37 430.63c3.35-.036 4.972-2.38 3.265-3.749-.57-.457-2.662-.32-3.264-.326-.603-.006-2.694-.132-3.264.325-1.707 1.369-.085 3.714 3.264 3.75z" style="fill:#fff700;fill-opacity:1;fill-rule:nonzero;stroke:#694a02;stroke-width:.5;stroke-linecap:butt;stroke-linejoin:round;stroke-miterlimit:4;stroke-opacity:1" transform="matrix(1.7269 0 0 1.67403 330.12 -395.915)"/><path d="M233.861 378.66c.827 5.408 1.296 9.305 1.188 17M242.88 378.66c-.826 5.408-1.295 9.305-1.187 17" style="fill:none;fill-opacity:1;fill-rule:nonzero;stroke:#694a02;stroke-width:.5;stroke-linecap:round;stroke-linejoin:round;stroke-miterlimit:4;stroke-dasharray:none;stroke-opacity:1" transform="matrix(1.7269 0 0 1.67403 330.12 -395.915)"/><path d="M228.87 390.443v40.4" style="fill:#fff700;fill-opacity:1;fill-rule:nonzero;stroke:#694a02;stroke-width:1.39999998;stroke-linecap:round;stroke-linejoin:round;stroke-miterlimit:4;stroke-dasharray:none;stroke-opacity:1" transform="matrix(1.7269 0 0 1.67403 346.525 -415.166)"/><path d="M220.685 386.628h1.364M235.635 386.628h1.363" style="fill:#fff700;fill-opacity:1;fill-rule:nonzero;stroke:#694a02;stroke-width:1;stroke-linecap:round;stroke-linejoin:round;stroke-miterlimit:4;stroke-dasharray:none;stroke-opacity:1" transform="matrix(1.7269 0 0 1.67403 346.525 -415.166)"/><path d="M351.267 461.078c-6.222-.367-49.063-17.883-48.66-60.484v-60.483h48.66 48.66v60.483c.402 42.601-42.438 60.117-48.66 60.484z" style="color:#000;fill:#fff;fill-opacity:1;fill-rule:nonzero;stroke:none;stroke-width:.72886121000000004;stroke-linecap:round;stroke-linejoin:round;marker:none;marker-start:none;marker-mid:none;marker-end:none;stroke-miterlimit:4;stroke-dashoffset:0;stroke-opacity:1;visibility:visible;display:block" transform="matrix(1.7269 0 0 1.67403 134.928 -407.43)"/><path d="M286.65 390.88c.173-1.865.324-5.298.09-8.87-8.423 6.427-11.517-8.774-20.555-.226-6.066 5.737-8.04-1.708-12.098-1.146-4.059.561-3.637 9.38.422 8.818 4.058-.561 5.61 6.759 11.676 1.022 9.038-8.548 12.043 6.83 20.466.402zM189.646 380.755c-.173 1.865-.059 5.121.177 8.694 8.422-6.428 11.074 9.17 20.112.623 6.066-5.737 8.04 1.708 12.098 1.147 4.058-.562 3.636-9.38-.422-8.819-4.058.562-5.61-6.759-11.676-1.022-9.038 8.548-11.867-7.05-20.29-.623zM286.924 364.983c.172 3.073.047 3.726 0 8.529-8.423 6.427-11.1-9.01-20.285-1.06-1.775 1.275-3.79 3.756-5.693 1.358-1.904-2.399-.989 1.13-1.813-6.591-.823-7.722 1.02 2.172 7.506-3.296 9.185-7.95 11.862 7.488 20.285 1.06zM189.903 371.726c-.172-3.072-.047-3.726 0-8.528 8.423-6.428 11.1 9.01 20.285 1.06 1.775-1.276 3.789-3.757 5.693-1.358 1.904 2.399.989-1.13 1.813 6.591.823 7.721-1.02-2.173-7.506 3.296-9.185 7.95-11.862-7.488-20.285-1.06zM286.728 346.9c.246 2.058.158 6.027.044 8.389-8.423 6.427-11.1-9.011-20.285-1.061-9.186 7.95-9.23-.438-.045-8.388 9.186-7.95 11.863 7.488 20.286 1.06zM189.79 354.038c-.247-2.058-.07-5.983.044-8.344 8.423-6.428 11.32 8.966 20.506 1.016 9.186-7.95 9.23.438.045 8.388-9.186 7.95-12.172-7.488-20.595-1.06z" style="fill:#003792;fill-opacity:1;fill-rule:nonzero;stroke:none;stroke-width:.14;stroke-linecap:round;stroke-linejoin:round;stroke-miterlimit:4;stroke-opacity:1" transform="matrix(1.7269 0 0 1.67403 330.12 -395.915)"/><path d="m318.73 340.273 32.656 114.97 32.687-114.97z" style="fill:#de1010;fill-opacity:1;fill-rule:nonzero;stroke:none" transform="matrix(1.7269 0 0 1.67403 134.928 -407.43)"/><path d="M351.267 461.078c-6.222-.367-49.063-17.883-48.66-60.484v-60.483h48.66 48.66v60.483c.402 42.601-42.438 60.117-48.66 60.484z" style="color:#000;fill:none;fill-opacity:1;fill-rule:nonzero;stroke:#000;stroke-width:.73518311;stroke-linecap:round;stroke-linejoin:round;marker:none;marker-start:none;marker-mid:none;marker-end:none;stroke-miterlimit:4;stroke-dashoffset:0;stroke-opacity:1;visibility:visible;display:block;stroke-dasharray:none" transform="matrix(1.7269 0 0 1.67403 134.928 -407.43)"/><path d="m245.57 369.318 8.634 10.206M248.11 365.206l10.818 6.722M249.263 361.28l10.942 3.052M249.66 357.11l13.498-1.869M248.768 352.936l16.927-7.906" style="fill:none;fill-opacity:1;fill-rule:nonzero;stroke:#f3cc0c;stroke-width:1.60000002;stroke-linecap:round;stroke-linejoin:round;stroke-miterlimit:4;stroke-dasharray:none;stroke-opacity:1" transform="matrix(1.7269 0 0 1.67403 330.12 -395.915)"/><path d="m247.67 367.885 4.619 3.295M249.523 363.337l5.192 2.24M250.352 359.101h5.129M249.863 354.868l5.873-1.62" style="fill:none;fill-opacity:1;fill-rule:nonzero;stroke:#f3cc0c;stroke-width:.80000000999999998;stroke-linecap:round;stroke-linejoin:round;stroke-miterlimit:4;stroke-dasharray:none;stroke-opacity:1" transform="matrix(1.7269 0 0 1.67403 330.12 -395.915)"/><path d="m247.582 350.398 21.9-15.63M245.83 347.019l8.941-10.61" style="fill:none;fill-opacity:1;fill-rule:nonzero;stroke:#f3cc0c;stroke-width:1.60000002;stroke-linecap:round;stroke-linejoin:round;stroke-miterlimit:4;stroke-dasharray:none;stroke-opacity:1" transform="matrix(1.7269 0 0 1.67403 330.12 -395.915)"/><path d="m243.46 343.25 4.128-8.015" style="fill:none;fill-opacity:1;fill-rule:nonzero;stroke:#f3cc0c;stroke-width:1.5999999;stroke-linecap:round;stroke-linejoin:round;stroke-miterlimit:4;stroke-dasharray:none;stroke-opacity:1" transform="matrix(1.7269 0 0 1.67403 330.12 -395.915)"/><path d="m245.651 344.032 3.304-5.119M248 347.596l4.62-3.972M241.472 340.55l1.835-5.809" style="fill:none;fill-opacity:1;fill-rule:nonzero;stroke:#f3cc0c;stroke-width:.80000000999999998;stroke-linecap:round;stroke-linejoin:round;stroke-miterlimit:4;stroke-dasharray:none;stroke-opacity:1" transform="matrix(1.7269 0 0 1.67403 330.12 -395.915)"/><path d="m231.499 367.856-9.321 11.581" style="fill:none;fill-opacity:1;fill-rule:nonzero;stroke:#f3cc0c;stroke-width:1.60000002;stroke-linecap:round;stroke-linejoin:round;stroke-miterlimit:4;stroke-dasharray:none;stroke-opacity:1" transform="matrix(1.7269 0 0 1.67403 330.12 -395.915)"/><path d="m229.584 364.494-11.63 6.972" style="fill:none;fill-opacity:1;fill-rule:nonzero;stroke:#f3cc0c;stroke-width:1.5999999;stroke-linecap:round;stroke-linejoin:round;stroke-miterlimit:4;stroke-dasharray:none;stroke-opacity:1" transform="matrix(1.7269 0 0 1.67403 330.12 -395.915)"/><path d="m228.307 361.132-12.13 3.113" style="fill:none;fill-opacity:1;fill-rule:nonzero;stroke:#f3cc0c;stroke-width:1.60000002;stroke-linecap:round;stroke-linejoin:round;stroke-miterlimit:4;stroke-dasharray:none;stroke-opacity:1" transform="matrix(1.7269 0 0 1.67403 330.12 -395.915)"/><path d="m227.285 357.023-13.936-1.868" style="fill:none;fill-opacity:1;fill-rule:nonzero;stroke:#f3cc0c;stroke-width:1.6000001399999999;stroke-linecap:round;stroke-linejoin:round;stroke-miterlimit:4;stroke-dasharray:none;stroke-opacity:1" transform="matrix(1.7269 0 0 1.67403 330.12 -395.915)"/><path d="m228.051 353.162-17.364-8.218" style="fill:none;fill-opacity:1;fill-rule:nonzero;stroke:#f3cc0c;stroke-width:1.60000002;stroke-linecap:round;stroke-linejoin:round;stroke-miterlimit:4;stroke-dasharray:none;stroke-opacity:1" transform="matrix(1.7269 0 0 1.67403 330.12 -395.915)"/><path d="m229.722 350.421-21.837-15.566" style="fill:none;fill-opacity:1;fill-rule:nonzero;stroke:#f3cc0c;stroke-width:1.5999999;stroke-linecap:round;stroke-linejoin:round;stroke-miterlimit:4;stroke-dasharray:none;stroke-opacity:1" transform="matrix(1.7269 0 0 1.67403 330.12 -395.915)"/><path d="m229.711 366.736-5.618 4.358M227.796 362.875l-6.129 2.615M227.03 359.015h-6.129M226.52 354.781l-5.874-1.619" style="fill:none;fill-opacity:1;fill-rule:nonzero;stroke:#f3cc0c;stroke-width:.80000000999999998;stroke-linecap:round;stroke-linejoin:round;stroke-miterlimit:4;stroke-dasharray:none;stroke-opacity:1" transform="matrix(1.7269 0 0 1.67403 330.12 -395.915)"/><path d="m231.576 347.551-9.985-9.626" style="fill:none;fill-opacity:1;fill-rule:nonzero;stroke:#f3cc0c;stroke-width:1.60000002;stroke-linecap:round;stroke-linejoin:round;stroke-miterlimit:4;stroke-dasharray:none;stroke-opacity:1" transform="matrix(1.7269 0 0 1.67403 330.12 -395.915)"/><path d="M232.338 384.675c-.453-3.025 8.966-9.631 2.155-18.903-1.511 3.966 1.749 6.637-2.385 12.15 3.502-8.225-.115-6.516 2.127-13.035 1.062-5.18-1.051-9.04-4.647-11.4.967 9.09-6.12 6.95-5.125 16.375-.579-2.458-.711-4.916-.625-7.375-7.84 12.82.296 11.056 1 22.125.468-.077.772.307.814-.376.165-3.858-.737-5.428-2.027-11.047 1.055 3.612 3.493 6.827 3.125 11.457.64.097.987.084 1.855-.105.262-7.265-4.306-10.836-.917-17.887-1.837 7.452 2.06 11.556 1.937 18.01l.656.001c.058-3.667.219-5.85 1.234-6.979-.41 2.804-.386 4.256-.296 6.984l1.119.005z" style="fill:#f3cc0c;fill-opacity:1;fill-rule:nonzero;stroke:none;stroke-width:.40000001000000002;stroke-linecap:butt;stroke-linejoin:miter;stroke-miterlimit:4;stroke-dasharray:none;stroke-opacity:1" transform="matrix(1.7269 0 0 1.67403 346.525 -415.166)"/><path d="m238.37 426.61-2.614-.011c-.952-16.573-1.224-33.146-6.156-49.719l8.77.011 8.772.012c-4.932 16.572-5.204 33.145-6.156 49.718l-2.615-.01z" style="fill:#f3cc0c;fill-opacity:1;fill-rule:nonzero;stroke:#694a02;stroke-width:.5;stroke-linecap:butt;stroke-linejoin:round;stroke-miterlimit:4;stroke-opacity:1" transform="matrix(1.7269 0 0 1.67403 330.12 -395.915)"/><path d="m238.37 376.837 9.631.083c-2.01-4.16-5.602-4.592-9.63-4.583-4.028-.048-7.62.383-9.63 4.543l9.63-.043zM238.37 437.46c2.99-3.226 3.876-7.307 2.356-7.417-.69-.05-1.624-.06-2.355-.084-.731.014-1.665.025-2.355.074-1.52.11-.634 4.201 2.355 7.426z" style="fill:#f3cc0c;fill-opacity:1;fill-rule:nonzero;stroke:#694a02;stroke-width:.5;stroke-linecap:butt;stroke-linejoin:round;stroke-miterlimit:4;stroke-opacity:1" transform="matrix(1.7269 0 0 1.67403 330.12 -395.915)"/><path d="M238.37 430.63c3.35-.036 4.972-2.38 3.265-3.749-.57-.457-2.662-.32-3.264-.326-.603-.006-2.694-.132-3.264.325-1.707 1.369-.085 3.714 3.264 3.75z" style="fill:#f3cc0c;fill-opacity:1;fill-rule:nonzero;stroke:#694a02;stroke-width:.5;stroke-linecap:butt;stroke-linejoin:round;stroke-miterlimit:4;stroke-opacity:1" transform="matrix(1.7269 0 0 1.67403 330.12 -395.915)"/><path d="M233.861 378.66c.827 5.408 1.296 9.305 1.188 17M242.88 378.66c-.826 5.408-1.295 9.305-1.187 17" style="fill:none;fill-opacity:1;fill-rule:nonzero;stroke:#694a02;stroke-width:.5;stroke-linecap:round;stroke-linejoin:round;stroke-miterlimit:4;stroke-dasharray:none;stroke-opacity:1" transform="matrix(1.7269 0 0 1.67403 330.12 -395.915)"/><path d="M228.87 390.443v40.4" style="fill:#fff700;fill-opacity:1;fill-rule:nonzero;stroke:#694a02;stroke-width:1.39999998;stroke-linecap:round;stroke-linejoin:round;stroke-miterlimit:4;stroke-dasharray:none;stroke-opacity:1" transform="matrix(1.7269 0 0 1.67403 346.525 -415.166)"/><path d="M220.685 386.628h1.364M235.635 386.628h1.363" style="fill:#fff700;fill-opacity:1;fill-rule:nonzero;stroke:#694a02;stroke-width:1;stroke-linecap:round;stroke-linejoin:round;stroke-miterlimit:4;stroke-dasharray:none;stroke-opacity:1" transform="matrix(1.7269 0 0 1.67403 346.525 -415.166)"/></svg>