<svg xmlns="http://www.w3.org/2000/svg" width="550" height="300"><path d="M0 0h550v300H0z" style="opacity:1;vector-effect:none;fill:#fff;fill-opacity:1;stroke:none;stroke-width:6.25138378;stroke-linecap:round;stroke-linejoin:bevel;stroke-miterlimit:4;stroke-dasharray:none;stroke-dashoffset:0;stroke-opacity:1;paint-order:stroke fill markers"/><path d="M0 200h550v100H0z" style="opacity:1;vector-effect:none;fill:#f33;fill-opacity:1;stroke:none;stroke-width:3.60923815;stroke-linecap:round;stroke-linejoin:bevel;stroke-miterlimit:4;stroke-dasharray:none;stroke-dashoffset:0;stroke-opacity:1;paint-order:stroke fill markers"/><path d="M0 0h550v100H0z" style="opacity:1;vector-effect:none;fill:#096;fill-opacity:1;stroke:none;stroke-width:3.60923815;stroke-linecap:round;stroke-linejoin:bevel;stroke-miterlimit:4;stroke-dasharray:none;stroke-dashoffset:0;stroke-opacity:1;paint-order:stroke fill markers"/><path d="M274.752 104.28a42.5 42.5 0 0 0-42.5 42.5 42.5 42.5 0 0 0 42.5 42.5 42.5 42.5 0 0 0 42.287-38.24 34.84 34.84 0 0 1-34.133 27.86 34.84 34.84 0 0 1-34.84-34.84 34.84 34.84 0 0 1 34.84-34.84 34.84 34.84 0 0 1 23.024 8.731 42.5 42.5 0 0 0-31.178-13.672z" style="opacity:1;vector-effect:none;fill:gold;fill-opacity:1;stroke:none;stroke-width:2.12194347;stroke-linecap:round;stroke-linejoin:bevel;stroke-miterlimit:4;stroke-dasharray:none;stroke-dashoffset:0;stroke-opacity:1;paint-order:stroke fill markers"/><path d="m296.137 153.75-6.042-5.801-6.26 5.566.769-8.34-8.255-1.423 7-4.6-4.034-7.34 7.96 2.604 3.224-7.73 2.927 7.847 8.055-2.3-4.311 7.182 6.82 4.863-8.303 1.107z" style="opacity:1;vector-effect:none;fill:gold;fill-opacity:1;stroke:none;stroke-width:1.16960931;stroke-linecap:round;stroke-linejoin:bevel;stroke-miterlimit:4;stroke-dasharray:none;stroke-dashoffset:0;stroke-opacity:1;paint-order:stroke fill markers"/><path d="M216.614 509.393a.518.518 0 0 1 .199-.109c.171 0 .765-.301.956-.486a2.4 2.4 0 0 1 .436-.327c.438-.234.768-.456 1.008-.68.135-.126.417-.355.626-.51.21-.154.565-.481.79-.726.224-.245.515-.552.646-.682a3.74 3.74 0 0 0 .88-1.454c.131-.415.146-.524.107-.798-.099-.701-.528-1.287-1.198-1.634a7.63 7.63 0 0 1-.572-.323 2.96 2.96 0 0 0-.571-.243c-1.137-.366-1.328-.414-1.655-.414-.596 0-.656.168-.525 1.48.055.545.056.893.005 1.66-.07 1.07-.122 1.355-.307 1.68-.068.12-.164.374-.213.565-.1.392-.406 1.185-.767 1.994-.248.556-.282.73-.188.976.064.168.158.177.343.031zm8.661-6.642a.933.933 0 0 0 .173-.33c.02-.092.136-.262.256-.378.176-.169.235-.277.298-.552.056-.24.133-.403.26-.542.099-.11.232-.34.296-.51l.116-.309-.114-.256c-.08-.18-.204-.324-.422-.489-.337-.254-.703-.54-1.126-.881a7.324 7.324 0 0 0-1.131-.763 3.172 3.172 0 0 1-.524-.357 1.74 1.74 0 0 0-.397-.267 2.27 2.27 0 0 1-.442-.289 2.132 2.132 0 0 0-.524-.307c-.149-.053-.3-.134-.338-.178a1.18 1.18 0 0 0-.289-.193 6.223 6.223 0 0 1-.544-.33 4.692 4.692 0 0 0-.696-.372 3.53 3.53 0 0 1-.528-.264c-.085-.06-.356-.184-.602-.275a5.577 5.577 0 0 1-.673-.296 2.96 2.96 0 0 0-.554-.225c-.18-.051-.552-.2-.828-.331-.275-.131-.545-.238-.599-.238a.757.757 0 0 0-.282.112c-.18.11-.183.117-.146.395.044.327.29.94.496 1.239.078.113.19.394.25.624.059.23.156.486.217.568.089.12.123.305.18.964.04.449.1.869.134.934.068.127.326.283.468.283.147 0 1.443.437 1.961.661.27.117.736.334 1.036.483.3.15.572.272.604.272.032 0 .23.12.44.268.21.148.478.308.594.356.117.049.31.182.43.297.12.114.365.31.545.434.557.385.755.545.953.77.129.146.287.25.49.321.397.14.404.138.562-.05zm-64.632-3.945c.252-.105.298-.216.335-.805a5.79 5.79 0 0 1 .13-.888c.055-.21.114-.58.132-.823.019-.244.118-.783.221-1.198.103-.416.226-1.06.273-1.433.048-.372.133-.782.19-.911a2.18 2.18 0 0 0 .138-.494c.076-.571.314-1.671.441-2.043.074-.217.206-.717.293-1.111s.217-.836.29-.98c.074-.145.185-.428.246-.628.062-.2.16-.458.218-.572.058-.114.18-.42.272-.68.092-.26.23-.598.308-.75a7.08 7.08 0 0 0 .28-.672 5.3 5.3 0 0 1 .294-.665c.084-.15.194-.42.244-.599.05-.18.173-.45.274-.599.1-.15.23-.425.289-.611a1.79 1.79 0 0 1 .246-.506c.077-.092.192-.34.254-.55.074-.246.179-.454.295-.583.103-.114.243-.376.326-.609.209-.588.568-1.303.767-1.528.123-.14.191-.292.239-.535.056-.284.11-.387.332-.633.199-.219.295-.387.38-.66.062-.2.139-.397.17-.435.075-.09.017-.273-.103-.32-.051-.02-.296-.034-.544-.032-.372.003-.5.029-.73.146-.17.086-.626.213-1.156.323-.482.099-.986.229-1.12.288-.136.06-.43.137-.654.172-.225.035-.789.158-1.253.273-1.53.379-2.131.471-3.54.545-1.022.053-2.3-.002-3.215-.14-.755-.113-.87-.104-1.137.09a1.011 1.011 0 0 0-.422.964c.051.5-.136 1.847-.317 2.281-.044.104-.156.5-.249.878-.093.379-.217.782-.276.897a7.254 7.254 0 0 0-.266.661c-.214.608-1.243 2.596-1.466 2.834a1.56 1.56 0 0 0-.21.357c-.06.135-.23.397-.382.584-.15.186-.288.384-.306.439-.017.055-.166.216-.33.358-.404.349-.595.68-.556.965.043.322.161.46.553.648.194.092.421.225.505.295.083.07.323.24.533.38.21.138.528.362.707.497.18.134.396.287.48.34.085.052.269.174.409.27.14.095.433.275.65.4.218.124.426.268.463.32.037.053.178.164.313.249.135.084.38.283.544.442.165.16.613.59.997.958.383.368.761.78.84.914.079.135.243.357.365.493.453.508.586.675.685.864.055.108.204.318.33.468.126.15.276.382.334.517.058.135.152.295.21.357.101.108.58.843.88 1.352.163.275.25.303.557.174zm2.893-1.256c.278-.224.57-.49.648-.593.078-.102.245-.254.371-.337.126-.083.324-.258.44-.389.116-.13.284-.276.374-.322.09-.047.326-.251.525-.455.198-.203.459-.422.579-.486.12-.064.475-.3.79-.525.314-.225.671-.455.794-.51a4.17 4.17 0 0 0 .516-.302 3.49 3.49 0 0 1 .485-.283c.106-.044.255-.14.333-.215.095-.09.29-.17.592-.243.247-.059.628-.178.846-.266.25-.1.795-.23 1.478-.353.595-.106 1.167-.22 1.272-.25.105-.03.607-.094 1.116-.141.803-.074 1.103-.076 2.253-.017.916.048 1.354.052 1.415.013a.81.81 0 0 0 .19-.228c.096-.163.097-.198.018-.648a12.648 12.648 0 0 1-.118-.877 2.79 2.79 0 0 0-.092-.545c-.211-.534-.321-4.808-.15-5.806.027-.15.147-.902.268-1.671.122-.77.28-1.582.354-1.805.072-.223.206-.726.297-1.118.09-.392.224-.855.297-1.028.072-.172.158-.456.19-.63.032-.173.107-.426.167-.562.06-.135.125-.367.145-.516.04-.3-.03-.424-.327-.577-.13-.068-.228-.072-.572-.024-.468.065-1.618.154-2.595.2-1.108.052-3.429-.072-4.203-.224-.779-.154-.981-.162-1.253-.048-.292.122-.384.224-.614.682-.114.226-.25.446-.302.49-.116.096-.22.335-.297.686-.032.145-.128.35-.213.457a3.245 3.245 0 0 0-.33.613c-.095.23-.198.434-.227.452-.03.018-.137.215-.238.438a3.736 3.736 0 0 1-.292.542c-.06.075-.161.3-.227.501a5.55 5.55 0 0 1-.324.746c-.112.21-.235.479-.272.599-.037.12-.163.393-.28.608a5.684 5.684 0 0 0-.32.704c-.06.172-.168.415-.24.54a6.1 6.1 0 0 0-.304.657c-.094.237-.202.48-.24.54-.038.06-.157.342-.264.627-.107.284-.254.652-.327.816a7.22 7.22 0 0 0-.253.708 2.965 2.965 0 0 1-.256.615c-.074.114-.18.387-.234.608-.055.22-.174.556-.264.746-.09.19-.192.493-.228.672-.11.558-.232.97-.366 1.24a3.13 3.13 0 0 0-.204.653c-.042.217-.164.682-.27 1.034-.195.64-.303 1.181-.414 2.07-.033.262-.11.593-.171.735-.064.15-.144.532-.188.904-.042.356-.1.731-.128.835a.615.615 0 0 0-.02.28c.032.091.287.39.333.39.013 0 .252-.183.53-.407z" style="fill:#fff;stroke-width:.05445545" transform="translate(-36.492 -219.775) scale(.97478)"/><path d="M228.996 497.556a.536.536 0 0 0 .128-.284c0-.293.293-1.423.436-1.683.098-.177.183-.463.244-.817.084-.488.226-.944.585-1.879.07-.181.189-.362.303-.459.103-.087.221-.24.263-.339a.605.605 0 0 1 .237-.263.697.697 0 0 0 .252-.26c.05-.097.174-.274.277-.394.246-.288.627-.871.827-1.267.088-.176.198-.35.244-.388.045-.038.149-.244.23-.46.08-.214.201-.451.269-.526.158-.176.254-.375.408-.844.069-.21.19-.529.27-.708.166-.372.25-.683.356-1.307.04-.24.126-.68.19-.98.106-.487.114-.643.082-1.47-.026-.676-.071-1.08-.166-1.498a29.752 29.752 0 0 1-.27-1.416c-.112-.678-.175-.914-.321-1.198-.1-.195-.237-.51-.304-.7a2.906 2.906 0 0 0-.25-.535 2.868 2.868 0 0 1-.243-.498 1.689 1.689 0 0 0-.269-.473 2.353 2.353 0 0 1-.303-.462 2.865 2.865 0 0 0-.27-.445c-.257-.306-.67-1.277-.924-2.17-.255-.892-.361-1.14-.571-1.33-.105-.096-.125-.096-.451-.007-.509.139-.804.254-1.08.422-.138.083-.493.215-.79.293-.298.078-.632.204-.743.28-.11.075-.393.192-.628.26a5.817 5.817 0 0 0-.822.323c-.217.11-.522.223-.678.252a2.546 2.546 0 0 0-.584.208 4.37 4.37 0 0 1-.816.277 5.329 5.329 0 0 0-.898.305c-.21.101-.59.224-.845.274-.254.05-.585.157-.735.239-.196.107-.418.167-.79.214a6.193 6.193 0 0 0-1.039.247c-.287.1-.704.211-.926.248-.222.036-.734.147-1.139.246-1.27.313-2.546.43-4.737.432-1.75.002-1.956-.008-2.995-.148-.614-.082-1.22-.188-1.347-.234-.51-.189-1.837-.473-2.012-.432-.218.052-.491.48-.992 1.552-.273.583-.496 1.083-.496 1.111 0 .028-.097.261-.216.52a4.982 4.982 0 0 0-.298.861 2.9 2.9 0 0 1-.244.68 4.413 4.413 0 0 0-.298.78 4.381 4.381 0 0 1-.272.735 2.327 2.327 0 0 0-.197.596 3.823 3.823 0 0 1-.22.713c-.087.198-.235.688-.329 1.09-.094.4-.241.962-.327 1.246-.086.285-.204.812-.263 1.171-.124.761-.249 1.36-.363 1.743-.045.15-.117.606-.16 1.015a15.28 15.28 0 0 1-.15 1.09c-.086.41-.039.63.185.869.142.152.168.16.44.125.159-.02.383-.085.498-.142.115-.058.445-.152.735-.209.29-.057.627-.14.75-.184.734-.265 4.593-.497 6.066-.365l1.334.118c.36.032.813.105 1.007.163.195.058.678.167 1.074.244.443.085.93.222 1.265.357.3.12.699.244.887.276.188.032.47.129.626.215.157.087.475.21.708.273.233.064.558.183.723.265.164.082.483.204.707.271.225.068.507.179.627.247s.39.18.599.247c.21.068.52.193.692.278.17.086.501.219.735.297.233.077.534.21.67.295.134.084.37.19.523.235.312.091.522.192.816.392.11.074.366.185.569.245.203.06.488.192.634.292.146.1.421.24.612.31.19.069.41.179.488.244.078.065.297.175.486.244.19.068.441.195.56.28.118.086.343.204.5.263.156.058.419.194.584.302.274.18.326.194.62.174.268-.018.343-.046.45-.17z" style="fill:#fff;stroke-width:.05445545" transform="translate(-36.492 -219.775) scale(.97478)"/><path d="M270.646 493.846c.539-.05 1.164-.136 1.389-.193.225-.056.727-.14 1.116-.189 1.113-.136 1.611-.226 1.918-.347.157-.062.635-.176 1.062-.253.428-.078.887-.19 1.022-.251.135-.06.662-.193 1.171-.293.51-.101 1.078-.246 1.265-.322.186-.077.634-.202.994-.278.36-.076.768-.186.907-.246.138-.06.646-.18 1.13-.267.482-.088 1.049-.22 1.259-.294.459-.162.55-.178 1.53-.278a9.122 9.122 0 0 0 1.17-.19c.222-.062.82-.15 1.33-.196l1.85-.167c1.887-.17 6.23-.15 7.76.036.225.027.753.074 1.173.103.42.029 1.07.114 1.443.19.374.075 1.083.19 1.577.253.607.079 1.038.167 1.334.272.393.14 1.165.306 1.907.41.15.021.442.096.649.166.207.07.834.214 1.393.32s1.199.24 1.42.3c.223.061.76.159 1.194.218.434.059.985.156 1.225.217.24.06.668.136.953.167.285.03.8.091 1.144.135 2.441.308 7.973.14 10.101-.307a20.276 20.276 0 0 1 2.327-.32c.425-.034.722-.087.885-.16.135-.06.605-.16 1.049-.223a25.552 25.552 0 0 0 1.32-.223 29.298 29.298 0 0 1 2.315-.408c.36-.047 1.044-.17 1.52-.274.478-.105 1.151-.226 1.498-.27.347-.044.79-.13.985-.19.34-.104 2.522-.386 3.594-.463.284-.02.617-.071.74-.112.3-.1 2.704-.238 4.133-.237 1.413 0 4.197.133 4.392.208.08.03.496.095.926.143.43.048 1.075.126 1.435.172.36.047.825.105 1.034.13.21.023.541.08.736.124.194.045.537.111.762.147.225.036.776.147 1.225.247.45.1 1.172.233 1.607.296.434.063.973.15 1.198.193 1.422.272 1.977.365 2.777.465.494.062 1.058.148 1.252.19 2.18.48 10.244.527 12.96.076.333-.055 2.907-.35 3.834-.438.326-.031.707-.101.846-.156.166-.066.534-.121 1.068-.161.8-.06 1.653-.157 1.714-.195.075-.046 1.877-.353 2.395-.407.837-.088 1.511-.202 2.082-.35.278-.072.897-.17 1.376-.22.763-.079 1.75-.25 1.869-.324.045-.027 1.612-.22 3.631-.448 1.707-.192 4.016-.24 5.157-.107.41.047.937.087 1.171.087.234 0 .572.024.751.052.18.03.785.09 1.344.137.56.046 1.27.12 1.58.164.309.044.709.081.888.082.18.001.499.04.708.086.59.128.89.174 2.143.322.64.076 1.35.185 1.58.244.417.106 1.372.236 2.24.303.255.02.735.082 1.068.14 1.446.246 1.872.274 4.732.304 2.963.03 5.381-.06 6.12-.231.192-.045.596-.106.899-.136 2.48-.25 3.179-.34 3.405-.44.16-.069.474-.123.926-.16 1.019-.082 1.871-.202 2.481-.35.3-.072.79-.157 1.09-.19.714-.077 2.1-.305 2.66-.437.244-.058.91-.166 1.482-.24.57-.075 1.22-.185 1.443-.245.222-.06.87-.172 1.44-.247.568-.076 1.169-.175 1.333-.22.457-.128.853-.179 2.07-.269 3.902-.288 6.772-.295 11.163-.026.82.05 1.516.128 3.812.424.472.061 1.572.24 2.21.362.243.045 1.187.18 2.097.299.91.118 1.936.265 2.279.326.342.06 1.026.135 1.52.165.493.03 1.046.076 1.228.104.183.028.528.066.767.084.24.018.791.073 1.226.122 1.147.13 4.217.132 5.01.005.314-.05.718-.106.898-.124 1.065-.105 2.59-.353 2.903-.471.072-.028.526-.137 1.01-.243.513-.113.992-.253 1.151-.335.15-.078.454-.174.675-.213.222-.04.544-.145.716-.234a4.28 4.28 0 0 1 .718-.272c.524-.14.68-.201.841-.328.073-.058.365-.182.65-.276a5.11 5.11 0 0 0 .824-.358c.169-.102.337-.185.373-.185.035 0 .19-.086.343-.192.153-.105.412-.241.577-.303.164-.061.395-.192.513-.29.117-.098.362-.234.544-.302.181-.068.389-.182.46-.253.07-.071.31-.212.533-.314.222-.1.438-.225.48-.276.043-.051.167-.139.276-.194.109-.056.3-.187.425-.291.126-.105.302-.207.392-.227a.871.871 0 0 0 .34-.212c.447-.447.64-.675.64-.756 0-.093-.247-.3-.518-.433-.186-.092-1.039-.346-1.524-.454a7.096 7.096 0 0 1-.654-.186 7.7 7.7 0 0 0-.993-.22c-.367-.06-.77-.147-.899-.195a19.236 19.236 0 0 0-1.24-.403 4.501 4.501 0 0 1-.734-.3 3.097 3.097 0 0 0-.55-.24 2.468 2.468 0 0 1-.547-.268 3.667 3.667 0 0 0-.69-.332 2.907 2.907 0 0 1-.678-.353c-.28-.207-.606-.398-1.442-.846-.143-.076-.535-.288-.872-.472a7.45 7.45 0 0 0-.994-.456 5.398 5.398 0 0 1-.762-.328 3.898 3.898 0 0 0-.756-.3c-.206-.05-.5-.15-.654-.22-.153-.07-.572-.179-.932-.243-.359-.063-.849-.16-1.089-.215-1.453-.334-2.64-.396-6.67-.351-3.556.04-4.924-.006-5.8-.194-.27-.058-.98-.205-1.58-.326-.598-.122-1.177-.27-1.286-.329-.108-.059-.427-.154-.708-.21a6.972 6.972 0 0 1-.885-.246 8.67 8.67 0 0 0-1.09-.283 31.215 31.215 0 0 1-1.23-.268c-.638-.158-2.435-.462-2.733-.462-.12 0-.651-.064-1.18-.142-.937-.139-1.013-.142-3.03-.117-1.933.024-2.088.034-2.348.139-.181.073-.466.124-.817.146-1.398.088-3.018.31-3.44.47-.08.03-.49.104-.91.162-.42.06-.985.166-1.257.238-.534.142-1.342.297-2.274.439-.325.049-.691.125-.814.168-.402.142-.869.23-1.863.349-.54.065-1.155.162-1.369.217-.912.235-4.553.493-6.881.488a77.256 77.256 0 0 1-6.181-.273c-1.356-.12-1.781-.17-2.56-.297a33.366 33.366 0 0 0-1.66-.218 19.245 19.245 0 0 1-1.498-.215c-.36-.072-.764-.145-.898-.162-1.37-.177-2.326-.326-2.642-.413-.21-.057-.822-.167-1.36-.244-.54-.077-1.324-.21-1.744-.298a39.564 39.564 0 0 0-1.715-.302 37.31 37.31 0 0 1-1.688-.3 15.623 15.623 0 0 0-1.334-.214l-1.362-.138c-.419-.042-.995-.125-1.28-.185-.935-.196-1.944-.251-4.519-.245-2.623.006-3.891.069-4.82.24-.327.06-.926.133-1.332.164-1.042.078-2.732.26-3.024.325-.43.096-1.983.319-2.859.41a19.84 19.84 0 0 0-1.367.188c-.289.056-.73.117-.98.136-.252.018-.678.068-.947.11-.27.043-.821.105-1.225.139a19.62 19.62 0 0 0-1.199.135c-1.914.309-3.38.415-6.153.446-1.851.021-2.367.008-3.7-.093-1.16-.089-1.678-.151-2.069-.25a21.355 21.355 0 0 0-1.637-.296c-.614-.089-1.374-.236-1.688-.326a15.94 15.94 0 0 0-1.334-.297c-.42-.073-.873-.172-1.008-.22-.314-.112-.61-.178-1.102-.246a9.34 9.34 0 0 1-.967-.213c-.314-.087-1.05-.223-1.634-.301a26.4 26.4 0 0 1-1.797-.308c-.734-.164-1.403-.244-3.349-.402a29.21 29.21 0 0 1-1.388-.14c-1.803-.28-9.49-.28-11.16.001-.347.058-.801.12-1.011.137-1.782.145-2.856.268-3.349.383-.315.074-.988.184-1.498.245-1.042.125-1.816.251-2.017.328-.159.06-.86.175-1.849.303-.438.056-.827.14-1.02.22-.246.102-.481.142-1.09.183-.834.056-2.594.279-3.244.41-.382.076-.93.127-2.636.244-1.028.07-3.358.069-4.736-.003-1.066-.056-2.491-.23-3.284-.4-.21-.045-.813-.131-1.34-.191-.725-.083-1.006-.136-1.148-.22-.17-.1-1.084-.314-1.748-.409-.143-.02-.55-.119-.905-.219-.353-.1-.836-.212-1.073-.25a4.694 4.694 0 0 1-.825-.225c-.272-.108-.681-.2-1.307-.292-.501-.074-1.083-.195-1.292-.269a6.385 6.385 0 0 0-.976-.219 6.976 6.976 0 0 1-.629-.107 7.586 7.586 0 0 0-.658-.11 9.87 9.87 0 0 1-.896-.166c-.417-.115-.905-.183-1.77-.244-.434-.03-.918-.092-1.074-.137-.274-.078-.592-.11-2.465-.254-.49-.037-1.928-.063-3.43-.062-2.893.003-2.646-.016-6.372.483-.554.074-1.17.183-1.366.243-.438.132-.937.238-1.657.353-.333.054-.647.141-.81.226a3.057 3.057 0 0 1-.716.217c-.605.105-1.156.25-1.951.509-.364.119-1.114.356-1.669.526-.554.17-1.1.357-1.216.414-.114.058-.433.153-.708.213-.274.06-.632.17-.795.243-.163.075-.592.207-.953.293-.361.087-.82.22-1.019.295-.199.076-.72.201-1.158.28-.438.077-1.013.212-1.278.3a5.09 5.09 0 0 1-1.13.218c-.355.033-.977.098-1.381.145-2.394.278-7.895.297-13.505.047a457.59 457.59 0 0 0-3.43-.138c-2.47-.088-5.024-.213-5.61-.274a60.88 60.88 0 0 0-2.096-.136 70.466 70.466 0 0 1-2.124-.134c-.3-.03-1.035-.069-1.634-.087-.678-.021-1.335-.075-1.742-.143l-.831-.137c-.253-.04-.357.063-.313.307.065.366.359.75 1.044 1.372.366.331.673.621.682.644.01.023.183.182.386.354.204.172.449.43.545.572.096.143.285.345.42.449.285.218.725.624 1.17 1.08.09.091.404.392.698.668.294.275.772.736 1.062 1.023.29.287.577.549.637.581.06.032.158.153.218.268a.66.66 0 0 0 .285.286c.097.042.19.12.206.172a.404.404 0 0 0 .109.16c.093.077 1.198.194 2.579.271.55.032 1.019.068 1.04.081.04.025 1.966.162 3.05.217.345.017 1.546.056 2.669.086 2.465.067 4.927.189 5.963.296.419.043 1.656.104 2.75.135 1.093.03 2.82.087 3.839.124 2.433.09 7.877.088 8.576-.003.85-.11 1.374-.227 1.634-.363.165-.087.413-.148.762-.187.598-.068.861-.134 1.105-.278.097-.056.466-.165.822-.242a17 17 0 0 0 1.252-.33 8.85 8.85 0 0 1 1.101-.265c.323-.048.646-.141.926-.267.237-.106.627-.234.866-.286.24-.051.58-.153.757-.227.38-.158 1.097-.32 1.71-.39.311-.034.483-.083.587-.164.19-.149.417-.208 1.203-.31.427-.056.74-.129.927-.217.357-.168.815-.272 1.538-.347.424-.045.625-.093.79-.19.314-.183.533-.232 1.61-.356.524-.06 1.112-.16 1.306-.221.25-.08.729-.143 1.634-.215 2.057-.166 2.865-.18 5.067-.09 2.264.093 3.002.161 3.387.312.143.056.545.139.893.184.74.097 1.15.187 1.71.375.223.075.712.186 1.087.248.476.08.778.162 1.007.275.18.09.437.177.572.195.562.074 1.129.207 1.386.324.151.069.544.178.874.242.927.18 1.076.22 1.27.333.1.059.418.142.714.186.705.106 1.124.206 1.433.343.285.126.676.192 1.865.313.45.046 1.074.145 1.389.222.983.238 2.364.306 5.581.276 3.008-.029 4.208-.092 4.928-.261.51-.12.883-.168 2.26-.294.51-.046 1.098-.131 1.307-.189.347-.095.992-.213 2.097-.383.224-.035.647-.123.94-.196.292-.072 1.15-.205 1.905-.295s1.608-.221 1.892-.292c.285-.07.726-.145.98-.166.255-.02.66-.06.9-.087.239-.028.864-.088 1.388-.133a18.01 18.01 0 0 0 1.389-.168c1.458-.284 6.914-.234 9.08.084.412.06 1 .124 1.307.141.307.017.79.065 1.075.105.285.04.737.09 1.004.11.268.021.611.074.763.117.695.2.92.24 1.582.292.39.03.867.103 1.062.161.554.167 1.054.262 1.879.357.83.096 1.381.2 1.767.33.32.11 1.01.16 3.678.27 3.925.163 13.418-.018 14.213-.272.292-.092 1.702-.253 3.368-.384.565-.044 1.116-.104 1.225-.133.366-.096 1.817-.275 2.702-.333.48-.031 1.07-.083 1.31-.115l.789-.103c.61-.076 3.526-.117 4.356-.06.435.029 1.207.09 1.716.138.509.046 1.244.11 1.633.14 1.154.092 1.704.16 2.424.301.374.073 1.195.199 1.824.279.629.08 1.266.18 1.416.22.55.153 1.058.232 2.069.322.724.065 1.15.13 1.416.218.225.073.66.15 1.062.187 1.258.115 2.42.278 2.917.411.346.093.76.149 1.388.188.492.03.956.067 1.031.081.075.015.602.065 1.171.111.57.046 1.182.106 1.362.132.882.13 2.551.18 5.146.154 2.092-.022 2.823-.048 3.267-.116.68-.104 1.875-.226 3.294-.335.943-.073 1.727-.189 2.016-.299.215-.082 1.153-.217 2.041-.295.569-.05 1.029-.121 1.253-.194.23-.074.805-.161 1.634-.247 1.514-.157 1.602-.17 2.094-.303a9.75 9.75 0 0 1 1.034-.188 46.822 46.822 0 0 0 2.426-.381c.455-.089 1-.15 2.369-.27.96-.083 1.27-.13 1.83-.274.183-.048.654-.108 1.048-.135.394-.027.79-.063.88-.079.21-.038 1.557-.127 2.925-.193.799-.039 1.127-.075 1.28-.144.175-.078.525-.097 2.395-.134 2.316-.046 6.21.016 6.85.109.547.08 2.53.316 3.475.416.854.09 1.064.124 1.59.263.179.047.626.123.992.168 1.038.127 1.7.24 2.057.354.18.057.804.181 1.388.275.583.094 1.196.22 1.36.278.166.058.546.132.846.164.587.062 1.516.24 1.824.348.174.06.53.127 1.611.299.212.034.518.122.679.197.16.074.465.157.676.184.672.087 1.538.271 1.891.404.189.071.564.157.833.19.831.101 1.056.203.981.44-.083.26-.2.274-1.185.132-.56-.081-1.107-.196-1.416-.3a7.083 7.083 0 0 0-1.083-.243 5.315 5.315 0 0 1-.953-.217c-.593-.223-.667-.239-1.726-.375-.666-.086-1.092-.168-1.264-.244-.158-.07-.632-.169-1.217-.253-1.151-.167-1.318-.202-1.656-.352-.18-.079-.453-.13-.87-.163-.918-.071-1.779-.197-2.197-.32-.206-.06-.852-.174-1.436-.25-.584-.078-1.343-.2-1.688-.272-.896-.186-1.267-.234-2.341-.3a85.846 85.846 0 0 1-1.552-.11c-1.3-.11-4.23-.166-5.827-.11-2.544.088-2.898.103-3.758.157-.449.028-1.38.08-2.069.114-.946.048-1.392.095-1.824.193-.53.12-1.343.214-3.13.358-.48.039-.786.092-.948.163-.181.08-.596.14-1.689.243-1.825.171-1.814.17-2.565.357-.344.086-1.043.206-1.552.267-.828.099-1.625.23-2.851.468-.22.043-.515.078-.654.078-.455 0-1.606.157-1.945.265-.42.134-.868.2-2.228.33-.6.058-1.31.154-1.58.213-.715.158-1.46.223-3.193.281-2.027.068-4.434.067-6.39 0-1.875-.066-2.713-.134-3.377-.274-.62-.13-1.149-.196-2.178-.27-.985-.073-1.455-.138-1.96-.274-.441-.118-1.025-.199-1.797-.247-.3-.02-.68-.067-.844-.106a7.285 7.285 0 0 0-.572-.108c-.15-.02-.468-.082-.708-.137a7.706 7.706 0 0 0-.79-.135c-.71-.07-2.163-.3-2.379-.376-.264-.093-.798-.175-1.65-.252-1.307-.118-2.164-.229-2.533-.327-1.04-.275-6.77-.406-8.821-.2-.48.047-1.051.102-1.27.12-.22.019-.583.082-.81.141-.39.103-1.382.2-3.285.321-.464.03-.98.089-1.143.132-.77.2-1.96.313-4.302.413-.793.033-2.3.11-3.349.17-1.048.061-2.972.124-4.275.14-2.28.03-2.702.016-4.655-.148-.36-.03-1.115-.08-1.678-.11-1.408-.076-2.377-.215-2.833-.406-.114-.047-.579-.133-1.034-.191-1.36-.173-1.611-.214-1.808-.296-.103-.043-.464-.116-.801-.163-1.335-.183-2.27-.297-2.738-.334-.27-.021-.605-.083-.747-.138-.261-.102-.685-.138-3.146-.268-.584-.03-1.344-.079-1.688-.107-1.62-.134-3.806-.114-5.881.054-.345.027-1.215.088-1.934.134-1.003.064-1.433.115-1.851.22-.326.081-.998.18-1.676.245-1.229.118-1.928.22-2.618.38-.459.106-.935.169-2.105.278-.504.047-.744.096-.928.188-.186.093-.521.159-1.358.267-.612.08-1.358.192-1.659.249-1.101.21-1.73.275-3.678.38-3.222.172-3.62.182-4.684.117-.554-.034-1.46-.087-2.014-.117-1.577-.087-2.22-.16-2.682-.307-.234-.074-.747-.169-1.145-.213-.857-.094-1.183-.154-1.728-.322a7.821 7.821 0 0 0-.599-.162c-.606-.115-1.907-.432-2.07-.503-.104-.046-.44-.128-.745-.182a4.775 4.775 0 0 1-.871-.239c-.174-.076-.623-.203-.997-.28-.374-.078-.789-.19-.92-.247-.239-.105-.933-.262-1.667-.377a7.28 7.28 0 0 1-.816-.192c-.24-.073-.996-.219-1.68-.324-.683-.105-1.266-.205-1.295-.222-.09-.056-2.047-.185-3.37-.222-1.376-.038-2.99.039-3.703.176-.416.08-.538.095-2.39.296-.723.078-1.188.157-1.47.25-.487.16-.951.262-1.572.346-.248.034-.607.12-.8.193-.192.073-.7.196-1.13.275-.456.084-.935.21-1.157.303-.208.089-.699.224-1.09.3-.39.078-.845.197-1.01.265-.164.069-.568.178-.898.243-.339.068-.748.19-.942.284-.203.098-.611.218-1.005.297-.365.072-.799.194-.964.27-.19.086-.514.166-.873.213-.596.08-.841.146-1.117.304-.182.104-.876.272-1.66.402-.285.047-.642.147-.793.222-.225.11-.406.145-.98.187-.852.062-1.47.144-1.892.252-.21.053-.647.084-1.307.092-1.453.016-4.503-.062-4.71-.122-.259-.074-1.109-.108-4.15-.168-3.784-.075-5.913-.147-7.14-.242a72.085 72.085 0 0 0-3.234-.194c-3.007-.132-6.729-.358-7.164-.435-.528-.093-.713-.069-1.119.145-.206.11-.474.293-.593.409-.12.115-.329.316-.463.447a2.33 2.33 0 0 1-.42.327.634.634 0 0 0-.234.198c-.031.06-.192.194-.357.3a4.704 4.704 0 0 0-.53.401 2.34 2.34 0 0 1-.394.295.654.654 0 0 0-.242.226.828.828 0 0 1-.254.253 1.09 1.09 0 0 0-.295.3.948.948 0 0 1-.316.29c-.109.057-.402.301-.65.544-.249.242-.477.44-.506.44-.06 0-.424.321-.813.716-.136.139-.36.323-.497.41-.235.149-.37.268-1.044.917-.398.382-.684.62-.856.709a.821.821 0 0 0-.263.27.744.744 0 0 1-.359.3c-.166.07-.255.146-.277.235-.043.173.098.502.251.584.067.036.419.086.78.11.363.025 1.125.083 1.694.13.57.045 1.378.084 1.797.085.42.001.983.025 1.253.053.27.027 1.213.078 2.096.111.884.033 1.827.085 2.097.114.775.085 1.97.14 7.65.35 1.244.046 2.996.107 3.894.137.899.029 1.769.076 1.933.103.165.028.986.078 1.825.112 4.436.178 10.671.191 12.47.027zm-71.005-1.688c.089-.136.109-.259.265-1.66.045-.405.154-1.055.242-1.444.088-.39.212-.982.275-1.317.063-.335.176-.748.251-.918.075-.17.184-.582.241-.916.112-.653.182-.892.338-1.157.055-.093.15-.395.21-.671.06-.277.17-.623.244-.77.075-.146.2-.493.277-.771.078-.278.224-.653.324-.835.1-.182.23-.51.292-.731.061-.22.177-.5.256-.62.08-.122.19-.39.243-.598.064-.249.15-.434.255-.546.088-.093.216-.33.285-.524.07-.194.22-.54.335-.768.115-.229.209-.455.209-.504 0-.048.049-.217.109-.374.06-.158.109-.317.109-.354 0-.037-.1-.118-.224-.181-.22-.112-.237-.112-.83-.03-.334.046-.815.1-1.07.12-.255.02-.61.085-.79.145-.277.091-.584.116-2.034.166-1.499.05-1.831.046-2.72-.036-.74-.069-1.117-.13-1.397-.226a9.677 9.677 0 0 0-.607-.189 1.639 1.639 0 0 1-.432-.197c-.174-.118-.244-.135-.442-.105-.31.046-.533.242-.64.56a2.712 2.712 0 0 1-.283.541 2.367 2.367 0 0 0-.292.663c-.053.208-.172.51-.262.67-.091.16-.208.437-.26.617-.051.18-.16.473-.242.653-.082.18-.2.527-.262.772a6.375 6.375 0 0 1-.28.828c-.092.21-.24.701-.328 1.092-.089.39-.211.807-.272.926-.128.25-.308 1.457-.494 3.298-.118 1.17-.12 1.237-.042 2.894.086 1.853.094 1.89.43 2.063.154.08.19.079.503-.022a6.26 6.26 0 0 1 .52-.145c.1-.02.29-.084.422-.142.46-.204 1.025-.282 1.995-.277.959.007 1.562.087 2.143.287.177.06.53.16.784.22.656.155.983.266 1.167.395.222.156.59.246 1.023.25.333.003.375-.009.456-.132zm-18.422-.35c.192-.073 1.654-.315 2.353-.39.77-.082 2.123-.032 3.05.112.775.12 1.338.141 1.498.055.155-.082.234-.451.185-.868a10.214 10.214 0 0 1-.05-.792c-.005-.24-.04-.827-.08-1.307-.084-1.045-.056-1.701.156-3.566.127-1.115.19-1.486.322-1.88.09-.269.218-.722.283-1.007.066-.284.18-.626.252-.76.073-.132.193-.456.267-.717.073-.262.222-.692.331-.956.109-.264.245-.602.304-.752.059-.15.19-.432.29-.626.495-.963.734-1.485.734-1.608 0-.203-.182-.353-.422-.35-.212.005-.91.055-2.356.173-.464.037-1.358.067-1.987.065-1.371-.003-2.047-.096-2.75-.377-.544-.217-1.297-.346-1.496-.256-.21.096-.734 1.15-.882 1.771-.07.295-.203.708-.296.92a5.24 5.24 0 0 0-.27.885 5.755 5.755 0 0 1-.218.795c-.115.29-.241.978-.407 2.23a8.338 8.338 0 0 1-.14.816c-.203.68-.127 5.064.11 6.398.032.18.059.464.059.63 0 .616.151 1.196.347 1.333.127.09.61.107.813.03z" style="fill:#fff;stroke-width:.05445545" transform="translate(-36.492 -219.775) scale(.97478)"/><path d="M234.719 489.532c.082-.051.346-.288.585-.525.24-.238.51-.477.6-.532.195-.12.517-.4.947-.823.175-.172.344-.313.376-.313.033 0 .103-.077.157-.17.054-.093.227-.252.384-.353.158-.101.286-.206.286-.234 0-.027.113-.116.25-.196s.464-.346.726-.59c.262-.245.665-.604.894-.799 1.17-.992 1.214-1.036 1.4-1.422l.181-.373-.127-.136a.86.86 0 0 0-.3-.192.725.725 0 0 1-.297-.225.884.884 0 0 0-.312-.246.724.724 0 0 1-.293-.256.808.808 0 0 0-.297-.27.816.816 0 0 1-.295-.262 1.103 1.103 0 0 0-.324-.301c-.12-.072-.235-.181-.254-.243a.489.489 0 0 0-.192-.206c-.145-.089-.486-.384-1.328-1.152a9.818 9.818 0 0 0-.63-.524 11.205 11.205 0 0 1-.762-.656c-.575-.54-.634-.572-.894-.5-.28.077-.354.253-.209.494.06.099.14.279.178.398.038.12.148.377.245.572.201.403.248.61.413 1.82.106.771.112.938.059 1.524-.089.973-.206 1.628-.337 1.885-.064.125-.163.49-.22.808a7.222 7.222 0 0 1-.449 1.532 6.28 6.28 0 0 0-.202.681c-.07.283-.198.617-.302.79-.305.505-.364.96-.15 1.173.075.075.096.075.213 0l.28-.178zm-16.514-14.769c.18-.028.48-.063.666-.079.186-.015.456-.068.599-.116.143-.05.456-.114.696-.145.55-.07 1.37-.255 1.563-.352.082-.041.474-.148.872-.237.413-.093.851-.23 1.023-.318.164-.086.397-.187.517-.225.221-.07 1.29-.56 1.688-.774.12-.064.365-.19.545-.278a2.9 2.9 0 0 0 .514-.326c.103-.09.291-.21.418-.266.126-.056.334-.189.462-.295.127-.107.326-.242.44-.301.116-.059.501-.4.858-.758.6-.604.654-.674.715-.946.05-.223.05-.385.005-.667-.096-.587-.38-1.606-.48-1.717a.677.677 0 0 0-.287-.149c-.289-.072-2.28-.115-2.681-.058-.443.064-1.387.449-1.598.652-.09.087-.344.23-.565.32-.221.09-.456.215-.523.277-.066.063-.314.188-.551.28-.237.09-.48.21-.54.267-.06.056-.256.169-.435.25-.18.081-.419.23-.531.33-.113.1-.235.182-.273.182-.197.001-.497.136-.729.328a1.979 1.979 0 0 1-.52.302 2.9 2.9 0 0 0-.573.3c-.173.117-.343.213-.377.213-.034 0-.18.081-.327.18a3.05 3.05 0 0 1-.537.281c-.325.121-.546.342-.748.748-.12.238-.161.426-.206.92-.03.342-.075.8-.098 1.02-.023.22-.027.535-.008.702.054.49.239.573 1.006.455zm.7-5.883c.19-.031.423-.119.572-.214.14-.09.455-.228.701-.307.247-.08.536-.214.644-.3.107-.085.31-.197.45-.25.14-.051.353-.162.473-.246.12-.083.38-.212.579-.286.198-.075.48-.211.626-.304.146-.092.386-.204.533-.247a2.36 2.36 0 0 0 .545-.27 3.35 3.35 0 0 1 .679-.326c.221-.075.483-.198.581-.273.099-.075.357-.2.575-.28.217-.078.516-.225.663-.326.148-.102.3-.185.338-.185.039 0 .202-.089.362-.198.16-.109.426-.258.59-.33.406-.181.534-.312.575-.589.03-.195.004-.294-.16-.638a4.029 4.029 0 0 1-.197-.446c0-.021-.072-.144-.16-.272a4 4 0 0 1-.292-.527c-.072-.162-.185-.343-.252-.402a.895.895 0 0 1-.19-.272 1.633 1.633 0 0 0-.218-.342c-.183-.216-.44-.236-.768-.061a25.89 25.89 0 0 1-.464.24 1.32 1.32 0 0 0-.325.218c-.043.052-.262.178-.487.28-.225.103-.459.233-.519.29-.06.056-.268.176-.463.268a5.044 5.044 0 0 0-.61.344c-.264.184-.612.392-1.269.76-.21.118-.43.259-.49.313-.06.055-.234.163-.387.24a2.857 2.857 0 0 0-.436.268c-.086.071-.407.295-.713.497-.537.355-.565.383-.797.813-.168.31-.269.585-.332.908-.05.254-.161.671-.246.926-.132.392-.275 1.036-.275 1.236 0 .046.204.343.236.342.005 0 .153-.023.328-.052zm1.63-5.78c.282-.141.755-.484 1.047-.758a4.24 4.24 0 0 1 .528-.401c.171-.108.398-.311.505-.45.107-.14.245-.29.307-.334.061-.043.2-.217.306-.385.107-.17.275-.398.374-.508.098-.11.215-.322.258-.469.044-.147.144-.402.221-.567.125-.263.142-.367.142-.88 0-.531-.014-.609-.156-.893a5.227 5.227 0 0 1-.252-.611c-.084-.261-.178-.38-.731-.926-.607-.598-.654-.632-1.042-.756a6.56 6.56 0 0 1-.785-.32 2.344 2.344 0 0 0-.758-.237 2.418 2.418 0 0 1-.611-.16c-.193-.094-.25-.1-.34-.044-.122.075-.335.426-.335.55 0 .181.208.69.364.889.12.153.178.299.205.512.04.331.221 1.025.333 1.28.04.09.122.532.183.981.092.683.102.916.06 1.416-.068.797-.185 1.419-.383 2.022-.201.613-.205.78-.022.996.166.198.274.208.582.053z" style="fill:#fff;stroke-width:.05445545" transform="translate(-36.492 -219.775) scale(.97478)"/></svg>