<svg xmlns="http://www.w3.org/2000/svg" width="1133.858" height="755.906" viewBox="0 0 907.087 604.724"><defs><clipPath id="a"><path d="M-11.25 933.75h1405v-945h-1405z"/></clipPath></defs><g clip-path="url(#a)" clip-rule="evenodd" transform="translate(.117 -1.094)"><path fill="#004226" fill-rule="evenodd" stroke="#004226" stroke-miterlimit="10" stroke-width=".177" d="M-.029 1.182h906.91V605.73H-.03z"/><g fill="#fff" fill-rule="evenodd"><path d="M425.971 276.072c-3.189 2.835-5.568 5.516-9.567 5.923.992 7.611 9.757 11.372 5.606 23.276 7.432 10.015 12.58 21.916 18.371 23.362.557 1.313.203 2.935.76 4.248.353 1.115 8.149 1.012 8.351-.3-1.164-2.584-1.115-4.102-3.038-6.38-.96-.203-2.681-1.013-3.948-1.67-5.288-4.085-8.985-9.63-11.843-16.55-2.085-8.075.002-22.876-4.692-31.91M422.428 187.213c5.174 11.407 16.674 19.366 29.969 19.366 18.11 0 32.886-14.773 32.886-32.875 0-14.657-9.678-27.123-22.965-31.35 7.168 5.514 11.8 14.168 11.8 23.873 0 16.585-13.536 30.116-30.12 30.116-8.444 0-16.089-3.504-21.57-9.13"/><path d="m434.339 162.976-7.778 1.702 5.283-5.947-4.035-6.875 7.307 3.194 5.293-5.954-.784 7.923 7.293 3.2c-2.591.563-5.186 1.135-7.775 1.696l-.777 7.926"/></g><path fill="none" stroke="#fff" stroke-miterlimit="10" stroke-width="8" d="M549.925 591.95c108.51 0 197.01-88.5 197.01-197.01 0-108.506-88.5-197.006-197.01-197.006-108.506 0-197.006 88.5-197.006 197.007 0 108.509 88.5 197.009 197.006 197.009z" transform="matrix(.82035 0 0 -.82027 3.326 607.068)"/><path fill="#fff" fill-rule="evenodd" d="m586.24 376.994-68.082-38.679-63.439 33.524-62.413-33.006-69.627 36.1c66.405 94.185 198.36 89.412 263.56 2.06M510.673 240.725c4.055-.143 6.452 2.438 9.605 2.997 5.404.21 9.109-.138 9.37 4.427.149 2.538-5.616 2.625-8.506 2.868-1.812 2.174-3.186 3.584-7.014 4.548-7.324 8.423-14.315 17.538-26.664 19.691-3.038-1.348-6.734-1.584-10.18-1.317-1.569 4.03-5.511 5.009-6.063 8.664 3.656 6.278 13.277 12.84 14.049 17.295-.633 5.283-10.988 10.917-16.482 20.263l-4.053 4.863c2.59 2.06 4.028 4.288 3.782 6.754-2.44.882-5.394 1.008-9.457-.54-.877-2.725-.336-5.245 1.622-7.565-1.971-6.044-1.563-13.67-1.081-21.342-.362-1.444-.72-2.887-1.082-4.327.45-2.717 1.348-3.053 1.353-4.591.008-5.66 4.722-13.286 2.7-13.778-25.741 5.48-25.726-2.65-40.159-6.47-2.487 5.05-6.563 7.854-11.077 9.253-5.938 5.932-9.16 13.035-13.075 20.18-1.194 6.392-1.002 12.788-1.169 19.183 2.14 2.082 2.946 5.601 2.254 8.9-.344 1.784-10.057.362-9.8-1.333 1.17-2.343 2.94-4.29 3.514-7.328 1.405-7.46-.56-14.83.066-22.396l10.273-19.99c.718-3.603 1.438-7.208 2.158-10.806.91-2.892-5.82-.16-4.31-2.128.873-10.943 10.294-16.97 12.147-23.273-1.03-1.023-.938-2.52-3.817-2.584-1.943-.04-10.913 17.913-17.271 19.423-2.54.838 1.92-.992 2.202-2.171 7.422-7.16 10.816-19.146 14.41-19.164 4.417-.026 3.735 1.853 6.176 3.145 2.735-1.128 6.317-2.694 9.403-2.645 1.236 1.03 1.628-.046 2.169-1.492.22-.59 1.564-.759 2.194-.759 1.172-2.07 1.436-1.876 2.608-3.947 1.825-1.392 5.014-.364 7.444-.095.22-1.025.57-3.022 2.074-2.886 5.135 1.476 10.114 2.196 16.15 2.16.942.418.516 1.136.25 2.305 2.61.27 7.34-.213 7.078 1.417 2.179.518-1.087 6.48-1.177 9.726 13.01 3.135 14.423 11.925 22.406 14.493 4.689.074 7.455-1.066 10.116-3.417.543-1.171.469-2.935 1.623-3.512 1.017-.51 1.858-.487 2.937-.128 1.949-2.686 3.807-6.134 5.038-9.169.113-.274-.13-1.325.24-1.669.452-.418 1.065.06 1.157-.025 1.07-.967 2.282-1.649 3.869-1.708zm-43.487 46.284c1.936-.443 8.176 7.506 11.565 12.556-.413 1.36-.316 2.596.287 3.706-4.628 3.553-8.44 7.921-11.798 12.743-1.559-.167-2.066.151-2.66 1.14-.255-1.899-.606-3.67-.475-6.37.08-1.666.68-3.921.774-5.285-2.043-11.207.303-18.669 2.307-18.49"/><path fill="none" stroke="#fff" stroke-miterlimit="10" stroke-width="4" d="M549.925 192.331c10.469 0 19.01-10.331 19.01-22.993 0-12.666-8.541-22.994-19.01-22.994s-19.006 10.328-19.006 22.994c0 12.662 8.537 22.993 19.006 22.993z" transform="matrix(.82035 0 0 -.82027 3.326 607.068)"/><path fill="#fff" d="m445.775 470.823-7.606-7.406c-.43-.415-.18-1.19.415-1.276l10.516-1.52 4.691-9.52c.267-.54 1.075-.54 1.341 0l4.697 9.527 10.505 1.52c.593.087.846.856.416 1.274l-7.614 7.413 1.805 10.464c.102.59-.554 1.064-1.087.784l-9.401-4.95-9.396 4.948c-.53.28-1.187-.195-1.084-.785zm-5.48-7.419 6.8 6.621c-.015-.015-.02 0-.02.029l.023-.026-.003-.003c.003 0 .003 0 .003.003l-.023.026c.005.115.138.52.205.628l.036.005-.003.013c.003-.003.003-.008.003-.013l-.036-.005c.015.025.026.03.033.018l-1.61 9.353 8.401-4.421c-.025.012-.018.025.018.035l-.018-.035.018.035c.126.031.546.029.659-.002l.018-.034 8.411 4.425-1.612-9.344c.007.016.02.008.035-.018l-.035.006v.012-.012l.035-.006c.067-.105.198-.512.206-.628l-.026-.025.003-.006s0 .006-.003.006l.026.025c0-.03-.008-.04-.023-.03l6.806-6.624-9.383-1.359c.013 0 .01-.015-.005-.033l-.008.033c.008 0 .01.003.013 0h-.013l.008-.033a2.448 2.448 0 0 0-.541-.392l-.03.015-.006-.01c0 .003.003.003.005.01l.031-.015c-.023-.008-.041-.008-.036.005l-4.194-8.515-4.194 8.507c.005-.015-.008-.015-.033-.005l.028.015c.002-.007.005-.007.005-.01l-.005.01-.028-.015a2.444 2.444 0 0 0-.539.39l.003.036h-.01.01l-.003-.036c-.018.02-.02.033-.007.036l-9.396 1.358zm14.486 12.26c.03-.01.044-.02.018-.033"/><g fill="none" stroke="#fff" stroke-miterlimit="10" stroke-width="2"><path d="m559.528 166.4-28.825 9.378M549.931 189.738l-.012-30.307M555.869 177.69l-17.825-24.515M543.997 177.7l17.81-24.528M540.319 166.412l28.831 9.357" transform="matrix(.82035 0 0 -.82027 3.326 607.068)"/></g><g fill="#fff" fill-rule="evenodd"><path d="M454.558 451.7v16.446l-4.922-7.033M438.397 463.01l15.64 5.083-8.208 2.507"/><path d="m444.416 481.027 9.665-13.306-.151 8.585M464.277 481.458l-9.668-13.309 8.117 2.8M470.64 463.038l-15.644 5.083 5.166-6.855"/></g><path fill="none" stroke="#fff" stroke-miterlimit="10" stroke-width="4" d="M559.45 188.328c10.387 7.86 21.438 14.097 33.672 17.722 17.925 5.31 36.028 8.134 52.281 1.181-1.575-6.14-25.431-27.531-50.806-31.9-12.528-2.156-21.166-.243-27.319 1.182" transform="matrix(.82035 0 0 -.82027 3.326 607.068)"/><g fill="#fff"><path d="M465.81 456.578c.979-.992 1.935-1.425 2.889-1.853 5.958-2.687 14.82-4.643 23.618-6.586 12.206-2.694 24.288-5.36 27.961-9.635 1.072-1.246 2.138-2.49.831.087-1.307 2.574-2.376 3.82-3.445 5.063-4.107 4.778-16.277 7.462-28.564 10.176-7.804 1.72-15.661 3.458-21.44 5.67"/><path fill-rule="evenodd" d="m453.548 445.804 17.325-.848-.241 2.543-8.604 4.967-8.24-3.511"/><path d="M548.352 451.041c1.53 0 2.92.623 3.928 1.63a5.537 5.537 0 0 1 0 7.847l-.008.005a5.541 5.541 0 0 1-7.844 0 5.545 5.545 0 0 1-1.567-4.773c-2.363-2.46-5.43-4.94-7.821-5.755-2.956-1.276-8.255-1.435-11.993-.59l4.789-6.766c4.858-.134 5.258.012 9.306 1.153 3.896 1.328 7.39 3.668 10.554 7.29a5.53 5.53 0 0 1 .656-.04zm1.608 3.948a2.278 2.278 0 0 0-3.212-.005l-.006.005c-.41.41-.664.98-.664 1.607s.257 1.195.67 1.607c.41.41.981.667 1.604.667.626 0 1.195-.251 1.608-.659.002-.003.002-.008.005-.008a2.28 2.28 0 0 0-.005-3.214"/></g><path fill="none" stroke="#fff" stroke-miterlimit="10" stroke-width="4" d="M568.025 159.972c6.228-3.444 10.71-6.328 20.012-6.378 33.213-.172 53.363 27.034 70.394 35.194" transform="matrix(.82035 0 0 -.82027 3.326 607.068)"/><path fill="#fff" d="M470.068 466.068c.292.069.582.164.871.256 8.755 2.832 18.956 2.374 28.046.328 11.45-2.574 20.665-6.988 22.74-10.297.87-1.392 1.743-2.781 1.47-1.694-.268 1.087-1.14 2.476-2.012 3.865-3.24 5.173-13.633 11.169-25.415 13.817-8.627 1.94-18.256 2.453-26.703.092"/><path fill="none" stroke="#fff" stroke-miterlimit="10" stroke-width="4" d="M635.956 210.938c9.944 10.175 19.278 25.278 31.235 32.987 15.246 9.828 33.453 14.037 50.18 21.056-5.25-19.281-16.168-39.7-35.44-51.937-16.09-10.219-28.372-7.666-36.85-8.072" transform="matrix(.82035 0 0 -.82027 3.326 607.068)"/><path fill="#fff" d="M585.558 403.624c4.17-2.45 6.342-3.483 10.526-4.927 4.41-1.52 8.84-2.296 13.297-1.904l-.564 6.562c-3.51-.308-7.047.32-10.605 1.546-3.774 1.302-11.27 5.35-15.061 7.577"/><path fill="none" stroke="#fff" stroke-miterlimit="10" stroke-width="4" d="M742.031 255.463c2.1 0 3.813-1.713 3.813-3.81a3.819 3.819 0 0 0-3.813-3.81 3.818 3.818 0 0 0-3.81 3.81 3.818 3.818 0 0 0 3.81 3.81zM713.078 243.744c5.897 1.553 12.5.175 18.394-1.416-13.381-14.59-25.835-35.206-44.569-45.987-10.775-6.2-25.078-2.204-37.266-1.182" transform="matrix(.82035 0 0 -.82027 3.326 607.068)"/><path fill="#fff" d="M545.927 439.985c-.846-.028-1.692-.058-2.09-.469l15.788-6.272c5.004-.664 10.72-2.684 16.132-5.778 6.173-3.527 11.713-8.136 14.982-13.28.88-1.385 1.759-2.77 1.397-1.544-.359 1.228-1.236 2.615-2.117 3.999-4.523 7.124-9.809 13.365-16.346 17.103-6.135 5.795-21.106 8.01-27.746 6.241"/><path fill="none" stroke="#fff" stroke-miterlimit="10" stroke-width="4" d="M705.378 271.672c3.322 0 6.031-2.425 6.031-5.397 0-2.975-2.709-5.397-6.03-5.397-3.323 0-6.035 2.422-6.035 5.397 0 2.972 2.712 5.397 6.034 5.397z" transform="matrix(.82035 0 0 -.82027 3.326 607.068)"/><path fill="#fff" fill-rule="evenodd" d="m528.592 426.407-13.802 7.034 10.154 1.04 5.212-7.028"/><path fill="none" stroke="#fff" stroke-miterlimit="10" stroke-width="4" d="M734.663 327.063c4.775 4.93 9.809 7.903 16.537 9.662 1.14-10.081-1.184-24.269-4.638-34.91-4.93-15.184-15.95-30.468-30.212-39.346" transform="matrix(.82035 0 0 -.82027 3.326 607.068)"/><path fill="#fff" fill-rule="evenodd" d="M587.493 372.866c-1.01 2.777-1.05 10.051-.717 12.828l-8.568-3.112"/><path fill="none" stroke="#fff" stroke-miterlimit="10" stroke-width="4" d="M749.503 311.212c7.688 6.613 18.419 12.335 27.25 14.375-.784-18.168-7.875-42.2-23.372-56.2-6.772-6.125-30.412-12.609-39.284-13.325" transform="matrix(.82035 0 0 -.82027 3.326 607.068)"/><g fill="#fff"><path fill-rule="evenodd" stroke="#fff" stroke-miterlimit="10" stroke-width="4" d="M787.056 342.969c2.6 0 4.722-2.556 4.722-5.688s-2.122-5.687-4.722-5.687-4.719 2.556-4.719 5.687 2.12 5.688 4.72 5.688z" transform="matrix(.82035 0 0 -.82027 3.326 607.068)"/><path d="M644.87 333.557c-2.605-.335-5.812 1.408-9.042 4.189-1.777 1.528-3.518 3.348-5.164 5.319l-.038-.072-11.544 6.906-.751-.428c3.345-5.911 8.13-12.294 13.215-16.672 4.558-3.927 9.48-6.337 14.17-5.727"/><path fill-rule="evenodd" d="M611.335 343.019c-.256 3.632 1.228 6.352-1.72 13.378-2.948 7.029-10.13 17.905-15.674 28.097-.256-2.93 1.746-11.997 3.248-14.524 6.827-11.494 9.654-16.057 14.146-26.951M597.189 389.082c15.402-5.05 25.99-15.103 33.068-31.919.866-2.05 1.084-4.906.574-7.072-6.563 13.778-16.056 25.723-30.776 34.403-.954 1.53-1.91 3.058-2.866 4.588"/></g><path fill="none" stroke="#fff" stroke-miterlimit="10" stroke-width="4" d="M746.331 401.756c2.385 8.603 2.916 16.675 6.075 24.5 6.028-18.665 18.203-36.384 18.082-56.003-.085-14.26-8.944-26.834-18.67-38.503" transform="matrix(.82035 0 0 -.82027 3.326 607.068)"/><path fill="#fff" fill-rule="evenodd" d="M611.33 318.739c-.18 3.294-.403 7.587.169 10.653-1.774.408-4.538 7.11-5.468 8.52"/><g stroke="#fff" stroke-miterlimit="10"><path fill="none" stroke-width="4" d="M766.528 390.025c2.553 13.69 8.635 24.878 16.406 31.616 4.141-8.147 8.097-23.438 5.866-42.054-1.919-16.037-8.581-31.946-16.95-45.962" transform="matrix(.82035 0 0 -.82027 3.326 607.068)"/><path fill="#fff" fill-rule="evenodd" stroke-width="4" d="M786.844 439.244c3.056 0 5.543-3 5.543-6.685 0-3.68-2.487-6.68-5.543-6.68-3.05 0-5.538 3-5.538 6.68 0 3.685 2.488 6.685 5.538 6.685z" transform="matrix(.82035 0 0 -.82027 3.326 607.068)"/><path fill="none" stroke-width="8" d="M782.819 429.131c-8.594-7.375-13.044-19.656-17.275-31.397" transform="matrix(.82035 0 0 -.82027 3.326 607.068)"/></g><path fill="#fff" fill-rule="evenodd" d="M620.254 271.665c8.662 16.826 7.237 40.453-.51 59.632l-6.115 1.274c6.655-18.541 10.534-41.688 6.625-60.906M625.86 330.023c3.756-8.8 8.919-11.43 9.614-21.41 6.84-8.03 7.378-24.646 8.024-35.282 3.75 22.727-1.764 44.167-17.638 56.692"/><path fill="none" stroke="#fff" stroke-miterlimit="10" stroke-width="4" d="M761.469 404.36c3.4 11.924 5.143 25.49 3.765 38.946-1.703 16.625-30.918 44.769-48.78 64.744-2.366-4.731 1.824-9.712 3.402-15.234" transform="matrix(.82035 0 0 -.82027 3.326 607.068)"/><path fill="none" stroke="#fff" stroke-miterlimit="10" stroke-width="4" d="M745.837 474.797c-.103 16.456 3.135 32.075 9.347 43.012 10.16-17.271 20.291-35.587 22.172-56.171 1.463-16.025-.393-29.172-4.137-42.872" transform="matrix(.82035 0 0 -.82027 3.326 607.068)"/><g fill="#fff"><path fill-rule="evenodd" d="M617.385 169.954c2.335 0 4.243 2.07 4.243 4.609s-1.908 4.606-4.243 4.606c-2.338 0-4.245-2.069-4.245-4.606s1.907-4.61 4.245-4.61"/><path d="M619.74 176.526c-2.493 4.127-5.198 10.11-7.177 16.636-1.623 5.348-2.74 11.023-2.82 16.267h-.141l-5.932-6.418c.533-3.943 1.456-7.929 2.612-11.746 2.14-7.054 5.102-13.58 7.845-18.122"/><g fill-rule="evenodd"><path d="M630.462 264.506c-2.12.902-4.681.353-7.204-.046 1.505 3.004 3.294 6.962 4.797 9.966.802-3.307 1.607-6.614 2.407-9.92M624.053 262.957c-1.564-7.115-1.459-14.575-4.694-21.345-4.133-8.64-10.721-15.885-16.65-23.052 7.067 13.132 11.571 27.413 15.794 42.262 1.423.926 4.127 1.208 5.55 2.135M624.268 197.002c-1.779 2.559-1.658 10.864 0 15.152 3.802 9.82 3.487 15.44 6.191 25.613.641 5.55 1.282 11.1 1.92 16.654.926-7.046 3.82-13.757 2.349-20.706-2.49-11.779-8.427-23.022-10.46-36.713M532.889 436.779c3.563-.98 7.157-1.315 10.48-2.933 16.273-7.944 28.107-18.523 35.823-29.12-3.558.698-10.351 2.953-12.99 5.448-11.046 10.44-21.303 18.54-38.13 25.766l4.817.839"/></g></g><path fill="none" stroke="#fff" stroke-miterlimit="10" stroke-width="4" d="M656.612 557.719c-4.28 7.622-8.812 17.462-11.359 25.703 26.447-14.116 52.063-27.41 71.516-48.61 9.637-10.5 12.106-27.128 13.037-40.225" transform="matrix(.82035 0 0 -.82027 3.326 607.068)"/><path fill="none" stroke="#fff" stroke-miterlimit="10" stroke-width="4" d="M678.962 564.797c.1 9.956-10.106 24.487-9.125 27.375 25.41-12.578 48.972-28.528 63.135-53.635 5.815-10.315 5.65-22.909 4.84-35.196" transform="matrix(.82035 0 0 -.82027 3.326 607.068)"/><path fill="#fff" fill-rule="evenodd" d="M595.607 192.97c-3.666-6.213-7.065-11.37-11-17.415-6.65-10.215-18.074-15.532-27.805-21.386 13.554 11.476 26.902 24.423 33.458 38.801 1.781.71 3.566-.715 5.347 0M594.692 172.958c.608-4.33-2.482-12.668-5.504-16.195-5.791-6.755-8.488-8.277-16.04-12.984-2.318-1.445-5.461-6.365-6.263-8.251 9.572 7.946 21.529 11.72 27.807 22.46 6.486 11.104 7.788 26.628 8.247 39.26-2.597-8.71-5.653-15.582-8.247-24.29"/><path fill="none" stroke="#fff" stroke-miterlimit="10" stroke-width="4" d="M537.903 188.328c-10.387 7.86-21.437 14.097-33.672 17.722-17.925 5.31-36.028 8.134-52.281 1.181 1.578-6.14 25.431-27.531 50.803-31.9 12.528-2.156 22.856.216 29.01 1.64" transform="matrix(.82035 0 0 -.82027 3.326 607.068)"/><g fill="#fff"><path d="M441.058 456.578c-.977-.992-1.935-1.425-2.892-1.853-5.955-2.687-14.817-4.643-23.616-6.586-12.205-2.694-24.287-5.36-27.963-9.635-1.067-1.246-2.136-2.49-.828.087 1.307 2.574 2.376 3.82 3.443 5.063 4.109 4.778 16.276 7.462 28.566 10.176 7.806 1.72 15.658 3.458 21.437 5.67"/><path fill-rule="evenodd" d="m453.317 445.804-17.322-.848.243 2.543 8.601 4.967 8.24-3.511"/><path d="M358.513 451.041c-1.528 0-2.92.623-3.925 1.63a5.527 5.527 0 0 0-1.628 3.925 5.53 5.53 0 0 0 1.628 3.922l.005.005a5.55 5.55 0 0 0 3.92 1.628 5.55 5.55 0 0 0 3.927-1.628 5.545 5.545 0 0 0 1.564-4.773c2.366-2.46 5.43-4.94 7.827-5.755 2.95-1.276 8.252-1.435 11.987-.59l-4.786-6.766c-4.858-.134-5.26.012-9.303 1.153-3.9 1.328-7.396 3.668-10.56 7.29a5.496 5.496 0 0 0-.656-.04zm-1.605 3.948a2.277 2.277 0 0 1 3.215-.005l.005.005a2.275 2.275 0 0 1-1.615 3.88 2.276 2.276 0 0 1-1.613-.666 2.277 2.277 0 0 1 .008-3.214"/></g><path fill="none" stroke="#fff" stroke-miterlimit="10" stroke-width="4" d="M532.4 161.047c-6.237-3.447-13.781-7.403-23.087-7.453-33.213-.172-53.36 27.034-70.391 35.194" transform="matrix(.82035 0 0 -.82027 3.326 607.068)"/><path fill="#fff" d="M438.559 465.565c-.29.07-.58.162-.87.257-8.754 2.83-20.716 2.876-29.807.83-11.451-2.574-20.667-6.988-22.739-10.297-.871-1.392-1.743-2.781-1.471-1.694.269 1.087 1.14 2.476 2.012 3.865 3.238 5.173 13.63 11.169 25.413 13.817 8.63 1.94 20.017 1.948 28.466-.413"/><path fill="none" stroke="#fff" stroke-miterlimit="10" stroke-width="4" d="M461.394 210.938c-9.94 10.175-19.272 25.278-31.231 32.987-15.244 9.828-33.457 14.037-50.182 21.056 5.25-19.281 16.172-39.7 35.44-51.937 16.092-10.219 28.376-7.666 36.848-8.072" transform="matrix(.82035 0 0 -.82027 3.326 607.068)"/><path fill="#fff" d="M321.31 403.624c-4.174-2.45-6.343-3.483-10.529-4.927-4.41-1.52-8.837-2.296-13.295-1.904l.564 6.562c3.512-.308 7.048.32 10.603 1.546 3.779 1.302 11.272 5.35 15.061 7.577"/><path fill="none" stroke="#fff" stroke-miterlimit="10" stroke-width="4" d="M355.319 255.463a3.819 3.819 0 0 1-3.813-3.81c0-2.097 1.713-3.81 3.813-3.81s3.81 1.713 3.81 3.81-1.71 3.81-3.81 3.81zM384.275 243.744c-5.897 1.553-12.5.175-18.397-1.416 13.384-14.59 25.838-35.206 44.575-45.987 10.769-6.2 25.078-2.204 37.263-1.182" transform="matrix(.82035 0 0 -.82027 3.326 607.068)"/><path fill="#fff" d="M360.938 439.985c.846-.028 1.692-.058 2.09-.469l-15.782-6.272c-5.01-.664-10.726-2.684-16.138-5.778-6.173-3.527-11.713-8.136-14.982-13.28-.877-1.385-1.759-2.77-1.397-1.544.359 1.228 1.24 2.615 2.12 3.999 4.52 7.124 9.808 13.365 16.346 17.103 6.132 5.795 21.103 8.01 27.743 6.241"/><path fill="none" stroke="#fff" stroke-miterlimit="10" stroke-width="4" d="M391.972 271.672c-3.319 0-6.031-2.425-6.031-5.397 0-2.975 2.712-5.397 6.03-5.397 3.326 0 6.035 2.422 6.035 5.397 0 2.972-2.71 5.397-6.034 5.397z" transform="matrix(.82035 0 0 -.82027 3.326 607.068)"/><path fill="#fff" fill-rule="evenodd" d="m378.275 426.407 13.8 7.034-10.154 1.04-5.21-7.028"/><path fill="none" stroke="#fff" stroke-miterlimit="10" stroke-width="4" d="M368.89 322.294c-4.771 4.928-16.012 12.672-22.734 14.431-1.14-10.081 1.181-24.269 4.631-34.91 4.932-15.184 15.95-30.468 30.213-39.346" transform="matrix(.82035 0 0 -.82027 3.326 607.068)"/><path fill="#fff" fill-rule="evenodd" d="M319.372 372.866c1.01 2.777 1.056 10.051.717 12.828l8.57-3.112"/><path fill="none" stroke="#fff" stroke-miterlimit="10" stroke-width="4" d="M347.847 311.212c-7.688 6.613-18.416 12.335-27.25 14.375.784-18.168 7.875-42.2 23.372-56.2 6.775-6.125 30.419-12.609 39.284-13.325" transform="matrix(.82035 0 0 -.82027 3.326 607.068)"/><g fill="#fff"><path fill-rule="evenodd" stroke="#fff" stroke-miterlimit="10" stroke-width="4" d="M310.297 342.969c-2.603 0-4.722-2.556-4.722-5.688s2.119-5.687 4.722-5.687 4.722 2.556 4.722 5.687-2.119 5.688-4.722 5.688z" transform="matrix(.82035 0 0 -.82027 3.326 607.068)"/><path d="M261.998 333.557c2.605-.335 5.812 1.408 9.042 4.189 1.774 1.528 3.517 3.348 5.16 5.319l.044-.072 11.539 6.906.754-.428c-3.346-5.911-8.132-12.294-13.216-16.672-4.56-3.927-9.482-6.337-14.169-5.727"/><path fill-rule="evenodd" d="M295.53 343.019c.257 3.632-1.225 6.352 1.723 13.378 2.948 7.029 10.131 17.905 15.676 28.097.254-2.93-1.75-11.997-3.253-14.524-6.824-11.494-9.652-16.057-14.146-26.951M309.676 389.082c-15.402-5.05-25.99-15.103-33.068-31.919-.861-2.05-1.082-4.906-.571-7.072 6.562 13.778 16.055 25.723 30.773 34.403.956 1.53 1.912 3.058 2.866 4.588"/></g><path fill="none" stroke="#fff" stroke-miterlimit="10" stroke-width="4" d="M353.406 401.756c-2.381 8.603-5.297 16.675-8.456 24.5-6.031-18.665-18.206-36.384-18.087-56.003.087-14.26 8.946-26.834 18.668-38.503" transform="matrix(.82035 0 0 -.82027 3.326 607.068)"/><path fill="#fff" fill-rule="evenodd" d="M295.538 318.739c.18 3.294.4 7.587-.167 10.653 1.77.408 4.538 7.11 5.463 8.52"/><g stroke="#fff" stroke-miterlimit="10"><path fill="none" stroke-width="4" d="M330.825 390.025c-2.55 13.69-8.637 24.878-16.406 31.616-4.14-8.147-8.094-23.438-5.869-42.054 1.919-16.037 8.588-31.946 16.953-45.962" transform="matrix(.82035 0 0 -.82027 3.326 607.068)"/><path fill="#fff" fill-rule="evenodd" stroke-width="4" d="M310.506 439.244c-3.053 0-5.54-3-5.54-6.685 0-3.68 2.487-6.68 5.54-6.68s5.54 3 5.54 6.68c0 3.685-2.487 6.685-5.54 6.685z" transform="matrix(.82035 0 0 -.82027 3.326 607.068)"/><path fill="none" stroke-width="8" d="M314.531 429.131c8.594-7.375 13.047-19.656 17.278-31.397" transform="matrix(.82035 0 0 -.82027 3.326 607.068)"/></g><path fill="#fff" fill-rule="evenodd" d="M286.614 271.665c-8.66 16.826-7.24 40.453.508 59.632 2.04.425 4.076.85 6.119 1.274-6.66-18.541-10.534-41.688-6.627-60.906M281.005 330.023c-3.753-8.8-8.916-11.43-9.614-21.41-6.837-8.03-7.375-24.646-8.024-35.282-3.745 22.727 1.77 44.167 17.638 56.692"/><path fill="none" stroke="#fff" stroke-miterlimit="10" stroke-width="4" d="M335.881 404.36c-3.397 11.924-5.143 25.49-3.762 38.946 1.706 16.625 30.915 44.769 48.784 64.744 2.363-4.731 2.166-9.856.59-15.369" transform="matrix(.82035 0 0 -.82027 3.326 607.068)"/><path fill="none" stroke="#fff" stroke-miterlimit="10" stroke-width="4" d="M351.519 474.797c.1 16.456-3.14 32.075-9.35 43.012-10.163-17.271-20.294-35.587-22.172-56.171-1.466-16.025.394-29.172 4.14-42.872" transform="matrix(.82035 0 0 -.82027 3.326 607.068)"/><g fill="#fff"><path fill-rule="evenodd" d="M289.48 169.954c-2.335 0-4.24 2.07-4.24 4.609s1.905 4.606 4.24 4.606c2.34 0 4.248-2.069 4.248-4.606s-1.907-4.61-4.248-4.61"/><path d="M287.127 176.526c2.491 4.127 5.196 10.11 7.178 16.636 1.62 5.348 2.738 11.023 2.822 16.267h.139l5.93-6.418c-.531-3.943-1.454-7.929-2.61-11.746-2.138-7.054-5.1-13.58-7.845-18.122"/><g fill-rule="evenodd"><path d="M276.403 264.506c2.123.902 4.684.353 7.204-.046-1.502 3.004-3.294 6.962-4.797 9.966-.8-3.307-1.602-6.614-2.407-9.92M282.812 262.957c1.564-7.115 1.459-14.575 4.694-21.345 4.135-8.64 10.724-15.885 16.653-23.052-7.07 13.132-11.572 27.413-15.797 42.262-1.422.926-4.127 1.208-5.55 2.135M282.6 197.002c1.776 2.559 1.658 10.864 0 15.152-3.8 9.82-3.487 15.44-6.194 25.613-.641 5.55-1.277 11.1-1.918 16.654-.928-7.046-3.82-13.757-2.348-20.706 2.492-11.779 8.426-23.022 10.46-36.713M373.976 436.779c-3.563-.98-7.157-1.315-10.475-2.933-16.273-7.944-28.11-18.523-35.828-29.12 3.563.698 10.354 2.953 12.992 5.448 11.049 10.44 21.306 18.54 38.13 25.766l-4.819.839"/></g></g><path fill="none" stroke="#fff" stroke-miterlimit="10" stroke-width="4" d="M440.738 557.719c4.28 7.622 8.812 17.462 11.359 25.703-26.444-14.116-52.063-27.41-71.516-48.61-9.631-10.5-12.106-27.128-13.034-40.225" transform="matrix(.82035 0 0 -.82027 3.326 607.068)"/><path fill="none" stroke="#fff" stroke-miterlimit="10" stroke-width="4" d="M418.39 564.797c-.102 9.956 10.107 24.487 9.126 27.375-25.407-12.578-48.972-28.528-63.135-53.635-5.818-10.315-5.65-22.909-4.843-35.196" transform="matrix(.82035 0 0 -.82027 3.326 607.068)"/><path fill="#fff" fill-rule="evenodd" d="M311.26 192.97c3.669-6.213 7.066-11.37 11-17.415 6.653-10.215 18.074-15.532 27.806-21.386-13.554 11.476-26.905 24.423-33.458 38.801-1.782.71-3.563-.715-5.348 0M312.176 172.958c-.608-4.33 2.479-12.668 5.501-16.195 5.791-6.755 8.488-8.277 16.043-12.984 2.315-1.445 5.46-6.365 6.263-8.251-9.573 7.946-21.53 11.72-27.807 22.46-6.486 11.104-7.791 26.628-8.247 39.26 2.594-8.71 5.65-15.582 8.247-24.29"/></g></svg>