<svg xmlns="http://www.w3.org/2000/svg" width="900" height="600" version="1.0"><g transform="translate(-159.092 -109.52)"><path d="M159.092 109.52h900v600h-900z" style="fill:navy;fill-rule:evenodd;stroke:none;stroke-width:1.39315665px;stroke-linecap:butt;stroke-linejoin:miter;stroke-opacity:1"/><circle cx="609.092" cy="409.52" r="240" style="fill:#fff"/><circle cx="609.092" cy="409.52" r="225" style="fill:#18de9c;fill-opacity:1"/><path d="m834.092 409.52-42.079 24.082 34.412 34.153-46.877 12.37 24.4 41.895-48.482-.183 12.725 46.782-46.783-12.725.184 48.482-41.895-24.4-12.37 46.878-34.153-34.412-24.082 42.078-24.082-42.078-34.152 34.412-12.371-46.878-41.895 24.4.183-48.482-46.782 12.725 12.725-46.782-48.482.183 24.4-41.895-46.877-12.37 34.411-34.153-42.078-24.082 42.078-24.082-34.411-34.152 46.877-12.37-24.4-41.896 48.482.184-12.725-46.783 46.782 12.726-.183-48.482 41.895 24.4 12.37-46.878 34.153 34.412 24.082-42.079 24.082 42.079 34.152-34.412 12.371 46.878 41.895-24.4-.184 48.482 46.783-12.726-12.725 46.783 48.482-.184-24.4 41.895 46.877 12.371-34.412 34.152z" style="opacity:1;fill:#fff;fill-opacity:1;fill-rule:nonzero;stroke:none;stroke-width:.5;stroke-linejoin:round;stroke-miterlimit:4;stroke-dasharray:none;stroke-opacity:1"/><circle cx="609.092" cy="409.524" r="184.5" style="fill:#000"/><g style="fill:#fff;fill-opacity:1"><path d="m188.835 942.287-25.456 106.395s35.355 26.038 43.84 50.362c4.243 12.163 18.126 12.416 33.235 12.416 14.96 0 30.405-7.01 30.405-7.01l-22.627-172.974-7.778-4.244z" style="fill:#fff;fill-opacity:1;fill-rule:evenodd;stroke:none;stroke-width:1px;stroke-linecap:butt;stroke-linejoin:miter;stroke-opacity:1" transform="matrix(1.36232 0 0 1.40044 281.518 -1018.017)"/><path d="m292.073 942.287 25.455 106.395s-35.355 26.038-43.84 50.362c-4.243 12.163-18.126 12.416-33.234 12.416-14.96 0-30.406-7.01-30.406-7.01l22.628-172.974 7.778-4.244z" style="fill:#fff;fill-opacity:1;fill-rule:evenodd;stroke:none;stroke-width:1px;stroke-linecap:butt;stroke-linejoin:miter;stroke-opacity:1" transform="matrix(1.36232 0 0 1.40044 281.518 -1018.017)"/></g><g style="fill:red;fill-opacity:1"><path d="m185.228 934.808-27.165 116.717s37.729 28.564 46.784 55.248c4.527 13.342 19.338 13.69 35.465 13.69 16.02 0 32.448-7.76 32.448-7.76l-24.147-189.755-8.3-4.586z" style="fill:red;fill-opacity:1;fill-rule:evenodd;stroke:none;stroke-width:1px;stroke-linecap:butt;stroke-linejoin:miter;stroke-opacity:1" transform="matrix(1.05407 0 0 1.2766 355.786 -891.857)"/><path d="m295.398 934.808 27.165 116.717s-37.73 28.564-46.785 55.248c-4.527 13.342-19.337 13.69-35.465 13.69-16.02 0-32.447-7.76-32.447-7.76l24.146-189.755 8.3-4.586z" style="fill:red;fill-opacity:1;fill-rule:evenodd;stroke:none;stroke-width:1px;stroke-linecap:butt;stroke-linejoin:miter;stroke-opacity:1" transform="matrix(1.05407 0 0 1.2766 355.786 -891.857)"/></g><g style="fill:#fff;fill-opacity:1"><path d="m184.798 934.808-27.165 116.717s37.73 28.564 46.784 55.248c4.528 13.342 20.834 13.69 36.771 13.69 16.198 0 31.142-7.76 31.142-7.76l-24.147-189.755-6.994-4.586z" style="fill:#fff;fill-opacity:1;fill-rule:evenodd;stroke:none;stroke-width:1px;stroke-linecap:butt;stroke-linejoin:miter;stroke-opacity:1" transform="matrix(.73785 0 0 1.2766 431.131 -891.857)"/><path d="m297.579 934.808 27.165 116.717s-37.73 28.564-46.784 55.248c-4.528 13.342-20.834 13.69-36.771 13.69-16.198 0-31.142-7.76-31.142-7.76l24.147-189.755 6.994-4.586z" style="fill:#fff;fill-opacity:1;fill-rule:evenodd;stroke:none;stroke-width:1px;stroke-linecap:butt;stroke-linejoin:miter;stroke-opacity:1" transform="matrix(.73785 0 0 1.2766 431.131 -891.857)"/></g><g style="fill:red;fill-opacity:1"><path d="m183.434 934.808-20.761 116.717s31.326 28.564 40.38 55.248c4.528 13.342 23.367 13.69 40.607 13.69 17.168 0 27.306-7.76 27.306-7.76L246.82 922.948l-3.159-4.586z" style="fill:red;fill-opacity:1;fill-rule:evenodd;stroke:none;stroke-width:1px;stroke-linecap:butt;stroke-linejoin:miter;stroke-opacity:1" transform="matrix(.37478 0 0 1.2766 517.773 -891.857)"/><path d="m303.886 934.808 20.761 116.717s-31.325 28.564-40.38 55.248c-4.528 13.342-23.366 13.69-40.606 13.69-17.168 0-27.307-7.76-27.307-7.76l24.147-189.755 3.159-4.586z" style="fill:red;fill-opacity:1;fill-rule:evenodd;stroke:none;stroke-width:1px;stroke-linecap:butt;stroke-linejoin:miter;stroke-opacity:1" transform="matrix(.37478 0 0 1.2766 517.773 -891.857)"/></g></g></svg>