<svg xmlns="http://www.w3.org/2000/svg" xml:space="preserve" width="900" height="600"><path d="M0 190.848h900V390.83H0z" style="fill:#008033;fill-opacity:1;fill-rule:evenodd" transform="translate(0 -190.848)"/><path d="M0 390.83h900v199.982H0z" style="fill:#fff;fill-rule:evenodd" transform="translate(0 -190.848)"/><path d="M0 590.812h900v200.036H0z" style="fill:#00247d;fill-opacity:1;fill-rule:evenodd" transform="translate(0 -190.848)"/><g style="fill:#cf142b;fill-opacity:1"><path d="M513.72 327.096c3.096-11.88 14.4-31.968 39.6-51.12 7.2 19.944 27.936 40.752 43.488 60.696l-83.088-9.576zm0 0z" style="fill:#cf142b;fill-opacity:1;fill-rule:evenodd" transform="matrix(.7615 0 0 .75868 .01 2.182)"/><path d="M513.72 327.096c3.096-11.88 14.4-31.968 39.6-51.12 7.2 19.944 27.936 40.752 43.488 60.696m-83.088-9.576h0z" style="fill:#cf142b;fill-opacity:1;stroke:#000;stroke-width:1.00010002;stroke-linecap:round;stroke-linejoin:round" transform="matrix(.7615 0 0 .75868 .01 2.182)"/></g><g style="fill:#cf142b;fill-opacity:1"><path d="M719.136 431.28c-45.648 17.712-24.12 49.968-81.576 19.584-.36-2.232-8.208-17.496-8.208-17.496l2.52-10.08 87.264 7.992zm0 0z" style="fill:#cf142b;fill-opacity:1;fill-rule:evenodd" transform="matrix(.7615 0 0 .75868 .01 2.182)"/><path d="M719.136 431.28c-45.648 17.712-24.12 49.968-81.576 19.584-.36-2.232-8.208-17.496-8.208-17.496l2.52-10.08m87.264 7.992h0z" style="fill:#cf142b;fill-opacity:1;stroke:#000;stroke-width:1.00010002;stroke-linecap:round;stroke-linejoin:round" transform="matrix(.7615 0 0 .75868 .01 2.182)"/></g><g style="fill:#cf142b;fill-opacity:1"><path d="M548.28 481.392c25.344 17.856 40.176 19.44 56.592 22.464.36-29.592 2.52-36.936 5.184-39.168l-61.776 16.704zm0 0z" style="fill:#cf142b;fill-opacity:1;fill-rule:evenodd" transform="matrix(.7615 0 0 .75868 .01 2.182)"/><path d="M548.28 481.392c25.344 17.856 40.176 19.44 56.592 22.464.36-29.592 2.52-36.936 5.184-39.168m-61.776 16.704h0z" style="fill:#cf142b;fill-opacity:1;stroke:#000;stroke-width:1.00010002;stroke-linecap:round;stroke-linejoin:round" transform="matrix(.7615 0 0 .75868 .01 2.182)"/></g><g style="fill:#cf142b;fill-opacity:1"><path d="M352.44 371.736c65.448-49.104 142.416-44.784 202.752-43.632 55.296 5.76 153.36 50.256 175.68 50.328 10.872.792 24.48-1.152 30.384-5.4 28.224-31.464 52.632-32.256 77.76-39.096-.792 11.232-36.144 50.472-44.28 70.992 7.776 30.24 32.616 43.416 40.392 67.824-33.912.144-58.104-24.48-85.896-37.872-129.24-23.76-117.144 75.672-284.472 39.024L352.44 371.736zm0 0z" style="fill:#cf142b;fill-opacity:1;fill-rule:evenodd" transform="matrix(.7615 0 0 .75868 .01 2.182)"/><path d="M352.44 371.736c65.448-49.104 142.416-44.784 202.752-43.632 55.296 5.76 153.36 50.256 175.68 50.328 10.872.792 24.48-1.152 30.384-5.4 28.224-31.464 52.632-32.256 77.76-39.096-.792 11.232-36.144 50.472-44.28 70.992 7.776 30.24 32.616 43.416 40.392 67.824-33.912.144-58.104-24.48-85.896-37.872-129.24-23.76-117.144 75.672-284.472 39.024M352.44 371.736h0z" style="fill:#cf142b;fill-opacity:1;stroke:#000;stroke-width:1.00010002;stroke-linecap:round;stroke-linejoin:round" transform="matrix(.7615 0 0 .75868 .01 2.182)"/></g><g style="fill:#cf142b;fill-opacity:1"><path d="M431.928 430.992c26.064 28.008 43.056 53.136 43.992 77.472-8.712 5.688-39.888-31.248-66.528-64.656l22.536-12.816zm0 0z" style="fill:#cf142b;fill-opacity:1;fill-rule:evenodd" transform="matrix(.7615 0 0 .75868 .01 2.182)"/><path d="M431.928 430.992c26.064 28.008 43.056 53.136 43.992 77.472-8.712 5.688-39.888-31.248-66.528-64.656m22.536-12.816h0z" style="fill:#cf142b;fill-opacity:1;stroke:#000;stroke-width:1.00010002;stroke-linecap:round;stroke-linejoin:round" transform="matrix(.7615 0 0 .75868 .01 2.182)"/></g><g style="fill:#cf142b;fill-opacity:1"><path d="M436.392 381.888c1.296 6.552 1.944 12.528 2.16 18v5.904c-1.872 49.968-50.256 50.472-89.784 6.12-.576-2.376-.936-4.32-1.08-5.976v-3.456c.792-6.408 7.056-4.248 11.88-4.104l76.824-16.488zm0 0z" style="fill:#cf142b;fill-opacity:1;fill-rule:evenodd" transform="matrix(.7615 0 0 .75868 .01 2.182)"/><path d="M436.392 381.888c14.04 72.864-42.552 80.568-87.624 30.024-4.536-17.424 4.392-13.752 10.8-13.536m76.824-16.488h0z" style="fill:#cf142b;fill-opacity:1;stroke:#000;stroke-width:1.00010002;stroke-linecap:round;stroke-linejoin:round" transform="matrix(.7615 0 0 .75868 .01 2.182)"/></g><g style="fill:#cf142b;fill-opacity:1"><path d="M420.048 377.28c.936 5.976 1.512 11.52 1.656 16.704v3.816c-.504 19.08-7.776 31.248-24.84 33.624l23.184-54.144zm0 0z" style="fill:#cf142b;fill-opacity:1;fill-rule:evenodd" transform="matrix(.7615 0 0 .75868 .01 2.182)"/><path d="M420.048 377.28c4.896 30.672-.576 51.048-23.184 54.144m23.184-54.144h0z" style="fill:#cf142b;fill-opacity:1;stroke:#000;stroke-width:1.00010002;stroke-linecap:round;stroke-linejoin:round" transform="matrix(.7615 0 0 .75868 .01 2.182)"/></g><g style="fill:#cf142b;fill-opacity:1"><path d="M391.68 410.688c-21.312 4.752-46.944-24.624-48.744-36.072v-2.232c1.008-4.464 9-2.952 28.152 11.808l20.592 26.496zm0 0z" style="fill:#cf142b;fill-opacity:1;fill-rule:evenodd" transform="matrix(.7615 0 0 .75868 .01 2.182)"/><path d="M391.68 410.688c-33.984 7.56-79.056-71.712-20.592-26.496m20.592 26.496h0z" style="fill:#cf142b;fill-opacity:1;stroke:#000;stroke-width:1.00010002;stroke-linecap:round;stroke-linejoin:round" transform="matrix(.7615 0 0 .75868 .01 2.182)"/></g><path d="M306.598 478.394c0 4.315-3.729 7.81-8.334 7.81-4.55 0-8.28-3.495-8.28-7.81 0-4.316 3.73-7.757 8.28-7.757 4.605 0 8.334 3.441 8.334 7.757z" style="fill:#fff;fill-rule:evenodd;stroke:#000;stroke-width:.76016366;stroke-linecap:round;stroke-linejoin:round" transform="translate(.01 -188.666)"/><path d="M302.87 477.083c0 2.13-1.426 3.987-3.29 4.315-1.92.328-3.783-.929-4.387-2.95-.603-2.021.22-4.26 1.974-5.244 1.7-.983 3.783-.437 4.935 1.311l-3.18 2.568h3.947z" style="fill-rule:evenodd;stroke:#000;stroke-width:.76016366;stroke-linecap:round;stroke-linejoin:round" transform="translate(.01 -188.666)"/><path d="M605.355 498.168c-11.843-.437-23.686-2.895-38.435-.983m51.374-20.321c-4.605.055-14.748 6.337-24.234 11.58m35.42-27.749c-10.199.983-24.728 8.63-39.97 19.01m41.285 58.994c-12.172-1.584-26.482-9.231-38.654-14.475m22.809-5.79c-6.744-1.475-14.256-3.06-21.054-4.534M426.56 410.713c-8.334 9.013-15.626 18.463-20.944 28.842m27.907-18.681c-5.428 5.407-10.143 11.908-13.487 18.681m20.286-9.614c-3.51 4.643-5.044 8.03-6.525 11.362" style="fill:none;stroke:#000;stroke-width:.76016366;stroke-linecap:round;stroke-linejoin:round" transform="translate(.01 -188.666)"/><path d="m434.664 456.624 41.04 51.12-41.04-51.12zm0 0z" style="fill:#df0024;fill-rule:evenodd" transform="matrix(.7615 0 0 .75868 .01 2.182)"/><path d="m434.664 456.624 41.04 51.12m-41.04-51.12h0z" style="fill:none;stroke:#000;stroke-width:1.00010002;stroke-linecap:round;stroke-linejoin:round" transform="matrix(.7615 0 0 .75868 .01 2.182)"/><path d="M442.297 560.877c5.592 2.458 11.733 4.152 18.312 5.244m-6.524-11.362 7.182 2.622m47.097-25.346 11.733 6.992m-1.919-11.362 8.883 3.715" style="fill:none;stroke:#000;stroke-width:.76016366;stroke-linecap:round;stroke-linejoin:round" transform="translate(.01 -188.666)"/></svg>