<svg xmlns="http://www.w3.org/2000/svg" xml:space="preserve" width="648" height="432"><path fill="#01411C" d="M0 0h648v432H0z"/><path fill="#F90" d="M0 0h324v162H0z"/><g fill="#fff"><path d="M0 192h648v30H0zM0 252h648v30H0zM0 312h648v30H0zM0 372h648v30H0z"/></g><g fill="#fff"><path d="M468.41 14.723a67.932 67.932 0 0 0-47.302 64.623 67.932 67.932 0 0 0 67.932 67.931 67.932 67.932 0 0 0 61.852-39.865 62.271 62.271 0 0 1-44.487 18.77 62.271 62.271 0 0 1-62.271-62.272 62.271 62.271 0 0 1 24.275-49.187zM514.251 28.122l28.615 32.192-42.072-9.225 39.46-17.266-21.775 37.163z"/></g></svg>