<svg xmlns="http://www.w3.org/2000/svg" width="1500" height="1000" version="1.0"><g style="display:inline"><path d="M1384.503 167.467H633.658l-749.155 500.015h1500Z" style="fill:#ee252b;fill-opacity:1;fill-rule:evenodd;stroke:none;stroke-width:1px;stroke-linecap:butt;stroke-linejoin:miter;stroke-opacity:1" transform="translate(115.497 332.518)"/></g><g style="display:inline"><path d="M1384.503 167.497H633.658l-749.155-500.015h1500Z" style="fill:#fece00;fill-opacity:1;fill-rule:evenodd;stroke:none;stroke-width:.9978382px;stroke-linecap:butt;stroke-linejoin:miter;stroke-opacity:1" transform="translate(115.497 332.518)"/></g><g style="display:inline"><path d="M-115.497-332.518v1000l749.131-500Z" style="fill:#fff;fill-opacity:1;fill-rule:evenodd;stroke:none;stroke-width:1px;stroke-linecap:butt;stroke-linejoin:miter;stroke-opacity:1" transform="translate(115.497 332.518)"/></g><g style="display:inline"><path d="M125.329 254.718c-3.588.102-15.992-.308-21.938 3.592-5.945 3.9-10.558 7.492-15.171 15.6-4.613 8.107-7.893 9.236-9.534 8.928-1.64-.308-7.176-1.744-6.97-8.826.204-7.081 3.792-9.955 5.843-10.057 2.05-.103 4.1.615 2.05 2.36-2.05 1.745-3.075 3.695-3.075 6.26 0 2.566.922 6.056 2.46 6.158 1.538.103 2.87-1.744 3.485-5.747-.205-12.418.82-12.418-1.128-13.24-1.947-.82-6.048-.718-9.328 3.695-3.28 4.413-4.305 10.982-1.948 15.6 1.846 4.003 4.1 5.85 4.1 5.85s-3.587 3.797-4.92 6.568c-1.332 2.771-.103 11.084 1.23 12.932 1.333 1.847 4.716 4.72 7.176 5.029 2.46.307 3.896.308 3.896-4.619s.512-11.597-.41-11.7c-.923-.102-3.486.616-3.588 2.874-.103 2.258 2.016 4.416 2.152 6.055.205 2.464-1.742 3.798-3.895 2.36-3.147-2.1-4.1-5.439-3.793-8.723.307-3.284 2.665-8.416 6.458-8.518 3.793-.103 5.946 1.95 11.687 8.313 5.74 6.363 10.148 12.932 25.935 16.318 15.787 3.387 46.052 5.424 67.508 5.134 21.456-.29 69.79-2.21 80.233-8.84 4.596-2.917 9.318-6.88 12.802-10.66 5.035-5.461 8.376-10.429 12.496-10.368 5.125.076 8.508 5.85 8.2 9.853-.307 4.002-3.587 6.773-5.432 7.389-1.845.616-3.588-.616-2.153-3.797 1.435-3.182 1.948-7.287-.615-7.492-2.563-.205-2.255.41-2.358 2.874-.051 1.233.256 4.577.488 7.699.232 3.111.385 6.002 1.665 5.95 2.563-.102 7.846-2.104 10.046-7.39 1.025-2.462 1.845-10.467-.615-13.136-2.46-2.668-4.1-3.797-4.1-3.797s5.432-5.433 5.432-13.034c-.205-4.31-1.024-8.518-5.842-11.187-4.818-2.668-7.417-1.728-7.894.103-.615 2.36-1.128 6.979.102 12.11 1.264 5.27 3.486 7.184 4.716 4.516 1.537-3.334 1.957-7.607-.307-9.237-3.28-2.36-2.666-4.72.102-4.413 2.768.308 6.868 3.181 6.766 8.62-.103 5.44-3.383 10.983-6.663 10.675-3.28-.308-7.279-4.619-10.764-10.469-3.485-5.85-11.482-15.497-22.963-17.241-11.481-1.745-70.732.615-75.243.615-4.51 0-52.793-1.642-56.381-1.54zm109.138 16.006c9.51.007 22.09.3 27.92 4.52 6.663 4.823 5.74 9.339 5.74 9.339s-12.2 1.362-36.845 1.5c-25.852.146-72.747-.29-85.389 0-13.337.307-37.369-.678-45.577-1.5 0 0-.717-4.721 5.536-9.031 6.253-4.31 11.173-5.235 32.906-4.619 21.732.616 43.567.719 46.335.821 2.768.103 35.88-1.026 45.515-1.026 1.205 0 2.5-.004 3.859-.004zm33.638 17.682s.725 5.66-4.929 7.547c-5.654 1.887-20.876 6.241-51.465 6.241-30.59 0-73.936-.145-83.795-1.306-9.858-1.161-28.124-2.468-27.254-12.337 20.44 1.161 81.184.87 84.519.87 3.334 0 36.968.726 55.524.146 18.557-.58 27.4-1.161 27.4-1.161zm61.917-35.228.923 12.932s-4.408.923-5.33-3.387c-.923-4.31-1.333-5.747-1.333-5.747s-4.203 0-3.896 3.284c.308 3.284-.117 11.656 4.818 12.829 3.602.855 4.194-.12 6.151-.41 1.203 2.829.884 6.268 1.23 9.441 0 0-6.356 3.592-7.073 6.466-.718 2.873-.41 7.594.615 7.902 1.025.308 1.538.308 2.05-1.847.513-2.155.615-5.645 3.178-6.671 2.563-1.026 2.665-.616 2.665-.616.359.36 1.18 6.979.308 8.21 0 0-6.048 4.106-7.689 4.311-1.64.205-1.845.308-1.845.308s-2.255-8.518-1.025-11.7c1.23-3.181 6.56-5.645 7.176-7.8.615-2.155 0-4.31-2.46-3.9-2.46.41-6.612 1.899-7.381 6.98-.897 5.927-.103 17.344-.103 17.754 0 .41.103 1.745-2.972 2.36-3.076.616-8.972 1.952-9.842 1.698-.905-.176-2.767-10.626-1.845-11.96.923-1.335 2.46-2.36 5.946-1.437 3.485.923 3.588 4.208 3.793 6.67.205 2.464 2.768 3.388 3.075.411.308-2.976.82-12.11-4.613-12.726-5.433-.616-9.43.231-9.533-2.463-.063-1.644-.504-6.007-.205-6.363 1.042-1.241 4.818-.41 6.765-3.387 1.948-2.976 1.783-8.54 1.538-10.57-.253-2.096-2.62-4.182-3.394.98-.543 3.616-1.343 5.01-3.782 5.074-1.668.044-1.743-.307-1.743-.307l-.82-8.724s3.896-1.642 7.689-1.847c3.793-.206 3.998 1.95 3.998 3.284 0 1.334 1.127 10.776-.615 12.52-1.743 1.745-5.946 2.67-5.946 4.003 0 1.334-.82 2.874 2.46 2.771 3.28-.102 8.406-1.334 8.509-8.108.113-7.493-3.588-16.112.41-17.344 3.998-1.232 10.148-2.874 10.148-2.874zm-291.213 0-.922 12.932s4.408.923 5.33-3.387c.923-4.31 1.333-5.747 1.333-5.747s4.203 0 3.895 3.284c-.307 3.284.117 11.656-4.818 12.829-3.602.855-4.193-.12-6.15-.41-1.204 2.829-.884 6.268-1.23 9.441 0 0 6.355 3.592 7.073 6.466.717 2.873.41 7.594-.615 7.902-1.025.308-1.538.308-2.05-1.847-.513-2.155-.616-5.645-3.178-6.671-2.563-1.026-2.666-.616-2.666-.616-.358.36-1.179 6.979-.307 8.21 0 0 6.048 4.106 7.688 4.311 1.64.205 1.845.308 1.845.308s2.256-8.518 1.025-11.7c-1.23-3.181-6.56-5.645-7.175-7.8-.615-2.155 0-4.31 2.46-3.9 2.46.41 6.612 1.899 7.38 6.98.898 5.927.103 17.344.103 17.754 0 .41-.102 1.745 2.973 2.36 3.075.616 8.971 1.952 9.841 1.698.905-.176 2.768-10.626 1.845-11.96-.922-1.335-2.46-2.36-5.945-1.437-3.486.923-3.588 4.208-3.793 6.67-.205 2.464-2.768 3.388-3.075.411-.308-2.976-.82-12.11 4.613-12.726 5.433-.616 9.43.231 9.533-2.463.063-1.644.504-6.007.205-6.363-1.042-1.241-4.818-.41-6.766-3.387-1.947-2.976-1.782-8.54-1.537-10.57.252-2.096 2.62-4.182 3.394.98.542 3.616 1.342 5.01 3.781 5.074 1.669.044 1.743-.307 1.743-.307l.82-8.724s-3.895-1.642-7.688-1.847c-3.793-.206-3.998 1.95-3.998 3.284 0 1.334-1.128 10.776.615 12.52 1.743 1.745 5.946 2.67 5.946 4.003 0 1.334.82 2.874-2.46 2.771-3.281-.102-8.407-1.334-8.509-8.108-.113-7.493 3.588-16.112-.41-17.344-3.998-1.232-10.149-2.874-10.149-2.874zm314.18-46.073c2.404-.116 4.406 1.506 6.138 2.925 1.282 1.051 2.185 2.535 2.728 4.048.494 1.376 1.032 2.583 1.346 4.01.625 2.832.99 5.675.993 8.555.003 2.997-.252 6.075-1.253 8.912-.632 1.788-1.113 3.557-1.976 5.277-1.207 2.405-2.987 4.649-5.397 5.69-1.949.842-4.433.561-6.262-.444-2.51-1.378-4.113-3.999-5.349-6.506-.967-1.962-2.197-5.133-2.625-7.173-.286-1.366-.714-2.604-.581-4.096.222-2.501.255-4.954.773-7.01.447-1.773.65-3.59 1.446-5.184 1.766-3.54 4.174-7.227 7.958-8.865.636-.276 1.373-.106 2.06-.139zm-4.57 7.564c-1.27 1.138-2 2.755-2.7 4.284-.472 1.033-.688 2.096-.949 3.187-.86 3.599-.212 7.402.821 10.94.801 2.743 1.71 5.744 3.867 7.67.788.702 1.904 1.395 2.921 1.215.958-.17 1.578-.797 2.296-1.56.662-.703 1.307-1.212 1.701-2.055 1.283-2.746 2.567-5.586 2.997-8.589.442-3.086.647-6.342-.216-9.38-.951-3.344-3.404-6.517-6.73-7.577-1.777-.567-2.495.509-4.008 1.865zM15.8 207.105c-2.404-.116-4.406 1.506-6.138 2.925-1.282 1.051-2.185 2.535-2.729 4.048-.494 1.376-1.031 2.583-1.346 4.01-.624 2.832-.99 5.675-.992 8.555-.003 2.997.251 6.075 1.252 8.912.632 1.788 1.114 3.557 1.977 5.277 1.206 2.405 2.986 4.649 5.397 5.69 1.948.842 4.432.561 6.261-.444 2.51-1.378 4.113-3.999 5.35-6.506.966-1.962 2.197-5.133 2.624-7.173.286-1.366.715-2.604.582-4.096-.223-2.501-.256-4.954-.774-7.01-.446-1.773-.65-3.59-1.445-5.184-1.766-3.54-4.174-7.227-7.958-8.865-.636-.276-1.374-.106-2.061-.139zm4.569 7.564c1.27 1.138 2 2.755 2.7 4.284.473 1.033.689 2.096.95 3.187.86 3.599.211 7.402-.822 10.94-.8 2.743-1.71 5.744-3.867 7.67-.787.702-1.904 1.395-2.92 1.215-.959-.17-1.578-.797-2.297-1.56-.662-.703-1.307-1.212-1.701-2.055-1.283-2.746-2.567-5.586-2.997-8.589-.442-3.086-.647-6.342.217-9.38.95-3.344 3.403-6.517 6.73-7.577 1.776-.567 2.494.509 4.007 1.865zm88.006-194.32c.307.855.271-1.048 0 0zm-.154.326c-7.751-.01-15.645.937-22.795 4.094-5.578 2.07-11.175 4.459-15.58 8.55-7.653 6.546-14.287 14.533-18.06 23.95-2.375 5.4-4.88 10.771-6.178 16.56-2.285 9.177-3.101 18.605-4.436 27.94-.89 4.183-.945 8.475-1.738 12.675-.604 5.81-.823 11.655-1.57 17.448-.89 9.799-1.78 19.616-3.465 29.321-.844 4.501-1.113 9.125-2.388 13.535-.863 3.2-3.377 5.507-5.997 7.338-3.902 2.969-9.099 4.978-13.976 3.403-6.37-1.924-10.594-7.804-12.951-13.74-3.645-9.006-4.013-18.872-4.486-28.454-.325-7.29.16-14.589 1.316-21.79 1.012-7.89 2.709-16.232 8.02-22.438 3.6-3.795 9.164-5.389 14.275-4.837 2.742.446 4.477 2.854 5.52 5.235 2.94 5.716 4.747 12.007 5.045 18.442.46 6.069-.01 12.158.842 18.17.15 3.153-.687 6.243-.777 9.388-.515 7.038-1.549 14.632-6.33 20.168-2.226 2.45-5.526 4.857-9.01 3.884-2.834-.85-4.04-3.877-5.41-6.219-4.017-8.45-5.375-18.01-4.891-27.303.393-5.154 1.078-10.402 3.056-15.21 1.567-3.504 4.824-6.955 8.93-6.827 3.45.462 5.06 4.02 6 6.97 1.598 5.385 1.583 11.075 1.828 16.64-.028 4.914-.502 10.008-2.59 14.507-.772 1.268-2.765 1.39-3.54.044-1.907-2.46-1.724-5.765-2.533-8.64-.84-4.35-.328-8.843-.74-13.197-.089-1.3-1.208-3.157-2.725-2.664-1.592 1.546-.912 4.015-1.178 5.998-.282 6.429-.307 13.043 1.893 19.183.869 3 1.603 6.827 4.798 8.2 2.69.725 5.134-1.673 6.139-3.958 2.896-6.312 3.82-13.267 4.372-20.117.424-8.526-1.033-17.364-4.959-24.998-1.757-3.098-4.585-6.426-8.46-6.367-3.74.028-6.846 2.573-8.754 5.671-3.29 4.931-5.102 10.774-5.436 16.654-.9 8.656-.7 17.428.259 26.049.857 6.357 3.136 12.382 5.62 18.257 1.66 3.73 4.923 7.314 9.282 7.413 4.8.182 8.904-3.183 11.61-6.813 4.171-5.589 5.061-12.7 6.208-19.39 1.196-7.832.888-15.784 1.035-23.701.12-8.34-.807-16.673-2.886-24.763-1.782-7.174-3.331-15.016-8.752-20.426-2.124-2.043-4.785-4.34-7.963-3.718-3.08.56-5.757 2.39-8.42 3.98-3.39 2.097-5.865 5.326-7.62 8.86-4.9 9.09-6.778 19.394-8.321 29.516-1.45 7.523-2.829 15.005-3.161 22.669-.641 11.826-.283 23.72-.712 35.572-.216 12.712.728 25.456 3.646 37.855 2.346 11.12 4.121 22.671 9.48 32.796 2.882 5.723 6.366 11.434 11.759 15.042 3.434 1.768 7.436.736 10.953-.027 4.379-1.042 8.199-3.839 10.96-7.342 2.657-4.056 3.27-9.005 3.992-13.694 1.018-4.847 1.656-9.751 1.539-14.709.073-6.653-.645-13.228-2.634-19.58-.785-3.837-1.53-7.93-.483-11.787 1.246-4.186 6.49-5.712 10.306-4.354 3.351 1.29 6.081 3.773 8.826 6.022 9.945 8.57 16.764 20.24 27.317 28.152 5.313 3.476 12.2 3.303 18.084 1.67 5.963-1.69 10.88-5.755 15.502-9.665 4.711-4.398 7.889-10.148 12.451-14.693 3.983-4.274 9.27-7.412 15.106-8.21 4.21-.536 9.057-.969 12.662 1.745 4.648 3.888 8.745 8.89 9.92 14.993.712 3.41 1.297 6.86 1.728 10.314.126 1.29-.592 3.502-2.257 2.938-2.097-1.051-2.805-3.581-4.236-5.285-3.083-4.516-7.14-9.198-12.802-10.208-4.36-.766-8.7 1.357-11.572 4.535-4.271 4.335-6.43 10.082-8.393 15.706-.603 1.675-2.31 3.592-1.093 5.395 1.567 1.03 3.649.688 5.435.81 28.66 1.593 57.368.33 86.042-.186 7.423-.175 14.864-.103 22.278-.211 1.756-.732 1.59-3.204 1.192-4.754-2.121-7.15-4.957-14.836-11.316-19.3-3.321-2.47-8.071-3.282-11.748-1.172-3.889 2.221-6.857 5.803-9.344 9.497-1.23 1.636-1.994 3.696-3.532 5.066-1.034.792-2.842.341-2.924-1.11-.79-4.059.536-8.145 1.483-12.06 1.141-4.376 3.312-8.465 6.504-11.689 2.094-2.14 4.133-4.795 7.294-5.272 8.493-1.53 17.37 1.918 23.338 8.003 3.858 3.613 6.647 8.135 9.85 12.285C256.54 225.563 264.28 230.86 273.1 232c5.611.833 11.904.034 16.315-3.756 8.432-6.614 13.953-16.07 21.789-23.298 4.204-4.207 8.796-8.87 14.928-9.866 5.563-.496 9.984 5.761 8.58 10.952-1.789 7.208-3.828 14.372-3.97 21.852-.412 6.169.691 12.264 1.677 18.344.578 3.451.328 7.078 2.104 10.22 1.83 4.024 5.031 7.474 9.11 9.304 3.88 1.686 8.293 2.98 12.527 2.004 3.608-1.142 6.371-4.038 8.713-6.876 5.024-6.62 7.893-14.602 10.335-22.448 1.806-6.197 2.906-12.567 4.514-18.815 1.22-5.224 1.648-10.6 2.618-15.865 1.433-11.65.554-23.49.74-35.232-.015-11.664.156-23.368-1.729-34.9-1.668-10.99-3.541-22.015-6.839-32.625-1.735-4.788-3.947-9.617-7.345-13.504-2.747-2.983-6.59-4.684-10.359-6.053-1.948-.793-4.252-.792-6.113.407-5.565 3.402-8.871 9.507-10.372 15.738-2.34 7.299-4.152 14.815-4.544 22.502-.508 8.455-.348 16.966-.297 25.448.373 7.45 1.782 14.87 4.298 21.9 2.14 5.33 6.203 10.453 11.973 11.93 3.54.858 7.32-.713 9.462-3.603 3.342-4.231 4.81-9.581 6.333-14.662 2.676-9.673 2.807-19.803 2.388-29.76-.405-6.509-1.39-13.277-4.954-18.895-1.752-2.88-3.86-6.099-7.4-6.897-3.173-1.015-6.69.676-8.746 3.21-3.48 4.29-4.987 9.817-6.107 15.1-1.858 10.177-.803 20.767 2.284 30.581 1.038 2.861 2.947 6.095 6.178 6.708 2.58.228 4.262-2.17 4.79-4.413 2.35-7.037 3.296-14.503 3.343-21.892-.123-2.04-.024-4.178-.688-6.124-1.118-1.276-2.922-.007-3.21 1.353-.829 2.665.132 5.491-.622 8.19-.578 2.48-1.064 4.937-.91 7.5-.191 2.462-.86 5.062-2.461 6.98-1.468 1.061-3.249-.42-3.61-1.911-1.879-4.507-1.402-9.518-1.662-14.286.015-5.943.303-12.017 2.133-17.71.984-2.76 3.602-5.427 6.76-4.857 4.058.702 6.548 4.616 7.957 8.173 1.93 5.31 2.12 11.042 2.526 16.62.382 9.736-1.635 19.736-6.74 28.108-1.461 2.422-4.544 3.558-7.224 2.66-4.91-1.592-7.813-6.443-9.492-11.046-2.547-7.574-2.663-15.686-2.779-23.598.099-6.877.242-13.775.957-20.618.912-6.458 3.044-12.916 7.013-18.15 1.487-1.719 3.93-2.161 6.052-1.565 3.83.404 8.088.978 10.84 4.01 3.673 3.928 5.563 9.154 7.02 14.242 2.718 10.568 2.694 21.59 2.631 32.428-.092 8.172-.48 16.515-3.414 24.24-2.157 5.782-5.248 11.813-10.97 14.753-3.78 2.227-8.52 2.136-12.447.345-6.22-2.425-10.891-8.303-11.77-14.936-1.138-6.95-1.3-13.994-2.556-20.927-.97-6.676-.961-13.448-2.059-20.108-.453-3.88-.318-7.777-1.117-11.626-.62-3.77-.775-7.564-1.59-11.303-.325-3.159-.341-6.264-.972-9.392-.721-5.172-1.207-10.353-2.254-15.471-.613-4.042-1.318-8.102-2.965-11.873-3.306-7.6-5.355-15.976-10.746-22.498-4.254-5.329-8.511-10.792-14.096-14.821-3.603-2.828-7.568-5.272-11.9-6.614-5.361-1.723-10.744-3.678-16.377-3.945-7.186-.627-14.578-.277-21.42 2.126-5.733 1.898-11.214 4.903-15.22 9.495-4.305 4.869-8.197 10.134-11.714 15.62a71.608 71.608 0 0 0-9.013 21.3c-1.352 5.04-3.837 9.749-4.49 14.974-.516 4.207-1.776 8.256-2.595 12.401-1.653 9.177-1.408 18.618-1.803 27.927-.403 13.577-.473 27.183-1.646 40.723-.615 5.54-1.837 11.341-5.645 15.633-2.112 2.686-5.156 4.753-8.643 4.949-4.145.312-8.818-.39-11.709-3.682-4.626-4.906-6.572-11.695-6.964-18.297-.317-6.473-.846-12.923-1.044-19.404-.29-16.667.464-33.445-2.579-49.901-1.429-7.297-3.347-14.544-5.434-21.698-2.503-7.809-4.446-15.998-9.178-22.846-4.602-7.118-9.129-14.456-15.435-20.19-3.473-3.222-7.764-5.294-12.249-6.685-4.424-1.515-8.942-2.709-13.581-2.833zm-2.9 17.025c7.518-.086 15.473.702 21.875 5.009 8.952 5.502 15.932 14.027 19.716 23.826 3.266 7.43 5.272 15.31 7.633 23.052 1.63 6.098 2.112 12.427 3.11 18.645a431.592 431.592 0 0 1 3.583 37.781c.232 7.793-.77 15.566-1.885 23.261-.767 4.292-4.478 7.687-8.755 8.29-3.798.68-7.225-1.803-9.905-4.191-5.56-5.397-8.627-12.697-12.107-19.482-5.094-10.302-9.921-21.139-18.172-29.355-3.637-3.433-7.969-6.769-13.064-7.332-6.868-.845-14.29-.071-20.144 3.951-8.697 5.65-14.216 14.797-20.091 23.112-2.623 3.657-5.198 7.39-8.228 10.719-1.55 1.295-4.162-.015-3.915-2.072-.714-9.094 1.352-18.087 2.214-27.095 1.765-14.099 3.095-28.45 7.861-41.929 3.491-9.483 6.362-19.34 11.549-28.09 3.597-5.628 8.744-10.35 14.784-13.232 5.623-2.498 11.729-3.718 17.787-4.596 2.044-.211 4.1-.268 6.154-.272zm159.732.206c7.37-.034 14.739 1.656 21.541 4.484 9.27 3.855 15.788 12.313 19.654 21.354 3.103 7.256 5.867 14.66 8.38 22.136 2.386 7.102 3.333 14.578 4.819 21.903 1.561 7.703 2.104 15.557 2.883 23.366.615 6.16 2.155 12.248 2.219 18.449.02 2.032-.475 4.447-2.06 5.773-1.454 1.218-3.28-.78-4.248-1.995-4.792-6.02-9.007-12.46-13.453-18.716-5.133-7.223-11.546-14.252-20.314-16.797-5.705-1.657-12.33-1.85-17.884.659-5.377 2.428-9.616 6.897-13.242 11.481-7.111 8.991-10.987 19.953-16.346 29.995-2.945 5.52-6.193 11.19-11.304 14.977-2.899 2.146-4.657 2.713-6.557 2.74-4.284.062-7.812-2.176-9.084-6.341-2.06-6.746-1.69-13.844-1.972-20.775-.626-15.383.571-30.826 3.338-45.977 1.116-6.113 1.831-12.329 3.481-18.322 1.28-4.648 2.943-9.145 4.423-13.725 2.086-6.45 5.184-12.628 9.168-18.129 5.776-7.976 14.356-14.458 24.233-16.066 4.062-.661 8.22-.454 12.325-.474zM91.525 127.475c5.76-.003 11.382 2.714 15.077 7.123 4.39 4.84 8.048 10.314 11.364 15.932 2.825 5.03 4.544 10.57 5.919 16.144.806 2.734 2.234 5.71 1.339 8.585-.953.83-2.31-.137-3.43.108-5.788-.329-11.517-1.134-17.317-1.226-8.203-.57-16.411-.706-24.638-.547-9.524.034-19.05.313-28.57.41-1.163.048-2.107-1.002-1.714-2.16.57-3.557 3.8-5.796 5.11-9.037 4.438-8.518 9.516-16.835 16.398-23.617 4.883-5.105 10.573-10.173 17.75-11.467a16.538 16.538 0 0 1 2.712-.248zm184.712 1.123c1.95.78 4.46 1.336 6.624 2.01 3.956 1.295 8.247 2.274 11.528 4.978 3.758 3.564 6.833 7.755 10.181 11.685 3.657 4.927 6.526 10.376 9.72 15.601 1.388 2.722 3.006 5.339 4.296 8.101.553 1.216.096 2.944-1.42 3.083-2.271.436-4.567-.362-6.86-.115-14.552-.162-29.112-1.001-43.66-.254-5.871.112-11.693.831-17.515 1.641-1.844.164-3.706.183-5.542.268-1.272-.405-.624-2.141-.639-3.121.607-3.58 2.293-6.843 2.993-10.372 2.578-9.221 7.936-17.335 13.705-24.852 2.289-2.664 4.705-5.482 7.928-7.013 2.741-.967 5.681-1.47 8.55-1.67zm-194.34 49.684c12.814-.059 25.416 2.538 37.99 4.624 5.599.698 11.134 1.789 16.73 2.495 7.49 1.494 14.996 2.993 22.56 3.954 1.212.445 3.016 1.033 3.165 2.525-.386 1.234-2.047 1.37-3.114 1.684-5.402.761-10.194-2.623-15.4-3.174-4.855-.612-9.81-.735-14.64-1.649-6.966-1.142-14.03-1.22-21.013-2.33-3.247-.315-6.31-1.559-9.558-1.41-5.503-.466-10.874-1.83-16.39-2.087-6.802-.529-13.641-1.283-20.446-1.29-3.888.209-7.775.476-11.661.72-1.182.137-2.804.536-3.682-.497-.084-1.182 1.65-.862 2.363-1.219 5.896-1.468 11.958-2.06 18.024-2.114 5.023-.152 10.048-.205 15.072-.232zm228.452.173c3.849.124 7.769 1.607 11.387 2.849.892.306.176 1.439-.656 1.402-4.669-.208-9.291-.713-13.964-.725-3.047-.008-6.096-.11-9.14.025l-6.712.3c-9.234.41-18.365 1.955-27.548 3.053-5.843.699-11.674 1.758-17.54 2.372-5.246.55-10.435 1.53-15.675 2.15-6.644.788-13.148 2.29-19.677 3.75-1.549.346-4.164.321-4.568-1.5-.378-1.704 1.951-2.713 3.438-2.913 4.402-.593 8.78-1.427 13.166-2.05 7.635-1.086 15.22-2.526 22.778-4.058 11.535-2.339 22.648-3.794 34.362-4.74 2.614-.211 6.755-.137 9.41-.11 1.703.016 17.308.078 20.939.195zm-241.659 8.31c8.864.128 17.586 1.934 26.355 3.043 6.523.951 13.046 2.29 19.508 3.335 2.123.212 4.945.129 6.177 2.226.197 1.568-1.849 2.045-2.365 3.35-4.958 7.088-10.918 14.19-19.24 17.314-5.83 1.804-12.466 1.483-17.862-1.51-9.286-5.083-16.07-13.474-22.847-21.383-1.331-1.32-3.658-2.888-2.934-5.07.908-1.607 3.15-.907 4.631-1.024 2.847-.347 5.716-.272 8.577-.28zm225.113.105c6.275.263 12.64-.416 18.848.73 1.154.427.719 1.885-.121 2.401-6.931 8.122-13.304 17.115-22.538 22.823-5.555 3.61-12.567 5.593-19.081 3.637-7.37-2.053-13.115-7.623-17.524-13.655-1.839-2.484-3.878-4.914-5.246-7.683.072-1.393 1.942-1.066 2.872-1.44 7.768-1.572 15.775-1.939 23.379-4.18 6.139-1.355 12.421-1.945 18.656-2.61.251-.015.503-.017.755-.023zm60.868 14.172c2.649.53 4.705 2.604 6.532 4.47 5.002 6.25 7.61 14.55 6.307 22.53-.692 5.448-1.285 11.058-3.54 16.123-2.042 4.417-6.496 7.952-11.523 7.73-3.72.053-7.21-2.002-9.24-5.074-3.898-5.527-4.546-12.493-5.632-18.975-.94-5.79.157-11.772 2.738-17.009 1.382-2.599 2.787-5.386 5.126-7.255 2.283-1.605 5.337-1.592 7.91-1.566.1-.63.701-1.04 1.322-.974zm-336.479.873c4.376.02 7.664 3.702 9.387 7.4 2.346 4.268 3.813 9.1 3.453 14.01-.141 6.383-.572 12.946-2.921 18.947-1.237 2.69-3.08 5.091-5.098 7.24-2.662 2.443-6.701 2.692-10.073 1.908-5.183-1.315-8.4-6.34-9.612-11.266-1.785-7.743-2.359-15.815-1.477-23.718.914-5.246 3.846-10.204 8.165-13.337 2.475-1.508 5.439-.984 8.176-1.184z" style="opacity:1;fill:#000;fill-opacity:.96449705;stroke:none;stroke-width:1;stroke-linecap:butt;stroke-linejoin:round;stroke-miterlimit:4;stroke-dasharray:none;stroke-dashoffset:0;stroke-opacity:1;paint-order:normal" transform="translate(115.497 332.518)"/></g></svg>