<svg xmlns="http://www.w3.org/2000/svg" xmlns:xlink="http://www.w3.org/1999/xlink" width="1350" height="900"><clipPath id="a"><path d="M0 0h580.5v387H0z"/></clipPath><path fill="#fcd116" d="M0 0h1350v900H0z"/><path fill="#009" d="M712.5 768h531l-57.94-114L978 600l-209.45 54z"/><path fill="#090" d="M978 228 768.55 654h417.01z"/><path fill="#fff" d="m978 351-88.5 180h177z"/><path fill="#009e49" d="M0 387V0h580.5z"/><path fill="#ce1126" d="M0 387h580.5V0z"/><path stroke="#fcd116" stroke-width="162.54" d="M0 387 580.5 0"/><path stroke="#000" stroke-width="116.1" d="M0 387 580.5 0" clip-path="url(#a)"/><g id="e" transform="rotate(-33.69 398.39 -601.47)"><g id="d"><g id="c"><path id="b" fill="#fff" d="M0-54.18V0h27.09z" transform="rotate(18 0 -54.18)"/><use xlink:href="#b" transform="scale(-1 1)"/></g><use xlink:href="#c" transform="rotate(72)"/></g><use xlink:href="#c" transform="rotate(-72)"/><use xlink:href="#d" transform="rotate(144)"/></g><use xlink:href="#e" x="-220.59" y="147.06"/></svg>