<svg xmlns="http://www.w3.org/2000/svg" viewBox="0 0 640 480"><defs><clipPath id="a"><path fill-opacity=".7" d="M0 0h640v480H0z"/></clipPath></defs><g clip-path="url(#a)"><path fill="#fff" d="M0 0h640v480H0Z"/><path fill="#fff" fill-rule="evenodd" d="M92.5 0h477.2v480H92.4Z"/><path fill="#db0000" fill-rule="evenodd" d="m319.802-4.376 355.217-4.06 2.807 233.3h-358z"/><path fill="#0000ab" fill-rule="evenodd" d="m-14.92 224.005 334.74.858.015 254.762-340.12 19.76zm226.44-46.742-42-29.4-41.685 29.662 15.484-48.062-41.6-29.9 51.6-.4 16-48 16.3 47.9h51.6l-41.5 30 15.9 48z"/><path fill="#d80000" fill-rule="evenodd" d="m516.9 413.9-42.4-27.7-42.1 28 15.6-45.6-42-28 52-.5 16.2-45.4 16.4 45.3h52l-41.8 28.5 16 45.4z"/></g></svg>