<svg xmlns="http://www.w3.org/2000/svg" width="488.333" height="293" viewBox="0 0 129.205 77.523"><g style="display:inline"><path d="M0 0h129.205v38.761H0z" style="opacity:1;fill:#da251d;fill-opacity:1;stroke:none;stroke-width:2.54404;stroke-linecap:round;stroke-opacity:0"/><path d="M0 38.761h129.205v38.761H0z" style="opacity:1;fill:#00923f;fill-opacity:1;stroke:none;stroke-width:2.54404;stroke-linecap:round;stroke-opacity:0"/><path d="M0 38.761h129.205v.253H0z" style="fill:#3917ba;fill-opacity:1;stroke-width:1.20343;stroke-linecap:round;stroke-opacity:0"/><ellipse cx="65.634" cy="38.583" rx="34.155" ry="34.691" style="opacity:1;fill:#f8c300;fill-opacity:1;stroke:none;stroke-width:1.40978;stroke-linecap:round;stroke-opacity:0"/><path d="M66.895 45.613s-.557.384-.94 1.08c-.383.697-4.562 9.966-5.572 12.092-1.01 2.126-2.056 4.33-2.996 4.225-.94-.105-.242-1.925.49-3.633.73-1.707 2.46-4.995 2.46-4.995s-.384.174-.627-.07c-.244-.243-.09-1.062-.09-1.062s-2.102 3.94-3.29 5.532c-.535.715-.996-.206-.996-.206s-.557 1.638-1.637 2.265c-1.08.627-1.601.592-1.601.592s.522-2.718 3.552-7.387c3.03-4.67 5.99-8.85 5.99-8.85s-.602-.137-.637-.728c-.05-.815.246-1.49.246-1.49s-.557.225-.99.698c0 0-.206-1.156-.24-2.838-.024-1.106.053-1.706.053-1.706s-.725-.31-1.247-.867c-.523-.558-.633-1.154-.633-1.154l-8.602-6.934s-.452.07-1.253-.767c-.801-.836-1.533-1.708-1.533-1.708s-.522.244-.975-.209c-.452-.453-.452-1.01-.452-1.01s-1.01-.174-1.672-.662c-.662-.488-.94-1.568-.94-1.568s-.453-.07-.697-.279c-.243-.21-.383-1.08-.383-1.08s-8.446-3.813-15.306-4.788c-6.86-.976-16.428-.474-16.428-.474s.287-.41.914-.654c.627-.244 1.077-.27 1.077-.27l-3.105-.347s9.482-3.956 21.079-4.13c11.596-.174 15.363.248 15.363.248s6.548.217 7.662 1.785c1.115 1.568 3.757 7.15 3.757 7.15s1.381 2.855 3.931 4.398c2.679 1.622 4.49 2.044 6.266 1.452 1.776-.592 2.657-3.017 2.657-3.017s.824-2.122 2.81-3.063c1.984-.94 3.654-.475 4.55-.157 1.07.379 2.288 2.124 2.514 3.507.213 1.307.286 2.367.286 2.367s4.11.94 5.537 2.23c1.428 1.29 2.264 2.51 2.264 2.51s-3.97-1.5-7.313-2.057c-3.343-.557-7.104-.697-7.104-.697l-1.756 3.239s8.895 2.267 13.7.873c4.806-1.394 7.07-2.126 7.07-2.126s2.654-.982 5.726.544c2.945 1.462 7.195 4.177 10.94 8.897 3.674 4.63 5.57 6.006 9.277 10.875 3.62 4.757 4.02 7.92 4.184 8.62-.019.437.05.95-.214 1.171l-1.393-2.752s.354 1.6.354 2.402c0 .801-1.26-2.747-11.746-9.452-9.576-6.124-13.37-6.973-13.37-6.973s-.729.398-1.251.328c-.523-.07-1.254-.836-1.254-.836s-.07.662-.975.557c-.905-.104-1.01-.453-1.01-.453s-.487.418-.836.418c-.348 0-1.01-.522-1.01-.522s-.661.488-1.114.488c-.453 0-.661-.314-.661-.314s-.314.383-.662.348c-.348-.034-.906-.487-.906-.487s-.278.174-.835.174c-.557 0-1.254-.314-1.254-.314s-.592.558-1.254.488c-.661-.07-1.149-.348-1.149-.348s-.243.278-.8.278c-.558 0-1.777-.662-1.777-.662s-.975.349-2.089.28c-1.114-.07-2.02-.384-2.02-.384s-.975.453-2.194.418c-1.218-.035-2.228-.279-2.228-.279s-1.15 1.36-2.02 2.056l-1.834 1.47z" style="opacity:1;fill:#0a0b0c;fill-opacity:1;stroke:none;stroke-width:.252435px;stroke-linecap:butt;stroke-linejoin:miter;stroke-opacity:1"/><path d="M80.975 29.447a5.584 5.416 0 0 1-5.971 4.53 5.584 5.416 0 0 1-5.125-5.419" style="opacity:1;fill:#da251d;fill-opacity:1;stroke:none;stroke-width:2.54;stroke-linecap:round;stroke-opacity:0"/><path d="m71.417 32.314 1.677-3.427s6.02.226 9.636 1.247l.08-.936-13.108-.984.205 3.842z" style="opacity:1;fill:#0a0b0c;fill-opacity:1;stroke:none;stroke-width:.252435px;stroke-linecap:butt;stroke-linejoin:miter;stroke-opacity:1"/><circle cx="-77.291" cy="25.712" r="1.035" style="opacity:1;fill:#fff;fill-opacity:1;stroke:none;stroke-width:2.5311;stroke-linecap:round;stroke-opacity:0" transform="scale(-1 1)"/><circle cx="77.621" cy="25.98" r=".467" style="opacity:1;fill:#0a0b0c;fill-opacity:1;stroke:none;stroke-width:2.18807;stroke-linecap:round;stroke-opacity:0"/></g></svg>