<svg xmlns="http://www.w3.org/2000/svg" xmlns:xlink="http://www.w3.org/1999/xlink" width="1063" height="708.688"><defs><linearGradient id="r" x1="17.894" x2="45.24" y1="631.96" y2="631.96" gradientTransform="matrix(1 0 0 -1 -8.362 705.835)" gradientUnits="userSpaceOnUse"><stop offset=".006" style="stop-color:#fbc926"/><stop offset=".253" style="stop-color:#fffbcc"/><stop offset=".304" style="stop-color:#f8f0bb"/><stop offset=".407" style="stop-color:#e7d28e"/><stop offset=".55" style="stop-color:#cca246"/><stop offset=".596" style="stop-color:#c3922e"/><stop offset=".871" style="stop-color:#eed688"/><stop offset="1" style="stop-color:#fffbcc"/></linearGradient><linearGradient id="s" x1="40" x2="120.011" y1="604.223" y2="604.223" gradientTransform="matrix(1 0 0 -1 -8.362 705.835)" gradientUnits="userSpaceOnUse"><stop offset=".006" style="stop-color:#fbc926"/><stop offset=".253" style="stop-color:#fffbcc"/><stop offset=".304" style="stop-color:#f8f0bb"/><stop offset=".407" style="stop-color:#e7d28e"/><stop offset=".55" style="stop-color:#cca246"/><stop offset=".596" style="stop-color:#c3922e"/><stop offset=".871" style="stop-color:#eed688"/><stop offset="1" style="stop-color:#fffbcc"/></linearGradient><linearGradient id="t" x1="-470.83" x2="-443.483" y1="631.96" y2="631.96" gradientTransform="rotate(180 -22.59 352.917)" gradientUnits="userSpaceOnUse"><stop offset=".006" style="stop-color:#fbc926"/><stop offset=".253" style="stop-color:#fffbcc"/><stop offset=".304" style="stop-color:#f8f0bb"/><stop offset=".407" style="stop-color:#e7d28e"/><stop offset=".55" style="stop-color:#cca246"/><stop offset=".596" style="stop-color:#c3922e"/><stop offset=".871" style="stop-color:#eed688"/><stop offset="1" style="stop-color:#fffbcc"/></linearGradient><linearGradient id="u" x1="-448.723" x2="-368.713" y1="604.223" y2="604.223" gradientTransform="rotate(180 -22.59 352.917)" gradientUnits="userSpaceOnUse"><stop offset=".006" style="stop-color:#fbc926"/><stop offset=".253" style="stop-color:#fffbcc"/><stop offset=".304" style="stop-color:#f8f0bb"/><stop offset=".407" style="stop-color:#e7d28e"/><stop offset=".55" style="stop-color:#cca246"/><stop offset=".596" style="stop-color:#c3922e"/><stop offset=".871" style="stop-color:#eed688"/><stop offset="1" style="stop-color:#fffbcc"/></linearGradient><linearGradient id="v" x1="189.225" x2="269.703" y1="640.599" y2="640.599" gradientTransform="matrix(1 0 0 -1 -8.362 705.835)" gradientUnits="userSpaceOnUse"><stop offset=".006" style="stop-color:#fbc926"/><stop offset=".253" style="stop-color:#fffbcc"/><stop offset=".304" style="stop-color:#f8f0bb"/><stop offset=".407" style="stop-color:#e7d28e"/><stop offset=".55" style="stop-color:#cca246"/><stop offset=".596" style="stop-color:#c3922e"/><stop offset=".871" style="stop-color:#eed688"/><stop offset="1" style="stop-color:#fffbcc"/></linearGradient><linearGradient id="w" x1="249.996" x2="271.097" y1="637.126" y2="637.126" gradientTransform="matrix(1 0 0 -1 -8.362 705.835)" gradientUnits="userSpaceOnUse"><stop offset=".006" style="stop-color:#fbc926"/><stop offset=".253" style="stop-color:#fffbcc"/><stop offset=".304" style="stop-color:#f8f0bb"/><stop offset=".407" style="stop-color:#e7d28e"/><stop offset=".55" style="stop-color:#cca246"/><stop offset=".596" style="stop-color:#c3922e"/><stop offset=".871" style="stop-color:#eed688"/><stop offset="1" style="stop-color:#fffbcc"/></linearGradient><linearGradient id="x" x1="-6.445" x2="14.656" y1="637.078" y2="637.078" gradientTransform="rotate(180 98.236 352.917)" gradientUnits="userSpaceOnUse"><stop offset=".006" style="stop-color:#fbc926"/><stop offset=".253" style="stop-color:#fffbcc"/><stop offset=".304" style="stop-color:#f8f0bb"/><stop offset=".407" style="stop-color:#e7d28e"/><stop offset=".55" style="stop-color:#cca246"/><stop offset=".596" style="stop-color:#c3922e"/><stop offset=".871" style="stop-color:#eed688"/><stop offset="1" style="stop-color:#fffbcc"/></linearGradient><linearGradient id="y" x1="-203.094" x2="-181.215" y1="436.576" y2="436.576" gradientTransform="rotate(119.387 137.774 345.92)" gradientUnits="userSpaceOnUse"><stop offset=".006" style="stop-color:#fbc926"/><stop offset=".253" style="stop-color:#fffbcc"/><stop offset=".304" style="stop-color:#f8f0bb"/><stop offset=".407" style="stop-color:#e7d28e"/><stop offset=".55" style="stop-color:#cca246"/><stop offset=".596" style="stop-color:#c3922e"/><stop offset=".871" style="stop-color:#eed688"/><stop offset="1" style="stop-color:#fffbcc"/></linearGradient><linearGradient id="H" x1="82.442" x2="358.847" y1="167.612" y2="167.612" gradientUnits="userSpaceOnUse"><stop offset=".006" style="stop-color:#fbc926"/><stop offset=".253" style="stop-color:#fffbcc"/><stop offset=".304" style="stop-color:#f8f0bb"/><stop offset=".407" style="stop-color:#e7d28e"/><stop offset=".55" style="stop-color:#cca246"/><stop offset=".596" style="stop-color:#c3922e"/><stop offset=".871" style="stop-color:#eed688"/><stop offset="1" style="stop-color:#fffbcc"/></linearGradient><linearGradient id="I" x1="96.531" x2="343.751" y1="173.739" y2="173.739" gradientUnits="userSpaceOnUse"><stop offset="0" style="stop-color:#fdebf3"/><stop offset=".112" style="stop-color:#f7eaf3"/><stop offset=".23" style="stop-color:#faf1f2"/><stop offset=".354" style="stop-color:#fffef1"/><stop offset=".476" style="stop-color:#fbfbf1"/><stop offset=".592" style="stop-color:#f0f3f2"/><stop offset=".705" style="stop-color:#dde5f4"/><stop offset=".714" style="stop-color:#dbe4f4"/><stop offset="1" style="stop-color:#fee9df"/></linearGradient><linearGradient id="J" x1="207.129" x2="233.873" y1="151.076" y2="151.076" gradientUnits="userSpaceOnUse"><stop offset="0" style="stop-color:#fdebf3"/><stop offset=".112" style="stop-color:#f7eaf3"/><stop offset=".23" style="stop-color:#faf1f2"/><stop offset=".354" style="stop-color:#fffef1"/><stop offset=".476" style="stop-color:#fbfbf1"/><stop offset=".592" style="stop-color:#f0f3f2"/><stop offset=".705" style="stop-color:#dde5f4"/><stop offset=".714" style="stop-color:#dbe4f4"/><stop offset="1" style="stop-color:#fee9df"/></linearGradient><linearGradient id="K" x1="219.503" x2="238.222" y1="554.76" y2="554.76" gradientTransform="matrix(1 0 0 -1 -8.362 705.835)" gradientUnits="userSpaceOnUse"><stop offset="0" style="stop-color:#be1349"/><stop offset=".24" style="stop-color:#be124e"/><stop offset=".253" style="stop-color:#be124e"/><stop offset=".478" style="stop-color:#f8adae"/><stop offset=".513" style="stop-color:#e8979d"/><stop offset=".597" style="stop-color:#c76a79"/><stop offset=".68" style="stop-color:#ab445a"/><stop offset=".763" style="stop-color:#962643"/><stop offset=".845" style="stop-color:#861132"/><stop offset=".924" style="stop-color:#7d0428"/><stop offset="1" style="stop-color:#7a0025"/></linearGradient><linearGradient id="L" x1="139.633" x2="160.447" y1="154.936" y2="154.936" gradientUnits="userSpaceOnUse"><stop offset="0" style="stop-color:#fdebf3"/><stop offset=".112" style="stop-color:#f7eaf3"/><stop offset=".23" style="stop-color:#faf1f2"/><stop offset=".354" style="stop-color:#fffef1"/><stop offset=".476" style="stop-color:#fbfbf1"/><stop offset=".592" style="stop-color:#f0f3f2"/><stop offset=".705" style="stop-color:#dde5f4"/><stop offset=".714" style="stop-color:#dbe4f4"/><stop offset="1" style="stop-color:#fee9df"/></linearGradient><linearGradient id="M" x1="149.791" x2="167.016" y1="550.876" y2="550.876" gradientTransform="matrix(1 0 0 -1 -8.362 705.835)" gradientUnits="userSpaceOnUse"><stop offset="0" style="stop-color:#7cb23d"/><stop offset=".135" style="stop-color:#7eb440"/><stop offset=".234" style="stop-color:#86b949"/><stop offset=".321" style="stop-color:#94c259"/><stop offset=".401" style="stop-color:#a6ce6f"/><stop offset=".434" style="stop-color:#b0d57b"/><stop offset=".502" style="stop-color:#9bc16a"/><stop offset=".658" style="stop-color:#709947"/><stop offset=".798" style="stop-color:#527b2e"/><stop offset=".917" style="stop-color:#3f691e"/><stop offset="1" style="stop-color:#386319"/></linearGradient><linearGradient id="N" x1="-144.62" x2="-127.394" y1="550.876" y2="550.876" gradientTransform="rotate(180 76.037 352.917)" gradientUnits="userSpaceOnUse"><stop offset="0" style="stop-color:#7cb23d"/><stop offset=".13" style="stop-color:#7eb440"/><stop offset=".225" style="stop-color:#86b949"/><stop offset=".309" style="stop-color:#94c259"/><stop offset=".386" style="stop-color:#a6ce6f"/><stop offset=".418" style="stop-color:#b0d57b"/><stop offset=".488" style="stop-color:#9bc16a"/><stop offset=".648" style="stop-color:#709947"/><stop offset=".792" style="stop-color:#527b2e"/><stop offset=".914" style="stop-color:#3f691e"/><stop offset="1" style="stop-color:#386319"/></linearGradient><linearGradient id="O" x1="189.003" x2="200.277" y1="553.465" y2="553.465" gradientTransform="matrix(1 0 0 -1 -8.362 705.835)" gradientUnits="userSpaceOnUse"><stop offset="0" style="stop-color:#00b8b5"/><stop offset=".423" style="stop-color:#b7e2e0"/><stop offset="1" style="stop-color:#00ada8"/></linearGradient><linearGradient id="P" x1="113.088" x2="129.192" y1="161.572" y2="161.572" gradientUnits="userSpaceOnUse"><stop offset="0" style="stop-color:#fdebf3"/><stop offset=".112" style="stop-color:#f7eaf3"/><stop offset=".23" style="stop-color:#faf1f2"/><stop offset=".354" style="stop-color:#fffef1"/><stop offset=".476" style="stop-color:#fbfbf1"/><stop offset=".592" style="stop-color:#f0f3f2"/><stop offset=".705" style="stop-color:#dde5f4"/><stop offset=".714" style="stop-color:#dbe4f4"/><stop offset="1" style="stop-color:#fee9df"/></linearGradient><linearGradient id="Q" x1="122.715" x2="133.989" y1="543.493" y2="543.493" gradientTransform="matrix(1 0 0 -1 -8.362 705.835)" gradientUnits="userSpaceOnUse"><stop offset="0" style="stop-color:#00b8b5"/><stop offset=".269" style="stop-color:#b7e2e0"/><stop offset="1" style="stop-color:#00ada8"/></linearGradient><linearGradient id="R" x1="312.671" x2="328.775" y1="162.436" y2="162.436" gradientUnits="userSpaceOnUse"><stop offset="0" style="stop-color:#fdebf3"/><stop offset=".112" style="stop-color:#f7eaf3"/><stop offset=".23" style="stop-color:#faf1f2"/><stop offset=".354" style="stop-color:#fffef1"/><stop offset=".476" style="stop-color:#fbfbf1"/><stop offset=".592" style="stop-color:#f0f3f2"/><stop offset=".705" style="stop-color:#dde5f4"/><stop offset=".714" style="stop-color:#dbe4f4"/><stop offset="1" style="stop-color:#fee9df"/></linearGradient><linearGradient id="S" x1="324.695" x2="335.967" y1="542.92" y2="542.92" gradientTransform="matrix(1 0 0 -1 -8.362 705.835)" gradientUnits="userSpaceOnUse"><stop offset="0" style="stop-color:#00b8b5"/><stop offset=".687" style="stop-color:#b7e2e0"/><stop offset="1" style="stop-color:#00ada8"/></linearGradient><linearGradient id="T" x1="247.245" x2="263.352" y1="152.37" y2="152.37" gradientUnits="userSpaceOnUse"><stop offset="0" style="stop-color:#fdebf3"/><stop offset=".112" style="stop-color:#f7eaf3"/><stop offset=".23" style="stop-color:#faf1f2"/><stop offset=".354" style="stop-color:#fffef1"/><stop offset=".476" style="stop-color:#fbfbf1"/><stop offset=".592" style="stop-color:#f0f3f2"/><stop offset=".705" style="stop-color:#dde5f4"/><stop offset=".714" style="stop-color:#dbe4f4"/><stop offset="1" style="stop-color:#fee9df"/></linearGradient><linearGradient id="U" x1="-93.108" x2="-81.838" y1="553.465" y2="553.465" gradientTransform="rotate(180 83.913 352.917)" gradientUnits="userSpaceOnUse"><stop offset="0" style="stop-color:#00b8b5"/><stop offset=".451" style="stop-color:#b7e2e0"/><stop offset="1" style="stop-color:#00ada8"/></linearGradient><linearGradient id="V" x1="92.25" x2="106.329" y1="171.334" y2="171.334" gradientUnits="userSpaceOnUse"><stop offset="0" style="stop-color:#fdebf3"/><stop offset=".112" style="stop-color:#f7eaf3"/><stop offset=".23" style="stop-color:#faf1f2"/><stop offset=".354" style="stop-color:#fffef1"/><stop offset=".476" style="stop-color:#fbfbf1"/><stop offset=".592" style="stop-color:#f0f3f2"/><stop offset=".705" style="stop-color:#dde5f4"/><stop offset=".714" style="stop-color:#dbe4f4"/><stop offset="1" style="stop-color:#fee9df"/></linearGradient><linearGradient id="W" x1="98.876" x2="111.96" y1="535.231" y2="535.231" gradientTransform="matrix(1 0 0 -1 -8.362 705.835)" gradientUnits="userSpaceOnUse"><stop offset="0" style="stop-color:#be1349"/><stop offset=".24" style="stop-color:#be124e"/><stop offset=".253" style="stop-color:#be124e"/><stop offset=".433" style="stop-color:#f8adae"/><stop offset=".471" style="stop-color:#e8979d"/><stop offset=".562" style="stop-color:#c76a79"/><stop offset=".653" style="stop-color:#ab445a"/><stop offset=".743" style="stop-color:#962643"/><stop offset=".831" style="stop-color:#861132"/><stop offset=".918" style="stop-color:#7d0428"/><stop offset="1" style="stop-color:#7a0025"/></linearGradient><linearGradient id="X" x1="334.383" x2="347.037" y1="169.718" y2="169.718" gradientUnits="userSpaceOnUse"><stop offset="0" style="stop-color:#fdebf3"/><stop offset=".112" style="stop-color:#f7eaf3"/><stop offset=".23" style="stop-color:#faf1f2"/><stop offset=".354" style="stop-color:#fffef1"/><stop offset=".476" style="stop-color:#fbfbf1"/><stop offset=".592" style="stop-color:#f0f3f2"/><stop offset=".705" style="stop-color:#dde5f4"/><stop offset=".714" style="stop-color:#dbe4f4"/><stop offset="1" style="stop-color:#fee9df"/></linearGradient><linearGradient id="Y" x1="-220.564" x2="-207.478" y1="536.373" y2="536.373" gradientTransform="rotate(180 64.819 352.917)" gradientUnits="userSpaceOnUse"><stop offset="0" style="stop-color:#be1349"/><stop offset=".24" style="stop-color:#be124e"/><stop offset=".253" style="stop-color:#be124e"/><stop offset=".433" style="stop-color:#f8adae"/><stop offset=".471" style="stop-color:#e8979d"/><stop offset=".562" style="stop-color:#c76a79"/><stop offset=".653" style="stop-color:#ab445a"/><stop offset=".743" style="stop-color:#962643"/><stop offset=".831" style="stop-color:#861132"/><stop offset=".918" style="stop-color:#7d0428"/><stop offset="1" style="stop-color:#7a0025"/></linearGradient><linearGradient id="Z" x1="91.084" x2="348.313" y1="151.591" y2="151.591" gradientUnits="userSpaceOnUse"><stop offset="0" style="stop-color:#fdebf3"/><stop offset=".112" style="stop-color:#f7eaf3"/><stop offset=".23" style="stop-color:#faf1f2"/><stop offset=".354" style="stop-color:#fffef1"/><stop offset=".476" style="stop-color:#fbfbf1"/><stop offset=".592" style="stop-color:#f0f3f2"/><stop offset=".705" style="stop-color:#dde5f4"/><stop offset=".714" style="stop-color:#dbe4f4"/><stop offset="1" style="stop-color:#fee9df"/></linearGradient><linearGradient xlink:href="#r" id="aa" x1="17.894" x2="45.24" y1="631.96" y2="631.96" gradientTransform="matrix(1 0 0 -1 -8.362 705.835)" gradientUnits="userSpaceOnUse"/><linearGradient xlink:href="#s" id="ab" x1="40" x2="120.011" y1="604.223" y2="604.223" gradientTransform="matrix(1 0 0 -1 -8.362 705.835)" gradientUnits="userSpaceOnUse"/><linearGradient xlink:href="#t" id="ac" x1="-470.83" x2="-443.483" y1="631.96" y2="631.96" gradientTransform="rotate(180 -22.59 352.917)" gradientUnits="userSpaceOnUse"/><linearGradient xlink:href="#u" id="ad" x1="-448.723" x2="-368.713" y1="604.223" y2="604.223" gradientTransform="rotate(180 -22.59 352.917)" gradientUnits="userSpaceOnUse"/><linearGradient xlink:href="#v" id="ae" x1="189.225" x2="269.703" y1="640.599" y2="640.599" gradientTransform="matrix(1 0 0 -1 -8.362 705.835)" gradientUnits="userSpaceOnUse"/><linearGradient xlink:href="#w" id="af" x1="249.996" x2="271.097" y1="637.126" y2="637.126" gradientTransform="matrix(1 0 0 -1 -8.362 705.835)" gradientUnits="userSpaceOnUse"/><linearGradient xlink:href="#x" id="ag" x1="-6.445" x2="14.656" y1="637.078" y2="637.078" gradientTransform="rotate(180 98.236 352.917)" gradientUnits="userSpaceOnUse"/><linearGradient xlink:href="#y" id="ah" x1="-203.094" x2="-181.215" y1="436.576" y2="436.576" gradientTransform="rotate(119.387 137.774 345.92)" gradientUnits="userSpaceOnUse"/><linearGradient xlink:href="#H" id="aq" x1="82.442" x2="358.847" y1="167.612" y2="167.612" gradientUnits="userSpaceOnUse"/><linearGradient xlink:href="#I" id="ar" x1="96.531" x2="343.751" y1="173.739" y2="173.739" gradientUnits="userSpaceOnUse"/><linearGradient xlink:href="#J" id="as" x1="207.129" x2="233.873" y1="151.076" y2="151.076" gradientUnits="userSpaceOnUse"/><linearGradient xlink:href="#K" id="at" x1="219.503" x2="238.222" y1="554.76" y2="554.76" gradientTransform="matrix(1 0 0 -1 -8.362 705.835)" gradientUnits="userSpaceOnUse"/><linearGradient xlink:href="#L" id="au" x1="139.633" x2="160.447" y1="154.936" y2="154.936" gradientUnits="userSpaceOnUse"/><linearGradient xlink:href="#M" id="av" x1="149.791" x2="167.016" y1="550.876" y2="550.876" gradientTransform="matrix(1 0 0 -1 -8.362 705.835)" gradientUnits="userSpaceOnUse"/><linearGradient xlink:href="#N" id="aw" x1="-144.62" x2="-127.394" y1="550.876" y2="550.876" gradientTransform="rotate(180 76.037 352.917)" gradientUnits="userSpaceOnUse"/><linearGradient xlink:href="#O" id="ax" x1="189.003" x2="200.277" y1="553.465" y2="553.465" gradientTransform="matrix(1 0 0 -1 -8.362 705.835)" gradientUnits="userSpaceOnUse"/><linearGradient xlink:href="#P" id="ay" x1="113.088" x2="129.192" y1="161.572" y2="161.572" gradientUnits="userSpaceOnUse"/><linearGradient xlink:href="#Q" id="az" x1="122.715" x2="133.989" y1="543.493" y2="543.493" gradientTransform="matrix(1 0 0 -1 -8.362 705.835)" gradientUnits="userSpaceOnUse"/><linearGradient xlink:href="#R" id="aA" x1="312.671" x2="328.775" y1="162.436" y2="162.436" gradientUnits="userSpaceOnUse"/><linearGradient xlink:href="#S" id="aB" x1="324.695" x2="335.967" y1="542.92" y2="542.92" gradientTransform="matrix(1 0 0 -1 -8.362 705.835)" gradientUnits="userSpaceOnUse"/><linearGradient xlink:href="#T" id="aC" x1="247.245" x2="263.352" y1="152.37" y2="152.37" gradientUnits="userSpaceOnUse"/><linearGradient xlink:href="#U" id="aD" x1="-93.108" x2="-81.838" y1="553.465" y2="553.465" gradientTransform="rotate(180 83.913 352.917)" gradientUnits="userSpaceOnUse"/><linearGradient xlink:href="#V" id="aE" x1="92.25" x2="106.329" y1="171.334" y2="171.334" gradientUnits="userSpaceOnUse"/><linearGradient xlink:href="#W" id="aF" x1="98.876" x2="111.96" y1="535.231" y2="535.231" gradientTransform="matrix(1 0 0 -1 -8.362 705.835)" gradientUnits="userSpaceOnUse"/><linearGradient xlink:href="#X" id="aG" x1="334.383" x2="347.037" y1="169.718" y2="169.718" gradientUnits="userSpaceOnUse"/><linearGradient xlink:href="#Y" id="aH" x1="-220.564" x2="-207.478" y1="536.373" y2="536.373" gradientTransform="rotate(180 64.819 352.917)" gradientUnits="userSpaceOnUse"/><linearGradient xlink:href="#Z" id="aI" x1="91.084" x2="348.313" y1="151.591" y2="151.591" gradientUnits="userSpaceOnUse"/><radialGradient id="z" cx="179.378" cy="633.475" r="8.375" gradientTransform="matrix(1.3966 0 0 -1.3966 -147.211 1005.832)" gradientUnits="userSpaceOnUse"><stop offset="0" style="stop-color:#ffdb7d"/><stop offset="1" style="stop-color:#efba3c"/></radialGradient><radialGradient id="A" cx="235.594" cy="643.223" r="8.375" gradientTransform="matrix(1.3966 0 0 -1.3966 -147.211 1005.832)" gradientUnits="userSpaceOnUse"><stop offset="0" style="stop-color:#ffdb7d"/><stop offset="1" style="stop-color:#efba3c"/></radialGradient><radialGradient id="B" cx="293.869" cy="643.014" r="8.375" gradientTransform="matrix(1.3966 0 0 -1.3966 -147.211 1005.832)" gradientUnits="userSpaceOnUse"><stop offset="0" style="stop-color:#ffdb7d"/><stop offset="1" style="stop-color:#efba3c"/></radialGradient><radialGradient id="C" cx="344.524" cy="634.231" r="8.375" gradientTransform="matrix(1.3966 0 0 -1.3966 -147.211 1005.832)" gradientUnits="userSpaceOnUse"><stop offset="0" style="stop-color:#ffdb7d"/><stop offset="1" style="stop-color:#efba3c"/></radialGradient><radialGradient id="D" cx="208.827" cy="645.281" r="20.883" gradientTransform="matrix(1.3966 0 0 -1.3966 -147.211 1005.832)" gradientUnits="userSpaceOnUse"><stop offset="0" style="stop-color:#ffdb7d"/><stop offset="1" style="stop-color:#efba3c"/></radialGradient><radialGradient id="E" cx="196.058" cy="670.129" r="7.276" gradientTransform="matrix(1.3966 0 0 -1.3966 -147.211 1005.832)" gradientUnits="userSpaceOnUse"><stop offset="0" style="stop-color:#ffdb7d"/><stop offset="1" style="stop-color:#efba3c"/></radialGradient><radialGradient id="F" cx="-159.01" cy="642.263" r="20.883" gradientTransform="rotate(180 36.72 502.916) scale(1.3966)" gradientUnits="userSpaceOnUse"><stop offset="0" style="stop-color:#ffdb7d"/><stop offset="1" style="stop-color:#efba3c"/></radialGradient><radialGradient id="G" cx="-171.777" cy="667.11" r="7.278" gradientTransform="rotate(180 36.72 502.916) scale(1.3966)" gradientUnits="userSpaceOnUse"><stop offset="0" style="stop-color:#ffdb7d"/><stop offset="1" style="stop-color:#efba3c"/></radialGradient><radialGradient xlink:href="#a" id="aJ" cx="220.048" cy="360.33" r="18.294" gradientTransform="matrix(1.3966 0 0 -1.3966 -146.2 1006.18)" gradientUnits="userSpaceOnUse"/><radialGradient id="a" cx="220.048" cy="360.33" r="18.294" gradientTransform="matrix(1.3966 0 0 -1.3966 -147.211 1005.832)" gradientUnits="userSpaceOnUse"><stop offset="0" style="stop-color:#ffdb7d"/><stop offset="1" style="stop-color:#efba3c"/></radialGradient><radialGradient xlink:href="#b" id="aK" cx="-135.449" cy="360.022" r="18.294" gradientTransform="rotate(180 41.982 503.09) scale(1.3966)" gradientUnits="userSpaceOnUse"/><radialGradient id="b" cx="-135.449" cy="360.022" r="18.294" gradientTransform="rotate(180 41.477 502.916) scale(1.3966)" gradientUnits="userSpaceOnUse"><stop offset="0" style="stop-color:#ffdb7d"/><stop offset="1" style="stop-color:#efba3c"/></radialGradient><radialGradient xlink:href="#c" id="aL" cx="205.898" cy="368.506" r="3.022" gradientTransform="matrix(1.3966 0 0 -1.3966 -146.2 1006.18)" gradientUnits="userSpaceOnUse"/><radialGradient id="c" cx="205.898" cy="368.506" r="3.022" gradientTransform="matrix(1.3966 0 0 -1.3966 -147.211 1005.832)" gradientUnits="userSpaceOnUse"><stop offset="0" style="stop-color:#ffdb7d"/><stop offset="1" style="stop-color:#efba3c"/></radialGradient><radialGradient xlink:href="#d" id="aM" cx="200.339" cy="351.173" r="2.682" gradientTransform="matrix(1.3966 0 0 -1.3966 -146.2 1006.18)" gradientUnits="userSpaceOnUse"/><radialGradient id="d" cx="200.339" cy="351.173" r="2.682" gradientTransform="matrix(1.3966 0 0 -1.3966 -147.211 1005.832)" gradientUnits="userSpaceOnUse"><stop offset="0" style="stop-color:#ffdb7d"/><stop offset="1" style="stop-color:#efba3c"/></radialGradient><radialGradient xlink:href="#e" id="aN" cx="215.931" cy="339.742" r="3.092" gradientTransform="matrix(1.3966 0 0 -1.3966 -146.2 1006.18)" gradientUnits="userSpaceOnUse"/><radialGradient id="e" cx="215.931" cy="339.742" r="3.092" gradientTransform="matrix(1.3966 0 0 -1.3966 -147.211 1005.832)" gradientUnits="userSpaceOnUse"><stop offset="0" style="stop-color:#ffdb7d"/><stop offset="1" style="stop-color:#efba3c"/></radialGradient><radialGradient xlink:href="#f" id="aO" cx="239.897" cy="356.423" r="2.483" gradientTransform="matrix(1.3966 0 0 -1.3966 -146.2 1006.18)" gradientUnits="userSpaceOnUse"/><radialGradient id="f" cx="239.897" cy="356.423" r="2.483" gradientTransform="matrix(1.3966 0 0 -1.3966 -147.211 1005.832)" gradientUnits="userSpaceOnUse"><stop offset="0" style="stop-color:#ffdb7d"/><stop offset="1" style="stop-color:#efba3c"/></radialGradient><radialGradient xlink:href="#g" id="aP" cx="313.751" cy="368.514" r="2.747" gradientTransform="matrix(1.3966 0 0 -1.3966 -146.2 1006.18)" gradientUnits="userSpaceOnUse"/><radialGradient id="g" cx="313.751" cy="368.514" r="2.747" gradientTransform="matrix(1.3966 0 0 -1.3966 -147.211 1005.832)" gradientUnits="userSpaceOnUse"><stop offset="0" style="stop-color:#ffdb7d"/><stop offset="1" style="stop-color:#efba3c"/></radialGradient><radialGradient xlink:href="#h" id="aQ" cx="205.839" cy="374.811" r="0" gradientTransform="matrix(1.3966 0 0 -1.3966 -146.2 1006.18)" gradientUnits="userSpaceOnUse"/><radialGradient id="h" cx="205.839" cy="374.811" r="0" gradientTransform="matrix(1.3966 0 0 -1.3966 -147.211 1005.832)" gradientUnits="userSpaceOnUse"><stop offset="0" style="stop-color:#ffdb7d"/><stop offset="1" style="stop-color:#efba3c"/></radialGradient><radialGradient xlink:href="#i" id="aR" cx="320.237" cy="351.119" r="2.955" gradientTransform="matrix(1.3966 0 0 -1.3966 -146.2 1006.18)" gradientUnits="userSpaceOnUse"/><radialGradient id="i" cx="320.237" cy="351.119" r="2.955" gradientTransform="matrix(1.3966 0 0 -1.3966 -147.211 1005.832)" gradientUnits="userSpaceOnUse"><stop offset="0" style="stop-color:#ffdb7d"/><stop offset="1" style="stop-color:#efba3c"/></radialGradient><radialGradient xlink:href="#j" id="aS" cx="304.037" cy="338.765" r="3.848" gradientTransform="matrix(1.3966 0 0 -1.3966 -146.2 1006.18)" gradientUnits="userSpaceOnUse"/><radialGradient id="j" cx="304.037" cy="338.765" r="3.848" gradientTransform="matrix(1.3966 0 0 -1.3966 -147.211 1005.832)" gradientUnits="userSpaceOnUse"><stop offset="0" style="stop-color:#ffdb7d"/><stop offset="1" style="stop-color:#efba3c"/></radialGradient><radialGradient xlink:href="#k" id="aT" cx="281.467" cy="356.269" r="1.972" gradientTransform="matrix(1.3966 0 0 -1.3966 -146.2 1006.18)" gradientUnits="userSpaceOnUse"/><radialGradient id="k" cx="281.467" cy="356.269" r="1.972" gradientTransform="matrix(1.3966 0 0 -1.3966 -147.211 1005.832)" gradientUnits="userSpaceOnUse"><stop offset="0" style="stop-color:#ffdb7d"/><stop offset="1" style="stop-color:#efba3c"/></radialGradient><radialGradient xlink:href="#l" id="aU" cx="244.941" cy="499.535" r="15.114" gradientTransform="matrix(1.3966 0 0 -1.3966 -146.2 1006.18)" gradientUnits="userSpaceOnUse"/><radialGradient id="l" cx="244.941" cy="499.535" r="15.114" gradientTransform="matrix(1.3966 0 0 -1.3966 -147.211 1005.832)" gradientUnits="userSpaceOnUse"><stop offset="0" style="stop-color:#ffdb7d"/><stop offset="1" style="stop-color:#efba3c"/></radialGradient><radialGradient xlink:href="#m" id="aV" cx="243.558" cy="503.612" r="0" gradientTransform="matrix(1.3966 0 0 -1.3966 -146.2 1006.18)" gradientUnits="userSpaceOnUse"/><radialGradient id="m" cx="243.558" cy="503.612" r="0" gradientTransform="matrix(1.3966 0 0 -1.3966 -147.211 1005.832)" gradientUnits="userSpaceOnUse"><stop offset="0" style="stop-color:#ffdb7d"/><stop offset="1" style="stop-color:#efba3c"/></radialGradient><radialGradient xlink:href="#n" id="aW" cx="189.238" cy="444.169" r="34.802" gradientTransform="matrix(1.4723 0 0 -1.3966 -152.817 1006.18)" gradientUnits="userSpaceOnUse"/><radialGradient id="n" cx="189.238" cy="444.169" r="34.802" gradientTransform="matrix(1.4723 0 0 -1.3966 -153.828 1005.832)" gradientUnits="userSpaceOnUse"><stop offset="0" style="stop-color:#ffdb7d"/><stop offset="1" style="stop-color:#efba3c"/></radialGradient><radialGradient xlink:href="#o" id="aX" cx="-162.73" cy="444.306" r="34.921" gradientTransform="matrix(-1.4723 0 0 -1.3966 69.245 1006.18)" gradientUnits="userSpaceOnUse"/><radialGradient id="o" cx="-162.73" cy="444.306" r="34.921" gradientTransform="matrix(-1.4723 0 0 -1.3966 68.234 1005.832)" gradientUnits="userSpaceOnUse"><stop offset="0" style="stop-color:#ffdb7d"/><stop offset="1" style="stop-color:#efba3c"/></radialGradient><radialGradient xlink:href="#p" id="aY" cx="182.453" cy="495.74" r="9.15" gradientTransform="matrix(1.3966 0 0 -1.3966 -146.2 1006.18)" gradientUnits="userSpaceOnUse"/><radialGradient id="p" cx="182.453" cy="495.74" r="9.15" gradientTransform="matrix(1.3966 0 0 -1.3966 -147.211 1005.832)" gradientUnits="userSpaceOnUse"><stop offset="0" style="stop-color:#ffdb7d"/><stop offset="1" style="stop-color:#efba3c"/></radialGradient><radialGradient id="q" cx="-195.299" cy="495.738" r="9.15" gradientTransform="rotate(180 25.54 502.916) scale(1.3966)" gradientUnits="userSpaceOnUse"><stop offset="0" style="stop-color:#ffdb7d"/><stop offset="1" style="stop-color:#efba3c"/></radialGradient><radialGradient xlink:href="#q" id="aZ" cx="-195.299" cy="495.738" r="9.15" gradientTransform="rotate(180 26.046 503.09) scale(1.3966)" gradientUnits="userSpaceOnUse"/><radialGradient xlink:href="#z" id="ai" cx="179.378" cy="633.475" r="8.375" gradientTransform="matrix(1.3966 0 0 -1.3966 -147.211 1005.832)" gradientUnits="userSpaceOnUse"/><radialGradient xlink:href="#A" id="aj" cx="235.594" cy="643.223" r="8.375" gradientTransform="matrix(1.3966 0 0 -1.3966 -147.211 1005.832)" gradientUnits="userSpaceOnUse"/><radialGradient xlink:href="#B" id="ak" cx="293.869" cy="643.014" r="8.375" gradientTransform="matrix(1.3966 0 0 -1.3966 -147.211 1005.832)" gradientUnits="userSpaceOnUse"/><radialGradient xlink:href="#C" id="al" cx="344.524" cy="634.231" r="8.375" gradientTransform="matrix(1.3966 0 0 -1.3966 -147.211 1005.832)" gradientUnits="userSpaceOnUse"/><radialGradient xlink:href="#D" id="am" cx="208.827" cy="645.281" r="20.883" gradientTransform="matrix(1.3966 0 0 -1.3966 -147.211 1005.832)" gradientUnits="userSpaceOnUse"/><radialGradient xlink:href="#E" id="an" cx="196.058" cy="670.129" r="7.276" gradientTransform="matrix(1.3966 0 0 -1.3966 -147.211 1005.832)" gradientUnits="userSpaceOnUse"/><radialGradient xlink:href="#F" id="ao" cx="-159.01" cy="642.263" r="20.883" gradientTransform="rotate(180 36.72 502.916) scale(1.3966)" gradientUnits="userSpaceOnUse"/><radialGradient xlink:href="#G" id="ap" cx="-171.777" cy="667.11" r="7.278" gradientTransform="rotate(180 36.72 502.916) scale(1.3966)" gradientUnits="userSpaceOnUse"/></defs><g style="display:inline"><path d="M-65.5-31.878H996.486v707.659H-65.5z" style="fill:#fff;fill-opacity:1;fill-rule:nonzero;stroke:none;stroke-width:1.00121" transform="translate(65.5 32.906)"/><path d="M-65.5-32.906h1063V202.72h-1063z" style="fill:#a30046;fill-opacity:1;fill-rule:nonzero;stroke:none;stroke-width:1.00183" transform="translate(65.5 32.906)"/><path d="M-65.5 440.155h1063v235.626h-1063z" style="display:inline;fill:#a30046;fill-opacity:1;fill-rule:nonzero;stroke:none;stroke-width:1.00183" transform="translate(65.5 32.906)"/></g><g transform="matrix(.59689 0 0 .58458 401.631 154.469)"><path d="M36.878 64.656s-11.647-11.071-23.15-.287c-10.832 10.152 2.013 24.013 8.196 23.726.05-.002-.139-8.2-.135-9.05-2.071-1.107-5.206-2.895-5.52-5.527-.196-1.656 1.182-3.124 2.875-2.53 1.87.656 2.13 3.218 2.925 4.732 1.114 2.121 3.162 3.028 5.525 2.528 3.62-.767 4.507-4.353 4.826-7.552z" style="fill:url(#aa);stroke:#000;stroke-width:.25;stroke-linecap:round;stroke-linejoin:round"/><path d="M48.381 65.807c-.288-3.738-6.327-8.052-6.327-8.052-2.588 2.301-4.026 6.901-4.026 6.901-6.615-.575-6.902 6.327-6.039 6.901.863.575 8.34 1.727 11.79 15.529 3.451 13.805 10.875 19.179 10.875 19.179 6.902 28.471 34.276 39.201 34.276 39.201l22.719-8.627c-26.745-.575-36.81-13.804-36.81-13.804 5.751-.863 3.163-5.465 3.163-5.465s4.602-.862 4.602-5.464c0-4.601-4.026-6.613-4.026-6.613 5.463-9.203-2.301-11.503-2.301-11.503 2.876-7.766-4.889-9.49-4.889-9.49.287-7.766-3.739-6.902-6.615-7.189-2.875-.288 0-7.477-2.588-7.189-2.588.288-7.189 3.164-8.915 7.477-.915 2.288-.875 4.93-.739 7.347.112 1.979.618 4.275.222 6.244-.236 1.183-1.553 2.198-2.429.957-1.44-2.037-.739-8.349-.218-10.233 1.51-5.465.575-15.529.575-15.529z" style="fill:url(#ab);stroke:#000;stroke-width:.25"/><path d="M64.774 77.311s-3.739 6.327.575 8.915c0 0-3.451 2.588-1.438 8.915 0 0 2.013 6.327 6.327 5.752 0 0 0 6.902 8.34 4.602" style="fill:none;stroke:#000;stroke-width:.25"/><path d="M100.866 142.232s-31.778-9.418-42.706-30.412" style="fill:none;stroke:#000;stroke-width:.25;stroke-linecap:square"/><path d="M67.65 120.16s2.301 3.45 7.189 2.876" style="fill:none;stroke:#000;stroke-width:.25;stroke-linecap:square"/><path d="M54.688 106.188c2.473-2.065 7.901-.36 9.577 2.751.884 1.643.453 3.717 1.87 5.235 1.664 1.782 3.893 1.299 5.991 1.826M58.125 79.5c-.019 2.724-.883 5.262-.751 7.957.113 2.312 1.239 4.578 1 6.921-.465 4.554-5.242 6.978-3.686 11.809" style="fill:none;stroke:#000;stroke-width:.25"/><path d="M54.688 106.188c-2.702-3.474-7.436-10.174-8.541-14.459-1.399-5.425-.486-11.784-.508-17.356-.013-3.229.884-6.892-2.264-8.871M54.688 106.188c-.933-4.712 7.159-1.604 7.188-5.688" style="fill:none;stroke:#000;stroke-width:.25"/><path d="M398.303 64.656s11.647-11.071 23.15-.287c10.832 10.152-2.013 24.013-8.195 23.726-.05-.002.14-8.2.135-9.05 2.071-1.107 5.206-2.895 5.521-5.527.196-1.656-1.182-3.124-2.875-2.53-1.869.656-2.131 3.218-2.926 4.732-1.113 2.121-3.161 3.028-5.524 2.528-3.62-.767-4.507-4.353-4.825-7.552z" style="fill:url(#ac);stroke:#000;stroke-width:.25;stroke-linecap:round;stroke-linejoin:round"/><path d="M386.801 65.807c.287-3.738 6.326-8.052 6.326-8.052 2.588 2.301 4.025 6.901 4.025 6.901 6.614-.575 6.901 6.327 6.039 6.901-.862.575-8.341 1.727-11.789 15.529-3.451 13.805-10.875 19.179-10.875 19.179-6.902 28.471-34.276 39.201-34.276 39.201l-22.719-8.627c26.745-.575 36.81-13.804 36.81-13.804-5.751-.863-3.162-5.465-3.162-5.465s-4.602-.862-4.602-5.464c0-4.601 4.024-6.613 4.024-6.613-5.463-9.203 2.302-11.503 2.302-11.503-2.877-7.766 4.889-9.49 4.889-9.49-.287-7.766 3.738-6.902 6.615-7.189 2.875-.288 0-7.477 2.588-7.189 2.588.288 7.188 3.164 8.914 7.477.915 2.288.875 4.93.74 7.347-.112 1.979-.618 4.275-.224 6.244.236 1.183 1.554 2.198 2.43.957 1.439-2.037.738-8.349.218-10.233-1.511-5.465-.574-15.529-.574-15.529Z" style="fill:url(#ad);stroke:#000;stroke-width:.25"/><path d="M370.408 77.311s3.737 6.327-.576 8.915c0 0 3.451 2.588 1.438 8.915 0 0-2.012 6.327-6.325 5.752 0 0 0 6.902-8.34 4.602" style="fill:none;stroke:#000;stroke-width:.25"/><path d="M334.316 142.232s31.776-9.418 42.704-30.412" style="fill:none;stroke:#000;stroke-width:.25;stroke-linecap:square"/><path d="M367.531 120.16s-2.301 3.45-7.189 2.876" style="fill:none;stroke:#000;stroke-width:.25;stroke-linecap:square"/><path d="M380.494 106.188c-2.474-2.065-7.901-.36-9.577 2.751-.884 1.643-.452 3.717-1.87 5.235-1.664 1.782-3.893 1.299-5.99 1.826M377.057 79.5c.021 2.724.884 5.262.751 7.957-.112 2.312-1.238 4.578-.999 6.921.466 4.554 5.242 6.978 3.687 11.809" style="fill:none;stroke:#000;stroke-width:.25"/><path d="M380.494 106.188c2.701-3.474 7.436-10.174 8.541-14.459 1.397-5.425.484-11.784.508-17.356.013-3.229-.884-6.892 2.264-8.871M380.494 106.188c.933-4.712-7.159-1.604-7.188-5.688" style="fill:none;stroke:#000;stroke-width:.25"/><path d="M394.443 258.01H44.739S-41.92 492.681 217.29 674.434c0 0 221.631-111.202 177.153-416.424z" style="fill:#fff;fill-opacity:1;stroke:#a30046;stroke-width:9;stroke-opacity:1"/><path d="M258.604 122.174c-32.108-7.956-33.979-44.958-33.979-44.958-.67-5.942 2.975-5.561 2.975-5.561 3.452 0 2.49 5.08 2.49 5.08-1.339 3.931-.764 5.273-.764 5.273 1.052 7.38 9.589 6.424 9.589 6.424 2.972 2.301 6.614 2.588 6.614 2.588 1.15-3.451.377-8.533.377-8.533s10.552-28.948 12.941-30.196c2.399-1.247 2.493-3.066 2.493-3.066s-3.45-6.521-9.971-7.095c0 0 1.919-.768 3.45-3.067 1.537-2.301-5.747-2.492-7.666-2.301-1.92.191-7.863 3.258-9.396 5.942-1.531 2.685-4.982 3.644-5.751 2.495-.771-1.15 1.536-5.755 5.945-7.097 4.407-1.341 13.991-6.327 15.718-12.079 0 0 .768-1.725-4.025-2.875 0 0 4.219-4.791 1.149-11.311 0 0-4.215-.961-5.94-.77-1.133.126-10.442-2.799-23.752-2.771-13.309-.026-22.622 2.898-23.753 2.771-1.725-.192-5.942.77-5.942.77-3.067 6.52 1.15 11.311 1.15 11.311-4.793 1.15-4.026 2.875-4.026 2.875 1.726 5.752 11.313 10.737 15.721 12.079 4.408 1.342 6.712 5.945 5.945 7.097-.767 1.148-4.22.189-5.752-2.495-1.532-2.686-7.478-5.751-9.396-5.942-1.918-.191-9.201 0-7.667 2.301 1.534 2.3 3.45 3.067 3.45 3.067-6.518.575-9.968 7.095-9.968 7.095s.095 1.82 2.491 3.066c2.395 1.247 12.941 30.196 12.941 30.196s-.77 5.082.382 8.533c0 0 3.642-.287 6.613-2.588 0 0 8.533.957 9.588-6.424 0 0 .577-1.343-.767-5.273 0 0-.959-5.08 2.491-5.08 0 0 3.645-.382 2.974 5.561 0 0-.957 36.714-33.073 44.67" style="fill:url(#ae);stroke:#000;stroke-width:.25;stroke-linecap:round;stroke-linejoin:round"/><path d="M250.652 61.685c-.904.009-4.176 1.298-4.795 1.822-1.25 1.054-2.273 3.154-2.59 5.655-.191 1.533.5 3.91.465 4.684-2.494 1.701-2.666 5.305-1.039 7.731 2.232 3.334 10.002 1.843 10.541-2.351.172-1.303-.25-2.665-.67-3.92-.063-.194.072.187 0 0 2.318.542 4.498-1.045 5.561-3.076 1.249-2.396.148-6.909-.832-7.578 1.752.271 3.566.345 4.664-1.327 1.034-1.573.936-3.871.292-5.565-1.663-4.384-6.713-5.084-10.017-1.239-1.405 1.64-1.662 3.13-1.58 5.164z" style="fill:url(#af);stroke:#000;stroke-width:.25"/><path d="M248.252 72.494s4.982-.264 4.982 6.444M254.363 62.572c.287-.009 3.955 1.485 4.24 5.32" style="fill:none;stroke:#000;stroke-width:.25;stroke-linecap:round"/><path d="M193.899 61.685c.902.009 4.175 1.298 4.794 1.822 1.249 1.054 2.273 3.154 2.588 5.655.194 1.534-.499 3.911-.462 4.684 2.493 1.701 2.665 5.305 1.038 7.731-2.234 3.334-9.468 2.132-10.296-2.021-.65-3.275.711-3.466 1.128-4.723.064-.193-.777.658-.705.472-2.318.542-4.417-1.09-5.558-3.076-2.161-3.763-.148-6.909.831-7.578-1.753.271-3.568.345-4.665-1.327-1.033-1.573-.934-3.871-.291-5.565 1.662-4.384 6.712-5.084 10.016-1.239 1.407 1.641 1.662 3.131 1.582 5.165z" style="fill:url(#ag);stroke:#000;stroke-width:.25"/><path d="M198.213 73.668s-5.465-1.822-6.711 3.833M191.599 63.028c-.288-.009-6.327.623-6.111 5.728" style="fill:none;stroke:#000;stroke-width:.25;stroke-linecap:round"/><path d="M215.563 8.881c.453-.784 3.228-2.903 3.941-3.285 2.361-1.26 4.374-.397 6.196.521 1.432.721 3.167 2.354 3.858 2.702 2.703-1.339 5.926.281 7.242 2.89 1.807 3.581-2.74 9.122-6.813 7.979-2.35-.661-2.69-1.813-3.581-2.793-.14-.149.211.493.086.34-.667 2.287-3.28 4.862-5.563 4.645-4.792-.456-6.081-5.037-6.184-6.219-.623 1.657.141 2.952-3.02 3.942-3.766 1.177-5.932-2.077-6.039-2.207-3.003-3.599-.371-8.682 4.599-9.67 2.125-.422 3.547.086 5.278 1.155z" style="fill:url(#ah);stroke:#000;stroke-width:.25"/><path d="M226.779 11.932s-3.26 3.836 1.725 7.095M215.181 11.838c-.151.245-1.63 3.738.861 7.188" style="fill:none;stroke:#000;stroke-width:.25;stroke-linecap:round"/><circle cx="103.309" cy="121.12" r="11.696" style="fill:url(#ai);stroke:#000;stroke-width:.25"/><circle cx="181.819" cy="107.506" r="11.696" style="fill:url(#aj);stroke:#000;stroke-width:.25"/><path d="M251.51 107.796c0-6.457 5.24-11.694 11.696-11.694 6.458 0 11.696 5.237 11.696 11.694 0 6.46-5.238 11.697-11.696 11.697-6.456 0-11.696-5.237-11.696-11.697z" style="fill:url(#ak);stroke:#000;stroke-width:.25"/><circle cx="333.952" cy="120.064" r="11.696" style="fill:url(#al);stroke:#000;stroke-width:.25"/><path d="M114.144 132.624s21.475-22.239 11.504-54.066l5.367-1.919s13.805 36.813 43.713 44.481z" style="fill:url(#am);stroke:#000;stroke-width:.25"/><path d="M167.441 122.652s-32.204-16.871-36.042-34.892c0 0 6.139 27.992-9.203 44.863" style="fill:none;stroke:#000;stroke-width:.25"/><circle cx="126.604" cy="69.93" r="10.162" style="fill:url(#an);stroke:#000;stroke-width:.25"/><path d="M325.806 136.84s-21.475-22.238-11.504-54.066l-5.369-1.918s-13.805 36.813-43.712 44.481z" style="fill:url(#ao);stroke:#000;stroke-width:.25"/><path d="M272.508 126.87s32.205-16.872 36.043-34.893c0 0-6.139 27.992 9.202 44.863" style="fill:none;stroke:#000;stroke-width:.25"/><circle cx="313.345" cy="74.147" r="10.165" style="fill:url(#ap);stroke:#000;stroke-width:.25"/><path d="M221.794 217.815c-71.448 0-129.575-12.587-129.575-28.058 0-2.415 1.507-4.853 4.477-7.247l.059-.155c-.362-12.487-4.504-18.643-5.765-20.229-5.681-3.711-8.547-7.565-8.547-11.481 0-18.327 61.999-33.237 138.203-33.237 76.204 0 138.201 14.91 138.201 33.237 0 4.387-3.566 8.677-10.601 12.756-1.47 2.288-4.101 7.561-4.74 16.712l.106.166c5.132 3.034 7.758 6.239 7.758 9.478 0 15.471-58.129 28.058-129.576 28.058z" style="fill:url(#aq)"/><path d="M220.645 117.535c76.135 0 138.077 14.853 138.076 33.111 0 4.319-3.602 8.627-10.538 12.646-1.519 2.342-4.16 7.641-4.803 16.813l.122.232c5.138 3.059 7.742 6.229 7.742 9.419 0 15.403-58.071 27.934-129.45 27.934-71.379 0-129.45-12.53-129.45-27.934 0-2.374 1.491-4.779 4.431-7.147l.093-.201c-.353-12.585-4.513-18.765-5.78-20.359l-.059-.054c-5.615-3.662-8.462-7.481-8.462-11.351 0-18.256 61.941-33.109 138.078-33.109m0-.25c-36.842 0-71.521 3.45-97.648 9.715-26.232 6.29-40.679 14.687-40.679 23.644 0 3.959 2.885 7.849 8.575 11.56l.028.029c1.225 1.547 5.334 7.655 5.697 20.123l-.044.095c-2.972 2.407-4.479 4.864-4.479 7.306 0 7.58 13.55 14.678 38.155 19.987 24.494 5.286 57.005 8.196 91.545 8.196s67.051-2.911 91.545-8.196c24.604-5.309 38.155-12.408 38.155-19.987 0-3.273-2.626-6.502-7.804-9.598l-.056-.107c.643-9.012 3.22-14.234 4.726-16.573 7.041-4.091 10.61-8.408 10.61-12.833.001-8.958-14.446-17.355-40.679-23.646-26.127-6.264-60.806-9.715-97.647-9.715z"/><path d="M108.199 195.508c0-7.464 50.408-13.518 112.589-13.518 62.183 0 112.589 6.049 112.589 13.518 0 7.463-50.407 13.516-112.589 13.516-62.181 0-112.589-6.049-112.589-13.516z" style="fill:#ed1c24;stroke:#000;stroke-width:.25"/><path d="M235.006 164.936c76.789 0 99.712 9.255 104.218 10.825 4.124 1.438 4.527 1.656 4.527 1.656l-.25 2.917s.007.021-.077.021c-.285 0-1.608-.245-7.746-2.39-6.336-2.215-34.761-9.249-104.053-9.249-3.25 0-6.6.016-10.029.048-3.396-.032-6.703-.047-9.927-.047-69.537 0-99.878 7.126-106.25 9.248-7.188 2.395-8.669 4.577-8.669 4.577l-.208-3.708s-.333-.125 2.745-1.632c4.304-2.108 31.825-12.26 109.846-12.259 4.016 0 8.175.027 12.463.083 4.644-.061 9.109-.09 13.41-.09" style="fill:url(#ar);stroke:#000;stroke-width:.25"/><path d="m220.355 160.135-13.226-9.49 13.803-8.628 12.941 9.778z" style="fill:url(#as);stroke:#000;stroke-width:.25"/><path d="m220.398 157.416-9.257-6.644 9.661-6.039 9.057 6.846z" style="fill:url(#at);stroke:#000;stroke-width:.25"/><path d="M160.417 153.867c.294 3.01-1.635 5.684-4.304 5.962l-11.072 1.142c-2.672.28-5.083-1.943-5.379-4.966-.292-3.013 1.635-5.68 4.307-5.958l11.067-1.146c2.677-.278 5.083 1.939 5.381 4.966z" style="fill:url(#au);stroke:#000;stroke-width:.25"/><path d="M158.639 154.239a4.028 4.028 0 0 1-3.675 4.349l-9.174.766a4.024 4.024 0 0 1-4.347-3.678 4.025 4.025 0 0 1 3.677-4.345l9.169-.767a4.025 4.025 0 0 1 4.35 3.675z" style="fill:url(#av);stroke:#000;stroke-width:.25"/><path d="M277.702 153.867c-.296 3.01 1.636 5.684 4.306 5.962l11.072 1.142c2.669.28 5.081-1.943 5.379-4.966.291-3.013-1.637-5.68-4.311-5.958l-11.063-1.146c-2.677-.278-5.085 1.939-5.383 4.966z" style="fill:#fff;stroke:#000;stroke-width:.25"/><path d="M279.482 154.239a4.028 4.028 0 0 0 3.676 4.349l9.176.766a4.026 4.026 0 1 0 .665-8.023l-9.168-.767a4.023 4.023 0 0 0-4.349 3.675z" style="fill:url(#aw);stroke:#000;stroke-width:.25"/><circle cx="186.278" cy="152.37" r="8.052" style="fill:#fff;stroke:#000;stroke-width:.25"/><circle cx="186.278" cy="152.37" r="5.637" style="fill:url(#ax);stroke:#000;stroke-width:.25"/><circle cx="121.14" cy="161.572" r="8.052" style="fill:url(#ay);stroke:#000;stroke-width:.25"/><circle cx="119.99" cy="162.341" r="5.637" style="fill:url(#az);stroke:#000;stroke-width:.25"/><circle cx="320.723" cy="162.436" r="8.052" style="fill:url(#aA);stroke:#000;stroke-width:.25"/><path d="M316.333 162.914a5.639 5.639 0 0 1 5.635-5.638 5.64 5.64 0 0 1 5.637 5.638 5.64 5.64 0 0 1-5.637 5.637 5.638 5.638 0 0 1-5.635-5.637z" style="fill:url(#aB);stroke:#000;stroke-width:.25"/><circle cx="255.298" cy="152.37" r="8.053" style="fill:url(#aC);stroke:#000;stroke-width:.25"/><circle cx="255.298" cy="152.37" r="5.635" style="fill:url(#aD);stroke:#000;stroke-width:.25"/><circle cx="170.102" cy="145.684" r="1.51" style="fill:#fff;stroke:#000;stroke-width:.25"/><circle cx="171.179" cy="161.572" r="1.51" style="fill:#fff;stroke:#000;stroke-width:.25"/><circle cx="201.717" cy="160.05" r="1.51" style="fill:#fff;stroke:#000;stroke-width:.25"/><circle cx="238.581" cy="160.051" r="1.51" style="fill:#fff;stroke:#000;stroke-width:.25"/><circle cx="238.581" cy="143.821" r="1.51" style="fill:#fff;stroke:#000;stroke-width:.25"/><path d="M272.05 145.899a1.51 1.51 0 1 1-3.021 0 1.51 1.51 0 1 1 3.021 0z" style="fill:#fff;stroke:#000;stroke-width:.25"/><circle cx="269.096" cy="161.616" r="1.51" style="fill:#fff;stroke:#000;stroke-width:.25"/><path d="M306.635 165.28a1.509 1.509 0 1 1-3.02 0 1.51 1.51 0 1 1 3.02 0z" style="fill:#fff;stroke:#000;stroke-width:.25"/><circle cx="307.038" cy="152.282" r="1.51" style="fill:#fff;stroke:#000;stroke-width:.25"/><circle cx="334.077" cy="160.022" r="1.51" style="fill:#fff;stroke:#000;stroke-width:.25"/><circle cx="331.986" cy="171" r="1.51" style="fill:#fff;stroke:#000;stroke-width:.25"/><circle cx="201.716" cy="143.82" r="1.51" style="fill:#fff;stroke:#000;stroke-width:.25"/><circle cx="131.837" cy="152.425" r="1.51" style="fill:#fff;stroke:#000;stroke-width:.25"/><circle cx="106.161" cy="160.009" r="1.51" style="fill:#fff;stroke:#000;stroke-width:.25"/><circle cx="109.625" cy="170.237" r="1.51" style="fill:#fff;stroke:#000;stroke-width:.25"/><circle cx="134.513" cy="164.749" r="1.51" style="fill:#fff;stroke:#000;stroke-width:.25"/><path d="m96.208 175.708.459 3.084 9.662-12.187-14.079-2.73.917 1.625 9.568 1.968z" style="fill:url(#aE);stroke:#000;stroke-width:.25"/><path d="m90.513 170.775 5.695 4.933 7.39-8.385-10.431-1.823z" style="fill:url(#aF);stroke:#000;stroke-width:.25"/><path d="m344.018 175.089-.299 2.63-9.336-11.114 11.792-4.889.862 1.87-9.058 3.882z" style="fill:url(#aG);stroke:#000;stroke-width:.25"/><path d="m350.201 170.775-6.183 4.314-6.902-7.766 9.176-3.49z" style="fill:url(#aH);stroke:#000;stroke-width:.25"/><path d="M227.76 137.868c85.008.001 112.386 17.117 116.361 20.184 3.848 3.167 4.191 5.323 4.191 5.323l-1.125 1.938s-2.522-4.384-9.078-7.548c-6.388-3.083-36.946-16.132-112.553-16.132h-12.099c-75.595.001-106.157 13.05-112.545 16.132-6.558 3.164-8.351 6.548-8.351 6.548l-1.475-2.264s-.284-.833 3.816-3.997c3.972-3.066 31.335-20.186 116.356-20.184h16.502" style="fill:url(#aI);stroke:#000;stroke-width:.25"/><path d="M240.5 21c-1.377 5.859-8.203 7.869-11.701 12.059-3.521 4.218-4.381 9.3-5.135 14.5-.421 2.905-3.523 6.703-3.622 9.65M220.042 57.208c-4.316-2.943-8.758-5.897-13.981-6.669-4.294-.636-10.198-.854-14.061 1.127M199.833 61.167c-.458-4.717 17.069-3.44 20.209-3.958" style="fill:none;stroke:#000;stroke-width:.25"/><path d="M201.5 84.833c3.789-2.562 6.851-9.014 7.397-13.498.289-2.374-.117-5.956 1.759-7.799 1.875-1.842 7.517-4.535 9.386-6.328M200 21c1.377 5.859 8.203 7.869 11.701 12.059 3.521 4.218 4.381 9.3 5.135 14.5.421 2.905 3.523 6.703 3.622 9.65M220.458 57.208c4.315-2.943 8.758-5.897 13.981-6.669 4.293-.636 10.197-.854 14.061 1.127M240.667 61.167c.458-4.717-17.069-3.44-20.209-3.958" style="fill:none;stroke:#000;stroke-width:.25"/><path d="M239 84.833c-3.789-2.562-6.852-9.014-7.396-13.498-.289-2.374.117-5.956-1.76-7.799-1.875-1.842-7.517-4.535-9.386-6.328" style="fill:none;stroke:#000;stroke-width:.25"/><path d="M216.767 281.75c1.835 2.546 4.59 5.539 5.846 8.342 1.838 4.103 1.926 7.924 7.514 8.076 1.219-2.983.602-6.302 1.02-9.321 2.59 1.229 4.368 4.79 5.215 7.466.354 1.128-.326 2.516.129 3.68 3.137 8.048 9.729-1.748 7.06-6.594 2.866.855 3.276 5.433 2.647 7.896-.928 3.615-2.271 8.563 1.446 10.082 3.854 1.579 4.224-1.375 5.359-4.514 1.165-3.23 5.124-7.747 4.094-1.604-.646 3.865-.417 7.589-1.496 11.396-.437 1.539-1.546 3.434-.03 4.777 1.117.995 3.514.67 4.3-.614.544-.892-.03-2.352.462-3.02.85-1.148 2.729-.564 3.556-1.976-2 3.415-1.51 6.759-2.897 10.295-1.425 3.635-4.947 4.77.93 5.19 4.025.287 3.74-2.588 5.753-3.451 2.013-.862-2.302 6.902-3.74 11.216-1.436 4.314-.86 4.026 5.179 4.603 6.038.574-8.053 7.477-10.354 6.9-2.301-.575 2.588 3.739 4.602 8.054 2.014 4.313-4.602-1.438-6.902 1.438s2.589 6.902 5.752 5.752c3.164-1.15-6.327 2.588-4.313 4.889 2.013 2.302 6.902 1.15 8.052 3.164 1.15 2.014-9.776 6.327 1.438 10.929 0 0 .862 3.738-7.188 4.026v6.327s-3.738-5.177-5.177-2.876c-1.44 2.3 1.535 6.516 6.808 6.422 0 0 3.838.575 5.75-2.301 1.916-2.876 7.666-9.585 7.285-10.735-.383-1.15 1.344-1.15 5.178 6.902 0 0 1.912 2.489 3.832-1.344 1.918-3.833 3.455-8.241 2.687-9.392 0 0 3.065-.772 6.136 5.94 0 0 5.368-4.026 3.449-11.503 0 0 4.602.386 9.778 5.369 5.176 4.982 2.684-9.396-.193-10.354-2.876-.958 2.684-2.88 8.628-.192 5.944 2.687-.188-11.504-2.488-11.887-2.302-.382 1.53-1.918 7.282-1.15 5.752.769-3.455-11.121-6.52-10.161-3.065.96 7.864-3.451 8.438-2.875.575.575 4.407-5.177-6.52-4.792-10.93.384-8.058-4.026-14.572-.575-6.517 3.45-.388-6.518 4.026-7.668 4.41-1.15-6.71-8.053-11.887-6.902-5.176 1.15 3.645-5.944 6.902-6.136 3.258-.19-6.33-9.584-9.972-9.394-3.64.19 3.069-4.221 9.396-2.494 6.327 1.726 1.155-2.684-.957-4.792-2.11-2.11-2.11-7.862-3.836-9.587-1.728-1.727 4.986-1.724 7.67 1.343s6.133-11.503 4.025-13.613c-2.107-2.108 6.134.576 8.435 4.027 2.302 3.45 4.8-7.48 3.263-9.587-1.537-2.108 7.473.578 11.116 4.794 3.646 4.217 6.135-5.176 4.026-7.286-2.107-2.11 4.026-.573 6.9 7.86 2.877 8.436 6.522 1.532 6.522-.77 0-2.3 1.537-3.062-.382-4.407-1.92-1.344 6.896-.387 5.365 10.735-1.533 11.122 8.434-.957 6.902-3.258-1.533-2.301 4.025-.961 3.645 13.61-.382 14.572 7.863-.957 7.67-2.107-.193-1.15.378 8.816-1.537 13.036-1.913 4.219 7.284 5.752 9.203 3.26 1.919-2.492-2.876 6.327-4.982 9.778-2.107 3.45 3.258 5.367 6.133 3.065 2.877-2.3.962 6.904-3.257 8.246-4.221 1.34 1.153 7.666 5.942 5.56 4.792-2.107-.386 5.37-4.793 6.71-4.408 1.342-.188 8.053 3.068 5.752 3.258-2.3 2.49 4.598-1.92 6.134-4.407 1.537-4.407 6.713 0 6.713 4.41 0 3.64.962 4.41 0 .768-.961-3.834 7.289-8.437 8.052-4.602.766 4.216 7.279 6.709 3.64 2.494-3.64-.382 7.096-8.434 9.397 0 0-2.493 8.435 6.708 4.408 0 0-3.45 5.375-7.478 7.864-4.024 2.488 1.15 6.712 5.176 4.6-.188.577-2.11 5.178-8.052 8.629-5.94 3.45 4.225 8.245 6.14 4.602 0 0-2.876 3.64-6.902 8.435 0 0-4.026 9.783 4.026 7.096 0 0 7.283-3.647 6.708-4.413-.575-.764.958 6.902-1.726 11.504 0 0 4.605 1.914 4.22 8.628 0 0-8.241-4.796-8.628 2.3 0 0 .192 6.715-1.726 7.097-.575-.193-4.603-9.773-10.546-2.107l-2.301 4.79s-.383-8.24-2.877-9.967c-2.493-1.726-4.603-.193-4.603-.193s.194-12.461-2.875-13.804c-3.07-1.344-2.305-4.22-2.494-5.177-.188-.957-2.68 8.623-.188 11.31 2.489 2.689 1.532 3.646 1.532 3.646s-5.945 3.833-1.15 8.053c4.794 4.22 2.688 1.72 3.645 1.532 0 0-11.313 8.058-3.838 9.589 0 0 3.838.193 3.838-1.726 0 0-.574 5.369-4.22 9.203 0 0-.386 6.703 4.983 2.488 0 0 1.537-.764 1.537-1.532s-2.112 12.649 4.79 10.16c0 0 3.067-1.537 7.095-1.726 0 0-2.688 5.939-3.646 8.052 0 0 5.56 2.688 6.902 4.987 0 0-4.602 2.107-8.434 1.533 0 0-4.022 3.833.768 5.752l2.3.574s-4.028 1.532-9.013 1.149c0 0-7.091 1.722-1.533 7.284 0 0-3.836 1.34-8.82-4.603 0 0-5.752-.768-5.56 4.603 0 0-4.982-3.262-1.724-6.326 0 0-2.113-6.71-7.671-.382 0 0-2.68-3.26 1.536-7.48 0 0 1.723-4.601-5.563-5.176 0 0-3.263-1.92.574-2.876-.188-.957.957-6.71-1.15-8.627 0 0 .188-4.795-1.725-4.795 0 0 2.687-3.838-.19-6.902 0 0-2.3-15.146-1.725-19.556 0 0-5.94 11.702-1.727 19.367 0 0 .766 3.833-1.92 7.858 0 0-3.062 8.054 3.07 9.203 0 0-6.327 11.12 2.3 13.229 0 0-.961 5.172-3.836 8.435 0 0-2.301 8.245 3.068 5.369 0 0 2.488-2.305 3.833-1.918 0 0-4.22 13.422 0 14.57 0 0 2.688 1.345 3.644-2.875 0 0 .958-5.177 4.027-4.603 0 0-.961 9.396 3.833 9.778 0 0 3.647.957 5.563-3.068 0 0 1.723 6.524-4.986 10.164 0 0-4.217 6.129 5.563 3.64 0 0-.77 5.945-8.821 5.37 0 0-6.331 3.456.957 6.52 0 0 2.107 3.829-6.327 2.49 0 0-9.197-1.914-4.788 6.714 0 0-3.456.57-6.715-4.988 0 0-1.34-6.516-6.516-2.683 0 0-.575 2.106 0 2.876 0 0-3.834.575-4.025-9.778 0 0-1.154-4.987-5.563-2.493 0 0-2.49-5.56-1.34-9.585 0 0-4.79-5.37-8.628-5.37 0 0-1.34 6.907 0 8.439 0 0 2.688-2.688 4.603 3.833 0 0-9.202 2.688-4.795 9.396 0 0 5.563 2.489 8.245-3.068 0 0 2.872 1.155.189 7.096 0 0-1.914 7.859 8.819 4.983 0 0 .382 3.258-5.751 9.202 0 0-2.881 6.32 5.559 3.833 0 0 .574 4.602-6.328 6.52 0 0-6.13 4.984 3.839 4.027 0 0-3.263 5.558-9.972 2.3 0 0-5.37-1.343-3.645 4.027 0 0 1.533 2.105 3.45 2.683 0 0-8.438 1.729-11.502-4.216 0 0-5.753-.956-4.408 4.025 0 0 1.344 3.069 3.067 3.45 0 0-11.31-3.261-15.528-6.713 0 0-7.101-1.913-2.688 4.795 0 0 10.354 7.67 11.123 7.67 0 0-9.973 1.34-5.752 7.86 0 0 4.406 4.604 4.982 4.794 0 0-5.752.575-9.203-.194 0 0-8.047-2.11-1.914 7.86 0 0-4.986.96-8.82-4.79l-6.9-6.714s-4.221 4.224.955 11.314c0 0-5.172 2.297-7.665-.387 0 0-3.837-1.146-3.837 7.288 0 0-2.494 3.064-4.603-5.945 0 0-.957-4.981-5.56-.382-2.193 2.197-3.141 2.862-3.904 5.823-.454 1.763-.024 6.83-2.23 7.118-3.813.499-3.226-3.662-3.617-5.774-.663-3.58-1.794-4.604-4.358-7.171-4.6-4.597-5.557.386-5.557.386-2.107 9.01-4.602 5.945-4.602 5.945 0-8.435-3.837-7.29-3.837-7.29-2.494 2.685-7.666.389-7.666.389 5.176-7.092.956-11.314.956-11.314l-6.9 6.714c-3.834 5.75-8.821 4.79-8.821 4.79 6.133-9.971-1.915-7.86-1.915-7.86-3.45.77-9.202.194-9.202.194.576-.188 4.983-4.794 4.983-4.794 4.218-6.521-5.752-7.86-5.752-7.86.769 0 11.122-7.67 11.122-7.67 4.412-6.708-2.687-4.795-2.687-4.795-4.22 3.452-15.53 6.714-15.53 6.714 1.725-.382 3.068-3.452 3.068-3.452 1.344-4.98-4.408-4.024-4.408-4.024-3.064 5.943-11.504 4.216-11.504 4.216 1.919-.576 3.452-2.683 3.452-2.683 1.726-5.37-3.644-4.026-3.644-4.026-6.708 3.257-9.971-2.301-9.971-2.301 9.967.957 3.836-4.026 3.836-4.026-6.901-1.92-6.327-6.521-6.327-6.521 8.439 2.489 5.559-3.832 5.559-3.832-6.133-5.944-5.751-9.202-5.751-9.202 10.734 2.876 8.82-4.983 8.82-4.983-2.683-5.94.189-7.096.189-7.096 2.683 5.559 8.246 3.068 8.246 3.068 4.408-6.708-4.795-9.396-4.795-9.396 1.915-6.521 4.602-3.833 4.602-3.833 1.339-1.532 0-8.44 0-8.44-3.837 0-8.627 5.37-8.627 5.37 1.15 4.027-1.34 9.586-1.34 9.586-4.407-2.494-5.562 2.493-5.562 2.493-.192 10.354-4.026 9.778-4.026 9.778.576-.77 0-2.876 0-2.876-5.176-3.833-6.515 2.683-6.515 2.683-3.258 5.56-6.714 4.988-6.714 4.988 4.409-8.628-4.79-6.714-4.79-6.714-8.434 1.339-6.327-2.49-6.327-2.49 7.288-3.063.958-6.52.958-6.52-8.052.576-8.821-5.368-8.821-5.368 9.778 2.488 5.563-3.641 5.563-3.641-6.708-3.64-4.987-10.164-4.987-10.164 1.915 4.025 5.563 3.068 5.563 3.068 4.793-.382 3.832-9.778 3.832-9.778 3.07-.574 4.026 4.603 4.026 4.603.957 4.22 3.646 2.876 3.646 2.876 4.218-1.15 0-14.571 0-14.571 1.343-.387 3.832 1.918 3.832 1.918 5.37 2.876 3.069-5.37 3.069-5.37-2.875-3.262-3.836-8.434-3.836-8.434 8.627-2.107 2.299-13.23 2.299-13.23 6.134-1.148 3.07-9.202 3.07-9.202-2.683-4.025-1.92-7.858-1.92-7.858 4.215-7.665-1.724-19.367-1.724-19.367.574 4.408-1.725 19.556-1.725 19.556-2.876 3.064-.19 6.902-.19 6.902-1.913 0-1.725 4.795-1.725 4.795-2.107 1.918-.961 7.67-1.15 8.627 3.837.957.575 2.876.575 2.876-7.284.575-5.563 5.177-5.563 5.177 4.216 4.22 1.537 7.479 1.537 7.479-5.558-6.327-7.67.382-7.67.382 3.258 3.063-1.726 6.326-1.726 6.326.192-5.37-5.56-4.603-5.56-4.603-4.982 5.94-8.82 4.603-8.82 4.603 5.559-5.563-1.532-7.284-1.532-7.284-4.983.383-9.014-1.15-9.014-1.15l2.3-.573c4.79-1.92.769-5.753.769-5.753-3.833.575-8.434-1.532-8.434-1.532 1.343-2.301 6.902-4.987 6.902-4.987-.957-2.111-3.644-8.052-3.644-8.052 4.026.188 7.095 1.726 7.095 1.726 6.902 2.489 4.79-10.93 4.79-10.16 0 .77 1.537 1.532 1.537 1.532 5.37 4.215 4.983-2.49 4.983-2.49-3.644-3.832-4.22-9.201-4.22-9.201 0 1.919 3.838 1.726 3.838 1.726 7.477-1.531-3.838-9.59-3.838-9.59.958.189-1.15 2.689 3.644-1.531 4.795-4.22-1.15-8.053-1.15-8.053s-.957-.957 1.533-3.645c2.489-2.688 0-12.268-.188-11.311-.19.957.576 3.833-2.495 5.177-3.068 1.343-2.875 13.804-2.875 13.804s-2.11-1.531-4.602.193c-2.495 1.726-2.876 9.967-2.876 9.967l-2.301-4.79c-5.945-7.666-9.971 1.914-10.546 2.107-1.92-.382-1.726-7.097-1.726-7.097-.386-7.096-8.627-2.3-8.627-2.3-.386-6.714 4.22-8.628 4.22-8.628-2.683-4.602-1.15-12.268-1.725-11.504-.576.765 6.708 4.413 6.708 4.413 8.052 2.688 4.026-7.096 4.026-7.096-4.026-4.795-6.902-8.435-6.902-8.435 1.915 3.645 12.079-1.15 6.139-4.602-5.941-3.451-7.864-8.052-8.053-8.627 4.027 2.112 9.203-2.112 5.177-4.601-4.026-2.49-7.477-7.864-7.477-7.864 9.202 4.025 6.708-4.408 6.708-4.408-8.053-2.301-10.928-13.036-8.435-9.396 2.494 3.639 11.31-2.875 6.708-3.641-4.601-.764-9.202-9.014-8.434-8.052.769.962 0 0 4.408 0s4.408-5.176 0-6.713c-4.408-1.536-5.176-8.435-1.92-6.134 3.259 2.3 7.478-4.41 3.07-5.751-4.408-1.342-9.585-8.82-4.794-6.711 4.79 2.106 10.164-4.218 5.945-5.56-4.22-1.341-6.134-10.546-3.257-8.246 2.875 2.3 8.24.385 6.133-3.065-2.107-3.451-6.901-12.271-4.983-9.778 1.919 2.49 11.117.959 9.203-3.261-1.914-4.22-1.343-14.187-1.537-13.035-.193 1.149 8.053 16.68 7.67 2.107-.382-14.572 5.177-15.911 3.645-13.61-1.532 2.3 8.435 14.38 6.902 3.258-1.532-11.122 7.284-12.078 5.365-10.735-1.92 1.344-.382 2.108-.382 4.408 0 2.3 3.644 9.203 6.52.77 2.876-8.435 9.01-9.972 6.902-7.861-2.107 2.11.382 11.503 4.027 7.286 3.645-4.217 12.654-6.902 11.117-4.794-1.537 2.106.96 13.038 3.262 9.587 2.3-3.451 10.54-6.136 8.434-4.027-2.107 2.11 1.343 16.68 4.026 13.613 2.683-3.066 9.396-3.07 7.67-1.343-1.726 1.725-1.726 7.477-3.836 9.587-2.113 2.108-7.284 6.518-.958 4.792 6.327-1.726 13.035 2.686 9.396 2.495-3.64-.191-13.23 9.203-9.971 9.394 3.258.19 12.078 7.286 6.902 6.136-5.177-1.15-16.298 5.752-11.886 6.902 4.414 1.15 10.542 11.119 4.026 7.668-6.515-3.451-3.644.959-14.572.575-10.928-.384-7.095 5.367-6.52 4.792.575-.576 11.503 3.835 8.439 2.875s-12.272 10.93-6.52 10.162c5.752-.77 9.584.769 7.284 1.149-2.301.382-8.434 14.573-2.49 11.887 5.946-2.688 11.505-.766 8.629.192-2.876.958-5.37 15.336-.194 10.354 5.177-4.983 9.779-5.37 9.779-5.37-1.92 7.478 3.45 11.504 3.45 11.504 3.069-6.713 6.133-5.94 6.133-5.94-.768 1.15.769 5.559 2.688 9.392 1.919 3.833 3.833 1.344 3.833 1.344 3.833-8.052 5.559-8.052 5.177-6.902-.382 1.15 5.369 7.859 7.284 10.735 1.913 2.875 5.75 2.3 5.75 2.3s5.388-4.12.787-9.01c0 0 13.229-1.437 7.478-9.777 0 0-6.902.288-8.916 3.164 0 0 2.876-3.164 1.725-6.901 0 0-6.04-.287-6.901-4.89 0 0 6.039 1.438 7.765-1.726 0 0 2.013-4.89.863-7.766 0 0 1.725-1.438 6.327 2.302 0 0 6.9.286 1.438-5.465 0 0-4.89-2.876-5.177-6.326 0 0 11.504 3.45 12.366-.863 0 0-4.313-5.464-4.313-9.49 0 0 11.79 4.314 11.79-3.451 0 0-1.437-3.163-7.478-2.588 0 0 1.15-4.025 4.027-6.901 0 0 2.875-3.163-1.727-3.163-.861-.288-5.176 3.163-8.914.574 0 0 4.314-4.025 2.875-6.901 0 0-.861-3.738-7.764-.575 0 0-6.903 2.3-8.052.575 0 0 6.327-3.163 4.313-8.052 0 0 .288-2.59-4.027-1.15 0 0-4.026 2.3-7.477-.575 0 0 5.75-2.013 5.463-6.04 0 0 .288-4.89-4.313-4.601 0 0-3.163-1.15-3.451-4.313 0 0 7.19-.863 8.916-2.013 0 0 3.45-4.603-1.438-6.327 0 0-3.452-1.438-4.027-5.464 0 0 4.027 2.013 7.766 1.438 0 0 4.889.576 6.327 1.15 0 0-2.877-4.314-.288-9.49 0 0 4.89 4.89 8.628 4.89 3.738 0 4.602 2.3 4.313 2.876 1.634.215 2.354-.761 2.817-2.157.402-1.22-.276-2.554-.06-3.786.266-1.514 1.119-2.723 1.269-4.323-.364 3.97 3.533 6.842 6.062 9.027 2.25 1.946.479 3.602 1.694 5.49 3.082 4.793 5.08-7.103 6.469-8.453.313 1.408 1.083 2.567 1.59 3.913.688 1.814.525 3.43.568 5.396.098 4.36 1.577 6.854 6.293 6.352.69-2.626-.923-3.613-1.104-6.13-.172-2.386.285-4.887.285-7.344" style="fill:#ff020c"/><path d="M258.466 319.804c-1.271.973-2.508 2.45-4.225 1.892-1.33-.431-2.162-1.88-1.526-3.042" style="fill:none"/><path d="M171.616 480.994S167.59 499.4 162.7 501.7c-4.89 2.3-5.177.287-6.472-.72-1.293-1.006-5.606-12.51-9.634-10.641 0 0-2.013 4.603-3.594 4.026 0 0-2.733 4.17 6.758 8.483 0 0 7.045 2.443 5.463 4.602 0 0 .432 1.725-6.758 1.294 0 0-10.353-1.582-12.223 3.02-1.868 4.603 1.582 7.479 3.883 7.479 1.864 0 3.68-.59 5.363-1.371 3.229-1.505 9.147-8.142 12.937-5.117 3.55 2.83-2.456 6.875-3.986 8.853-1.35 1.743-2.6 6.089.64 6.552 4.027.575 4.89 1.15 7.046-1.726 2.158-2.876 1.582-10.642 4.889-12.8 3.308-2.155 5.32-2.442 11.36-1.867 6.039.574 8.052-.72 8.052-2.731 0-2.014 1.15-6.76-4.17-6.04-5.32.72-11.072 4.745-11.791 2.877-.72-1.87 8.196-17.831 11.216-20.132 0 0-2.731-6.327-2.876-8.483 0-.003-3.737 2.73-7.188 3.736z" style="fill:url(#aJ);stroke:#231f20;stroke-width:.25"/><path d="M262.635 481.425s4.026 18.405 8.916 20.706c4.889 2.302 5.177.288 6.47-.72 1.297-1.006 5.609-12.51 9.637-10.64 0 0 2.013 4.6 3.595 4.025 0 0 2.73 4.17-6.76 8.483 0 0-7.046 2.444-5.464 4.602 0 0-.433 1.726 6.758 1.293 0 0 10.354-1.581 12.224 3.02 1.868 4.602-1.582 7.479-3.883 7.479-1.864 0-3.681-.59-5.365-1.371-3.226-1.506-9.146-8.142-12.933-5.117-3.551 2.83 2.453 6.875 3.98 8.853 1.354 1.743 2.604 6.089-.638 6.55-4.026.577-4.89 1.15-7.046-1.724-2.156-2.876-1.582-10.641-4.891-12.798-3.307-2.157-5.32-2.444-11.358-1.87-6.04.576-8.052-.72-8.052-2.73 0-2.013-1.151-6.76 4.168-6.04 5.32.72 11.074 4.745 11.793 2.877.719-1.87-8.196-17.83-11.217-20.132 0 0 2.73-6.326 2.877-8.482 0-.001 3.739 2.73 7.189 3.736z" style="fill:url(#aK);stroke:#231f20;stroke-width:.25"/><path d="M255.15 406.92c3.487-.342 4.477-1.51 7.89-1.582 4.118-.09 7.743-2.827 11.77-3.55 4.298-.771 7.093-.822 10.728-3.33 4.026-2.771 7.48-3.4 12.138-4.624 6.83-1.792 11.562-9.157 16.198-13.925 2.498-2.593 6.205-4.502 7.896-7.72 1.964-3.797.947-8.385 1.919-12.411 1.864-7.616 8.728-13.325 5.469-21.697.08.22-10.771-1.857-11.49-2.161-7.247-2.98-13.057-9.803-14.621-17.267-3.738-17.83 9.306-34.941 29.995-32.688 12.359 1.346 21.235 10.32 26.142 18.43 4.684 7.75 6.396 16.956 8.13 25.646 1.954 9.82 4.272 19.957 2.457 29.84-6.315 34.128-5.715 49.617-6.466 58.973-1.11 13.67 10.68 16.747 10.68 16.747s-3.311 13.479-15.95 4.3c-12.632-9.175-7.818-33.27-7.818-34.99 0-1.72-11.73 11.47-11.13 50.192.13 8.749-.936 33.086 13.776 32.637 1.556-.045 3.1-.463 4.537-.967-3.167 9.742-11.89 9.62-19.223 3.324-9.02-9.75-11.597-25.814-12.99-35.894-1.604-11.508-2.045-42.984-6.557-32.371 0 0-12.033 50.479-7.822 80.024.996 6.974 3.712 31.495 15.578 30.133 1.663-.192 3.33-1.051 4.786-1.812 1.02 3.753.688 11.535-4.426 13.842-5.712 2.584-12.991-.98-15.938-4.876-5.87-7.73-7.872-19.063-9.9-28.281-2.271-10.291-3.514-20.783-4.34-31.257-.643-8.06-.978-16.133-1.104-24.216 0 0 0-7.455-2.403-.288 0 0-6.026 16.64-6.32 24.382 0 0-5.417-31.836-10.837-31.55 0 0-.902 14.34-.902 20.077 0 0-7.217-14.056-13.84-20.076-6.62-6.025-3.011 2.578-3.011 2.578s3.919 19.22 13.84 30.115c0 0-6.92 4.593-15.941-3.153 0 0-2.405 17.785-12.941 12.335 0 0 4.214-5.163 2.718-10.901 0 0-4.516.863-5.715 2.297 0 0 2.997-16.636-2.705-21.224-5.726-4.592-12.646 34.703-11.141 41.013 0 0 11.438 5.162 1.809 15.776 0 0-3.313 51.918 36.7 56.218 0 0 33.679 0 15.652-20.644.026.036 12.932-9.473 17.308 4.242 3.229 10.064-4.008 19.964-12.986 22.992-11.678 3.94-29.271-.23-40.54-4.08-1.167-.398-8.038-2.53-4.402.932 0 0 27.379 18.355 23.77 26.104-3.605 7.742-14.14-1.722-26.774-22.374 0 0-3.01-3.73-3.313.857 0 0 13.836 26.966 5.416 30.407 0 0-9.932 6.598-11.132-26.103 0 0 .903-7.46-4.514-7.172 0 0-2.708-.574-1.2 8.03 0 0 7.82 29.544-4.516 29.544-12.335 0-4.514-29.544-4.514-29.544 1.505-8.604-1.202-8.03-1.202-8.03-5.417-.288-4.512 7.172-4.512 7.172-1.204 32.699-11.132 26.103-11.132 26.103-8.43-3.441 5.414-30.407 5.414-30.407-.301-4.587-3.307-.857-3.307-.857-12.64 20.652-23.17 30.116-26.782 22.374-3.61-7.747 23.77-26.104 23.77-26.104 3.629-3.461-3.237-1.33-4.403-.931-11.271 3.852-28.856 8.02-40.54 4.079-8.985-3.028-16.212-12.928-12.993-22.992 4.383-13.715 17.28-4.206 17.31-4.242-18.032 20.644 15.656 20.644 15.656 20.644 40.015-4.3 36.704-56.218 36.704-56.218-9.625-10.614 1.806-15.776 1.806-15.776 1.506-6.31-5.412-45.604-11.135-41.013-5.713 4.588-2.704 21.224-2.704 21.224-1.204-1.434-5.72-2.297-5.72-2.297-1.505 5.738 2.71 10.9 2.71 10.9-10.53 5.45-12.934-12.334-12.934-12.334-9.026 7.746-15.95 3.153-15.95 3.153 9.933-10.896 13.843-30.115 13.843-30.115s3.607-8.604-3.007-2.578c-6.625 6.02-13.844 20.076-13.844 20.076 0-5.737-.9-20.076-.9-20.076-5.417-.287-10.83 31.549-10.83 31.549-.302-7.742-6.32-24.382-6.32-24.382-2.408-7.167-2.408.288-2.408.288-.13 8.082-.456 16.157-1.105 24.216-.83 10.474-2.077 20.966-4.341 31.257-2.024 9.22-4.032 20.553-9.895 28.28-2.955 3.897-10.23 7.46-15.946 4.877-5.11-2.307-5.441-10.09-4.418-13.842 1.458.76 3.109 1.618 4.783 1.812 11.879 1.36 14.586-23.16 15.582-30.133 4.21-29.545-7.821-80.024-7.821-80.024-4.516-10.613-4.956 20.863-6.553 32.37-1.401 10.079-3.977 26.145-13.003 35.895-7.334 6.297-16.045 6.417-19.23-3.324 1.453.504 2.99.922 4.543.967 14.71.449 13.645-23.888 13.784-32.637.598-38.722-11.133-51.913-11.133-50.192 0 1.72 4.813 25.815-7.823 34.99-12.635 9.18-15.945-4.3-15.945-4.3s11.784-3.077 10.684-16.747c-.757-9.355-.151-24.844-6.473-58.974-1.83-9.883.51-20.018 2.467-29.84 1.734-8.688 3.435-17.894 8.119-25.645 4.905-8.108 13.784-17.084 26.143-18.431 20.69-2.253 33.066 15.434 28.752 34.988-1.642 7.448-6.13 11.987-13.361 14.966-.732.304-11.594 2.382-11.501 2.16-3.262 8.373 3.604 14.082 5.459 21.698.979 4.026-.045 8.614 1.933 12.41 1.68 3.218 5.383 5.128 7.895 7.72 4.624 4.769 9.367 12.134 16.19 13.926 4.664 1.223 8.115 1.853 12.13 4.624 3.644 2.507 6.438 2.557 10.734 3.33 4.029.724 7.65 3.46 11.769 3.55 3.408.072 6.504-1.34 10.005-1.002-.708-.066-.268-8.928-.218-9.525.514-6.18 2.436-11.188 6.573-15.831-3.628-.104-8.548-.117-11.89-1.46 2.44-2.952 6.393-5.248 9.328-7.774 1.068-.917 9.516-10.26 10.046-10.15l-4.511-.862s9.022-6.884 9.022-10.9c0 0 1.503-8.315 1.204-10.61l-5.716-.86s4.813-3.441 2.104-9.464l2.709-2.01 5.715 4.303 6.322-1.148v-7.17l-1.507-14.34 4.21-.86s4.814-5.45 13.24 0c8.42 5.449 20.453 15.489 24.669 22.946 0 0 2.108 5.448 1.5 13.48 0 0 .608 4.588 4.517 6.596 0 0-.908 2.867-8.726 3.155 0 0 .306 5.737 4.817 6.597 0 0-6.912 1.72-10.533-1.146 0 0-.896 7.459 7.822 7.17 0 0 1.194 4.014-3.308 4.589 0 0 4.502 7.172 6.019 12.904 1.504 5.738 3 5.45 4.812 5.738 1.808.288-6.92 2.009-15.646-8.604 0 0 8.726 18.644 6.32 28.682z" style="stroke:#000;stroke-width:.25"/><path d="M146.595 490.34s-6.04-4.89-10.496 2.014c0 0 5.896-.862 6.902 2.014 0 0 2.588-.288 3.594-4.028z" style="fill:url(#aL);stroke:#231f20;stroke-width:.25"/><path d="M136.242 511.766s-6.182 1.149-6.182 7.908c0 0 3.307-2.877 7.045-1.295 0 0-2.012-3.305-.863-6.613z" style="fill:url(#aM);stroke:#231f20;stroke-width:.25"/><path d="M152.779 526.865s-3.738 6.183 2.157 9.634c0 0 1.58-7.765 4.169-7.91 0-.001-5.032.576-6.326-1.724z" style="fill:url(#aN);stroke:#231f20;stroke-width:.25"/><path d="M186.138 504.288s6.615.146 5.178 8.196c0 0-1.87-2.876-5.033-2.731-.001 0 .862-3.882-.145-5.465z" style="fill:url(#aO);stroke:#231f20;stroke-width:.25"/><path d="M287.657 490.773s3.162-5.033 8.627-1.007c0 0-3.883 1.438-5.032 5.032-.001 0-2.446-1.006-3.595-4.025z" style="fill:url(#aP);stroke:#231f20;stroke-width:.25"/><path d="M298.009 512.198s7.333 2.3 7.62 7.188c0 0-6.76-2.59-9.202-.574 0 0 2.73-3.738 1.582-6.614z" style="fill:url(#aR);stroke:#231f20;stroke-width:.25"/><path d="M274.427 528.877s6.47 3.738 3.45 10.642c0 0 7.479-2.731 3.163-12.941 0-.001-2.011 2.874-6.613 2.299z" style="fill:url(#aS);stroke:#231f20;stroke-width:.25"/><path d="M247.395 505.152s-3.021 2.876-2.157 6.9c0 0 2.014-2.443 3.45-.574 0 0-1.293-4.744-1.293-6.326z" style="fill:url(#aT);stroke:#231f20;stroke-width:.25"/><path d="M175.26 302.913c-1.4-6.453.397-14.635 8.146-15.41 0 0 11.504-2.688 33.36 16.486 0 0-3.834 4.988-3.067 9.972.767 4.984 6.136 8.05 1.15 13.036-4.986 4.986-10.692 2.298-14.165-2.11-3.474-4.407-13.443-13.992-16.894-14.376 0 0 3.45-4.603 19.556 11.119 1.867 1.822 6.91 4.006 7.739.283.893-4.01-2.762-7.093-5.524-9.316-3.896-3.137-7.57-6.486-10.953-10.164-2.631-2.858-6-7.078-10.394-6.37-4.258.687-7.162 3.122-8.954 6.85z" style="fill:url(#aU);stroke:#231f20;stroke-width:.25"/><path d="M196.636 304.753s-12.27-6.711-19.17 1.15c0 0 8.05-3.067 19.17-1.15z" style="fill:#fff;stroke:#231f20;stroke-width:.25"/><path d="M210.677 301.686s-2.685 1.537 0 5.37" style="fill:none;stroke:#231f20;stroke-width:.25"/><path d="M225.584 310.509s-5.367 3.835 0 8.052c5.368 4.217 7.669-1.15 7.669-1.15z" style="fill:#e7d479"/><circle cx="227.26" cy="315.142" r="1.823" style="fill:#231f20;stroke:#231f20;stroke-width:.25" transform="translate(1.01 .348)"/><path d="M146.883 485.595s.576-3.162.432-5.752c0 0 2.3 2.589 4.314 3.309 0 0 4.745-5.896 6.613-11.503 0 0 1.15 1.149 1.439 2.875 0 0 2.013-.287 3.02-1.438 0 0-.576 3.308-3.452 8.77 0 0 4.746 2.876 7.478 2.302 0 0-.576 4.025-6.615 4.313 0 0 4.17 3.883 1.438 8.483 0 0-3.74-7.62-14.667-11.36zM290.963 485.595s-.575-3.162-.433-5.752c0 0-2.301 2.589-4.313 3.309 0 0-4.744-5.896-6.613-11.503 0 0-1.15 1.149-1.438 2.875 0 0-2.012-.287-3.02-1.438 0 0 .575 3.308 3.45 8.77 0 0-4.744 2.876-7.478 2.302 0 0 .576 4.025 6.615 4.313 0 0-4.17 3.883-1.438 8.483.002 0 3.739-7.62 14.668-11.36zM202.053 479.052c-.563 1.209-1.104 2.927-2.61 3.083-1.017.107-2.49-1.303-3.025-.035-.521 1.23 1.592 3.108 1.755 4.3.188 1.389-.93 2.539-1.814 3.497-2.457 2.649-5.205 2.815-8.683 2.728-1.937-.05-3.105.31-4.46 1.747-.905.962-2.242 2.396-1.104 3.582 2.339 2.444 7.827.045 10.014-1.313.496 1.604.398 2.97.32 4.614-.09 1.968.49 3.446 1.294 5.212 1.562 3.425 1.6 6.099-.723 9.086-.792 1.024-1.786 2.69-3.163 2.948-1.505.278-2.817-1.15-4.354-.998-3.807.377-2.6 6.493-5.98 6.89-3.131.367-3.29-4.75-6.513-4.508-4.21.318-3.408 4.719-2.09 7.198.51.962 1.792 3.235.862 4.31-.791.907-2.423.06-3.464.338-1.703.458-2.258 2.07-2.183 3.685.045.984 1.316 3.379.013 3.928-.708.302-1.72-.57-2.296-.854-.825-.404-1.905-.777-2.845-.603-1.688.31-2.621 1.853-2.511 3.506.32 4.835 5.812 4.115 8.438 6.668 1.394 1.353.216 2.935-.82 4.106-1.682 1.904-3.776 3.546-4.876 5.9-.721 1.54-1.07 3.85.435 5.077 1.297 1.06 2.84.282 3.865-.751 1.6-1.612 2.437-3.847 3.625-5.747.715-1.146 3.696-5.405 5.014-2.63.983 2.077-.878 4.962-1.521 6.876-.315.943-.773 2.414-.398 3.414 1.02 2.715 4.54.832 6.095-.623 3.847-3.601 3.92-12.003 4.1-14.843 1.05 2.022 2.118 9.153 5.597 8.618 3.92-.602 2.988-5.006 1.01-6.934-1.148-1.118-1.822-1.905-1.781-3.59 2.93 1.985 10.498 3.635 10.373-1.663-.06-2.417-1.926-3.681-3.505-5.162-1.453-1.362-2.912-3.955.344-3.38 2.205.387 6.188-1.285 6.694-3.698.366-1.743-2.054-4.557-3.574-5.15-.598-.231-3.043-.215-2.98-1.267.054-.89 2.057-.831 2.633-.966 2.49-.58 4.907-2.09 4.86-4.83-.044-2.54-.515-3.475-2.206-5.23-1.562-1.622-1.52-4.7-1.726-6.89-.2-2.144-.034-5.458.765-7.508.37-.952 1.378-1.783 1.412-2.862.038-1.118-1.061-1.812-1.123-2.885-.108-1.797 2.03-2.745 2.949-4.01.875-1.198.815-2.362.94-3.772.194-2.211 1.235-6.844-1.364-8.034M232.825 479.052c.565 1.209 1.105 2.927 2.615 3.083 1.016.107 2.489-1.303 3.02-.035.522 1.23-1.592 3.108-1.751 4.3-.19 1.389.93 2.539 1.813 3.497 2.454 2.649 5.203 2.815 8.682 2.728 1.938-.05 3.105.31 4.459 1.747.906.962 2.246 2.396 1.104 3.582-2.336 2.444-7.826.045-10.012-1.313-.494 1.604-.396 2.97-.323 4.614.09 1.968-.485 3.446-1.294 5.212-1.561 3.425-1.6 6.099.729 9.086.79 1.024 1.783 2.69 3.164 2.948 1.5.278 2.813-1.15 4.35-.998 3.81.377 2.604 6.493 5.98 6.89 3.133.367 3.289-4.75 6.51-4.508 4.217.318 3.412 4.719 2.096 7.198-.514.962-1.793 3.235-.863 4.31.79.907 2.428.06 3.465.338 1.703.458 2.262 2.07 2.186 3.685-.045.984-1.317 3.379-.014 3.928.709.302 1.715-.57 2.295-.854.822-.404 1.904-.777 2.845-.603 1.69.31 2.625 1.853 2.513 3.506-.318 4.835-5.811 4.115-8.44 6.668-1.392 1.353-.214 2.935.823 4.106 1.682 1.904 3.775 3.546 4.877 5.9.723 1.54 1.068 3.85-.438 5.077-1.294 1.06-2.84.282-3.863-.751-1.602-1.612-2.438-3.847-3.627-5.747-.715-1.146-3.697-5.405-5.011-2.63-.988 2.077.877 4.962 1.52 6.876.314.943.773 2.414.397 3.414-1.021 2.715-4.54.832-6.095-.623-3.846-3.601-3.918-12.003-4.1-14.843-1.05 2.022-2.12 9.153-5.597 8.618-3.92-.602-2.988-5.006-1.007-6.934 1.146-1.118 1.818-1.905 1.779-3.59-2.93 1.985-10.498 3.635-10.371-1.663.054-2.417 1.924-3.681 3.504-5.162 1.447-1.362 2.912-3.955-.346-3.38-2.205.387-6.188-1.285-6.695-3.698-.362-1.743 2.054-4.557 3.572-5.15.603-.231 3.047-.215 2.984-1.267-.055-.89-2.06-.831-2.635-.966-2.49-.58-4.906-2.09-4.861-4.83.045-2.54.512-3.475 2.207-5.23 1.559-1.622 1.518-4.7 1.727-6.89.2-2.144.03-5.458-.765-7.508-.374-.952-1.381-1.783-1.416-2.862-.037-1.118 1.06-1.812 1.124-2.885.107-1.797-2.031-2.745-2.95-4.01-.87-1.198-.817-2.362-.937-3.772-.194-2.211-1.236-6.844 1.359-8.034" style="fill:#fff"/><path d="M184.795 415.955s-27.488.378-71.548-28.38C69.189 358.817 64.537 350 64.537 350s-2.106 2.494 1.819 19.169c0 0 61.844 41.42 121.268 52.538-.001 0-1.615-1.15-2.83-5.752z" style="fill:url(#aW)"/><path d="M249.668 415.955s27.485.378 71.549-28.38c44.055-28.758 49.313-37.96 49.313-37.96s1.532 5.563-2.423 19.555c0 0-61.844 41.42-121.266 52.538 0-.001 1.613-1.151 2.827-5.753z" style="fill:url(#aX)"/><path d="M120.044 305.59a5.276 5.276 0 0 0-5.274-5.274c-2.403 0-4.35 1.645-4.983 3.842-.462-2.44-2.507-4.324-5.082-4.324a5.275 5.275 0 0 0-5.272 5.275c0 2.679 2.03 4.804 4.619 5.14l-.02.037s-8.34 5.75-6.612 17.542c0 0 5.869-8.924 11.342-12.137a5.277 5.277 0 0 0 4.859 3.222 5.27 5.27 0 0 0 5.272-5.271c0-1.402-.57-2.66-1.461-3.604 1.534-.924 2.612-2.528 2.612-4.447z" style="fill:url(#aY)"/><path d="M313.417 305.59a5.272 5.272 0 0 1 5.27-5.274c2.409 0 4.353 1.645 4.989 3.842.458-2.44 2.507-4.323 5.077-4.323a5.276 5.276 0 0 1 5.274 5.275c0 2.679-2.03 4.804-4.618 5.14l.018.037s8.34 5.75 6.615 17.542c0 0-5.87-8.924-11.342-12.137a5.285 5.285 0 0 1-4.862 3.222 5.27 5.27 0 0 1-5.271-5.271c0-1.402.569-2.66 1.46-3.604-1.533-.925-2.61-2.53-2.61-4.448z" style="fill:url(#aZ)"/></g></svg>