<svg xmlns="http://www.w3.org/2000/svg" xmlns:xlink="http://www.w3.org/1999/xlink" width="750" height="500" version="1.0"><defs><path id="a" d="m659.701 186.567 7.731-29.844-25.297-17.619 30.772-1.87 8.94-29.504 11.287 28.688 30.823-.615-23.796 19.6 10.109 29.124-25.994-16.574-24.575 18.614z" style="fill:#233e8c;fill-opacity:1;fill-rule:evenodd;stroke:none" transform="matrix(.70847 .03363 -.03218 .7027 0 0)"/></defs><path fill="#ee252a" d="M0 0h750v500H0z"/><path fill="#fff" d="M0 166.667h750v166.667H0z"/><path fill="#233e8c" d="M0 0h214.285v500H0z"/><g transform="scale(1.00794)"><use xlink:href="#a" x="-230.418" y="80.585"/><use xlink:href="#a" x="-164.918" y="80.585"/><use xlink:href="#a" x="-99.411" y="80.585"/><use xlink:href="#a" x="-33.903" y="80.585"/><use xlink:href="#a" x="31.605" y="80.585"/><use xlink:href="#a" x="97.113" y="80.585"/><use xlink:href="#a" x="162.621" y="80.585"/><use xlink:href="#a" x="228.129" y="80.585"/><use xlink:href="#a" x="-230.418" y="163.274"/><use xlink:href="#a" x="-164.918" y="163.286"/><use xlink:href="#a" x="-99.411" y="163.286"/><use xlink:href="#a" x="-33.903" y="163.286"/><use xlink:href="#a" x="31.605" y="163.286"/><use xlink:href="#a" x="97.113" y="163.286"/><use xlink:href="#a" x="162.621" y="163.286"/><use xlink:href="#a" x="228.129" y="163.286"/></g></svg>