<svg xmlns="http://www.w3.org/2000/svg" id="svg205" width="1000" height="600" version="1.1" viewBox="0 0 10 6"><style id="style2">.B{stroke-linecap:round}.C{stroke-linejoin:round}.H{fill:#000}.J{filter:url(#A)}.K{fill-opacity:.988}.L{stroke:none}.M{fill-rule:nonzero}.N{fill-opacity:1}.O{stroke-width:1.5}.P{stroke:#000}.Q{stroke-opacity:1}.R{stroke-miterlimit:4}.U{fill:#f9d100}</style><defs id="defs51"><clipPath id="C"><path id="path12" d="M0 0h232v241H0z"/></clipPath><clipPath id="F"><path id="path23" d="M0 0h232v241H0z"/></clipPath><clipPath id="I"><path id="path34" d="M0 0h232v241H0z"/></clipPath><clipPath id="L"><path id="path45" d="M0 0h232v241H0z"/></clipPath><clipPath id="clipPath2061"><path id="path2-5" d="M0 0h624v567H0z"/></clipPath><clipPath id="clipPath147" clipPathUnits="userSpaceOnUse"><path id="path145" d="M0 566.93h623.62V0H0Z"/></clipPath><clipPath id="clipPath239" clipPathUnits="userSpaceOnUse"><path id="path237" d="M35.88 316.06h105.28v170.87H35.88Z"/></clipPath><mask id="B"><g id="g9" class="J"><path id="path7" d="M0 0h232v241H0z" class="H K L"/></g></mask><mask id="E"><g id="g20" class="J"><path id="path18" d="M0 0h232v241H0z" class="H K L"/></g></mask><mask id="H"><g id="g31" class="J"><path id="path29" d="M0 0h232v241H0z" class="H K L"/></g></mask><mask id="K"><g id="g42" class="J"><path id="path40" d="M0 0h232v241H0z" class="H K L"/></g></mask><g id="D" clip-path="url(#C)"><path id="path15" d="M-825.141-424.088h103.683v16.463h-103.683zm0 0" class="B C H M N O P Q R" transform="matrix(.38202 -.32355 .31108 .39198 530.297 22.972)"/></g><g id="G" clip-path="url(#F)"><path id="path26" d="M-823.806-425.727h103.683v16.463h-103.683zm0 0" class="B C M N O P Q R U" transform="matrix(.38202 -.32355 .31108 .39198 530.297 22.972)"/></g><g id="J" clip-path="url(#I)"><path id="path37" d="M-825.146-424.091h103.683l.006 16.468H-825.14zm0 0" class="B C H M N O P Q R" transform="matrix(.38202 -.32355 .31108 .39198 543.445 37.643)"/></g><g id="M" clip-path="url(#L)"><path id="path48" d="M-823.807-425.736h103.683l.001 16.474h-103.683zm0 0" class="B C M N O P Q R U" transform="matrix(.38202 -.32355 .31108 .39198 543.445 37.643)"/></g><filter id="A" width="1" height="1" x="0" y="0"><feColorMatrix id="feColorMatrix4" in="SourceGraphic" values="0 0 0 0 1 0 0 0 0 1 0 0 0 0 1 0 0 0 1 0"/></filter></defs><path id="path53" fill="#205a99" d="M0 0h10v3H0z" style="fill:#fff"/><path id="path55" fill="#fff" d="M0 3h10v3H0z" style="fill:#e30613;fill-opacity:1"/><g id="g235" clip-path="url(#clipPath239)" transform="matrix(.03343 0 0 -.03343 2.16 17.111)"><g id="g241" transform="translate(132.19 481.52)"><path id="path243" d="M0 0h-94.974v-61.981c0-40.389 42.459-57.309 47.594-57.199C-41.688-118.96 0-99.66 0-61.981z" style="fill:#fff;fill-opacity:1;fill-rule:nonzero;stroke:none"/></g><g id="g245" transform="translate(91.888 398.35)"><path id="path247" d="M0 0s.746-1.592 1.302-2.727c.603-1.33 1.662-2.451 1.422-3.567-.169-.735-1.881-.939-2.774-.939-.892 0-1.904 0-2.531-.144-.603-.139-1.398-1.003-1.255-2.093.17-1.474 1.112-2.633 1.112-2.341 0 .666.07 1.126.409 1.479.288.36.723.36 1.326.245 1.399-.266 3.158.579 3.497 1.069.313.492.24.541.553.8.626.544.337-.671 1.881-.617.506.01.506.177.82.135.313-.048.506-.587.457-1.387-.048-.759-.121-1.288.169-1.962.266-.668.459-1.12.532-1.295.193-.633-.266-1.151-.532-1.203-.264-.04-.772 0-.313-.221.435-.219 1.641-.485 2.267 0 .314.235.241.127.723.221.554.113 1.206 1.547.77 2.585-.53 1.199-1.493 2.906-2.481 3.706-.267.215-.627.399-.217.624.409.222.264.492.796.177.553-.308 1.492-.779 2.095-1.114.942-.508 3.304-.758 3.523-.664.24.087.553.387.916-.106.36-.492.433-1.671.626-1.69.36-.02 1.109 2.046 0 3.172-.169.162.193.466 0 .916-.483 1.078-2.604 1.184-3.497 1.184-.892 0-1.591 0-2.144-.09-.53-.089-.653-.226-.966-.089-.313.132-.483.256-.36.619.143.509 1.326 1.922 1.589 2.145.29.221.17.038.723.311.579.29.772.758.532 1.067-.217.318-.266.626.1.852.577.358 1.422-.045 1.952-.574.07-.069.146 1.659-1.303 2.015-.845.21-1.231.214-1.472-.094a.466.466 0 0 0-.748-.024c-.217.236-.676.184-.99.102C7.16.106 6.847-3.664 6.654-4.019c-.193-.358-.579-.556-.892-.509-.314.054-.41.25-.869 1.09-.843 1.582-.867 1.75-1.326 2.673-.457.923-.989 2.051-.989 2.051" style="fill:#ffed00;fill-opacity:1;fill-rule:nonzero;stroke:none"/></g><g id="g249" transform="translate(104.76 397.18)"><path id="path251" d="M0 0c-.073.697-.459 1.318-1.206 1.5-.869.219-1.132.174-1.278-.031-.483-.664-.867.061-1.349.078l-.46-.066c-.965-.259-1.398-2.647-1.591-3.567l-.097-.525-.047-.184C-6.365-3.523-7.21-3.8-7.62-3.214l-.216.339-.29.516C-8.945-.803-9.694.794-10.44 2.373l.289.151C-9.379.944-8.656-.65-7.813-2.197l.266-.513.193-.304c.288-.382.796-.118.989.235l.071.238.097.516c.193 1.074.652 3.511 1.808 3.833.337.099.869.153 1.132-.158l.509.017c.287.414.82.36 1.639.16C-.193 1.596.313.772.337-.108v-.219C.313-.57.073-.525.024-.476-.506.05-1.255.37-1.712.075c-.243-.146-.243-.327-.049-.607.313-.443.026-1.01-.603-1.319l-.337-.139-.169-.049-.17-.099c-.264-.217-1.422-1.601-1.542-2.06-.12-.375.289-.507.556-.453.576.118.916.194 1.542.21l1.205.012c1.062 0 3.134-.134 3.641-1.281.122-.294.073-.513 0-.791 1.062-1.177.532-3.575-.167-3.53l-.194.139-.073.177-.12.475c-.096.37-.193.751-.362.966l-.337.205-.17-.059-.193-.095c-.289-.122-2.701.146-3.664.667-.602.339-1.568.805-2.097 1.123l-.243.115-.384-.299.024-.188.217-.16c1.012-.822 2.001-2.562 2.507-3.765.457-1.083-.193-2.68-.892-2.819-.337-.06-.387.01-.65-.188-.723-.546-1.978-.249-2.437-.01-.361.219-.314.433-.071.49l.41.04c.169.03.579.441.41.989-.267.785-.7 1.43-.749 2.287 0 .315.026.64.049 1.026.047.838-.169 1.19-.313 1.211-.313-.057-.217-.029-.459-.099-.796-.184-1.349.07-1.882.664l-.48-.314-.289-.489c-.363-.563-2.195-1.427-3.643-1.149-.626.115-.94.094-1.18-.189-.289-.304-.362-.706-.362-1.363l-.24-.209-.194.122c-.529.539-.939 1.695-1.012 2.402-.146 1.17.676 2.121 1.399 2.279.626.146 1.662.151 2.554.151.507 0 2.461.132 2.605.8.216 1.031-.989 2.543-1.423 3.461l-1.278 2.729.289.142 1.303-2.724c.482-1.041 1.688-2.475 1.448-3.674-.219-.934-2.221-1.071-2.944-1.071-.915 0-1.905 0-2.481-.139-.533-.127-1.256-.911-1.135-1.912.07-.706.362-1.347.602-1.766l.17-.28c.02.523.144.937.433 1.276.386.436.893.407 1.496.294 1.349-.252 3.037.575 3.326 1.001l.267.48.336.356c.241.214.46.259.7.016.386-.449.602-.619 1.278-.598l.264.033.339.101h.24c.483-.065.653-.798.603-1.563-.047-.673-.12-1.239.146-1.884.287-.675.48-1.132.53-1.304.24-.732-.29-1.359-.653-1.425.509-.171 1.352-.28 1.835.08.336.257.384.175.796.252.383.08 1.059 1.366.626 2.355-.506 1.189-1.472 2.866-2.411 3.638-.29.221-.796.572-.193.902l.24.209c.266.193.459.116.723-.035.532-.309 1.471-.777 2.1-1.111.914-.502 3.205-.723 3.374-.655.41.21.747.337 1.086-.163.216-.272.336-.732.409-1.083l.121-.449c.193.296.868 1.768-.144 2.799l-.097.288c.097.315.144.473.073.673-.435.973-2.46 1.083-3.353 1.083-.892 0-1.591 0-2.098-.085-.386-.063-.722-.235-1.085-.075-.337.144-.603.332-.457.822.17.558 1.399 1.994 1.662 2.223l.316.174.433.16c.553.278.603.643.483.819-.266.351-.363.789.12 1.088C-1.302.73-.556.426 0 0" style="fill:#000;fill-opacity:1;fill-rule:nonzero;stroke:none"/></g><g id="g253" transform="translate(88.052 389.09)"><path id="path255" d="M0 0s1.592 1.535 2.677-.756" style="fill:#ffed00;fill-opacity:1;fill-rule:nonzero;stroke:none"/></g><g id="g257" transform="translate(87.932 389.21)"><path id="path259" d="m0 0 .313.229C1.425.961 2.388.407 2.967-.803l-.313-.146C2.171.078 1.448.563.483-.054L.242-.238Z" style="fill:#000;fill-opacity:1;fill-rule:nonzero;stroke:none"/></g><g id="g261" transform="translate(98.878 384.91)"><path id="path263" d="M0 0s.243.405.626.28c.41-.12 1.013-.358 1.086-1.377" style="fill:#ffed00;fill-opacity:1;fill-rule:nonzero;stroke:none"/></g><g id="g265" transform="translate(98.735 385)"><path id="path267" d="m0 0 .047.085.17.148c.12.106.336.205.602.123.434-.127 1.133-.403 1.206-1.531l-.337-.023C1.639-.28 1.086-.075.723.036L.41-.033.29-.169Z" style="fill:#000;fill-opacity:1;fill-rule:nonzero;stroke:none"/></g><g id="g269" transform="translate(105.68 389.41)"><path id="path271" d="M0 0s-.65 1.194.264 1.34c.339.047.796-.196.796-.196" style="fill:#ffed00;fill-opacity:1;fill-rule:nonzero;stroke:none"/></g><g id="g273" transform="translate(105.73 389.45)"><path id="path275" d="M0 0s-.603 1.102.243 1.236c.313.045.722-.181.722-.181" style="fill:none;stroke:#ffed00;stroke-width:.779;stroke-linecap:butt;stroke-linejoin:miter;stroke-miterlimit:4;stroke-dasharray:none;stroke-opacity:1"/></g><g id="g277" transform="translate(105.37 389.21)"><path id="path279" d="m0 0-.12.254c-.266.624-.386 1.531.577 1.681.339.048.796-.099 1.109-.261l-.167-.299-.313.132C.047 1.862-.17 1.239.193.386L.29.167Z" style="fill:#000;fill-opacity:1;fill-rule:nonzero;stroke:none"/></g><g id="g281" transform="translate(101.82 398.54)"><path id="path283" d="M0 0s-.532-.702.047-1.33c.313-.325.65-.344.796-.344" style="fill:#ffed00;fill-opacity:1;fill-rule:nonzero;stroke:none"/></g><g id="g285" transform="translate(101.97 398.44)"><path id="path287" d="M0 0c-.483-.598-.049-1.404.699-1.404v-.336C-.29-1.74-.819-.77-.363.066l.097.144z" style="fill:#000;fill-opacity:1;fill-rule:nonzero;stroke:none"/></g><g id="g289" transform="translate(77.275 398.35)"><path id="path291" d="M0 0s-.77-1.592-1.302-2.727c-.626-1.33-1.663-2.451-1.422-3.567.146-.735 1.881-.939 2.773-.939.891 0 1.906 0 2.532-.144.602-.139 1.398-1.003 1.252-2.093-.167-1.474-1.132-2.633-1.109-2.341 0 .666-.096 1.126-.409 1.479-.313.36-.723.36-1.326.245-1.399-.266-3.184.579-3.497 1.069-.313.492-.263.541-.553.8-.629.544-.363-.671-1.881-.617-.507.01-.507.177-.82.135-.313-.048-.506-.587-.459-1.387.049-.759.12-1.288-.167-1.962-.266-.668-.483-1.12-.532-1.295-.217-.633.266-1.151.532-1.203.264-.04.77 0 .313-.221-.435-.219-1.641-.485-2.268 0-.312.235-.24.127-.722.221-.554.113-1.206 1.547-.773 2.585.507 1.199 1.495 2.906 2.461 3.706.29.215.626.399.24.624-.41.222-.263.492-.819.177-.53-.308-1.472-.779-2.098-1.114-.916-.508-3.28-.758-3.497-.664-.24.087-.553.387-.916-.106-.36-.492-.456-1.671-.626-1.69-.363-.02-1.109 2.046 0 3.172.17.162-.193.466 0 .916.459 1.078 2.604 1.184 3.496 1.184.893 0 1.592 0 2.122-.09.553-.089.676-.226.989-.089.313.132.457.256.36.619-.144.509-1.349 1.922-1.615 2.145-.264.221-.144.038-.699.311-.603.29-.77.758-.53 1.067.216.318.266.626-.1.852-.579.358-1.422-.045-1.952-.574-.07-.069-.146 1.659 1.3 2.015.822.21 1.232.214 1.448-.094a.491.491 0 0 1 .773-.024c.216.236.673.184.963.102C-7.187.106-6.85-3.664-6.657-4.019c.193-.358.579-.556.892-.509.313.054.41.25.843 1.09.846 1.582.893 1.75 1.352 2.673.433.923.989 2.051.989 2.051" style="fill:#ffed00;fill-opacity:1;fill-rule:nonzero;stroke:none"/></g><g id="g293" transform="translate(80.145 386.85)"><path id="path295" d="m0 0 .193.28c.24.419.53 1.055.603 1.766.12 1.001-.603 1.785-1.135 1.912-.577.134-1.592.139-2.482.139-.725 0-2.75.137-2.943 1.071-.24 1.199.965 2.633 1.448 3.674l1.302 2.729.29-.146-1.302-2.729c-.41-.921-1.616-2.435-1.399-3.462.144-.673 2.098-.8 2.604-.8.89 0 1.929 0 2.555-.151.699-.158 1.542-1.109 1.399-2.275C1.06 1.297.65.141.12-.398c-.143-.146-.459-.217-.433.087 0 .657-.097 1.06-.363 1.363-.24.283-.579.304-1.182.189-1.446-.278-3.303.586-3.664 1.149l-.289.49-.386.365c-.53-.575-.867-.78-1.639-.754-.266.01-.41.059-.506.099l-.267.038c-.143-.021-.362-.372-.313-1.21.05-.733.12-1.331-.169-2.033-.29-.664-.483-1.113-.554-1.28-.169-.549.264-.964.41-.989.144-.022.796.01.626-.337l-.263-.198c-.459-.235-1.738-.532-2.437.014-.266.2-.313.123-.65.189-.699.138-1.352 1.735-.892 2.818.506 1.203 1.495 2.943 2.507 3.765l.217.16.02.189-.313.263c-.24 0-2.241-1.099-2.411-1.203-.965-.52-3.377-.789-3.664-.666l-.193.094-.169.059c-.434.066-.65-.923-.7-1.171l-.12-.475-.07-.177-.217-.139c-.675-.044-1.205 2.353-.12 3.457-.122.351-.169.57-.02.864.48 1.147 2.578 1.281 3.64 1.281.893 0 1.616 0 2.169-.087.242-.047.629-.21.892-.099.266.113.313.167.243.417-.12.459-1.279 1.843-1.545 2.06l-.167.099c-.603.122-1.615.796-1.111 1.507.193.282.193.462-.05.608-.456.294-1.205-.03-1.735-.551-.05-.05-.289-.095-.313.148v.219c.02.878.53 1.705 1.446 1.935.819.2 1.325.255 1.638-.16l.509-.02c.264.313.793.256 1.133.158 1.156-.323 1.615-2.76 1.808-3.834l.095-.512.071-.237c.193-.356.699-.624.989-.236l.193.304.266.513c.843 1.58.893 1.747 1.35 2.666l.965 2.055.313-.151-.989-2.046c-.459-.927-.506-1.094-1.349-2.686l-.266-.516-.217-.339c-.435-.591-1.255-.308-1.542.28l-.099.323-.094.525c-.193.921-.629 3.308-1.568 3.567l-.796-.04a.659.659 0 0 0-1.036.03c-.146.205-.434.25-1.302.03-.723-.181-1.109-.803-1.182-1.5.529.429 1.302.73 1.881.36.48-.299.386-.741.144-1.088-.121-.176-.07-.541.482-.819l.29-.127.193-.05.266-.157c.264-.228 1.493-1.672 1.662-2.223.17-.64-.456-.977-.965-.874-.144.029-.313.085-.577.128-.532.084-1.231.084-2.098.084-.772 0-3.762-.174-3.353-1.53l.07-.222-.1-.292c-1.013-1.031-.337-2.495-.17-2.799l.123.45c.1.35.216.81.409 1.083.36.499.674.372 1.109.162.167-.068 2.458.153 3.374.655.603.334 1.569.803 2.098 1.111l.34.156.289-.043.337-.287.217-.172.049-.249-.266-.328-.193-.153C-11.1 2.337-12.039.66-12.569-.529c-.409-.989.264-2.277.676-2.354.384-.078.433 0 .77-.252.459-.361 1.326-.252 1.832-.08-.384.066-.916.692-.674 1.424.071.172.264.629.554 1.304.266.646.193 1.211.146 1.884-.026.457 0 1.719.843 1.564l.176-.058c.553-.193 1.206-.077 1.592.358l.313.299h.264l.555-.513.29-.481c.264-.419 1.975-1.252 3.327-1 .603.112 1.109.141 1.495-.295C-.122.937-.023.518 0 0" style="fill:#000;fill-opacity:1;fill-rule:nonzero;stroke:none"/></g><g id="g297" transform="translate(81.108 389.09)"><path id="path299" d="M0 0s-1.615 1.54-2.701-.756" style="fill:#ffed00;fill-opacity:1;fill-rule:nonzero;stroke:none"/></g><g id="g301" transform="translate(80.988 388.97)"><path id="path303" d="m0 0-.24.189c-.966.616-1.689.136-2.195-.891l-.289.137C-2.145.662-1.206 1.203-.071.471L.217.242Z" style="fill:#000;fill-opacity:1;fill-rule:nonzero;stroke:none"/></g><g id="g305" transform="translate(70.378 385.1)"><path id="path307" d="M0 0s-.337.219-.746.094c-.387-.12-.99-.363-1.062-1.396" style="fill:#ffed00;fill-opacity:1;fill-rule:nonzero;stroke:none"/></g><g id="g309" transform="translate(70.284 384.96)"><path id="path311" d="m0 0-.169.073h-.41c-.386-.115-.916-.316-.966-1.243l-.336.014c.073 1.14.77 1.417 1.205 1.549.217.073.433.043.603 0L.094.325.193.283Z" style="fill:#000;fill-opacity:1;fill-rule:nonzero;stroke:none"/></g><g id="g313" transform="translate(63.627 389.3)"><path id="path315" d="M0 0s.845 1.502-.313 1.686c-.433.061-1.036-.382-1.036-.382" style="fill:#ffed00;fill-opacity:1;fill-rule:nonzero;stroke:none"/></g><g id="g317" transform="translate(63.484 389.38)"><path id="path319" d="M0 0c.096.137.676 1.297-.193 1.429-.337.057-.893-.329-.916-.346l-.193.273s.143.118.386.229c.193.106.506.221.77.183C.819 1.618.699.716.433.087l-.12-.254z" style="fill:#000;fill-opacity:1;fill-rule:nonzero;stroke:none"/></g><g id="g321" transform="translate(67.27 398.61)"><path id="path323" d="M0 0s.53-.577.024-1.408c-.241-.386-.653-.351-.796-.351" style="fill:#ffed00;fill-opacity:1;fill-rule:nonzero;stroke:none"/></g><g id="g325" transform="translate(67.39 398.72)"><path id="path327" d="m0 0 .096-.125C.483-.737.29-1.811-.483-2.006l-.24-.036h-.169v.337h.143l.17.024c.53.139.652.949.386 1.373l-.05.077z" style="fill:#000;fill-opacity:1;fill-rule:nonzero;stroke:none"/></g><g id="g329" transform="translate(84.508 368.03)"><path id="path331" d="M0 0c-.12 0-.746.377-1.18.685-.435.309-.242.481-.219 1.095.026.612-.047.596-.313.568-.24-.026-.965-.735-1.302-.547-.337.189-.144.266-.483.438-.336.163-1.036-.438-1.325-.709-.29-.27-.7-.103-.7-.103-.53.054 0 .671.17 1.446.143.779 1.182 1.596 2.122 2.465.915.864 1.035 1.413 1.085 2.14.071.725-.05.714-.483.464-.41-.247-.602-.567-.989-1.613-.336-1.043-1.302-1.179-2.941-1.384-1.615-.21-3.353-.156-3.664-.542-.315-.384-.219-.442-.675-.442-.436 0-.603.508-.772 1.137-.17.628.362 1.653 1.447 2.43 1.107.774 2.699.051 3.881.205 1.182.16 1.132.569 1.761 1.264.627.692 1.856 1.326 2.315 2.1.482.78.263 1.397.191 2.072-.071.667 0 .42-.603-.162-.603-.579-.264-.878-1.71-2.684-1.424-1.811-2.99-1.451-4.026-1.039-1.038.415-1.112 1.194-3.207 2.023-2.098.822-3.257-.32-4.486-1.314-1.205-.996-2.121-.238-2.724.059-.579.299-.339.369 0 .476.337.105.553-.107 1.205 0 .674.105.603.779 1.35 2.015.749 1.243 1.542 1.608 3.473 2.171 1.905.57 4.556-2.22 7.74-1.06 1.688.601 2.458 3.342 2.82 6.494.387 3.153-1.038 14.067-1.038 14.79 0 .723-.264 2.588-.264 2.588s-.266-.933-.386-1.161c-.12-.226-.29-1.479-.699-2.619-.433-1.134-2.458-3.489-2.458-3.489s-2.508-1.203-2.918 1.321c-.556 3.049.094 10.923 1.349 14.966.386 1.172.193 5.689.193 5.689l-.049 2.639s-.337-.678-.577-.826l-.676.1-.386.687s-.05-1.389-.143-3.12c-.1-1.883-.387-6.096-.603-6.847-.193-.744-1.039-1.359-1.688-1.42-.556-.05-1.11.07-1.399.525-.217.403-.146.66-.1.895.05.238.144.148.337.221.217.08.386.292.509 1.13.07.657-.292 8.115-.292 8.115l-.384-.702h-.629l-.41.668s-.386-14.302-.746-17.716c-.363-3.414-2.025-3.727-2.654-3.864-.602-.139-1.372.1-1.902.518-.532.419-.459.775-.459 1.173 0 .402.289.134.459.134.167 0 .723.535 1.059 1.151.339.622.387 1.78.434 2.35.05.57-.144 17.293-.144 17.293s0 .09-.24-.492c-.193-.502-.723-.419-.965-.168-.267.311-.843.909-.843.909s-.03-7.747-.03-9.166c0-1.416-.434-10.86-.674-14.227-.242-3.369-.626-5.632-1.521-8.114-.746-2.067-3.084-2.122-3.784-1.728-.699.393-1.012 1.314-1.012 1.888 0 .568.167.464.409.464.241 0 .434-.05.893.155.457.198.264.42.796 1.971.506 1.552.433 20.304.433 20.304l-.05 9.478-.243-.582c-.216-.353-.699-.358-.963-.09-.362.353-.315.911-.315.911s-.193-8.822-1.06-13.972c-.506-3.063-1.808-7.756-3.473-8.762-1.133-.699-2.098-.518-2.894-.15-.77.372-.939.996-1.276 1.549-.146.226.1.671.48.925.363.262.243-.202.556-.202.339 0 .603.1 1.036.723.41.617.82 2.689 1.182 4.547.386 1.853 1.182 12.851 1.182 13.958 0 1.954-.02 3.028-.02 3.468l-.41-.511c-.316-.259-.845-.07-1.086.215l-.313.715v-.57c0-.774-.435-9.618-2.218-11.89-1.399-1.797-2.847-1.658-3.763-1.091-.915.57-.965 1.246-1.085 1.809-.07.572-.02.362.12.678.122.308.292-.106.556-.261.266-.156.796.261 1.253.93.435.673 1.085 5.637 1.231 7.655.144 2.017.313 7.913.457 9.31.169 1.394.412 3.021.482 3.595.05.577-.169.231-.626-.186-.459-.414-.843-.172-.942.167-.167.502.05.664-.143.714-.193.05-1.013-3.443-1.303-4.196-.289-.754-.915-1.698-1.735-2.218-.819-.516-1.349-.44-2.314-.101-.942.341-1.326 1.551-1.326 2.121 0 .568 0 .951.577 1.041.556.09.315 0 .749 0 .456 0 1.059 1.285 1.375 2.039.313.753.409 3.767.456 5.298.05 1.528.147 3.876.483 5.635.313 1.761 6.148 14.598 6.148 14.598s-.433-.09-.699-.271c-.266-.186-1.013-.527-1.785-.828-.794-.304-1.809-.408-2.602-.104-.772.304-.965.932-1.278 1.827-.314.89.313 1.896.553 2.258.266.363.483.156.725 0 .24-.155 0-.412.167-.888.193-.473.41-.708 1.569-1.024 1.156-.318 2.411.139 3.397.723 1.015.584 1.954 1.912 1.761 2.793-.216.88-1.252 1.294-1.881 1.674-.65.38-1.206 1.27-1.276 2.17-.1.9-.219 1.59-.773 2.04-.553.44-.988.13-1.711-.15-.723-.28-1.206-.47-2.025-.43-.796 0-1.352.85-1.832 1.67-.509.83-.556 1.12-.339 1.3.216.18.193 0 .41 0 .216-.1.892-1.21 1.857-1.41.987-.21 1.736.88 3.207 1.41 1.496.53 2.555-.89 2.965-1.6.386-.71.24-2.45.626-3.07.363-.62.363-.62 1.375-1.19 1.036-.57 1.808-.61 2.388-.47.579.15.53.37.939.99.41.62 2.075 1.53 2.87 2.01.796.49 1.519.36 2.459.26.916-.1 1.182-1.08 1.398-2.27.193-1.19-.263-2.991-.746-4.291-.459-1.299-.965-2.945-1.062-4.596-.1-1.646 1.062-3.833 1.639-4.556.579-.725 1.158-1.074 2.218-1.026 1.085.04 1.399.301 2.291.442.869.139 2.121-.532 2.437-.761.337-.23.867-1.101 1.493-2.034.603-.928.146-2.362-.433-3.367-.554-1.003-1.086-1.596-1.326-2.037-.242-.445-.12-.577.193-.845.29-.266.483-.1.892-.146.41-.05.337-.21.241-.624-.07-.412-.483-.464-1.133-.647-.676-.187-1.568 0-2.218.494-.676.494-.796 1.241-.796 2.016 0 .777.65 1.921 1.206 2.844.579.928.289 1.293.05 2.018-.217.725-.963.473-2.169.384-1.182-.09-1.688.341-3.087 1.064-1.375.725-1.445 2.018-1.881 3.051-.41 1.034.05 1.293-.193 1.449-.264.155-.457-1.034-.674-1.352-.193-.318-.602-.532-.941-.977-.314-.443-.554-1.152-.554-1.681 0-.535.05-2.305.05-2.972 0-.666.267-.93.7-1.33.433-.398.169-.947.339-1.618.144-.671.24-.555.939-1.036.723-.478.58-1.293.916-1.757.339-.468.603-.362 1.229-.642.603-.28 1.039-.664 1.665-1.197.626-.534 1.156-.437 1.881-.437.697 0 2.122-.516 4.194-.316 2.098.198 1.785 0 2.557 0 .77 0 .41 0 .892-.179.481-.176.58-.664 1.11-.709.506-.04.843-.266 1.589-.09.749.179 1.425.709 1.761 1.375.363.666.58 1.375.989 1.686.386.308.916.619.363.751-.58.134-.725.221-1.112-.132-.409-.353-.626-.619-.723-.4-.072.221-.336 1.199.363 1.865.7.662 2.964 1.728 3.977 2.79 1.038 1.064 1.615 2.042 1.688 2.748.097.711.363 1.241-.12 1.288-.483.04-.626.353-.892-.05-.266-.398-.53-.62-.434-.132.074.49.267 1.373 1.279 1.773 1.013.398 1.206.177 1.542.885.314.711.361.916.314 1.229-.048.311-.363 2.369-1.496 2.452-.723.05-1.518.09-2.411.04-.868-.04-1.398-.2-2.074-.511-.65-.308-1.422-.744-1.903-1.099-.508-.354-.725-.429-.965-.386-.29.05-.483.202.047.426.532.221 1.232.982 1.808 1.424.58.443 1.328.848 1.978.937.676.09 2.484.243 3.16.226 1.639-.03 2.242 1.543 1.903 1.719-3.351 1.755-3.351 1.781-6.918 3.601-.363.188-1.229.713-1.545.8-.313.09-.313.406-.144.486l.41.1s1.566 2.02 2.845 3.41c1.182 1.26 1.905 1.87 3.473 2.51 1.182.47 1.375.38 1.928.54.53.15.966.52 1.448.52.457 0 .41.4 1.156-.1.773-.48 1.785-.97 2.145-.93.363 0 .942.29 1.135.24.193 0 .361-.1.241-.41-.146-.36-.723-.78-.723-.78s-.267-.47-.05-.52c.243 0 .627-.39 1.328-.48.723-.1 1.253-.1 1.686.1.459.19.989.49.989.49s.313-.1.313-.66c0-.57.243-1.02-.483-1.47-.722-.44-1.036-.5-1.349-.71-.289-.21-.41-.29-.143-.53.263-.24.313-.58.988-.75.674-.18 1.687-.936 1.736-1.202.05-.267.217-.467.53-.467.313 0 .819 0 1.085.104.29.1.723.311 1.086.05.36-.259.89-.975 1.205-1.552.314-.577.603-.723.916-.826.314-.104.384-.104-.05-.415-.41-.311-.53-.515-1.182-.259-.674.259-.94.412-1.3.57-.339.153-.509.139-.509-.269v-1.801c0-.464-.12-.826-.263-1.088-.146-.256-.506-.357-.506-.357s-.243-.808 0-1.672c.216-.864.722-1.846.769-2.362.03-.523.29-1.295.22-2.072-.1-.777-.121-1.017-.34-1.549-.193-.535-.723-.624-.723-.624s-.1-.394-.05-1.018c.05-.621.05-2.26-.05-2.79-.1-.534.05-1.288-.36-1.464-.387-.177-.603-.311-.603-.311s.216-2.056.216-2.378c0-.325.02-.504-.1-.726-.12-.221-.796-.621-.796-.621l.24-1.017s.337.249.773.501c.433.252.529.252 1.302.252.772 0 .483.198 2.554 0 2.075-.2 3.497.316 4.22.316.699 0 1.232-.1 1.858.437.626.533 1.059.917 1.686 1.197.628.28.894.174 1.231.642.313.464.193 1.279.893 1.757.699.481.795.365.939 1.036.17.671-.1 1.22.337 1.618.459.4.725.664.725 1.33 0 .667.05 2.437.05 2.972 0 .529-.264 1.238-.579 1.681-.313.445-.747.659-.94.977-.193.318-.409 1.507-.675 1.352-.241-.156.216-.415-.194-1.449-.409-1.033-.48-2.326-1.878-3.051-1.376-.723-1.905-1.154-3.087-1.064-1.182.09-1.929.341-2.171-.384-.241-.725-.507-1.09.05-2.018.579-.923 1.229-2.067 1.229-2.844 0-.775-.146-1.522-.796-2.016-.676-.494-1.568-.681-2.218-.494-.676.183-1.059.235-1.158.647-.09.414-.167.57.266.624.41.05.579-.12.892.146.29.268.41.4.193.845-.24.441-.772 1.034-1.351 2.037-.577 1.005-1.036 2.439-.41 3.367.603.933 1.135 1.804 1.472 2.034.336.229 1.568.9 2.46.761.867-.141 1.18-.4 2.266-.442 1.085-.05 1.664.301 2.217 1.026.58.723 1.762 2.91 1.665 4.556-.1 1.651-.602 3.297-1.085 4.596-.483 1.3-.942 3.101-.723 4.291.217 1.19.457 2.17 1.399 2.27.915.1 1.638.23 2.434-.26.796-.48 2.458-1.39 2.894-2.01.41-.62.337-.84.916-.99.577-.14 1.349-.1 2.385.47 1.039.57 1.015.57 1.399 1.19.363.62.219 2.36.603 3.07.41.71 1.495 2.13 2.966 1.6 1.472-.53 2.219-1.62 3.208-1.41.965.2 1.638 1.32 1.855 1.41.217.1.217.22.41 0 .219-.18.169-.47-.314-1.3-.506-.82-1.035-1.63-1.855-1.67-.796 0-1.279.15-2.025.43-.723.28-1.158.59-1.712.15-.556-.45-.676-1.14-.748-2.04-.1-.9-.65-1.79-1.277-2.17-.652-.38-1.688-.794-1.881-1.674-.217-.881.746-2.209 1.735-2.793.989-.584 2.268-1.041 3.4-.723 1.159.316 1.399.551 1.569 1.024.167.476-.07.733.167.888.266.156.459.363.723 0 .266-.362.869-1.368.579-2.258-.313-.895-.506-1.523-1.302-1.827-.77-.304-1.809-.2-2.579.104-.795.301-1.544.642-1.808.828-.266.184-.701.271-.701.271s5.837-12.837 6.15-14.598c.336-1.759.433-4.107.48-5.635.05-1.531.17-4.545.483-5.298.313-.754.916-2.039 1.351-2.039.434 0 .193.09.77 0 .556-.09.556-.473.556-1.041 0-.57-.386-1.78-1.326-2.121-.939-.339-1.495-.415-2.314.101-.796.52-1.449 1.464-1.738 2.218-.287.753-.41 1.863-.626 2.395-.193.532-.457 1.853-.674 1.801-.193-.05.09-.459-.219-.874-.337-.414-.819-.348-1.036 0-.313.53-.482.756-.433.179.05-.574.29-2.201.457-3.595.146-1.397.313-7.293.459-9.31.169-2.018.796-6.982 1.253-7.655.435-.669.965-1.086 1.229-.93.266.155.435.569.579.261.146-.316.193-.106.1-.678-.1-.563-.167-1.239-1.085-1.809-.916-.567-2.338-.706-3.76 1.091-1.759 2.272-2.195 11.116-2.195 11.89v.57l-.336-.715c-.241-.285-.773-.474-1.086-.215l-.41.511c0-.44-.02-1.514-.02-3.468 0-1.107.796-12.105 1.179-13.958.363-1.858.773-3.93 1.206-4.547.41-.624.676-.723 1.013-.723.339 0 .192.464.579.202.362-.254.602-.699.482-.925-.336-.553-.529-1.177-1.302-1.549-.772-.368-1.759-.549-2.894.15-1.662 1.006-2.941 5.699-3.47 8.762-.869 5.15-1.062 13.972-1.062 13.972s.05-.558-.29-.911c-.263-.266-.746-.261-.963.09l-.266.582-.05-9.478s-.07-18.752.457-20.304c.529-1.551.313-1.773.772-1.971.483-.204.676-.155.916-.155s.386.104.386-.464c0-.574-.313-1.495-1.012-1.888-.7-.394-3.014-.339-3.763 1.728-.89 2.482-1.302 4.745-1.542 8.114-.243 3.367-.653 12.811-.653 14.227 0 1.419-.05 9.166-.05 9.166l-.843-.909c-.216-.251-.748-.334-.941.168-.241.579-.241.492-.241.492s-.216-16.723-.169-17.293c.05-.57.1-1.728.433-2.35.339-.616.892-1.151 1.062-1.151.193 0 .483.268.483-.134 0-.398.05-.754-.483-1.173-.53-.421-1.302-.657-1.905-.518-.603.137-2.265.45-2.628 3.864-.386 3.414-.772 17.716-.772 17.716l-.41-.668h-.626l-.386.702s-.363-7.458-.264-8.115c.09-.838.287-1.054.481-1.13.192-.07.289.02.339-.221.07-.235.143-.492-.1-.895-.266-.452-.822-.579-1.399-.525-.652.06-1.495.676-1.688 1.42-.193.751-.483 4.964-.603 6.847-.1 1.731-.146 3.12-.146 3.12l-.36-.687-.699-.1c-.24.148-.58.826-.58.826l-.039-2.659s-.242-4.54.193-5.689c1.326-3.497 1.663-11.962 1.446-14.863-.386-2.783-2.868-1.462-2.868-1.462s-2.171 2.393-2.581 3.527c-.433 1.14-.602 2.393-.725 2.619-.12.228-.36 1.161-.36 1.161s-.266-1.865-.266-2.588c0-.723-1.446-11.637-1.06-14.79.387-3.152 1.133-5.893 2.821-6.494 3.207-1.16 5.835 1.63 7.74 1.06 1.928-.563 2.724-.928 3.473-2.171.77-1.236.673-1.91 1.349-2.015.676-.107.869.105 1.206 0 .337-.107.579-.177 0-.476-.579-.297-1.495-1.055-2.725-.059-1.228.994-2.387 2.136-4.485 1.314-2.098-.829-2.169-1.608-3.207-2.023-1.036-.412-2.578-.772-4.026 1.039-1.446 1.806-1.11 2.105-1.712 2.684-.603.582-.53.829-.603.162-.073-.675-.264-1.292.193-2.072.457-.774 1.712-1.408 2.315-2.1.626-.695.579-1.104 1.759-1.264 1.205-.154 2.797.569 3.882-.205 1.109-.777 1.615-1.802 1.448-2.43-.169-.629-.315-1.137-.772-1.137-.433 0-.363.058-.676.442-.313.386-2.048.332-3.663.542-1.616.205-2.581.341-2.942 1.384-.362 1.046-.555 1.366-.988 1.613-.436.25-.556.261-.483-.464.047-.727.167-1.276 1.109-2.14.916-.869 1.952-1.686 2.121-2.465.144-.775.58-1.43.05-1.481 0 0-.339-.137-.579.044-.073.054-.436.415-.846.686-.384.247-.649-.024-.963-.349-.362-.407-.868.57-1.375.57-.362 0-.336-.398-.266-.57.097-.365.17-.768-.167-1.1C.965.365 0 0 0 0" style="fill:#e30613;fill-opacity:1;fill-rule:nonzero;stroke:none"/></g><g id="g333" transform="translate(75.13 455.57)"><path id="path335" d="M0 0s1.06.72 1.519.947c2.387 1.146 7.016 1.492 7.499 1.579 1.832.325 2.315 1.717 2.435 2.529.12.813-.146 2.275-1.399 2.929-1.978 1.02-3.087 1.173-4.05 1.675-.026.014.82-.017.843.456.073.733-1.036 1.128-1.568.648-.36-.362 0-.728-.024-.716-.602.316-1.349.695-2.361 1.227-.436.214-1.738 1.029-1.905.984-6.534-2.001-5.811-5.931-5.475-7.156.82-2.915 3.834-2.531 3.93-2.484.123.045-.096.104-.579.587-1.013 1.014-.723 2.437-.071 2.663.65.223.867.157 1.785 0 .916-.156 1.3-.099 1.856.059.602.157 1.109.468 1.688.694.553.226.869.452 1.735.57.942.127 1.978.075 2.484 0 1.446-.21 2.075-1.879.747-2.654-.747-.435-1.543-.723-3.327-1.127-1.759-.408-2.725-.457-3.93-1.175C.337 1.337 0 0 0 0" style="fill:#ffed00;fill-opacity:1;fill-rule:nonzero;stroke:none"/></g><g id="g337" transform="translate(75.492 456.01)"><path id="path339" d="m0 0 .144.092c.313.212.723.452.939.567 1.229.587 3.16.97 4.846 1.22 1.688.247 3.136.363 3.377.407l.047-.329c-.241-.047-1.686-.163-3.375-.41C4.29 1.297 2.411.918 1.253.358a9.074 9.074 0 0 1-.942-.549l-.94-.635.194.673c.602 1.552 2.074 2.428 3.64 2.816 1.808.452 3.786.617 5.425 1.58 1.135.657.699 2.148-.674 2.345-.989.139-2.437.13-3.4-.238l-.749-.322c-1.422-.565-1.904-1.06-3.616-.763-.7.118-1.036.238-1.688.01-.481-.162-.867-1.405.122-2.385.24-.236.41-.37.506-.45l.12-.129-.096-.285c-.144-.059-3.304-.464-4.17 2.595-.363 1.28-.989 5.42 5.665 7.454l.143-.307c-6.411-1.965-5.808-5.891-5.472-7.059.65-2.291 2.701-2.437 3.448-2.401l-.387.341c-1.155 1.166-.915 3.155.846 3.092 1.083-.036 1.565-.429 2.821-.09.579.156 1.085.469 1.638.688l.773.325c.989.388 2.507.407 3.544.257 1.518-.22 2.338-2.078.795-2.97C7.134 2.972 5.133 2.8 3.278 2.336 1.999 2.02.843 1.406.144.257Z" style="fill:#000;fill-opacity:1;fill-rule:nonzero;stroke:none"/></g><g id="g341" transform="translate(132.01 481.61)"><path id="path343" d="M0 0h-94.974v-61.981c0-40.389 42.459-57.309 47.594-57.199C-41.689-118.96 0-99.66 0-61.981zm.65.666v-62.647c0-38.149-42.096-57.639-48.004-57.869-5.378-.11-48.272 17-48.272 57.869V.666Z" style="fill:#000;fill-opacity:1;fill-rule:nonzero;stroke:none"/></g><g id="g345" transform="translate(95.865 438.38)"><path id="path347" d="M0 0s6.68-.005 14.613 4.542c8.799 5.067 11.403 12.72 11.62 13.118.146-.328 2.244-5.072 3.014-7.422-.361-.327-5.183-4.217-11.163-6.633C6.317-1.13 0-.878 0-.878Z" style="fill:#ffed00;fill-opacity:1;fill-rule:nonzero;stroke:none"/></g><g id="g349" transform="translate(74.044 438.23)"><path id="path351" d="M0 0s-7.547.045-15.456 4.589c-8.825 5.067-11.427 12.715-11.646 13.118-.143-.327-2.242-5.051-3.037-7.398.386-.328 5.185-4.241 11.213-6.657C-7.161-1.083-.337-.909-.337-.909z" style="fill:#ffed00;fill-opacity:1;fill-rule:nonzero;stroke:none"/></g><g id="g353" transform="translate(81.421 465.1)"><path id="path355" d="M0 0c.026-.009.725.075.676.716-.073.69-1.279 1.182-1.783.565-.339-.433.047-.725.024-.723Z" style="fill:#000;fill-opacity:1;fill-rule:nonzero;stroke:none"/></g></g></svg>