<svg xmlns="http://www.w3.org/2000/svg" width="1000" height="600" version="1.0"><path d="M0 0h1000v600H0z" style="fill:#5b92e5;fill-opacity:1;fill-rule:nonzero;stroke:none;stroke-width:5;stroke-miterlimit:4;stroke-dasharray:none;stroke-opacity:1"/><path d="M724 300a224 224 0 0 1-7.633 57.975L500 300z" style="fill:#c00000;fill-opacity:1;fill-rule:nonzero;stroke:none;stroke-width:1.5;stroke-miterlimit:4;stroke-dasharray:none"/><path d="M716.367 357.975A224 224 0 0 1 693.99 412L500 300z" style="fill:#c00030;fill-opacity:1;fill-rule:nonzero;stroke:none;stroke-width:1.5;stroke-miterlimit:4;stroke-dasharray:none"/><path d="M693.99 412a224 224 0 0 1-35.598 46.392L500 300z" style="fill:#c00060;fill-opacity:1;fill-rule:nonzero;stroke:none;stroke-width:1.5;stroke-miterlimit:4;stroke-dasharray:none"/><path d="M658.392 458.392A224 224 0 0 1 612 493.99L500 300z" style="fill:#c00090;fill-opacity:1;fill-rule:nonzero;stroke:none;stroke-width:1.5;stroke-miterlimit:4;stroke-dasharray:none"/><path d="M612 493.99a224 224 0 0 1-54.025 22.377L500 300z" style="fill:#c000c0;fill-opacity:1;fill-rule:nonzero;stroke:none;stroke-width:1.5;stroke-miterlimit:4;stroke-dasharray:none"/><path d="M557.975 516.367A224 224 0 0 1 500 524V300z" style="fill:#9000c0;fill-opacity:1;fill-rule:nonzero;stroke:none;stroke-width:1.5;stroke-miterlimit:4;stroke-dasharray:none"/><path d="M500 524a224 224 0 0 1-57.975-7.633L500 300z" style="fill:#6000c0;fill-opacity:1;fill-rule:nonzero;stroke:none;stroke-width:1.5;stroke-miterlimit:4;stroke-dasharray:none"/><path d="M442.025 516.367A224 224 0 0 1 388 493.99L500 300z" style="fill:#3000c0;fill-opacity:1;fill-rule:nonzero;stroke:none;stroke-width:1.5;stroke-miterlimit:4;stroke-dasharray:none"/><path d="M388 493.99a224 224 0 0 1-46.392-35.598L500 300z" style="fill:#0000c0;fill-opacity:1;fill-rule:nonzero;stroke:none;stroke-width:1.5;stroke-miterlimit:4;stroke-dasharray:none"/><path d="M341.608 458.392A224 224 0 0 1 306.01 412L500 300z" style="fill:#0030c0;fill-opacity:1;fill-rule:nonzero;stroke:none;stroke-width:1.5;stroke-miterlimit:4;stroke-dasharray:none"/><path d="M306.01 412a224 224 0 0 1-22.377-54.025L500 300z" style="fill:#0060c0;fill-opacity:1;fill-rule:nonzero;stroke:none;stroke-width:1.5;stroke-miterlimit:4;stroke-dasharray:none"/><path d="M283.633 357.975A224 224 0 0 1 276 300h224z" style="fill:#0090c0;fill-opacity:1;fill-rule:nonzero;stroke:none;stroke-width:1.5;stroke-miterlimit:4;stroke-dasharray:none"/><path d="M276 300a224 224 0 0 1 7.633-57.975L500 300z" style="fill:#00c0c0;fill-opacity:1;fill-rule:nonzero;stroke:none;stroke-width:1.5;stroke-miterlimit:4;stroke-dasharray:none"/><path d="M283.633 242.025A224 224 0 0 1 306.01 188L500 300z" style="fill:#00c090;fill-opacity:1;fill-rule:nonzero;stroke:none;stroke-width:1.5;stroke-miterlimit:4;stroke-dasharray:none"/><path d="M306.01 188a224 224 0 0 1 35.598-46.392L500 300z" style="fill:#00c060;fill-opacity:1;fill-rule:nonzero;stroke:none;stroke-width:1.5;stroke-miterlimit:4;stroke-dasharray:none"/><path d="M341.608 141.608A224 224 0 0 1 388 106.01L500 300z" style="fill:#00c030;fill-opacity:1;fill-rule:nonzero;stroke:none;stroke-width:1.5;stroke-miterlimit:4;stroke-dasharray:none"/><path d="M388 106.01a224 224 0 0 1 54.025-22.377L500 300z" style="fill:#00c000;fill-opacity:1;fill-rule:nonzero;stroke:none;stroke-width:1.5;stroke-miterlimit:4;stroke-dasharray:none"/><path d="M442.025 83.633A224 224 0 0 1 500 76v224z" style="fill:#30c000;fill-opacity:1;fill-rule:nonzero;stroke:none;stroke-width:1.5;stroke-miterlimit:4;stroke-dasharray:none"/><path d="M500 76a224 224 0 0 1 57.975 7.633L500 300z" style="fill:#60c000;fill-opacity:1;fill-rule:nonzero;stroke:none;stroke-width:1.5;stroke-miterlimit:4;stroke-dasharray:none"/><path d="M557.975 83.633A224 224 0 0 1 612 106.01L500 300z" style="fill:#90c000;fill-opacity:1;fill-rule:nonzero;stroke:none;stroke-width:1.5;stroke-miterlimit:4;stroke-dasharray:none"/><path d="M612 106.01a224 224 0 0 1 46.392 35.598L500 300z" style="fill:#c0c000;fill-opacity:1;fill-rule:nonzero;stroke:none;stroke-width:1.5;stroke-miterlimit:4;stroke-dasharray:none"/><path d="M658.392 141.608A224 224 0 0 1 693.99 188L500 300z" style="fill:#c09000;fill-opacity:1;fill-rule:nonzero;stroke:none;stroke-width:1.5;stroke-miterlimit:4;stroke-dasharray:none"/><path d="M693.99 188a224 224 0 0 1 22.377 54.025L500 300z" style="fill:#c06000;fill-opacity:1;fill-rule:nonzero;stroke:none;stroke-width:1.5;stroke-miterlimit:4;stroke-dasharray:none"/><path d="M716.367 242.025A224 224 0 0 1 724 300H500z" style="fill:#c03000;fill-opacity:1;fill-rule:nonzero;stroke:none;stroke-width:1.5;stroke-miterlimit:4;stroke-dasharray:none"/><path d="M660 300a160 160 0 1 1-320 0 160 160 0 1 1 320 0z" style="fill:#5b92e5;fill-opacity:1;fill-rule:nonzero;stroke:none;stroke-width:1.5;stroke-miterlimit:4;stroke-dasharray:none"/><path d="M276 300h448M500 76v448" style="fill:none;fill-opacity:.75;fill-rule:evenodd;stroke:#fff;stroke-width:5;stroke-linecap:butt;stroke-linejoin:miter;stroke-miterlimit:4;stroke-dasharray:none;stroke-opacity:1"/><path d="M276 300h64" style="fill:none;fill-opacity:.75;fill-rule:evenodd;stroke:#fff;stroke-width:5;stroke-linecap:butt;stroke-linejoin:miter;stroke-miterlimit:4;stroke-dasharray:none;stroke-opacity:1" transform="rotate(-15 500 300)"/><path d="M276 300h64" style="fill:none;fill-opacity:.75;fill-rule:evenodd;stroke:#fff;stroke-width:5;stroke-linecap:butt;stroke-linejoin:miter;stroke-miterlimit:4;stroke-dasharray:none;stroke-opacity:1" transform="rotate(-45 500 300)"/><path d="M276 300h64" style="fill:none;fill-opacity:.75;fill-rule:evenodd;stroke:#fff;stroke-width:5;stroke-linecap:butt;stroke-linejoin:miter;stroke-miterlimit:4;stroke-dasharray:none;stroke-opacity:1" transform="rotate(-75 500 300)"/><path d="M276 300h64" style="fill:none;fill-opacity:.75;fill-rule:evenodd;stroke:#fff;stroke-width:5;stroke-linecap:butt;stroke-linejoin:miter;stroke-miterlimit:4;stroke-dasharray:none;stroke-opacity:1" transform="rotate(-105 500 300)"/><path d="M276 300h64" style="fill:none;fill-opacity:.75;fill-rule:evenodd;stroke:#fff;stroke-width:5;stroke-linecap:butt;stroke-linejoin:miter;stroke-miterlimit:4;stroke-dasharray:none;stroke-opacity:1" transform="rotate(-135 500 300)"/><path d="M276 300h64" style="fill:none;fill-opacity:.75;fill-rule:evenodd;stroke:#fff;stroke-width:5;stroke-linecap:butt;stroke-linejoin:miter;stroke-miterlimit:4;stroke-dasharray:none;stroke-opacity:1" transform="rotate(-165 500 300)"/><path d="M276 300h64" style="fill:none;fill-opacity:.75;fill-rule:evenodd;stroke:#fff;stroke-width:5;stroke-linecap:butt;stroke-linejoin:miter;stroke-miterlimit:4;stroke-dasharray:none;stroke-opacity:1" transform="rotate(165 500 300)"/><path d="M276 300h64" style="fill:none;fill-opacity:.75;fill-rule:evenodd;stroke:#fff;stroke-width:5;stroke-linecap:butt;stroke-linejoin:miter;stroke-miterlimit:4;stroke-dasharray:none;stroke-opacity:1" transform="rotate(135 500 300)"/><path d="M276 300h64" style="fill:none;fill-opacity:.75;fill-rule:evenodd;stroke:#fff;stroke-width:5;stroke-linecap:butt;stroke-linejoin:miter;stroke-miterlimit:4;stroke-dasharray:none;stroke-opacity:1" transform="rotate(105 500 300)"/><path d="M276 300h64" style="fill:none;fill-opacity:.75;fill-rule:evenodd;stroke:#fff;stroke-width:5;stroke-linecap:butt;stroke-linejoin:miter;stroke-miterlimit:4;stroke-dasharray:none;stroke-opacity:1" transform="rotate(75 500 300)"/><path d="M276 300h64" style="fill:none;fill-opacity:.75;fill-rule:evenodd;stroke:#fff;stroke-width:5;stroke-linecap:butt;stroke-linejoin:miter;stroke-miterlimit:4;stroke-dasharray:none;stroke-opacity:1" transform="rotate(45 500 300.002)"/><path d="M276 300h64" style="fill:none;fill-opacity:.75;fill-rule:evenodd;stroke:#fff;stroke-width:5;stroke-linecap:butt;stroke-linejoin:miter;stroke-miterlimit:4;stroke-dasharray:none;stroke-opacity:1" transform="rotate(15 500 300.008)"/><path d="M612 106.01c-32 55.426-.002 0-32 55.426-19.268 33.377-40.952 50.505-80 50.505s-60.732-17.128-80-50.505c-31.998-55.426 0 0-32-55.425M693.99 188l-55.426 32C598.668 243.034 548.948 257 500 257c-48.948 0-98.668-13.965-138.565-37l-55.425-32" style="fill:none;fill-opacity:.75;fill-rule:evenodd;stroke:#fff;stroke-width:5;stroke-linecap:butt;stroke-linejoin:miter;stroke-miterlimit:4;stroke-opacity:1"/><path d="M612 106.01c-32 55.426-.002 0-32 55.426-19.268 33.377-40.952 50.505-80 50.505s-60.732-17.128-80-50.505c-31.998-55.426 0 0-32-55.425M693.99 188l-55.426 32C598.668 243.034 548.948 257 500 257c-48.948 0-98.668-13.965-138.565-37l-55.425-32" style="fill:none;fill-opacity:.75;fill-rule:evenodd;stroke:#fff;stroke-width:5;stroke-linecap:butt;stroke-linejoin:miter;stroke-miterlimit:4;stroke-opacity:1" transform="matrix(1 0 0 -1 0 600)"/></svg>