<svg xmlns="http://www.w3.org/2000/svg" width="900" height="600" version="1.0"><rect width="900" height="600" ry="2.749" style="opacity:1;fill:#002490;fill-opacity:1;fill-rule:nonzero;stroke:none;stroke-width:.16539913;stroke-linecap:round;stroke-linejoin:bevel;stroke-miterlimit:4;stroke-dasharray:none;stroke-dashoffset:0;stroke-opacity:1"/><g style="fill:#fff"><g style="fill:#fff"><path d="M0 0s105.822-70.791 232.652-67.639c0 0 95.409-.722 46.635 64.209 0 0 45.609-29.878 21.336-58.328 0 0-12.801-16.096-45.639-16.422 0 0-135.214-9.581-254.984 78.18" style="fill:#fff;fill-opacity:1;fill-rule:nonzero;stroke:none" transform="matrix(1.29319 0 0 -1.29319 248.13 150)"/></g><g style="fill:#fff"><path d="M0 0s117.535-78.624 258.399-75.122c0 0 105.965-.805 51.796 71.313 0 0 50.657-33.185 23.698-64.782 0 0-14.219-17.876-50.69-18.238 0 0-150.179-10.643-283.203 86.829" style="fill:#fff;fill-opacity:1;fill-rule:nonzero;stroke:none" transform="matrix(1.29319 0 0 -1.29319 242.742 245.688)"/></g><g style="fill:#fff"><path d="M0 0s95.632-63.973 210.249-61.124c0 0 86.22-.655 42.146 58.025 0 0 41.215-27.002 19.28-52.711 0 0-11.57-14.544-41.244-14.84 0 0-122.196-8.659-230.431 70.65" style="fill:#fff;fill-opacity:1;fill-rule:nonzero;stroke:none" transform="matrix(1.29319 0 0 -1.29319 273.467 309.12)"/></g><g style="fill:#fff"><path d="M0 0s63.708-42.618 140.063-40.72c0 0 57.437-.437 28.074 38.655 0 0 27.458-17.987 12.845-35.115 0 0-7.706-9.688-27.474-9.885 0 0-81.405-5.769-153.508 47.065" style="fill:#fff;fill-opacity:1;fill-rule:nonzero;stroke:none" transform="matrix(1.29319 0 0 -1.29319 330.684 367.2)"/></g><g style="fill:#fff"><path d="M0 0s148.081-99.058 325.56-94.646c0 0 133.505-1.014 65.258 89.848 0 0 63.823-41.811 29.854-81.62 0 0-17.912-22.523-63.861-22.98 0 0-189.214-13.406-356.811 109.398" style="fill:#fff;fill-opacity:1;fill-rule:nonzero;stroke:none" transform="matrix(1.29319 0 0 -1.29319 171.557 172.081)"/></g><g style="fill:#fff"><path d="M0 0c-.47-2.74-9.097-3.403-19.268-1.482-10.17 1.923-18.038 5.703-17.567 8.445.469 2.74 9.096 3.402 19.268 1.481C-7.396 6.521.471 2.742 0 0" style="fill:#fff;fill-opacity:1;fill-rule:nonzero;stroke:none" transform="matrix(1.29319 0 0 -1.29319 456.46 446.663)"/></g></g></svg>