<svg xmlns="http://www.w3.org/2000/svg" viewBox="0 0 640 480"><path d="M-162.154 0H797.85v52.8h-960.004z" style="fill:#d00;fill-opacity:1;stroke-width:.800004"/><path d="M-162.154 427.202H797.85v52.8h-960.004z" style="fill:#fff;stroke-width:.800004"/><path d="M-162.154 48H797.85v384.002h-960.004z" style="fill:#003893;fill-opacity:1;stroke-width:.800004"/><path d="m320 71.232 17.6 56h57.6l-46.4 33.6 17.6 54.401-46.4-33.6-46.4 33.6 17.6-54.4-46.4-33.6h57.6zM459.178 236.855l-28.8 49.6 38.4 43.2-56-12.8-28.8 51.2-6.4-57.6-56-12.8 52.8-24-6.4-56 38.4 41.6zM181.26 236.987l52.8 22.4 38.4-43.2-4.8 57.6 52.8 24-57.6 12.8-4.8 56-30.4-49.6-56.001 12.8 38.4-43.2z" style="fill:#ffe60c;fill-opacity:1;stroke:none;stroke-width:.800004"/></svg>