<svg xmlns="http://www.w3.org/2000/svg" width="750" height="500"><path fill="#fff" fill-rule="evenodd" d="M0 0h750v500H0z"/><g aria-label="DE"><path d="M190.312 458.767c1.35 0 2.053-.059 2.464-1.35.704-2.053.88-6.864.88-8.741 0-2.816 0-12.73-7.099-18.773-2.23-1.936-6.688-4.694-14.139-4.694-9.093 0-13.904 3.872-15.957 6.043-5.104 5.456-5.28 13.024-5.28 16.075 0 3.93.587 8.858 1.232 10.325.293.821.763 1.115 1.936 1.115zm-32.736-10.15c-.118-.704-.118-1.173-.118-1.701 0-5.867 4.166-11.03 14.784-11.03 8.155 0 15.078 3.11 14.667 12.731zM175.117 395.13c0-1.055-.117-1.525-1.35-1.525h-3.989c-1.232-.058-1.29.587-1.29 1.467v9.915h-10.032v-11.968c0-1.056-.176-1.643-1.526-1.643h-3.989c-1.232 0-1.29.645-1.29 1.643v20.416c.058 1.349.527 1.642 1.76 1.701h38.309c1.29 0 1.408-.645 1.408-1.643V392.96c0-1.232-.294-1.584-1.467-1.584h-3.99c-1.29 0-1.466.587-1.466 1.525v12.086h-11.088z"/></g><g aria-label="MAYOTTE"><path d="M254.383 456.395c0 1.632.384 2.4 2.4 2.4h10.272c1.824 0 2.592-.288 2.592-2.208v-63.456c0-1.92-.864-2.112-2.304-2.112h-12.096c-1.824 0-2.304.384-2.976 2.208l-14.784 37.728-14.88-37.632c-.768-1.92-1.152-2.304-3.264-2.304h-12.096c-1.824 0-2.208.864-2.208 2.208v63.264c0 1.632.48 2.304 2.4 2.304h7.392c1.728 0 2.496-.384 2.496-2.496v-39.936l15.552 40.608c.864 2.016 1.632 2.112 3.264 2.112 1.344 0 1.824-.288 2.496-2.016l15.744-40.704zM318.421 456.78c.576 1.727 1.152 2.015 2.784 2.015h12.672c1.056-.096 2.208-.096 2.208-1.632 0-.48-.096-.864-.288-1.344l-21.984-62.88c-.576-1.632-.96-2.016-2.784-2.016h-7.488c-1.728 0-2.208.384-2.784 2.016l-22.176 62.688c-.384 1.056-.48 1.344-.48 1.728 0 1.152.96 1.44 1.92 1.44h8.352c1.728 0 2.304-.48 2.784-2.016l4.416-13.632h18.336zm-20.064-22.657 6.24-21.312 6.432 21.312zM383.131 394.475c.576-1.152.768-1.632.768-2.208 0-1.248-1.152-1.248-1.824-1.248h-9.12c-1.728 0-2.112.48-2.976 2.208l-9.984 21.024-9.312-21.12c-.864-1.92-1.152-2.112-2.976-2.112h-13.536c-.768 0-2.208 0-2.208 1.536 0 .576.192.864.672 1.92l16.608 33.984v28.32c0 1.824.864 2.016 2.208 2.016h12.672c1.728 0 2.208-.48 2.208-2.304v-27.36zM445.441 423.275c-.768-19.68-11.616-33.984-29.28-33.984-18.528 0-29.952 14.784-29.952 35.424 0 21.888 12.192 35.712 29.568 35.712 17.28 0 30.624-13.92 29.664-37.152zm-17.088.096c0 2.4 0 5.472-.48 8.928-.192 2.4-1.152 10.56-6.144 14.304-1.44 1.152-3.456 2.016-5.664 2.016-4.512 0-7.872-3.072-9.792-7.2-1.344-2.688-1.92-5.568-2.304-8.544a72.675 72.675 0 0 1-.576-9.12c0-4.704.096-23.616 12.48-23.616 8.352 0 12.288 9.408 12.48 23.232zM491.431 402.06c2.112 0 2.208-1.153 2.208-2.4v-6.529c0-1.92-1.056-2.112-2.304-2.112h-41.376c-1.92 0-2.208.96-2.208 2.304v6.336c0 2.016.672 2.4 2.4 2.4h12.192v54.144c0 2.016.576 2.592 2.592 2.592h11.808c1.92 0 2.304-.864 2.304-2.496v-54.24zM543.18 402.06c2.113 0 2.209-1.153 2.209-2.4v-6.529c0-1.92-1.056-2.112-2.304-2.112h-41.376c-1.92 0-2.208.96-2.208 2.304v6.336c0 2.016.672 2.4 2.4 2.4h12.192v54.144c0 2.016.576 2.592 2.592 2.592h11.808c1.92 0 2.304-.864 2.304-2.496v-54.24zM586.579 429.323c1.728 0 2.496-.192 2.496-2.208v-6.528c.096-2.016-.96-2.112-2.4-2.112H570.45V402.06h19.584c1.728 0 2.688-.288 2.688-2.496v-6.528c0-2.016-1.056-2.112-2.688-2.112h-33.408c-2.208.096-2.688.864-2.784 2.88v62.688c0 2.112 1.056 2.304 2.688 2.304h33.6c2.016 0 2.592-.48 2.592-2.4v-6.528c0-2.112-.96-2.4-2.496-2.4H570.45v-18.144z"/></g><path fill="none" d="M225.712 111.032c-1.462.89-2.83 1.526-3.084 1.431s-.54-.859-.668-1.781c-.127-.858-.413-1.844-.636-2.13-.635-.89-1.24-.159-2.416 2.83-.54 1.431-1.145 2.798-1.304 2.989-.572.699-1.335.445-2.257-.7-.922-1.176-2.321-1.526-2.639-.668-.095.255-.032 1.272.159 2.29.572 2.988-.35 3.434-2.957 1.43-2.257-1.748-3.116-2.098-3.974-1.653-.891.477-.859 1.145.286 3.784.985 2.289 1.049 3.942.095 2.607-.254-.35-1.431-1.145-2.639-1.717a103.368 103.368 0 0 1-4.197-2.226c-1.113-.604-2.639-1.335-3.402-1.621-1.399-.477-8.966-1.59-9.602-1.367-.191.063.858.922 2.289 1.939 3.148 2.162 9.189 7.695 9.189 8.394 0 .413-.35.477-2.544.286-2.893-.254-2.829-.35-2.194 2.671.223 1.049.255 1.749.064 1.94-.191.19-1.176.127-2.671-.191-1.303-.255-2.448-.477-2.575-.477-.477 0-.255 2.512.413 4.642.636 2.003.636 2.194.127 2.544-.636.477-1.367.254-6.2-1.972-2.861-1.335-3.593-1.558-5.151-1.494-.985.032-2.162.254-2.639.509l-.89.445 2.067 2.225c2.448 2.671 4.928 6.232 5.31 7.663.699 2.385-1.654 2.798-9.571 1.781-4.324-.573-7.249-.477-8.68.286-1.113.572-4.928 4.133-4.928 4.61 0 .159 1.844.382 4.101.477 4.738.191 8.172 1.017 11.002 2.575 2.67 1.463 2.607 1.781-.287 1.781-2.416 0-3.815.382-5.087 1.399-.604.477-.604.509 0 1.176.922 1.018 2.703 1.813 4.897 2.162 1.113.191 2.066.382 2.13.477.064.064-.922.287-2.194.477-3.307.541-7.949 1.908-10.206 3.053-2.035 1.017-2.131 1.144-2.544 4.101l-.191 1.209 1.018-.223c1.59-.35 9.793-.541 11.128-.254 2.035.445 1.463.89-1.685 1.271-3.943.477-6.168.922-7.217 1.463l-.827.445 1.717.827c.954.477 3.148 1.144 4.896 1.494 7.44 1.526 8.362 2.385 2.131 2.067-5.119-.254-7.154-.064-6.995.731.159.89 3.306 2.417 6.581 3.243 2.003.509 1.24.891-2.035 1.018-2.957.095-5.182.858-6.104 2.098-.732.922-.287 5.119.572 5.66.191.095.572-.032.858-.286.287-.287 1.59-.986 2.894-1.622 2.448-1.176 2.48-1.176 5.977-.636 1.495.223 2.798 1.463 3.911 3.752.541 1.081 1.653 2.798 2.48 3.815a203.02 203.02 0 0 1 2.099 2.608c.604.731.604.763-.064 2.098-.35.763-.731 1.622-.827 1.908-.572 1.971-10.301 1.304-17.964-1.24-3.052-1.018-7.567-3.243-9.602-4.738l-1.558-1.144v1.24c0 3.052 2.385 8.235 4.769 10.365l1.526 1.367-1.558 2.989c-1.939 3.72-2.066 5.151-.572 6.645.541.573.922 1.208.795 1.463-.095.254-.922.89-1.844 1.399-2.862 1.621-2.735 1.462-1.558 2.066.572.318 2.13.636 3.402.732 1.399.127 2.512.35 2.703.604.794.954-.859 3.052-3.721 4.769-.476.286-.127.414 1.94.731 1.399.191 3.434.382 4.515.414l1.971.063-.667 1.209c-.795 1.43-2.29 2.988-3.53 3.751l-.89.573.986.127c.54.095 1.653.032 2.48-.095 2.384-.382 5.278-.318 5.914.127.985.731.159 2.384-2.321 4.769l-2.163 2.099 1.399.222c2.639.382 5.978-.032 7.759-.954.922-.445 1.716-.795 1.78-.731.445.477-1.272 5.087-2.385 6.359-.254.286-.381.636-.254.795.127.127 1.844.222 3.784.222 2.766 0 3.815-.127 4.642-.572.604-.286 1.144-.54 1.208-.54.032 0 .095.667.095 1.494 0 1.081-.222 1.749-.826 2.544l-.795 1.049h.89c2.067-.032 6.963-1.622 8.712-2.893 1.145-.795 1.24-.764 1.24.413-.032 1.335-.731 3.275-1.463 4.101-.667.764-.508.764 2.608-.031 2.798-.7 5.278-1.685 6.55-2.576 1.176-.858 1.303-.763 1.049.573-.286 1.589-.891 2.511-2.099 3.147-.54.255-.922.573-.826.636.254.286 6.963-.763 8.489-1.303.763-.255 1.653-.732 1.971-1.018.541-.477.573-.477.573.286 0 .445-.35 1.463-.795 2.29-.445.826-.795 1.558-.795 1.653 0 .254 1.749-.286 3.783-1.177 1.113-.508 2.417-.922 2.894-.922 1.081 0 2.353.986 3.338 2.544.541.859 1.368 1.494 2.957 2.289l2.226 1.113.127-1.303c.159-1.177 5.405-14.976 5.914-15.517.223-.222 6.614 4.166 12.782 8.744 3.72 2.766 12.273 11.256 14.785 14.69 6.899 9.411 9.157 15.897 9.188 26.39 0 5.786-.381 8.871-1.716 14.435-2.926 11.891-9.73 23.21-17.456 28.933-5.087 3.784-11.097 5.056-22.289 4.706-13.544-.413-22.002-3.243-28.266-9.379-4.642-4.579-7.694-10.556-8.966-17.551-.191-1.145-.35-3.943-.35-6.201 0-7.758 1.749-13.131 5.564-17.233 3.307-3.529 6.836-5.468 11.351-6.168 4.293-.668 9.189.763 12.21 3.529 2.098 1.94 2.194 2.862.54 6.169-1.462 2.957-1.589 3.72-.667 4.642.858.858 2.639.826 4.674-.159 2.957-1.367 4.419-4.706 4.165-9.348-.255-4.165-2.194-6.868-6.582-9.093-4.26-2.131-6.423-2.544-13.068-2.512-5.5 0-6.073.063-8.743.89-5.342 1.622-8.585 3.784-11.097 7.281-5.723 8.076-8.871 21.939-7.027 30.905 1.431 6.836 5.246 14.244 10.556 20.349 8.967 10.365 20.858 15.103 37.932 15.103 12.655 0 21.621-2.417 30.524-8.203 9.92-6.423 16.342-14.753 21.779-28.203 1.463-3.688 2.035-5.977 2.29-9.157.095-1.558.349-2.83.635-3.147 1.272-1.463 1.717-5.628.923-8.331l-.477-1.526.985-.858c1.749-1.558 1.558-4.929-.413-7.186l-.922-1.049 1.049-1.05c1.367-1.399 1.971-4.038 1.717-7.535-.159-2.417-1.24-5.787-1.844-5.787-.636 0-.223-.858.699-1.399 1.431-.858 2.194-2.289 2.194-4.197 0-3.847-1.589-9.761-2.766-10.206-.477-.191-.572-1.049-.127-1.049.731 0 1.717-2.989 1.876-5.692.191-3.402-.477-6.009-1.876-7.408l-.922-.954.986-2.035c.858-1.749.985-2.257.826-3.72-.35-3.37-4.07-9.602-6.868-11.446-1.017-.668-1.303-1.05-1.303-1.781 0-2.13-1.749-5.278-4.674-8.426-3.052-3.243-4.038-4.705-4.674-6.995-.445-1.462-.922-2.225-2.257-3.561-1.558-1.558-4.865-3.529-6.836-4.038-.414-.095-.636-.413-.636-.922-.032-2.035-2.544-5.437-4.77-6.454-1.112-.509-1.271-.7-1.271-1.622 0-1.303-1.082-2.607-3.625-4.356-2.417-1.621-6.232-2.607-12.114-3.116-12.369-1.017-17.869-3.084-23.688-8.87-3.529-3.498-4.896-5.851-6.168-10.493-1.049-3.847-1.113-7.44-.159-10.238.668-1.971 2.798-5.978 3.18-5.978.127 0-.064 1.05-.414 2.29-.826 3.02-.922 7.98-.159 10.397 1.05 3.37 3.116 5.882 6.01 7.376 1.971 1.018 2.925 1.24 6.295 1.558 3.498.318 5.85 1.018 6.995 2.067 1.717 1.59 5.564 1.781 9.252.509.954-.35 2.735-.732 3.975-.827l2.289-.223 2.957 2.067c3.052 2.099 16.248 9.539 18.569 10.461 4.228 1.685 8.998.509 11.001-2.703 1.621-2.575.159-4.992-6.741-11.224-5.596-5.023-6.931-6.74-7.663-9.665-.317-1.24-1.335-3.943-2.321-5.978-2.321-4.992-2.352-5.85-.159-8.139.859-.923 1.813-2.194 2.067-2.862.509-1.176.731-3.847.382-4.229-.191-.159-2.321.286-3.434.7-.35.127-.414-.35-.318-2.544.063-1.717-.064-3.084-.286-3.688l-.414-.954-1.144 1.113c-1.177 1.144-2.035 1.431-2.417.826-.095-.159-.318-1.081-.477-2.034-.318-2.004-1.589-5.12-1.907-4.738-.128.127-.414.795-.636 1.431-.191.668-.477 1.208-.636 1.208-.127 0-.35-.763-.477-1.685-.35-2.734-.731-3.879-1.59-4.674-.699-.668-.89-.7-1.113-.318-.159.254-.318.827-.318 1.272 0 1.399-.89 4.229-2.066 6.613-2.29 4.579-4.452 4.134-8.903-1.748-2.544-3.371-2.925-4.42-2.226-5.946 1.685-3.561 8.744-8.362 15.389-10.429 1.24-.382 2.258-.795 2.258-.922 0-.604-1.59-2.035-2.989-2.703-1.59-.731-3.434-.89-6.073-.54-4.515.636-7.917 1.876-12.464 4.61z"/><path d="M240.77 106.117c-1.791.028-3.7.453-5.399.688-4.53.627-10.038 4.084-12.582 5.845-1.175.832-.464-5.323-2.207-4.648-1.743.674-2.458 6.044-3.56 6.785s-2.272-3.448-4.32-2.228c-1.437.855 1.26 5.07-.55 5.265-.947 1.095-5.293-5.678-7.234-1.978-.368 1.622 2.339 4.725 1.754 5.775-.18.227-.191.272-.246.365.124-.291.18-.793-.582-1.076-.691-.725-1.782-.91-2.932-1.51-2.299-1.199-6.635-4.175-9.375-4.175l-8.879-1.114 5.985 4.037 4.236 3.797c1.646 1.475 3.262 3.032 2.586 3.178s-3.747-.223-5.117-.223c.303 2.701.845 3.488.845 4.662 0 .98-4.129-.587-5.695-.587.304 2.383-.263 2.37.52 4.523.979 2.544 1.147 3.835-1.985 2.465-1.957-.783-5.196-2.742-7.74-3.33l-2.672.072-2.447.97 3.857 4.245c6.067 7.634 5.48 8.809-4.111 7.635-6.067-.98-10.115-1.028-11.877 1.125-1.076 1.174-2.848 2.276-3.8 4.158 2.074.084 6.38.098 9.22.588 3.229.587 6.104 1.818 7.611 2.904 1.506 1.086.849.676-1.402.676-1.175 0-1.679-.048-3.108.258-1.43.343-1.898 1.248-3.087 1.963 2.942 3.098 5.044 2.736 8.002 3.207-2.522.55-3.098.47-4.87.681-1.849.59-3.278.966-4.898 1.541-1.7.495-3.297 1.175-4.838 2.44-.437 2.66-.783 4.227-.352 4.426.431.2 1.72-.411 3.122-.834 2.07-.022 11.866-.199 9.847.923l-4.885.487c-2.143.79-3.52.084-6.132 1.763 3.54 2.628 7.041 2.408 8.611 2.971 2.394.303 5.642 1.65 4.516 1.602-1.37-.05-11.08-.99-11.364.388-.23 1.114 1.473 1.635 3.229 2.51 1.974.984 3.01.952 4.904 1.498-1.61.682-2.58.163-4.408.227s-5.069 1.586-5.344 2.38c-.639 1.85.012 5.736 1.274 6.34 1.34-1.938 4.246-2.63 5.736-3.427 2.808.029 4.925.178 6.603 2.209.897 2.592 2.449 5.225 5.33 8.154 1.54 1.565-.587 1.402-.587 3.36s-4.618 2.06-9.936 1.255c-5.317-.804-11.337-2.914-14.14-4.59-1.653-.82-2.68-1.48-5.333-3.525-.269 2.72.538 5.882 2.397 9.209.88 1.566 2.685 3.903 3.92 3.992-.9 1.382-.964 2.087-1.738 3.418-.935 1.665-3.266 5.173.746 7.486-1.286 1.615-3.422 2.308-4.828 3.073 1.692 1.877 3.955 1.603 4.64 1.603 1.566 0 3.251-.108 2.664 1.654-.392.881-1.533 2.221-4.656 3.934 2.982.721 6.808 1.152 9.18 1.014-1.027 1.877-2.512 4.242-5.2 5.304 3.177 1.217 4.668-.164 6.82-.164 3.133 0 3.76.588 2.829 2.387-.798 1.431-2.357 2.715-4.928 4.996 3.282.545 8.305 1.159 11.373-1.693a11.686 11.686 0 0 1-3.18 7.344c3.785.67 8.015.924 10.305-.873.04 2.936.005 2.904-2.035 5.277 2.33.15 8.61-1.268 11.188-3.805-.257 2.494.19 3.335-2.43 6.074 5.084-.914 9.48-2.155 11.242-4.148-.343 2.215.533 2.73-4.07 5.363 5.883-.622 10.42-.871 12.004-2.89.12 2.37-.91 2.438-1.928 4.816 2.954-.402 5.92-2.149 6.408-2.295 2.153-.588 3.598 1.388 4.381 3.149 1.754 1.653 2.672 1.371 5.215 2.923-.396-2.659 1.072-4.997 2.736-9.205l3.131-8.023 8.611 6.066c13.701 9.2 24.273 22.509 26.817 33.274 4.697 19.573-4.893 45.605-20.16 55.195-7.83 4.893-29.948 4.501-40.909-.979-13.114-6.459-19.572-22.312-15.46-37.97 3.326-12.135 17.419-18.204 26.814-11.354 3.132 2.545 3.327 3.525 1.369 6.852-2.74 4.306-.782 6.654 4.111 4.892 3.72-1.37 5.676-7.437 4.11-12.525-3.132-9.983-24.857-12.723-36.014-4.502-7.046 5.284-12.527 21.921-10.766 33.273 1.958 12.723 11.55 25.837 23.293 31.905 13.31 6.85 36.6 7.045 50.301.39 6.263-3.082 11.585-6.973 16.01-11.78 4.426-4.809 7.956-10.532 10.635-17.284 1.339-3.376 3.87-7.909 3.386-14.299 2.212-1.22 2.756-7.446 1.022-10.613 3.096-.64 3.183-6.844-.408-9.19 1.054-.209 1.808-1.137 2.3-2.44.494-1.3.723-2.972.725-4.667.003-1.695-.223-3.413-.64-4.803-.419-1.39-1.027-2.455-1.795-2.842 2.88-1.436 3.467-3.06 3.445-4.875-.504-5.394-1.011-9.355-3.373-10.978 3.21-1.65 3.387-13.038-.635-14.53 3.841-4.748 1.238-8.7-.326-11.874-1.845-2.487-2.934-4.774-5.967-6.34.337-2.27-1.478-6.383-4.219-8.928-2.74-2.544-4.892-5.48-4.892-6.459 0-.978-1.155-6.092-9.875-8.701-.051-3.021-2.488-6.703-6.04-7.65.949-3.112-3.722-5.595-5.911-6.891-3.424-.686-6.458-1.713-10.079-1.81-19.182-.196-27.869-10.956-29.738-19.36-1.552-6.021-1.297-9.166 3.024-15.99-1.094 3.71-1.54 5.79-1.422 9.086.307 7.58 5.431 12.757 13.261 12.757 2.935 0 6.067.98 6.85 2.155s3.915 1.565 7.83.978c2.56-1.276 4.823-1.55 7.797-1.51 1.851 1.165 3.849 2.978 6.883 4.641a864.75 864.75 0 0 0 12.723 7.045c5.48 2.936 11.546 1.566 13.503-3.13.783-2.154-1.173-5.09-6.654-9.788-4.5-3.718-8.025-7.633-8.025-8.807 0-1.37-1.175-4.696-2.74-7.632-2.349-4.501-2.349-5.676 0-7.633 1.565-1.174 1.786-2.496 2.501-4.031.238-1.073.26-2.491-.046-3.67-.982.092-3.007.78-3.993 1.101.504-2.24.684-5.195-.576-7.56-1.458 1.289-2.29 2.611-2.974 2.611-1.174 0-.835-2.858-1.227-3.934-.391-1.077-.727-1.823-1.904-4.091-.441 2.053-.883 3.333-1.354 3.619.006-1.017-.496-4.914-1.06-5.795-.645-1.008-1.715-1.45-2.01-1.666-.511 1-.176 2.865-1.252 5.8-2.545 7.438-4.895 7.829-9.592 1.37-3.719-4.698-3.718-5.09-.39-8.809 1.957-1.957 6.067-4.891 9.199-6.066 3.13-1.37 3.605-1.451 6.613-2.328-.607-1.876-2.713-3.414-4.947-3.817a9.051 9.051 0 0 0-1.74-.125zm-.448 1.705c.625.006 1.117.046 1.395.098 2.125.396 2.839 1.076 3.326 1.186-1.787.477-2.184.776-5.098 1.834-6.876 2.62-12.681 9.588-12.681 11.35.159 1.696 1.836 4.19 4.576 7.517 2.74 3.23 3.696 4.04 5.678 3.966 2.339-.709 2.843-1.349 4.921-4.279.315-1.194 1.362-4.495 1.42-6.353.336.645.954 7.578.172 9.738.92-.702 2.947-3.627 3.348-4.357.243 1.336.607 2.165.9 5.003 0 1.37 1.177 1.957 2.155 1.37.588-.293 1.989-2.23 2.45-3.079.185.82-.493 4.156-.493 5.036 0 1.762.978 2.546 1.957 1.959.81-.463 1.399-.68 2.172-.827.177 1.166-1.487 4.35-3.15 5.72-1.762 1.565-2.349 3.326-1.175 4.696.783 1.175 2.74 5.481 3.914 9.395 1.566 4.698 4.698 8.808 9.2 11.352 7.437 4.698 8.024 6.264 3.718 9.787-2.544 2.153-4.11 1.566-9.394-3.131-3.524-3.327-4.698-3.72-2.545-1.371 2.153 2.544 3.132 4.502 2.545 4.502-1.175 0-12.528-7.047-20.944-13.114-2.545-1.957-6.459-4.11-8.416-5.09-2.74-.978-3.523-2.74-2.74-6.458.587-3.132.196-4.305-.978-3.131-3.328 3.328-.782 9.003 5.285 11.94l5.418 3.671-1.297.277-3.742 1.104c-2.3.677-4.686 1.013-7.426-.553-1.957-1.37-5.677-2.348-8.22-2.348-10.766 0-14.483-13.113-6.85-24.074l4.109-6.263-7.047 6.656c-8.416 8.025-9.589 16.832-3.326 27.01 5.089 8.416 11.155 12.133 22.703 13.503 15.463 1.762 19.034 3.658 19.828 6.313 0 1.566-6.04 4.574-9.258 6.41-3.24 1.578-9.79 2.781-9.138 4.008.526.989 9.32-1.693 12.844-3.748 6.92-4.823 11.435-4.174 11.435.719 0 1.37-2.026 3.914-5.353 5.675-3.132 1.762-9.21 4.479-9.21 4.87 0 .587 6.663-1.737 10.97-3.694l5.886-3.12 5.272 2.165c3.523 3.915 3.521 5.065-.198 7.805-1.957 1.566-10.857 3.768-12.812 5.785 5.036-.842 9.68-2.066 12.617-3.24 4.306-1.958 5.676-1.762 9.004 1.174 2.769 3.472 4.814 6.508 2.119 8.462s-11.14 3.612-13.623 5.678c5.422.173 12.508-4.273 15.812-4.14 2.493.92 2.15 1.745 4.303 5.072 4.306 6.067 1.893 8.525-.724 11.098-2.14 1.555-6.954 1.972-8.508 3.673.419 1.618 8.39-2.301 11.558-.306s1.98 9.12-1.543 10.588c-1.614.134-3.607.525-5.697 1.199 1.721.154 4.808.4 6.791 1.242 1.926.819 2.862 5.259 3.2 7.916.28 4.054-.596 4.395-2.872 4.912-1.908.434-3.779.975-1.746 1.567 2.696.784 4.062 4.205 3.969 7.449s-1.645 6.309-4.781 6.383c3.503 1.43 6.582 8.701.765 8.68 2.915 1.473 2.33 9.583.764 9.583-1.174 0-4.997.005-1.176 1.631 2.348 3.523-5.087 22.444-11.742 29.686-10.765 11.939-22.314 16.44-40.908 16.636-12.722 0-17.42-.98-25.248-4.699-17.615-8.612-25.642-28.574-19.77-48.734 3.72-12.135 9.003-16.245 22.117-17.615 7.438-.587 10.374 0 14.68 3.523 5.676 4.502 6.852 9.395 2.938 13.309-3.72 3.719-5.678 2.74-3.133-1.762 2.153-3.523 1.957-4.501-2.153-7.828-2.642-2.153-5.123-3.426-7.945-3.744-2.823-.32-10.202-.135-10.002 1.978-.464-1.128-2.827-.482-4.908 1.254-.748.625-4.234 2.998-2.326 4.453-1.994-.427-3.728.513-4.485 3.088-.943 3.212-1.816 5.565-.384 6.205-1.602.332-1.833 1.688-2.24 4.197-.292 1.788-1.116 3.784.814 4.393-1.885.432-1.417 2.898-1.19 4.488.227 1.59-.123 3.872 1.746 3.826-1.625.836-.318 3.145.415 4.84.835 1.933 1.557 3.974 3.015 3.684-.534 2.182.716 3.548 1.813 5.09 1.669 2.346 2.028 3.245 4.146 3.466-.803 1.457.74 2.132 2.342 3.58 1.972 1.786 3.62 1.939 4.33 1.292-.132 1.375.664 1.786.963 2.101 1 1.057 2.27 1.675 5.72 2.82 3.453 1.145 8.085 2.127 12.81 2.79 4.724.661 8.825 1.005 12.3.906 3.474-.1 6.324-.641 8.547-1.752 1.529-.714 1.776-.777 2.209-1.422.944-.153.622-.072 1.418-.297 4.502 0 21.193-18.484 25.107-27.684 1.762-4.11 2.937-12.916 3.133-22.703 0-14.679-1.174-20.16-7.828-35.23-3.523-8.025-22.706-28.186-27.012-28.186-1.76 0-3.13-.782-3.13-1.957 0-.978-2.153-2.348-4.893-3.13-2.545-.588-5.676-2.35-7.047-3.917-1.174-1.566-4.883-3.127-11.623-4.162-.438-.067-.45-.028-.526-.008.34-.09.596-.737-2.79-3.785-5.978-3.453-7.828-6.143-10.31-9.463-2.238-2.996-7.242-5.678-10.374-6.656-2.936-1.175-6.066-4.11-7.045-6.654-1.474-2.9-2.653-3.676-4.348-4.4-1.694-.727-3.507-1.24-6.015-.917-1.174.392-3.315 1.295-4.659 2.39-.467-1.41-.287-3.055 1.198-3.796 2.044-1.057 5.423-.776 8.176-.902 3.023.345 2.418-.818 2.519-1.434.313-1.9-8.773-2.377-8.674-3.642l9.244.984s2.545-.814 2.118-2.647c-2.413-2.07-9.702-3.414-9.702-3.414-2.624-.686 6.814-.232 7.602-1.892.475-.981-.623-2.782-3.074-3.381-5.243-.54-4.032-.519-6.371-.549-1.995.197-3.772.646-4.22.486s.674-1.563 2.485-2.052c1.761-.49 3.31-.853 4.912-1.62 6.471-.904 7.976-.674 9.868-3.794-2.634-1.47-1.984.948-9.249-1.977 2.402.134 4.623-.313 6.659-1.047.526-1.528 1.029-2.07.16-2.762-1.74-1.383-3.756-2.59-4.686-2.994-1.717-.744-8.155-2.023-10.843-1.52 2.722-4.152 11.804-1.503 11.804-1.503 11.157 1.174 12.723-.392 7.047-8.416-1.762-2.545-2.715-3.065-2.557-4.184.12-.852 4.122.757 7.254 3.008 3.914 2.74 4.502 2.741 5.676-.586.881-2.25-1.773-4.315-.281-5.857.374-.385 3.712.916 4.684.324.973-.593-.401-4.298.316-4.783 1.436-.971 2.155-.092 5.064.385 3.132-.477 2.026-.99-1.888-5.1-2.45-2.236-4.203-4.035-6.461-5.516 2.433-.169 11.877 5.76 14.015 6.838 2.61 1.033 2.495-.211 3.674-1.14.955-.621-2.585-4.804-2.224-5.415.489-.783 4.61 4.275 5.798 3.594 1.818-1.04.05-5.504 1.03-5.601.979 0 1.331 3.844 3.527 2.673 1.464-.78.78-5.988 2.514-6.71 1.735-.721.049 4.278 1.535 4.027 2.74-2.74 8.75-5.306 11.351-6.14 2.182-1.036 5.26-1.304 7.133-1.286zm-87.306 89.23c1.24.482 1.463 1.196 3.078 2.042 3.228 1.76 8.451 3.402 14.677 4.502 8.808.979 12.138 2.348 15.073 6.263 2.153 2.544 3.914 5.87 3.914 7.24 0 2.937 8.22 10.766 11.351 10.766 1.37 0 2.35.783 2.35 1.762 0 1.174 4.697 4.307 10.373 7.047a862.706 862.706 0 0 0 10.766 5.676c.196.392-.979 3.914-2.74 8.22-1.567 3.72-2.27 4.863-2.503 6.58-.948-.109-1.981-.282-3.253-2.533-1.566-2.936-2.856-5.027-3.64-3.46-1.173 1.858-1.316 1.493-4.696 2.935 1.387-2.451.487-2.934.976-5.283.783-3.72.59-3.915-1.369-.979-1.565 2.544-3.759 3.715-6.75 4.348.616-2.42.181-2.824.291-5.326.783-3.72.589-3.917-1.37-.98-1.662 2.642-4.722 4.165-8.017 4.74.995-2.366.88-2.977 1.364-5.717 1.174-4.111 1.174-4.113-2.545-.98-2.166 2.604-4.269 3.84-7.69 4.814.63-1.886.812-3.318 1.547-5.327.258-1.787 1.007-1.868.305-3.978-1.728.474-2.986 2.814-3.867 3.734-.59 1.455-2.663 2.519-6.034 1.737.808-2.123 1.326-2.83 1.723-5.516.23-1.551.44-2.02.018-4.361-3.106 2.236-3.123 2.711-4.596 3.88s-3.29.967-5.516.954c2.621-1.376 2.843-3.503 3.95-5.135.986-1.254 1.18-1.324 2.326-3.006-1.635-.094-2.636-.132-4.84.184-6.193 1.179-3.228-2.366-2.309-4.44.115-.116.251-.29.438-.6 1.345-3.039-.313-2.513-2.27-1.73-1.86.685-2.808 1.058-4.886.947 1.815-1.46 2.66-3.566 3.908-5.449 1.523-2.159 1.253-2.787-2.27-.654-2.776.71-3.915.617-5.369.256.928-.6 2.256-1.07 3.137-1.754 2.153-1.371 2.151-1.958-.393-2.936-2.74-.979-2.738-1.959-.781-5.09.881-1.468 1.665-3.556 2.754-4.664-1.158-.715-2.462-1.01-3.734-2.38-2.251-2.154-2.93-5.321-2.881-6.348zm30.605 1.026c2.098.26 5.742 1.754 8.05 3.799 3.936 3.484 4.534 4.784 6.75 7.766-.904 1.79-1.493 2.176-3.208 3.845-1.742 1.141-2.774 1.836-3.957 2.4-.945-2.928-2.094-4.377-4.703-7.743-1.221-1.861-4.828-3.279-6.657-4.657.395-1.457 1.118-1.572 1.768-2.748-.22-1.05.257-1.57 1.957-2.662zm16.29 12.92c1.647.71 1.219.913 3.894 2.225 2.876 1.818 1.835 1.413 4.052 4.394-.904 1.792-1.38 2.628-2.76 4.522-1.516 1.366-1.537 2.395-2.945 4.084-2.63-.682-4.34-1.68-6.388-4.036-1.445-1.749-3.142-1.818-3.848-4.769 1.855-1.233 3.366-1.796 4.465-2.86 1.8-1.162 2.28-2.807 3.53-3.56zm9.437 7.414c1.985.261 3.578.575 5.916 1.326 3.213.694 3.633 1.75 5.289 3.496-.905 1.792-1.043 4.088-1.748 7.33-.506 2.265-.977 3.52-1.936 5.545-2.63-1.132-4.565-2.132-6.838-3.588-2.343-1.412-4.601-2.828-5.644-5.779 1.18-2.13 1.118-2.808 2.217-3.87 1.352-1.838 1.606-3.145 2.744-4.46zm13.03 6.067c1.985.26 1.669.913 4.007 1.664 2.426 1.03 4.081 1.3 5.4 3.945-2.14 2.016-2.615 1.729-3.32 4.97-.506 2.265.483 5.428-.475 7.454-2.63-1.131-2.88-1.792-5.152-3.248-2.343-1.413-2.581-.81-4.074-2.3.845-2.58 1.343-3.816 1.88-5.33.566-2.51.484-5.166 1.735-7.155zm10.784 6.851c2.322.934 3.353.352 5.578 2.338 2.09 1.481 6.442 5.12 8.098 6.865-1.58.78-3.052 1.32-4.893 3.737-1.842 2.416-1.314 3.068-2.384 5.77-1.956-1.246-2.88-1.907-4.704-3.026-1.894-1.75-2.692-2.267-4.859-3.758.844-2.468-.005-6.065.307-8.027 1.128-2.286 1.606-2.809 2.857-3.899zm14.041 10.674c2.322.935 3.243 2.935 5.469 4.922 2.763 3.053 3.183 3.546 4.502 5.404-2.028 1.005-2.604 1.095-4.445 2.725-1.905 1.686-2.437 1.72-3.733 3.185-1.394-1.58-1.194-1.457-3.017-3.25-1.894-1.749-2.131-1.705-4.635-3.982.732-2.581 1.119-3.482 1.88-5.219 1.129-2.286 2.728-2.694 3.98-3.785zm10.56 12.133c1.087 1.27 2.12 2.26 2.772 3.683 1.078 1.368 1.161 1.637 2.031 3.496-2.028 1.005-1.818.758-3.322 1.489-1.463.71-2.099 1.498-3.844 2.625-1.394-1.581-.407-1.008-2.23-2.801-.884-1.075-1.347-1.93-2.727-3.309 1.967-1.682 2.243-1.908 3.567-2.634 1.352-1.05 2.616-1.796 3.754-2.55zm5.282 8.705c.918 1.72 1.161 1.98 1.814 3.404.404 1.2.713 1.806 1.414 3.777-1.523.555-1.985.702-2.984 1.153-1.02.46-2.1 1.101-3.283 1.78-1.113-2.088-1.083-1.624-1.727-2.856-.602-1.187-1.006-1.538-2.105-3.141 1.63-1.233 2.129-1.684 3.172-2.354 1.633-.769 2.336-1.178 3.699-1.763zm3.336 8.697c.917 1.721 1.56 4.761 2.055 6.623.364 2.113.67 4.466.777 7.033-1.444.277-.848.108-2.111.358-1.255.249-1.323.296-2.665.855-.399-2.8-.744-4.346-1.47-6.26-.483-1.347-1.483-4.398-2.582-6 1.392-.756 1.968-.771 3.011-1.441 1.633-.769 1.622-.583 2.985-1.168zm-72.125 13.488c.358-.01.574.156.348.698-.19.454-.788.644-1.858 1.373-1.138.777-2.415 2.273-2.799 2.287-.564.022-1.218.178-1.035-.524.164-.627.772-.935 1.932-1.853.592-.47 1.635-1.326 2.218-1.615.337-.167.836-.355 1.194-.366zm74.787 1.883c.202 3.667.208 4.561.107 8.21-.27 3.82-.321 6.93-.931 10.808-.69-.2-.847-.412-2.11-.479-1.26-.067-1.186-.088-2.488-.006.912-3.636.943-4.88 1.213-9.21.112-3.373.104-4.463-.168-8.26.995-.32 1.422-.537 2.266-.77.505-.118 1.045-.206 2.111-.293zm-81.95 4.217c.337.005.564.22.442.795-.189.89-1.464 2.587-1.898 4.031-.396 1.321-.588 2.075-.89 2.924-.192.532-1.04.027-1.196-.682-.234-1.064.503-2.234.818-3.521.265-1.08.751-2.365 1.623-3.086.318-.263.765-.466 1.102-.461zm-3.677 9.49c.33-.01.653.254.664.914.01.573-.153 1.319-.309 2.565-.17 1.368-.112 2.233-.416 3.082-.19.53-.968.354-1.431-.205-.552-.666.101-1.84.142-3.164.026-.842.261-1.69.71-2.729a.746.746 0 0 1 .64-.463zm79.82 6.42c.995.396 1.104.417 1.948.184.504-.117 1.76.032 2.826-.055-1.147 6.447-2.095 8.85-4.262 12.816-2.574 3.742-5.085 7.247-8.396 10.807-.41-.284-.69-.656-1.079-1.031-.375-.362-.69-.473-1.136-.881 3.772-4.986 4.437-6.47 6.693-11.037 1.86-4.564 2.17-5.815 3.406-10.803zm-80.41 1.701c.425.006.803.228.856.739.089.85-.036 1.345.129 2.8.267 2.353.515 2.63.26 3.121-.328.63-.932.554-1.91.114-.79-.354-.492-1.602-.61-3.164-.063-.84-.236-1.622-.006-2.729.112-.542.735-.888 1.281-.88zm1.096 8.074c.275.006.517.183.635.608.565 2.043.751 2.07 1.716 4.47.372.926.872 2.103.538 2.208-.836.264-.744.43-1.432-.166-.557-.482-1.117-1.737-1.764-3.164-.38-.84-1.227-2.096-.918-2.926.215-.576.766-1.04 1.225-1.03zm3.478 8.192c.172.004.36.15.532.478.984 1.877 2.241 3.838 3.98 5.422.985.898.316 1.27-.017 1.375-.836.264-.627.43-1.315-.166-.558-.483-.945-1.295-1.96-2.488-.58-.681-1.74-2.643-1.794-3.086-.106-.874.196-1.544.574-1.535zm65.034 5.15c.433.283.63.386.914.658.645.417.33.27 1.316.899-1.545 1.84-2.65 2.894-5.531 5.748-2.178 1.597-2.83 2.99-7.287 4.787-.531-.596-.553-.674-.81-1.055-.25-.368-.355-.461-.634-1.177 2.262-.697 4.937-2.277 6.637-3.985 2.813-2.418 3.522-3.508 5.395-5.875zm-58.825 2.422c.137-.011.284.08.44.332.546.884 2.877 2.252 4.258 3.201 1.099.754.937.805.658 1.016-.717.542-.772.795-1.672.67-1.471-.205-1.66-.622-3.072-1.775-.693-.566-1.77-1.662-1.557-2.053.212-.388.534-1.356.945-1.39zm7.352 5.02c3.166 1.9 6.558 2.458 8.375 3.068 4.333.893 6.477 1.132 10.14 1.522-.043.829-.052 1.019-.097 1.572-.122.6-.097.404-.281 1.263-4.722-.82-4.817-.718-10.53-1.896-4.307-1.224-5.727-2.152-8.39-3.57-.194-.94-.14-.827.074-1.22.282-.515.07-.351.709-.74zm37.818 3.119c.433.789.384.583.498 1.137.354.56.22.721.553 1.382-2.022 1.204-2.473 1.307-7.432 2.274-6.094.206-8.66.06-11.521-.324.104-.762.112-.832.146-1.553.032-.681-.057-.46-.004-1.19 5.7.378 7.43-.002 9.684-.148 4.056-.378 7.112-1.333 8.076-1.578z"/><path d="M242.268 150.808c0 1.143-.664 2.07-1.484 2.07-.819 0-1.484-.927-1.484-2.07 0-1.144.665-2.071 1.484-2.071.799 0 1.455.883 1.483 1.998"/><path fill="none" stroke="#000" stroke-width="1.7" d="M245.25 152.335c-.939 2.377-3.698 3.569-6.162 2.663s-3.699-3.567-2.76-5.944 3.698-3.569 6.162-2.663c2.46.905 3.697 3.561 2.763 5.936"/><path fill="none" stroke="#000" stroke-width="1.7" d="M227.983 144.629c6.178-3.258 14.716 1.797 14.716 1.797"/><path fill="none" d="M524.288 111.032c1.462.89 2.83 1.526 3.084 1.431s.54-.859.668-1.781c.127-.858.413-1.844.635-2.13.636-.89 1.24-.159 2.417 2.83.54 1.431 1.145 2.798 1.304 2.989.572.699 1.335.445 2.257-.7.922-1.176 2.321-1.526 2.639-.668.095.255.032 1.272-.159 2.29-.572 2.988.35 3.434 2.957 1.43 2.257-1.748 3.116-2.098 3.974-1.653.891.477.859 1.145-.286 3.784-.985 2.289-1.049 3.942-.095 2.607.254-.35 1.431-1.145 2.639-1.717 1.208-.604 3.084-1.59 4.197-2.226 1.113-.604 2.639-1.335 3.402-1.621 1.399-.477 8.966-1.59 9.602-1.367.191.063-.858.922-2.289 1.939-3.148 2.162-9.189 7.695-9.189 8.394 0 .413.35.477 2.544.286 2.893-.254 2.829-.35 2.194 2.671-.223 1.049-.255 1.749-.064 1.94.191.19 1.176.127 2.671-.191 1.303-.255 2.448-.477 2.575-.477.477 0 .255 2.512-.413 4.642-.636 2.003-.636 2.194-.127 2.544.636.477 1.367.254 6.2-1.972 2.861-1.335 3.593-1.558 5.151-1.494.985.032 2.162.254 2.639.509l.89.445-2.067 2.225c-2.448 2.671-4.928 6.232-5.31 7.663-.699 2.385 1.654 2.798 9.571 1.781 4.324-.573 7.249-.477 8.68.286 1.113.572 4.928 4.133 4.928 4.61 0 .159-1.844.382-4.101.477-4.738.191-8.172 1.017-11.002 2.575-2.67 1.463-2.607 1.781.287 1.781 2.416 0 3.815.382 5.087 1.399.604.477.604.509 0 1.176-.922 1.018-2.703 1.813-4.897 2.162-1.113.191-2.066.382-2.13.477-.064.064.922.287 2.194.477 3.307.541 7.949 1.908 10.206 3.053 2.035 1.017 2.13 1.144 2.544 4.101l.191 1.209-1.018-.223c-1.59-.35-9.793-.541-11.128-.254-2.035.445-1.463.89 1.685 1.271 3.943.477 6.168.922 7.217 1.463l.827.445-1.717.827c-.954.477-3.148 1.144-4.896 1.494-7.44 1.526-8.362 2.385-2.131 2.067 5.119-.254 7.154-.064 6.995.731-.159.89-3.306 2.417-6.581 3.243-2.003.509-1.24.891 2.035 1.018 2.957.095 5.182.858 6.104 2.098.732.922.286 5.119-.572 5.66-.191.095-.572-.032-.858-.286-.287-.287-1.59-.986-2.894-1.622-2.448-1.176-2.48-1.176-5.977-.636-1.495.223-2.798 1.463-3.911 3.752-.541 1.081-1.654 2.798-2.48 3.815a203.02 203.02 0 0 0-2.099 2.608c-.604.731-.604.763.064 2.098.35.763.731 1.622.827 1.908.572 1.971 10.301 1.304 17.964-1.24 3.052-1.018 7.567-3.243 9.602-4.738l1.558-1.144v1.24c0 3.052-2.385 8.235-4.769 10.365l-1.526 1.367 1.558 2.989c1.939 3.72 2.066 5.151.572 6.645-.541.573-.922 1.208-.795 1.463.095.254.922.89 1.844 1.399 2.862 1.621 2.735 1.462 1.558 2.066-.572.318-2.13.636-3.402.732-1.399.127-2.512.35-2.703.604-.794.954.859 3.052 3.72 4.769.477.286.128.414-1.939.731-1.399.191-3.434.382-4.515.414l-1.971.063.667 1.209c.795 1.43 2.29 2.988 3.53 3.751l.89.573-.986.127c-.54.095-1.653.032-2.48-.095-2.384-.382-5.278-.318-5.914.127-.985.731-.159 2.384 2.321 4.769l2.163 2.099-1.399.222c-2.64.382-5.978-.032-7.759-.954-.922-.445-1.717-.795-1.78-.731-.445.477 1.272 5.087 2.385 6.359.254.286.381.636.254.795-.127.127-1.844.222-3.784.222-2.766 0-3.815-.127-4.642-.572-.604-.286-1.144-.54-1.208-.54-.032 0-.095.667-.095 1.494 0 1.081.222 1.749.826 2.544l.795 1.049h-.89c-2.067-.032-6.963-1.622-8.712-2.893-1.145-.795-1.24-.764-1.24.413.032 1.335.731 3.275 1.463 4.101.667.764.508.764-2.608-.031-2.798-.7-5.278-1.685-6.55-2.576-1.176-.858-1.303-.763-1.049.573.286 1.589.89 2.511 2.099 3.147.54.255.922.573.826.636-.254.286-6.963-.763-8.489-1.303-.763-.255-1.653-.732-1.971-1.018-.541-.477-.573-.477-.573.286 0 .445.35 1.463.795 2.29.445.826.795 1.558.795 1.653 0 .254-1.749-.286-3.783-1.177-1.113-.508-2.417-.922-2.894-.922-1.081 0-2.353.986-3.338 2.544-.541.859-1.368 1.494-2.957 2.289l-2.226 1.113-.127-1.303c-.159-1.177-5.405-14.976-5.914-15.517-.223-.222-6.614 4.166-12.782 8.744-3.72 2.766-12.273 11.256-14.785 14.69-6.899 9.411-9.157 15.897-9.189 26.39 0 5.786.382 8.871 1.717 14.435 2.926 11.891 9.73 23.21 17.456 28.933 5.087 3.784 11.097 5.056 22.289 4.706 13.544-.413 22.002-3.243 28.266-9.379 4.642-4.579 7.694-10.556 8.966-17.551.191-1.145.35-3.943.35-6.201 0-7.758-1.749-13.131-5.565-17.233-3.306-3.529-6.836-5.468-11.35-6.168-4.293-.668-9.189.763-12.21 3.529-2.098 1.94-2.194 2.862-.54 6.169 1.462 2.957 1.589 3.72.667 4.642-.858.858-2.639.826-4.674-.159-2.957-1.367-4.419-4.706-4.165-9.348.255-4.165 2.194-6.868 6.582-9.093 4.26-2.131 6.423-2.544 13.068-2.512 5.5 0 6.073.063 8.743.89 5.342 1.622 8.585 3.784 11.097 7.281 5.723 8.076 8.871 21.939 7.027 30.905-1.431 6.836-5.246 14.244-10.556 20.349-8.967 10.365-20.858 15.103-37.932 15.103-12.655 0-21.621-2.417-30.524-8.203-9.92-6.423-16.342-14.753-21.779-28.203-1.463-3.688-2.035-5.977-2.29-9.157-.095-1.558-.349-2.83-.636-3.147-1.271-1.463-1.717-5.628-.922-8.331l.477-1.526-.985-.858c-1.749-1.558-1.558-4.929.413-7.186l.922-1.049-1.049-1.05c-1.367-1.399-1.971-4.038-1.717-7.535.159-2.417 1.24-5.787 1.844-5.787.636 0 .223-.858-.7-1.399-1.43-.858-2.193-2.289-2.193-4.197 0-3.847 1.589-9.761 2.766-10.206.477-.191.572-1.049.127-1.049-.731 0-1.717-2.989-1.876-5.692-.191-3.402.477-6.009 1.876-7.408l.922-.954-.986-2.035c-.858-1.749-.985-2.257-.826-3.72.349-3.37 4.07-9.602 6.868-11.446 1.017-.668 1.303-1.05 1.303-1.781 0-2.13 1.749-5.278 4.674-8.426 3.052-3.243 4.038-4.705 4.674-6.995.445-1.462.922-2.225 2.257-3.561 1.558-1.558 4.865-3.529 6.836-4.038.414-.095.636-.413.636-.922.032-2.035 2.544-5.437 4.77-6.454 1.112-.509 1.271-.7 1.271-1.622 0-1.303 1.081-2.607 3.625-4.356 2.417-1.621 6.232-2.607 12.114-3.116 12.368-1.017 17.869-3.084 23.688-8.87 3.529-3.498 4.896-5.851 6.168-10.493 1.049-3.847 1.113-7.44.159-10.238-.668-1.971-2.798-5.978-3.18-5.978-.127 0 .064 1.05.414 2.29.826 3.02.922 7.98.159 10.397-1.05 3.37-3.116 5.882-6.01 7.376-1.971 1.018-2.925 1.24-6.295 1.558-3.498.318-5.85 1.018-6.995 2.067-1.717 1.59-5.564 1.781-9.253.509-.953-.35-2.734-.732-3.974-.827l-2.289-.223-2.957 2.067c-3.053 2.099-16.248 9.539-18.569 10.461-4.228 1.685-8.998.509-11.001-2.703-1.621-2.575-.159-4.992 6.741-11.224 5.596-5.023 6.931-6.74 7.662-9.665.318-1.24 1.336-3.943 2.322-5.978 2.321-4.992 2.352-5.85.158-8.139-.858-.923-1.812-2.194-2.066-2.862-.509-1.176-.731-3.847-.382-4.229.191-.159 2.321.286 3.434.7.35.127.413-.35.318-2.544-.063-1.717.064-3.084.286-3.688l.414-.954 1.144 1.113c1.177 1.144 2.035 1.431 2.417.826.095-.159.318-1.081.477-2.034.318-2.004 1.589-5.12 1.907-4.738.128.127.414.795.636 1.431.191.668.477 1.208.636 1.208.127 0 .35-.763.477-1.685.35-2.734.731-3.879 1.59-4.674.699-.668.89-.7 1.113-.318.159.254.318.827.318 1.272 0 1.399.89 4.229 2.066 6.613 2.29 4.579 4.452 4.134 8.903-1.748 2.544-3.371 2.925-4.42 2.226-5.946-1.685-3.561-8.744-8.362-15.389-10.429-1.24-.382-2.258-.795-2.258-.922 0-.604 1.59-2.035 2.989-2.703 1.59-.731 3.434-.89 6.073-.54 4.515.636 7.917 1.876 12.464 4.61z"/><path d="M509.23 106.117a9.082 9.082 0 0 0-1.74.125c-2.234.403-4.341 1.94-4.949 3.817 3.009.877 3.484.958 6.615 2.328 3.132 1.175 7.242 4.11 9.2 6.066 3.327 3.72 3.328 4.11-.391 8.809-4.698 6.459-7.047 6.068-9.592-1.37-1.076-2.935-.74-4.8-1.252-5.8-.295.216-1.365.658-2.01 1.666-.564.88-1.066 4.778-1.06 5.795-.471-.286-.913-1.566-1.354-3.62-1.177 2.269-1.513 3.015-1.904 4.092-.392 1.076-.053 3.934-1.227 3.934-.685 0-1.516-1.322-2.974-2.611-1.26 2.365-1.08 5.32-.576 7.56-.987-.32-3.01-1.01-3.993-1.101-.306 1.179-.284 2.597-.046 3.67.715 1.535.936 2.857 2.502 4.03 2.348 1.958 2.348 3.133 0 7.634-1.566 2.936-2.74 6.262-2.74 7.632 0 1.174-3.525 5.09-8.026 8.807-5.481 4.698-7.437 7.634-6.654 9.787 1.957 4.697 8.023 6.067 13.503 3.131a864.75 864.75 0 0 0 12.723-7.045c3.034-1.663 5.032-3.476 6.883-4.64 2.974-.04 5.238.233 7.797 1.51 3.914.586 7.047.195 7.83-.98s3.915-2.154 6.85-2.154c7.83 0 12.954-5.176 13.261-12.757.117-3.295-.328-5.376-1.422-9.086 4.321 6.824 4.576 9.969 3.024 15.99-1.87 8.404-10.557 19.164-29.738 19.36-3.621.097-6.655 1.124-10.079 1.81-2.189 1.296-6.86 3.778-5.912 6.89-3.55.947-5.988 4.63-6.039 7.65-8.72 2.61-9.875 7.724-9.875 8.702 0 .98-2.152 3.915-4.892 6.459-2.741 2.545-4.556 6.659-4.22 8.928-3.032 1.566-4.12 3.853-5.966 6.34-1.564 3.175-4.167 7.126-.326 11.875-4.022 1.49-3.846 12.879-.635 14.529-2.362 1.623-2.869 5.584-3.373 10.978-.022 1.815.563 3.44 3.445 4.875-.768.387-1.377 1.451-1.795 2.842-.418 1.39-.643 3.108-.64 4.803.002 1.695.231 3.367.724 4.668.493 1.302 1.247 2.23 2.301 2.44-3.59 2.345-3.504 8.55-.408 9.189-1.734 3.167-1.19 9.392 1.022 10.613-.484 6.39 2.047 10.923 3.386 14.299 2.68 6.752 6.209 12.475 10.635 17.283 4.425 4.808 9.747 8.7 16.01 11.781 13.7 6.655 36.992 6.46 50.3-.39 11.745-6.068 21.336-19.182 23.294-31.905 1.76-11.352-3.72-27.989-10.766-33.273-11.157-8.221-32.882-5.481-36.014 4.502-1.566 5.088.39 11.155 4.11 12.525 4.893 1.762 6.85-.586 4.11-4.892-1.957-3.327-1.762-4.307 1.37-6.852 9.395-6.85 23.488-.781 26.815 11.354 4.11 15.658-2.348 31.511-15.461 37.97-10.961 5.48-33.08 5.872-40.909.979-15.267-9.59-24.858-35.622-20.16-55.195 2.544-10.765 13.116-24.075 26.817-33.274l8.611-6.066 3.13 8.023c1.665 4.208 3.133 6.546 2.737 9.205 2.543-1.552 3.461-1.27 5.215-2.923.783-1.761 2.228-3.737 4.38-3.149.49.146 3.455 1.893 6.41 2.295-1.019-2.378-2.049-2.445-1.929-4.816 1.583 2.019 6.122 2.268 12.004 2.89-4.602-2.634-3.727-3.148-4.07-5.363 1.762 1.993 6.158 3.234 11.242 4.148-2.62-2.739-2.173-3.58-2.43-6.074 2.578 2.537 8.859 3.955 11.188 3.805-2.041-2.373-2.075-2.342-2.035-5.278 2.29 1.797 6.52 1.544 10.304.874a11.686 11.686 0 0 1-3.18-7.344c3.069 2.852 8.092 2.238 11.374 1.693-2.571-2.28-4.13-3.565-4.928-4.996-.93-1.799-.304-2.387 2.828-2.387 2.153 0 3.644 1.381 6.82.164-2.687-1.062-4.172-3.427-5.199-5.304 2.372.138 6.198-.293 9.18-1.014-3.123-1.713-4.264-3.053-4.656-3.934-.587-1.762 1.099-1.654 2.664-1.654.686 0 2.948.274 4.64-1.603-1.406-.765-3.542-1.458-4.828-3.073 4.012-2.313 1.681-5.821.746-7.486-.774-1.331-.839-2.036-1.738-3.418 1.235-.089 3.039-2.426 3.92-3.992 1.859-3.327 2.666-6.49 2.397-9.21-2.653 2.047-3.68 2.705-5.333 3.526-2.804 1.676-8.823 3.786-14.14 4.59-5.318.805-9.936.701-9.936-1.256s-2.127-1.794-.588-3.36c2.882-2.928 4.434-5.561 5.33-8.153 1.679-2.031 3.796-2.18 6.604-2.21 1.49.798 4.395 1.49 5.736 3.428 1.262-.604 1.913-4.49 1.274-6.34-.275-.794-3.516-2.316-5.344-2.38s-2.798.455-4.408-.227c1.895-.546 2.93-.514 4.904-1.498 1.756-.875 3.459-1.396 3.229-2.51-.284-1.379-9.994-.437-11.364-.388-1.126.049 2.121-1.299 4.514-1.602 1.571-.563 5.072-.343 8.613-2.97-2.613-1.68-3.99-.974-6.132-1.764l-4.885-.487c-2.02-1.122 7.776-.945 9.847-.923 1.402.423 2.69 1.033 3.121.833.431-.199.086-1.764-.351-4.425-1.541-1.265-3.139-1.945-4.838-2.44-1.62-.575-3.05-.952-4.898-1.54-1.772-.213-2.348-.132-4.87-.682 2.958-.471 5.06-.11 8.002-3.207-1.189-.715-1.657-1.62-3.087-1.963-1.43-.306-1.933-.258-3.108-.258-2.25 0-2.908.41-1.402-.676 1.507-1.086 4.382-2.317 7.611-2.904 2.838-.49 7.146-.504 9.22-.588-.952-1.882-2.724-2.984-3.8-4.158-1.762-2.153-5.81-2.104-11.877-1.125-9.59 1.174-10.178-.001-4.111-7.635l3.857-4.244-2.447-.97-2.672-.073c-2.544.588-5.783 2.547-7.74 3.33-3.132 1.37-2.964.08-1.985-2.465.783-2.153.216-2.14.52-4.523-1.566 0-5.695 1.566-5.695.587 0-1.174.542-1.96.845-4.662-1.37 0-4.44.369-5.117.223s.94-1.703 2.586-3.178l4.236-3.797 5.985-4.037-8.88 1.114c-2.74 0-7.074 2.976-9.374 4.175-1.15.6-2.242.785-2.934 1.51-.761.283-.704.785-.58 1.076-.055-.093-.066-.138-.246-.365-.584-1.05 2.121-4.153 1.754-5.775-1.941-3.7-6.287 3.073-7.234 1.978-1.81-.195.887-4.41-.55-5.265-2.05-1.22-3.217 2.97-4.32 2.228s-1.817-6.111-3.56-6.785c-1.743-.675-1.032 5.48-2.207 4.648-2.544-1.76-8.052-5.218-12.582-5.845-1.699-.235-3.608-.66-5.399-.688zm.448 1.705c1.873-.018 4.95.25 7.133 1.285 2.6.835 8.611 3.401 11.351 6.141 1.486.251-.2-4.748 1.535-4.027 1.734.722 1.05 5.93 2.514 6.71 2.196 1.172 2.548-2.673 3.527-2.673.978.097-.788 4.561 1.03 5.601 1.189.681 5.31-4.376 5.798-3.593.361.61-3.18 4.793-2.224 5.414 1.179.929 1.064 2.173 3.674 1.14 2.138-1.079 11.582-7.007 14.015-6.838-2.258 1.481-4.012 3.28-6.46 5.516-3.915 4.11-5.021 4.623-1.89 5.1 2.91-.477 3.63-1.356 5.065-.385.717.485-.657 4.19.316 4.783.972.592 4.31-.71 4.684-.324 1.492 1.542-1.162 3.606-.281 5.857 1.174 3.327 1.762 3.326 5.676.586 3.132-2.25 7.134-3.86 7.254-3.008.158 1.12-.795 1.639-2.557 4.184-5.676 8.024-4.11 9.59 7.047 8.416 0 0 9.082-2.65 11.804 1.504-2.688-.504-9.126.775-10.843 1.52-.93.403-2.947 1.61-4.686 2.994-.869.69-.366 1.233.16 2.761 2.036.734 4.257 1.181 6.659 1.047-7.265 2.925-6.615.508-9.249 1.977 1.892 3.12 3.398 2.89 9.868 3.795 1.603.766 3.15 1.129 4.912 1.619 1.81.489 2.931 1.893 2.484 2.053s-2.224-.29-4.219-.487c-2.34.03-1.128.01-6.37.55-2.452.598-3.549 2.399-3.075 3.38.788 1.66 10.226 1.206 7.602 1.892 0 0-7.289 1.344-9.702 3.415-.427 1.833 2.118 2.646 2.118 2.646l9.244-.984c.099 1.265-8.987 1.741-8.674 3.642.101.616-.503 1.779 2.52 1.434 2.753.126 6.131-.155 8.175.902 1.485.741 1.665 2.387 1.198 3.797-1.344-1.096-3.485-1.999-4.659-2.39-2.508-.325-4.321.19-6.015.915-1.695.725-2.874 1.502-4.348 4.4-.979 2.546-4.109 5.48-7.045 6.655-3.132.978-8.136 3.66-10.375 6.656-2.48 3.32-4.331 6.01-10.308 9.463-3.387 3.048-3.13 3.694-2.791 3.785-.076-.02-.088-.059-.526.008-6.74 1.035-10.448 2.597-11.623 4.163-1.37 1.566-4.502 3.329-7.047 3.916-2.74.783-4.892 2.152-4.892 3.13 0 1.175-1.37 1.957-3.131 1.957-4.306 0-23.489 20.161-27.012 28.186-6.655 15.071-7.828 20.551-7.828 35.23.196 9.787 1.37 18.594 3.133 22.704 3.914 9.2 20.605 27.683 25.107 27.683.796.225.474.144 1.418.297.433.645.68.708 2.21 1.422 2.221 1.11 5.072 1.653 8.546 1.752 3.475.099 7.576-.244 12.3-.906 4.725-.662 9.356-1.644 12.807-2.79 3.452-1.144 4.722-1.763 5.723-2.82.3-.315 1.095-.726.963-2.101.71.647 2.358.494 4.33-1.291 1.602-1.45 3.145-2.123 2.342-3.58 2.118-.221 2.477-1.121 4.146-3.467 1.097-1.542 2.347-2.908 1.813-5.09 1.458.29 2.18-1.75 3.015-3.684.733-1.695 2.04-4.003.415-4.84 1.869.047 1.519-2.237 1.746-3.826.227-1.59.695-4.056-1.19-4.488 1.93-.609 1.105-2.604.815-4.392-.408-2.51-.639-3.866-2.24-4.198 1.43-.64.559-2.993-.385-6.205-.756-2.575-2.49-3.515-4.485-3.088 1.908-1.455-1.578-3.828-2.326-4.453-2.08-1.736-4.444-2.382-4.908-1.254.2-2.113-7.18-2.297-10.002-1.978-2.822.318-5.303 1.59-7.945 3.744-4.11 3.327-4.306 4.305-2.153 7.828 2.545 4.502.586 5.48-3.133 1.762-3.914-3.914-2.738-8.807 2.938-13.309 4.306-3.523 7.242-4.11 14.68-3.523 13.114 1.37 18.398 5.48 22.117 17.615 5.872 20.16-2.155 40.122-19.77 48.734-7.829 3.72-12.526 4.7-25.248 4.7-18.594-.196-30.143-4.698-40.908-16.637-6.655-7.242-14.09-26.163-11.742-29.686 3.82-1.626-.002-1.63-1.176-1.63-1.566 0-2.151-8.11.764-9.585-5.817.022-2.738-7.248.765-8.68-3.136-.073-4.688-3.138-4.78-6.382s1.272-6.665 3.968-7.45c2.033-.591.162-1.132-1.746-1.566-2.276-.517-3.152-.858-2.871-4.912.337-2.657 1.273-7.097 3.199-7.916 1.982-.842 5.07-1.088 6.79-1.242-2.09-.674-4.082-1.065-5.696-1.2-3.523-1.467-4.711-8.592-1.543-10.587s11.14 1.924 11.558.306c-1.554-1.7-6.369-2.118-8.508-3.673-2.617-2.573-5.03-5.031-.724-11.098 2.153-3.327 1.81-4.152 4.303-5.072 3.304-.133 10.39 4.313 15.812 4.14-2.484-2.066-10.928-3.723-13.623-5.677s-.65-4.991 2.12-8.463c3.327-2.936 4.697-3.132 9.003-1.174 2.936 1.174 7.581 2.398 12.617 3.24-1.955-2.017-10.855-4.219-12.812-5.785-3.72-2.74-3.72-3.89-.197-7.805l5.271-2.166 5.887 3.121c4.306 1.957 10.968 4.28 10.968 3.694 0-.391-6.077-3.107-9.209-4.87-3.327-1.76-5.353-4.305-5.353-5.675 0-4.893 4.516-5.542 11.436-.719 3.523 2.055 12.317 4.737 12.843 3.748.651-1.227-5.897-2.43-9.138-4.008-3.216-1.836-9.258-4.844-9.258-6.41.794-2.655 4.365-4.55 19.828-6.312 11.548-1.37 17.614-5.088 22.703-13.504 6.263-10.178 5.09-18.985-3.326-27.01l-7.047-6.656 4.11 6.263c7.632 10.961 3.915 24.075-6.85 24.075-2.544 0-6.264.977-8.221 2.347-2.74 1.566-5.126 1.23-7.426.553l-3.742-1.104-1.297-.277 5.418-3.672c6.067-2.936 8.613-8.611 5.285-11.94-1.174-1.173-1.566 0-.978 3.132.783 3.719 0 5.48-2.74 6.459-1.957.979-5.871 3.133-8.416 5.09-8.416 6.067-19.769 13.113-20.944 13.113-.587 0 .392-1.958 2.545-4.502 2.153-2.35.98-1.956-2.545 1.37-5.284 4.698-6.85 5.285-9.394 3.132-4.306-3.523-3.719-5.09 3.718-9.787 4.502-2.544 7.634-6.654 9.2-11.352 1.174-3.914 3.13-8.22 3.914-9.394 1.174-1.37.587-3.132-1.174-4.698-1.664-1.37-3.328-4.552-3.15-5.718.772.146 1.36.363 2.171.826.98.587 1.957-.197 1.957-1.96 0-.88-.678-4.215-.494-5.034.462.849 1.863 2.785 2.451 3.078.978.587 2.155 0 2.155-1.37.293-2.837.657-3.667.9-5.003.401.73 2.429 3.655 3.348 4.357-.782-2.16-.164-9.093.172-9.738.058 1.858 1.105 5.16 1.42 6.353 2.078 2.93 2.582 3.57 4.921 4.28 1.982.073 2.937-.737 5.678-3.967 2.74-3.327 4.417-5.82 4.576-7.518 0-1.76-5.805-8.728-12.681-11.35-2.914-1.057-3.311-1.356-5.098-1.833.487-.11 1.201-.79 3.326-1.186.278-.052.77-.091 1.395-.098zm87.306 89.23c.05 1.028-.63 4.195-2.88 6.348-1.272 1.37-2.577 1.666-3.735 2.381 1.09 1.108 1.873 3.196 2.754 4.664 1.957 3.131 1.959 4.111-.781 5.09-2.544.978-2.546 1.565-.393 2.936.881.685 2.209 1.155 3.137 1.754-1.454.36-2.593.454-5.37-.256-3.522-2.133-3.792-1.505-2.269.654 1.248 1.883 2.093 3.988 3.908 5.45-2.078.11-3.026-.263-4.886-.948-1.957-.783-3.615-1.309-2.27 1.73.187.31.324.484.438.6.92 2.074 3.884 5.619-2.309 4.44-2.204-.316-3.205-.278-4.84-.184 1.146 1.682 1.34 1.752 2.326 3.006 1.107 1.632 1.33 3.759 3.95 5.135-2.224.013-4.043.215-5.516-.954-1.474-1.169-1.49-1.644-4.596-3.88-.423 2.34-.212 2.81.018 4.36.397 2.687.915 3.394 1.723 5.517-3.371.782-5.445-.282-6.034-1.737-.88-.92-2.139-3.26-3.867-3.734-.702 2.11.047 2.191.305 3.978.735 2.01.918 3.44 1.547 5.327-3.421-.974-5.524-2.21-7.69-4.815-3.719-3.132-3.719-3.13-2.545.98.484 2.74.369 3.352 1.364 5.717-3.295-.574-6.355-2.097-8.018-4.74-1.958-2.936-2.152-2.738-1.369.98.11 2.503-.325 2.907.291 5.327-2.991-.633-5.185-1.804-6.75-4.348-1.958-2.936-2.153-2.74-1.371.979.49 2.349-.41 2.832.976 5.283-3.379-1.442-3.52-1.077-4.695-2.936-.783-1.566-2.073.525-3.639 3.461-1.272 2.251-2.305 2.424-3.253 2.533-.233-1.717-.936-2.86-2.502-6.58-1.762-4.306-2.937-7.828-2.74-8.22.39-.196 5.284-2.74 10.765-5.676 5.676-2.74 10.373-5.873 10.373-7.047 0-.98.98-1.762 2.35-1.762 3.13 0 11.351-7.83 11.351-10.765 0-1.37 1.762-4.697 3.914-7.24 2.936-3.916 6.264-5.285 15.07-6.264 6.228-1.1 11.452-2.741 14.68-4.502 1.615-.846 1.838-1.56 3.078-2.041zm-30.605 1.026c1.7 1.091 2.178 1.612 1.957 2.662.65 1.176 1.373 1.291 1.768 2.748-1.83 1.378-5.436 2.796-6.657 4.657-2.609 3.366-3.758 4.815-4.703 7.744-1.183-.565-2.215-1.26-3.957-2.4-1.716-1.67-2.305-2.055-3.209-3.846 2.217-2.982 2.815-4.282 6.75-7.766 2.31-2.045 5.954-3.539 8.05-3.799zm-16.29 12.92c1.25.753 1.73 2.398 3.53 3.56 1.1 1.064 2.61 1.627 4.465 2.86-.706 2.951-2.403 3.02-3.848 4.77-2.048 2.354-3.758 3.353-6.388 4.035-1.408-1.69-1.429-2.718-2.946-4.084-1.379-1.894-1.855-2.73-2.76-4.522 2.218-2.98 1.177-2.576 4.053-4.394 2.674-1.312 2.247-1.515 3.895-2.225zm-9.437 7.414c1.138 1.315 1.392 2.622 2.744 4.46 1.1 1.062 1.036 1.74 2.217 3.87-1.043 2.951-3.3 4.367-5.644 5.78-2.272 1.455-4.208 2.455-6.838 3.587-.96-2.026-1.43-3.28-1.936-5.545-.705-3.242-.843-5.538-1.748-7.33 1.656-1.746 2.076-2.802 5.29-3.496 2.337-.75 3.93-1.065 5.915-1.326zm-13.03 6.067c1.25 1.989 1.168 4.646 1.733 7.156.538 1.513 1.036 2.749 1.881 5.33-1.493 1.49-1.73.886-4.074 2.299-2.273 1.456-2.522 2.117-5.152 3.248-.96-2.026.031-5.19-.475-7.453-.705-3.242-1.18-2.955-3.32-4.971 1.319-2.645 2.974-2.914 5.4-3.945 2.338-.751 2.021-1.404 4.006-1.664zm-10.784 6.851c1.25 1.09 1.728 1.613 2.855 3.899.313 1.962-.535 5.559.309 8.027-2.167 1.49-2.965 2.009-4.86 3.758-1.823 1.119-2.747 1.78-4.703 3.025-1.07-2.7-.542-3.353-2.384-5.77-1.841-2.415-3.315-2.956-4.893-3.736 1.656-1.746 6.009-5.384 8.098-6.865 2.225-1.986 3.256-1.404 5.578-2.338zm-14.041 10.674c1.25 1.09 2.85 1.5 3.978 3.785.762 1.737 1.15 2.638 1.881 5.219-2.504 2.277-2.74 2.233-4.635 3.982-1.823 1.793-1.623 1.67-3.017 3.25-1.296-1.465-1.828-1.5-3.733-3.185-1.84-1.63-2.417-1.72-4.445-2.725 1.32-1.858 1.74-2.351 4.502-5.404 2.225-1.987 3.147-3.987 5.469-4.922zm-10.56 12.133c1.137.753 2.401 1.499 3.753 2.549 1.324.726 1.6.952 3.567 2.634-1.38 1.378-1.843 2.234-2.727 3.309-1.823 1.793-.836 1.22-2.23 2.8-1.745-1.126-2.381-1.913-3.844-2.624-1.504-.731-1.294-.484-3.322-1.489.87-1.859.953-2.128 2.03-3.496.654-1.424 1.686-2.412 2.772-3.683zm-5.282 8.705c1.363.585 2.066.994 3.7 1.763 1.042.67 1.54 1.121 3.171 2.354-1.099 1.603-1.503 1.954-2.105 3.14-.644 1.233-.614.77-1.727 2.856-1.184-.678-2.262-1.32-3.283-1.78-1-.45-1.461-.597-2.984-1.152.7-1.97 1.01-2.578 1.414-3.777.653-1.425.896-1.683 1.814-3.404zm-3.336 8.697c1.363.585 1.352.399 2.985 1.168 1.043.67 1.62.685 3.011 1.441-1.099 1.602-2.099 4.653-2.582 6-.726 1.914-1.071 3.46-1.47 6.26-1.342-.559-1.41-.606-2.665-.855-1.263-.25-.667-.08-2.11-.358.105-2.567.412-4.92.776-7.033.494-1.862 1.138-4.902 2.055-6.623zm72.06 13.488c.361-.013.901.189 1.259.366.584.289 1.626 1.146 2.218 1.615 1.16.918 1.768 1.226 1.932 1.853.183.702-.471.546-1.035.524-.384-.014-1.661-1.51-2.8-2.287-1.07-.73-1.668-.92-1.858-1.373-.212-.509-.033-.686.285-.698zm-74.722 1.883c1.066.087 1.606.175 2.111.293.844.233 1.271.45 2.266.77-.272 3.797-.28 4.887-.168 8.26.27 4.33.3 5.574 1.213 9.21-1.302-.082-1.227-.06-2.488.006-1.263.067-1.42.28-2.11.479-.61-3.877-.66-6.988-.931-10.809-.101-3.648-.095-4.542.107-8.209zm81.95 4.217c.336-.005.783.198 1.1.46.873.722 1.359 2.007 1.624 3.087.315 1.287 1.052 2.457.818 3.521-.156.71-1.004 1.214-1.195.682-.303-.85-.495-1.603-.89-2.924-.435-1.444-1.71-3.14-1.9-4.031-.121-.575.106-.79.442-.795zm3.622 9.49c.274-.017.565.16.696.463.448 1.04.683 1.887.709 2.729.04 1.324.694 2.498.142 3.164-.463.559-1.241.736-1.431.205-.304-.85-.245-1.714-.416-3.082-.156-1.246-.318-1.992-.31-2.565.011-.623.3-.894.61-.914zm-79.765 6.42c1.237 4.988 1.546 6.239 3.406 10.803 2.256 4.568 2.921 6.05 6.693 11.037-.447.408-.761.519-1.136.88-.39.376-.67.748-1.079 1.032-3.31-3.56-5.822-7.065-8.396-10.807-2.167-3.966-3.115-6.369-4.262-12.816 1.066.087 2.321-.062 2.826.055.844.233.952.212 1.948-.184zm80.41 1.701c.546-.008 1.17.34 1.281.881.23 1.107.057 1.889-.006 2.729-.118 1.562.18 2.81-.61 3.164-.978.44-1.582.515-1.91-.114-.255-.49-.006-.768.26-3.12.165-1.456.04-1.95.127-2.801.054-.511.433-.733.858-.739zm-1.096 8.074c.46-.01 1.01.454 1.225 1.03.309.83-.537 2.086-.918 2.926-.647 1.427-1.207 2.682-1.764 3.164-.688.596-.596.43-1.432.166-.334-.105.166-1.282.538-2.207.965-2.401 1.151-2.428 1.716-4.471.118-.425.36-.602.635-.608zm-3.478 8.192c.377-.01.68.661.574 1.535-.054.443-1.214 2.405-1.793 3.086-1.016 1.193-1.404 2.005-1.961 2.488-.688.595-.479.43-1.315.166-.333-.105-1.002-.477-.017-1.375 1.739-1.584 2.996-3.545 3.98-5.422.173-.329.36-.474.532-.478zm-65.034 5.15c1.873 2.367 2.582 3.457 5.395 5.875 1.699 1.708 4.375 3.288 6.637 3.985-.28.716-.384.81-.633 1.177-.258.381-.28.46-.81 1.055-4.458-1.797-5.11-3.19-7.288-4.787-2.882-2.854-3.986-3.908-5.531-5.748.986-.628.671-.481 1.316-.898.283-.272.481-.376.914-.659zm58.774 2.422c.436-.048.775.987.996 1.39.214.392-.864 1.488-1.557 2.054-1.413 1.153-1.601 1.57-3.072 1.775-.901.125-.955-.128-1.672-.67-.279-.211-.44-.262.658-1.016 1.381-.949 3.712-2.317 4.258-3.2.137-.222.267-.32.389-.333zm-7.3 5.02c.638.388.426.224.708.74.214.392.268.279.074 1.219-2.663 1.418-4.083 2.346-8.39 3.57-5.713 1.178-5.808 1.075-10.53 1.896-.184-.859-.159-.662-.28-1.263-.046-.553-.055-.743-.099-1.572 3.664-.39 5.807-.629 10.141-1.522 1.817-.61 5.21-1.167 8.375-3.068zm-37.82 3.119c.965.245 4.02 1.2 8.077 1.578 2.254.146 3.984.526 9.683.148.054.73-.035.509-.004 1.19.034.72.043.79.147 1.553-2.862.385-5.428.53-11.522.324-4.959-.967-5.41-1.07-7.431-2.274.333-.66.199-.821.553-1.382.114-.554.065-.348.498-1.137z"/><path d="M507.732 150.808c0 1.143.664 2.07 1.484 2.07.819 0 1.484-.927 1.484-2.07 0-1.144-.665-2.071-1.484-2.071-.799 0-1.455.883-1.483 1.998"/><path fill="none" stroke="#000" stroke-width="1.7" d="M504.75 152.335c.939 2.377 3.698 3.569 6.162 2.663s3.699-3.567 2.76-5.944-3.698-3.569-6.162-2.663c-2.46.905-3.697 3.561-2.763 5.936"/><path fill="none" stroke="#000" stroke-width="1.7" d="M522.017 144.629c-6.178-3.258-14.716 1.797-14.716 1.797"/><path d="M374.604 340.39c-17.224 0-34.448.833-43.647 2.497-5.97.979-10.007 2.61-13.379 3.547-1.91-3.82-1.508-2.3-1.9-3.377-1.566-3.914-11.927-3.302-26.215 1.787-11.548 3.914-28.185 11.94-34.84 16.441-2.153 1.565-1.957 3.328 1.371 9.983 2.348 4.306 4.697 8.023 5.088 8.023.588 0 7.047-2.935 14.29-6.654 7.24-3.523 16.493-8.172 20.745-9.004 3.251-.636 6.223-1.238 8.06-2.002.74 1.798.285.796 1.634 3.619 1.938 4.058.73 3.966 4.084 5.076 3.535 1.171 12.253-3.56 12.253-3.56 10.178-3.523 15.855-3.916 52.456-3.916s42.277.392 52.455 4.11c0 0 8.19 2.787 9.244 3.124 1.046.335 1.597.599 2.703.334 1.008-.242 2.056-1.784 2.521-2.715 0 0 2.252-5.408 2.83-7.305 1.95.938 5.503 2.159 8.928 3.235 4.111 1.37 13.31 5.48 20.553 9.004 7.24 3.719 13.7 6.654 14.289 6.654.391 0 2.739-3.717 5.088-8.023 4.697-9.2 5.088-8.418-11.94-17.225-22.704-11.744-45.407-17.029-47.56-11.352-.392 1.076-.725 1.706-1.262 3.102-2.276-.524-8.231-1.927-14.201-2.906-9.199-1.664-26.424-2.496-43.648-2.496zm-65.94 1.64c2.04-.065 3.627.206 4.7.779-4.168 1.047-8.456 5.858-10.676 11.425 1.925 5.498 1.311 3.013 1.806 5.897-2.713.576-4.917.674-7.951 1.75-4.11 1.174-13.526 5.261-20.963 8.98-7.016 3.603-13.116 6.309-13.846 6.118-.005-.002-.024-.027-.029-.03-.195-.392-1.963-3.344-3.53-6.672-3.717-7.24-3.33-7.633 10.372-14.484 15.95-8.115 31.713-13.499 40.117-13.764zm64.307.14c.524-.005 1.032.004 1.556 0 16.576.34 33.541.799 41.174 1.973 6.508 1.21 10.66 1.214 15.098 3.086 3.738 1.577 4.815 1.77 10.48 4.31 2.623 1.175 1.776.192 3.7.473-.73 5.037-2.185 9.065-3.393 12.064-.887 2.203-1.545 4.027-2.809 4.254-2.459.441-4.988-1.225-11.12-3.336-8.46-2.95-15.833-4.113-52.434-4.113-36.405 0-42.288.397-52.27 3.92 0 0-7.77 3.85-11.342 3.752-3.572-.097-2.92-2.02-4.226-5.06-1.242-2.89-1.186-4.874-2.64-8.173 1.836-1.104 3.316-1.41 5.003-2.67 4.612-2.402 11.314-6.341 23.742-8.396 7.3-1.137 23.256-1.93 39.48-2.084zm68.004.027c3.904-.03 9.803 1.331 17.822 4.004 12.526 4.306 29.946 12.352 34.252 15.875 1.957 1.566 1.766 3.308-.78 8.201-1.564 3.327-3.336 6.281-3.53 6.672h-.028c-.012.006-.04.028-.057.03-.887.098-6.914-2.574-13.816-6.118-7.438-3.719-16.825-7.804-20.74-8.978-3.131-1.077-6.92-2.645-8.453-3.338.662-2.339.819-2.99 1.002-4.697.396-3.698.412-5.687-3.698-7.84-1.108-.581-3.103-2.375-4.81-3.45.792-.233 1.73-.352 2.836-.36zm-4.92 1.586c1.263 1.03 3.402 2.486 4.724 3.225 1.874 1.046 2.829 1.705 3.143 2.113.015.021.044.062.055.082a.517.517 0 0 1 .056.14v.083c0 .005.002.023 0 .027s-.024.024-.027.03c-.005.007-.022.02-.03.027a.404.404 0 0 1-.054.054c-.005.003-.022.027-.028.03a1.514 1.514 0 0 1-.056.027c-.221.09-.602.111-1.084.111-2.251.098-6.627-2.628-7.924-3.086.184-.894.268-1.667.861-2.39.11-.169.227-.325.364-.473zm-121.526.057c.09.15.168.301.225.47.196.588.403.755 2.002 3.225-2.426 1.007-.349.293-4.254 1.75-4.553 1.543-6.457 3.258-6.813 3.42h-.054v-.027c.007-.027.033-.089.055-.139 1.086-2.386 1.46-3.713 3.974-5.422 1.4-.95 3.58-2.297 4.865-3.277z"/><g aria-label="RA HACHIRI"><path d="m329.894 347.784 2.275-.247q1.903-.206 2.596-.124 1.043.123 1.763.822.72.693.84 1.811.102.932-.265 1.687-.358.754-1.134 1.207-.777.446-2.213.61l4.685 4.867-1.414.153-4.677-4.868-.652.07.576 5.313-1.142.124zm1.263.994.42 3.884 1.967-.198q1.142-.123 1.662-.4.528-.277.78-.784.258-.515.194-1.105-.062-.575-.423-1.007-.362-.44-.89-.588-.526-.147-1.699-.02zM345.035 346.808l5.757 11.298-1.234.043-1.935-3.716-4.95.173-1.665 3.841-1.28.045 5.026-11.675zm-.056 2.44-1.83 4.23 3.927-.136zM356.837 346.434l1.156-.015.062 4.82 5.843-.075-.061-4.82 1.156-.015.147 11.492-1.157.014-.07-5.546-5.844.075.071 5.546-1.156.015zM372.657 346.276l5.326 11.507-1.234-.004-1.794-3.786-4.953-.014-1.808 3.776-1.281-.004 5.463-11.477zm-.148 2.437-1.988 4.158 3.93.012zM390.654 348.744l-.92.677q-.73-.992-1.775-1.513-1.036-.529-2.294-.554-1.374-.028-2.56.612-1.185.632-1.855 1.736-.663 1.096-.692 2.487-.042 2.1 1.367 3.536 1.416 1.435 3.61 1.48 2.414.049 4.077-1.809l.893.706q-.882 1.076-2.183 1.651-1.293.568-2.878.536-3.015-.061-4.717-2.104-1.426-1.724-1.377-4.122.05-2.523 1.851-4.206 1.808-1.69 4.472-1.636 1.609.032 2.892.7 1.284.658 2.089 1.823zM393.063 346.644l1.156.032-.13 4.818 5.842.158.13-4.818 1.156.03-.31 11.489-1.157-.031.15-5.545-5.841-.158-.15 5.545-1.156-.032zM403.892 346.968l1.148.036-.363 11.486-1.148-.036zM408.186 347.021l2.284.162q1.91.135 2.576.338 1.004.306 1.589 1.123.585.81.505 1.931-.066.935-.56 1.613-.487.678-1.33.987-.844.3-2.287.206l3.746 5.622-1.419-.1-3.737-5.622-.655-.046-.377 5.33-1.146-.08zm1.067 1.203-.276 3.897 1.97.155q1.146.08 1.707-.099.569-.179.906-.633.346-.46.388-1.053.04-.577-.238-1.066-.278-.498-.77-.736-.492-.239-1.669-.322zM418.86 348.128l1.13.206-2.055 11.306-1.13-.205z"/></g><path fill="none" stroke="#000" d="m329.705 363.563 6.02-.902 7.674-.301 13.844-.452 16.252-.15 22.271.451 14.296.452 4.966.451 4.966.903 3.762.903 4.966 1.505 3.611 1.504"/><path fill="none" stroke="#000" stroke-width="2.134" d="M290.865 110.258v194.05q0 15.161 13.355 15.161h54.087q13.354 0 16.693 9.096 3.339-9.096 16.693-9.096h54.087q13.355 0 13.355-15.16V110.258z"/><path fill="#38549d" d="M307.553 124.773c-5.299 2.759-8.057 6.823-8.492 12.339-.436 5.952.871 10.162 4.282 13.355 1.524 1.524 2.831 2.976 2.831 3.339 0 .29-1.16 1.742-2.613 3.121-3.41 3.193-5.37 7.403-5.37 11.758 0 4.5 1.378 7.621 5.08 11.685l3.048 3.339-3.339 3.702c-6.677 7.403-6.459 15.895.508 22.935l2.976 3.121h136.67l3.34-3.556c6.458-6.895 6.458-14.371.071-22.282l-3.266-3.992 3.05-3.629c6.676-7.984 6.531-15.315-.364-23.009-3.12-3.411-3.194-4.064-.726-5.661 3.992-2.685 6.46-11.758 4.645-17.274-2.685-8.274-14.226-13.791-21.266-10.162-1.307.654-3.92 2.468-5.879 3.992-1.96 1.597-3.774 2.831-4.137 2.831-.29 0-2.033-1.306-3.847-2.903-7.04-6.024-15.315-5.589-22.355 1.234l-2.685 2.613-3.557-3.267c-7.185-6.75-16.186-6.459-23.516.654l-2.686 2.613-2.903-2.613c-4.282-3.92-7.113-5.081-12.048-5.154-4.718-.072-9.145 1.888-12.629 5.662l-1.742 1.814-3.774-3.193c-6.968-5.952-12.557-6.968-19.307-3.412z"/><path fill="none" stroke="#000" stroke-width="2" d="M307.553 124.773c-5.299 2.759-8.057 6.823-8.492 12.339-.436 5.952.871 10.162 4.282 13.355 1.524 1.524 2.831 2.976 2.831 3.339 0 .29-1.16 1.742-2.613 3.121-3.41 3.193-5.37 7.403-5.37 11.758 0 4.5 1.378 7.621 5.08 11.685l3.048 3.339-3.339 3.702c-6.677 7.403-6.459 15.895.508 22.935l2.976 3.121h136.67l3.34-3.556c6.458-6.895 6.458-14.371.071-22.282l-3.266-3.992 3.05-3.629c6.676-7.984 6.531-15.315-.364-23.009-3.12-3.411-3.194-4.064-.726-5.661 3.992-2.685 6.46-11.758 4.645-17.274-2.685-8.274-14.226-13.791-21.266-10.162-1.307.654-3.92 2.468-5.879 3.992-1.96 1.597-3.774 2.831-4.137 2.831-.29 0-2.033-1.306-3.847-2.903-7.04-6.024-15.315-5.589-22.355 1.234l-2.685 2.613-3.557-3.267c-7.185-6.75-16.186-6.459-23.516.654l-2.686 2.613-2.903-2.613c-4.282-3.92-7.113-5.081-12.048-5.154-4.718-.072-9.145 1.888-12.629 5.662l-1.742 1.814-3.774-3.193c-6.968-5.952-12.557-6.968-19.307-3.412z"/><path fill="#e42322" d="M304.03 217.726c-7.114 7.911-7.04 15.968.144 23.952l2.686 2.975-3.049 3.339c-1.669 1.815-3.484 4.428-4.064 5.734-2.323 5.589-.58 13.065 3.992 17.347 2.758 2.685 2.83 3.774.217 6.968-1.16 1.379-2.54 3.338-3.048 4.355-5.444 10.306 2.685 23.225 14.734 23.225 4.79 0 8.42-1.524 11.685-5.008 2.613-2.758 3.992-2.83 6.315-.363 3.411 3.775 7.911 6.097 11.685 6.097 4.428 0 7.186-1.379 11.686-5.661l3.411-3.339 3.121 3.411c6.75 7.259 13.573 7.476 22.645.581l3.702-2.758 3.194 2.903c3.992 3.484 6.967 4.863 10.887 4.863 3.92 0 6.822-1.524 11.395-6.024l3.774-3.629 2.903 2.613c5.59 5.008 8.638 6.605 12.702 6.605 4.21 0 7.186-1.379 11.395-5.154 3.92-3.556 6.024-7.693 5.516-11.104-.508-3.702-3.846-10.452-6.314-12.775l-2.105-2.032 3.266-3.701c7.113-8.347 7.186-14.807.145-23.081l-2.903-3.484 3.048-3.702c6.823-8.056 6.75-15.532-.145-22.863l-3.7-3.846-67.937.072-67.936.073z"/><path fill="none" stroke="#000" stroke-width="2" d="M304.03 217.726c-7.114 7.911-7.04 15.968.144 23.952l2.686 2.975-3.049 3.339c-1.669 1.815-3.484 4.428-4.064 5.734-2.323 5.589-.58 13.065 3.992 17.347 2.758 2.685 2.83 3.774.217 6.968-1.16 1.379-2.54 3.338-3.048 4.355-5.444 10.306 2.685 23.225 14.734 23.225 4.79 0 8.42-1.524 11.685-5.008 2.613-2.758 3.992-2.83 6.315-.363 3.411 3.775 7.911 6.097 11.685 6.097 4.428 0 7.186-1.379 11.686-5.661l3.411-3.339 3.121 3.411c6.75 7.259 14.227 7.476 22.645.581l3.702-2.758 3.194 2.903c3.992 3.484 6.967 4.863 10.887 4.863 3.92 0 6.822-1.524 11.395-6.024l3.774-3.629 2.903 2.613c5.59 5.008 8.638 6.605 12.702 6.605 15.135-1.82 22.674-17.024 10.597-29.033l-2.105-2.032 3.266-3.701c7.113-8.347 7.186-14.807.145-23.081l-2.903-3.484 3.048-3.702c6.823-8.056 6.75-15.532-.145-22.863l-3.7-3.846-67.937.072-67.936.073z"/><path fill="#fff" stroke="#000" stroke-linejoin="round" stroke-width="2" d="M344.52 167.762c0 16.09 13.537 29.138 30.223 29.138s30.223-13.048 30.223-29.138c0-6.778-2.4-13.02-6.43-17.973-1.302 19.805-15.542 26.221-23.793 26.221s-22.49-6.416-23.793-26.221c-4.029 4.952-6.43 11.195-6.43 17.973z"/><g fill="#f5e60a"><path d="M341.284 246.648c-.13 4.233.073 6.171.743 9.309-2.132-2.057-4.278-3.494-7.23-5.207-3.762-2.183-8.51-4.267-10.124-1.604-1.552 2.564 2.901 6.074 6.387 8.041 3.811 2.151 6.008 2.445 8.488 3.418-2.1 1.11-4.964 1.856-8.139 3.892-3.114 1.998-7.77 6.133-6.004 8.772 1.798 2.687 6.992-.332 9.921-2.293 2.44-1.632 5.667-4.209 6.923-5.528-.248 1.893-.998 5.667-.943 9.275.068 4.382.674 9.286 3.938 9.278 3.331-.008 4.04-5.784 3.987-9.688-.055-4.08-.52-6.965-.922-8.978a67.946 67.946 0 0 0 6.492 5.846c2.37 1.868 8.173 4.635 9.911 1.984 1.77-2.698-.985-5.379-6.046-8.591-3.547-2.252-6.059-3.022-8.37-3.979 2.337-.958 4.892-1.203 8.627-3.474 5.541-3.369 7.89-5.621 6.191-8.521-1.65-2.82-4.988-1.279-10.056 1.945-2.716 1.727-5.256 4.016-6.978 5.663.394-2.591.817-6.411.785-9.241-.049-4.206-.97-9.644-3.835-9.66-2.864-.017-3.603 4.71-3.746 9.341z"/><path stroke="#000" stroke-width="1.625" d="M341.284 246.648c-.13 4.233.073 6.171.743 9.309-2.132-2.057-4.278-3.494-7.23-5.207-3.762-2.183-8.51-4.267-10.124-1.604-1.552 2.564 2.901 6.074 6.387 8.041 3.811 2.151 6.008 2.445 8.488 3.418-2.1 1.11-4.964 1.856-8.139 3.892-3.114 1.998-7.77 6.133-6.004 8.772 1.798 2.687 6.992-.332 9.921-2.293 2.44-1.632 5.667-4.209 6.923-5.528-.248 1.893-.998 5.667-.943 9.275.068 4.382.674 9.286 3.938 9.278 3.331-.008 4.04-5.784 3.987-9.688-.055-4.08-.52-6.965-.922-8.978a67.946 67.946 0 0 0 6.492 5.846c2.37 1.868 8.173 4.635 9.911 1.984 1.77-2.698-.985-5.379-6.046-8.591-3.547-2.252-6.059-3.022-8.37-3.979 2.337-.958 4.892-1.203 8.627-3.474 5.541-3.369 7.89-5.621 6.191-8.521-1.65-2.82-4.988-1.279-10.056 1.945-2.716 1.727-5.256 4.016-6.978 5.663.394-2.591.817-6.411.785-9.241-.049-4.206-.97-9.644-3.835-9.66-2.864-.017-3.603 4.71-3.746 9.341z"/><path d="M349.508 260.635a4.458 4.458 0 1 1 0-.005"/><path stroke="#000" stroke-width="2.793" d="M349.508 260.635a4.458 4.458 0 1 1 0-.005"/></g><g fill="#f5e60a"><path d="M401.17 246.648c-.13 4.233.073 6.171.742 9.309-2.13-2.057-4.278-3.494-7.23-5.207-3.76-2.183-8.51-4.267-10.123-1.604-1.552 2.564 2.9 6.074 6.386 8.041 3.812 2.151 6.01 2.445 8.49 3.418-2.1 1.11-4.965 1.856-8.14 3.892-3.114 1.998-7.77 6.133-6.004 8.772 1.797 2.687 6.992-.332 9.921-2.293 2.44-1.632 5.667-4.209 6.923-5.528-.249 1.893-.999 5.667-.943 9.275.068 4.382.674 9.286 3.938 9.278 3.331-.008 4.04-5.784 3.987-9.688-.055-4.08-.52-6.965-.922-8.978a67.822 67.822 0 0 0 6.492 5.846c2.37 1.868 8.173 4.635 9.911 1.984 1.77-2.698-.985-5.379-6.046-8.591-3.547-2.252-6.059-3.022-8.37-3.979 2.336-.958 4.891-1.203 8.627-3.474 5.541-3.369 7.89-5.621 6.191-8.521-1.65-2.82-4.988-1.279-10.056 1.945-2.716 1.727-5.256 4.016-6.978 5.663.394-2.591.817-6.411.785-9.241-.049-4.206-.97-9.644-3.835-9.66-2.864-.017-3.603 4.71-3.746 9.341z"/><path stroke="#000" stroke-width="1.625" d="M401.17 246.648c-.13 4.233.073 6.171.742 9.309-2.13-2.057-4.278-3.494-7.23-5.207-3.76-2.183-8.51-4.267-10.123-1.604-1.552 2.564 2.9 6.074 6.386 8.041 3.812 2.151 6.01 2.445 8.49 3.418-2.1 1.11-4.965 1.856-8.14 3.892-3.114 1.998-7.77 6.133-6.004 8.772 1.797 2.687 6.992-.332 9.921-2.293 2.44-1.632 5.667-4.209 6.923-5.528-.249 1.893-.999 5.667-.943 9.275.068 4.382.674 9.286 3.938 9.278 3.331-.008 4.04-5.784 3.987-9.688-.055-4.08-.52-6.965-.922-8.978a67.822 67.822 0 0 0 6.492 5.846c2.37 1.868 8.173 4.635 9.911 1.984 1.77-2.698-.985-5.379-6.046-8.591-3.547-2.252-6.059-3.022-8.37-3.979 2.336-.958 4.891-1.203 8.627-3.474 5.541-3.369 7.89-5.621 6.191-8.521-1.65-2.82-4.988-1.279-10.056 1.945-2.716 1.727-5.256 4.016-6.978 5.663.394-2.591.817-6.411.785-9.241-.049-4.206-.97-9.644-3.835-9.66-2.864-.017-3.603 4.71-3.746 9.341z"/><path d="M409.394 260.635a4.458 4.458 0 1 1 0-.005"/><path stroke="#000" stroke-width="2.793" d="M409.394 260.635a4.458 4.458 0 1 1 0-.005"/></g><g aria-label="DPARTEMENT"><path d="M158.644 86.383c0 1.35.058 2.053 1.349 2.464 2.053.704 6.864.88 8.741.88 2.816 0 12.731 0 18.774-7.099 1.936-2.23 4.693-6.688 4.693-14.139 0-9.093-3.872-13.904-6.043-15.957-5.456-5.104-13.024-5.28-16.074-5.28-3.931 0-8.859.587-10.326 1.232-.821.293-1.114.763-1.114 1.936zm10.149-32.736c.704-.118 1.173-.118 1.701-.118 5.867 0 11.03 4.166 11.03 14.784 0 8.155-3.11 15.078-12.731 14.667zM223.798 71.188c1.056 0 1.525-.117 1.525-1.35V65.85c.059-1.232-.587-1.29-1.467-1.29h-9.914V54.527h11.968c1.056 0 1.642-.176 1.642-1.526v-3.989c0-1.232-.645-1.29-1.642-1.29h-20.416c-1.35.058-1.643.527-1.702 1.76V87.79c0 1.29.646 1.408 1.643 1.408h20.533c1.232 0 1.584-.293 1.584-1.467v-3.99c0-1.29-.586-1.466-1.525-1.466h-12.085V71.188zm-1.232-31.152c.821-.704 1.76-1.525 1.76-3.168 0-1.467-.939-2.933-2.523-2.933-1.115 0-1.701.645-2.17 1.173l-4.87 5.808c-.352.41-.645 1.232-.645 1.819 0 1.232.821 1.936 1.818 1.936.763 0 1.291-.41 1.76-.822zM239.144 87.732c0 1.29.528 1.467 1.584 1.467h7.157c1.115 0 1.467-.293 1.467-1.35V73.184c1.525.058 2.464.117 3.344.117 9.504 0 15.429-4.752 15.429-13.141 0-12.262-11.733-12.907-17.365-12.907-3.403 0-8.448.352-10.208.88-1.115.293-1.408.763-1.408 2.053zm10.208-34.379a7.755 7.755 0 0 1 1.76-.176c5.573 0 6.688 3.696 6.688 7.1 0 4.575-2.054 7.098-6.688 7.098-.646 0-1.056-.059-1.76-.118zM296.319 87.967c.352 1.056.704 1.232 1.701 1.232h7.744c.646-.059 1.35-.059 1.35-.997 0-.294-.06-.528-.176-.822l-13.435-38.427c-.352-.997-.587-1.232-1.701-1.232h-4.576c-1.056 0-1.35.235-1.702 1.232l-13.552 38.31c-.234.645-.293.821-.293 1.056 0 .704.587.88 1.173.88h5.104c1.056 0 1.408-.293 1.702-1.232l2.698-8.33h11.206zM284.058 74.12l3.813-13.024 3.93 13.024zM317.18 87.908c.058 1.115.469 1.29 1.407 1.29h6.982c1.232 0 1.525-.351 1.584-1.466V73.828c0-.352 0-1.232.88-1.232.645 0 .997.645 1.173.997l7.099 14.257c.586 1.173.938 1.349 2.288 1.349h7.685c.645.059 1.29-.176 1.29-.939 0-.352-.175-.645-.527-1.232l-9.856-16.603c3.93-1.7 7.92-5.045 7.92-10.97 0-12.144-12.848-12.144-16.544-12.144-3.403 0-8.624.352-10.208.821-.822.293-1.115.645-1.174 1.877zm9.973-34.672c.704-.059 1.173-.059 1.466-.059 2.523 0 6.512.352 6.512 7.568 0 7.568-5.808 7.392-7.978 7.275zM380.163 54.527c1.29 0 1.349-.704 1.349-1.467v-3.99c0-1.173-.645-1.29-1.408-1.29h-25.285c-1.174 0-1.35.587-1.35 1.408v3.872c0 1.232.411 1.467 1.467 1.467h7.45v33.088c0 1.232.353 1.584 1.585 1.584h7.216c1.173 0 1.408-.528 1.408-1.525V54.527zM411.642 71.188c1.056 0 1.525-.117 1.525-1.35V65.85c.059-1.232-.586-1.29-1.466-1.29h-9.915V54.527h11.968c1.056 0 1.643-.176 1.643-1.526v-3.989c0-1.232-.646-1.29-1.643-1.29h-20.416c-1.35.058-1.643.527-1.701 1.76V87.79c0 1.29.645 1.408 1.642 1.408h20.534c1.232 0 1.584-.293 1.584-1.467v-3.99c0-1.29-.587-1.466-1.526-1.466h-12.085V71.188zM459.607 87.732c0 .998.234 1.467 1.466 1.467h6.278c1.114 0 1.584-.176 1.584-1.35V49.072c0-1.174-.528-1.29-1.408-1.29h-7.392c-1.115 0-1.408.234-1.82 1.348l-9.034 23.056-9.093-22.997c-.47-1.173-.704-1.408-1.995-1.408h-7.392c-1.114 0-1.35.528-1.35 1.35v38.66c0 .998.294 1.409 1.468 1.409h4.517c1.056 0 1.525-.235 1.525-1.525V63.268l9.504 24.816c.528 1.232.998 1.29 1.995 1.29.821 0 1.115-.175 1.525-1.231l9.622-24.875zM504.403 71.188c1.056 0 1.526-.117 1.526-1.35V65.85c.058-1.232-.587-1.29-1.467-1.29h-9.915V54.527h11.968c1.056 0 1.643-.176 1.643-1.526v-3.989c0-1.232-.645-1.29-1.643-1.29H486.1c-1.35.058-1.642.527-1.701 1.76V87.79c0 1.29.645 1.408 1.643 1.408h20.533c1.232 0 1.584-.293 1.584-1.467v-3.99c0-1.29-.587-1.466-1.525-1.466h-12.086V71.188zM531.541 49.07c-.704-1.055-1.056-1.29-2.23-1.29h-5.573c-.88 0-1.525.176-1.525 1.408V87.85c0 1.056.352 1.349 1.467 1.349h4.752c1.232 0 1.466-.47 1.466-1.467V63.268l15.723 24.64c.763 1.115.997 1.29 2.347 1.29h3.813c1.173 0 1.408-.41 1.408-1.348V49.188c0-.88-.176-1.467-1.408-1.408h-4.87c-.938 0-1.29.235-1.29 1.29v22.294zM590.007 54.527c1.29 0 1.35-.704 1.35-1.467v-3.99c0-1.173-.646-1.29-1.409-1.29h-25.285c-1.173 0-1.35.587-1.35 1.408v3.872c0 1.232.411 1.467 1.467 1.467h7.451v33.088c0 1.232.352 1.584 1.584 1.584h7.216c1.173 0 1.408-.528 1.408-1.525V54.527z"/></g></svg>