<svg xmlns="http://www.w3.org/2000/svg" viewBox="0 0 640 480"><path fill="#fff100" d="M-1.881 0h641.535v479.998H-1.88z"/><path fill="#ec1b23" fill-rule="evenodd" d="M640.003 480.005 0 .01h640.002v479.995" clip-rule="evenodd"/><g fill-rule="evenodd" clip-rule="evenodd"><path d="M472.267 168.864c-.086.083-.218.146-.218.248-.022.477-.283.849-.575 1.242a11.654 11.654 0 0 1-2.031 2.049c-.978.806-2 1.509-3.075 2.172a298.61 298.61 0 0 0-3.444 2.048c-.999.58-1.976 1.16-2.912 1.78-1.042.64-1.966 1.406-2.748 2.358a60.425 60.425 0 0 1-2.14 2.297c-2.477 2.462-4.931 4.945-7.387 7.429-2.172 2.15-4.214 4.345-6.105 6.704-.477.6-.913 1.263-1.347 1.883-.38.56-.51 1.18-.534 1.843-.096 2.502.132 4.986.588 7.47.641 3.516 1.683 6.93 2.836 10.324 1.564 4.614 3.204 9.229 4.759 13.822 1.933 5.65 3.529 11.36 4.93 17.112 1.37 5.503 2.608 11.05 3.76 16.554.901 4.18 1.802 8.318 2.704 12.477.315 1.47.77 2.877 1.195 4.284.251.786.64 1.47 1.076 2.173.891 1.49 1.782 2.959 2.63 4.47.955 1.695 1.88 3.434 2.629 5.235.457 1.118.804 2.277 1.13 3.456.521 2.173.456 4.283-.153 6.413-.477 1.552-1.096 3.022-1.976 4.408-1.477 2.276-3.303 4.242-5.585 5.835a16.531 16.531 0 0 1-3.237 1.718 11.232 11.232 0 0 1-3.737.682c-1.793.021-3.542-.27-5.302-.64-2.586-.56-5.084-1.305-7.604-2.029-1.27-.394-2.575-.807-3.89-1.118-1.195-.27-2.412-.455-3.617-.621-2-.27-4.032-.537-6.03-.827-1.793-.228-3.54-.498-5.345-.745-1.672-.25-3.368-.477-5.041-.766-2.52-.415-5.052-.849-7.54-1.283-7.974-1.47-15.893-3.145-23.65-5.462a76.718 76.718 0 0 1-15.502-6.478c-6.128-3.394-11.95-7.138-17.644-11.111-3.041-2.132-6.062-4.303-9.092-6.476a9.654 9.654 0 0 1-.75-.539c-.271-.206-.565-.247-.88-.062-.816.518-1.609 1.013-2.412 1.531-.261.144-.337.414-.218.704.055.206.164.433.24.64.587 1.345.825 2.773.922 4.2.045.664-.097 1.305-.335 1.904-.141.394-.25.808-.37 1.222-.196.62-.196 1.263-.066 1.902.26 1.367.837 2.608 1.62 3.767a16.407 16.407 0 0 0 2.628 3.063c.707.64 1.413 1.282 2.086 1.883.154.145.251.31.37.456l-.075.185c-.098.04-.25.063-.25.063a46.384 46.384 0 0 1-2.01-.207c-.348-.021-.717-.021-1.076-.04-.153 0-.271.225-.217.329.065.165.086.31.162.434.435.766.934 1.51 1.5 2.194 1.065 1.261 2.38 2.088 4.02 2.503 1.401.33 2.77.724 4.14 1.138 3.433 1.076 6.79 2.4 10.081 3.91.467.227.923.496 1.402.766.119.082.097.352-.044.393-.282.145-.533.29-.847.352-1.12.269-2.26.455-3.434.455h-4.53c-1.087 0-2.13.063-3.216.248-.77.104-1.477.29-2.15.622a1.787 1.787 0 0 0-.391.248c-.12.062-.184.289-.097.414.097.123.152.27.272.373 2.291 2.338 5.03 4.076 8.267 4.965 1.63.456 3.334.745 5.04.973a63.95 63.95 0 0 0 8.225.352c.966-.02 1.987.042 2.976.187 1.14.123 2.282.29 3.434.496 3.215.58 6.28 1.655 9.158 3.145a47.736 47.736 0 0 1 3.28 1.884c1.76 1.179 3.466 2.42 5.172 3.703.097.082.206.186.293.31l.022.104-.087.166c-.326.02-.608.02-.88.02-1.096-.061-2.15-.124-3.216-.185-.197 0-.39.042-.597.042-.066.02-.142.247-.098.31.077.082.13.207.208.27.248.184.51.371.758.537.828.455 1.652.93 2.5 1.345 1.956.95 3.911 1.84 5.878 2.772a31.98 31.98 0 0 1 3.618 1.842c.413.248.802.496 1.183.87.098.102.054.351-.076.393-.184.082-.36.145-.533.227-.597.227-1.27.454-1.88.703-.455.144-.825.454-1.15.806-.262.331-.315.683-.153 1.077.24.456.586.829 1.065 1.034.5.208.955.394 1.455.58.977.352 2 .661 2.999 1.055.847.31 1.607.662 2.411.993.044.021.108.124.108.124l-.151.186c-.37.022-.74.041-1.088.041-1.618.083-3.29.145-4.888.207-.132 0-.304.04-.435.104 0 0-.065.145-.043.186a.333.333 0 0 0 .152.187c.195.102.414.205.609.31 1.966.91 4.074 1.613 6.126 2.255 1.565.476 3.118.89 4.682 1.386.337.104.706.145.967.393.044.04.022.145.022.208l-.087.082c-.153.02-.304.102-.456.125-2.01.205-3.955.33-5.975.145-1.076-.105-2.218-.125-3.335-.332a17.29 17.29 0 0 0-1.033-.166l-.196.083c-.065.063-.087.145-.043.207.109.165.217.331.315.455.836.89 1.683 1.759 2.53 2.628.218.227.435.435.653.662.13.145.303.248.26.476-.022.103-.208.144-.522.061-.37-.04-.727-.123-1.053-.185a42.939 42.939 0 0 1-8.702-3.186c-.359-.167-.706-.331-1.086-.498 0 0-.217-.061-.326-.103-.12-.02-.304.145-.304.27.097.496.358.951.63 1.345.793 1.096 1.563 2.235 2.336 3.331.173.206.292.455.433.683.034.082-.098.248-.098.248h-.335s-.24-.021-.359-.042c-1.912-.455-3.726-1.076-5.562-1.78a69.616 69.616 0 0 1-4.573-1.945c-.967-.475-1.957-.973-2.9-1.593-.153-.103-.327-.165-.51-.247-.133-.062-.392.062-.392.186-.032.145-.076.289-.054.455.054.579.314 1.097.608 1.593.37.62.76 1.263 1.162 1.862.12.186.217.393.315.6 0 0-.043.145-.066.207-.033.022-.076.041-.076.041l-.26-.04c-.467-.207-.977-.374-1.434-.622a61.274 61.274 0 0 1-5.323-3 121.975 121.975 0 0 0-2.488-1.594c-.26-.185-.533-.35-.803-.517-.175-.103-.392-.206-.534-.082-.119.082-.141.29-.141.434 0 .29.043.6.098.89.086.724.217 1.427.293 2.13.065.436.065.85.065 1.264 0 .124 0 .289-.173.393-.098.063-.26.02-.38-.145 0 0-.054-.042-.076-.083-1.087-1.179-2.347-2.172-3.705-3.083-1.52-1.056-3.096-2.11-4.638-3.165a272.508 272.508 0 0 0-2.64-1.802c-1.206-.847-2.324-1.82-3.433-2.792-1.088-.953-1.933-2.008-2.716-3.166-.739-1.159-1.304-2.339-1.587-3.684-.032-.145-.077-.27-.109-.414-.087-.454-.36-.786-.716-1.055-.175-.125-.392-.27-.545-.393-.39-.31-.802-.64-1.15-.973a8.55 8.55 0 0 1-2.652-4.138c-.14-.456-.217-.87-.401-1.305-.63-1.531-1.772-2.689-3.194-3.6 0 0-.13-.081-.227-.104-.13-.082-.425.063-.446.228l-.045.124c-.032.187-.032.29-.032.415-.098 2.753-.456 5.443-.923 8.153-.185.973-.338 1.925-.533 2.897-.065.207-.14.434-.218.64-.043.105-.098.146-.098.146-.162-.083-.237-.124-.259-.187a8.933 8.933 0 0 1-.327-.827c-.216-.662-.456-1.304-.683-1.945-1.413-4.097-3.412-7.926-5.943-11.484-1.293-1.841-2.684-3.6-4.107-5.319-.75-.827-1.38-1.779-2.054-2.689-.391-.536-.76-1.055-1.238-1.51a2.56 2.56 0 0 0-.848-.6c-.337-.166-.695-.144-1.032.04-.153.105-.327.25-.446.374-.413.414-.804.828-1.195 1.282-.315.352-.544.745-.88 1.056-.218.206-.457.433-.707.6a.674.674 0 0 1-1.064-.496 1.392 1.392 0 0 1 .021-.56c.142-.703.295-1.428.467-2.11.142-.621.315-1.262.457-1.883.054-.29.097-.601.097-.911-.02-.89-.531-1.429-1.487-1.429a15.1 15.1 0 0 0-2.369.125c-1.042.103-2.074.103-3.116.103-.38 0-.772-.083-1.163-.207-.37-.104-.62-.33-.74-.682a12.818 12.818 0 0 1-.217-.642c-.347-1.386-.564-2.751-.728-4.139-.27-2.36-.216-4.717-.14-7.077.021-1.055.11-2.13.24-3.145.096-.869-.099-1.591-.587-2.295-.316-.456-.653-.93-.967-1.409-.228-.351-.478-.723-.652-1.095-.609-1.139-.87-2.338-.534-3.642.338-1.16.609-2.338.913-3.519.175-.724.347-1.468.294-2.254 0-.145 0-.29-.021-.436-.035-.454-.252-.806-.675-1.013a57.91 57.91 0 0 1-1.064-.537 97.851 97.851 0 0 1-3.858-2.05 39.316 39.316 0 0 1-5.844-3.972c-.564-.456-.683-.476-1.336-.062a14.12 14.12 0 0 0-1.077.703 198.026 198.026 0 0 1-11.384 7.305c-5.715 3.415-11.635 6.311-17.806 8.794-5.237 2.09-10.516 3.932-15.883 5.69-2.118.704-4.215 1.345-6.338 2.029-.267.082-.52.186-.772.289-.124.041-.206.186-.206.186.11.145.168.187.238.207.121.021.24.021.24.021 1.43 0 2.733.125 4.048.27 3.334.372 6.573 1.16 9.581 2.649 1.425.703 2.815 1.406 4.162 2.213 5.246 3.02 10.494 6.084 15.73 9.125 3.715 2.152 7.452 4.243 11.298 6.146 2.51 1.242 5.031 2.441 7.682 3.414 1.693.642 3.454 1.2 5.237 1.532 1.107.227 2.27.33 3.476.269.684-.041 1.38-.041 2.107-.104.945-.021 1.825-.104 2.737-.145a73.994 73.994 0 0 1 7.42-.062c1.63.103 3.227.455 4.782 1.014 1.314.455 2.487 1.18 3.432 2.193 1.109 1.241 1.717 2.69 1.78 4.366.078 1.407-.193 2.794-.671 4.118a38.709 38.709 0 0 1-.838 2.358c-.488 1.263-.977 2.505-1.455 3.746-.467 1.262-.827 2.523-.977 3.847-.141 1.015-.066 1.987.335 2.918.447 1.096.902 2.194 1.359 3.29.64 1.51 1.281 3.001 1.792 4.573.685 1.883 1.14 3.787 1.337 5.773.38 3.766-.217 7.408-2.042 10.802a15.64 15.64 0 0 1-1.858 2.792c-.652.726-1.293 1.45-1.934 2.174-.315.33-.608.683-.945 1.013-.577.58-.891 1.242-1.043 2.008-.26 1.344-.728 2.669-1.25 3.91-.315.767-.707 1.448-1.14 2.111-.566.828-1.283 1.47-2.227 1.821a3.154 3.154 0 0 0-.534.29c-.064.042-.064.144-.076.207h-1.206a.658.658 0 0 0-.413-.393c-.293-.104-.608-.186-.923-.29-1.064-.372-1.933-1.033-2.521-1.965a6.231 6.231 0 0 1-.956-2.338c-.164-.828-.196-1.718-.196-2.587.022-1.344.153-2.648.337-3.973.162-1.427.359-2.854.5-4.283.12-1.076-.043-2.028-.467-3.021-.543-1.159-1.021-2.359-1.575-3.56-1.195-2.668-2.325-5.4-3.52-8.09-1.088-2.318-2.238-4.615-3.575-6.807a12.954 12.954 0 0 0-2.922-3.415 13.517 13.517 0 0 0-2.184-1.592c-1.402-.848-2.836-1.574-4.334-2.11-2.357-.89-4.791-1.532-7.215-2.048-2.943-.622-5.952-1.098-8.94-1.574-3.292-.517-6.573-1.056-9.865-1.594-3.889-.62-7.713-1.469-11.56-2.4-4.388-1.095-8.716-2.359-13.046-3.683-6.268-1.883-12.489-3.91-18.703-5.897-2.493-.786-4.991-1.574-7.512-2.255a24.62 24.62 0 0 0-4.944-.786 89.653 89.653 0 0 1-9.387-.931c-2.2-.332-4.35-.849-6.475-1.552a14.325 14.325 0 0 1-5.41-3.228c-2.117-2.029-3.672-4.366-4.676-7.056-.45-1.18-.771-2.4-.941-3.642a17.262 17.262 0 0 1-.087-3.746c.125-1.613.609-3.04 1.52-4.386.355-.497.735-.994 1.108-1.47a30.08 30.08 0 0 1 3.37-3.539c2.052-1.862 4.127-3.684 6.185-5.545.712-.642 1.435-1.305 2.087-2.028 7.898-8.65 16.333-16.803 25.361-24.396 4.758-3.994 9.702-7.74 14.906-11.195a68.962 68.962 0 0 1 9.821-5.4c2-.869 3.998-1.696 6.03-2.504.554-.247.924-.579 1.075-1.137.088-.29.196-.56.305-.849.478-1.386.945-2.731 1.455-4.097 1.315-3.662 3.02-7.18 5.259-10.428.293-.414.565-.807.825-1.241.087-.125.153-.27.228-.415 0 0-.087-.31-.25-.289-.227.021-.477.021-.695.063-.652.185-1.282.372-1.944.579a43.427 43.427 0 0 0-5.922 2.422c-1.542.745-3.117 1.532-4.67 2.276-1.034.476-2.064.973-3.12 1.448-.568.269-1.177.477-1.765.683-.096.041-.227.02-.347.02-.097.022-.228-.124-.21-.206.042-.187.074-.374.135-.538.292-.765.666-1.49 1.107-2.132.794-1.158 1.57-2.317 2.352-3.435.51-.745 1.042-1.448 1.52-2.193.5-.725.978-1.47 1.294-2.296.109-.249.196-.497.261-.767.108-.413-.131-.663-.565-.621h-.37c-1.01.25-2.097.415-3.118.746a47.176 47.176 0 0 0-7.773 3.207c-1.286.662-1.298.662-1.999 1.862-2.858 4.842-5.567 9.809-7.87 14.92-.104.247-.158.537-.409.68-.086.064-.145.064-.195 0-.071-.102-.17-.185-.19-.31-.066-.476-.157-.992-.174-1.447-.038-.642-.01-1.303-.022-1.945-.011-.289-.027-.6-.06-.91-.038-.291-.39-.456-.624-.311-.18.103-.36.186-.51.31-.571.539-1.157 1.034-1.711 1.593-1.114 1.077-2.227 2.152-3.351 3.249a36.366 36.366 0 0 1-4.384 3.703 25.313 25.313 0 0 1-3.128 1.883 7.282 7.282 0 0 1-.653.227c-.066.022-.163 0-.163 0-.179 0-.293-.144-.276-.227.19-.682.51-1.282.814-1.883.402-.849.814-1.655 1.2-2.484.218-.455.407-.93.555-1.385.07-.166.022-.373.022-.558-.011-.125-.24-.25-.37-.186-.32.165-.652.289-.95.476-3.287 1.944-6.617 3.786-9.832 5.813a1.373 1.373 0 0 1-.424.208c-.136.062-.336-.063-.359-.208-.027-.102-.06-.227-.065-.33-.034-.476.027-.93.2-1.324.164-.519.337-1.035.473-1.552.087-.311.104-.663.104-.993.011-.394-.441-.725-.81-.622-.315.062-.62.186-.917.29-1.83.745-3.65 1.49-5.471 2.256-1.315.537-2.646 1.075-3.937 1.613a76.39 76.39 0 0 0-1.718.807c-.13.063-.254.021-.337-.082a.414.414 0 0 1-.135-.29.891.891 0 0 1 .147-.434c.314-.6.733-1.076 1.156-1.572.565-.663 1.125-1.283 1.663-1.945a2.57 2.57 0 0 0 .44-.828c.076-.29-.218-.642-.532-.579-.287.102-.588.186-.902.289-1.402.519-2.82 1.035-4.232 1.552-.902.31-1.803.641-2.69.93-.896.33-1.824.559-2.775.622-.158.02-.305-.041-.467-.083-.104-.022-.168-.207-.12-.29.087-.124.157-.269.256-.371.33-.394.663-.767.972-1.16.164-.207.348-.414.478-.64.217-.374 0-.787-.456-.871-.2-.02-.397-.04-.581-.04-.604 0-1.207.02-1.799.04-2.036.063-4.052.145-6.083.208-.766.041-1.526.02-2.26-.041-.244-.043-.477-.104-.717 0v-.227c2.125-.973 4.286-1.823 6.465-2.69 1.7-.725 3.422-1.408 5.127-2.153a27.283 27.283 0 0 0 4.774-2.586 5.6 5.6 0 0 0 1.038-.745c.25-.25.462-.538.663-.828.206-.27.12-.58-.18-.787a5.816 5.816 0 0 0-.613-.33c-.848-.352-1.734-.579-2.62-.807-.689-.207-1.384-.352-2.057-.538-.424-.125-.83-.248-1.206-.517-.175-.104-.184-.393-.011-.476.24-.125.482-.25.744-.352 3.427-1.325 6.947-2.462 10.543-3.31.527-.125.864-.352 1.113-.767.256-.414.502-.848.588-1.344.022-.104-.086-.352-.196-.393a1.36 1.36 0 0 0-.32-.145c-.728-.187-1.477-.332-2.238-.373a33.808 33.808 0 0 0-5.004-.125c-.478.021-.949.021-1.433.021 0 0-.228-.062-.331-.103-.043-.042-.06-.145-.06-.145.125-.207.315-.289.49-.352 1.223-.476 2.427-.973 3.686-1.385 4.281-1.532 8.639-2.857 13.153-3.642.271-.04.532-.145.803-.207.092-.021.13-.248.049-.31-.152-.124-.288-.27-.456-.332-.863-.455-1.777-.744-2.7-.93-1.603-.33-3.195-.6-4.83-.704-.242 0-.499.021-.698-.124a.414.414 0 0 1-.11-.187l.049-.102c.407-.29.897-.374 1.358-.434 1.036-.125 2.063-.25 3.102-.27a49.04 49.04 0 0 1 4.285.125c1.738.124 3.51.206 5.254.124 1.868-.063 3.73-.207 5.61-.31.201-.02.387-.084.576-.125l.082-.063s0-.165-.034-.186c-.168-.103-.335-.206-.536-.268-1.305-.456-2.608-.911-3.928-1.367-.637-.185-1.282-.372-1.935-.578-.151-.063-.286-.083-.428-.167-.06-.02-.087-.124-.077-.185l.13-.145c1.223-.187 2.452-.27 3.694-.187 2.076.146 4.124.457 6.095 1.078 1.543.476 3.092.972 4.639 1.468 1.777.56 3.554 1.139 5.356 1.615 2.586.662 5.23.93 7.915.849.293 0 .56-.023.842-.042 0 0 .216-.041.271-.145.07-.082 0-.27-.158-.373-.266-.185-.532-.33-.798-.496a17.85 17.85 0 0 1-3.9-3.332c-.984-1.138-1.788-2.338-2.385-3.662-.08-.207-.156-.434-.228-.663-.06-.145.033-.29.169-.393h.11c.346.104.689.166 1.037.27 3.894 1.055 7.87 1.572 11.907 1.696 3.595.124 7.18.021 10.766-.082 1.868-.042 3.737-.103 5.606-.103 2.063 0 4.15.165 6.181.495 3.248.538 6.54 1.118 9.767 1.656 1.585.27 3.204.497 4.845.724.303.063.609.063.934.063.457.02.673-.104.826-.517.173-.456.327-.932.49-1.387.347-1.033.825-1.987 1.357-2.938 1.912-3.497 4.888-5.898 8.81-7.264a21.641 21.641 0 0 1 5.085-1.096c.847-.082 1.695-.145 2.52-.227.337-.041.577-.289.577-.621 0-.165 0-.311-.022-.476-.196-2.174-.456-4.366-.554-6.559-.196-3.145-.326-6.27-.326-9.436 0-1.903.13-3.807.271-5.71.023-.187.055-.415.098-.643.217-1.592.565-3.143.902-4.696 1.27-5.505 2.684-10.926 4.095-16.368.522-2.07 1.098-4.117 1.653-6.187.032-.145.053-.29.075-.455l-.075-.083c-.044-.021-.088-.021-.088-.021-.218.041-.293.167-.39.31a224.617 224.617 0 0 0-1.978 3.085 57.952 57.952 0 0 1-5.497 7.056c-2.107 2.255-4.541 4.158-7.322 5.587-1.727.869-3.4 1.78-5.17 2.607-4.77 2.193-9.55 4.407-14.265 6.621-3.954 1.821-7.845 3.745-11.626 5.897-1.999 1.118-3.996 2.36-5.855 3.705-.902.64-1.77 1.304-2.597 2.007-1.651 1.407-2.987 3.04-3.911 4.967-.782 1.509-1.587 2.979-2.4 4.468a29.35 29.35 0 0 1-1.837 3.063c-.58.807-1.19 1.614-1.885 2.317-.863.93-1.82 1.719-2.917 2.359-1.02.6-2.106 1.077-3.302 1.283a20.26 20.26 0 0 1-7.231-.145c-2.525-.538-4.833-1.573-6.953-2.959a26.752 26.752 0 0 1-3.847-3.062c-1.612-1.531-3.078-3.208-4.415-4.925-.826-1.055-.527-.85-1.885-1.242-2.536-.663-5.052-1.385-7.512-2.235-3.384-1.179-6.671-2.525-9.854-4.096-.929-.456-1.836-.931-2.662-1.511-3.204-2.151-5.018-5.11-5.62-8.773-.05-1.221-.305-1.221-1.202-1.8a19.139 19.139 0 0 1-3.905-3.332 11.541 11.541 0 0 1-1.531-2.173c-.582-1.076-.935-2.255-.826-3.497.07-.848.364-1.614.923-2.297a5.959 5.959 0 0 1 1.841-1.447c1.01-.496 2.08-.704 3.227-.539a8.825 8.825 0 0 1 3.144 1.098c1.18.64 2.391 1.365 3.498 2.151 1.82 1.221 3.71 2.359 5.569 3.518 1.661 1.014 3.453 1.759 5.345 2.277 2.248.6 4.572.992 6.881 1.303 1.586.227 3.178.393 4.753.558 1.7.167 3.417.29 5.128.331 2.103.042 4.21.022 6.333 0 1.472 0 2.951-.165 4.384-.373 1.456-.184 2.765-.703 3.977-1.468a56.459 56.459 0 0 0 6.214-4.429 88.605 88.605 0 0 0 6.24-5.628c3.39-3.394 6.758-6.788 10.147-10.14 3.369-3.372 6.78-6.766 10.332-9.973 6.084-5.503 12.189-11.009 18.285-16.512 3.4-3.083 6.789-6.104 10.005-9.331a26.173 26.173 0 0 0 3.585-4.388c.902-1.345 1.78-2.69 2.705-4.014 1.444-2.11 3.097-4.055 4.998-5.795a14.46 14.46 0 0 1 4.703-2.854c1.131-.415 2.293-.683 3.477-.87.435-.062.858-.145 1.282-.228.098-.04.175-.166.261-.227h3.324c.087.062.141.187.24.227.271.082.553.144.825.207.554.103 1.088.145 1.63.27 1.977.372 3.814 1.075 5.552 2.028 1.748.992 3.172 2.275 4.226 3.932.488.785.955 1.593 1.412 2.38a86.176 86.176 0 0 1 3.998 8.276c.924 2.255 1.837 4.51 2.803 6.766 3.27 7.843 6.042 15.892 8.116 24.147 1.097 4.43 2.02 8.858 2.683 13.388.337 2.215.651 4.43.847 6.663.174 2.048.36 4.097.414 6.125.098 3.661.064 7.305-.034 10.926 0 .455-.022.91-.065 1.366-.098 1.385-.24 2.814-.315 4.2-.14 2.028-.316 4.014-.553 6.001a577.786 577.786 0 0 0-.608 4.842c-.078.621-.11 1.22-.175 1.821a.691.691 0 0 0 .337.663c.392.227.782.434 1.174.662 3.476 2.006 6.061 4.738 7.68 8.298.12.289.24.579.37.848.066.103.14.186.206.29.055.062.25.124.327.062.12-.104.26-.166.38-.29a10.934 10.934 0 0 0 1.89-2.732c.456-.827.89-1.717 1.304-2.544 1.075-2.215 2.499-4.14 4.39-5.752.531-.456.793-.952.738-1.614-.022-.186 0-.374 0-.56.022-.62.022-1.241.077-1.8.097-1.013.38-1.944.706-2.896.315-1.014.652-2.028.966-3.021.174-.64.337-1.262.37-1.904.087-1.2.043-1.366-.683-2.337a5.333 5.333 0 0 1-.37-.58c-.413-.558-.826-1.117-1.195-1.696-.63-.93-1-1.986-1.043-3.104 0-.456-.13-.848-.37-1.2-.163-.248-.314-.518-.467-.765a34.15 34.15 0 0 1-2.694-5.835c-.76-2.09-1.216-4.243-1.313-6.456-.022-.726-.078-1.449-.13-2.152-.098-1.282-.121-2.587 0-3.891.13-1.841.325-3.684.618-5.524.12-.786.283-1.574.456-2.36 0 0 .077-.103.12-.165.098.062.217.123.25.206.14.29.217.58.336.87.197.454.392.89.652 1.344.098.208.25.373.402.538.196.25.533.166.675-.082.172-.33.195-.663.195-1.035.076-2.172.174-4.366.228-6.558.022-.58.022-1.16.044-1.698.02-.661.119-1.324.292-1.923a.271.271 0 0 1 .164-.145s.152.02.217.062c.097.063.152.166.227.269.218.289.412.621.652.932.294.413.664.785 1.087 1.033.533.27.968.167 1.184-.31.077-.166.174-.352.196-.518.12-.578.217-1.138.272-1.696.164-1.697.24-3.414.282-5.132.033-1.117.078-2.277.121-3.393 0-.186.076-.393.096-.56l.098-.02h.098c.076.186.152.372.173.559.175 1.096.326 2.173.5 3.269.218 1.386.576 2.753 1 4.077.12.413.314.786.478 1.18.075.124.173.248.293.351.044.042.14.042.14.042s.196-.105.219-.166a2.05 2.05 0 0 0 .054-.456c0-1.717.335-3.392.77-5.028.217-.91.533-1.759 1.033-2.545a.794.794 0 0 1 .293-.351c.033-.042.174-.042.174-.042.151.144.26.27.315.393.292.683.553 1.345.847 2.029.13.372.335.744.543 1.117.087.103.205.227.326.331 0 0 .337.082.413-.022.119-.144.26-.31.315-.496.183-.392.314-.828.456-1.282 1-3.187 1.75-6.456 2.226-9.767.044-.374.141-.745.218-1.097.217 0 .337.082.39.227.165.455.338.932.479 1.407.565 1.987.846 4.015.955 6.084.087 1.429.208 2.855.142 4.303 0 .476.12.912.412 1.283.078.103.141.208.217.29a16.735 16.735 0 0 1 2.391 5.42c.076.332.174.642.294.974l.119.206a.39.39 0 0 0 .217.022.912.912 0 0 0 .195-.124c1.108-1.532 1.891-3.084 2.347-4.801.077-.352.097-.683.316-.993.097.063.239.124.26.207.27 1.2.445 2.38.52 3.6.218 3.084-.031 6.146-.325 9.208-.066.786-.141 1.593-.185 2.38-.01.498 0 .993.044 1.49 0 .103.043.207.043.207.076.393.445.518.684.373.12-.083.262-.186.358-.29.435-.392.794-.848 1.131-1.345a11.487 11.487 0 0 0 1.37-2.648c.14-.289.282-.6.413-.931 0 0 .184-.083.292-.144.142.558.184 1.056.228 1.613.109 1.967.13 3.933.022 5.919-.109 1.903-.38 3.766-.912 5.607-.262.849-.534 1.634-.805 2.484-.066.144-.087.31-.087.455l.141.166c.163.041.315.041.433.02.534-.207 1.033-.434 1.555-.64.26-.105.5-.208.783-.332.065-.04.239.104.216.208a4.454 4.454 0 0 1-.152.579c-.651 1.966-1.532 3.807-2.717 5.524-1.607 2.277-3.628 4.14-6.191 5.4-.294.125-.553.311-.848.456-.25.144-.435.33-.51.58-.14.371-.24.723-.346 1.096-.534 1.49-1.512 2.669-2.923 3.496-.38.227-.75.455-1.12.682-.447.332-.956.641-1.39 1.015-.978.827-.967.973-.946 1.966a44.18 44.18 0 0 1-.369 6c-.294 2.193-.75 4.367-1.467 6.457-.042.167-.053.373-.077.538l.023.103c.075.021.173.062.173.062a5.17 5.17 0 0 0 .576-.434 269.81 269.81 0 0 0 5.888-5.069c4.541-4.055 8.844-8.257 12.613-13.016.086-.124.194-.227.326-.33l.13-.022.153.083c.021.166.043.31.043.456-.043.91-.218 1.8-.413 2.71-.347 1.822-.934 3.58-1.63 5.339-1.02 2.67-2.28 5.236-3.617 7.802a31.868 31.868 0 0 1-3.738 5.793c-.89 1.077-1.792 2.152-2.672 3.207a33.707 33.707 0 0 1-2.043 2.09 76.055 76.055 0 0 1-7.365 6.145c-1.956 1.388-3.966 2.67-6.172 3.685a2.608 2.608 0 0 0-.477.289c-.12.082-.12.331 0 .414.196.103.38.227.597.311 1.891.951 3.607 2.13 5.128 3.539a33.18 33.18 0 0 1 3.998 4.2 43.623 43.623 0 0 1 6.899 12.29c1.63 4.325 2.943 8.754 4.04 13.181.468 1.967.88 3.932 1.314 5.918.262 1.325.196 1.222 1.434 1.76a42.434 42.434 0 0 1 6.193 3.372c3.194 2.05 6.29 4.138 9.31 6.394 2.683 2.008 5.335 4.077 8.006 6.126.217.165.392.393.719.414 0 0 .064-.02.086-.042l.065-.063c-.043-.144-.043-.247-.087-.352-.412-.744-.87-1.468-1.303-2.212a43.276 43.276 0 0 1-3.074-6.748c-.652-1.882-1.141-3.787-1.293-5.772-.109-1.737-.239-3.497-.196-5.236.043-1.488.087-2.958.108-4.428.132-3.993.24-7.965.37-11.939 0-.207.022-.393.022-.6.14-2.648.163-5.38.14-8.07 0-1.738-.022-3.496-.118-5.214a72.613 72.613 0 0 0-.349-4.863c-.216-2.088-.5-4.158-1.042-6.206-.478-2.049-1.304-3.953-2.587-5.69-.836-1.16-1.63-2.339-2.432-3.52-.87-1.344-1.783-2.689-2.652-4.055a22.919 22.919 0 0 1-1.89-4.284 9.975 9.975 0 0 1-.434-3.6c.172-2.213 1.184-3.993 3.042-5.318a10.65 10.65 0 0 1 2.878-1.324c.978-.31 2.022-.537 3.032-.704 1.825-.31 3.715-.599 5.517-.888a20.021 20.021 0 0 0 3.26-.89c1.206-.434 2.325-1.076 3.27-2.008 1.574-1.552 3.27-3.103 4.888-4.654a67.968 67.968 0 0 1 5.66-4.884c1.445-1.097 2.933-2.111 4.541-2.96a23.254 23.254 0 0 1 5.975-2.296c2.695-.62 5.334-.6 7.995.31.283.104.521.187.761.25 1.412.31 1.164.517 2.597-.352a16.198 16.198 0 0 1 3.14-1.553c1.347-.496 2.65-.848 4.095-.91 1.444-.083 2.835.125 4.095.952.891.558 1.587 1.262 1.76 2.317.022.082.132.167.132.167.09.98.09 1.89.09 2.801"/><path fill="#ffc8a0" d="M351.48 242.26c-.119 9.766-3.344 18.063-9.656 25.243-1.956 2.194-4.117 4.118-6.508 5.856-1.673 1.2-3.477 2.297-5.421 3.103a20 20 0 0 1-2.347.85c-1.347.372-2.64.372-4.02.04-.934-.207-1.804-.517-2.704-.89-1.739-.704-3.369-1.634-4.954-2.71a38.275 38.275 0 0 1-9.376-9.478c-2.608-3.869-4.509-8.007-5.562-12.496-.392-1.616-.653-3.27-.87-4.926-.293-2.4-.25-4.78-.196-7.18.075-1.863.413-3.684.967-5.483.294-.91.683-1.759 1.315-2.484.88-1.034 1.683-2.07 2.487-3.083.152-.207.315-.373.456-.56.608-.724 1.401-1.18 2.4-1.365.815-.167 1.653-.29 2.446-.414 1.205-.187 2.4-.33 3.552-.517.804-.125 1.65-.25 2.5-.374 1.15-.165 2.205-.537 3.313-.93 1.836-.724 3.607-1.553 5.387-2.442.348-.166.73-.351 1.099-.496.15-.104.336-.063.531.041.251.166.5.352.761.559.826.641 1.685 1.282 2.477 1.966 1.13.951 2.444 1.677 3.91 2.13 2.652.912 5.357 1.429 8.192 1.429 1.216 0 1.303.022 2.173.89 2.02 1.986 4.02 3.973 6.084 5.959.402.434.684.91.815 1.47.283 1.158.51 2.297.575 3.496.056 1.058.131 2.092.174 2.795"/><path d="M329.352 243.729c0 .64-.011 1.282 0 1.924.021.27.162.519.477.6.423.103.771.33 1.152.558.51.332 1.02.6 1.532.911a18.11 18.11 0 0 0 2.88 1.366c.314.083.607.186.923.27 1.325.434 2.63.351 3.953-.145 1.055-.393 2-.93 2.868-1.593.327-.227.641-.476.957-.683a1.019 1.019 0 0 1 1.313.145c.349.33.435.848.142 1.241-.088.125-.185.27-.283.373-1.651 1.366-3.41 2.463-5.616 2.897a7.525 7.525 0 0 1-3.184 0 14.488 14.488 0 0 1-3.683-1.304c-.804-.414-1.609-.89-2.4-1.303-.153-.104-.327-.166-.51-.27-.121-.04-.36.083-.382.187-.098.951-.076 1.904.174 2.834.098.415.293.787.543 1.118.271.434.631.869.923 1.325.458.621.87 1.263 1.206 1.966.273.58.37 1.158.305 1.78-.098.807-.521 1.406-1.336 1.758-.315.167-.663.25-1.02.29-.838.082-1.577.414-2.294.87-.25.144-.543.31-.826.455-.99.517-1.955.538-2.977.082a6.144 6.144 0 0 1-.956-.477c-.565-.31-1.13-.537-1.76-.6-.413-.02-.793-.103-1.206-.165-.12-.021-.228-.021-.326-.041-2.238-.415-2.532-2.276-1.944-3.539a5.281 5.281 0 0 1 1.65-1.945c.228-.144.49-.207.805-.186.825.062 1.194.87.802 1.49-.14.248-.358.434-.532.62-.25.29-.533.56-.663.931a.396.396 0 0 0 .228.477l.24.104c.369.062.651.062.923.102 1.064.146 2.096.415 3.041.974.076.062.195.104.293.186.534.31 1.055.31 1.566 0 .291-.186.607-.352.923-.518.607-.392 1.249-.662 1.976-.766.24-.04.479-.082.707-.145.347-.103.489-.352.412-.681a6.426 6.426 0 0 0-.52-1.015c-.457-.682-.912-1.325-1.358-1.986-.195-.29-.413-.579-.587-.87a3.239 3.239 0 0 1-.553-1.614 34.375 34.375 0 0 1-.142-2.173c-.075-2.255-.119-4.531-.054-6.808 0-.373.01-.765.054-1.158a4.008 4.008 0 0 1 .99-2.278 10.231 10.231 0 0 1 3.682-2.792 13.5 13.5 0 0 1 5.704-1.117c2.499.04 4.856.599 7.073 1.799.477.248.89.476 1.282.85.294.288.347.661.294 1.055-.12.516-.805.89-1.304.68a15.23 15.23 0 0 1-.837-.412c-1.326-.85-2.727-1.407-4.292-1.656-1.749-.27-3.486-.33-5.236.103-1.542.415-2.955 1.118-4.096 2.215-.098.145-.218.248-.337.352-.445.496-.695 1.075-.695 1.758.01.517-.022 1.077-.044 1.594h-.04M313.294 240.998c.684 0 1.337.125 1.988.352 1.468.517 2.804 1.22 4.14 2.047a.773.773 0 0 1 .272.187c.38.35.402 1.096.02 1.447-.162.146-.314.27-.49.352-1.454.788-2.986 1.408-4.67 1.697a4.909 4.909 0 0 1-1.737-.04c-.945-.187-1.869-.497-2.694-.974a106.338 106.338 0 0 1-2.608-1.572 2.015 2.015 0 0 1-.467-.374c-.5-.434-.391-1.22.197-1.572a9.14 9.14 0 0 1 .738-.331c1.304-.456 2.554-.828 3.91-1.077.468-.082.934-.101 1.401-.142"/><path d="M338.325 247.411c-.76.023-1.466-.165-2.205-.33-1.414-.35-2.694-.93-3.966-1.613-.097-.042-.216-.104-.216-.104-.664-.456-.664-1.305-.077-1.739.12-.082.26-.165.39-.227 1.521-.868 3.141-1.489 4.902-1.737a8.019 8.019 0 0 1 2.716.102c1.303.27 2.52.663 3.692 1.264.252.125.49.27.729.414.446.33.532 1.013.173 1.448-.14.125-.27.29-.434.394-1.402.93-2.911 1.717-4.64 2.028-.347.059-.704.08-1.064.1M312.654 235.39c2.13.04 4.194.434 6.095 1.365a6.57 6.57 0 0 1 2.118 1.449c.13.124.227.31.294.496.119.394 0 .744-.316.993-.293.27-.869.331-1.226.145a4.561 4.561 0 0 1-.684-.455 8.19 8.19 0 0 0-1.717-1.015c-.87-.392-1.814-.6-2.78-.724-1.022-.145-2.098-.208-3.195-.063-2 .27-3.825 1.014-5.313 2.36-.25.227-.488.517-.618.827-.11.27-.142.518-.023.767.054.185.13.351.196.537.055.145.098.29.13.435.087.495-.13.91-.608 1.096-.467.207-.956.103-1.27-.31-.957-1.222-1.12-2.98.119-4.284.467-.518.977-1.014 1.564-1.386a11.528 11.528 0 0 1 5.215-2.09c.683-.081 1.356-.163 2.02-.143M312.209 251.612c-.826-.02-1.988-.165-3.02-.579a5.498 5.498 0 0 1-1.065-.537c-.707-.455-.565-1.408.216-1.76a.815.815 0 0 1 .588-.062c.337.105.674.228.956.352a9.187 9.187 0 0 0 2.01.476c.977.083 1.934 0 2.89-.351a22.195 22.195 0 0 0 3.324-1.532c.293-.145.565-.29.858-.414.804-.31 1.586.249 1.488 1.077-.043.207-.097.372-.283.517-.196.165-.402.352-.63.497-1.303.745-2.64 1.384-4.084 1.883a9.496 9.496 0 0 1-3.248.433M325.213 267.65c-.054-.022-.446-.042-.783-.167-1.12-.352-2.27-.455-3.41-.475-.565 0-1.174-.023-1.782-.043-1.684-.125-3.15-.786-4.41-1.883-.175-.145-.175-.414 0-.579.14-.125.282-.186.412-.248.175-.082.337-.022.456.083.12.103.218.227.316.35.912 1.242 2.183 1.636 3.76 1.512.836-.063 1.639-.187 2.443-.434.26-.063.532-.125.814-.228.36-.124.75-.124 1.162-.021.794.228 1.598.249 2.348 0 .456-.185.933-.125 1.424-.041.75.165 1.487.29 2.194.434.826.208 1.663.208 2.53.185 1 0 1.825-.412 2.51-1.117.217-.206.413-.434.63-.662.098-.103.337-.124.446-.062.423.186.52.663.162.931-1.303 1.014-2.748 1.634-4.453 1.758-.608.041-1.218.041-1.793.083-.5.021-1.033.063-1.52.082-.653.04-1.294.124-1.913.332-.402.146-.825.23-1.543.21M325.496 272.512c-.478-.042-.968-.063-1.435-.145a16.208 16.208 0 0 1-3.389-1.056c-.26-.104-.521-.206-.727-.351-.64-.394-.588-1.325.097-1.698.195-.082.39-.165.608-.103.467.145.977.27 1.434.434.826.29 1.683.498 2.52.704a3.642 3.642 0 0 0 1.77-.021c.783-.207 1.608-.434 2.392-.724a7.55 7.55 0 0 1 1.226-.393c.434-.104.99.186 1.14.6.175.455.022.972-.346 1.2a3.642 3.642 0 0 1-.51.289c-1.098.455-2.217.848-3.402 1.076-.455.105-.934.125-1.378.188"/><path fill="#ffc8a0" d="M451.114 167.767c.978 0 1.75.125 2.553.311.479.124.978.31 1.477.434.587.166 1.131.31 1.718.455 1.15.249 2.216.062 3.193-.62.934-.663 2-1.2 3.107-1.635.826-.352 1.65-.579 2.498-.725.684-.104 1.37-.124 2.021.041.457.125.803.352 1.043.704.283.373.37.766.174 1.18a4.092 4.092 0 0 1-.803 1.117c-.632.642-1.315 1.2-2.064 1.717a70.783 70.783 0 0 1-4.129 2.567c-1.587.89-3.129 1.883-4.694 2.896-.89.56-1.608 1.242-2.26 2.008-.89 1.096-1.868 2.09-2.856 3.083-1.837 1.862-3.748 3.725-5.606 5.587a129.869 129.869 0 0 0-5.4 5.629c-1.163 1.262-2.237 2.544-3.206 3.973-.378.517-.705 1.096-1.01 1.655-.326.559-.476 1.117-.543 1.738a24.422 24.422 0 0 0-.042 3.993c.216 4.448 1.26 8.772 2.661 13.015a384.573 384.573 0 0 0 3.597 10.491c1.564 4.614 3.139 9.228 4.52 13.905 1.346 4.76 2.65 9.54 3.715 14.361.902 4.117 1.728 8.235 2.63 12.374.783 3.58 1.565 7.2 2.39 10.78.283 1.387.63 2.752 1.064 4.097a18.54 18.54 0 0 0 1.934 4.262c.902 1.47 1.771 2.96 2.607 4.49 1.022 1.76 1.934 3.56 2.608 5.484.249.745.467 1.51.64 2.297a8.703 8.703 0 0 1-.195 4.387c-1.098 3.622-3.314 6.539-6.585 8.67-.531.331-1.096.641-1.682.87-1.217.578-2.543.786-3.935.682-1.693-.166-3.367-.539-5.018-.931-2.728-.663-5.369-1.47-8.018-2.255a33.519 33.519 0 0 0-4.867-1.056c-3.14-.456-6.28-.849-9.365-1.303-1.76-.25-3.563-.497-5.313-.766-2-.311-4.008-.6-6.007-.952-2.78-.497-5.562-1.014-8.343-1.51-6.442-1.242-12.874-2.752-19.186-4.615a72.645 72.645 0 0 1-14.765-6.207c-4.888-2.731-9.723-5.772-14.384-8.919-3.66-2.46-7.203-4.987-10.754-7.571-.316-.25-.631-.478-.902-.746-.162-.125-.141-.394.011-.496.433-.332.869-.683 1.304-.993a41.81 41.81 0 0 0 5.051-4.18c2.606-2.525 4.746-5.319 6.366-8.505a28.257 28.257 0 0 0 2.53-7.678c.099-.496.198-1.034.272-1.55.022-.167.055-.311.098-.456.076-.29.26-.538.532-.703.348-.187.728-.352 1.076-.518a3.043 3.043 0 0 1 2.097-.083c1.434.414 2.803.848 4.184 1.367 3.03 1.24 6.072 2.44 9.124 3.662 3.454 1.407 6.898 2.814 10.376 4.056 1.857.661 3.683 1.24 5.616 1.634a7.35 7.35 0 0 0 1.771.103 1.441 1.441 0 0 0 1.195-.87c.075-.206.13-.434.216-.64.13-.373.326-.456.718-.29.434.186.869.393 1.282.621a50.387 50.387 0 0 1 3.846 2.296c3.531 2.235 6.887 4.677 10.169 7.16 6.355 4.78 12.548 9.746 18.62 14.836.37.31.75.663 1.237.87.652.288 1.238.206 1.782-.186.673-.498.87-1.367.413-2.048-.216-.331-.478-.601-.739-.89a90.782 90.782 0 0 1-7.507-9.54c-1.75-2.586-3.335-5.276-4.618-8.09-.782-1.718-1.455-3.456-1.89-5.298a20.956 20.956 0 0 1-.402-2.462c-.25-2.566-.207-5.173-.152-7.739.054-2.338.152-4.718.217-7.057.12-3.517.239-7.055.314-10.574.108-2.628.13-5.214-.02-7.842-.044-.663-.044-1.283-.055-1.945-.022-2.09-.217-4.158-.434-6.25-.184-1.655-.413-3.31-.793-4.925a33.375 33.375 0 0 0-.804-2.875 15.502 15.502 0 0 0-1.869-3.789c-.977-1.427-1.955-2.854-2.91-4.303-.663-.951-1.337-1.903-1.945-2.854-1-1.552-1.836-3.188-2.358-4.988-.239-.87-.369-1.78-.195-2.67.195-.91.652-1.634 1.401-2.213.467-.352.978-.641 1.532-.849a14.104 14.104 0 0 1 2.433-.621c1.435-.249 2.89-.477 4.346-.704 2.107-.33 4.236-.765 6.214-1.55 1.369-.539 2.586-1.223 3.584-2.195 1.63-1.489 3.216-2.979 4.802-4.49.76-.703 1.5-1.428 2.304-2.172 1.553-1.47 3.303-2.836 5.084-4.076 1.934-1.325 3.965-2.423 6.225-3.146 1.01-.331 2.054-.58 3.14-.683.394-.04.795-.06.99-.06M353.154 172.898c-.119 2.381-.098 4.904-.336 7.43-.14 1.488-.218 2.98-.337 4.447-.054.663-.153 1.346-.217 2.028-.25 2.07-.467 4.16-.728 6.229-.055.352-.174.725-.27 1.097-.023.124-.24.248-.24.248-.327-.021-.521-.021-.706-.063a28.693 28.693 0 0 0-5.932-.64 3.333 3.333 0 0 1-1.608-.415c-.663-.372-1.335-.765-2.043-1.18-.684-.392-1.346-.807-2.03-1.2a9.511 9.511 0 0 0-1.695-.827c-2.075-.766-4.107-.704-6.17.165-.848.374-1.641.89-2.411 1.387-1.24.847-.925.828-2.185.082a21.204 21.204 0 0 0-1.738-.953c-2.15-1.137-4.39-1.55-6.778-1.365-1.184.103-2.293.392-3.39.807-1.445.558-2.76 1.324-4.02 2.214a63.9 63.9 0 0 0-1.032.724c-.12.063-.36-.02-.392-.144-.043-.186-.119-.373-.119-.56-.271-3.06-.49-6.124-.553-9.185-.022-1.822-.098-3.664-.022-5.485.066-1.365.109-2.731.305-4.076.13-1.096.346-2.173.586-3.248 1.033-4.801 2.27-9.622 3.531-14.382 2.205-8.421 4.497-16.844 6.734-25.244.098-.33.196-.663.283-1.014.055-.29.097-.58.097-.87-.021-.848-.652-1.447-1.542-1.531-.706-.063-1.294.207-1.651.869-.196.352-.38.745-.532 1.096-1.674 3.602-3.39 7.14-5.378 10.574-1.717 3.103-3.628 6.166-5.725 9.043-.684.992-1.435 1.924-2.184 2.855-.814.994-1.65 1.944-2.586 2.835-1.325 1.303-2.78 2.38-4.4 3.31-2.63 1.49-5.388 2.774-8.137 4.078a1684.453 1684.453 0 0 1-10.832 5.007c-4.03 1.862-7.995 3.787-11.863 5.917a82.365 82.365 0 0 0-6.182 3.704c-1.836 1.242-3.617 2.607-5.226 4.139a16.248 16.248 0 0 0-3.225 4.2c-1.065 1.967-2.103 3.932-3.157 5.877a19.127 19.127 0 0 1-2.254 3.332c-.506.621-1.043 1.137-1.64 1.655-1.103.89-2.337 1.448-3.754 1.655-.907.125-1.82.166-2.727.125-2.873-.125-5.454-.973-7.854-2.483-1.869-1.16-3.532-2.567-5.03-4.16-.571-.64-1.13-1.282-1.68-1.924a40.7 40.7 0 0 1-1.786-2.297c-.495-.683-1.125-1.118-1.994-1.325a61.421 61.421 0 0 1-4.254-1.096c-4.357-1.241-8.571-2.856-12.645-4.758-.923-.436-1.847-.89-2.716-1.45-.69-.454-1.364-.931-1.934-1.51-1.527-1.49-2.384-3.29-2.678-5.339a12.294 12.294 0 0 1-.156-1.573c-.011-.786-.375-1.325-1.065-1.654-.184-.105-.342-.167-.516-.27a13.84 13.84 0 0 1-4.264-3.435 9.834 9.834 0 0 1-.957-1.304 3.386 3.386 0 0 1-.505-1.283c-.094-.518.049-.973.494-1.324a2.057 2.057 0 0 1 1.542-.457c.404.043.783.168 1.148.332.857.414 1.7.828 2.487 1.365 1.108.726 2.242 1.43 3.334 2.174 1.624 1.096 3.341 2.089 5.057 3.062 1.407.828 2.907 1.386 4.481 1.842 1.907.538 3.858.951 5.824 1.2 2.053.31 4.107.58 6.16.828.858.124 1.738.206 2.613.248 2.461.103 4.938.27 7.399.29 1.879 0 3.743-.125 5.62-.27a22.128 22.128 0 0 0 3.054-.434c1.294-.27 2.51-.724 3.645-1.386a58.814 58.814 0 0 0 6.264-4.387c2.519-1.966 4.887-4.097 7.169-6.354 2.836-2.793 5.672-5.627 8.496-8.462a398.873 398.873 0 0 1 18.186-17.3c4.802-4.263 9.582-8.566 14.308-12.89 2.606-2.338 5.203-4.718 7.67-7.181.39-.394.781-.786 1.15-1.18a23.676 23.676 0 0 0 2.946-3.704c.673-1.033 1.347-2.069 2.03-3.104a50.957 50.957 0 0 1 3.086-4.075 28.832 28.832 0 0 1 2.28-2.318c1.5-1.407 3.335-2.297 5.4-2.71 3.172-.622 6.269-.415 9.31.64.826.25 1.63.642 2.369 1.055 1.336.745 2.4 1.738 3.172 3.022a72.816 72.816 0 0 1 4.672 9.105c2.052 4.861 4.095 9.787 5.953 14.753a161.258 161.258 0 0 1 5.79 19.1c.62 2.71 1.174 5.4 1.641 8.152.337 1.863.586 3.745.825 5.628.121.952.26 1.883.36 2.836.12 1.18.25 2.337.293 3.518.141 2.793.272 5.607.24 8.4-.023.315-.023.605-.023 1.1M316.228 380.38c.174-1.428.338-2.877.5-4.303.14-1.159.348-2.338.37-3.518.02-.249.02-.538.02-.786.055-1.159-.217-2.277-.662-3.31-1.26-2.856-2.455-5.692-3.661-8.546a376.112 376.112 0 0 0-2.423-5.215c-.794-1.8-1.792-3.539-2.813-5.255-1.195-2.007-2.749-3.704-4.66-5.133-1.849-1.365-3.922-2.44-6.106-3.31-2.467-.973-5.03-1.677-7.615-2.256-2.63-.536-5.248-.992-7.887-1.407-3.846-.62-7.702-1.221-11.55-1.883-6.06-1.014-12.048-2.442-17.978-4.138-7.16-2.049-14.26-4.304-21.343-6.602-3.134-1.015-6.252-2.028-9.42-2.939-1.645-.476-3.291-.91-4.985-1.137a2.908 2.908 0 0 0-.593-.083c-1.239-.103-2.44-.207-3.699-.289a46.723 46.723 0 0 1-4.156-.374c-1.26-.165-2.51-.33-3.786-.536a29.897 29.897 0 0 1-5.193-1.264c-1.607-.558-2.997-1.385-4.194-2.544-1.906-1.8-3.21-3.952-3.997-6.353-.505-1.593-.81-3.187-.734-4.843.082-1.303.43-2.545 1.239-3.621.89-1.22 1.863-2.38 2.966-3.413a107.32 107.32 0 0 1 2.59-2.36c1.212-1.117 2.445-2.173 3.673-3.248 1.232-1.117 2.389-2.235 3.497-3.455a267.611 267.611 0 0 1 24.742-23.714c4.22-3.558 8.621-6.85 13.179-9.994a64.783 64.783 0 0 1 10.277-5.795 89.852 89.852 0 0 1 3.238-1.428c.184-.082.39-.103.586-.144.11-.041.294.125.272.249-.033.185-.054.392-.087.557a42.08 42.08 0 0 1-.52 1.759c-.815 2.816-1.577 5.65-2.15 8.525-.23 1.056-.404 2.174-.372 3.27 0 .249 0 .538.055.786.13.538.412.889.966 1.034.447.124.859.124 1.315.083.793-.103 1.564-.29 2.324-.498 1.804-.495 3.543-1.137 5.291-1.799 2.727-1.034 5.41-2.192 8.105-3.31 2.357-1.015 4.726-2.048 7.094-3.021 2.26-.911 4.476-1.78 6.736-2.69.586-.227 1.172-.393 1.78-.579.685-.186 1.38-.145 2.01.144.37.167.74.331 1.054.519.696.412 1.293.89 1.901 1.365.358.29.576.64.652 1.076.153 1.077.391 2.153.64 3.228a26.417 26.417 0 0 0 5.39 10.78c.195.208.336.435.488.664.11.103.066.31-.033.413-.065.042-.119.125-.183.166-.154.124-.304.228-.468.352a192.398 192.398 0 0 1-15.034 9.435c-4.542 2.546-9.29 4.697-14.146 6.643-5.694 2.255-11.494 4.284-17.318 6.166-8.266 2.67-16.614 5.07-25.019 7.264a8.201 8.201 0 0 0-1.037.288c-1.303.497-1.374 2.11-.397 2.814.229.166.457.269.75.29.477.02.951-.021 1.43-.124 2.819-.641 5.703-1.056 8.57-1.428a95.125 95.125 0 0 1 9.065-.6 53.58 53.58 0 0 1 5.488.166c1.976.166 3.955.455 5.868 1.014 1.345.392 2.629.89 3.866 1.49 1.738.89 3.444 1.8 5.084 2.751 5.095 2.98 10.18 5.98 15.296 8.918 3.868 2.255 7.812 4.428 11.853 6.395 2.629 1.24 5.291 2.462 8.094 3.372 1.27.434 2.552.828 3.9 1.118 1.39.31 2.78.455 4.258.434 1.598-.02 3.27-.062 4.889-.207a55.89 55.89 0 0 1 7.886-.063c1.064.063 2.108.29 3.13.601.531.185 1.042.413 1.5.724 1.28.849 1.91 1.986 1.835 3.476-.055 1.035-.294 2.03-.663 3.001a87.846 87.846 0 0 0-1.488 3.848c-.533 1.325-1.044 2.69-1.39 4.097a14.755 14.755 0 0 0-.435 3.848c0 .953.197 1.883.565 2.753.597 1.468 1.206 2.917 1.75 4.365.39.89.759 1.822 1.128 2.731.631 1.594 1.087 3.208 1.327 4.863.37 2.712.196 5.36-.75 7.966-.673 1.78-1.663 3.353-2.943 4.78-.565.6-1.12 1.2-1.663 1.78-.315.33-.608.662-.857.974-.696.806-1.163 1.717-1.358 2.752a15.447 15.447 0 0 1-1.587 4.51c-.13.269-.315.537-.489.787-.097.123-.24.207-.347.31a.88.88 0 0 1-.598.082c-.532-.166-.967-.518-1.195-1.034-.14-.311-.271-.641-.303-.952a12.45 12.45 0 0 1-.197-2.275"/><path fill="#ebb432" d="M395.056 259.62v.786c-.021.228-.282.435-.488.414 0 0-.24 0-.38-.02-.772-.208-1.597-.394-2.402-.641-1.303-.415-2.63-.89-3.944-1.325-.163-.063-.293-.124-.434-.187-.194-.103-.336-.247-.379-.434a20.927 20.927 0 0 1-.131-1.137c-.087-1.2-.25-2.4-.446-3.6a43.287 43.287 0 0 0-1.966-7.988c-1.184-3.538-2.716-6.932-4.737-10.139-.196-.29-.39-.6-.564-.87a3.074 3.074 0 0 0-.305-.372 1.082 1.082 0 0 0-.977-.269c-.391.124-.652.414-.706.828-.043.145 0 .31.053.434.163.33.337.62.501.889 3.172 5.008 5.214 10.387 6.344 16.1.26 1.261.433 2.543.609 3.827.075.413.064.849.064 1.241 0 .166-.26.31-.456.249-.162-.02-.315-.083-.457-.125-1.107-.456-2.27-.911-3.41-1.366-.153-.063-.305-.124-.435-.207a.75.75 0 0 1-.413-.537 1.486 1.486 0 0 1-.097-.415c-.12-2.09-.51-4.138-1.01-6.166-1.457-5.752-3.88-11.05-7.345-15.996a9.975 9.975 0 0 0-.75-.992c-.119-.145-.282-.29-.401-.414-.304-.228-.794-.207-1.131 0-.37.247-.543.62-.413.973.067.144.11.31.207.433.11.207.294.456.446.662 3.77 5.256 6.312 11.03 7.713 17.258.217.993.381 2.027.5 3.022.022.227 0 .475 0 .681 0 .125-.217.27-.358.25-.098-.022-.164-.022-.228-.064-1-.393-2-.785-2.966-1.2-.457-.166-.675-.518-.74-.951-.195-1.2-.445-2.4-.75-3.58-.619-2.525-1.37-4.987-2.4-7.366-.803-1.904-1.814-3.725-3.14-5.38-.076-.124-.152-.228-.24-.352-.076-.145-.097-.29 0-.435.164-.268.305-.517.49-.786a8.312 8.312 0 0 0 1.195-2.587c.173-.641.196-1.345.24-2.028a38.576 38.576 0 0 0-.066-4.2 22.075 22.075 0 0 1 .098-3.87c.185-1.365.695-2.565 1.62-3.6.183-.186.402-.372.619-.558.12-.145.315-.187.51-.187.24.022.49.042.707.105 1.096.31 2.118.723 3.074 1.241a21.075 21.075 0 0 1 3.9 2.814 29.588 29.588 0 0 1 3.477 3.62c3.031 3.705 5.27 7.803 6.942 12.25 1.326 3.497 2.379 7.056 3.367 10.658.783 2.958 1.467 5.897 2.01 8.896.184.974.314 1.947.379 2.713M264.691 256.474c.173-2.586.739-5.11 1.563-7.572 1.076-3.25 2.542-6.291 4.368-9.229.196-.29.413-.621.609-.973.065-.124.13-.27.196-.414.174-.6-.184-1.138-.847-1.242a.844.844 0 0 0-.457.083 1.357 1.357 0 0 0-.477.351c-.197.209-.37.456-.543.725-2.358 3.725-4.215 7.657-5.368 11.877-.467 1.677-.847 3.394-1.043 5.111-.11.931-.11 1.821-.153 2.752-.065 1.076.043 1.118-1.129 1.573-1.63.621-3.282 1.221-4.954 1.656-.359.082-.706.124-1.054.186-.26.02-.49-.167-.49-.394.033-.413.045-.828.11-1.24.239-1.532.576-3.043.956-4.575a188.192 188.192 0 0 1 5.084-16.347c.087-.248.196-.496.305-.744.108-.227.303-.352.564-.372.458-.042.945-.042 1.434-.042 1.912 0 3.782-.227 5.671-.663a26.454 26.454 0 0 0 6.344-2.296c.36-.186.718-.331 1.077-.476l.207.062c.043.063.075.165.043.207-.109.27-.218.496-.348.724a49.934 49.934 0 0 0-4.498 10.265 40.025 40.025 0 0 0-1.542 6.786c-.153.89-.196 1.8-.304 2.71-.022.186-.022.353-.032.56-.044.33-.24.559-.534.724a.768.768 0 0 0-.196.104c-1.238.517-2.477 1.014-3.737 1.531-.153.063-.282.104-.434.167-.12.02-.336-.104-.37-.227-.043-.167-.087-.311-.087-.456.01-.29.043-.6.066-.892M369.928 328.918a33.23 33.23 0 0 1-5.692-.414c-.847-.144-1.674-.372-2.52-.621a13.244 13.244 0 0 0-1.021-.29s-.262.042-.316.125a5.666 5.666 0 0 0-.26.642 15.019 15.019 0 0 1-1.466 3.248c-.609 1.014-1.315 2.048-2.27 2.877-.11.103-.25.186-.392.289l-.326-.042c-.043-.061-.119-.124-.162-.166a1.328 1.328 0 0 1-.197-.289c-1.673-3.455-3.92-6.58-6.367-9.58-1.532-1.862-3.096-3.684-4.65-5.504a84.637 84.637 0 0 1-2.118-2.44c-.467-.622-.923-1.242-1.38-1.863-.13-.187-.196-.415-.27-.642-.076-.27.216-.558.489-.496.304.083.63.166.913.29.64.247 1.293.538 1.933.868 2.955 1.511 5.987 3.041 8.963 4.574 1.663.87 3.368 1.676 5.052 2.545 1.596.807 3.313 1.035 5.084.868a86.35 86.35 0 0 1 3.346-.31c1.053-.082 2.14.021 3.193.227a4.467 4.467 0 0 1 2.076.994c.433.372.847.745 1.205 1.137.771.89 1.347 1.883 1.793 2.959.042.145.066.31.097.456 0 .062-.097.247-.097.247-.228.064-.39.105-.543.105-1.349.187-2.728.206-4.097.206M372.48 214.283c-1.574 0-2.9-.456-4.128-1.262-.249-.186-.271-.476-.032-.663.24-.206.467-.413.727-.6 2.705-2.09 5.421-4.262 8.051-6.455 5.92-4.966 11.7-10.18 17.09-15.726 1.14-1.158 2.237-2.36 3.377-3.538.228-.249.447-.537.76-.682.066-.042.142 0 .218.02l.054.063c-.13.434-.228.848-.37 1.241a37.217 37.217 0 0 1-6.312 11.297 99.26 99.26 0 0 1-9.538 10.326c-1.238 1.138-2.487 2.255-3.825 3.269-.63.476-1.28.912-1.922 1.346a8.371 8.371 0 0 1-1.803.91c-.803.29-1.585.454-2.346.454M280.333 213.083c-.021.6-.064 1.138-.271 1.615a1.681 1.681 0 0 1-.272.517.705.705 0 0 1-.51.29c-.402.04-.804 0-1.206-.083-1.13-.228-2.303-.456-3.498-.682-1.89-.374-3.802-.808-5.693-1.16a27.432 27.432 0 0 0-5.952-.455c-4.487.166-8.996.29-13.493.146a31.657 31.657 0 0 1-4.639-.456 10.067 10.067 0 0 1-4.41-1.884c-.946-.662-1.62-1.552-1.837-2.689-.022-.104 0-.227 0-.331.007-.125.206-.31.206-.31.228.02.36.04.467.062 2.022.497 4.069.786 6.102 1.055 1.656.206 3.306.415 4.98.559 1.977.185 3.955.331 5.975.31 2.977 0 5.943 0 8.952.063 2.238.02 4.508.124 6.8.186 1.044.062 2.043.269 3.043.538 1.477.351 2.867.87 4.279 1.407.988.392.977.722.977 1.302M325.452 196.033c-.033.497-.154.89-.435 1.221-.37.477-.837.704-1.467.559a6.932 6.932 0 0 1-1.228-.434c-.38-.125-.716-.31-1.064-.455a9.874 9.874 0 0 0-1.934-.58c-.716-.102-1.379 0-1.956.352a4.907 4.907 0 0 0-1.162.766c-.77.58-1.424 1.262-1.988 2.008-.674.91-1.39 1.82-2.074 2.751-1.685 2.235-3.586 4.263-5.834 6.022-1.217.973-2.444 2.048-3.693 3.04-.609.498-1.218.953-1.869 1.387-.467.352-1.01.455-1.576.373-1.293-.207-2.227-.786-2.693-1.986-.284-.704-.098-1.344.412-1.904.14-.186.358-.31.533-.456.25-.165.49-.33.76-.496 3.216-1.924 6.083-4.221 8.702-6.766a18.992 18.992 0 0 0 2.064-2.235c.684-.848 1.391-1.717 2.118-2.565a21.13 21.13 0 0 1 2.52-2.462 10.243 10.243 0 0 1 2.227-1.491c2.661-1.365 5.226-1.055 7.692.414.947.559 1.596 1.387 1.87 2.442.043.164.052.37.075.495M281.247 226.43c0 .6-.153 1.056-.37 1.449-.152.207-.304.434-.466.662-2.576 3.165-5.791 5.38-9.832 6.517-.762.208-1.544.332-2.325.456-.696.104-1.347.022-2.01-.166-.38-.123-.598-.392-.696-.744a1.484 1.484 0 0 1-.033-.89c.087-.373.185-.745.326-1.118.99-2.814 2.532-5.38 4.498-7.698 1.37-1.593 2.89-3.02 4.639-4.241.488-.374 1.053-.663 1.62-.973.39-.208.781-.332 1.194-.415.477-.082.88.042 1.217.352.412.373.683.807.89 1.325.543 1.2.87 2.42 1.108 3.704.065.414.13.848.153 1.26.064.21.064.437.087.52M377.098 175.9s.12 0 .24.02c3.01.25 6.019.146 9.082.022a51.447 51.447 0 0 1 1.89-.083c.24 0 .489.227.478.436 0 .247 0 .476-.088.681-.228.848-.705 1.593-1.37 2.235-.639.6-1.346 1.16-2.073 1.697-.49.331-.99.663-1.456 1.014-.26.206-.467.415-.684.642-.315.393-.49.847-.522 1.344-.065.89-.14 1.738-.184 2.63-.054 1.343-.098 2.709-.228 4.074-.184 1.574-.554 3.063-1.238 4.49a35.402 35.402 0 0 1-2.78 4.904c-.087.125-.208.25-.305.374-.076.082-.173.145-.293.082-.076-.02-.153-.082-.153-.082a2.982 2.982 0 0 1-.239-.724c-.445-2.029-.912-4.077-1.27-6.126-.077-.517-.12-1.034-.175-1.572-.097-.993 0-1.986.36-2.898.39-1.054.77-2.088 1.16-3.144.415-1.035.73-2.153.926-3.27.119-.683.021-1.263-.327-1.862-.457-.745-.968-1.47-1.412-2.236-.252-.412-.469-.827-.664-1.198a2.307 2.307 0 0 1-.185-1.14c.022-.124.197-.31.197-.31h1.313M272.165 254.2c.206-1.657.434-3.311.814-4.947 1.184-5.214 3.26-10.076 6.096-14.63a.436.436 0 0 1 .14-.186c.456-.599.489-1.18.053-1.82-.108-.124-.032-.31.077-.414a5.23 5.23 0 0 1 .521-.456 28.352 28.352 0 0 0 3.661-3.744c.132-.187.294-.353.435-.518a.318.318 0 0 1 .5.104c.043.102.109.206.109.33a18.556 18.556 0 0 0 2.499 5.38c.118.207.26.373.369.579.141.206.184.414 0 .621-1.825 2.421-2.868 5.132-3.76 7.947-.749 2.4-1.378 4.84-1.78 7.303-.01.167-.066.29-.088.456-.14.869-.195.93-1.074 1.282a9.23 9.23 0 0 1-1.011.415c-.14.062-.304.062-.466.102-.131.022-.348-.143-.348-.247 0 0-.012-.165 0-.248.77-4.2 1.717-8.401 3.14-12.457.51-1.448 1.054-2.877 1.749-4.242.359-.683.75-1.346 1.097-2.028.12-.187.24-.393.337-.601.14-.414-.12-.973-.554-1.137-.457-.145-.934-.042-1.206.29a7.98 7.98 0 0 0-.706 1.033c-.913 1.51-1.62 3.167-2.227 4.8-.957 2.504-1.685 5.132-2.358 7.739-.544 2.235-1 4.43-1.38 6.685-.077.372-.109.744-.184 1.137-.054.31-.218.558-.543.683-1.13.496-2.26.972-3.39 1.448-.228.103-.5-.062-.521-.33v-.126c-.001.003-.001-.142-.001-.204"/><path fill="#ebb432" d="M303.354 215.795c.195.351.336.64.51.93.241.454.62.827 1.065 1.076.63.351 1.216.641 1.837.973.14.082.282.186.38.29 0 0 .032.185 0 .206a2.714 2.714 0 0 1-.51.27c-1.022.352-2.066.579-3.12.744-1.292.207-2.584.311-3.909.248a12.07 12.07 0 0 1-2.358-.289c-1.727-.31-3.281-1.013-4.563-2.09-1.64-1.282-2.553-2.917-2.64-4.924-.01-.726-.01-1.429-.01-2.173.053-2.607 1.01-4.946 2.867-6.932a19.253 19.253 0 0 1 4.54-3.642 11.988 11.988 0 0 1 4.314-1.573c.826-.145 1.662-.228 2.51-.352a3.306 3.306 0 0 1 1.413.104c.37.124.466.455.217.785-.066.042-.12.124-.174.146a3.327 3.327 0 0 1-.337.33c-.532.393-1.043.827-1.618 1.159-1.38.93-2.761 1.8-4.151 2.711a74.32 74.32 0 0 0-1.683 1.076c-.805.6-1.586 1.242-2.27 1.986-.458.476-.871.993-1.186 1.593-.706 1.242-.802 2.587-.39 3.972.359 1.18 1.119 2.07 2.228 2.732.792.498 1.65.808 2.66.828 1.076.043 2.173.084 3.217-.144.337-.082.705-.145 1.161-.04M344.072 332.913c-.14-.063-.293-.083-.336-.145a7.525 7.525 0 0 1-.576-.994c-1.021-1.903-2.043-3.847-3.085-5.773a51.037 51.037 0 0 0-5.412-8.297 20.46 20.46 0 0 0-2.737-2.98 14.924 14.924 0 0 1-1.717-1.883c-1.956-2.544-3.639-5.277-4.877-8.194a24.551 24.551 0 0 1-.925-2.587c-.217-.765-.194-1.489.12-2.235.163-.392.38-.806.609-1.22.064-.145.196-.227.337-.331.043-.02.152 0 .217.022.271.165.347.475.488.744 1.228 2.192 2.434 4.366 3.651 6.517.283.58.62 1.159.934 1.718 1.217 1.945 2.662 3.725 4.39 5.215a28.715 28.715 0 0 1 4.376 4.8c.74.992 1.424 1.985 2.173 3 .978 1.345 1.576 2.856 1.892 4.49.303 1.45.531 2.919.554 4.388 0 .578.075 1.138.097 1.696 0 .497 0 .993-.022 1.49.002.186-.097.351-.151.559M231.653 215.008c1.294.042 2.412.33 3.504.725.32.145.614.331.93.496.33.207.656.434.988.62 1.097.642 2.26.704 3.417.208.331-.145.657-.289.96-.476 1.283-.726 2.678-1.035 4.195-1.118 4.498-.227 8.984-.248 13.482-.393.413 0 .804.021 1.194.021 0 0 .13.103.173.166 0 0 .022.165-.043.207-.076.124-.196.227-.303.331-.89.641-1.825 1.22-2.804 1.737a6.127 6.127 0 0 1-2.846.745c-1.076 0-2.15.042-3.237.042a18.33 18.33 0 0 0-3.53.393c-1.385.289-2.652.828-3.82 1.55a23.801 23.801 0 0 0-2.596 1.987 43.769 43.769 0 0 0-4.412 4.47 6.6 6.6 0 0 1-.726.785c-.081.104-.344.042-.38-.102-.065-.25-.157-.518-.2-.786-.735-3.705-2.147-7.181-4.163-10.43a9.584 9.584 0 0 1-.45-.806c-.066-.125.076-.352.212-.352.2-.02.39-.02.455-.02M335.762 198.392c1 .041 1.825.373 2.586.85.24.124.413.35.575.558.196.247.315.537.51.785.534.87 1.065 1.78 1.664 2.607.325.497.685.952 1.043 1.386.467.518 1.042.931 1.65 1.283.946.517 1.913.952 2.923 1.283.38.103.729.248 1.119.372a2.85 2.85 0 0 1 1.38.912c.534.599.957 1.282 1.207 2.068.097.31.163.641.163.993 0 .31-.076.621-.26.848-.196.228-.38.477-.598.683-1.065.973-2.206 1.8-3.39 2.545-.065.041-.14.062-.14.062-.196.104-.435 0-.435-.144-.033-.29-.054-.6-.076-.912a7.644 7.644 0 0 0-.336-2.006c-.414-1.429-1.391-2.319-2.912-2.731-.87-.227-1.77-.374-2.705-.415-.684-.041-1.358-.041-2.02-.041-.794 0-1.564-.145-2.336-.352-1-.27-1.89-.579-2.804-.994a8.557 8.557 0 0 1-1.706-1.055c-.336-.27-.456-.6-.413-1.014.023-.185.055-.372.13-.537.38-1.013.87-1.966 1.5-2.836a.602.602 0 0 1 .196-.165c.076-.021.24-.083.315-.021.217.082.392.227.586.373.598.413 1.175.869 1.782 1.303.24.145.49.269.728.393.271.145.533.165.826.165.227-.02.424-.226.446-.475.022-.29-.021-.6-.141-.89-.26-.622-.565-1.262-.836-1.884-.271-.621-.587-1.241-.858-1.862a1.783 1.783 0 0 1-.142-.558c-.053-.227.196-.538.467-.56.116-.017.235-.017.312-.017"/><path fill="#ebb432" d="M337.402 196.881c-.228-.02-.63-.041-1.01-.082-.37-.041-.75-.082-1.098-.104-.803-.082-1.477.167-2.075.621-1.086.849-1.944 1.822-2.53 3.022-.24.517-.456 1.034-.673 1.573-.38.911-.784 1.82-1.152 2.73-.413 1.015-1.021 1.905-1.727 2.712a22.285 22.285 0 0 1-2.118 2.152 1.57 1.57 0 0 1-1.054.476c-1.956.104-3.9.208-5.855-.02-.087-.022-.185-.042-.185-.042-.076-.082-.152-.145-.152-.206l.033-.208c.098-.103.162-.187.24-.27.152-.124.315-.227.477-.33a20.504 20.504 0 0 0 4.747-5.049c.478-.682.89-1.345 1.337-2.028.815-1.283 1.62-2.545 2.531-3.726.923-1.2 1.923-2.358 2.998-3.372a11.36 11.36 0 0 1 1.987-1.51c.762-.436 1.564-.725 2.424-.786 1.282-.083 2.466.082 3.629.557.358.167.65.394.975.642.415.33.652.765.75 1.263.153.744-.216 1.47-.955 1.799-.403.145-.772.228-1.544.186M351.895 311.433c-.902-.02-2.151 0-3.456-.061-1.814-.104-3.639-.25-5.443-.622a8.956 8.956 0 0 1-3.345-1.428c-1.141-.785-2.13-1.738-3.01-2.753-.805-.91-1.303-1.883-1.51-3.04-.174-.91-.207-1.841-.153-2.732.022-.145.033-.31.076-.434.076-.394.315-.642.708-.725.194-.041.401-.083.575-.103.674 0 1.347 0 2.01.02.292 0 .532.104.707.331.194.249.379.496.553.766.576.848 1.27 1.656 2 2.422a12.542 12.542 0 0 0 3.726 2.627c3.563 1.656 7.191 3.229 10.821 4.76.37.144.739.33 1.064.516 0 0 .087.125.087.187l-.087.145c-.294.04-.52.063-.772.082-1.4 0-2.77.023-4.551.042M366.192 229.203c0 1.22-.185 2.42-.522 3.6-.205.786-.64 1.469-1.25 2.048a13.396 13.396 0 0 1-3.693 2.483 4.167 4.167 0 0 1-2.78.207 12.293 12.293 0 0 1-3.999-2.007 3.181 3.181 0 0 1-.413-.415c-.152-.206-.205-.434-.075-.662a7.4 7.4 0 0 1 .488-.786c.24-.33.49-.683.75-1.014.391-.58.468-1.158.217-1.842-.283-.828-.553-1.655-.826-2.482a10.07 10.07 0 0 1-.359-1.201 2.813 2.813 0 0 1 0-1.118.922.922 0 0 1 .87-.682c.239 0 .467.021.684.083.293.102.608.227.89.372a6.33 6.33 0 0 1 2.38 2.318c.434.786.554 1.614.184 2.42-.293.642-.576 1.242-.868 1.864-.175.393-.37.745-.467 1.18-.044.186.15.476.325.537.12.041.24.083.36.104.825.102 1.65-.042 2.423-.373.282-.082.476-.27.63-.497.51-.87.868-1.78.912-2.814a2.313 2.313 0 0 0-.163-1.096c-.25-.662-.467-1.325-.75-1.926-.445-1.096-.445-2.15-.032-3.226.173-.415.326-.849.51-1.264.075-.145.413-.248.543-.145.184.084.337.186.478.31.857.622 1.619 1.326 2.368 2.091.706.765 1.119 1.655 1.184 2.69.011.393.001.809.001 1.243M273.098 217.16c-.02.144-.043.27-.119.352a5.81 5.81 0 0 1-.488.64 15.654 15.654 0 0 1-2.858 2.566 3.996 3.996 0 0 1-1.587.767c-5.17 1.303-10.114 3.248-14.905 5.461-.467.249-.923.435-1.401.643 0 0-.13-.021-.217-.042-.11-.02-.11-.166-.066-.29l.066-.104s.043-.06.066-.102c1.216-1.634 2.476-3.229 3.921-4.718 2.38-2.504 5.247-4.387 8.463-5.835a8.323 8.323 0 0 1 4.672-.621c.803.102 1.65.123 2.455.33.5.124 1 .249 1.478.414a.886.886 0 0 1 .401.248c.076.083.098.209.12.29M297.662 230.28c0-.747.077-1.346.228-1.967.26-.93.63-1.862 1.163-2.71a6.168 6.168 0 0 1 3.172-2.629c1-.352 2-.64 2.998-.808 1.717-.27 3.477-.495 5.172-.744.63-.083 1.304-.145 1.933-.27a8.43 8.43 0 0 0 2.857-1.033 31.304 31.304 0 0 0 1.988-1.263c.5-.33.99-.622 1.543-.848.902-.414 1.794-.394 2.64.083a9.752 9.752 0 0 1 1.999 1.406c.11.083.196.228.25.372.044.042 0 .146-.022.21-.12.205-.347.288-.554.391-1.553.766-3.129 1.49-4.77 2.09-1.195.496-2.467.786-3.802.973-2.054.29-4.183.58-6.236.89-.631.103-1.26.248-1.88.414-1.021.227-1.858.744-2.597 1.488-.793.87-1.553 1.739-2.249 2.67-.424.6-.88 1.138-1.37 1.718-.315.33-.683.64-1.01.973-.109.062-.206.125-.326.186-.271.145-.684.042-.837-.186-.065-.167-.184-.352-.196-.538a7.04 7.04 0 0 1-.094-.869"/><path fill="#ebb432" d="M318.695 212.442c.662.02 1.347.02 2.03.061.848.023 1.631.27 2.337.705.76.455 1.51.889 2.217 1.365 1.39 1.014 2.78 2.008 4.138 3.105 2.782 2.255 5.705 4.387 8.703 6.414.39.247.837.496 1.13.91.043.04 0 .145 0 .145s-.033.125-.076.145l-.076.02c-.197 0-.36.022-.51 0-1.402-.227-2.804-.517-4.184-.973-1.282-.455-2.52-1.076-3.585-1.985-2-1.717-4.172-3.29-6.312-4.822a19.483 19.483 0 0 0-3.03-1.82c-.315-.145-.675-.29-.966-.435-1.207-.517-2.49-.58-3.75-.33-.77.144-1.563.372-2.303.64-.868.352-1.78.642-2.66.931-.815.31-1.64.455-2.412.539-1.076.103-2.01-.208-2.77-.89-.174-.167-.174-.477.021-.622a8.842 8.842 0 0 1 1.944-1.137c1.184-.497 2.424-.93 3.748-1.18a42.622 42.622 0 0 1 6.366-.786M288.873 248.881s0-.186.065-.372c.347-1.634.696-3.25 1.294-4.843.444-1.22.977-2.4 1.706-3.496.119-.208.239-.415.314-.6.174-.393.055-.767-.239-1.056-.292-.269-.64-.31-1.02-.207a.916.916 0 0 0-.391.27c-.25.289-.49.6-.684.91-.478.786-.87 1.635-1.217 2.442a29.543 29.543 0 0 0-1.738 5.793c-.066.31-.152.6-.174.912-.043.64-.434.93-1.042 1.055a26.74 26.74 0 0 0-1.24.352c-.173.02-.413-.167-.413-.352.022-.146 0-.311.045-.435.64-3.351 1.455-6.602 2.824-9.725.423-.951.88-1.883 1.444-2.752.164-.248.337-.455.49-.662.086-.083.347-.125.457-.062.108.103.259.186.369.27 1.042.847 2.216 1.488 3.465 2.069.782.372 1.651.703 2.478 1.075.27.105.51.228.739.352.13.043.195.27.13.394-.152.31-.305.622-.5.91a28.29 28.29 0 0 0-3.334 7.014c-.153.559-.305 1.118-.467 1.635-.098.33-.175.683-.294.993-.065.186-.338.31-.489.227l-.098-.04c-.716-.373-1.39-.766-2.085-1.117-.33-.189-.427-.438-.395-.954M344.225 199.633c-.435.022-.88.062-1.326.062-.434 0-.826-.04-1.26-.102-.228-.022-.467-.125-.684-.25-.293-.165-.457-.392-.467-.723a1.431 1.431 0 0 1 .228-.89c.217-.415.575-.725.945-.993 1.477-1.077 3.194-1.573 5.03-1.407a8.1 8.1 0 0 1 4.184 1.49c1.042.682 1.846 1.572 2.379 2.648.52 1.18.89 2.359 1.108 3.6 0 0 .022.145.022.227.043 1.385.098 2.75-.196 4.076-.098.414-.217.828-.36 1.222-.076.165-.172.31-.314.476-.227.332-.717.373-1.032.104a4.242 4.242 0 0 1-.467-.518 5.629 5.629 0 0 1-1.217-3.145c-.022-.476 0-.91-.022-1.366-.066-.91-.294-1.737-.728-2.524-.564-.953-1.444-1.553-2.63-1.8-1.042-.227-2.085-.227-3.193-.187M364.55 249.978c-1.595-.144-1.52-.042-1.812-1.469-.435-1.987-1.021-3.911-1.945-5.712-.414-.766-.837-1.47-1.39-2.15-.132-.187-.316-.352-.467-.497a1.056 1.056 0 0 0-1.218-.083c-.401.27-.553.849-.336 1.241.054.104.14.207.196.27 1.39 1.84 2.259 3.91 2.824 6.104.13.519.294 1.035.391 1.573.076.353.076.745.076 1.117.021.374-.554.683-.89.497a2.461 2.461 0 0 1-.5-.31c-2.53-2.297-4.39-5.03-5.334-8.236a14.206 14.206 0 0 1-.565-2.566c-.044-.145-.044-.29-.066-.434 0-.518.284-.62.696-.559.52.083 1.076.208 1.63.29a9.172 9.172 0 0 0 3.444-.021c.38-.062.793-.144 1.173-.228.14-.02.37.104.37.228.064.56.337.973.673 1.428.608.724 1.064 1.511 1.456 2.337.99 2.07 1.738 4.243 2.412 6.415.032.144.01.29.032.455 0 .124-.152.29-.315.31h-.534M338.293 286.167c-.098.498-.12 1.057-.338 1.553-.173.331-.39.641-.706.911a.931.931 0 0 1-.977.206 4.527 4.527 0 0 1-.858-.415c-.51-.35-1.02-.723-1.423-1.198-.728-.848-1.5-1.656-2.25-2.525-1.02-1.2-1.912-2.484-2.78-3.807-.076-.166-.174-.33-.272-.497-.097-.145 0-.373.197-.434.173-.083.346-.166.554-.227a17.278 17.278 0 0 0 3.78-1.635c.109-.061.207-.124.326-.166.196-.041.413-.041.564.063.219.207.457.393.675.621 1.411 1.51 2.4 3.208 3.095 5.09.24.683.295 1.407.414 2.132.02.103-.001.226-.001.328M340.378 214.822a51.435 51.435 0 0 1-1.672-.104c-.554-.02-1.164-.063-1.75-.082-.782-.021-1.488.27-2.053.808-.435.434-.826.827-1.218 1.24-.162.166-.401.228-.64.228-.75 0-1.402-.185-1.987-.662a56.91 56.91 0 0 0-2.098-1.677c-.097-.102-.228-.185-.336-.289-.391-.373-.423-1.055-.077-1.47a2.9 2.9 0 0 1 .684-.6 4.93 4.93 0 0 1 1.488-.661 17.346 17.346 0 0 1 3.531-.58c1.043-.062 2.087.021 3.075.228 1.575.33 3.161.765 4.694 1.344.369.186.76.352 1.097.642a.728.728 0 0 1 .075 1.034c-.13.186-.336.31-.565.393-.38.062-.748.145-1.161.186-.348.022-.707 0-1.088 0v.022M285.94 211.242c.369.041.696.186.914.497.172.207.314.454.38.703.174.434.293.931.39 1.428.25 1.304.565 2.586 1.174 3.808.076.206.021.373-.121.517-.108.145-.272.268-.424.392-1.292 1.118-2.27 2.442-3.019 3.912l-.294.62c-.347.704-.455.829-.608.766-.326-.185-.304-.537-.39-.807-.501-1.985-.968-3.972-1.174-6.02-.153-1.552.217-3 1.042-4.367.24-.373.545-.725.957-.993a2.04 2.04 0 0 1 1.173-.456M360.14 209.09c-.086 1.946-.25 3.745-.717 5.525-.173.621-.358 1.263-.684 1.821-.195.352-.651.414-1.01.165-.391-.268-.685-.62-.836-1.075-.087-.208-.098-.435-.098-.683.011-.249.098-.517.13-.766.098-.806.12-1.574-.119-2.38a3.525 3.525 0 0 0-.577-1.22c-.239-.29-.271-.622-.172-.974.053-.311.151-.6.227-.89a7.493 7.493 0 0 0 .26-3.144c-.054-.662-.162-1.282-.217-1.904-.054-.662-.054-1.303.197-1.925.14-.248.302-.433.596-.517.293-.083.576-.02.814.124.228.165.424.374.543.601.36.6.675 1.2.848 1.861.467 1.801.816 3.622.816 5.381M374.73 201.434c-.022.476-.022.93-.065 1.386-.021.765-.315 1.469-.944 2.006-.479.456-.946.911-1.457 1.345-1.52 1.284-3.097 2.462-4.748 3.622-.12.103-.26.186-.402.27-.294.165-.532.082-.597-.25a38.333 38.333 0 0 1-.391-2.006.856.856 0 0 1 .217-.745c.26-.29.477-.56.76-.848.739-.807 1.488-1.574 2.238-2.4 1.423-1.696 2.78-3.456 3.998-5.36.142-.227.304-.434.467-.641.097-.103.37-.063.413.063.098.207.196.413.227.64.218 1.055.285 1.8.285 2.918M364.55 215.67c.045.497.067.952.12 1.448.023.496.284.89.697 1.159.228.186.521.352.782.518.24.144.457.289.64.455.272.208.447.455.51.766a2.615 2.615 0 0 1-.02 1.677c-.077.29-.414.537-.674.496-.403-.022-.794-.022-1.163-.124-1.402-.394-2.586-1.077-3.628-1.945a7.285 7.285 0 0 1-.555-.6c-.532-.642-.76-1.304-.532-2.112.283-.889.457-1.78.696-2.668a37.41 37.41 0 0 0 .858-4.677c.02-.27.087-.538.163-.786 0 0 .076-.144.13-.166 0 0 .164.041.217.063l.164.185c.814 1.345 1.422 2.794 1.542 4.367.054.64.195 1.282.054 1.945M370.689 251.343c0 .27-.163.415-.163.415-.229-.022-.413 0-.532-.063a46.036 46.036 0 0 0-1.674-.64.982.982 0 0 1-.51-.6c-.097-.374-.196-.746-.294-1.118-.63-2.256-1.346-4.49-2.336-6.662-.532-1.18-1.162-2.339-1.987-3.375-.207-.247-.413-.517-.63-.785-.099-.124-.088-.352.01-.434.598-.434 1.238-.786 1.923-1.118.12-.04.347 0 .434.104.13.145.294.29.413.434.707.869 1.271 1.8 1.76 2.794 1.217 2.399 2.119 4.924 2.824 7.468.23.93.447 1.843.664 2.794a4 4 0 0 1 .098.786M384.018 140.743a645.76 645.76 0 0 0-.065-1.366c0-.476.065-.889.26-1.345.37-.89.729-1.759 1.077-2.649.066-.185.183-.351.282-.495.033-.062.228-.125.294-.104.119.042.238.104.336.145.25.165.51.352.75.537.456.352.804.829 1.044 1.387.217.537.433 1.117.651 1.697.335.869.662 1.779 1.02 2.648.175.433.153.828-.076 1.22-.477.767-.945 1.593-1.423 2.359a.531.531 0 0 1-.62.207 20.781 20.781 0 0 1-.532-.248c-.804-.393-1.587-.828-2.411-1.24-.37-.186-.51-.456-.534-.808 0-.476-.021-.931-.032-1.386-.022-.187 0-.393 0-.559h-.021M196.432 233.9c.696.062 1.163.062 1.641.124.157 0 .32.042.477.083.228.061.424.248.424.497.01.662.01 1.282.01 1.924a.705.705 0 0 1-.327.58c-1.384.972-2.758 1.944-4.123 2.896-.216.145-.461.166-.69.145l-.254-.063a234.133 234.133 0 0 1-3.351-.724c-.696-.166-.826-.331-.636-1.056.206-.703.564-1.221 1.179-1.655 1.13-.765 2.254-1.552 3.356-2.359a2.61 2.61 0 0 1 1.782-.455c.257.042.491.064.512.064M330.21 291.652c.022-.103.022-.372.097-.622a14.43 14.43 0 0 1 .51-1.509s.12-.209.174-.311c.066-.104.305-.187.435-.125.098.063.216.105.216.105 2.25 1.47 4.216 3.04 5.88 4.966.39.434.695.91.944 1.448.14.33.173.724.14 1.097-.02.372-.389.703-.749.785a3.032 3.032 0 0 1-1.423-.063c-2.13-.64-3.9-1.696-5.335-3.33-.574-.642-.933-1.406-.89-2.441M345.05 223.037h1.064c.315 0 .597.124.836.33.24.249.49.497.708.767 1.118 1.302 2.14 2.668 2.977 4.117.195.289.358.579.532.889.587 1.014.63 2.111.314 3.187-.043.186-.336.29-.465.186a6.322 6.322 0 0 1-.794-.683c-.913-.889-1.814-1.82-2.737-2.69-1.662-1.676-3.314-3.371-5.095-4.986-.152-.125-.272-.311-.435-.496-.097-.104 0-.353.141-.374.868-.164 1.9-.247 2.954-.247M204.44 225.375c-.185-.021-.631-.021-1.064-.082-.865-.145-1.23-.6-1.17-1.428.028-.311.082-.601.138-.89.168-.64.472-1.221.983-1.655.212-.166.407-.351.63-.518 1.02-.704 2.123-1.282 3.291-1.8.283-.125.539-.063.777.104.19.144.386.289.564.434.533.393 1.07.744 1.674 1.055.217.104.429.227.597.374.08.06.103.226.08.31-.087.185-.206.31-.346.454-.727.808-1.555 1.512-2.439 2.152-.506.352-1.049.683-1.532 1.034-.483.33-1.01.498-1.575.456-.115-.021-.23 0-.608 0M357.109 259.62c.326 0 .608-.02.88-.02.153 0 .293.207.271.33v.166c-.488 1.16-1.075 2.192-1.857 3.124a4.635 4.635 0 0 1-.945.87c-.391.27-.827.434-1.314.414-.446 0-.858-.042-1.283-.165-1.238-.374-2.356-.974-3.412-1.635-.216-.145-.433-.33-.651-.497-.12-.082-.195-.31-.12-.414.315-.496.609-.993.946-1.449.076-.124.271-.206.271-.206.619-.021 1.13-.041 1.663-.041 1.336.02 2.65-.145 3.944-.29.554-.042 1.096-.125 1.607-.187M375.143 161.022v1.925a.897.897 0 0 1-.26.64c-.663.663-1.424 1.263-2.249 1.843-.141.082-.456.04-.554-.082-.13-.228-.315-.456-.445-.683a31.994 31.994 0 0 1-.945-1.677 39.292 39.292 0 0 1-.076-1.924c-.021-.621.01-1.2.01-1.842 0-.31.045-.6.185-.89.347-.537.75-1.138 1.14-1.717.021-.042.033-.062.033-.062.14-.124.358-.167.5-.083.054.042.13.062.195.103.728.621 1.445 1.222 2.151 1.8.217.187.315.435.315.725v1.924M329.254 286.81c-.032.56-.13 1.035-.435 1.429-.271.351-.76.476-1.172.33a3.276 3.276 0 0 1-1.043-.58c-.565-.496-1.13-1.033-1.695-1.551-.553-.517-1.107-1.096-1.673-1.655a12.972 12.972 0 0 0-1.825-1.572c-.076-.084-.174-.167-.25-.25-.12-.103-.14-.31-.02-.413.042-.042.096-.103.096-.103.75-.518 1.434-1.035 2.13-1.532.26-.186.51-.228.793-.062 1.706 1.076 3.194 2.38 4.356 4.014.327.456.565.993.664 1.531.042.166.042.31.074.415M219.132 214.573c.206 0 .396 0 .603.042.706.083 1.417.186 2.113.331.158 0 .294.082.45.144.078.021.126.227.066.311-.048.082-.097.207-.172.29-.435.496-.87.972-1.283 1.488-.205.25-.456.415-.798.477-.75.166-1.461.33-2.194.495a53.684 53.684 0 0 0-3.14.663c-.64.145-1.282.166-1.9 0-.491-.144-1.039-.124-1.501-.373-.066-.04-.158-.207-.103-.29l.027-.102c.037-.063.07-.145.125-.209.635-.723 1.292-1.447 1.938-2.15.197-.248.473-.374.811-.415 1.423-.207 2.845-.434 4.258-.662.228.002.467-.02.7-.04M375.968 173.623c-.195-.04-.695-.082-1.14-.165-.359-.021-.673-.227-.89-.518-.153-.227-.314-.455-.423-.704-.228-.578-.425-1.199-.512-1.862-.032-.31-.053-.662-.109-.993-.043-.372.034-.681.316-.952.825-.786 1.65-1.592 2.52-2.4a.897.897 0 0 1 .196-.103c.076-.042.294 0 .294 0 .119.124.196.228.196.228.194.496.358.89.51 1.282.586 1.531 1.151 3.04 1.75 4.574.107.268.205.559.27.869.022.082-.066.227-.14.289-.12.082-.294.145-.435.185-.523.146-1.577.27-2.403.27M311.416 210.766c-.609.02-.958-.042-1.293-.186-.794-.332-1.195-1.16-.858-2.07.076-.166.172-.33.293-.496.489-.726 1.174-1.325 2.031-1.656.554-.269 1.13-.434 1.684-.579 1.38-.27 2.836-.373 4.28-.414.153 0 .293.041.435.082.13.02.27.227.206.331-.054.124-.087.207-.152.31a13.22 13.22 0 0 1-2.858 3.166c-.847.703-1.75 1.18-2.803 1.386-.39.084-.803.126-.965.126M316.021 204.186a3.335 3.335 0 0 1-1.564-.29c-.75-.372-.923-1.015-.63-1.696.099-.227.261-.415.37-.601.12-.144.26-.29.434-.414 1.673-1.282 3.564-1.924 5.738-1.883.432 0 .889.083 1.282.29.14.063.26.166.37.248a1.1 1.1 0 0 1 .38.704c.02.331-.044.663-.24.973-.25.434-.63.766-1.043 1.076-1.402.992-3.216 1.572-5.097 1.593M390.232 170.52c0-.704.012-1.428 0-2.152 0-.456.175-.807.522-1.096l.066-.063c1.217-1.117 2.476-2.172 3.682-3.249.164-.124.316-.268.51-.268 0 0 .165.02.197.082.066.104.12.207.14.31.023.352.076.745.055 1.119-.032.889-.077 1.82-.152 2.71a3.669 3.669 0 0 1-.891 2.07c-.945 1.24-2.13 2.254-3.422 3.166-.044.02-.12.06-.184.082-.174.082-.467-.042-.49-.207a3.377 3.377 0 0 1-.033-.455v-2.05M372.296 151.048a18.39 18.39 0 0 1-.032-1.097c-.021-.414.054-.765.293-1.097.413-.64.804-1.302 1.207-1.965.043-.081.098-.125.14-.166.098-.103.315-.166.446-.103a8.927 8.927 0 0 1 1.618 1.116c.217.187.327.436.37.704.262 1.263.5 2.526.761 3.789.022.143.033.288.022.433-.022.187-.045.393-.163.538-.447.621-.935 1.199-1.445 1.8-.12.166-.348.186-.533.062-.706-.455-1.434-.91-2.15-1.386a.824.824 0 0 1-.37-.579c-.066-.456-.077-.89-.12-1.346-.022-.226 0-.454 0-.702h-.044M228.948 232.472c-.445-.041-.887-.083-1.315-.145-.2-.02-.336-.187-.396-.393a.974.974 0 0 1-.06-.289c-.011-.849-.027-1.697-.027-2.504 0-.477.184-.828.532-1.097.098-.062.197-.124.293-.207 1.108-.807 2.234-1.593 3.357-2.38.18-.145.392-.249.587-.351.13-.063.36.02.407.144.06.104.12.186.147.31.24 1.036.446 2.09.69 3.104.093.415-.017.767-.314 1.056-.782.807-1.544 1.634-2.331 2.42a.87.87 0 0 1-.63.311h-.94v.02M301.007 263.449c-1.14-.062-2.052-.083-2.953-.29-.674-.144-1.261-.433-1.706-.93a6.768 6.768 0 0 1-.827-1.138c-.435-.766-.706-1.593-.902-2.442-.02-.186-.02-.373-.043-.579-.011-.27.185-.434.457-.392.077.04.163.04.24.062 1.716.537 3.443 1.097 5.224 1.614.14.062.293.104.435.166.271.103.488.29.608.518.445.93.924 1.841 1.413 2.773.022.062.022.124.043.184.022.105-.097.27-.097.27-.218.042-.315.103-.315.103-.685.019-1.217.038-1.577.08M365.464 339.803c-.022.185-.022.249-.045.331-.02.104-.195.269-.336.289l-.24.021c-.836-.063-1.672-.124-2.476-.165-.458-.063-.827-.227-1.142-.56-.923-1.014-1.857-1.965-2.78-2.979-.044-.022-.044-.063-.044-.063-.195-.227-.239-.413-.054-.64.294-.456.62-.932 1-1.388l.653-.806c.163-.186.433-.207.652-.083.12.063.217.125.293.208 1.142.807 2.26 1.655 3.39 2.483.14.062.26.167.401.27.153.166.317.35.327.579.162.889.28 1.737.4 2.503M320.747 287.534c.022.641-.076 1.241-.38 1.8a3.147 3.147 0 0 1-.749.993c-.945.848-2.206.828-3.086-.062-.489-.455-.814-1.035-1-1.676-.293-1.18-.118-2.338.598-3.374.326-.496.77-.848 1.38-1.035.39-.123.75-.123 1.163 0a2.433 2.433 0 0 1 1.39 1.016c.5.724.706 1.51.684 2.338M220.062 237.748c0-.29-.011-.58 0-.888 0-.332.13-.601.39-.829.147-.102.314-.228.467-.31.75-.58 1.505-1.138 2.26-1.676.19-.144.397-.249.598-.373a.897.897 0 0 1 .696-.063c1.059.27 2.118.601 3.183.911 0 0 .043.042.092.062.108.063.196.29.108.393-.048.082-.119.187-.189.29a174.628 174.628 0 0 0-3.66 3.559c-.327.31-.696.475-1.148.475-.548.023-1.113.105-1.667.125-1.027.042-1.129-.06-1.14-1.096v-.58h.01M379.413 342.99c.381.02.707.04 1.076.04.467.021.847.208 1.173.519.456.454.89.869 1.325 1.302.467.497.957.994 1.445 1.49.152.124.293.29.272.476 0 .745-.044 1.448-.078 2.152 0 .247-.26.434-.476.412-.49-.02-.946-.06-1.402-.102-.24-.021-.468-.063-.707-.082-.337-.021-.608-.187-.847-.415-.053-.04-.096-.104-.152-.165a89.884 89.884 0 0 1-2.574-2.814c-.293-.29-.446-.621-.424-1.035.01-.476.01-.95.01-1.448.022-.145.185-.31.185-.31.49-.022.847 0 1.173 0v-.02M397.99 349.901c-.326 0-.64-.04-.978-.04-.543 0-1.01-.168-1.466-.478-1.184-.846-2.411-1.675-3.65-2.523-.424-.29-.63-.683-.63-1.138-.012-.455-.033-.911-.012-1.366 0-.311.25-.559.63-.559a10.85 10.85 0 0 1 1.435.021c.359.02.673.143.945.371.098.064.196.146.282.208 1.217.994 2.424 1.967 3.705 2.897.608.454.968.993 1.065 1.677.053.227.097.455.108.68.023.105-.153.332-.27.312-.37 0-.762-.02-1.163-.042v-.02M390.895 155.85c.044-.104.098-.25.197-.374.043-.104.141-.165.239-.248.76-.621 1.51-1.24 2.271-1.842.14-.102.27-.165.39-.247.077-.042.271.021.293.103.077.207.174.434.217.64.316 1.864.608 3.745.923 5.608.067.373-.021.683-.335.89-.805.558-1.598 1.096-2.424 1.655-.097.062-.216.083-.336.104 0 0-.25-.042-.293-.145 0 0-.098-.186-.12-.29-.25-1.406-.511-2.772-.761-4.138-.065-.393-.14-.745-.217-1.137 0-.167-.022-.353-.044-.58M371.124 347.646c0 .145-.044.434-.066.724-.032.167-.228.373-.228.373-.554.041-.934.104-1.337.104-.314 0-.63-.104-.9-.27-.195-.145-.391-.268-.566-.434-1.107-.807-2.117-1.676-3.194-2.524-.119-.105-.238-.186-.378-.29-.393-.33-.588-.725-.565-1.18.02-.352 0-.704 0-1.035 0-.227.195-.434.433-.496a11.392 11.392 0 0 1 2.38-.082c.163 0 .359.082.533.185.26.186.5.393.705.621a91.38 91.38 0 0 1 2.314 2.277c.164.166.316.352.478.497.272.248.413.537.392.91l-.001.62M321.769 297.239c-.12.518-.217 1.076-.38 1.635-.077.372-.25.723-.49.992-.292.373-.9.642-1.498.373a2.98 2.98 0 0 1-.794-.518c-.804-.765-1.271-1.696-1.531-2.75-.175-.704-.207-1.408.022-2.111.163-.498.38-.953.706-1.305.36-.413.825-.703 1.434-.723.337 0 .64.082.858.351.217.227.434.454.576.682.49.807.826 1.656 1.02 2.545.055.25.055.539.077.829M352.524 258.337h-1.456s-.24-.063-.336-.104a.84.84 0 0 1-.12-.124c0-.186.022-.289.065-.393.39-.849.783-1.677 1.173-2.525.045-.082.098-.187.184-.247.12-.105.25-.207.392-.25.315-.082.651-.082.923-.103 1.272-.186 2.51-.414 3.737-.785.294-.084.63-.146.925-.186.118-.042.346.102.37.207.02.062.02.082.02.082.142.89.098 1.696-.195 2.525-.272.683-.794 1.2-1.585 1.428a6.741 6.741 0 0 1-.925.206c-1.065.166-2.095.332-3.172.27M224.482 226.927c-.401-.041-.803-.063-1.183-.125a.527.527 0 0 1-.462-.454c-.11-.621-.158-1.263-.049-1.903a.631.631 0 0 1 .346-.456c.153-.083.326-.166.505-.248 2-.745 3.983-1.511 5.993-2.235.109-.041.227-.082.337-.102.157-.022.314-.083.461-.042.5.125.995.27 1.473.414.184.063.223.373.077.476a5.987 5.987 0 0 0-.441.393c-1.693 1.241-3.378 2.504-5.083 3.766-.05.042-.115.063-.185.124-.38.31-.82.456-1.298.394-.169 0-.337 0-.49-.021v.02M217.226 232.803c0-.31-.011-.6 0-.91.021-.29.136-.579.402-.786.858-.683 1.727-1.325 2.597-1.986.206-.166.434-.228.668-.228.912.022 1.83.042 2.737.063.315 0 .526.207.554.496.021.311.06.58.049.89-.022.373-.14.683-.447.911-.184.144-.363.31-.543.454-1.003.726-2.01 1.47-3.008 2.215-.185.145-.375.29-.582.373-.162.102-.364.185-.55.185-.482.022-.96-.02-1.433-.041a.441.441 0 0 1-.385-.392c-.05-.394-.07-.828-.12-1.242h.061M297.77 235.844c-.01.579-.054 1.035-.25 1.47-.077.207-.217.27-.457.207-1.76-.496-3.466-1.2-4.986-2.131a7.447 7.447 0 0 1-1.553-1.263c-.977-1.034-1.782-2.213-2.455-3.455a10.098 10.098 0 0 1-1.044-3.25c-.172-1.013-.02-2.027.36-3.02.043-.103.097-.208.163-.29.076-.062.217-.144.304-.124.11.022.217.104.26.206.077.145.12.332.14.539.078.517.131 1.055.153 1.574.023.806.14 1.612.262 2.379.336 2.11 1.444 3.724 3.367 4.863 1.096.64 2.248 1.055 3.53 1.303.587.145 1.164.228 1.738.33.294.063.467.29.467.56v.102M300.084 265.332c1.336.144 2.814.31 4.335.454.315.021.586.187.783.455.554.745 1.14 1.512 1.727 2.297.12.145.032.373-.141.477-.576.351-1.206.538-1.858.703-.218.042-.412.063-.587.104-1.097.248-2.074-.022-2.923-.663a10.4 10.4 0 0 1-1.336-1.117c-.619-.662-1.107-1.407-1.597-2.132-.043-.083-.065-.144-.108-.207-.055-.166.119-.434.325-.434.393.02.782.063 1.38.063M197.79 231.706h-1.287c-.305 0-.582-.227-.592-.496v-1.47l.032-.102c.076-.187.125-.373.223-.539.086-.144.206-.247.326-.33.755-.725 1.52-1.428 2.287-2.172.385-.353.863-.498 1.39-.456.13.022.24.022.375.041a.464.464 0 0 1 .364.392c.043.25.049.539.07.787.01.125.2.289.2.289h1.077c.375 0 .57.186.57.558 0 .145 0 .312-.027.456-.044.145-.11.29-.19.415-.255.248-.5.497-.777.724-.652.538-1.314 1.055-1.976 1.614-.295.248-.615.33-.99.312h-1.076v-.023M341.248 220.884c-.848-.062-1.683-.062-2.51-.144-.783-.063-1.532-.331-2.096-.89-.066-.063-.087-.124-.043-.186l.195-.124c.022-.021.086-.021.086-.021h.131c1.935.166 3.89.124 5.834.103.847 0 1.674-.165 2.5-.31 1.225-.249 2.313-.766 3.334-1.43a14.862 14.862 0 0 0 2.65-2.44c.684-.808 1.348-1.594 2.043-2.401a3.94 3.94 0 0 1 .673-.6c.043-.041.141-.041.141-.041s.24.144.24.247c0 .084 0 .167-.023.228a2.661 2.661 0 0 1-.162.455c-.153.31-.294.6-.467.91-.934 1.698-2.195 3.166-3.553 4.533-.5.517-1.107.87-1.814 1.095a20.25 20.25 0 0 1-3.117.663c-1.337.187-2.706.291-4.042.353M293.577 249.73c.12.041.217.02.272.062.24.144.456.31.696.477 1.12.828 2.27 1.51 3.54 2.006.12.062.24.104.337.145.217.124.392.289.478.517.098.228.174.477.272.745.216.725.445 1.429.662 2.173.033.186.054.374.077.58.01.124-.174.29-.304.269l-.218-.022a21.018 21.018 0 0 1-3.553-1.325c-.25-.124-.51-.227-.75-.372-.76-.475-1.314-1.118-1.531-1.966-.227-1.015-.39-2.007-.13-3.041.01-.083.098-.166.152-.249M349.786 269.036c-.5 0-.966-.146-1.4-.332-1-.434-1.815-1.096-2.51-1.883-.196-.227-.228-.497-.076-.726.37-.558.77-1.075 1.13-1.592.195-.248.413-.289.749-.144 1.63.64 3.314 1.117 5.019 1.51.338.062.608.144.913.249 0 0 .163.061.196.123a.383.383 0 0 1 .066.208s-.043.145-.075.207a6.588 6.588 0 0 1-2.337 1.925c-.567.289-1.196.475-1.675.455M345.093 273.34a2.794 2.794 0 0 1-1.281-.187c-.816-.352-1.52-.785-2.13-1.407-.272-.247-.294-.496-.022-.807.434-.476.847-.972 1.336-1.448 1.055-.992.761-.932 2.14-.393 1.12.434 2.281.745 3.467 1.077.413.102.782.207 1.182.33.11.041.175.27.098.373 0 0-.043.062-.086.083-1.217 1.034-2.596 1.821-4.118 2.235-.271.082-.53.122-.586.144M211.197 240.79c-.315 0-.63-.02-.957-.041-.31-.02-.527-.27-.51-.537.103-.6.2-1.18.321-1.8.026-.186.184-.31.346-.414.154-.082.294-.145.424-.208a73.456 73.456 0 0 0 3.156-1.344c.5-.207.994-.311 1.495-.207.445.062.862.144 1.292.227.391.083.587.332.603.746.011.144 0 .31.022.434.048.6-.163 1.015-.767 1.282-1 .394-1.938.848-2.905 1.325-.783.393-1.62.64-2.52.537M364.616 330.76c.543 0 1.162.021 1.749.042.544.02 1.055.185 1.477.578.87.745 1.738 1.449 2.608 2.174.282.247.435.538.456.89 0 .082.022.144.022.227.076.848-.098 1.013-.978.951-.652-.041-1.314-.124-2.01-.166-.641-.021-1.164-.247-1.553-.682a117.42 117.42 0 0 1-1.228-1.097c-.705-.663-1.435-1.303-2.15-1.965-.13-.165-.271-.374-.447-.538-.043-.063-.043-.29.011-.31l.14-.105c.653-.02 1.23.001 1.903.001M373.807 341.788c-.022.395-.022.746-.066 1.118-.021.125-.196.29-.326.332-.586.102-1.195.102-1.78.082a.856.856 0 0 1-.511-.227c-.87-.683-1.707-1.345-2.554-2.049-.25-.185-.412-.455-.412-.765.043-.726.064-1.449.097-2.133a.495.495 0 0 1 .402-.414c.74-.143 1.477-.124 2.228-.02.173.02.369.124.488.248.75.786 1.477 1.592 2.194 2.38.174.186.217.414.217.641v.806h.023M321.889 291.299c.413-.869.955-1.592 1.5-2.337a.61.61 0 0 1 .77-.146c.13.084.271.167.413.249.88.64 1.489 1.428 1.945 2.4.564 1.262.38 2.42-.414 3.559-.369.559-.923.89-1.63 1.014-.216.041-.53-.082-.607-.27l-.087-.082c0-.063-.033-.145-.055-.227-.39-1.242-.933-2.422-1.564-3.559a2.867 2.867 0 0 1-.271-.601M381.9 150.841v2.503c0 .124-.021.228-.032.331-.022.125-.24.27-.38.227-.12-.062-.24-.082-.338-.145-.39-.27-.76-.537-1.162-.785-.434-.27-.696-.622-.749-1.097-.043-.31-.098-.6-.141-.91-.197-1.034-.348-2.112-.545-3.125-.064-.477 0-.91.218-1.325.347-.682.663-1.407 1-2.049.043-.102.12-.206.196-.309.075-.104.347-.104.402.02.098.166.218.331.27.497.284.579.479 1.22.73 1.8.314.622.402 1.303.413 1.986.043.786.064 1.594.097 2.38h.02M383.802 152.828a6.986 6.986 0 0 1-.076-.91c0-1.222.032-2.421.032-3.622 0-.434.097-.827.358-1.18.24-.372.468-.703.708-1.033a.346.346 0 0 1 .586.04c.555.975 1.14 1.987 1.64 2.98.141.229.185.518.185.767-.021 1.552-.087 3.104-.141 4.635a.966.966 0 0 1-.142.31l-.108.064a.438.438 0 0 1-.293-.042c-.946-.581-1.847-1.285-2.75-2.01M338.901 277.705a4.99 4.99 0 0 1-2.205-.518c-.303-.165-.598-.373-.792-.662-.098-.123-.12-.31-.045-.414.098-.102.164-.185.262-.247.87-.767 1.78-1.512 2.64-2.278.337-.31.706-.33 1.108-.185 1.324.476 2.596.931 3.91 1.385.13.064.272.167.414.227.097.064.119.25.054.311-.077.083-.142.187-.218.27a11.464 11.464 0 0 1-3.41 1.8c-.567.208-1.153.333-1.718.311M206.503 237.81c-.022.29-.037.6-.05.89-.02.372-.179.683-.51.87-1.124.6-2.297 1.2-3.433 1.78-.195.102-.462.145-.695.165-.277.022-.56.022-.827.022-.726 0-.945-.146-.99-.952-.009-.27 0-.559-.009-.808-.027-.495.163-.848.592-1.158a55.298 55.298 0 0 0 2.53-1.863 1.772 1.772 0 0 1 1.12-.373c.631.021 1.244 0 1.858.227.228.105.402.29.413.518l.001.682M222.604 219.829c0-.185.01-.29-.012-.414-.02-.434.136-.807.462-1.118.732-.745 1.515-1.47 2.396-2.048a3.806 3.806 0 0 1 1.162-.559c.418-.082.81-.02 1.124.228.294.207.56.435.77.682.43.518.762 1.098 1.028 1.677.098.186 0 .476-.2.579-.207.104-.413.207-.663.29-1.402.497-2.83 1.014-4.243 1.49-.335.103-.667.247-1.01.351-.108.022-.24.022-.336.041-.137.021-.354-.145-.36-.27-.043-.33-.092-.64-.118-.93M290.036 220.7c-.012-.52.401-.808.88-.684.542.104 1.063.29 1.575.538 1.13.6 2.205 1.324 3.27 2.07l.173.144c.141.144.217.33.197.517-.132 1.035-.447 1.987-1.077 2.836-.043.082-.12.124-.184.165-.174.125-.37.167-.565.063a5.89 5.89 0 0 1-.608-.331 11.883 11.883 0 0 1-3.303-3.951c-.218-.458-.413-.913-.358-1.368M385.16 339.824c.228.164.445.33.662.496.902.786 1.781 1.593 2.727 2.358.12.105.24.227.315.352.075.104.173.27.173.414.022.456 0 .89-.021 1.346 0 .206-.25.413-.49.433-.153.022-.315.062-.489.042a32.155 32.155 0 0 0-1.39-.082c-.958-.063-.958-.063-1.63-.808-.49-.476-.967-.993-1.434-1.51a2.865 2.865 0 0 1-.597-1.097 5.319 5.319 0 0 1-.164-1.366c0-.434.164-.6.652-.62h.957c.23.02.49.042.729.042M323.43 307.834c-1.13-.022-2.075-.27-2.976-.621-.934-.394-1.563-1.078-1.847-2.008-.196-.682-.293-1.407-.087-2.11.076-.31.228-.518.543-.539.803-.102 1.587-.27 2.369-.247.292.02.51.207.608.455 0 0 .044.144.087.227.304 1.282.901 2.484 1.575 3.642.163.248.272.538.39.808.065.102-.097.351-.097.351-.315 0-.51.02-.564.042M391.526 352.115h-.457a2.251 2.251 0 0 1-1.226-.311c-1-.662-1.989-1.305-2.924-1.944-.227-.187-.326-.435-.326-.725 0-.456 0-.89.022-1.344.01-.332.228-.538.576-.579.196-.042.37-.042.565-.042 1.183-.04 1.206-.04 2.106.622.784.579 1.523 1.18 2.293 1.758.39.29.609.622.653 1.056.032.372.054.765.075 1.137.022.166-.196.331-.39.352h-.967v.02M219.838 225.83v.207c.05.537-.168.952-.608 1.283-1 .744-1.984 1.51-2.966 2.276-.397.331-.843.374-1.314.352-1.045-.082-1.174-.31-1.186-1.18v-.35c0-1.098-.058-1.036.87-1.699.881-.62 1.798-1.22 2.678-1.862.668-.455 1.397-.476 2.168-.33.163 0 .353.207.358.392.01.31 0 .6 0 .911M380.368 328.795c-.445 0-.87-.042-1.282-.063-1.206-.04-1.01.063-1.64-.828-.609-.869-1.207-1.697-1.814-2.544a3.81 3.81 0 0 1-.24-.518c-.033-.062.077-.249.077-.249l.315-.062c1.076-.061 2.14-.02 3.204.27.294.062.586.166.858.33 1.347.766 2.315 1.841 2.923 3.229a.367.367 0 0 1-.359.476h-2.043v-.041M381.075 160.463c-.033.063-.097.207-.196.33-.662.911-1.37 1.78-2.031 2.69-.067.083-.163.145-.163.145-.174.124-.369.063-.369.063-.098-.167-.175-.27-.218-.374-.315-1.138-.63-2.276-.945-3.393a4.9 4.9 0 0 1-.121-.703c-.032-.33.022-.662.164-.973.413-.91.782-1.841 1.216-2.732a.974.974 0 0 1 .196-.269c.065-.082.271-.082.293-.02.098.102.185.186.217.288.652 1.574 1.294 3.166 1.957 4.759v.19M220.674 220.864c-.015.185-.026.33-.049.496-.037.144-.108.29-.255.372-.179.105-.331.187-.51.29-1.766.787-3.514 1.594-5.263 2.4a2.013 2.013 0 0 1-.44.186c-.38.125-.777.207-1.164.104-.315-.083-.62-.145-.934-.228-.136-.04-.18-.29-.098-.392.12-.082.218-.208.344-.311 1.379-1.077 2.797-2.132 4.188-3.228.406-.33.857-.476 1.423-.476.635 0 1.266-.063 1.917-.083 0 0 .304 0 .456.042 0 0 .217.102.24.185.076.208.12.456.145.643M393.025 340.403c.032-.373.077-.744.13-1.117a.374.374 0 0 1 .316-.312 4.785 4.785 0 0 1 1.879-.06c.173.04.348.123.51.247.924.807 1.836 1.572 2.76 2.38a.967.967 0 0 1 .315.703v1.242c-.022.247-.25.455-.49.434a31.65 31.65 0 0 1-2-.352 1.594 1.594 0 0 1-.542-.228c-.826-.475-1.694-.972-2.51-1.447-.196-.105-.315-.27-.315-.477-.023-.331 0-.683 0-1.014h-.053M378.88 340.197c-.292 0-.684 0-1.074-.042-.338 0-.609-.124-.881-.33a88.497 88.497 0 0 1-2.315-1.945.956.956 0 0 1-.39-.808v-.662c.011-.207.25-.435.467-.435.783 0 1.596 0 2.411.022.24 0 .468.062.652.207.858.6 1.706 1.22 2.542 1.862a.82.82 0 0 1 .347.58s.022.206.043.33c.044 1.034.044 1.304-1.249 1.222l-.553-.001M354.535 219.457c.065-.27.065-.52.118-.726.098-.392.577-.681 1.011-.681.13 0 .305.02.446.082.36.082.684.248.957.476 1.28 1.035 2 2.318 2.302 3.87a1.98 1.98 0 0 1-.184 1.117c-.173.434-.662.662-1.12.559a2.145 2.145 0 0 1-1.075-.476c-.326-.27-.663-.559-.957-.87-.673-.725-1.085-1.593-1.335-2.525-.098-.268-.098-.579-.163-.826M377.641 333.864h-2.52c-.36 0-.674-.104-.967-.352-.739-.682-1.52-1.324-2.27-2.007-.055-.062-.12-.125-.12-.125-.13-.165-.054-.413.087-.433a1.84 1.84 0 0 1 .467-.083h4.063c.196 0 .392.022.597.041.24.042.457.104.652.248.946.766 1.869 1.47 2.815 2.235 0 0 .065.062.087.103 0 0 0 .27-.087.29-.131.041-.283.104-.435.104h-2.368v-.021M385.529 336.285l1.76-.062c.315-.02.63.042.901.207a79.78 79.78 0 0 1 2.587 1.655c.118.062.216.208.26.331.075.414.097.828 0 1.242-.044.166-.217.351-.391.351-.685.02-1.37.02-2.042.02-.153-.02-.337-.061-.447-.143a2.547 2.547 0 0 1-.63-.332c-1.37-.889-2.748-1.738-4.17-2.627-.023-.04-.055-.04-.078-.082-.065-.083-.141-.167-.141-.167-.032-.186.077-.269.219-.29l1.095-.061c.35-.021.729-.021 1.077-.042M384.606 330.698h1.552c.294 0 .554.104.772.27 0 0 .098.102.163.166 1.163.972 2.357 1.944 3.53 2.938.077.062.131.186.174.29.023.04-.02.143-.054.186l-.163.041c-1.4.042-2.738.02-4.009-.124-.335-.042-.63-.144-.869-.352-.998-.93-2.02-1.862-2.954-2.793a.655.655 0 0 1-.141-.331s.066-.145.12-.186l.217-.061c.597-.022 1.129-.022 1.663-.022l-.001-.022M389.06 151.172c-.022-.662-.022-1.303-.043-1.883 0-.392.043-.744.26-1.096.39-.703.782-1.428 1.162-2.09.11-.184.24-.33.36-.476.076-.124.314-.103.358.022.325.62.521 1.24.74 1.924.087.228.087.518.087.786-.022.393-.067.807-.098 1.222-.066.599-.164 1.2-.218 1.8-.043.186-.065.371-.096.558-.089.414-.261.725-.577.952-.435.33-.869.622-1.326.952-.12.082-.369-.021-.39-.166-.022-.145-.067-.29-.076-.434-.067-.726-.11-1.429-.143-2.07M209.224 234.934c.071-1.262-.054-1.096.847-1.904.397-.372.82-.724 1.24-1.075.18-.145.413-.227.651-.227.778.02 1.505.123 2.25.227.206.04.364.184.434.372.185.434.267.89.278 1.345 0 .124-.104.289-.207.373-.147.166-.364.29-.57.414-.561.31-1.12.6-1.635.951-.875.56-1.825.663-2.852.642-.173 0-.374-.187-.386-.352-.028-.29-.039-.6-.05-.766M332.751 302.619c-.043.372-.065.745-.119 1.118-.021.062-.163.144-.26.207 0 0-.153-.021-.218-.063a1.02 1.02 0 0 1-.272-.247c-.26-.353-.51-.745-.783-1.118-1.032-1.614-1.922-3.31-2.846-4.966-.152-.311-.14-.601.045-.89.172-.29.412-.56.726-.725a.473.473 0 0 1 .467 0c.098.063.197.124.272.187 1.947 1.758 3 3.89 2.988 6.497M307.788 274.333s-.446-.063-.783-.167a6.37 6.37 0 0 1-2.522-1.82s-.064-.145-.086-.208c0 0 .022-.269.086-.31.087-.062.197-.125.305-.166a176.15 176.15 0 0 1 3.52-1.013c.304-.084.565-.022.783.185.543.559 1.087 1.076 1.663 1.634.293.27.25.6-.098.849-.413.248-.826.496-1.195.745-.413.208-.904.291-1.673.271M209.323 226.43c.49.042 1.01.062 1.521.103.315.041.532.228.564.497.022.745.055 1.429.071 2.151a.45.45 0 0 1-.44.457c-.277 0-.554-.02-.847-.042a96.862 96.862 0 0 0-2.596-.165c-.423-.042-.858-.082-1.298-.166-.349-.042-.553-.249-.663-.58 0 0-.11-.207-.098-.31a.787.787 0 0 1 .124-.393.515.515 0 0 1 .153-.186c.592-.393 1.163-.785 1.743-1.18a1.31 1.31 0 0 1 .675-.186c.357-.02.705 0 1.09 0M202.945 234.396c-.255 0-.492.022-.739 0-.222-.02-.462-.228-.5-.434-.02-.104-.037-.206-.037-.206-.07-1.18-.022-1.283.988-1.841.614-.311 1.238-.621 1.881-.953.293-.146.58-.248.918-.207.657.083 1.324.207 1.987.31.153.042.32.31.283.455-.077.331-.185.663-.272.974a1.007 1.007 0 0 1-.533.6c-.647.31-1.287.621-1.913.91a3.098 3.098 0 0 1-1.483.374h-.58v.018M385.192 170.85v-1.697c0-.289.098-.537.337-.702.608-.435 1.238-.808 1.835-1.222.219-.165.597.021.632.27.02.124.043.227.043.351.054 1.325 0 2.628-.185 3.952-.033.31-.152.58-.25.87-.293.745-.977 1.096-1.78.993-.272-.042-.544-.27-.544-.517-.045-.745-.088-1.449-.088-2.297M377.348 349.735c-.293-.021-.619-.062-.933-.062a1.232 1.232 0 0 1-.945-.476c-.349-.455-.684-.93-1.022-1.387-.271-.352-.543-.725-.835-1.118a1.75 1.75 0 0 1-.175-.289c-.077-.165.077-.392.271-.392.294-.022.565-.022.837-.042.304-.02.5-.165.62-.456.076-.227.195-.496.304-.744.066-.124.336-.124.413-.021.085.104.163.186.216.27.761 1.263 1.51 2.546 2.238 3.787.097.167.153.353.24.518.097.227-.11.476-.38.455-.294 0-.555-.02-.848-.02v-.023M355.643 248.716c.13.02.37.02.629.063.457.06.77.351.934.744.153.455.13.91-.066 1.344a2.164 2.164 0 0 1-1.032 1.056c-.75.33-1.487.56-2.304.475 0 0-.227 0-.346-.04-.664-.166-.815-.455-.74-.973.076-.434.174-.89.293-1.344.066-.249.218-.477.424-.643.633-.435 1.284-.662 2.208-.682M385.235 164.415c-.02.104-.043.27-.054.414-.021.063-.108.145-.108.145-.11.02-.207 0-.207 0l-.162-.082a7.768 7.768 0 0 1-1.739-2.566c-.196-.435-.24-.931-.196-1.448.034-.415.12-.808.196-1.223.173-.868.455-1.676.793-2.482a.733.733 0 0 1 .196-.27l.087-.04c.13-.042.195-.022.228.082.087.413.183.827.239 1.242.141 1.157.271 2.316.435 3.495.097.892.194 1.803.292 2.733M382.607 169.217v2.502c0 .166-.054.352-.098.539l-.097.062s-.153.041-.217 0c0 0-.153-.166-.228-.27a19.611 19.611 0 0 1-1.673-3.35c-.075-.27-.13-.52-.184-.767-.098-.517.054-.972.424-1.366.39-.393.836-.663 1.39-.848.293-.104.565.04.608.331.044.29.065.6.065.91v2.256h.01M313.751 277.705c-1.129 0-2.173-.372-2.987-1.18a7.05 7.05 0 0 1-.272-.351c-.077-.125-.022-.332.098-.415.097-.06.195-.124.293-.185.706-.269 1.423-.538 2.108-.807.227-.104.478-.042.683.083.13.081.271.145.392.247.51.332 1.02.704 1.532 1.056.119.062.194.144.292.227.174.145.197.434 0 .578a2.635 2.635 0 0 1-1.694.745c0 .002-.314.002-.445.002M390.059 163.485c-.021.124-.021.207-.054.27a2.63 2.63 0 0 1-1.022.93c-.043.02-.162-.021-.194-.063a.882.882 0 0 1-.207-.29 76.737 76.737 0 0 1-1.39-3.828c-.098-.227-.098-.434.022-.64.335-.58.66-1.118 1.02-1.657.033-.06.152-.124.195-.102.12.02.196.102.293.166l.044.082c.413 1.552.805 3.104 1.217 4.613.055.186.055.394.076.519M317.728 281.596c-.337 0-.685-.064-1-.27-.303-.207-.445-.498-.445-.87 0-.29.119-.578.283-.848.38-.58.825-1.118 1.356-1.532.164-.145.38-.165.554-.04.685.372 1.37.764 2.033 1.179.216.124.238.393.097.6a5.17 5.17 0 0 1-1.739 1.531c-.347.187-.748.27-1.139.25M297.967 248.612v.476c-.012.186-.197.31-.414.29-.684-.104-1.347-.31-1.967-.683-.476-.29-.869-.662-1.086-1.2-.239-.6.196-1.365.847-1.531.685-.165 1.326-.082 2 .104.206.082.39.29.412.517.098.663.175 1.345.25 2.028h-.042M353.774 222.912c-.022.083-.044.27-.097.435a1.056 1.056 0 0 1-1 .703 1.86 1.86 0 0 1-.923-.227c-.707-.414-1.044-1.055-1.141-1.78-.011-.351.097-.682.358-.951.294-.352.848-.477 1.314-.29.87.29 1.466 1.117 1.489 2.11M304.57 213.311c-.151-.063-.303-.082-.465-.145-.251-.102-.415-.434-.36-.64.066-.145.12-.27.208-.415.586-.91 1.488-1.448 2.573-1.593.13-.02.24-.02.38 0 .447.022.784.476.578.89-.62 1.137-1.63 1.696-2.914 1.903"/><path fill="#ebb432" d="M295.012 230.403c0 .186-.294.454-.49.434-.152-.022-.337-.022-.477-.105-1.064-.62-1.87-1.467-2.281-2.668-.043-.124-.043-.331-.043-.538.02-.207.314-.414.531-.374.121.022.251.042.36.063 1.226.663 2.008 1.655 2.4 2.939.021.084 0 .167 0 .249"/></g></svg>