<svg xmlns="http://www.w3.org/2000/svg" xml:space="preserve" width="489.411" height="489.676" viewBox="0 0 129.49 129.56"><path fill="#fff" d="M59.01 129.31c-22.071-1.969-41.833-15.304-51.957-35.06-9.685-18.9-9.377-42.001.807-60.448C23.754 5.012 57.976-7.416 88.53 4.506c14.285 5.575 26.822 16.948 33.874 30.731 9.719 18.995 9.423 42.038-.776 60.513-12.551 22.734-37.011 35.844-62.617 33.56zm2.823-20.461V94.713l-1.521.13c-3.12.264-7.171.942-10.176 1.7-3.07.776-7.289 2.204-7.696 2.606-.43.424 2.756 7.532 5.093 11.364 3.673 6.02 8.075 10.18 12.522 11.834.906.336 1.676.618 1.713.625.036.008.066-6.347.066-14.122zm10.755 11.987c3.492-2.081 7.892-7.303 10.9-12.936 1.363-2.552 3.746-7.993 3.746-8.554 0-.322-4.294-1.888-7.673-2.799-2.079-.56-7.431-1.455-10.253-1.713l-1.654-.151v28.294l1.718-.624c.944-.343 2.392-1.025 3.216-1.517zm-24.952-.568c-3.292-3.453-7.155-9.891-9.642-16.068-.556-1.383-1.052-2.514-1.102-2.514-.049 0-1.036.552-2.192 1.226-2.275 1.327-5.697 3.737-7.556 5.32l-1.162.991 1.058.918c3.26 2.827 9.215 6.57 13.345 8.387 2.907 1.28 8.03 3.135 8.202 2.97.064-.061-.364-.615-.95-1.23zm36.976.074c3.809-1.358 8.697-3.76 11.882-5.835 2.979-1.942 6.88-4.942 6.88-5.291 0-.565-5.849-4.828-9.56-6.968l-1.224-.707-.868 2.19c-2.328 5.867-6.264 12.586-9.379 16.013-.921 1.014-1.346 1.654-1.096 1.654.224 0 1.738-.475 3.366-1.055zm-59.115-18.127c2.43-1.86 5.283-3.74 7.63-5.026 1.018-.559 1.886-1.041 1.93-1.072.042-.03-.278-1.468-.713-3.196-1.596-6.335-2.785-14.429-3.144-21.397l-.19-3.704-25.294-.137.134.862c.074.474.209 1.696.3 2.715.09 1.018.4 3.102.69 4.63 1.904 10.059 6.462 19.457 13.295 27.41l1.613 1.877.926-.755c.51-.415 1.78-1.408 2.823-2.206zm86.434-2.116c5.463-7.222 9.057-15.26 10.765-24.077.43-2.219 1.029-6.803 1.046-8.004.004-.26-2.676-.33-12.526-.33H98.685l-.167 1.389a30.738 30.738 0 0 0-.17 2.976c-.007 4.162-1.643 15.03-3.159 20.982l-.761 2.99 1.325.714c2.35 1.266 7.426 4.712 9.737 6.61l2.249 1.847.996-1.093c.547-.602 1.986-2.403 3.197-4.004zm-68.486-7.546c4.715-1.673 9.66-2.744 15.081-3.265l3.175-.305.139-21.295H36.689l.153 2.976c.3 5.833 1.359 13.67 2.53 18.715.959 4.136 1.019 4.3 1.51 4.103.245-.098 1.399-.516 2.563-.93zm45.88.071c1.82-6.953 2.88-13.92 3.34-21.96l.17-2.976H67.649l.069 10.648.07 10.648 3.174.3c5.448.516 10.872 1.72 15.45 3.427 1.252.467 2.362.862 2.466.878.103.016.305-.418.448-.964zM31.19 58.128c.35-7.021 1.631-15.664 3.248-21.918.356-1.377.623-2.517.594-2.531-3.006-1.541-8.421-5.233-12.747-8.691l-.623-.498-.882 1.001c-8.71 9.88-13.518 21.19-14.876 34.988l-.137 1.392 25.243-.138zm30.644-6.821v-10.56l-2.315-.177c-5.24-.401-11.069-1.644-16.41-3.5-1.494-.52-2.752-.898-2.795-.84-.176.235-1.792 7.684-2.148 9.893-.508 3.164-1.13 9.084-1.341 12.766l-.17 2.977h25.18zm30.812 7.715c-.235-4.164-.851-9.805-1.467-13.428-.632-3.72-1.803-8.905-2.079-9.204-.106-.115-1.372.206-2.815.712-5.16 1.812-11.259 3.126-16.183 3.486l-2.447.18v21.098h25.152zm31.1 2.702c0-.079-.125-1.3-.277-2.712-1.333-12.337-5.923-23.076-13.93-32.59-.844-1.005-1.608-1.834-1.697-1.844-.089-.01-1.101.764-2.25 1.72-2.226 1.854-6.882 5.017-9.495 6.452-.873.48-1.611.89-1.64.913-.028.023.297 1.407.724 3.076 1.515 5.926 2.754 14.144 3.039 20.163.084 1.785.212 3.632.284 4.105l.13.86h12.557c6.905 0 12.555-.065 12.555-.143zM61.834 20.74V6.603l-1.594.538c-4.347 1.468-9.004 5.83-12.705 11.9-2.446 4.012-5.602 11.141-5.126 11.58.35.322 5.424 2.014 7.916 2.64 3.22.808 7.72 1.51 10.12 1.578l1.39.04zm12.832 13.456c4.091-.7 11.654-2.875 12.407-3.569.327-.3-.646-2.882-2.639-7.003-4.303-8.897-9.543-14.539-15.368-16.543l-1.412-.485v28.36l2.315-.177a61.413 61.413 0 0 0 4.697-.583zm-36.376-9.46c2.56-6.193 6.08-11.977 9.487-15.59.515-.545.777-.992.583-.992-.608 0-5.067 1.605-7.706 2.773-4.424 1.96-10.422 5.714-13.835 8.661l-1.016.878 2.207 1.735c3.35 2.635 8.302 5.862 8.774 5.718.12-.036.798-1.469 1.506-3.184zm57.303 1.627c2.336-1.457 5.135-3.478 7.353-5.308l.763-.63-2.086-1.684c-4.81-3.885-11.163-7.447-16.98-9.52-3.853-1.374-4.157-1.368-2.792.058 3.341 3.488 7.355 10.215 9.867 16.536.477 1.2.955 2.183 1.061 2.183.107 0 1.373-.736 2.815-1.635z"/></svg>