<svg xmlns="http://www.w3.org/2000/svg" xml:space="preserve" width="960.454" height="959.66" viewBox="0 0 254.12 253.91"><path fill="#fff" d="M51.163 252.434c-12.917-3.513-24.439-13.127-30.338-25.313-4.906-10.134-5.496-22.776-5.038-107.9.436-81.233.444-81.421 3.464-88.952 4.236-10.56 13.047-19.884 23.79-25.173C56.035.105 110.776.509 140.338.386L228.82.02c9.046-.084 9.154-.145 9.074 9.073v86.07l.489 86.235s-7.33 7.817-11.82 8.742l-4.553.854v31.18l4.553.854c11.045 2.072 14.793 18.025 7.469 26.224l-3.862 4.322-86.478.256c-65.48.194-87.947-.143-92.528-1.39zm139.08-45.856v-15.884l-65.19.02c-49.105.015-65.975.423-68.372 1.655-11.209 5.76-11.209 22.659 0 28.42 2.397 1.231 19.267 1.64 68.372 1.654l65.19.02zm-1.92-49.893c1.79-1.79 2.109-3.89 1.583-10.439-1.25-15.579-11.609-28.371-26.708-32.98-9.074-2.77-46.595-2.78-55.905-.015-15.012 4.458-26.562 19.268-27.209 34.889-.466 11.272-2.96 10.786 55.385 10.786 45.788 0 50.827-.214 52.854-2.24zm-36.71-66.179c8.929-5.52 13.95-14.291 14.543-25.402.753-14.114-5.23-24.377-17.554-30.117-16.322-7.6-35.752-.025-42.744 16.665-3.094 7.383-2.461 18.404 1.505 26.231 8.315 16.409 28.715 22.228 44.252 12.623z"/></svg>