<svg xmlns="http://www.w3.org/2000/svg" width="511.831" height="511.894" viewBox="0 0 135.422 135.439"><path d="M8.761 126.502c-12.538-1.196-24.461-5.837-34.77-13.535-3.264-2.439-10.474-9.648-12.912-12.913-18.415-24.659-18.415-57.315 0-81.974 2.438-3.265 9.648-10.474 12.913-12.913 24.658-18.415 57.315-18.415 81.974 0C59.23 7.606 66.44 14.815 68.878 18.08c18.415 24.659 18.415 57.315 0 81.974-2.438 3.265-9.647 10.474-12.912 12.913-13.753 10.27-30.645 15.114-47.205 13.535zm14.287-19.771c10.094-1.778 18.893-6.336 26.054-13.5 14.19-14.193 18.169-35.638 9.997-53.875-1.121-2.503-3.547-6.747-3.856-6.747-.423 0-66.778 66.636-66.615 66.899.097.157 1.36.957 2.808 1.776 4.885 2.766 11.518 4.996 16.796 5.648 1.31.161 2.738.343 3.175.403 1.794.248 8.893-.12 11.641-.604zM8.201 52.219c18.99-18.99 33.23-33.43 33.129-33.593-.354-.573-5.516-3.296-8.416-4.44-3.52-1.387-6.762-2.297-10.395-2.915-3.682-.627-11.485-.623-15.08.007-10.488 1.84-19.334 6.373-26.583 13.624-14.19 14.195-18.17 35.64-9.998 53.877 1.122 2.502 3.547 6.746 3.856 6.746.1 0 15.169-14.988 33.487-33.306z" style="fill:#fff;stroke-width:.264583" transform="translate(52.732 8.644)"/></svg>