<svg xmlns="http://www.w3.org/2000/svg" width="191.501" height="192.102" viewBox="0 0 50.668 50.827"><path d="M100.975 159.534c-3.098-.26-3.994-1.595-4.258-4.479V129.92c.608-2.204 2.63-3.864 4.351-4.493 1.676-.591 40.382-.652 42.055-.062 2.576.092 4.28 1.223 4.262 4.527v25.192c-.152 2.192-1.517 4.316-4.262 4.48-1.615.57-40.587.542-42.148-.03zm1.828-37.545c-.833-.456-1.19-1.493-1.19-2.417 0-1.217.3-2.012 1.151-2.452.636-.329 3.552-.387 19.428-.387 19.78 0 19.882.006 20.341 1.202.211.551.136 2.162-.075 2.713-.46 1.197-.554 1.647-20.394 1.638-13.047-.006-18.893-.096-19.261-.297zm4.762-8.382c-.832-.455-1.19-1.049-1.19-1.972 0-1.217.226-1.657 1.077-2.098.629-.325 2.969-.387 14.665-.387 14.683 0 15.13.035 15.579 1.203.21.55.21 1.807 0 2.357-.45 1.17-.889 1.203-15.632 1.195-9.6-.005-14.135-.099-14.499-.298z" style="fill:#fff;stroke-width:.264583" transform="translate(-96.717 -109.15)"/></svg>