<svg xmlns="http://www.w3.org/2000/svg" width="216.551" height="161.961" viewBox="0 0 57.296 42.852"><path d="M88.091-62.848c-1.57-.585-2.602-1.496-3.47-3.064-1.107-2.03-.952-2.172-.874-10.16-.124-12.339.234-14.739 2.747-18.425 4.376-6.42 13.58-7.92 20.088-3.277 2.97 2.12 4.893 5.253 5.577 9.085.455 2.552.532 19.175.099 21.197-.369 1.717-1.495 3.245-3.08 4.176-1.508.98-1.436.867-10.66.8-7.674.044-9.582-.017-10.427-.332zm17.293-22.073c.704-.377.946-1.79.416-2.284-.78-.965-1.33-.633-7.502-.633-7.27-.034-7.872.08-7.995 1.058-.1.804.023 1.295.429 1.701.357.357 1.394.416 7.293.416 3.955 0 7.083-.11 7.36-.258zm8.627 21.45c1.384-2.091 1.44-2.664 1.44-14.564 0-12.2-.046-12.633-1.712-16.02-1.019-2.072-2.609-4.101-4.332-5.53l-1.15-.953H117.233l.646-1.255c.733-1.425 2.41-2.827 3.864-3.231 1.278-.355 8.63-.355 9.909 0 1.437.4 3.128 1.801 3.84 3.184.407.792.675 1.883.78 3.173.149 1.856.22 2.033 1.289 3.187 1.293 1.397 2.237 3.134 2.938 5.404.437 1.419.486 2.635.486 12.166-.165 10.855.397 9.551-.676 11.904-.76 1.479-2.421 2.882-3.895 3.291-.606.168-5.24.274-12.035.275l-11.05.002.683-1.033zm10.584-21.567c.467-.34.522-.78.598-4.763l.084-4.387h2.577c3.43 0 3.57-.11 3.696-2.89.076-1.66 0-2.293-.334-2.802-.427-.652-.467-.658-4.343-.658-2.959 0-4.037.091-4.425.375-.48.35-.52.796-.596 6.68-.045 3.469-.01 6.69.077 7.158.285 1.536 1.513 2.129 2.666 1.287z" style="fill:#fff;stroke-width:.264583" transform="translate(-83.692 105.29)"/></svg>