<svg xmlns="http://www.w3.org/2000/svg" xml:space="preserve" width="960.454" height="959.66" viewBox="0 0 254.12 253.91"><path fill="#fff" d="M10.68 238.944c-2.207-.981-5.518-3.414-7.358-5.406-2.876-3.116-3.341-4.872-3.326-12.545l.02-8.922 55.27-93.643c32.72-55.436 56.977-95.14 59.45-97.313 7.482-6.569 19.619-6.2 26.19.794 1.648 1.754 27.78 45.258 58.07 96.676l55.072 93.486.043 8.922c.037 7.692-.418 9.422-3.302 12.547-6.968 7.552-2.61 7.297-124.03 7.24-90.415-.04-112.86-.397-116.09-1.836zm128.05-35.458c3.013-3.372 3.722-5.433 3.722-10.813 0-5.454-.7-7.43-3.903-11.015-3.513-3.93-4.642-4.369-11.263-4.369-5.95 0-8.022.622-10.814 3.245-6.442 6.052-6.97 16.71-1.15 23.183 3.509 3.903 7.02 5.045 13.71 4.458 4.626-.405 6.816-1.465 9.698-4.69zm-5.738-44.876c2.082-1.076 4.159-2.932 4.616-4.123.457-1.19.83-16.865.83-34.83 0-30.743-.155-32.822-2.64-35.308-6.128-6.127-16.337-4.305-19.597 3.498-2.702 6.469-2.618 58.908.106 65.427 2.863 6.852 9.592 9.005 16.686 5.337z"/></svg>