<svg xmlns="http://www.w3.org/2000/svg" width="960.443" height="959.659" viewBox="0 0 254.117 253.91"><path d="M-4.85 272.223c-28.427-1.725-52.985-11.209-74.739-28.863-4.325-3.51-12.8-11.831-16.12-15.828-17.296-20.816-26.936-43.872-29.704-71.04-.51-4.997-.425-18.453.148-23.68 1.803-16.456 6.015-30.77 13.273-45.112 5.854-11.566 13.102-21.624 22.47-31.18 10.332-10.54 20.929-18.233 34.269-24.88 32.157-16.02 69.563-17.6 103.055-4.353 14.82 5.862 29.186 14.963 40.038 25.364l3.261 3.125 37.267-37.263v110.991H17.408l.777-.853c15.943-16.313 29.168-29.545 46.138-46.859l3.323-3.394-2.637-2.507C54.427 65.83 39.25 57.574 24.52 53.87c-8.186-2.06-12.996-2.686-21.96-2.861-5.533-.108-8.07-.043-11.246.29-19.826 2.076-37.965 9.866-52.784 22.67-17.693 15.288-28.966 36.152-32.295 59.768-.66 4.685-.809 16.8-.268 21.91 2.345 22.179 11.865 42.235 27.4 57.73 23.833 23.772 58.154 33.244 90.684 25.027 24.608-6.217 45.877-22.178 58.869-44.179l.72-1.221h35.167l-.83 2.05c-1.284 3.167-5.496 11.49-7.588 14.994-5.394 9.03-11.063 16.405-18.4 23.936-20.916 21.464-48.435 34.701-78.45 37.735-3.941.398-15.092.704-18.388.504z" style="fill:#fff;stroke-width:.264583" transform="translate(125.75 -18.376)"/></svg>