<svg xmlns="http://www.w3.org/2000/svg" width="605.367" height="512.05" viewBox="0 0 160.17 135.48"><g fill="#fff"><path d="M25.4 33.88C25.394 15.172 40.559.003 59.267.003S93.139 15.172 93.134 33.88c.006 18.708-15.159 33.877-33.867 33.877S25.395 52.588 25.4 33.88zM0 127.622c0-26.061 21.114-47.175 47.175-47.175h24.183c26.061 0 47.175 21.114 47.175 47.175a7.86 7.86 0 0 1-7.858 7.858H7.855a7.86 7.86 0 0 1-7.858-7.858zM113.052 64.9l18.336 17.118a4.12 4.12 0 0 0 5.621 0L155.345 64.9a15.18 15.18 0 0 0 4.83-11.111V53.2c0-7.092-5.124-13.14-12.116-14.307a14.507 14.507 0 0 0-12.643 4.05L134.2 44.16l-1.218-1.218A14.503 14.503 0 0 0 108.222 53.2v.589a15.18 15.18 0 0 0 4.83 11.111z"/></g></svg>