<?xml version="1.0" encoding="UTF-8" standalone="no"?>
<!-- Created with Inkscape (http://www.inkscape.org/) -->

<svg
   width="49.20208mm"
   height="51.002895mm"
   viewBox="0 0 49.20208 51.002895"
   version="1.1"
   id="svg5"
   xml:space="preserve"
   inkscape:version="1.2.2 (732a01da63, 2022-12-09, custom)"
   sodipodi:docname="africa"
   xmlns:inkscape="http://www.inkscape.org/namespaces/inkscape"
   xmlns:sodipodi="http://sodipodi.sourceforge.net/DTD/sodipodi-0.dtd"
   xmlns="http://www.w3.org/2000/svg"
   xmlns:svg="http://www.w3.org/2000/svg"><sodipodi:namedview
     id="namedview7"
     pagecolor="#505050"
     bordercolor="#eeeeee"
     borderopacity="1"
     inkscape:showpageshadow="0"
     inkscape:pageopacity="0"
     inkscape:pagecheckerboard="0"
     inkscape:deskcolor="#505050"
     inkscape:document-units="mm"
     showgrid="false"
     inkscape:zoom="1.2532792"
     inkscape:cx="58.247197"
     inkscape:cy="144.42113"
     inkscape:window-width="1390"
     inkscape:window-height="827"
     inkscape:window-x="0"
     inkscape:window-y="37"
     inkscape:window-maximized="1"
     inkscape:current-layer="layer1" /><defs
     id="defs2" /><g
     inkscape:label="Layer 1"
     inkscape:groupmode="layer"
     id="layer1"
     transform="translate(174.13885,-9.0022376)"><path
       style="fill:#ffffff;stroke-width:0.264583"
       d="m -148.6186,59.404666 c -0.36783,-0.36783 -0.64944,-0.95825 -0.64944,-1.36163 0,-0.47902 -0.38945,-1.12855 -1.18956,-1.98392 l -1.18956,-1.27174 0.0651,-2.063 c 0.0551,-1.74782 -0.0213,-2.18425 -0.50036,-2.85674 -0.31099,-0.43656 -0.71222,-1.2845 -0.89161,-1.8843 -0.3876,-1.29595 -0.0643,-2.57687 0.95671,-3.79024 l 0.64481,-0.76631 -0.66754,-0.98369 c -0.46826,-0.69001 -0.66755,-1.33798 -0.66755,-2.17049 0,-1.08777 -0.1104,-1.28696 -1.32292,-2.38691 -1.41316,-1.28196 -1.57281,-1.72317 -0.89468,-2.4725 0.53959,-0.59624 0.33753,-1.48487 -0.55715,-2.45024 -0.45287,-0.48867 -0.83193,-0.67274 -1.1666,-0.56651 -0.65815,0.20889 -1.83027,-0.34547 -2.02452,-0.9575 -0.19099,-0.60176 -1.04188,-0.62682 -3.02996,-0.0893 -0.96009,0.2596 -1.97127,0.33711 -2.97196,0.22779 -1.2568,-0.13729 -1.54505,-0.0919 -1.68195,0.26484 -0.22042,0.57442 -0.76842,0.54256 -2.14701,-0.1248 -0.69925,-0.3385 -1.46228,-1.01334 -1.95422,-1.72834 -0.44388,-0.64516 -1.27493,-1.48265 -1.84679,-1.86108 -0.84725,-0.56069 -1.03974,-0.84364 -1.03974,-1.52838 0,-0.46217 -0.1634,-1.06377 -0.36311,-1.33689 -0.31347,-0.42871 -0.29553,-0.60739 0.13131,-1.30734 0.27192,-0.44592 0.49485,-1.11437 0.49539,-1.48545 5.6e-4,-0.37108 0.14231,-0.816 0.31502,-0.98872 0.24232,-0.24231 0.12147,-0.38115 -0.52917,-0.60796 -0.46375,-0.16167 -0.84319,-0.44313 -0.84319,-0.62548 0,-0.69828 2.6787,-3.85604 3.72296,-4.38879 1.53301,-0.78208 2.09787,-1.44266 2.09787,-2.45338 0,-1.08531 0.45263,-1.72748 1.60278,-2.27397 0.52355,-0.24876 0.96426,-0.69437 1.07198,-1.08389 0.18225,-0.6590601 0.33904,-0.2849601 0.2495,0.59531 -0.0634,0.62289 0.39375,0.58466 2.50333,-0.20938 1.60086,-0.6025701 2.6371,-0.8018601 7.06683,-1.3590901 1.18301,-0.14881 1.2645,-0.1181 1.52839,0.57599 0.21653,0.5695301 0.18895,0.8702401 -0.12359,1.3472301 -0.39072,0.59632 -0.37557,0.61907 0.52504,0.78803 0.61759,0.11586 1.07553,0.0535 1.37089,-0.18675 0.38874,-0.31616 0.42139,-0.30172 0.26438,0.11693 -0.13878,0.37003 0.0234,0.56229 0.71997,0.85332 0.49451,0.20662 0.94085,0.5009 0.99187,0.65396 0.10631,0.31892 2.75815,1.07757 2.98248,0.85324 0.0815,-0.0815 0.14824,-0.48558 0.14824,-0.89789 0,-0.93051 0.30574,-0.94836 3.23535,-0.18897 1.49211,0.38677 2.59334,0.51626 3.55045,0.41748 l 1.38744,-0.1432 0.43153,1.2992 c 0.23734,0.71456 0.54414,1.3688 0.6818,1.45388 0.13765,0.0851 0.60875,0.86483 1.0469,1.7328 0.50916,1.00864 1.03215,1.66766 1.44929,1.82626 0.577,0.21937 0.65265,0.4058 0.65265,1.6083 0,1.13746 0.15143,1.56645 0.92487,2.62008 0.50868,0.69296 1.32467,1.56486 1.81331,1.93757 0.48865,0.37271 1.0394,1.04209 1.2239,1.48751 0.28796,0.6952 0.47139,0.80897 1.29555,0.80358 0.52804,-0.003 1.67446,-0.30056 2.54758,-0.66024 0.87313,-0.35967 1.73633,-0.6545 1.91823,-0.65518 0.3932,-0.001 0.43055,0.3223 0.0779,0.67497 -0.13907,0.13907 -0.72561,1.22029 -1.30343,2.40271 -0.79739,1.63174 -1.38438,2.42842 -2.43566,3.30578 -4.03938,3.37111 -5.53305,5.17294 -5.53305,6.6746 0,0.43167 0.32209,1.33109 0.71576,1.99872 0.55801,0.94635 0.72244,1.58075 0.74611,2.87853 l 0.0304,1.66466 -2.20133,1.32966 c -2.30002,1.38928 -2.48693,1.68777 -1.80445,2.88165 0.5873,1.02737 0.47462,1.44759 -0.57341,2.13848 -0.72694,0.47923 -1.05809,0.9458 -1.32042,1.86042 -0.50034,1.74441 -2.17114,3.21358 -4.4578,3.91986 -0.97565,0.30135 -1.96972,0.54835 -2.20905,0.54889 -0.23934,5.3e-4 -0.82499,0.23867 -1.30144,0.52917 -1.07563,0.65581 -1.01007,0.66025 -1.79157,-0.12125 z m 18.16995,-6.58568 c -0.55591,-0.66983 -0.6533,-1.98058 -0.19871,-2.67437 0.24958,-0.3809 0.42933,-1.20207 0.42933,-1.96133 0,-1.2133 0.0661,-1.34508 0.93011,-1.85487 0.51156,-0.30183 1.03367,-0.8196 1.16026,-1.15061 0.12658,-0.33101 0.49269,-0.83838 0.81358,-1.12749 0.57527,-0.51831 0.58863,-0.51853 0.9564,-0.0156 0.59668,0.81601 0.44345,1.72112 -0.68535,4.0483 -0.62878,1.29631 -1.05834,2.56472 -1.05834,3.12512 0,1.34994 -0.40766,1.96677 -1.29983,1.96677 -0.41362,0 -0.88498,-0.16018 -1.04745,-0.35595 z"
       id="path125"
       sodipodi:nodetypes="cssccssscsssssssssssssssssssssssscssssscssssssscsssssssscscsssssscsssssssccssssssssssss" /></g></svg>
