<?xml version="1.0" encoding="UTF-8" standalone="no"?>
<!-- Created with Inkscape (http://www.inkscape.org/) -->

<svg
   width="52.811253mm"
   height="41.059887mm"
   viewBox="0 0 52.811253 41.059887"
   version="1.1"
   id="svg5"
   xml:space="preserve"
   xmlns="http://www.w3.org/2000/svg"
   xmlns:svg="http://www.w3.org/2000/svg"><defs
     id="defs2" /><g
     id="layer1"
     transform="translate(184.89895,-51.300941)"><path
       style="fill:#ffffff;stroke-width:0.264583"
       d="m -143.34807,91.97863 c 0.28247,-0.213653 0.69919,-0.387728 0.92604,-0.386831 0.22685,7.94e-4 0.0714,0.179491 -0.3454,0.396875 -0.95939,0.500356 -1.24883,0.49535 -0.58064,-0.01005 z m -5.93755,-0.314978 c -0.3638,-0.04727 -1.13771,-0.195482 -1.71979,-0.329367 -0.58208,-0.133884 -1.40298,-0.316264 -1.82421,-0.405291 -0.56308,-0.119007 -0.68779,-0.239953 -0.47096,-0.456777 0.21682,-0.216821 0.56977,-0.204195 1.33298,0.04769 0.57095,0.188429 1.15778,0.268619 1.30408,0.178205 0.14629,-0.09042 0.7656,0.05929 1.37624,0.332682 1.14964,0.51471 1.15034,0.782106 0.002,0.632857 z m 2.05052,0.01588 c 0.1819,-0.0734 0.47956,-0.0734 0.66146,0 0.1819,0.0734 0.0331,0.133453 -0.33073,0.133453 -0.3638,0 -0.51263,-0.06005 -0.33073,-0.133453 z m 1.72483,-0.0081 c 0.25743,-0.06708 0.61462,-0.06267 0.79375,0.0098 0.17913,0.07248 -0.0315,0.127363 -0.46806,0.12197 -0.43656,-0.0054 -0.58312,-0.06469 -0.32569,-0.131773 z m 10.54901,-0.05285 c -0.19801,-0.125458 -0.61473,-0.162518 -0.92604,-0.08236 -0.50059,0.128897 -0.52437,0.09495 -0.2057,-0.293642 0.19818,-0.241663 0.28915,-0.624875 0.20216,-0.85158 -0.1772,-0.461762 -1.90051,-1.279906 -2.61301,-1.240526 -0.25466,0.01408 -0.46302,-0.145603 -0.46302,-0.35484 0,-0.209238 0.14883,-0.391168 0.33073,-0.404294 0.1819,-0.01312 -0.0783,-0.141304 -0.57815,-0.28484 -0.69151,-0.198562 -0.81806,-0.318445 -0.52917,-0.501253 0.67108,-0.424646 1.31236,-0.265462 1.56057,0.387379 0.31258,0.822153 0.71502,1.061244 0.9857,0.585618 0.27674,-0.486275 0.79914,-0.576932 1.86834,-0.324231 0.85975,0.2032 0.8599,0.203523 0.8599,1.902005 0,0.93432 -0.0298,1.696945 -0.0662,1.694717 -0.0364,-0.0021 -0.22815,-0.106699 -0.42616,-0.232153 z m -19.39878,-1.897216 c -0.61965,-0.462598 -2.5985,-2.957722 -2.5985,-3.276431 0,-0.06433 -0.41651,-0.570066 -0.92559,-1.123868 -1.24583,-1.355275 -0.54769,-1.51465 1.01732,-0.232241 0.63437,0.519817 1.26985,0.945121 1.41217,0.945121 0.14232,0 0.42605,0.327422 0.63051,0.727604 0.20446,0.400183 0.6413,0.989809 0.97075,1.310283 0.36381,0.353888 0.59901,0.899308 0.59901,1.389063 0,0.941101 -0.14744,0.975836 -1.10567,0.260469 z m 8.42857,-0.142246 c 0.0894,-0.232968 0.029,-0.506134 -0.13429,-0.607036 -0.34945,-0.215969 0.0611,-2.015104 0.52525,-2.301986 0.39939,-0.246832 2.58232,-0.283488 2.43201,-0.04084 -0.0676,0.10914 -0.65169,0.198437 -1.29794,0.198437 -0.89434,0 -1.17501,0.09982 -1.17501,0.417899 0,0.331814 0.17713,0.381013 0.85989,0.238837 0.79022,-0.16455 0.81916,-0.148109 0.3572,0.202877 -0.47719,0.362561 -0.48049,0.426439 -0.065,1.259319 0.57172,1.146029 0.29579,1.385853 -0.51314,0.446002 l -0.63895,-0.74236 v 0.676215 c 0,0.371916 -0.11533,0.676211 -0.25628,0.676211 -0.14095,0 -0.18314,-0.190611 -0.0937,-0.423577 z m -2.65849,-0.556455 c -0.10245,-0.102455 -0.50925,-0.206164 -0.90399,-0.230466 -0.39474,-0.02429 -0.84087,-0.05954 -0.99139,-0.0783 -0.15053,-0.01876 -0.48552,-0.392729 -0.74443,-0.831029 -0.52244,-0.88441 -0.37803,-1.911176 0.23567,-1.675678 0.21029,0.08069 0.45409,-0.04395 0.54393,-0.278085 0.0896,-0.233379 0.29892,-0.429403 0.46525,-0.435607 0.16633,-0.0062 0.82774,-0.472554 1.46979,-1.036334 1.11612,-0.980064 1.19499,-1.006954 1.79679,-0.612637 0.62351,0.408538 0.62464,0.417663 0.12012,0.97019 -0.3409,0.373345 -0.44623,0.729308 -0.31855,1.076568 0.11567,0.314587 0.008,0.887392 -0.27344,1.455209 -0.2553,0.515024 -0.52981,1.14477 -0.61003,1.399431 -0.15214,0.48296 -0.47156,0.594895 -0.78972,0.276738 z m 7.57761,-0.261655 c 0.25743,-0.06708 0.61461,-0.06267 0.79375,0.0098 0.17913,0.07248 -0.0315,0.127363 -0.46806,0.12197 -0.43656,-0.0054 -0.58313,-0.06469 -0.32569,-0.131773 z m -0.60035,-2.197896 c 0,-0.49389 0.0705,-0.564444 0.3175,-0.3175 0.24694,0.246943 0.24694,0.388056 0,0.635 -0.24695,0.246943 -0.3175,0.176389 -0.3175,-0.3175 z m -13.71911,-0.813991 c -0.32434,-0.302175 -0.659,-0.895794 -0.74367,-1.319157 -0.0847,-0.423362 -0.41519,-1.051634 -0.73449,-1.396161 -0.44247,-0.47743 -0.55337,-0.859145 -0.4663,-1.604968 0.0628,-0.538208 -0.0356,-1.51388 -0.21882,-2.168163 -0.31406,-1.121698 -0.37622,-1.180131 -1.08888,-1.023604 -0.65544,0.143957 -0.75582,0.08747 -0.75582,-0.425355 0,-0.325249 -0.28052,-0.959786 -0.62338,-1.410086 -0.34287,-0.450297 -0.70808,-1.086615 -0.81158,-1.414036 -0.18351,-0.580494 -0.6817,-0.837558 -0.6817,-0.351753 0,0.133958 -0.35829,0.322254 -0.79619,0.418433 -0.44524,0.09779 -1.52401,0.862235 -2.44739,1.734283 -0.90817,0.857676 -1.80004,1.562349 -1.98194,1.565942 -0.22365,0.0044 -0.33073,0.477043 -0.33073,1.459727 0,1.114007 -0.13465,1.608058 -0.57688,2.116667 -0.31729,0.36491 -0.67577,0.663472 -0.79663,0.663472 -0.20106,0 -0.83425,-1.255628 -1.88289,-3.733816 -0.22242,-0.52563 -0.4887,-1.517857 -0.59174,-2.204948 -0.15119,-1.008195 -0.27576,-1.226132 -0.64556,-1.129427 -0.55922,0.146241 -1.32714,-0.250047 -1.32714,-0.684879 0,-0.175141 -0.34649,-0.645475 -0.76998,-1.045186 -0.60944,-0.575205 -1.02321,-0.726745 -1.98438,-0.726745 -1.18475,0 -1.60856,-0.321291 -0.82197,-0.623136 0.44914,-0.172352 0.25821,-0.93096 -0.34889,-1.386218 -0.2609,-0.195647 -0.32894,-0.517447 -0.20979,-0.992187 0.11481,-0.457449 0.0694,-0.702625 -0.13003,-0.702625 -0.21377,0 -0.26322,-0.475813 -0.16362,-1.574295 0.13243,-1.460436 0.0953,-1.605407 -0.51379,-2.004477 -0.85123,-0.557747 -2.34456,-0.800334 -2.58015,-0.419139 -0.31026,0.502019 -0.61407,0.324935 -0.74432,-0.43386 -0.0687,-0.400183 -0.21401,-0.935964 -0.32292,-1.190625 -0.14451,-0.337898 -0.0755,-0.463021 0.25547,-0.463021 0.30482,0 0.40084,-0.137203 0.29289,-0.418515 -0.0883,-0.230183 -0.1606,-0.482887 -0.1606,-0.561563 0,-0.07868 -0.17859,0.0052 -0.39687,0.186328 -0.33158,0.275184 -0.39688,0.236982 -0.39688,-0.232187 0,-0.30886 -0.11487,-0.561563 -0.25527,-0.561563 -0.14041,0 -0.38422,-0.240936 -0.54182,-0.535413 -0.31114,-0.581371 -0.016,-1.056383 0.86324,-1.389317 0.25466,-0.09643 0.46302,-0.301965 0.46302,-0.456742 0,-0.422773 -1.1255,-0.765101 -1.63626,-0.49768 -0.70111,0.367084 -1.00958,0.27669 -1.00958,-0.295848 0,-0.291042 -0.17156,-0.529167 -0.38126,-0.529167 -0.20969,0 -0.44275,-0.0995 -0.51791,-0.221107 -0.19749,-0.319547 0.19002,-1.611279 0.5023,-1.674354 0.14552,-0.02939 0.47605,-0.322276 0.7345,-0.650851 0.66776,-0.848908 1.35776,-0.987893 2.35199,-0.473754 0.85568,0.442487 3.74695,0.640443 4.10625,0.281142 0.0973,-0.09733 -0.0525,-0.350537 -0.33289,-0.562687 -0.28042,-0.212149 -0.36443,-0.389513 -0.18669,-0.394141 0.17774,-0.0046 0.42291,-0.395368 0.54481,-0.868311 0.16366,-0.634969 0.39057,-0.881694 0.86746,-0.943232 0.3552,-0.04584 1.35459,-0.330058 2.22087,-0.631607 l 1.57505,-0.54827 0.37545,0.565461 c 0.2065,0.311004 0.58631,0.565461 0.84404,0.565461 0.25772,0 0.54207,0.191492 0.63188,0.425538 0.14884,0.387882 0.22409,0.385702 0.85034,-0.02463 0.79074,-0.518109 0.91792,-0.436197 1.93122,1.243789 0.5884,0.975531 0.82526,1.145914 1.70021,1.22305 0.55912,0.04929 1.24759,0.287416 1.52994,0.529167 0.28234,0.24175 0.59879,0.449829 0.70321,0.462397 0.10442,0.01257 0.3952,0.113444 0.64616,0.224167 0.29167,0.128681 0.78026,0.0011 1.35415,-0.35358 0.94748,-0.585575 2.01572,-0.720754 2.43611,-0.308273 0.13825,0.135642 0.59845,0.284471 1.02267,0.330729 0.67494,0.0736 0.79996,-0.02371 1.00052,-0.77874 0.20484,-0.771136 0.30565,-0.844953 0.94847,-0.6945 0.39561,0.09259 0.91644,0.415513 1.15742,0.717605 0.33869,0.424594 0.69112,0.534331 1.55277,0.48349 0.7613,-0.04492 1.27631,0.08054 1.62463,0.395769 0.63254,0.572442 2.04761,0.559554 2.9425,-0.0268 0.36795,-0.241091 0.73455,-0.332296 0.81465,-0.202677 0.0801,0.129619 0.5673,0.251523 1.08265,0.270896 0.8384,0.03152 0.98393,-0.06834 1.3829,-0.948898 0.24524,-0.541268 0.45369,-1.222249 0.4632,-1.51329 0.0131,-0.40158 0.22915,-0.549494 0.89593,-0.613473 1.18859,-0.114049 1.9896,0.473707 2.41909,1.77505 0.24435,0.74041 0.63847,1.250055 1.24208,1.606199 0.4863,0.286918 0.88417,0.704278 0.88417,0.927467 0,0.467457 0.47008,0.515761 1.43798,0.147764 0.8104,-0.308113 0.84918,-0.04772 0.19604,1.316368 -0.24387,0.509323 -0.62199,0.926042 -0.84027,0.926042 -0.25236,0 -0.42653,0.305939 -0.47832,0.840192 -0.0448,0.462105 -0.25315,0.982699 -0.46302,1.156875 -0.20987,0.174177 -0.38158,0.511591 -0.38158,0.74981 0,0.238219 -0.23812,0.581837 -0.52917,0.763595 -0.62462,0.390082 -0.66947,0.790018 -0.1529,1.363486 0.20694,0.22974 0.45581,0.736516 0.55304,1.12617 0.15122,0.606006 0.0585,0.769607 -0.64084,1.131274 -0.8804,0.455271 -0.88258,0.453063 -0.86747,-0.877515 0.008,-0.665195 -0.12036,-0.923978 -0.50662,-1.024986 -0.36445,-0.09531 -0.47017,-0.281777 -0.35876,-0.632795 0.20085,-0.632805 -0.55337,-0.961199 -1.2329,-0.536822 -0.70809,0.442206 -0.79286,0.387938 -0.59921,-0.383604 0.1554,-0.619189 0.12201,-0.660347 -0.32569,-0.401336 -0.27437,0.158734 -0.78297,0.531199 -1.13023,0.827701 -0.60731,0.518547 -0.61352,0.558816 -0.16308,1.056556 0.25757,0.284604 0.57822,0.449529 0.71256,0.366501 0.13435,-0.08303 0.55481,-0.07302 0.93437,0.02224 l 0.6901,0.173205 -0.80856,0.491717 c -0.9543,0.580339 -1.30032,1.057324 -0.93712,1.291793 0.43204,0.278908 1.24112,1.974414 1.28002,2.682398 0.0442,0.803906 -1.47407,3.215645 -2.47012,3.923813 -0.3979,0.282901 -1.25924,0.666938 -1.91409,0.853419 -1.37278,0.39093 -1.71244,0.632799 -1.71672,1.222457 -0.004,0.508222 -0.81736,1.079423 -1.11444,0.782341 -0.11589,-0.115893 0.0124,-0.373851 0.28508,-0.573243 0.53593,-0.391885 0.41974,-1.181703 -0.17385,-1.181703 -0.48369,0 -1.5134,0.990862 -1.5134,1.456309 0,0.20755 0.34698,0.772544 0.77106,1.255546 0.42408,0.482999 0.84995,1.298739 0.94638,1.81275 0.1636,0.872067 0.0943,1.000927 -1.03564,1.92686 -0.66603,0.545764 -1.21097,0.856105 -1.21097,0.689647 0,-0.38355 -1.45185,-1.849445 -1.83173,-1.849445 -0.15671,0 -0.28493,-0.119063 -0.28493,-0.264583 0,-0.625547 -0.46436,-0.186447 -0.73485,0.694867 -0.23773,0.77461 -0.2208,1.033116 0.0879,1.341816 0.2103,0.210301 0.38236,0.533342 0.38236,0.71787 0,0.184528 0.28007,0.463113 0.62237,0.619075 0.39914,0.181861 0.76572,0.719029 1.02206,1.497679 0.45073,1.369116 0.18143,1.589712 -0.81145,0.664702 z m -11.83202,-2.474135 c -0.0887,-0.353261 -0.0412,-0.856683 0.10542,-1.118714 0.24289,-0.434033 0.29519,-0.413699 0.58782,0.228548 0.33481,0.734824 0.1973,1.532458 -0.26418,1.532458 -0.14732,0 -0.34039,-0.289031 -0.42906,-0.642292 z m 23.6221,0.112033 c -0.10007,-0.382648 -0.27438,-0.481391 -0.62618,-0.354719 -0.26812,0.09655 -0.39598,0.07497 -0.28412,-0.04794 0.30859,-0.339096 2.04558,-0.886828 2.04558,-0.645039 0,0.116473 0.0723,0.400098 0.1606,0.63028 0.10684,0.278424 0.013,0.418516 -0.2802,0.418516 -0.24244,0 -0.36721,0.119062 -0.27728,0.264583 0.0899,0.145521 -0.008,0.264583 -0.21811,0.264583 -0.20989,0 -0.44403,-0.238617 -0.52029,-0.530259 z m -0.78907,-1.834171 c -0.0927,-0.354539 -0.0224,-0.464172 0.2345,-0.365591 0.4166,0.159861 0.4807,0.511813 0.13243,0.727057 -0.12898,0.07971 -0.2941,-0.08295 -0.36693,-0.361466 z m 1.06803,-0.181279 c -0.21987,-0.376299 0.20288,-1.308997 0.42812,-0.944552 0.10574,0.171087 0.0832,0.505896 -0.05,0.744019 -0.13325,0.238119 -0.30339,0.328361 -0.37808,0.200533 z m -2.03321,-1.568562 c -0.0115,-0.298317 -0.16376,-0.68527 -0.33839,-0.859895 -0.24694,-0.246944 -0.24694,-0.388057 0,-0.635001 0.17463,-0.174625 0.3175,-0.531812 0.3175,-0.79375 0,-0.261937 0.17859,-0.47625 0.39688,-0.47625 0.44272,0 0.56096,1.190276 0.14384,1.448068 -0.39316,0.242988 -0.0103,0.933183 0.51761,0.933183 0.25991,0 0.55188,0.208359 0.64883,0.46302 0.14134,0.37125 0.11024,0.397471 -0.1569,0.132292 -0.18325,-0.181901 -0.53757,-0.330729 -0.78738,-0.330729 -0.24981,0 -0.51425,0.148828 -0.58765,0.330729 -0.0734,0.181901 -0.14285,0.08665 -0.15434,-0.211667 z m -0.28547,-5.457708 c 0,-0.375087 0.19834,-0.845384 0.44076,-1.045105 0.39923,-0.328908 0.4224,-0.288332 0.24586,0.430626 -0.26913,1.096071 -0.68662,1.469694 -0.68662,0.614479 z m 5.2811,-5.404774 c -0.23006,-0.605097 -0.15658,-0.782258 0.60186,-1.450982 0.49351,-0.435136 1.17189,-0.763541 1.58221,-0.765956 0.44782,-0.0026 0.82643,-0.206276 1.00546,-0.540803 0.15794,-0.295118 0.37382,-0.483023 0.47973,-0.417569 0.1059,0.06546 0.46946,-0.08986 0.80789,-0.345141 0.68406,-0.515982 1.15395,-2.355795 0.77474,-3.033405 -0.1653,-0.295368 -0.0758,-0.553563 0.30506,-0.879624 0.29647,-0.253845 0.53903,-0.653357 0.53903,-0.887805 0,-0.698533 0.27653,-0.767105 0.83626,-0.207373 0.29016,0.290166 0.69696,0.462575 0.90399,0.38313 0.2202,-0.0845 0.37642,0.01682 0.37642,0.244126 0,0.213714 -0.18233,0.388571 -0.40518,0.388571 -0.22285,0 -0.47711,0.187451 -0.56503,0.416558 -0.10793,0.28128 -0.3559,0.367352 -0.76355,0.265038 -0.7664,-0.192354 -0.92912,0.26127 -0.44316,1.2354 0.24551,0.49214 0.28627,0.858332 0.11902,1.069364 -0.1399,0.176513 -0.34034,0.796909 -0.44543,1.378659 -0.20645,1.142846 -0.49137,1.445462 -1.36688,1.451763 -0.3096,0.0022 -0.72006,0.193397 -0.91212,0.424819 -0.31751,0.382572 -0.38049,0.377981 -0.69386,-0.05057 -0.31424,-0.429761 -0.34465,-0.431868 -0.34465,-0.02389 0,0.246095 -0.17859,0.447445 -0.39687,0.447445 -0.21828,0 -0.39688,0.126089 -0.39688,0.280198 0,0.154109 -0.121,0.205413 -0.26889,0.11401 -0.1479,-0.0914 -0.2004,-0.277025 -0.11668,-0.41249 0.0837,-0.135466 -0.048,-0.246301 -0.29267,-0.246301 -0.32166,0 -0.37106,0.09161 -0.17837,0.330729 0.25596,0.317637 -0.007,1.521354 -0.33203,1.521354 -0.081,0 -0.26529,-0.310164 -0.40942,-0.689253 z"
       id="path261" /></g></svg>
