<?xml version="1.0" encoding="UTF-8" standalone="no"?>
<!-- Created with Inkscape (http://www.inkscape.org/) -->

<svg
   width="129.68649mm"
   height="79.163177mm"
   viewBox="0 0 129.68649 79.163177"
   version="1.1"
   id="svg5"
   xml:space="preserve"
   inkscape:version="1.2.2 (732a01da63, 2022-12-09, custom)"
   sodipodi:docname="central-america-and-caribbean.svg"
   xmlns:inkscape="http://www.inkscape.org/namespaces/inkscape"
   xmlns:sodipodi="http://sodipodi.sourceforge.net/DTD/sodipodi-0.dtd"
   xmlns="http://www.w3.org/2000/svg"
   xmlns:svg="http://www.w3.org/2000/svg"><sodipodi:namedview
     id="namedview7"
     pagecolor="#505050"
     bordercolor="#eeeeee"
     borderopacity="1"
     inkscape:showpageshadow="0"
     inkscape:pageopacity="0"
     inkscape:pagecheckerboard="0"
     inkscape:deskcolor="#505050"
     inkscape:document-units="mm"
     showgrid="false"
     inkscape:zoom="0.68775234"
     inkscape:cx="82.878671"
     inkscape:cy="191.92955"
     inkscape:window-width="1390"
     inkscape:window-height="827"
     inkscape:window-x="0"
     inkscape:window-y="37"
     inkscape:window-maximized="1"
     inkscape:current-layer="layer1" /><defs
     id="defs2" /><g
     inkscape:label="Layer 1"
     inkscape:groupmode="layer"
     id="layer1"
     transform="translate(279.56201,-379.45743)"><path
       style="fill:#ffffff;stroke-width:0.264583"
       d="m -235.32254,457.37187 c -0.3373,-1.23868 -1.0644,-1.88649 -1.0644,-0.94834 0,0.90783 -1.37259,0.1679 -1.7202,-0.92732 -0.11537,-0.3635 -0.49063,-0.579 -1.20796,-0.6937 -0.57233,-0.0915 -1.04059,-0.25064 -1.04059,-0.35359 0,-0.10295 -0.59532,-0.17555 -1.32292,-0.16132 -1.27776,0.025 -1.63343,-0.15447 -1.03689,-0.52315 0.15731,-0.0972 0.21457,-0.46144 0.12725,-0.80937 -0.0896,-0.35709 -0.0414,-0.63259 0.11085,-0.63259 0.4336,0 0.30974,-0.98633 -0.14581,-1.16114 -0.24798,-0.0952 -0.38129,-0.39749 -0.33073,-0.75005 0.11865,-0.82736 1.78511,-0.9982 1.99272,-0.2043 0.0759,0.29039 0.2631,0.52799 0.4159,0.52799 0.1528,0 0.19948,0.0783 0.10373,0.17409 -0.33313,0.33313 0.42041,0.88424 1.20902,0.88424 0.71405,0 0.7583,-0.0465 0.44073,-0.46302 -0.19416,-0.25466 0.006,-0.1356 0.4451,0.26459 0.97408,0.888 2.33282,0.96425 3.75946,0.21095 0.53816,-0.28415 1.5646,-0.78099 2.28098,-1.10408 0.71639,-0.32309 1.52801,-0.81292 1.8036,-1.08851 0.44608,-0.44608 0.63709,-0.46796 1.74019,-0.19934 0.68151,0.16596 1.77489,0.39476 2.42973,0.50846 0.65485,0.1137 1.49791,0.33244 1.87347,0.4861 0.86261,0.35294 2.88903,2.34157 2.88903,2.83516 0,0.20434 0.25658,0.80639 0.57017,1.33789 0.35212,0.59679 0.46845,1.03261 0.30419,1.1396 -0.14628,0.0953 -0.41389,0.45392 -0.59468,0.79696 -0.24038,0.45613 -0.40743,0.54499 -0.62169,0.33073 -0.42675,-0.42675 -0.71512,-0.3591 -0.72473,0.17003 -0.005,0.25466 -0.17177,0.67847 -0.37141,0.94178 -0.34051,0.44911 -0.40348,0.42453 -1.01672,-0.39687 -1.02589,-1.37413 -1.37742,-2.15584 -1.02265,-2.2741 0.16639,-0.0555 0.30252,-0.26249 0.30252,-0.46005 0,-0.55806 0.50746,-0.73761 0.98095,-0.34708 0.3849,0.31746 0.39615,0.2926 0.11035,-0.24375 -0.25077,-0.47063 -0.48054,-0.56867 -1.08363,-0.46242 -0.5819,0.10251 -0.80205,0.0193 -0.91835,-0.34714 -0.19044,-0.60003 -1.53938,-1.61668 -2.51716,-1.8971 -0.96675,-0.27726 -2.29418,0.36065 -2.5059,1.20425 -0.15743,0.62721 -1.34446,1.43821 -2.10508,1.43821 -0.2157,0 -0.47172,0.2506 -0.56893,0.55689 -0.13411,0.42255 0.0649,0.80434 0.82487,1.58264 0.99447,1.01843 1.0507,1.28647 0.29319,1.39765 -0.21693,0.0318 -0.56661,0.2008 -0.77706,0.37545 -0.21045,0.17466 -0.73399,0.38783 -1.16342,0.47372 -0.75054,0.15011 -0.79497,0.10405 -1.14709,-1.18905 z m -3.35435,0.36317 c -0.24614,-0.64142 0.0973,-0.75722 0.42573,-0.14355 0.20479,0.38264 0.20881,0.55183 0.0131,0.55183 -0.15521,0 -0.3527,-0.18373 -0.43887,-0.40828 z m 11.30667,-3.71481 c 0.0127,-0.30822 0.0754,-0.37092 0.15985,-0.15985 0.0764,0.19099 0.067,0.4192 -0.0209,0.50712 -0.0879,0.0879 -0.15045,-0.0684 -0.13896,-0.34727 z m -18.21099,-0.38307 c -0.67592,-0.27169 -0.70163,-0.35706 -0.32143,-1.06748 0.19044,-0.35583 0.18698,-0.67419 -0.0114,-1.0448 -0.33784,-0.63125 -2.04185,-1.75348 -3.0447,-2.00518 -0.45697,-0.11469 -0.80271,-0.44551 -0.97143,-0.92948 -0.27027,-0.77528 -1.95235,-2.02834 -2.27958,-1.69815 -0.10148,0.1024 0.14692,0.45108 0.55202,0.77484 0.70918,0.5668 0.71851,0.60496 0.25135,1.02774 -0.45367,0.41056 -0.51424,0.40516 -0.93239,-0.0832 -0.24595,-0.28726 -0.67279,-0.52229 -0.94852,-0.52229 -0.69152,0 -1.44084,-1.21319 -1.24103,-2.0093 0.0879,-0.3501 0.27656,-0.63654 0.4193,-0.63654 0.50955,0 0.24861,-0.98274 -0.33577,-1.26458 -0.32742,-0.1579 -0.42984,-0.29516 -0.2276,-0.30501 0.20224,-0.01 0.50764,-0.20928 0.67868,-0.44319 0.28262,-0.38651 0.43381,-0.37243 1.6587,0.15451 1.0755,0.46266 1.4595,0.51997 1.90101,0.28367 0.57066,-0.3054 1.52619,-0.004 1.92325,0.60676 0.0986,0.15172 0.7761,0.27586 1.50545,0.27586 1.1508,0 1.34565,0.0779 1.47409,0.58969 0.0814,0.32433 0.73746,1.22082 1.45791,1.99219 0.72044,0.77137 1.20771,1.46565 1.08281,1.54284 -0.35635,0.22024 -0.62734,2.09297 -0.35555,2.45714 0.28781,0.38565 0.29072,1.7791 0.005,2.22898 -0.14095,0.22165 -0.38844,0.12465 -0.84382,-0.33073 -0.758,-0.75801 -1.51269,-0.90193 -0.84173,-0.16052 0.74482,0.82302 0.55838,1.01348 -0.5543,0.56623 z m -1.91823,-9.43988 c -0.21828,-0.0803 -0.57547,-0.29219 -0.79375,-0.47096 -0.60653,-0.49674 -1.61641,-0.6674 -2.17628,-0.36776 -0.37838,0.2025 -0.86412,0.11974 -1.95787,-0.3336 -1.25165,-0.51878 -1.49211,-0.54903 -1.7231,-0.21676 -0.22196,0.31928 -0.29343,0.32367 -0.41267,0.0254 -0.16485,-0.4124 -0.53869,-0.7415 -2.1631,-1.9042 -0.63633,-0.45547 -1.28253,-1.16078 -1.436,-1.56736 -0.15347,-0.40658 -0.58533,-0.92545 -0.95969,-1.15303 -0.37437,-0.22759 -1.12715,-0.83003 -1.67286,-1.33875 -0.97196,-0.9061 -1.25443,-1.4811 -0.7276,-1.4811 0.14552,0 0.26458,0.11906 0.26458,0.26458 0,0.14552 0.47881,0.26458 1.06401,0.26458 0.87818,0 1.11664,-0.11552 1.36538,-0.66146 0.16577,-0.3638 0.47412,-0.66145 0.68524,-0.66145 0.29539,0 0.34381,-0.21342 0.21012,-0.92605 -0.16391,-0.87371 -0.13311,-0.92604 0.54504,-0.92604 0.39531,0 0.93697,-0.19748 1.20368,-0.43885 0.40869,-0.36986 0.59747,-0.38758 1.20071,-0.11273 0.58246,0.26539 0.76705,0.25884 0.99111,-0.0352 0.15144,-0.19872 0.72182,-0.63395 1.26753,-0.96718 0.5457,-0.33323 0.99218,-0.77895 0.99218,-0.99048 0,-0.21153 0.19032,-0.67507 0.42293,-1.03007 0.40756,-0.62202 0.45216,-0.63036 1.2273,-0.22952 0.62653,0.32399 0.94526,0.35177 1.4416,0.12562 0.35048,-0.15969 0.89953,-0.29079 1.2201,-0.29134 0.32058,-5.3e-4 0.98222,-0.24446 1.47031,-0.54203 0.4881,-0.29757 1.02388,-0.48512 1.19063,-0.41677 0.21962,0.09 0.21635,0.13002 -0.0119,0.14515 -0.22954,0.0152 -0.21204,0.21834 0.0645,0.7485 0.52061,0.998 0.47836,1.7254 -0.14635,2.51959 -0.29104,0.37 -0.52917,0.85238 -0.52917,1.07197 0,0.21958 -0.0986,0.43892 -0.21909,0.48743 -0.12051,0.0485 -0.14589,0.83233 -0.0564,1.74184 0.12358,1.25605 0.0808,1.65365 -0.17777,1.65365 -0.18727,0 -0.34048,0.11906 -0.34048,0.26458 0,0.14552 0.12609,0.26458 0.2802,0.26458 0.15411,0 0.2117,0.11084 0.12798,0.2463 -0.0837,0.13547 -0.0312,0.32109 0.11667,0.41249 0.3458,0.21372 0.34872,0.66413 0.004,0.66413 -0.14552,0 -0.26458,-0.17859 -0.26458,-0.39688 0,-0.21828 -0.10409,-0.39687 -0.2313,-0.39687 -0.12722,0 -0.22033,0.50601 -0.20692,1.12448 0.0134,0.61846 -0.0813,1.35237 -0.21054,1.6309 -0.1688,0.36389 -0.14779,0.45258 0.0746,0.31512 0.46214,-0.28562 0.38196,0.56173 -0.13615,1.43881 -0.36629,0.62008 -0.38986,0.87703 -0.13229,1.44233 0.5264,1.15532 0.34193,1.40404 -0.74493,1.0044 z m 88.37083,-4.55918 c 0,-0.13693 0.11906,-0.32255 0.26458,-0.41249 0.14552,-0.0899 0.26459,0.0221 0.26459,0.24897 0,0.22687 -0.11907,0.41249 -0.26459,0.41249 -0.14552,0 -0.26458,-0.11203 -0.26458,-0.24897 z m 8.62727,-4.40288 c -0.24838,-0.64724 -0.19453,-0.73276 0.23627,-0.37523 0.43984,0.36503 0.52658,0.79375 0.1606,0.79375 -0.12995,0 -0.30855,-0.18833 -0.39687,-0.41852 z m -110.47323,-0.34044 c -0.14553,-0.27191 -0.17948,-0.58854 -0.0755,-0.70362 0.10402,-0.11508 -0.0192,-0.13447 -0.27389,-0.0431 -0.47598,0.17079 -0.58673,-0.20462 -0.47325,-1.60417 0.0266,-0.32797 -0.10905,-0.63734 -0.30144,-0.68749 -0.19239,-0.0502 -0.72697,-0.21427 -1.18796,-0.3647 -0.56372,-0.18396 -0.92557,-0.18611 -1.10511,-0.007 -0.50621,0.50622 -3.60305,-1.81988 -3.22889,-2.42528 0.1086,-0.17572 0.14404,-0.59891 0.0788,-0.94043 -0.0852,-0.44578 0.0474,-0.70983 0.47019,-0.9361 0.3239,-0.17334 1.37756,-0.96053 2.34148,-1.7493 l 1.75257,-1.43414 1.5875,0.17775 c 2.33151,0.26106 4.22806,0.16671 5.52929,-0.27507 0.90561,-0.30747 1.35449,-0.32812 2.10765,-0.097 0.70455,0.21623 1.12941,0.21514 1.61068,-0.004 0.5099,-0.23233 0.81601,-0.21318 1.39158,0.087 0.40584,0.21169 1.10639,0.38562 1.55677,0.38652 0.95201,0.002 1.85001,0.79878 1.40341,1.24538 -0.20231,0.20231 -0.20128,0.33517 0.004,0.46179 0.1582,0.0978 0.28764,0.10703 0.28764,0.0206 0,-0.0865 0.26789,-0.012 0.59531,0.16559 0.32742,0.17754 0.88246,0.33055 1.23342,0.34003 0.69573,0.0188 1.12576,0.6787 0.44227,0.6787 -0.2304,0 -0.41985,0.0893 -0.42098,0.19844 -0.003,0.2992 -1.34142,0.8599 -2.05246,0.8599 -0.34435,0 -0.85866,0.12446 -1.14289,0.27657 -0.39236,0.20999 -0.70762,0.16386 -1.30936,-0.1916 -0.78498,-0.4637 -0.79885,-0.4614 -1.45019,0.24104 -0.36169,0.39008 -0.65762,0.95255 -0.65762,1.24994 0,0.30424 -0.17357,0.54071 -0.39688,0.54071 -0.21828,0 -0.39687,0.11601 -0.39687,0.25779 0,0.14179 -0.3554,0.44157 -0.78977,0.66619 -0.64032,0.33113 -0.88852,0.34673 -1.31171,0.0824 -0.44032,-0.27498 -0.6168,-0.23766 -1.12846,0.23866 -0.33359,0.31055 -0.96371,0.60393 -1.40027,0.65196 -0.66436,0.0731 -0.79568,0.20572 -0.80557,0.81353 -0.007,0.39941 -0.15533,0.8697 -0.33073,1.04511 -0.17541,0.17538 -0.31892,0.46093 -0.31892,0.63454 0,0.72508 -1.4609,0.83861 -1.83346,0.14247 z m 103.75868,-0.0844 c 0.16353,-0.4906 0.73311,-0.57197 0.73311,-0.10473 0,0.23041 -0.18851,0.41892 -0.41892,0.41892 -0.23041,0 -0.37179,-0.14139 -0.31419,-0.31419 z m -108.5398,-0.19208 c -0.50933,-0.10608 -1.28661,-0.38217 -1.72729,-0.61352 -0.44069,-0.23135 -1.2146,-0.46182 -1.71979,-0.51215 -0.5052,-0.0503 -1.2054,-0.29377 -1.55599,-0.54098 -0.535,-0.37723 -0.58295,-0.51512 -0.29833,-0.85806 0.18651,-0.22473 0.50686,-0.4086 0.71189,-0.4086 0.20503,0 0.44131,-0.1786 0.52508,-0.39688 0.0838,-0.21828 0.31815,-0.39687 0.52086,-0.39687 0.20271,0 0.36857,-0.17157 0.36857,-0.38126 0,-0.73302 0.47385,-0.66121 1.67159,0.25333 0.66389,0.50693 1.32055,0.92168 1.45923,0.92168 0.13868,0 0.32017,0.17726 0.4033,0.39391 0.11136,0.29018 0.31043,0.33398 0.75592,0.16633 0.33261,-0.12518 0.99062,-0.17002 1.46224,-0.0997 0.76531,0.11419 0.83945,0.19979 0.68972,0.79638 -0.0923,0.36764 -0.18049,0.91983 -0.19603,1.22709 -0.0234,0.46315 -0.2092,0.56579 -1.0866,0.6004 -0.58208,0.023 -1.47505,-0.045 -1.98437,-0.15114 z m 109.5375,-2.38853 c 0,-0.28245 0.11906,-0.58714 0.26458,-0.67707 0.15006,-0.0927 0.26458,0.12954 0.26458,0.51355 0,0.37239 -0.11906,0.67707 -0.26458,0.67707 -0.14552,0 -0.26458,-0.2311 -0.26458,-0.51355 z m -118.4733,-0.27025 c -1.68855,-0.15534 -2.11001,-0.30995 -3.43959,-1.26174 -0.83338,-0.59658 -1.47617,-1.24173 -1.42843,-1.43366 0.0478,-0.19193 0.11454,-1.00567 0.14842,-1.80832 0.0624,-1.47825 0.93695,-3.6291 1.56266,-3.84314 0.17533,-0.06 1.39034,-0.14347 2.70003,-0.18554 l 2.38125,-0.0765 0.0794,-0.81222 c 0.0851,-0.87139 -0.93417,-2.19525 -2.39446,-3.10988 -0.84898,-0.53174 -0.94583,-0.97269 -0.21365,-0.97269 0.4155,0 0.52954,-0.2154 0.59532,-1.12448 l 0.0814,-1.12448 3.26621,-0.084 3.26622,-0.0841 -0.0912,3.98683 -0.0912,3.98684 0.97658,-1.7e-4 c 0.53711,-10e-5 1.05015,0.11888 1.14009,0.26441 0.24412,0.39499 0.61119,0.31955 0.70821,-0.14555 0.0722,-0.346 0.15948,-0.35578 0.55831,-0.0626 0.43327,0.31852 0.349,0.44674 -1.00859,1.53461 -2.478,1.98568 -2.54941,2.06842 -2.25688,2.61502 0.1979,0.36977 0.14565,0.59521 -0.21321,0.91997 -0.26144,0.2366 -0.61774,0.43018 -0.79178,0.43018 -0.17405,0 -0.43043,0.29979 -0.56974,0.6662 -0.13931,0.36642 -0.52821,0.77073 -0.86422,0.89848 -0.33601,0.12776 -0.76944,0.42328 -0.96318,0.65672 -0.19374,0.23344 -0.54603,0.40698 -0.78288,0.38563 -0.23684,-0.0213 -1.29658,-0.11846 -2.35496,-0.21583 z m 118.60559,-2.12661 c -0.29104,-0.12507 -0.43713,-0.23576 -0.32463,-0.24599 0.11249,-0.0102 0.01,-0.31625 -0.22887,-0.68006 -0.23837,-0.3638 -0.3231,-0.66145 -0.18828,-0.66145 0.40015,0 1.40324,1.04761 1.40324,1.46551 0,0.21261 -0.0298,0.3782 -0.0661,0.36797 -0.0364,-0.0102 -0.30427,-0.12092 -0.59531,-0.24598 z m -1.55919,-3.59352 c -0.24657,-0.64254 -0.19202,-0.95897 0.14589,-0.84633 0.36369,0.12123 0.58911,1.26485 0.24932,1.26485 -0.12904,0 -0.30689,-0.18834 -0.39521,-0.41852 z m -1.48352,-3.02107 c 0,-0.79602 0.0904,-0.93168 0.57713,-0.86623 0.24467,0.0329 0.48279,-0.0981 0.52917,-0.29103 0.0629,-0.26175 0.21364,-0.22655 0.59364,0.13863 0.49988,0.4804 0.49375,0.48947 -0.33073,0.48947 -0.66365,0 -0.84004,0.11111 -0.84004,0.52916 0,0.29104 -0.11907,0.52917 -0.26459,0.52917 -0.14552,0 -0.26458,-0.23813 -0.26458,-0.52917 z m -108.64593,-0.33073 c 0.0878,-0.32742 0.16116,-2.12138 0.16315,-3.98658 0.003,-3.27181 0.0223,-3.38534 0.53359,-3.22306 0.50677,0.16085 1.31472,-0.35097 1.32799,-0.84125 0.01,-0.36986 1.04032,-1.56059 1.04657,-1.20952 0.003,0.1819 0.244,0.33072 0.53505,0.33072 0.59906,0 0.66398,0.42211 0.23136,1.50413 -0.16379,0.40966 -0.33491,1.6885 -0.38026,2.84188 -0.0831,2.1133 -0.68694,3.85608 -1.33605,3.85608 -0.16845,0 -0.50131,0.29765 -0.73968,0.66146 -0.57024,0.87029 -1.61057,0.92009 -1.38172,0.0661 z m 108.25172,-3.90692 c 0.0914,-0.14789 0.27703,-0.2004 0.41249,-0.11667 0.36699,0.22681 0.29856,0.38557 -0.16619,0.38557 -0.22687,0 -0.3377,-0.121 -0.2463,-0.2689 z m -3.83912,-1.06963 c 0,-0.15411 0.11906,-0.20661 0.26458,-0.11668 0.14552,0.0899 0.26458,0.21603 0.26458,0.2802 0,0.0642 -0.11906,0.11668 -0.26458,0.11668 -0.14552,0 -0.26458,-0.12609 -0.26458,-0.2802 z m -35.07258,-1.69038 c -0.2334,-0.35621 -0.38574,-1.01587 -0.33854,-1.46591 0.0514,-0.48984 -0.0603,-0.90859 -0.27836,-1.04334 -0.30538,-0.18873 -0.29765,-0.3201 0.0479,-0.81342 0.22664,-0.32358 0.34822,-0.75477 0.27015,-0.95821 -0.0781,-0.20342 -0.001,-0.53953 0.17099,-0.74691 0.242,-0.29159 0.22796,-0.71058 -0.0619,-1.84871 -0.20615,-0.80942 -0.30387,-1.48635 -0.21717,-1.5043 0.82904,-0.17159 3.76264,-0.12785 3.87738,0.0578 0.0814,0.13167 0.43859,0.2394 0.7938,0.2394 0.35522,0 0.64585,0.13464 0.64585,0.2992 0,0.19108 0.31736,0.2477 0.87819,0.15669 0.80474,-0.13059 0.89879,-0.0726 1.12448,0.69299 0.23715,0.80451 0.29289,0.83223 1.50306,0.74752 0.7795,-0.0546 1.25677,0.0208 1.25677,0.19844 0,0.15752 -0.41672,0.28641 -0.92605,0.28641 -2.02255,0 -0.39079,0.75978 1.7198,0.80077 0.3638,0.007 1.12802,0.41217 1.69826,0.90024 l 1.03681,0.88739 -0.76197,0.70616 c -0.62796,0.58198 -0.69397,0.74918 -0.37535,0.95071 0.32581,0.20608 0.3166,0.24518 -0.0586,0.2486 -0.24485,0.002 -0.52077,-0.23408 -0.61314,-0.52512 -0.0924,-0.29104 -0.24923,-0.53827 -0.34856,-0.54941 -0.0993,-0.0111 -0.41873,-0.066 -0.70978,-0.12191 -0.29104,-0.0559 -1.29167,-0.12412 -2.22362,-0.15155 -1.30959,-0.0385 -1.76694,0.0493 -2.01354,0.3865 -0.4121,0.56357 -1.98054,0.59484 -1.98054,0.0395 0,-0.49465 -0.28212,-0.50357 -0.93054,-0.0294 -0.27638,0.2021 -0.65632,0.30842 -0.84432,0.23628 -0.20113,-0.0772 -0.34181,0.0643 -0.34181,0.34379 0,0.50979 -1.06433,2.22269 -1.38296,2.22568 -0.10579,0.001 -0.3833,-0.28963 -0.6167,-0.64585 z m 17.81196,-0.8877 c -0.52942,-0.10338 -0.77913,-1.6378 -0.29665,-1.82294 0.64217,-0.24643 5.09129,0.0463 5.39997,0.35528 0.22894,0.22917 0.16036,0.44787 -0.27785,0.88608 -0.48247,0.48247 -0.90904,0.58863 -2.49838,0.62177 -1.05411,0.022 -2.1013,0.004 -2.32709,-0.0402 z m -27.28712,-0.45438 c -0.0849,-0.22123 -0.51683,-0.47474 -0.95986,-0.56334 -0.91946,-0.18389 -1.12559,-0.4053 -0.90718,-0.97446 0.23466,-0.61151 0.74494,-0.69887 1.86754,-0.31971 1.46117,0.49351 5.02401,0.78402 5.24428,0.42762 0.0967,-0.15649 0.40695,-0.28454 0.68941,-0.28454 0.72577,0 0.64176,-0.28286 -0.35595,-1.19853 -0.75434,-0.69231 -0.84612,-0.91234 -0.69294,-1.6613 0.15602,-0.76282 0.0894,-0.90838 -0.57257,-1.25069 -0.41202,-0.21307 -1.0527,-0.38739 -1.42373,-0.38739 -0.8556,0 -0.90797,-0.7251 -0.0676,-0.93602 1.12841,-0.28321 2.42885,-0.18948 4.02321,0.28999 0.87313,0.26258 1.62609,0.50433 1.67326,0.53723 0.0472,0.0329 0.12275,0.60839 0.16795,1.27886 0.0615,0.91256 -0.0266,1.28071 -0.35035,1.46441 -0.3899,0.2212 -0.38037,0.28558 0.0966,0.65319 0.52447,0.40419 0.52382,0.40931 -0.0736,0.57725 -0.46911,0.13187 -0.56401,0.29415 -0.42805,0.73195 0.0961,0.30938 0.27801,0.6022 0.40429,0.65071 0.12629,0.0485 0.22961,0.23591 0.22961,0.41645 0,0.24904 -0.93015,0.31361 -3.85437,0.26758 -3.1077,-0.0489 -3.88201,0.0113 -3.99706,0.31115 -0.18709,0.48755 -0.51966,0.47336 -0.71297,-0.0304 z m -13.26372,-0.39151 c -0.0899,-0.14552 -0.5531,-0.26458 -1.02924,-0.26458 -0.64784,0 -0.953,-0.16308 -1.2125,-0.64797 -0.19073,-0.35638 -0.5978,-0.68381 -0.9046,-0.72761 -0.30681,-0.0438 -0.55783,-0.19013 -0.55783,-0.32518 0,-0.7784 4.08773,-0.80504 5.56211,-0.0362 0.43334,0.22596 0.99206,0.41156 1.2416,0.41246 0.39101,0.001 1.0015,0.71758 1.0015,1.17486 0,0.25364 -1.32837,0.16539 -1.86948,-0.1242 -0.36829,-0.19711 -0.51177,-0.18846 -0.51177,0.0309 0,0.17448 -0.22619,0.2456 -0.52917,0.16637 -0.34392,-0.0899 -0.52916,-0.008 -0.52916,0.23372 0,0.42913 -0.42046,0.49748 -0.66146,0.10752 z m 16.38859,-2.53157 c -0.48829,-0.39446 -0.47449,-0.40657 0.28016,-0.24586 0.98668,0.21013 1.50836,0.66076 0.76494,0.66076 -0.29233,0 -0.76263,-0.1867 -1.0451,-0.4149 z m -31.60213,-4.08301 c 0,-0.31055 0.20336,-0.31055 0.92604,0 0.46891,0.20149 0.44631,0.22951 -0.19844,0.24598 -0.40018,0.0102 -0.7276,-0.10046 -0.7276,-0.24598 z m 14.06532,-0.76334 c 0.19424,-0.31102 0.53205,-0.62566 0.75069,-0.6992 0.21864,-0.0735 0.68209,-0.35319 1.0299,-0.62144 l 0.63237,-0.48774 -0.56623,-0.56623 c -0.43861,-0.43861 -0.88786,-0.56622 -1.99345,-0.56622 -1.19216,0 -1.55524,-0.11984 -2.20449,-0.7276 -0.42749,-0.40019 -0.86629,-1.08382 -0.97512,-1.51919 -0.30136,-1.20568 -0.92826,-1.68456 -1.86006,-1.42088 -1.0046,0.28429 -4.21774,-0.64186 -5.01882,-1.44661 -0.43864,-0.44065 -0.8253,-0.55561 -1.6619,-0.49411 -0.86254,0.0634 -1.1713,-0.0356 -1.47827,-0.47381 l -0.388,-0.55396 -0.18378,0.6061 c -0.11051,0.36445 -0.23821,0.47424 -0.32031,0.27537 -0.0751,-0.1819 -0.51357,-0.33337 -0.97438,-0.33661 -0.46082,-0.003 -1.1355,-0.23871 -1.49931,-0.52328 l -0.66146,-0.5174 0.8158,-0.006 c 0.986,-0.007 1.26384,-0.23376 0.8693,-0.70914 -0.19562,-0.23572 -0.92289,-0.35508 -2.16349,-0.35508 -1.79469,0 -1.91857,0.042 -3.12392,1.05833 -1.01497,0.85584 -1.46119,1.05833 -2.33213,1.05833 -0.90062,0 -1.07701,0.0867 -1.07701,0.52917 0,0.38464 -0.17639,0.52917 -0.64585,0.52917 -0.35521,0 -0.71942,0.11906 -0.80936,0.26458 -0.0899,0.14552 -0.28258,0.26458 -0.42811,0.26458 -0.14552,0 -0.191,-0.11906 -0.10106,-0.26458 0.0899,-0.14552 -0.0746,-0.26458 -0.36564,-0.26458 -0.29105,0 -0.60396,0.121 -0.69536,0.2689 -0.0914,0.14789 -0.29208,0.19109 -0.44594,0.096 -0.35777,-0.22111 1.36148,-0.95574 1.82261,-0.77879 0.42401,0.16271 0.45217,-0.16765 0.0487,-0.57115 -0.50763,-0.50763 0.66,-1.79158 2.20788,-2.4278 0.76809,-0.31571 1.60327,-0.689 1.85596,-0.82955 0.25269,-0.14054 0.87536,-0.25553 1.38371,-0.25553 0.50835,0 1.40349,-0.19174 1.98919,-0.42609 0.7288,-0.29161 1.37767,-0.3665 2.05587,-0.23729 1.74526,0.33251 5.13977,0.42555 4.9608,0.13597 -0.0905,-0.14649 0.0173,-0.26634 0.23958,-0.26634 0.2498,0 0.34627,0.15094 0.25255,0.39517 -0.16234,0.42306 0.84381,0.95346 1.40434,0.74032 0.41834,-0.15908 1.2574,0.31575 2.4301,1.37523 0.74729,0.67513 1.24915,0.8968 2.15941,0.95384 1.23641,0.0775 2.70858,0.6083 3.50096,1.26235 0.72735,0.60038 0.54087,-0.079 -0.23452,-0.85437 -0.38364,-0.38365 -0.90969,-0.69754 -1.16898,-0.69754 -0.70448,0 -1.32414,-0.28977 -1.1662,-0.54533 0.20366,-0.32953 2.00002,0.32769 2.70056,0.98803 0.18112,0.17072 0.59784,0.52868 0.92604,0.79547 0.32821,0.2668 0.77534,0.71216 0.99362,0.98969 0.37597,0.47803 0.36433,0.48727 -0.2211,0.17527 -1.0264,-0.547 -0.93203,-0.13008 0.10968,0.48454 0.73387,0.433 0.93201,0.47432 0.81523,0.17001 -0.0848,-0.22111 0.5402,0.072 1.389,0.6514 0.84879,0.57938 1.77021,1.05342 2.0476,1.05342 0.27739,0 0.77638,0.19054 1.10887,0.42342 0.33703,0.23607 0.85455,0.35804 1.16958,0.27566 0.31079,-0.0813 0.71301,-0.025 0.89383,0.12509 0.36312,0.30136 0.18158,1.11226 -0.19666,0.87849 -0.13028,-0.0805 -0.23686,0.0473 -0.23686,0.28393 0,0.29538 0.15067,0.3825 0.48049,0.27782 0.87343,-0.27722 3.29823,0.35386 4.02126,1.04656 0.37762,0.36178 0.86858,0.65778 1.09102,0.65778 0.59698,0 0.79246,0.3002 0.45795,0.70326 -0.16207,0.19529 -0.79207,0.35507 -1.39999,0.35507 -0.60793,0 -1.26307,0.14883 -1.45589,0.33073 -0.28083,0.26493 -0.37577,0.26172 -0.47723,-0.0162 -0.0979,-0.26805 -0.24096,-0.24347 -0.62947,0.10813 -0.44289,0.40081 -0.62648,0.41423 -1.54045,0.11259 -1.00346,-0.33117 -2.83083,-0.28686 -6.85463,0.16621 -1.39117,0.15664 -1.4069,0.1506 -1.05899,-0.40649 z m 2.07426,-6.2325 c 0,-0.0642 -0.11906,-0.19027 -0.26458,-0.2802 -0.14552,-0.0899 -0.26459,-0.0374 -0.26459,0.11667 0,0.15411 0.11907,0.2802 0.26459,0.2802 0.14552,0 0.26458,-0.0525 0.26458,-0.11667 z m 13.36146,0.38125 c -0.0899,-0.14552 -0.0374,-0.26458 0.11667,-0.26458 0.15411,0 0.2802,0.11906 0.2802,0.26458 0,0.14553 -0.0525,0.26459 -0.11667,0.26459 -0.0642,0 -0.19026,-0.11906 -0.2802,-0.26459 z m -36.17484,-0.57578 c 0.23257,-0.23257 0.2354,-0.40254 0.0112,-0.67268 -0.20977,-0.25275 -0.21633,-0.44512 -0.0218,-0.63964 0.64824,-0.64825 1.91399,0.30839 1.57543,1.19068 -0.10636,0.27717 -0.4736,0.43284 -1.02107,0.43284 -0.65537,0 -0.78232,-0.0727 -0.54376,-0.3112 z m 42.24938,-2.35223 c -0.28477,-0.46076 0.0396,-0.55834 0.40244,-0.12109 0.20869,0.25146 0.22877,0.40327 0.0533,0.40327 -0.15475,0 -0.35984,-0.12698 -0.45576,-0.28218 z m -8.47088,-2.0824 c 0.25509,-0.28187 0.39066,-0.63083 0.30127,-0.77546 -0.16377,-0.26499 0.31075,-0.71685 0.52636,-0.50123 0.25714,0.25713 -0.49591,1.78919 -0.87943,1.78919 -0.35512,0 -0.34797,-0.0708 0.0518,-0.5125 z m 3.58696,0.24791 c -0.30926,-0.19986 -0.23625,-0.25737 0.33073,-0.26053 0.40018,-0.002 0.72761,0.11501 0.72761,0.26053 0,0.33455 -0.54067,0.33455 -1.05834,0 z m -7.0776,-2.54079 c -0.60749,-0.69305 -0.81,-1.32728 -0.32885,-1.02992 0.2463,0.15222 1.16109,1.7246 0.9971,1.71385 -0.0401,-0.003 -0.34083,-0.3104 -0.66825,-0.68393 z m -22.02656,-0.12065 c 0,-0.15411 0.11906,-0.20662 0.26458,-0.11668 0.14552,0.0899 0.26458,0.21603 0.26458,0.2802 0,0.0642 -0.11906,0.11667 -0.26458,0.11667 -0.14552,0 -0.26458,-0.12609 -0.26458,-0.28019 z m 11.49475,-3.70471 c -0.42235,-0.46669 -0.4378,-0.58055 -0.10715,-0.7897 0.58713,-0.37137 0.96882,-0.30145 1.14942,0.21054 0.0898,0.25466 0.23269,0.61185 0.31749,0.79375 0.25692,0.55116 -0.82067,0.3811 -1.35976,-0.21459 z m 8.79207,-0.91671 c -0.0984,-0.28729 -0.25063,-0.70094 -0.33839,-0.91922 -0.0878,-0.21828 0.0403,-0.12592 0.28453,0.20525 0.24425,0.33118 0.39653,0.74482 0.33839,0.91922 -0.0593,0.17801 -0.18413,0.088 -0.28453,-0.20525 z m -10.11983,-0.74223 c -0.20479,-0.53368 0.0446,-2.29228 0.37134,-2.61907 0.45034,-0.45034 1.37349,0.81618 1.29787,1.78062 -0.0342,0.43656 -0.18131,0.88123 -0.32683,0.98814 -0.42964,0.31565 -1.19663,0.23012 -1.34238,-0.14969 z m 7.45426,-2.45241 c -0.0942,-0.24538 -0.11168,-0.50568 -0.0389,-0.57844 0.0728,-0.0728 0.20934,0.0685 0.3035,0.31386 0.0942,0.24539 0.11168,0.50569 0.0389,0.57845 -0.0728,0.0728 -0.20933,-0.0685 -0.30349,-0.31387 z m -1.34938,-1.16416 c -0.88628,-0.58696 -0.77117,-0.68837 0.25214,-0.22212 0.37065,0.16888 0.6739,0.40701 0.6739,0.52917 0,0.30004 -0.0188,0.29382 -0.92604,-0.30705 z m -2.88035,-2.86177 c -0.23348,-0.37779 0.48823,-2.08075 0.8331,-1.96579 0.41572,0.13857 0.41476,0.56532 -0.003,1.46545 -0.33849,0.72886 -0.59355,0.88265 -0.82983,0.50034 z m -5.02408,-1.84722 c -0.26951,-0.43608 0.25816,-0.79408 0.96989,-0.65802 l 0.73703,0.14089 -0.7018,0.3641 c -0.82158,0.42624 -0.835,0.42829 -1.00512,0.15303 z"
       id="path452"
       sodipodi:nodetypes="ssscscccscscscssccssssssscsscsscsssssscssccssscssccccccccscssscccscsccscccssscccsscccsssscssscssscssssccsscsscccccssccsssccssscccssccscssscssccccccccscsccscccccscsccscscscsssccscccsccsssscsccsscsscsccccccccscssscscsccccssccccccccccssssscsccccccssccccsscsscsssssccsccsscscccscssscsssccccccsccsssccssccccscccsccsscssccccsscccccsscssscsssccccsccscccccscssccscscscccsscsccsccccsscccsccccccccccscssscscscsccccssccsccccccsccscccccsccccscssssscsssccscssscssscccccscccscccccscscsssscsscsssscccsccccccccsccccccccssccccccsccss" /></g></svg>
