<?xml version="1.0" encoding="UTF-8" standalone="no"?>
<!-- Created with Inkscape (http://www.inkscape.org/) -->

<svg
   width="259.12225mm"
   height="259.66971mm"
   viewBox="0 0 259.12225 259.66971"
   version="1.1"
   id="svg5"
   xml:space="preserve"
   inkscape:version="1.2.2 (732a01da63, 2022-12-09, custom)"
   sodipodi:docname="europe.svg"
   xmlns:inkscape="http://www.inkscape.org/namespaces/inkscape"
   xmlns:sodipodi="http://sodipodi.sourceforge.net/DTD/sodipodi-0.dtd"
   xmlns="http://www.w3.org/2000/svg"
   xmlns:svg="http://www.w3.org/2000/svg"><sodipodi:namedview
     id="namedview7"
     pagecolor="#505050"
     bordercolor="#eeeeee"
     borderopacity="1"
     inkscape:showpageshadow="0"
     inkscape:pageopacity="0"
     inkscape:pagecheckerboard="0"
     inkscape:deskcolor="#505050"
     inkscape:document-units="mm"
     showgrid="false"
     inkscape:zoom="0.31864489"
     inkscape:cx="310.69069"
     inkscape:cy="210.26542"
     inkscape:window-width="1390"
     inkscape:window-height="827"
     inkscape:window-x="0"
     inkscape:window-y="37"
     inkscape:window-maximized="1"
     inkscape:current-layer="layer1" /><defs
     id="defs2" /><g
     inkscape:label="Layer 1"
     inkscape:groupmode="layer"
     id="layer1"
     transform="translate(339.91224,-254.20218)"><path
       style="fill:#ffffff;stroke-width:0.264583"
       d="m -197.31766,513.57544 c -2.01718,-0.41962 -2.36545,-0.63258 -2.22718,-1.36182 0.14251,-0.75153 1.3849,-0.74092 5.28326,0.0451 3.2979,0.66496 4.81864,0.72766 6.2527,0.25778 0.48276,-0.15817 0.56764,-0.114 0.43669,0.22725 -0.24783,0.64586 -1.79852,0.98851 -5.00469,1.10588 -1.905,0.0697 -3.54272,-0.025 -4.74078,-0.27421 z m -43.1047,-1.36788 c -0.097,-0.097 -0.17639,-0.40295 -0.17639,-0.67986 0,-0.37078 0.15689,-0.48118 0.59531,-0.41892 0.77769,0.11045 1.01602,1.27517 0.26094,1.27517 -0.27691,0 -0.58285,-0.0794 -0.67986,-0.17639 z m 34.73566,-6.77582 c -0.62935,-0.8912 -1.01242,-1.2121 -1.29962,-1.08871 -1.11364,0.47845 -1.45585,0.25504 -2.35664,-1.53855 -0.49009,-0.97585 -0.95139,-2.30932 -1.0251,-2.96326 -0.12653,-1.12264 -0.0933,-1.19922 0.59539,-1.37207 0.40117,-0.10068 1.8745,-0.11175 3.27406,-0.0246 1.39956,0.0872 2.96137,0.0673 3.47069,-0.0443 0.87474,-0.1915 0.895,-0.21967 0.36578,-0.50843 -0.30815,-0.16813 -2.15362,-0.43188 -4.10104,-0.5861 -3.65811,-0.28969 -4.35472,-0.52434 -5.16084,-1.73843 -0.29222,-0.44011 -0.28736,-0.64767 0.0295,-1.25838 0.36015,-0.6942 0.34548,-0.74424 -0.28892,-0.98544 -1.22722,-0.46659 -5.93764,-5.80045 -6.46928,-7.32551 -0.20964,-0.60137 -0.14591,-1.5508 0.26627,-3.96662 0.29804,-1.74683 0.54189,-3.48072 0.54189,-3.85311 0,-0.88767 -2.59709,-3.22501 -4.89031,-4.4012 -0.91992,-0.47183 -2.3093,-1.40378 -3.0875,-2.071 -1.84306,-1.58022 -3.5502,-2.65842 -4.80401,-3.03413 -1.1982,-0.35904 -2.04549,-1.30158 -3.13681,-3.48942 -1.60911,-3.22593 -3.49463,-6.50901 -3.73821,-6.50901 -0.13714,0 -0.66754,0.36718 -1.17867,0.81595 -1.14719,1.00725 -1.52042,0.75481 -1.90834,-1.29073 -0.40399,-2.13018 -0.64484,-2.43564 -1.9205,-2.43564 -0.6038,0 -1.79955,0.1969 -2.65724,0.43755 l -1.55942,0.43755 0.0869,3.26493 0.0869,3.26492 2.38515,2.33057 c 2.17845,2.12859 2.54306,2.63892 4.20727,5.88867 2.51944,4.91981 2.44757,4.83458 4.42,5.24198 0.91621,0.18924 2.00605,0.52 2.42186,0.73502 0.63955,0.33073 0.7309,0.50525 0.59304,1.13293 -0.22667,1.03201 0.60433,1.94507 4.34078,4.76947 4.33222,3.27473 5.7924,4.6463 5.38826,5.06126 -0.25433,0.26114 -0.56508,0.10408 -1.50101,-0.75863 -1.32392,-1.22035 -3.90797,-2.1761 -4.64435,-1.71779 -0.64917,0.40405 -1.59456,2.2433 -1.59935,3.11156 -0.002,0.44777 0.40271,1.44803 0.9376,2.31462 0.51808,0.83935 0.86073,1.65752 0.76145,1.81815 -0.0993,0.16064 -0.58181,0.45974 -1.0723,0.66468 -0.86972,0.3634 -1.39994,1.03374 -2.85402,3.60829 -0.45177,0.7999 -0.89011,1.25677 -1.20577,1.25677 -1.04148,0 -0.74247,-1.35489 0.79081,-3.58345 l 0.83116,-1.20804 -1.14716,-3.3106 -1.14717,-3.31061 -8.98019,-7.19209 -8.9802,-7.19208 -1.20891,-4.1487 c -0.84665,-2.90548 -1.40634,-4.36155 -1.86772,-4.85903 -0.63259,-0.68207 -4.13163,-3.17247 -4.83842,-3.44369 -0.18781,-0.0721 -2.83658,1.08031 -5.88615,2.56085 -3.04956,1.48053 -5.66372,2.69323 -5.80924,2.69488 -0.14552,0.002 -1.78318,-0.86387 -3.63925,-1.9234 -3.83491,-2.18913 -5.00837,-2.48215 -6.95817,-1.73751 -1.67221,0.63862 -2.02633,1.31379 -2.25166,4.29297 -0.11986,1.58471 -0.32822,2.6564 -0.56191,2.89009 -0.20428,0.20428 -2.03287,0.79278 -4.06354,1.30778 -2.03067,0.515 -4.28745,1.21149 -5.01505,1.54776 -3.69627,1.70823 -7.54062,5.83586 -7.54062,8.09625 0,0.30161 0.25214,0.88943 0.56032,1.30626 0.68271,0.92342 0.55108,1.16748 -1.07375,1.99084 -1.2985,0.658 -2.18144,1.55188 -2.97945,3.01639 -0.42194,0.77434 -0.53896,0.82409 -1.86638,0.79348 -1.6105,-0.0371 -2.39214,0.3058 -4.2607,1.86929 -0.70707,0.59163 -1.38361,1.07569 -1.50342,1.07569 -0.11982,0 -1.74396,-0.60573 -3.60922,-1.34607 -3.99877,-1.58717 -5.59663,-1.8079 -8.76009,-1.21012 -1.20655,0.228 -2.35821,0.35142 -2.55925,0.27428 -0.44476,-0.17067 -0.83368,-0.9729 -2.35283,-4.85308 -0.64605,-1.65013 -1.3356,-3.08452 -1.53233,-3.18753 -0.19673,-0.103 -1.91117,-0.56885 -3.80987,-1.03522 -1.89869,-0.46637 -3.60681,-0.94353 -3.79583,-1.06034 -0.26642,-0.16466 -0.12098,-0.71082 0.64708,-2.42997 1.71651,-3.84205 1.7486,-3.97802 1.10274,-4.67211 -0.5442,-0.58483 -0.54697,-0.62552 -0.0947,-1.39115 0.41555,-0.70348 0.42126,-0.80583 0.0528,-0.94721 -0.66082,-0.25358 -0.49945,-0.65145 1.05304,-2.59635 0.80474,-1.00815 1.88268,-2.52359 2.39542,-3.36765 1.26311,-2.0793 3.63446,-7.11326 4.33998,-9.213 0.5479,-1.63066 0.55628,-1.79084 0.17293,-3.3073 -0.7694,-3.0436 -0.76871,-3.02371 -0.10976,-3.16923 0.91825,-0.20279 4.66089,-0.67336 5.35547,-0.67336 0.33951,0 1.12865,0.42723 1.75364,0.9494 0.625,0.52217 1.92066,1.34437 2.87924,1.8271 1.83174,0.92245 11.30511,4.74356 15.65026,6.31259 l 2.55017,0.92085 1.24243,-2.64136 c 1.8077,-3.84314 2.72857,-6.0993 3.7338,-9.14797 0.89533,-2.71534 0.93145,-3.34346 0.20823,-3.62099 -0.59581,-0.22863 -1.33963,-2.18401 -1.66963,-4.38921 -0.16333,-1.0914 -0.35866,-2.18575 -0.43408,-2.43188 -0.0754,-0.24613 -1.1731,-1.10167 -2.43931,-1.9012 -4.2568,-2.68789 -4.87764,-3.78254 -2.74407,-4.83823 0.048,-0.0238 -0.11695,-0.35489 -0.36657,-0.73586 -0.24962,-0.38097 -0.37181,-0.77472 -0.27152,-0.87501 0.26028,-0.26028 3.68707,-0.42129 4.74446,-0.22292 0.72007,0.13508 0.98353,0.37491 1.38161,1.25771 0.57287,1.27039 1.58845,1.80989 3.40702,1.80989 1.38485,0 1.35345,0.0679 1.57886,-3.41224 0.0791,-1.22189 0.19738,-2.2751 0.26274,-2.34047 0.0654,-0.0654 1.33354,0.7484 2.81817,1.80836 l 2.69933,1.92721 1.3543,-0.47532 c 1.99074,-0.69868 5.22695,-2.22077 5.77364,-2.71552 0.26827,-0.24277 0.47546,-0.79808 0.47546,-1.27431 0,-1.52767 1.14464,-2.02005 5.55625,-2.39009 1.23693,-0.10376 2.54662,-0.30141 2.91042,-0.43924 0.59449,-0.22521 0.61458,-0.27682 0.19843,-0.50971 -0.76425,-0.42771 -0.5311,-0.6855 0.75062,-0.82997 1.81717,-0.20482 2.18763,-0.84313 0.77602,-1.33708 -0.342,-0.11967 0.45105,-1.85173 1.72884,-3.7759 l 1.01682,-1.53118 0.70964,1.63627 c 0.5678,1.30925 0.82844,1.63628 1.30411,1.63628 0.98384,0 1.23912,-0.57802 1.03848,-2.35142 -0.17506,-1.54729 -0.15843,-1.60872 0.51882,-1.91729 0.68497,-0.3121 1.29468,-0.25368 4.91977,0.47133 0.71657,0.14332 0.79678,0.0926 0.79678,-0.50433 0,-0.47816 0.16641,-0.6955 0.59533,-0.77749 0.95453,-0.18247 2.26527,0.27208 2.4484,0.84908 0.23629,0.7445 0.53208,0.65854 1.37676,-0.40008 0.88354,-1.10732 1.11381,-1.13299 2.17254,-0.24213 1.39765,1.17605 1.38898,0.58665 -0.0228,-1.55011 l -1.35897,-2.05682 0.56938,-0.60607 c 0.74952,-0.79783 0.72924,-0.9151 -0.34937,-2.0197 l -0.91875,-0.94088 1.04629,-4.0704 c 1.05924,-4.12083 1.56075,-5.31494 2.23221,-5.31494 0.20376,0 0.72422,-0.29766 1.15657,-0.66146 0.43236,-0.3638 0.97727,-0.66146 1.21093,-0.66146 0.66801,0 0.49611,-0.45391 -0.24206,-0.63918 -0.78207,-0.19628 -1.58826,0.17376 -1.9822,0.90983 -0.15397,0.28771 -0.39482,0.5231 -0.53522,0.5231 -0.48258,0 -0.25463,-1.08304 0.35659,-1.69425 0.68414,-0.68414 3.23489,-1.72832 4.73712,-1.93919 l 0.98338,-0.13803 -0.25264,0.88087 c -0.13894,0.48448 -0.51982,1.52552 -0.84639,2.31342 l -0.59375,1.43255 1.05364,0.9098 1.05364,0.90979 -0.77433,0.58075 c -3.9512,2.9634 -4.65024,3.98419 -4.64863,6.78838 0.002,2.69423 0.80338,3.71057 3.23955,4.10615 0.9246,0.15014 0.98715,0.2183 0.92604,1.00904 -0.0576,0.74589 0.0213,0.85802 0.65514,0.93107 0.39637,0.0457 1.87356,-0.23103 3.28264,-0.61491 l 2.56197,-0.69796 2.4511,2.44091 2.45109,2.4409 0.48602,-1.03225 c 0.62159,-1.32018 1.82474,-1.97615 6.98867,-3.81032 l 3.96997,-1.41007 1.24393,1.20275 c 1.52226,1.47187 1.77486,1.56023 3.04084,1.06367 1.19919,-0.47036 1.51749,-0.27621 0.82525,0.50339 -0.49927,0.56228 -0.49898,0.56585 0.0237,0.2905 0.90785,-0.47829 1.77206,-1.5788 1.95763,-2.4929 0.17355,-0.85488 0.21814,-0.88055 1.75373,-1.00947 1.21643,-0.10214 1.59539,-0.23628 1.6622,-0.58841 0.0476,-0.25086 -0.10019,-1.71298 -0.3284,-3.24915 -0.62465,-4.20455 -0.55516,-5.65201 0.37906,-7.89612 0.89097,-2.14021 1.98783,-3.5034 3.02923,-3.76477 0.60501,-0.15185 0.94259,0.0599 2.51314,1.5761 0.99784,0.96333 1.89319,1.75151 1.98966,1.75151 1.21218,0 2.04796,-2.05051 1.93938,-4.75805 l -0.079,-1.96878 -0.88441,-0.18005 c -1.21445,-0.24725 -1.32701,-0.40849 -1.93099,-2.76616 l -0.53022,-2.06973 0.61448,-0.47378 c 0.33796,-0.26057 1.50744,-0.862 2.59885,-1.33651 1.87089,-0.8134 2.19323,-0.86779 5.63664,-0.95113 3.46546,-0.0839 3.66351,-0.1178 3.87224,-0.66345 0.35667,-0.93243 1.07805,-1.39018 3.3868,-2.14906 1.19903,-0.39412 2.23749,-0.80951 2.30769,-0.9231 0.0702,-0.11358 -0.64409,-0.4154 -1.5873,-0.67071 -1.81694,-0.49182 -3.03275,-1.24823 -3.03275,-1.88678 0,-0.21229 -0.16675,-0.44997 -0.37055,-0.52817 -0.39723,-0.15244 -3.86068,1.15107 -10.53086,3.96339 -2.28499,0.96341 -4.27701,1.75166 -4.42671,1.75166 -0.17037,0 -0.21113,-0.44536 -0.10898,-1.19063 0.16284,-1.18806 0.16144,-1.19062 -0.6493,-1.19062 -1.05207,0 -2.15258,-0.42432 -2.88856,-1.11372 -0.55242,-0.51747 -0.58401,-0.75036 -0.54489,-4.01728 0.0356,-2.97398 -0.056,-3.83604 -0.64328,-6.05207 l -0.68482,-2.5841 4.77231,-6.14715 c 2.62477,-3.38093 4.88034,-6.28511 5.01238,-6.45374 0.35838,-0.45767 -1.85581,-4.01875 -2.80504,-4.51136 -1.12229,-0.58241 -3.27816,-0.33041 -3.91641,0.45779 -0.27486,0.33944 -0.80242,0.61445 -1.20744,0.62942 -0.61671,0.0228 -0.73145,0.15348 -0.80444,0.91621 -0.0598,0.62511 -0.24266,0.93083 -0.61496,1.02819 -0.38138,0.0997 -0.49259,0.29526 -0.39692,0.69787 0.77176,3.24774 0.78795,3.83559 0.13961,5.06939 -1.1313,2.15287 -5.28172,6.43487 -7.22303,7.45203 -0.63241,0.33135 -0.79821,0.32646 -1.35757,-0.04 -0.77032,-0.50473 -0.63796,-0.96857 -1.56222,5.47471 -0.94037,6.55551 -0.95981,6.34338 0.6899,7.52857 1.24219,0.89242 3.39886,3.69137 3.39886,4.41106 0,0.15537 -0.50601,0.73892 -1.12448,1.29678 -0.61846,0.55785 -0.99253,1.07141 -0.83127,1.14123 0.16127,0.0698 0.50993,0.28543 0.77481,0.47911 0.45729,0.33438 0.44644,0.38732 -0.21503,1.04879 -0.49048,0.49048 -0.97425,0.69664 -1.63471,0.69664 -0.57632,0 -1.13644,0.19837 -1.45248,0.51441 -0.28292,0.28293 -0.94099,0.59444 -1.46237,0.69225 -0.52139,0.0978 -1.04937,0.37234 -1.1733,0.61007 -0.12392,0.23773 -0.28706,2.03957 -0.36251,4.0041 -0.12689,3.30362 -0.21835,3.80831 -1.21783,6.71995 -0.59435,1.73143 -1.11994,3.18736 -1.16796,3.23538 -0.048,0.048 -0.77955,-0.0254 -1.6256,-0.16303 -1.00951,-0.16431 -1.70947,-0.15874 -2.03633,0.0162 -0.27392,0.1466 -0.85432,1.05229 -1.28977,2.01265 l -0.79172,1.7461 -1.59689,-0.1448 c -0.87829,-0.0796 -1.8861,-0.3343 -2.23958,-0.56591 -0.35348,-0.23161 -0.81162,-0.42111 -1.01809,-0.42111 -0.54713,0 -2.24847,1.98038 -2.43777,2.8376 -0.0892,0.40385 -0.1978,0.85334 -0.24137,0.99886 -0.0917,0.3061 -1.16724,-1.99961 -1.89151,-4.05477 -0.48867,-1.38661 -0.48839,-1.4149 0.0171,-1.78594 0.7383,-0.54195 1.74041,-0.46451 2.43518,0.18819 l 0.60162,0.5652 0.3178,-0.69749 c 0.38911,-0.854 0.64007,-0.88268 0.89392,-0.10217 0.1533,0.47135 0.23704,0.30042 0.40214,-0.82084 0.11468,-0.77888 0.40437,-1.92899 0.64374,-2.5558 0.43124,-1.12916 0.42661,-1.16544 -0.50356,-3.94561 -0.57455,-1.71725 -0.9388,-3.31773 -0.9388,-4.12493 0,-0.72544 -0.11907,-1.31897 -0.26459,-1.31897 -0.14552,0 -0.26458,-0.26021 -0.26458,-0.57826 0,-0.31804 -0.26789,-0.86334 -0.59531,-1.21178 -0.54395,-0.57885 -0.60673,-0.95703 -0.72761,-4.38267 l -0.13229,-3.74916 -0.61514,1.58429 c -0.82106,2.1146 -0.96814,2.25217 -2.40798,2.25217 -1.19894,0 -1.30466,0.0676 -3.30703,2.1131 -2.30373,2.35341 -3.28507,2.82361 -4.95474,2.37402 -1.56668,-0.42187 -4.23377,-3.83952 -3.82586,-4.90252 0.0916,-0.23879 0.52668,-0.37835 1.17943,-0.37835 0.56883,0 1.16685,-0.15979 1.32892,-0.35508 0.34955,-0.42117 0.13352,-0.70326 -0.53857,-0.70326 -0.5896,0 -0.62214,-0.48031 -0.0845,-1.24785 0.38752,-0.55327 0.36817,-0.57453 -0.59532,-0.65419 -1.56166,-0.12911 -1.32668,-0.87252 0.77564,-2.45394 0.97432,-0.73291 1.778,-1.41657 1.78594,-1.51926 0.008,-0.10268 -0.47677,-0.0134 -1.07715,0.19844 -1.40303,0.49502 -1.37368,0.50202 -1.22196,-0.29168 0.0967,-0.50584 0.0351,-0.64064 -0.24375,-0.53362 -0.63043,0.24192 -0.71968,-0.6383 -0.1437,-1.41734 0.49842,-0.67416 0.50911,-0.77365 0.12451,-1.15825 -0.36063,-0.36063 -0.36847,-0.48375 -0.0548,-0.86164 0.78391,-0.94456 1.59218,-3.819 1.07387,-3.819 -0.16204,0 -0.29461,-0.24005 -0.29461,-0.53345 0,-0.35226 0.32446,-0.68817 0.95525,-0.98897 0.88566,-0.42235 0.91119,-0.46594 0.35035,-0.59833 -0.3327,-0.0785 -0.65178,-0.2834 -0.70906,-0.45524 -0.0732,-0.21962 0.54978,-0.33535 2.09705,-0.38958 2.15891,-0.0757 2.2007,-0.0898 2.17545,-0.7386 -0.0142,-0.3638 -0.11619,-0.86981 -0.22674,-1.12448 -0.18315,-0.42188 0.0141,-0.46302 2.22058,-0.46302 2.21829,0 2.47611,-0.0545 3.07102,-0.64943 0.35718,-0.35719 0.64943,-0.9525 0.64943,-1.32292 0,-0.79569 0.84714,-1.73181 1.5672,-1.73181 0.27988,0 0.86261,0.29765 1.29496,0.66145 1.54024,1.29603 3.36619,0.59066 4.1082,-1.587 0.22322,-0.65512 0.35952,-1.19112 0.30288,-1.19112 -0.0566,0 -0.63221,0.35719 -1.27908,0.79375 -1.27989,0.86379 -2.81916,1.0809 -2.81916,0.39764 0,-0.46945 1.61092,-2.30655 2.7069,-3.08696 0.57209,-0.40736 0.8508,-0.47339 1.07057,-0.25363 0.16341,0.16341 0.57096,0.29712 0.90565,0.29712 0.52249,0 0.60855,-0.13491 0.60855,-0.954 0,-1.09499 0.90736,-2.35422 2.21465,-3.07345 0.79992,-0.4401 0.80783,-0.46137 0.23274,-0.62617 -0.32742,-0.0938 -0.59419,-0.24601 -0.59283,-0.33818 0.007,-0.44678 1.67016,-2.99544 2.54851,-3.90452 0.545,-0.56406 0.95993,-1.18628 0.92208,-1.38272 -0.0378,-0.19644 0.23678,-0.81896 0.6103,-1.38339 0.37352,-0.56442 0.67913,-1.26691 0.67913,-1.56107 0,-0.43673 0.17305,-0.53484 0.94343,-0.53484 1.01416,0 1.96699,-0.38901 1.96699,-0.80305 0,-0.14041 -0.18733,-0.25528 -0.41628,-0.25528 -0.80504,0 -0.24232,-0.87438 0.79327,-1.23261 0.57115,-0.19757 1.08919,-0.40996 1.1512,-0.47197 0.062,-0.062 -0.21107,-0.53729 -0.60684,-1.05617 l -0.71958,-0.94342 h 0.69286 c 0.69966,0 0.95686,-0.39707 0.38144,-0.58887 -0.45942,-0.15315 -0.003,-0.73404 0.57662,-0.73404 0.2742,0 0.66481,0.23737 0.86801,0.52748 0.46881,0.66932 0.71888,0.42219 0.71888,-0.71042 0,-0.70427 0.13715,-0.94064 0.66146,-1.13998 0.3638,-0.13832 0.66146,-0.425 0.66146,-0.63708 0,-0.21208 0.22124,-0.45581 0.49165,-0.54164 0.45722,-0.14511 0.8068,-0.78642 1.64156,-3.01136 0.33384,-0.88982 0.42133,-0.91586 1.82258,-0.54244 0.29275,0.078 0.36702,-0.12696 0.31276,-0.86316 -0.0745,-1.01088 0.37983,-1.62415 0.6608,-0.89196 0.14818,0.38616 0.20873,0.38378 0.66152,-0.026 0.4808,-0.43512 0.49244,-0.41916 0.32922,0.4516 l -0.1692,0.90265 1.38154,-1.38906 c 0.75985,-0.76398 1.61815,-1.38906 1.90733,-1.38906 0.44434,0 0.51282,-0.15041 0.44212,-0.97106 -0.10905,-1.26567 0.32104,-1.39169 1.63706,-0.47968 0.5707,0.39549 1.21248,0.65198 1.42619,0.56997 0.21371,-0.082 0.63046,-0.95918 0.92611,-1.94927 0.59848,-2.00421 1.18033,-2.9908 1.76385,-2.9908 0.46083,0 0.90449,1.04669 0.90449,2.13389 0,1.03677 0.29975,0.97907 0.92266,-0.1776 l 0.51383,-0.95412 0.22984,0.68954 c 0.12642,0.37924 0.33624,0.68954 0.46628,0.68954 0.33239,0 0.94499,-1.04315 1.16447,-1.9829 0.24028,-1.02876 0.61138,-1.45669 1.26326,-1.45669 0.42858,0 0.50351,0.13566 0.4019,0.72761 -0.0687,0.40018 -0.22499,0.96573 -0.34733,1.25677 -0.18206,0.43315 -0.0601,0.39289 0.6722,-0.22188 0.98832,-0.8297 1.56972,-0.8272 3.36126,0.0145 2.03843,0.95768 0.99994,2.72089 -1.60256,2.72089 h -1.34949 l 1.08745,1.08745 c 1.06943,1.06943 1.10311,1.08177 2.03355,0.74532 0.74082,-0.26788 1.09576,-0.27394 1.63577,-0.0279 0.76375,0.34799 1.2877,0.16719 2.09244,-0.72204 0.53047,-0.58616 1.3366,-0.73094 1.60968,-0.28909 0.0899,0.14552 -0.0258,0.26458 -0.25728,0.26458 -0.55018,0 -0.80953,0.70221 -0.42879,1.16098 0.16455,0.19827 0.77774,0.43702 1.36265,0.53055 0.5849,0.0935 1.13314,0.35165 1.21831,0.5736 0.13609,0.35463 0.21471,0.3494 0.64847,-0.0432 1.22666,-1.11012 7.51917,0.42232 12.6279,3.07532 2.81123,1.45989 5.86311,3.74387 5.86311,4.38786 0,0.82606 -2.94251,6.18982 -3.39607,6.19053 -0.24222,2.7e-4 -3.56404,-0.31068 -7.38184,-0.69125 -8.45677,-0.84298 -8.8511,-0.77889 -6.41176,1.04225 1.07596,0.80328 1.3169,1.12521 1.25677,1.67923 -0.0667,0.6143 0.0766,0.73702 1.38082,1.18257 1.71631,0.58634 2.11666,1.03714 2.11666,2.38341 0,2.68904 1.97245,5.40237 4.90232,6.74371 1.50671,0.6898 4.50179,1.36223 4.78886,1.07516 0.35018,-0.35018 0.16207,-2.32354 -0.26665,-2.79727 -0.24047,-0.26572 -0.89742,-0.621 -1.4599,-0.78953 -1.15229,-0.34523 -1.50275,-0.67543 -1.72828,-1.62836 -0.28007,-1.18337 0.0951,-1.38476 1.99058,-1.06861 1.87085,0.31204 6.93884,0.79489 7.06899,0.67349 0.0453,-0.0423 -0.5473,-0.93985 -1.3169,-1.99465 -1.07873,-1.47847 -1.39884,-2.13642 -1.39737,-2.87213 0.002,-0.92936 1.07681,-3.52936 2.38383,-5.76583 l 0.64715,-1.10732 2.22743,0.75292 c 1.22509,0.4141 2.2855,0.69485 2.35647,0.62389 0.14996,-0.14997 -0.98215,-3.54137 -2.1746,-6.51432 -1.27153,-3.17011 -2.32206,-5.10677 -3.1036,-5.72153 -0.39139,-0.30787 -0.64587,-0.62549 -0.56553,-0.70584 0.20856,-0.20856 4.95614,0.3514 5.96697,0.70378 1.16954,0.4077 1.10608,1.19098 -0.23385,2.88612 -1.21954,1.54283 -1.25905,1.43231 1.00219,2.80394 l 1.11208,0.67456 1.13688,-0.50404 c 1.60301,-0.71069 1.92553,-1.16745 1.56158,-2.21149 -0.51953,-1.49032 -0.37797,-2.28945 0.48458,-2.73549 1.07661,-0.55675 1.22574,-0.91169 0.57462,-1.36774 -0.77118,-0.54016 -0.71174,-0.85631 0.49542,-2.63495 1.98905,-2.93067 2.90691,-3.87072 3.60764,-3.69484 0.5332,0.13382 0.63076,0.0602 0.63076,-0.4758 0,-0.34875 0.17858,-0.78231 0.39685,-0.96345 0.33421,-0.27737 0.46005,-0.17809 0.7973,0.62906 0.25413,0.60823 0.578,0.95841 0.88637,0.95841 0.79773,0 2.59526,-1.47053 2.80134,-2.29173 0.10365,-0.41304 0.88944,-1.48099 1.7462,-2.37324 1.19253,-1.24193 1.59722,-1.86919 1.72615,-2.67549 0.27486,-1.71889 0.40207,-1.78568 1.92816,-1.01235 l 1.3593,0.68881 0.002,-0.73206 c 0.001,-0.40263 0.2323,-1.08182 0.5141,-1.50931 0.28179,-0.42748 0.45118,-0.87623 0.3764,-0.99721 -0.0748,-0.12099 -0.72069,-0.51629 -1.43538,-0.87845 -2.10698,-1.06769 -2.65951,-2.57684 -1.22489,-3.3456 1.1767,-0.63055 6.42729,-1.79521 8.11802,-1.8007 2.05231,-0.007 4.02986,0.84066 6.40808,2.74566 2.26546,1.81467 2.45955,2.31263 2.4338,6.24417 -0.0239,3.64621 -0.67135,7.93992 -1.97668,13.10844 l -0.7925,3.13796 1.21856,1.73253 c 0.67021,0.95289 2.26087,3.20223 3.53481,4.99852 2.53898,3.58006 2.63034,3.74606 6.06539,11.02151 3.95198,8.3703 5.13978,12.05337 5.46104,16.93334 0.10538,1.60072 0.35364,3.30165 0.55169,3.77983 0.42242,1.0199 1.67271,1.64412 3.29309,1.64412 0.79268,0 1.25113,0.17227 1.72829,0.64944 1.23772,1.23772 0.67851,3.30098 -1.65262,6.09744 -2.36531,2.83747 -2.39579,3.23534 -0.3505,4.57431 1.90572,1.24759 3.59269,1.90798 4.87394,1.90798 1.31735,0 1.91371,-0.53813 3.446757,-3.11025 1.096971,-1.84048 1.740016,-2.34173 2.489549,-1.94059 0.883508,0.47284 1.147231,1.04157 1.386253,2.9895 0.130188,1.06097 0.425037,2.42952 0.655219,3.0412 0.484587,1.28773 1.806433,2.55107 3.073451,2.93741 0.485423,0.14802 1.573612,0.47659 2.418196,0.73017 1.14768,0.34458 1.629026,0.6417 1.905407,1.17616 0.312592,0.60449 0.596361,0.74174 1.834343,0.88724 0.805503,0.0947 2.009643,0.05 2.675869,-0.0993 0.666226,-0.1493 1.32434,-0.20161 1.462474,-0.11624 0.366651,0.2266 1.301924,2.13985 1.301924,2.66329 0,0.65462 -1.952056,2.40491 -2.91901,2.61729 -0.599879,0.13176 -0.905775,0.39745 -1.10041,0.95578 -0.337328,0.96766 -0.832818,1.23502 -2.694202,1.45379 -1.227941,0.14432 -1.505653,0.10056 -1.643631,-0.259 -0.240231,-0.62604 -1.106326,-0.53139 -1.997236,0.21827 -0.425474,0.35801 -1.216568,0.71844 -1.757987,0.80096 -1.330187,0.20272 -7.280886,2.18097 -8.921896,2.96598 -1.85373,0.88677 -5.703,3.68687 -8.16811,5.94178 l -2.08269,1.9051 0.14186,1.37449 c 0.21031,2.0377 1.04387,3.41212 3.76295,6.20451 2.61429,2.68476 3.09417,3.41267 3.59304,5.45013 0.3984,1.62712 1.06693,2.97416 2.23647,4.50634 1.14275,1.49708 1.18323,2.32579 0.13999,2.86528 -0.99988,0.51705 -4.21267,4.04626 -4.98132,5.47191 -0.38022,0.70521 -0.59532,1.56087 -0.59532,2.36823 0,2.01202 -0.30452,2.47454 -2.33,3.5389 -1.19035,0.62551 -1.94398,1.21026 -2.15407,1.67137 -0.17774,0.39009 -0.47147,1.93033 -0.65273,3.42276 l -0.32957,2.71352 2.15355,2.10203 c 1.18445,1.15611 2.46786,2.18091 2.85202,2.27733 0.56984,0.14302 0.82915,0.5173 1.40811,2.03243 0.9085,2.37752 1.57083,3.10842 5.55694,6.13219 2.815791,2.13599 3.192298,2.50656 2.684885,2.64257 -0.324596,0.087 -8.793035,0.15983 -18.818765,0.16181 l -18.22869,0.004 -7.436,-2.67171 c -4.08979,-1.46943 -7.53897,-2.76899 -7.66483,-2.8879 -0.12587,-0.11891 0.2516,-0.51948 0.83881,-0.89017 0.5872,-0.37069 1.36468,-1.06543 1.72772,-1.54387 0.80214,-1.05712 1.86437,-4.23582 1.64572,-4.92475 -0.0871,-0.27442 -0.58402,-0.80181 -1.10427,-1.17197 l -0.94589,-0.67302 0.88546,-0.19079 c 0.487,-0.10494 1.19812,-0.35048 1.58026,-0.54564 1.04726,-0.53484 2.09802,-3.55018 1.23715,-3.55018 -0.92224,0 -9.71029,5.58269 -11.75511,7.46753 -0.62346,0.57469 -1.25359,0.97071 -1.40029,0.88004 -0.27518,-0.17007 -2.11978,2.13636 -2.13145,2.66509 -0.0132,0.59806 2.31799,2.44648 3.32332,2.63508 0.86508,0.16229 2.56581,-0.10184 4.07845,-0.63341 0.73287,-0.25754 -0.5775,1.00636 -3.30019,3.18317 -2.56634,2.0518 -4.74491,3.38167 -5.5398,3.38167 -0.70116,0 -1.66444,-1.15881 -2.28489,-2.74868 -0.3706,-0.94964 -0.79686,-1.60743 -1.09158,-1.68451 -0.26595,-0.0695 -0.48354,-0.18951 -0.48354,-0.26658 0,-0.0771 0.53578,-0.71294 1.19063,-1.41302 1.21958,-1.30383 1.36523,-1.66812 0.93738,-2.34458 -0.18992,-0.30028 -0.77004,-0.37453 -2.57563,-0.32965 -1.28178,0.0319 -2.64659,0.12395 -3.03292,0.20463 -0.97227,0.20307 -1.12659,-0.2186 -0.34776,-0.95027 0.85395,-0.80225 0.8244,-1.18019 -0.12297,-1.5726 -1.00228,-0.41516 -2.06086,-0.17094 -3.55825,0.82089 -0.91764,0.60782 -1.38734,1.19093 -1.99462,2.47624 -0.87687,1.85591 -2.24421,3.5748 -2.84367,3.5748 -0.30707,0 -0.37919,0.39515 -0.35011,1.91823 0.0591,3.09355 0.063,3.0768 -0.86197,3.64243 -0.47295,0.28919 -1.00492,0.47123 -1.18215,0.40454 -0.49417,-0.18594 -0.58316,0.1244 -0.88095,3.07206 -0.37639,3.72559 -0.55623,4.28223 -2.25964,6.99392 -0.81446,1.29655 -1.52047,2.4209 -1.56893,2.49857 -0.0485,0.0777 1.08986,1.44688 2.52958,3.0427 2.63767,2.92367 3.69742,4.44031 3.34729,4.79043 -0.10451,0.10451 -1.11132,0.26209 -2.23735,0.35018 -2.41339,0.18879 -2.65998,0.3101 -4.55183,2.2393 -1.428,1.45618 -2.05934,1.84373 -1.76838,1.0855 0.0821,-0.21407 -0.0195,-0.55802 -0.22576,-0.76433 -0.39472,-0.39472 -4.40608,-1.22916 -5.90445,-1.22824 -0.83016,5.3e-4 -6.13042,1.23232 -6.38111,1.483 -0.0645,0.0645 0.4709,0.72381 1.18973,1.46519 l 1.30697,1.34795 -1.02656,-0.18186 c -0.99424,-0.17614 -1.02246,-0.16046 -0.89658,0.49803 0.0715,0.37394 0.0811,0.6799 0.0214,0.6799 -0.0597,0 -0.78732,-0.4755 -1.61696,-1.05666 -0.82963,-0.58116 -1.89538,-1.13183 -2.36832,-1.2237 -0.78947,-0.15336 -0.8599,-0.11164 -0.8599,0.50941 0,0.37205 0.53579,1.77728 1.19063,3.12273 1.24951,2.56725 1.43011,3.22143 0.82528,2.98933 -0.23653,-0.0908 -0.47091,0.16264 -0.66476,0.71873 -0.16469,0.47241 -0.48875,1.06812 -0.72015,1.32381 -0.23139,0.25569 -0.37723,0.59535 -0.32408,0.75481 0.0532,0.15945 1.21609,0.91048 2.58431,1.66895 2.5649,1.42186 3.65602,2.46779 3.36514,3.22578 -0.14491,0.37763 -0.2793,0.34651 -1.05339,-0.24392 -0.97291,-0.74207 -1.90734,-0.85195 -2.62329,-0.30846 -0.64568,0.49015 -0.58539,0.79682 0.37081,1.88587 l 0.83383,0.94967 -1.363,-0.1808 c -1.31017,-0.1738 -1.36287,-0.15642 -1.35985,0.44859 0.002,0.34617 0.17891,1.28424 0.39373,2.08461 0.54757,2.04003 0.52586,2.23701 -0.19116,1.73479 -0.83963,-0.5881 -1.18593,-0.5134 -1.46373,0.31573 l -0.24378,0.7276 -0.8924,-1.26367 z m 23.28411,-132.92701 c 1.90511,-2.73047 1.95507,-2.53536 -1.32881,-5.18916 -3.12711,-2.52711 -3.42063,-2.5536 -4.88477,-0.44084 -0.59658,0.86086 -0.6831,1.1679 -0.46431,1.64769 0.25943,0.5689 4.7896,6.2782 4.98158,6.2782 0.0519,0 0.81527,-1.03315 1.69631,-2.29589 z m -60.00492,130.22247 c -1.79518,-0.94424 -3.64065,-1.97487 -4.10104,-2.2903 -2.14257,-1.46793 -2.83254,-2.59834 -1.82926,-2.99697 0.5892,-0.2341 12.49917,-0.75698 12.69865,-0.5575 0.25861,0.25861 -2.73487,7.42811 -3.13007,7.49665 -0.20587,0.0357 -1.8431,-0.70764 -3.63828,-1.65188 z m 28.64972,-5.18297 c -0.0978,-0.1582 -0.0403,-0.42509 0.12769,-0.5931 0.2309,-0.23089 0.36638,-0.20912 0.55498,0.0892 0.13723,0.21707 0.25134,0.48396 0.25357,0.5931 0.006,0.30561 -0.73594,0.2349 -0.93624,-0.0892 z m 14.03716,-1.43228 c -2.73703,-1.71338 -3.17472,-2.08576 -2.92551,-2.489 0.43812,-0.70889 4.44508,1.20217 5.0751,2.42049 0.83681,1.61822 0.35075,1.63371 -2.14959,0.0685 z m -66.14169,-10.91393 c 0.10567,-2.29196 0.32657,-4.58391 0.49088,-5.09323 0.35382,-1.09681 1.63565,-1.85105 3.14689,-1.85168 0.83005,-2.6e-4 1.07906,0.13605 1.49395,0.81828 1.24523,2.04762 1.29269,3.38596 0.28626,8.07233 l -0.29001,1.3504 -2.2167,0.43554 c -3.44407,0.6767 -3.13292,1.07553 -2.91127,-3.73164 z m -23.58161,-3.33175 c -0.90887,-0.78177 -0.70934,-1.40876 0.52181,-1.63972 1.92091,-0.36037 2.69157,0.63551 1.32415,1.71112 -0.87512,0.68837 -0.9668,0.68482 -1.84596,-0.0714 z m 27.29944,-5.91089 c -0.10161,-0.26444 -0.25244,-1.43862 -0.33518,-2.60928 l -0.15043,-2.12848 1.32097,-1.10598 c 0.72654,-0.60829 1.39734,-1.02962 1.49068,-0.93628 0.0933,0.0933 0.1697,1.15063 0.1697,2.34953 0,2.11233 -0.0294,2.21542 -0.95069,3.32934 -1.35668,1.6404 -1.34189,1.62986 -1.54505,1.10115 z m -23.8303,-58.03155 c -0.87313,-0.11902 -3.54322,-0.70262 -5.93354,-1.29689 -2.39032,-0.59426 -4.54246,-1.08048 -4.78253,-1.08048 -0.24006,0 -0.71611,0.29765 -1.05789,0.66145 -0.48675,0.51812 -0.88375,0.66173 -1.83206,0.66269 -1.28932,10e-4 -5.58035,-0.8058 -5.57026,-1.04772 0.003,-0.0793 1.2777,-0.9478 2.83198,-1.93007 3.04757,-1.92598 3.80025,-2.1148 5.53719,-1.38906 0.52243,0.21828 1.21343,0.39687 1.53558,0.39687 0.56946,0 3.18038,-1.81372 2.94695,-2.04715 -0.0642,-0.0642 -0.76129,0.0276 -1.54918,0.20393 -1.14121,0.25539 -1.56238,0.25231 -2.07105,-0.0151 -1.0969,-0.57674 -4.76266,-3.78166 -4.5474,-3.97572 0.11259,-0.1015 1.25186,-0.57459 2.5317,-1.0513 2.39706,-0.89285 2.73651,-1.1901 2.88051,-2.5224 0.0786,-0.72748 0.015,-0.78737 -0.96824,-0.91096 l -1.0524,-0.13229 1.24355,-0.65714 1.24355,-0.65713 2.17666,0.45008 c 2.22314,0.4597 2.67333,0.43439 2.11976,-0.11918 -0.48467,-0.48468 -0.37151,-1.29862 0.34147,-2.45622 0.75071,-1.21885 0.83177,-1.71979 0.27828,-1.71979 -0.51359,0 -1.23726,-1.42254 -1.0346,-2.03376 0.0875,-0.26388 0.70149,-0.97017 1.36444,-1.56954 l 1.20536,-1.08976 -1.69704,-0.28037 c -0.93337,-0.1542 -2.31104,-0.35807 -3.06148,-0.45304 l -1.36445,-0.17266 0.23932,-0.83445 c 0.35613,-1.24175 1.4681,-3.41838 2.08416,-4.07964 0.3033,-0.32555 0.71524,-0.51455 0.93647,-0.42965 0.50279,0.19294 0.51781,-0.42968 0.0266,-1.10147 -0.35464,-0.48501 -0.42377,-0.46704 -1.85208,0.4813 -0.81602,0.54181 -1.48369,0.91832 -1.48369,0.83669 0,-0.0816 0.71438,-1.07004 1.5875,-2.19644 0.87313,-1.12641 1.5875,-2.25754 1.5875,-2.51361 0,-0.28026 -0.36143,-0.61662 -0.90794,-0.84497 -1.31602,-0.54986 -1.3547,-0.83132 -0.19553,-1.42268 0.93897,-0.47903 1.04771,-0.6457 1.20759,-1.85095 0.20538,-1.54826 0.69352,-2.14083 1.76354,-2.14083 0.69097,0 0.87021,-0.19595 1.71667,-1.87681 0.88675,-1.76086 0.98912,-1.86608 1.65697,-1.70318 1.17518,0.28665 3.48995,1.41487 3.48995,1.70101 0,0.14683 -0.94667,1.01662 -2.10373,1.93287 -2.87288,2.27497 -2.93088,2.54439 -0.67439,3.1325 0.58208,0.1517 1.86312,0.51263 2.84674,0.80204 l 1.7884,0.52621 -0.4324,0.83619 c -0.78255,1.51328 -3.00529,3.62248 -4.17613,3.96281 -0.91724,0.2666 -2.27557,1.271 -2.27557,1.68263 0,0.0666 0.59722,0.48858 1.32715,0.93771 0.72993,0.44913 1.43775,1.02328 1.57295,1.27589 0.13519,0.2526 0.4353,1.93786 0.66691,3.74501 0.50356,3.92903 0.73675,4.71902 1.9189,6.50073 1.19403,1.79961 1.13841,2.83152 -0.15931,2.95566 l -0.8911,0.0852 0.73243,0.76449 0.73243,0.76449 -0.40717,1.4313 c -0.22394,0.78721 -0.33113,1.54787 -0.2382,1.69035 0.25907,0.39719 1.12449,0.77923 2.20803,0.97474 1.15453,0.20832 2.06198,1.2157 2.06198,2.28906 0,1.2247 -2.08725,3.56409 -4.36134,4.8882 -0.41521,0.24176 -0.34368,0.35607 0.62323,0.99594 1.78186,1.17918 1.35047,1.82011 -1.42126,2.11163 -0.72761,0.0765 -2.0373,0.0418 -2.91042,-0.0773 z m 48.68333,-10.31487 c -0.21577,-0.34913 0.1006,-0.84457 0.41516,-0.65016 0.32136,0.19861 0.31928,0.91474 -0.003,0.91474 -0.13694,0 -0.32256,-0.11906 -0.41249,-0.26458 z m -75.35032,-4.49545 c -1.79339,-0.23338 -1.90801,-0.31678 -1.90801,-1.38833 0,-0.68475 -0.13893,-0.85796 -0.89372,-1.11425 l -0.89372,-0.30346 1.12991,-0.44385 c 0.90487,-0.35544 1.07015,-0.51584 0.82987,-0.80537 -0.43959,-0.52967 -0.10694,-0.70971 1.31135,-0.70971 1.267,0 1.90065,-0.34146 1.16063,-0.62543 -0.696,-0.26708 -0.42969,-0.64547 0.99115,-1.4083 0.76259,-0.40942 1.42385,-0.94075 1.46947,-1.18073 0.0513,-0.26962 -0.37743,-0.76697 -1.12193,-1.30163 -0.66268,-0.4759 -1.20488,-1.02977 -1.20488,-1.23081 0,-0.20103 0.43133,-0.54574 0.95852,-0.76602 0.93416,-0.39031 0.95515,-0.43041 0.82578,-1.57817 -0.073,-0.64773 -0.0574,-1.22425 0.0347,-1.28116 0.0921,-0.0569 0.82182,0.16273 1.62162,0.4881 2.54959,1.03721 2.79169,1.04713 3.76163,0.15425 l 0.86756,-0.79864 -0.62647,-0.52889 c -0.73021,-0.61647 -0.5152,-1.05655 0.77789,-1.59216 0.71449,-0.29595 0.86152,-0.26726 1.44644,0.28224 l 0.6511,0.61167 0.64799,-0.60876 c 0.94956,-0.89206 2.08587,-0.20651 1.17217,0.70719 -0.21895,0.21895 0.0118,0.34274 0.88227,0.47327 0.64832,0.0972 1.30146,0.2555 1.45142,0.35173 0.14996,0.0962 0.41453,0.99739 0.58794,2.00259 0.36534,2.11772 0.23116,2.37343 -1.60326,3.0553 -0.60479,0.2248 -1.31856,0.70639 -1.58614,1.07019 -0.26759,0.3638 -1.12098,2.4474 -1.89644,4.63021 l -1.40991,3.96875 -3.95167,0.0347 c -2.17341,0.0191 -4.64088,-0.055 -5.48324,-0.16456 z m 65.32827,-1.46336 c -0.55632,-0.55632 -0.54162,-0.98723 0.059,-1.72892 0.60212,-0.74358 1.27921,-0.54796 1.5275,0.44131 0.32203,1.28305 -0.73396,2.14011 -1.58646,1.28761 z m 25.94115,-9.56342 c -0.3951,-0.39509 -0.13049,-1.23313 0.62923,-1.99285 0.44309,-0.44309 0.86782,-0.74343 0.94383,-0.66742 0.12792,0.12792 -1.12582,2.83666 -1.31294,2.83666 -0.0461,0 -0.16311,-0.0794 -0.26012,-0.17639 z m 11.19414,-5.00021 c -0.14192,-0.37327 -0.25803,-0.77725 -0.25803,-0.89773 0,-0.34972 0.74182,-0.54076 2.07216,-0.53364 l 1.23513,0.007 -1.11423,1.05172 c -1.30645,1.23315 -1.58742,1.28732 -1.93503,0.37304 z m 0.97669,-3.46645 c -0.097,-0.097 -0.17639,-0.39467 -0.17639,-0.66146 0,-0.52901 0.89524,-0.66388 1.57049,-0.2366 0.31481,0.1992 0.32059,0.31178 0.0337,0.6574 -0.35478,0.42749 -1.1132,0.55531 -1.42785,0.24066 z m -85.31158,-1.19614 c 0.16353,-0.4906 0.73311,-0.57197 0.73311,-0.10473 0,0.23041 -0.18851,0.41892 -0.41892,0.41892 -0.23041,0 -0.3718,-0.14139 -0.31419,-0.31419 z m 1.41665,-5.14764 c -0.0918,-0.2391 -0.11241,-0.48915 -0.0459,-0.55565 0.21027,-0.21028 0.68529,0.21196 0.68529,0.60914 0,0.51899 -0.43362,0.48271 -0.63938,-0.0535 z m -0.41896,-3.67002 c 0,-0.19879 1.68477,-1.69918 1.91823,-1.70831 0.4133,-0.0162 0.17437,0.71636 -0.41392,1.26904 -0.54691,0.51379 -1.50431,0.79336 -1.50431,0.43927 z m -8.7913,-41.41783 c -3.50364,-0.36132 -3.92181,-0.6122 -5.23833,-3.14273 -0.70386,-1.35291 -1.5547,-2.53253 -2.29958,-3.1882 l -1.18234,-1.04074 0.75213,-0.16808 c 1.59898,-0.35733 1.67818,-0.41127 1.67818,-1.14291 0,-0.39808 -0.47197,-1.69974 -1.04882,-2.89259 -0.57685,-1.19285 -0.99017,-2.16882 -0.9185,-2.16882 0.0717,0 0.83791,0.35719 1.70273,0.79375 1.84989,0.93382 2.21262,0.98373 1.98717,0.2734 -0.12811,-0.40364 -0.0134,-0.55843 0.51134,-0.69014 0.37207,-0.0934 0.67649,-0.23175 0.67649,-0.30748 0,-0.0757 -0.42218,-0.60499 -0.93818,-1.17614 -1.54698,-1.71232 -1.92865,-3.05453 -0.64981,-2.28516 0.51565,0.31022 0.62599,0.28156 0.99162,-0.25761 l 0.41142,-0.60666 0.75393,0.72231 0.75394,0.72232 v -0.82764 c 0,-1.19612 0.47761,-1.31145 0.93159,-0.22495 0.53286,1.27534 0.48244,2.71155 -0.14365,4.09133 -0.28785,0.63436 -0.52336,1.19991 -0.52336,1.25677 0,0.36634 0.77094,-0.0622 1.99853,-1.11099 l 1.42147,-1.2144 0.31146,1.23693 c 0.36295,1.4414 0.69302,1.64483 1.76737,1.08927 0.9838,-0.50875 1.11069,-0.37928 0.82663,0.84344 -0.35347,1.52155 -0.29712,1.55768 0.5766,0.36961 0.44915,-0.61075 0.89563,-1.10714 0.99218,-1.1031 0.0966,0.004 0.64325,0.36124 1.21487,0.79375 1.15636,0.87495 1.77669,0.98149 2.26797,0.38952 0.47454,-0.57178 0.96884,-0.48846 1.1772,0.19844 0.0993,0.32742 0.24869,2.29195 0.33193,4.36562 l 0.15134,3.77031 h -0.69794 c -0.56635,0 -0.69794,0.12357 -0.69794,0.65536 0,0.76809 -0.85013,1.40934 -2.30913,1.74177 -1.6654,0.37945 -5.09914,0.4862 -7.54051,0.23444 z m 76.67599,-3.04838 c 0.31239,-1.30925 0.62527,-1.67426 0.63435,-0.74006 0.004,0.45512 -0.17804,0.98193 -0.40547,1.17068 -0.36389,0.30201 -0.39135,0.25034 -0.22888,-0.43062 z m -1.20127,-0.67527 c -0.005,-0.23684 0.17018,-0.57884 0.38846,-0.76 0.50867,-0.42216 0.51402,0.009 0.008,0.67703 -0.32635,0.43148 -0.3898,0.44474 -0.39687,0.083 z m 5.14874,-3.13696 c 0.42587,-0.82353 1.06973,-1.27393 1.37902,-0.96464 0.19541,0.19541 -0.64608,1.16925 -1.32375,1.53192 -0.45873,0.24551 -0.4614,0.21808 -0.0553,-0.56728 z m 60.87138,-9.85275 c -0.54228,-0.77421 -0.51981,-1.3367 0.0831,-2.0813 0.47941,-0.59205 0.5169,-0.59694 1.19063,-0.1555 0.44922,0.29434 0.69562,0.69409 0.69562,1.12854 0,1.59041 -1.17035,2.24902 -1.96937,1.10826 z m 3.0282,-14.36041 c -0.64241,-0.65457 -1.38111,-1.25776 -1.64156,-1.34042 -0.26045,-0.0827 -0.95632,0.12103 -1.54638,0.45266 -1.86794,1.04984 -2.38842,0.21785 -2.15903,-3.45117 0.12043,-1.92616 0.0761,-2.2677 -0.3332,-2.56698 -0.29322,-0.2144 -0.40699,-0.51491 -0.30025,-0.79306 0.0997,-0.25988 -0.0157,-0.65506 -0.27492,-0.94153 -0.4216,-0.46587 -0.41232,-0.53034 0.16482,-1.14468 0.68267,-0.72666 2.2022,-1.32263 2.79365,-1.09567 0.25365,0.0973 0.38795,0.53645 0.39177,1.2809 0.0137,2.67046 2.02872,4.8824 6.37724,7.00046 l 2.71744,1.3236 -2.26198,1.23301 c -1.24409,0.67815 -2.37394,1.233 -2.51078,1.233 -0.13684,0 -0.77441,-0.53556 -1.41682,-1.19012 z m 10.64899,0.0735 c -0.9853,-0.4752 -0.73318,-1 0.48041,-1 1.24538,0 2.09928,0.38046 2.09928,0.93535 0,0.46619 -1.66081,0.50781 -2.57969,0.0647 z m -16.4231,-12.04635 c 0.0835,-0.71406 0.0617,-0.72593 -1.17169,-0.63763 -1.10147,0.0789 -1.25677,0.0261 -1.25677,-0.42734 0,-0.28452 0.21753,-0.80126 0.48341,-1.14831 0.39615,-0.51708 0.46239,-0.97755 0.36694,-2.5507 -0.1129,-1.86069 -0.1481,-1.94475 -1.14488,-2.73421 -0.56561,-0.44798 -1.02839,-1.03309 -1.02839,-1.30026 0,-0.26717 0.3015,-1.77521 0.67,-3.3512 0.3685,-1.576 0.72466,-3.1202 0.79147,-3.43156 0.0668,-0.31136 0.84349,-1.36285 1.72598,-2.33664 1.82286,-2.01146 2.00182,-2.37762 2.25475,-4.61321 0.10032,-0.88669 0.26129,-1.61217 0.35772,-1.61217 0.0964,0 0.7001,0.53471 1.3415,1.18825 l 1.16618,1.18825 -1.28803,3.90498 c -1.22345,3.70921 -1.29067,4.06358 -1.34091,7.06854 -0.0486,2.90394 -0.0992,3.1943 -0.61682,3.53801 -0.66842,0.44381 -0.71904,0.91011 -0.15004,1.38234 0.26439,0.21942 0.35761,0.5677 0.25808,0.96425 -0.10531,0.41958 -0.0251,0.67091 0.24758,0.77554 0.52795,0.20259 0.51565,1.12307 -0.023,1.71823 -0.39379,0.43513 -0.38269,0.54173 0.14546,1.39629 l 0.5718,0.92519 -0.79378,0.41048 c -1.21842,0.63007 -1.66674,0.53932 -1.5666,-0.31712 z m -57.50793,-4.53512 c -0.48638,-0.56823 -1.16807,-1.53798 -1.51486,-2.15501 l -0.63052,-1.12187 0.99893,0.1874 c 0.81427,0.15276 0.9716,0.11621 0.85113,-0.19774 -0.0813,-0.21183 0.0275,-0.63544 0.2418,-0.94136 0.38259,-0.54622 0.36797,-0.55325 -0.81371,-0.39128 -1.10396,0.15131 -1.2033,0.11826 -1.2033,-0.40028 0,-0.40902 0.37462,-0.76625 1.35567,-1.29273 2.57929,-1.3842 3.31215,-2.44732 1.68704,-2.44732 -0.34663,0 -0.70382,-0.11907 -0.79375,-0.26459 -0.25495,-0.41251 -0.51258,-0.32507 -1.60857,0.54591 -0.91599,0.72794 -1.05197,0.7666 -1.335,0.37954 -0.31783,-0.43466 -1.15901,-4.51832 -1.15801,-5.6218 7.9e-4,-0.82946 1.04632,-0.79212 1.85262,0.0661 0.72258,0.76916 1.19774,0.83814 1.54154,0.22381 0.21647,-0.3868 0.29164,-0.36375 0.64718,0.19844 0.22124,0.34985 0.64746,1.11233 0.94716,1.69442 l 0.5449,1.05833 0.0117,-1.69465 c 0.011,-1.5904 0.0402,-1.6699 0.47472,-1.29231 0.25466,0.22129 0.79079,0.48022 1.1914,0.57541 1.08799,0.25851 2.62054,2.69785 2.78766,4.43707 0.0939,0.97767 0.0458,1.30682 -0.17137,1.17258 -0.16608,-0.10264 -0.30196,-0.41772 -0.30196,-0.70017 0,-0.58542 -0.10382,-0.61821 -0.79173,-0.25005 -0.5291,0.28316 -1.08256,1.61766 -2.53779,6.11913 -0.50838,1.57257 -1.02877,2.92378 -1.15643,3.00267 -0.12766,0.0789 -0.63005,-0.32146 -1.11644,-0.88969 z m 7.98364,-2.66034 c 0,-0.13758 -0.32743,-0.40985 -0.72761,-0.60504 -0.62074,-0.30277 -0.7225,-0.50676 -0.69286,-1.38887 0.0243,-0.72196 0.21275,-1.17811 0.62463,-1.51162 0.84521,-0.68442 1.02561,-0.61134 1.59671,0.64682 0.64237,1.41518 0.65238,2.11514 0.0382,2.67097 -0.54428,0.49257 -0.83906,0.55853 -0.83906,0.18774 z m -0.79375,-9.75977 c -1.62302,-0.77481 -1.67349,-0.83361 -1.18195,-1.37676 0.58871,-0.65051 0.2863,-1.04874 -0.79641,-1.04874 -1.73992,0 -2.32478,-0.70048 -1.06435,-1.27477 0.38801,-0.1768 0.66146,-0.52249 0.66146,-0.83622 0,-0.71102 0.30578,-0.67444 1.05833,0.12661 0.70727,0.75286 1.12068,0.82708 1.57275,0.28236 0.17304,-0.20851 0.51504,-0.38352 0.76,-0.38893 0.24495,-0.005 0.80293,-0.0821 1.23994,-0.17051 0.63457,-0.12832 0.92397,-0.0229 1.4371,0.52326 0.61706,0.65684 0.62602,0.71793 0.22601,1.5418 -0.72446,1.49209 -2.04681,3.10762 -2.52548,3.0854 -0.25375,-0.0118 -0.87808,-0.22036 -1.3874,-0.4635 z m 23.29169,-10.70223 c -0.0135,-0.76476 0.75105,-2.35906 1.04443,-2.17774 0.46601,0.28801 0.29585,1.13531 -0.38297,1.9069 -0.52893,0.60122 -0.65469,0.65271 -0.66146,0.27084 z m 7.8116,-3.07648 c -0.21131,-0.3419 0.12552,-1.1085 0.40984,-0.93278 0.31506,0.19472 0.30496,1.17349 -0.0121,1.17349 -0.13693,0 -0.31591,-0.10832 -0.39773,-0.24071 z m 0.33071,-3.07376 c -0.21914,-0.48096 -0.22402,-0.74927 -0.0174,-0.9559 0.43824,-0.43825 0.86254,-0.0219 0.86254,0.8464 0,0.95473 -0.4344,1.01101 -0.84516,0.1095 z"
       id="path347" /></g></svg>
