<?xml version="1.0" encoding="UTF-8" standalone="no"?>
<svg
   width="512mm"
   height="512mm"
   viewBox="0 0 512 512"
   version="1.1"
   id="svg5"
   xmlns:xlink="http://www.w3.org/1999/xlink"
   xmlns="http://www.w3.org/2000/svg"
   xmlns:svg="http://www.w3.org/2000/svg">
  <defs
     id="defs2">
    <linearGradient
       id="linearGradient310">
      <stop
         style="stop-color:#1e89ad;stop-opacity:1;"
         offset="0"
         id="stop306" />
      <stop
         style="stop-color:#1f7a97;stop-opacity:1;"
         offset="1"
         id="stop308" />
    </linearGradient>
    <linearGradient
       xlink:href="#linearGradient310"
       id="linearGradient312"
       x1="255.62372"
       y1="2.397042"
       x2="255.62372"
       y2="507.59384"
       gradientUnits="userSpaceOnUse" />
  </defs>
  <g
     id="layer1">
    <rect
       style="fill:url(#linearGradient312);stroke-width:0.264583;fill-opacity:1"
       id="rect178"
       width="512"
       height="512"
       x="0"
       y="0" />
    <g
       transform="matrix(3.6440683,0,0,3.6440683,2.4526539,-417.03198)"
       fill="#ffffff"
       stroke-width="0.26458"
       id="g8280">
      <path
         d="m 84.672,212.25 c -0.22626,-0.17727 -5.465,-7.0316 -11.642,-15.232 -6.177,-8.2004 -15.13,-20.083 -19.895,-26.405 -5.5211,-7.3248 -8.6651,-11.716 -8.6651,-12.103 0,-1.287 1.5733,-1.9073 2.587,-1.02 0.29093,0.25466 5.9429,7.6663 12.56,16.47 6.6171,8.804 15.496,20.591 19.731,26.194 5.5429,7.3334 7.7023,10.385 7.7099,10.895 0.0191,1.292 -1.3739,1.9935 -2.3853,1.2011 z m -30.261,-0.34122 c -0.9357,-0.93569 -0.56915,-1.55 6.6312,-11.114 3.8758,-5.148 7.1228,-9.3131 7.2156,-9.2558 1.8588,2.4528 0.02346,-0.0113 1.855,2.4526 l -6.3523,8.4387 c -3.4938,4.6413 -6.6541,8.7662 -7.0229,9.1663 -0.7488,0.81244 -1.6987,0.93976 -2.3266,0.31183 z m 17.377,-22.59 c -0.47294,-0.56967 -0.8599,-1.1683 -0.8599,-1.3303 0,-0.162 5.1999,-7.1976 11.555,-15.635 8.4902,-11.271 11.729,-15.384 12.212,-15.505 1.1958,-0.30013 2.3096,0.77031 1.7551,1.8906 -0.6988,1.4118 -23.243,31.156 -23.67,31.607 -0.07276,0.004 -0.51924,-0.45832 -0.99219,-1.028 z"
         id="path8274" />
      <path
         d="m 11.677,184.47 c 0.72908,1.021 4.0415,5.4442 7.3609,9.8293 5.9098,7.8072 6.0605,7.9801 7.2488,8.3168 1.6264,0.46115 4.2775,0.56573 5.6854,0.22473 3.9744,-0.96257 6.3587,-3.7219 9.4118,-10.893 2.6847,-6.3053 3.8744,-8.2662 6.2234,-10.257 1.5546,-1.3176 4.9472,-2.0303 7.8419,-1.6474 1.3669,0.18082 2.0468,-0.11706 2.0121,-0.88149 -0.01257,-0.27578 -3.2799,-4.8106 -7.2609,-10.077 l -7.2381,-9.576 -1.5161,-0.4285 c -3.0113,-0.85015 -5.6742,-0.60546 -8.1221,0.74619 -2.5749,1.4218 -4.27,3.9116 -7.0244,10.318 -2.9693,6.906 -4.6973,9.3268 -7.6596,10.731 -1.5587,0.73861 -3.8477,1.0334 -5.771,0.74315 -2.7354,-0.41279 -3.0262,0.28288 -1.192,2.8514 z"
         id="path8276" />
      <path
         d="m 82.288,181.92 c 0.28168,0.0502 1.0579,-6.6e-4 1.725,-0.11332 1.9179,-0.32379 4.2118,-0.0685 5.7831,0.6423 2.9863,1.3518 4.7563,3.7421 7.8457,10.595 2.8657,6.357 4.604,8.8169 7.2034,10.193 2.4712,1.3087 5.1379,1.5069 8.1339,0.60435 l 1.5087,-0.45395 7.0699,-9.7008 c 5.8043,-7.9643 7.0762,-9.9266 7.0838,-10.203 0.0213,-0.76491 -0.6636,-1.0509 -2.0272,-0.84623 -2.8876,0.43338 -6.2921,-0.21998 -7.8694,-1.5103 -2.3833,-1.9496 -3.6071,-3.8894 -6.4014,-10.147 -3.1778,-7.1162 -5.6098,-9.8335 -9.6004,-10.727 -1.4137,-0.31631 -4.0625,-0.16531 -5.6807,0.32392 -14.172,18.245 -7.9588,10 -14.291,18.398 -1.323,1.9229 -1.4619,2.7687 -0.48347,2.9435 z"
         id="path8278" />
    </g>
  </g>
</svg>
