<?xml version="1.0" encoding="UTF-8" standalone="no"?>
<!-- Created with Inkscape (http://www.inkscape.org/) -->

<svg
   width="50.392162mm"
   height="32.885002mm"
   viewBox="0 0 50.392162 32.885002"
   version="1.1"
   id="svg5"
   xml:space="preserve"
   inkscape:version="1.2.2 (732a01da63, 2022-12-09, custom)"
   sodipodi:docname="north-america.svg"
   xmlns:inkscape="http://www.inkscape.org/namespaces/inkscape"
   xmlns:sodipodi="http://sodipodi.sourceforge.net/DTD/sodipodi-0.dtd"
   xmlns="http://www.w3.org/2000/svg"
   xmlns:svg="http://www.w3.org/2000/svg"><sodipodi:namedview
     id="namedview7"
     pagecolor="#505050"
     bordercolor="#eeeeee"
     borderopacity="1"
     inkscape:showpageshadow="0"
     inkscape:pageopacity="0"
     inkscape:pagecheckerboard="0"
     inkscape:deskcolor="#505050"
     inkscape:document-units="mm"
     showgrid="false"
     inkscape:zoom="0.84222234"
     inkscape:cx="163.85222"
     inkscape:cy="15.435354"
     inkscape:window-width="1390"
     inkscape:window-height="827"
     inkscape:window-x="0"
     inkscape:window-y="37"
     inkscape:window-maximized="1"
     inkscape:current-layer="layer1" /><defs
     id="defs2" /><g
     inkscape:label="Layer 1"
     inkscape:groupmode="layer"
     id="layer1"
     transform="translate(271.85893,-408.70914)"><path
       style="fill:#ffffff;stroke-width:0.264583"
       d="m -238.50004,441.55082 c -0.0617,-0.0617 -0.63257,-0.14158 -1.26855,-0.17749 -1.55443,-0.0877 -4.0456,-1.42049 -4.08425,-2.18501 -0.0157,-0.31136 -0.73012,-1.38474 -1.5875,-2.3853 -0.85739,-1.00056 -1.75423,-2.11503 -1.99298,-2.47661 -0.47621,-0.72117 -1.04233,-0.51432 -0.58712,0.21452 0.15491,0.24805 0.72882,1.16537 1.27533,2.03849 l 0.99368,1.5875 -1.08692,-1.15791 c -0.5978,-0.63686 -1.08692,-1.31444 -1.08692,-1.50574 0,-0.1913 -0.12076,-0.42246 -0.26836,-0.51368 -0.1476,-0.0912 -0.50624,-0.63213 -0.79697,-1.20201 -0.32073,-0.62868 -0.77766,-1.09866 -1.16193,-1.19511 -0.42813,-0.10745 -0.90084,-0.66083 -1.45892,-1.70789 -0.74953,-1.40628 -0.82071,-1.74637 -0.77283,-3.69246 0.0408,-1.65714 0.1324,-2.11295 0.40379,-2.00881 0.19308,0.0741 0.35106,-0.0187 0.35106,-0.20614 0,-0.34103 -0.78408,-1.09265 -1.7405,-1.66844 -0.27965,-0.16836 -0.4787,-0.43625 -0.44232,-0.59531 0.0364,-0.15906 -0.0529,-0.28921 -0.19843,-0.28921 -0.14552,0 -0.26459,-0.17859 -0.26459,-0.39687 0,-0.21828 -0.19248,-0.39688 -0.42773,-0.39688 -0.30419,0 -0.38579,-0.1604 -0.28251,-0.55533 0.0799,-0.30544 0.0761,-0.4862 -0.008,-0.40169 -0.0845,0.0845 -0.38131,-0.11208 -0.65956,-0.43685 -0.27826,-0.32478 -0.74029,-0.86328 -1.02674,-1.19667 -0.28646,-0.3334 -0.63643,-0.53473 -0.77772,-0.44741 -0.14129,0.0873 -0.25871,0.003 -0.26094,-0.18758 -0.003,-0.27908 -0.0458,-0.28058 -0.21891,-0.008 -0.16794,0.26464 -0.35484,0.23099 -0.85585,-0.15411 -0.35254,-0.27099 -1.47442,-0.69156 -2.49306,-0.9346 -2.1597,-0.51528 -2.33541,-0.52985 -2.11637,-0.17543 0.15453,0.25004 -1.14865,0.92372 -1.36614,0.70624 -0.23261,-0.23261 0.2647,-0.9729 0.66654,-0.9922 0.3061,-0.0147 0.33058,-0.0625 0.0827,-0.16143 -0.38732,-0.15464 -1.9524,1.20149 -1.75508,1.52076 0.18315,0.29634 -2.38894,2.06416 -3.2409,2.2275 -0.4056,0.0778 -0.55886,0.0642 -0.34058,-0.0302 0.85672,-0.37043 1.79403,-1.16847 1.9148,-1.6303 0.10865,-0.4155 -0.0255,-0.47985 -0.93027,-0.44606 -0.7978,0.0298 -1.08639,-0.072 -1.176,-0.41462 -0.0773,-0.29558 -0.2944,-0.40818 -0.62188,-0.32254 -0.32932,0.0861 -0.56613,-0.0388 -0.68549,-0.36147 -0.10029,-0.27117 -0.28288,-0.56117 -0.40576,-0.64445 -0.35243,-0.23886 0.63871,-1.2006 1.44158,-1.39882 0.49726,-0.12277 0.72761,-0.35051 0.72761,-0.71938 0,-0.35542 -0.10952,-0.47206 -0.3207,-0.34154 -0.47574,0.29402 -2.14599,0.12174 -2.37827,-0.24532 -0.32974,-0.52105 0.58774,-1.00294 1.56163,-0.82024 1.17537,0.2205 1.12085,-0.2437 -0.10323,-0.87894 -1.12217,-0.58236 -1.43458,-1.13289 -0.64287,-1.13289 0.29804,0 0.65785,-0.21666 0.79957,-0.48146 0.14172,-0.26481 0.77099,-0.6427 1.39838,-0.83976 0.62738,-0.19706 1.24511,-0.44796 1.37273,-0.55755 0.12762,-0.10959 0.51757,-0.0907 0.86657,0.042 0.63231,0.2404 3.47837,0.74466 4.98681,0.88355 0.43656,0.0402 1.54529,0.28888 2.46384,0.55263 1.66768,0.47886 1.67161,0.47869 2.72401,-0.11279 0.57966,-0.32578 1.24219,-0.52009 1.4723,-0.43179 0.23011,0.0883 0.56798,0.0364 0.75082,-0.11535 0.24021,-0.19935 0.37736,-0.15885 0.49433,0.14597 0.10826,0.28213 0.3376,0.3661 0.69236,0.25351 0.32801,-0.10411 0.53047,-0.0482 0.53047,0.14644 0,0.2429 0.0864,0.24313 0.37814,9.8e-4 0.29419,-0.24416 0.64869,-0.22198 1.59675,0.0999 0.67023,0.22755 1.44554,0.41373 1.72291,0.41373 0.56634,0 1.02565,0.51873 0.485,0.54776 -0.19049,0.0102 -0.10822,0.11438 0.18282,0.23143 0.29104,0.11706 0.93398,0.14975 1.42874,0.0726 0.67725,-0.10555 0.98717,-0.0204 1.25404,0.34457 0.45605,0.62369 0.75655,0.33843 0.38157,-0.36222 -0.39374,-0.73571 0.42357,-0.98435 1.45963,-0.44404 0.9164,0.47791 3.40997,0.56138 3.12772,0.1047 -0.11126,-0.18003 -0.0415,-0.25115 0.17553,-0.17882 0.19814,0.0661 0.44097,0.40892 0.53962,0.76193 0.16955,0.60672 0.25554,0.59913 0.33133,-0.0293 0.0182,-0.15083 0.16389,-0.35918 0.32378,-0.46302 0.4645,-0.30164 0.32836,-1.09262 -0.2179,-1.266 -0.72912,-0.23141 -0.53887,-1.53994 0.24002,-1.65082 0.64011,-0.0911 1.28251,0.79062 1.03877,1.42579 -0.0853,0.22218 0.0181,0.3762 0.25251,0.3762 0.21828,0 0.46924,0.18858 0.55768,0.41906 0.11804,0.3076 0.21353,0.33377 0.35899,0.0984 0.25586,-0.41398 0.86511,-0.0456 0.68799,0.416 -0.074,0.19293 0.0262,0.48421 0.22271,0.64731 0.27545,0.22861 0.45369,0.15894 0.77802,-0.30411 0.23139,-0.33036 0.42071,-0.81228 0.42071,-1.07094 0,-0.54601 0.91396,-0.64919 1.23628,-0.13957 0.3313,0.52381 0.32699,1.89902 -0.007,2.11261 -0.16699,0.10692 -0.61746,0.19621 -1.00107,0.19844 -0.53514,0.003 -0.79972,0.21956 -1.13689,0.9301 -0.24169,0.50932 -0.62314,0.92604 -0.84766,0.92604 -0.6059,0 -1.94537,1.32499 -2.4001,2.37415 -0.37682,0.86941 -0.36824,0.93891 0.15909,1.28905 0.30658,0.20355 0.55741,0.53416 0.55741,0.73469 0,0.22224 0.28695,0.36461 0.73488,0.36461 0.40418,0 0.97319,0.16692 1.26446,0.37094 0.29128,0.20401 1.03214,0.50626 1.64638,0.67165 0.90328,0.24323 1.11678,0.41748 1.11678,0.9115 0,0.75525 0.92042,1.86653 1.33417,1.61083 0.17554,-0.10849 0.25664,-0.59285 0.19199,-1.14661 -0.0896,-0.76757 0.0109,-1.05538 0.50387,-1.44317 0.6901,-0.54283 0.77429,-0.9754 0.28507,-1.46461 -0.1819,-0.1819 -0.33393,-0.97824 -0.33785,-1.76965 l -0.007,-1.43893 1.15959,0.11355 c 0.63778,0.0625 1.36473,0.29921 1.61546,0.52611 0.25072,0.22691 0.59299,0.41255 0.76059,0.41255 0.18088,0 0.26817,0.314 0.21477,0.77261 -0.0685,0.58841 0.0334,0.80488 0.42756,0.90795 0.69499,0.18174 1.21656,-0.0462 1.55576,-0.68005 0.26411,-0.49349 0.31881,-0.46884 0.91869,0.41397 0.35083,0.51628 0.64165,1.09384 0.64628,1.28347 0.0124,0.50696 0.65539,1.26946 1.07909,1.27961 0.54771,0.0131 1.55833,0.93999 1.55833,1.42922 0,0.23493 -0.28609,0.53593 -0.63576,0.66887 -0.34966,0.13294 -0.71388,0.36812 -0.80936,0.52262 -0.0955,0.15449 -0.94049,0.2809 -1.87779,0.2809 -0.9373,0 -1.70418,0.0989 -1.70418,0.21987 0,0.12094 -0.29134,0.3758 -0.64742,0.56637 -0.35608,0.19057 -0.7184,0.53144 -0.80514,0.75748 -0.13691,0.3568 -0.0951,0.35433 0.31718,-0.0188 0.26119,-0.23637 0.81209,-0.55797 1.22422,-0.71466 0.94295,-0.35851 1.50277,-0.0736 0.82672,0.42074 -0.26814,0.19607 -0.34571,0.35649 -0.17238,0.35649 0.17334,0 0.31516,0.17632 0.31516,0.39183 0,0.48538 1.38244,0.8848 1.53002,0.44206 0.0565,-0.16941 0.23095,-0.22874 0.38774,-0.13184 0.15679,0.0969 -0.29071,0.45406 -0.99444,0.7937 -1.34973,0.6514 -1.7512,0.63819 -1.18907,-0.0391 0.29695,-0.3578 0.26073,-0.37485 -0.29303,-0.13795 -0.34752,0.14867 -0.95927,0.40069 -1.35945,0.56004 -0.51141,0.20365 -0.72761,0.47858 -0.72761,0.92531 0,0.45529 -0.14738,0.63557 -0.51962,0.63557 -0.2921,0 -0.78449,0.38712 -1.12448,0.88407 -0.33267,0.48624 -0.76524,0.82965 -0.96128,0.76314 -0.28147,-0.0955 -0.29538,-0.007 -0.0661,0.42145 0.44514,0.83175 0.3777,0.97851 -0.88927,1.93534 -0.64875,0.48993 -1.23953,1.03752 -1.31283,1.21686 -0.0733,0.17934 0.0431,0.82592 0.25863,1.43685 0.24048,0.68159 0.29721,1.20549 0.14684,1.35587 -0.23148,0.23147 -0.42723,-0.007 -1.25509,-1.53129 -0.21805,-0.40137 -0.61596,-0.55022 -1.64774,-0.61634 -0.77505,-0.0497 -1.36027,0.0249 -1.36027,0.17326 0,0.14957 -0.43504,0.20208 -1.02192,0.12337 -1.59329,-0.21371 -2.31811,0.40787 -2.53921,2.17748 -0.19495,1.56028 0.3147,2.89472 1.21463,3.18034 0.77663,0.2465 1.84475,-0.18098 2.09467,-0.8383 0.16778,-0.44131 0.44568,-0.62793 0.93505,-0.62793 0.52625,0 0.65709,0.10222 0.53572,0.41851 -0.0883,0.23019 -0.1606,0.5162 -0.1606,0.63558 0,0.11938 -0.37052,0.34622 -0.82338,0.50409 -0.53887,0.18785 -0.77391,0.41593 -0.68022,0.66008 0.093,0.2423 -0.0799,0.4157 -0.49332,0.49473 -0.35006,0.0669 -0.68698,0.0712 -0.74869,0.009 z m 6.25739,-13.30577 c 0.37,-0.29104 0.8623,-0.52917 1.09401,-0.52917 0.23171,0 0.42129,-0.10255 0.42129,-0.22789 0,-0.12534 -0.29766,-0.171 -0.66146,-0.10145 -0.3638,0.0695 -0.66146,0.23163 -0.66146,0.36019 0,0.12855 -0.23109,0.23373 -0.51355,0.23373 -0.28245,0 -0.58833,0.12101 -0.67974,0.2689 -0.0914,0.1479 -0.27702,0.2004 -0.41249,0.11668 -0.13546,-0.0837 -0.2463,-0.0261 -0.2463,0.12798 0,0.45925 0.93827,0.3185 1.6597,-0.24897 z m -2.98262,-0.49677 c 0,-0.41875 0.17338,-0.90525 0.38529,-1.08112 0.43517,-0.36116 1.03525,-0.11646 0.85653,0.34927 -0.0644,0.16795 0.0246,0.43776 0.19779,0.59959 0.23469,0.21922 0.45511,0.13688 0.86479,-0.32305 0.41921,-0.47064 0.47375,-0.6804 0.2296,-0.88303 -0.40089,-0.33271 -1.69172,-0.43165 -2.43634,-0.18675 -0.8418,0.27686 -1.14645,2.28644 -0.34662,2.28644 0.13693,0 0.24896,-0.34261 0.24896,-0.76135 z m 0.79375,-2.07704 c 0,-0.31061 -0.87764,-1.13036 -1.21019,-1.13036 -0.40519,0 -1.96079,0.86136 -1.96313,1.08702 -8e-4,0.0885 0.7127,0.1711 1.58582,0.18348 0.87313,0.0124 1.5875,-0.0507 1.5875,-0.14014 z m 11.78096,-4.25426 c -0.0815,-0.0815 -0.29495,-1.7e-4 -0.47443,0.18065 -0.25936,0.26131 -0.22897,0.2917 0.14812,0.14811 0.26093,-0.0993 0.40778,-0.2473 0.32631,-0.32876 z"
       id="path382" /></g></svg>
