<?xml version="1.0" encoding="UTF-8" standalone="no"?>
<!-- Created with Inkscape (http://www.inkscape.org/) -->

<svg
   width="47.486042mm"
   height="44.798462mm"
   viewBox="0 0 47.486042 44.798462"
   version="1.1"
   id="svg5"
   xml:space="preserve"
   inkscape:version="1.2.2 (732a01da63, 2022-12-09, custom)"
   sodipodi:docname="oceania.svg"
   xmlns:inkscape="http://www.inkscape.org/namespaces/inkscape"
   xmlns:sodipodi="http://sodipodi.sourceforge.net/DTD/sodipodi-0.dtd"
   xmlns="http://www.w3.org/2000/svg"
   xmlns:svg="http://www.w3.org/2000/svg"><sodipodi:namedview
     id="namedview7"
     pagecolor="#505050"
     bordercolor="#eeeeee"
     borderopacity="1"
     inkscape:showpageshadow="0"
     inkscape:pageopacity="0"
     inkscape:pagecheckerboard="0"
     inkscape:deskcolor="#505050"
     inkscape:document-units="mm"
     showgrid="false"
     inkscape:zoom="1.2532792"
     inkscape:cx="-78.992775"
     inkscape:cy="14.362323"
     inkscape:window-width="1390"
     inkscape:window-height="827"
     inkscape:window-x="0"
     inkscape:window-y="37"
     inkscape:window-maximized="1"
     inkscape:current-layer="layer1" /><defs
     id="defs2" /><g
     inkscape:label="Layer 1"
     inkscape:groupmode="layer"
     id="layer1"
     transform="translate(137.86012,-43.578843)"><path
       style="fill:#ffffff;stroke-width:0.264583"
       d="m -101.28148,88.096303 c -0.76256,-0.17077 -1.12448,-0.391258 -1.12448,-0.685049 0,-0.717677 1.32642,-2.403549 2.663065,-3.384735 0.69148,-0.507593 1.39089,-1.24818 1.55425,-1.645748 0.3809,-0.926997 0.9327,-1.877653 1.30731,-2.252263 0.21592,-0.215924 0.38521,-0.169815 0.63606,0.173244 0.18801,0.257114 0.51588,0.42931 0.7286,0.382656 0.63623,-0.139538 0.64376,1.336315 0.0112,2.191925 -0.30275,0.40949 -0.55046,0.924888 -0.55046,1.145326 0,0.220435 -0.35185,0.582742 -0.78188,0.805121 -0.53962,0.279049 -0.83251,0.670558 -0.94527,1.263566 -0.20062,1.055044 -1.25461,2.324444 -1.89818,2.286111 -0.26164,-0.01558 -0.981735,-0.141655 -1.600195,-0.280154 z m 6.869455,-7.241437 c -0.26425,-0.299638 -0.27155,-0.514781 -0.0326,-0.961178 0.25523,-0.476893 0.22565,-0.635199 -0.17314,-0.926804 -0.26452,-0.193424 -0.57725,-0.351676 -0.69496,-0.351676 -0.38076,0 -0.2267,-0.983007 0.21099,-1.346261 0.59772,-0.496062 0.34438,-2.382629 -0.46742,-3.480697 -0.67637,-0.914898 -1.36135,-2.316793 -1.13199,-2.316793 0.0754,0 0.59861,0.235416 1.1626,0.523145 0.7552,0.385271 1.0736,0.742384 1.20816,1.355029 0.10903,0.496369 0.38598,0.88504 0.6867,0.963679 0.27719,0.07249 0.57405,0.410959 0.65969,0.752158 0.18026,0.718211 1.02734,1.079981 1.53746,0.656619 0.59861,-0.4968 1.2315,-0.05698 1.03643,0.720259 -0.27039,1.077346 -0.73319,1.826022 -1.06117,1.716696 -0.16567,-0.05522 -0.43733,0.312029 -0.60369,0.816113 -0.27815,0.842801 -1.45218,2.299502 -1.8342,2.275821 -0.0893,-0.0055 -0.31557,-0.183785 -0.50281,-0.39611 z m -22.762905,-4.695725 c -0.45358,-0.546536 -0.80955,-1.667171 -0.61971,-1.950958 0.0963,-0.143997 0.6933,-0.209693 1.32662,-0.145986 1.13203,0.113868 1.14873,0.129833 0.98862,0.945356 -0.147,0.748789 -0.7604,1.490988 -1.23223,1.490988 -0.0999,0 -0.30837,-0.152731 -0.4633,-0.3394 z m 0.21689,-3.369807 c 0,-0.153921 -0.27782,-0.199895 -0.64741,-0.107135 -1.12265,0.281765 -2.42964,-0.337638 -2.92786,-1.387552 -0.24677,-0.52002 -0.67437,-1.004517 -0.95024,-1.076658 -0.27587,-0.07214 -0.51098,-0.325639 -0.52246,-0.563327 -0.0133,-0.274315 -0.0696,-0.311362 -0.15434,-0.101434 -0.23838,0.590757 -0.7519,0.350925 -1.25705,-0.587081 -0.67638,-1.255964 -1.78012,-1.602137 -3.78997,-1.18867 -1.88003,0.38676 -2.36773,0.634574 -2.58288,1.31245 -0.1346,0.42409 -0.4002,0.529447 -1.33473,0.529447 -0.95251,0 -1.24626,0.121431 -1.6001,0.661458 -0.47839,0.730116 -1.04996,0.823675 -2.10242,0.344141 -0.57434,-0.261686 -0.67088,-0.445055 -0.5507,-1.045961 0.14339,-0.716928 -0.8061,-3.313311 -1.53335,-4.192971 -0.42368,-0.512465 -0.94858,-2.359579 -0.94857,-3.337989 1e-5,-0.884413 0.89627,-1.690656 3.17499,-2.856119 1.77213,-0.906362 2.44131,-1.469845 2.27139,-1.912639 -0.0707,-0.184209 0.20767,-0.617809 0.61856,-0.963555 0.4109,-0.345746 0.88478,-0.885919 1.05308,-1.200384 0.1683,-0.314465 0.6419,-0.745458 1.05245,-0.957763 0.6598,-0.341193 0.81447,-0.33837 1.33227,0.02431 0.62375,0.436892 0.85328,0.290872 1.62353,-1.032841 0.14818,-0.254661 0.50336,-0.463021 0.78928,-0.463021 0.30128,0 0.51986,-0.178929 0.51986,-0.425558 0,-0.307274 0.16547,-0.385836 0.59531,-0.282647 0.32742,0.0786 1.07157,0.219847 1.65365,0.31388 1.76714,0.285476 1.76656,0.284817 1.15861,1.315215 -0.63976,1.084304 -0.46979,1.462608 0.90068,2.004637 0.46812,0.185143 1.04,0.496429 1.27085,0.691745 0.36296,0.307099 0.46568,0.256481 0.75959,-0.374304 0.18692,-0.401184 0.37551,-1.205676 0.41907,-1.787759 0.1043,-1.393743 0.54916,-2.513542 0.99855,-2.513542 0.19859,0 0.52107,0.506016 0.71661,1.124479 0.19555,0.618464 0.61505,1.362604 0.93222,1.653646 0.34519,0.316744 0.70465,1.138149 0.89545,2.0462 0.26016,1.238138 0.46485,1.602951 1.1134,1.984375 0.46931,0.276003 0.85413,0.762808 0.93993,1.189012 0.0799,0.396919 0.30952,0.857982 0.51026,1.024585 0.20074,0.166602 0.36499,0.466929 0.36499,0.667392 0,0.200463 0.097,0.364478 0.21558,0.364478 0.43689,0 1.10733,1.908188 1.10733,3.151665 0,1.583742 -0.58244,3.02916 -1.73587,4.30782 -0.48482,0.537454 -1.01155,1.460188 -1.17051,2.050521 -0.23013,0.854671 -0.41138,1.073328 -0.8897,1.073328 -0.33038,0 -0.83181,0.174807 -1.11428,0.388461 -0.60034,0.45407 -1.17505,0.520425 -1.17505,0.135665 z m 1.67449,-21.386438 c -0.31595,-0.09463 -0.83061,-0.499486 -1.14368,-0.899668 -0.57121,-0.730152 -1.41592,-0.957357 -1.72144,-0.463021 -0.0899,0.145521 -0.44712,0.264583 -0.79375,0.264583 -0.34662,0 -0.70381,-0.119062 -0.79375,-0.264583 -0.0899,-0.145521 -0.46163,-0.264583 -0.82599,-0.264583 -0.52547,0 -0.64536,-0.116549 -0.5797,-0.563554 0.0455,-0.309955 -0.0958,-0.659592 -0.3141,-0.776972 -0.84352,-0.453604 -2.20812,-1.040724 -2.41888,-1.040724 -0.3757,0 -1.26588,-0.875684 -1.12383,-1.10553 0.0739,-0.119563 -0.0513,-0.217387 -0.27813,-0.217387 -0.71856,0 -0.44528,-0.730554 0.38102,-1.018606 0.72944,-0.254281 0.85064,-0.205034 1.5008,0.609789 l 0.70729,0.88641 0.70197,-0.518991 0.70197,-0.51899 1.99226,0.791408 c 1.99892,0.794056 3.35655,1.861322 4.03388,3.171119 0.19913,0.385084 0.61237,0.926683 0.91831,1.203555 0.95622,0.865362 0.554,1.174501 -0.94425,0.725745 z m -14.50082,-0.294705 c -0.2713,-0.438975 0.87796,-1.332567 1.71383,-1.332567 1.03274,0 0.99816,0.260224 -0.13186,0.992187 -1.00888,0.653493 -1.3439,0.725579 -1.58197,0.34038 z m 2.25637,-5.23728 c -0.5742,-0.464962 -0.58084,-0.518551 -0.18231,-1.472371 0.36939,-0.884067 0.46834,-0.955655 0.92591,-0.669897 0.38885,0.242841 0.49787,0.575989 0.45236,1.382354 -0.0699,1.23823 -0.36987,1.428839 -1.19596,0.759914 z"
       id="path296" /></g></svg>
