<?xml version="1.0" encoding="UTF-8" standalone="no"?>
<!-- Created with Inkscape (http://www.inkscape.org/) -->

<svg
   width="33.337502mm"
   height="47.676895mm"
   viewBox="0 0 33.337501 47.676895"
   version="1.1"
   id="svg5"
   xml:space="preserve"
   inkscape:version="1.2.2 (732a01da63, 2022-12-09, custom)"
   sodipodi:docname="south-america.svg"
   xmlns:inkscape="http://www.inkscape.org/namespaces/inkscape"
   xmlns:sodipodi="http://sodipodi.sourceforge.net/DTD/sodipodi-0.dtd"
   xmlns="http://www.w3.org/2000/svg"
   xmlns:svg="http://www.w3.org/2000/svg"><sodipodi:namedview
     id="namedview7"
     pagecolor="#505050"
     bordercolor="#eeeeee"
     borderopacity="1"
     inkscape:showpageshadow="0"
     inkscape:pageopacity="0"
     inkscape:pagecheckerboard="0"
     inkscape:deskcolor="#505050"
     inkscape:document-units="mm"
     showgrid="false"
     inkscape:zoom="2.3515933"
     inkscape:cx="81.221527"
     inkscape:cy="13.607795"
     inkscape:window-width="1390"
     inkscape:window-height="827"
     inkscape:window-x="0"
     inkscape:window-y="37"
     inkscape:window-maximized="1"
     inkscape:current-layer="layer1" /><defs
     id="defs2" /><g
     inkscape:label="Layer 1"
     inkscape:groupmode="layer"
     id="layer1"
     transform="translate(239.01844,-408.65361)"><path
       style="fill:#ffffff;stroke-width:0.264583"
       d="m -225.11731,456.13907 c -0.67853,-0.28531 -0.71392,-0.34699 -0.26459,-0.46109 0.47263,-0.12002 0.46753,-0.13446 -0.0573,-0.16242 -0.7632,-0.0407 -2.15601,-1.76252 -2.37347,-2.93418 -0.0952,-0.51314 -0.40422,-1.13501 -0.68663,-1.38195 -0.53622,-0.46886 -0.42853,-1.0772 0.1513,-0.8547 0.22589,0.0867 0.32022,-0.11054 0.29023,-0.60687 -0.0244,-0.40441 -0.0598,-1.12224 -0.0786,-1.59518 -0.0215,-0.54289 -0.17019,-0.8599 -0.4032,-0.8599 -0.23145,0 -0.43181,-0.41934 -0.53728,-1.12448 -0.22884,-1.52996 -0.251,-4.58666 -0.0358,-4.9349 0.0964,-0.15593 0.0508,-0.73159 -0.10131,-1.27925 -0.15209,-0.54766 -0.28223,-2.36496 -0.28921,-4.03845 -0.007,-1.67349 -0.16479,-3.69755 -0.35069,-4.49792 l -0.33801,-1.45521 -1.7013,-0.6035 c -1.80996,-0.64204 -2.37135,-1.14994 -4.23945,-3.83553 -0.58483,-0.84074 -1.46606,-1.79262 -1.9583,-2.11529 -0.7665,-0.50246 -0.88466,-0.71771 -0.8231,-1.49938 0.0395,-0.50199 0.21081,-0.95901 0.38061,-1.01561 0.1698,-0.0566 0.29932,-0.36088 0.28784,-0.67617 -0.0115,-0.3153 -0.0809,-0.42444 -0.15434,-0.24254 -0.27525,0.68213 -0.61853,0.29431 -0.61853,-0.69879 0,-0.81127 0.22437,-1.30104 1.05834,-2.31026 1.14272,-1.38285 1.1943,-1.58398 0.78458,-3.0592 -0.24705,-0.88947 -0.19107,-1.09967 0.63803,-2.39575 0.74668,-1.16726 2.6358,-2.84694 3.20192,-2.84694 0.0759,0 0.13797,0.36711 0.13797,0.8158 0,1.03925 0.60609,0.90567 0.79936,-0.17617 0.0911,-0.50998 0.20863,-0.65969 0.34634,-0.44119 0.11464,0.1819 0.43954,0.33073 0.722,0.33073 0.28245,0 0.51355,0.10159 0.51355,0.22574 0,0.35453 2.72956,0.0163 3.20288,-0.39688 0.23567,-0.20573 0.62834,-0.29266 0.88208,-0.19529 0.36164,0.13877 0.38349,0.22148 0.10441,0.39533 -0.24605,0.15328 -0.0881,0.2732 0.52148,0.39603 0.62705,0.12634 0.83176,0.2873 0.72368,0.56897 -0.11482,0.29922 -0.009,0.3557 0.44467,0.23709 0.43533,-0.11384 0.81742,0.0595 1.42128,0.64478 0.67448,0.65374 1.11173,0.8257 2.3851,0.93802 2.02999,0.17907 2.62252,0.49271 3.56271,1.88579 0.8386,1.24258 0.79842,1.59969 -0.29023,2.57942 l -0.58471,0.52621 1.15551,0.13229 c 0.9343,0.10697 1.23967,0.031 1.59509,-0.39679 0.41537,-0.49994 0.50224,-0.50723 1.57715,-0.13229 0.77385,0.26992 1.18319,0.5846 1.28022,0.98417 0.10802,0.44482 0.23896,0.52684 0.53951,0.33796 0.74319,-0.46705 3.23046,0.0182 4.27141,0.83326 0.53026,0.41522 1.08731,0.75494 1.23787,0.75494 0.5925,0 1.1053,0.87152 1.1053,1.8785 0,0.81394 -0.19138,1.25403 -0.85989,1.97735 -2.09966,2.27182 -2.05052,2.18314 -2.05052,3.70039 0,0.79573 -0.0998,1.65352 -0.22172,1.9062 -1.73993,3.60544 -1.66716,3.50214 -2.46709,3.50214 -0.87845,0 -2.45058,0.74337 -3.33046,1.57477 -0.41628,0.39334 -0.59532,0.86796 -0.59532,1.57814 0,0.58001 -0.17022,1.15691 -0.39687,1.34501 -0.21828,0.18116 -0.39688,0.44729 -0.39688,0.5914 0,0.25643 -0.27886,0.6294 -2.374,3.17516 -0.56718,0.68916 -1.24617,1.61689 -1.50888,2.06162 -0.3542,0.59961 -0.82529,0.90966 -1.82267,1.19961 -1.27656,0.3711 -1.33912,0.43114 -1.22928,1.17953 0.10224,0.69659 0.0382,0.78851 -0.54958,0.78851 -0.62845,0 -0.6631,0.0743 -0.62535,1.34112 0.0307,1.02989 -0.0675,1.40135 -0.42305,1.60065 -0.62041,0.34775 -0.58317,0.7121 0.13229,1.29432 0.58107,0.47285 0.58424,0.50333 0.13229,1.27385 -0.53762,0.91662 -0.59917,1.92099 -0.14552,2.37465 0.24695,0.24694 0.18364,0.3175 -0.28488,0.3175 -0.586,0 -0.58204,0.0171 0.14552,0.62932 0.41135,0.34612 0.98603,0.67953 1.27707,0.74091 0.46564,0.0982 0.43388,0.16109 -0.26458,0.52392 -0.66064,0.34318 -0.92511,0.35709 -1.57706,0.083 z m 5.47966,-2.9461 c -0.51848,-0.20921 -0.38716,-0.61852 0.19844,-0.61852 0.29398,0 0.52917,0.17639 0.52917,0.39687 0,0.40771 -0.15185,0.45397 -0.72761,0.22165 z m -6.06337,-44.13513 c 0,-0.22233 0.16868,-0.40423 0.37483,-0.40423 0.20616,0 0.3277,0.14139 0.2701,0.3142 -0.15991,0.47971 -0.64493,0.54742 -0.64493,0.09 z"
       id="path417" /></g></svg>
